<svg xmlns="http://www.w3.org/2000/svg" width="533" height="420" viewBox="0 0 533 420">
  <g id="Grupo_2792" data-name="Grupo 2792" transform="translate(7220 -3184)">
    <rect id="Rectángulo_4677" data-name="Rectángulo 4677" width="533" height="420" transform="translate(-7220 3184)" fill="none"/>
    <g id="House_searching-rafiki" data-name="House searching-rafiki" transform="translate(-7203.5 3145.939)">
      <g id="freepik--background-complete--inject-31">
        <rect id="Rectángulo_4678" data-name="Rectángulo 4678" width="500" height="0.25" transform="translate(0 382.4)" fill="#e6e6e6"/>
        <rect id="Rectángulo_4679" data-name="Rectángulo 4679" width="26.57" height="0.25" transform="translate(51.65 393.56)" fill="#e6e6e6"/>
        <rect id="Rectángulo_4680" data-name="Rectángulo 4680" width="22.9" height="0.25" transform="translate(64.93 388.56)" fill="#e6e6e6"/>
        <rect id="Rectángulo_4681" data-name="Rectángulo 4681" width="61.45" height="0.25" transform="translate(263.96 389.3)" fill="#e6e6e6"/>
        <rect id="Rectángulo_4682" data-name="Rectángulo 4682" width="14.74" height="0.25" transform="translate(331.17 389.3)" fill="#e6e6e6"/>
        <rect id="Rectángulo_4683" data-name="Rectángulo 4683" width="48.66" height="0.25" transform="translate(381.06 391.01)" fill="#e6e6e6"/>
        <rect id="Rectángulo_4684" data-name="Rectángulo 4684" width="86.63" height="0.25" transform="translate(106.54 395)" fill="#e6e6e6"/>
        <rect id="Rectángulo_4685" data-name="Rectángulo 4685" width="7.09" height="0.25" transform="translate(438.5 391.01)" fill="#e6e6e6"/>
        <path id="Trazado_7077" data-name="Trazado 7077" d="M237,337.8H43.91a5.71,5.71,0,0,1-5.7-5.71V60.66A5.71,5.71,0,0,1,43.91,55H237a5.71,5.71,0,0,1,5.71,5.71V332.09A5.71,5.71,0,0,1,237,337.8ZM43.91,55.2a5.46,5.46,0,0,0-5.45,5.46V332.09a5.46,5.46,0,0,0,5.45,5.46H237a5.47,5.47,0,0,0,5.46-5.46V60.66A5.47,5.47,0,0,0,237,55.2Z" fill="#e6e6e6"/>
        <path id="Trazado_7078" data-name="Trazado 7078" d="M453.31,337.8H260.21a5.72,5.72,0,0,1-5.71-5.71V60.66A5.72,5.72,0,0,1,260.21,55h193.1A5.71,5.71,0,0,1,459,60.66V332.09A5.71,5.71,0,0,1,453.31,337.8ZM260.21,55.2a5.47,5.47,0,0,0-5.46,5.46V332.09a5.47,5.47,0,0,0,5.46,5.46h193.1a5.47,5.47,0,0,0,5.46-5.46V60.66a5.47,5.47,0,0,0-5.46-5.46Z" fill="#e6e6e6"/>
        <circle id="Elipse_302" data-name="Elipse 302" cx="22.44" cy="22.44" r="22.44" transform="translate(104.655 222.208) rotate(-77.02)" fill="#f0f0f0"/>
        <path id="Trazado_7079" data-name="Trazado 7079" d="M284.58,200.74c-2.79-6-.57-10.35,6.27-10.35,4.28,0,9.6,1.7,14.78,4.45.59-1.57,2.23-2.51,4.88-2.51,4.67,0,11.1,2.91,16.14,7a9.3,9.3,0,0,1,5.26-1.57c4.47-.18,9.87,1.49,14.57,4.21a2.85,2.85,0,0,1,2.07-.78,10.68,10.68,0,0,1,7.79,3.77c.11.13.2.27.3.4H281.11C278.72,203.23,281.36,200.85,284.58,200.74Z" fill="#f5f5f5"/>
        <path id="Trazado_7080" data-name="Trazado 7080" d="M137.44,247.17,199.32,233V382.4H137.44Z" fill="#fafafa"/>
        <rect id="Rectángulo_4686" data-name="Rectángulo 4686" width="32.11" height="149.4" transform="translate(199.32 233)" fill="#ebebeb"/>
        <rect id="Rectángulo_4687" data-name="Rectángulo 4687" width="52.67" height="185.13" transform="translate(273.61 382.4) rotate(180)" fill="#fafafa"/>
        <rect id="Rectángulo_4688" data-name="Rectángulo 4688" width="27.33" height="185.13" transform="translate(273.61 197.27)" fill="#ebebeb"/>
        <rect id="Rectángulo_4689" data-name="Rectángulo 4689" width="45.58" height="13.76" transform="translate(273.61 197.27) rotate(180)" fill="#fafafa"/>
        <rect id="Rectángulo_4690" data-name="Rectángulo 4690" width="45.58" height="3.09" transform="translate(273.61 197.27) rotate(180)" fill="#ebebeb"/>
        <rect id="Rectángulo_4691" data-name="Rectángulo 4691" width="20.25" height="13.76" transform="translate(273.61 183.51)" fill="#ebebeb"/>
        <rect id="Rectángulo_4692" data-name="Rectángulo 4692" width="38.49" height="13.76" transform="translate(273.6 183.51) rotate(180)" fill="#fafafa"/>
        <rect id="Rectángulo_4693" data-name="Rectángulo 4693" width="38.49" height="3.09" transform="translate(273.6 183.51) rotate(180)" fill="#ebebeb"/>
        <rect id="Rectángulo_4694" data-name="Rectángulo 4694" width="13.16" height="13.76" transform="translate(273.61 169.76)" fill="#ebebeb"/>
        <rect id="Rectángulo_4695" data-name="Rectángulo 4695" width="2.56" height="19.22" transform="translate(259.66 150.54)" fill="#ebebeb"/>
        <rect id="Rectángulo_4696" data-name="Rectángulo 4696" width="38.46" height="161.07" transform="translate(330.67 382.4) rotate(180)" fill="#fafafa"/>
        <rect id="Rectángulo_4697" data-name="Rectángulo 4697" width="19.96" height="161.07" transform="translate(330.68 221.33)" fill="#ebebeb"/>
        <path id="Trazado_7081" data-name="Trazado 7081" d="M340.66,254l29.16,25V382.4H340.66Z" fill="#fafafa"/>
        <rect id="Rectángulo_4698" data-name="Rectángulo 4698" width="15.14" height="103.4" transform="translate(369.82 279)" fill="#ebebeb"/>
        <path id="Trazado_7082" data-name="Trazado 7082" d="M384.96,279H369.82l-29.16-25h15.13Z" fill="#ebebeb"/>
        <path id="Trazado_7083" data-name="Trazado 7083" d="M439.9,382.4a14.68,14.68,0,0,1,8.71-10.93,18.39,18.39,0,0,0-2.56,10.93Z" fill="#ebebeb"/>
        <path id="Trazado_7084" data-name="Trazado 7084" d="M186.3,382.4a14.68,14.68,0,0,0-8.71-10.93,18.39,18.39,0,0,1,2.56,10.93Z" fill="#ebebeb"/>
        <path id="Trazado_7085" data-name="Trazado 7085" d="M58.87,382.4s-.49-12.8-5.84-16.52c2.19,5.23,1.72,16.52,1.72,16.52Z" fill="#ebebeb"/>
        <path id="Trazado_7086" data-name="Trazado 7086" d="M56.86,382.4s.5-7.35,5.85-9.48c-2.2,3-1.72,9.48-1.72,9.48Z" fill="#ebebeb"/>
        <path id="Trazado_7087" data-name="Trazado 7087" d="M190.88,382.4s-.54-12.12-10.24-16.52c4.34,6.22,4.09,16.52,4.09,16.52Z" fill="#ebebeb"/>
        <path id="Trazado_7088" data-name="Trazado 7088" d="M93.68,300.81l7.06,49.8.7,4.98h4.53l-.71-4.98-7.06-49.8Z" fill="#e0e0e0"/>
        <path id="Trazado_7089" data-name="Trazado 7089" d="M287.67,300.81l7.06,49.8.7,4.98h4.53l-.71-4.98-7.06-49.8Z" fill="#e0e0e0"/>
        <path id="Trazado_7090" data-name="Trazado 7090" d="M122.67,350.61l.71,4.98,3.81,26.85h4.53l-3.81-26.85-.7-4.98Z" fill="#e6e6e6"/>
        <path id="Trazado_7091" data-name="Trazado 7091" d="M316.67,350.61l.71,4.98,3.8,26.85h4.52l-3.8-26.85-.7-4.98Z" fill="#e6e6e6"/>
        <path id="Trazado_7092" data-name="Trazado 7092" d="M293.81,350.61l-.71,4.98-3.81,26.85h-4.53l3.81-26.85.7-4.98Z" fill="#e6e6e6"/>
        <path id="Trazado_7093" data-name="Trazado 7093" d="M99.81,350.61l-.71,4.98-3.8,26.85H90.78l3.8-26.85.71-4.98Z" fill="#e6e6e6"/>
        <path id="Trazado_7094" data-name="Trazado 7094" d="M87.17,307.74H294.5l-3.85-13.87H83.32Z" fill="#f5f5f5"/>
        <path id="Trazado_7095" data-name="Trazado 7095" d="M91.9,307.74H299.24l-3.85-13.87H88.05Z" fill="#e6e6e6"/>
        <path id="Trazado_7096" data-name="Trazado 7096" d="M90.06,325.03H297.39l-3.85-13.86H86.2Z" fill="#f5f5f5"/>
        <path id="Trazado_7097" data-name="Trazado 7097" d="M94.79,325.03H302.12l-3.85-13.86H90.94Z" fill="#e6e6e6"/>
        <path id="Trazado_7098" data-name="Trazado 7098" d="M92.94,342.35H300.28l-3.85-13.86H89.09Z" fill="#f5f5f5"/>
        <path id="Trazado_7099" data-name="Trazado 7099" d="M97.68,342.35H305.01l-3.85-13.86H93.83Z" fill="#e6e6e6"/>
        <rect id="Rectángulo_4699" data-name="Rectángulo 4699" width="206.42" height="4.98" transform="translate(117.46 350.61)" fill="#e6e6e6"/>
        <rect id="Rectángulo_4700" data-name="Rectángulo 4700" width="28.37" height="4.98" transform="translate(89.09 350.61)" fill="#f5f5f5"/>
        <path id="Trazado_7100" data-name="Trazado 7100" d="M73.5,147.47c-3.87-8.36-.79-14.31,8.67-14.31,5.93,0,13.28,2.34,20.45,6.15.81-2.17,3.09-3.47,6.75-3.47,6.46,0,15.35,4,22.33,9.71a12.8,12.8,0,0,1,7.27-2.17c6.18-.26,13.66,2.06,20.16,5.82a4,4,0,0,1,2.86-1.08c3.56-.15,8.38,2.19,10.77,5.21.15.19.28.37.41.56H68.7C65.4,150.92,69.05,147.62,73.5,147.47Z" fill="#f5f5f5"/>
        <path id="Trazado_7101" data-name="Trazado 7101" d="M347.91,164.71a6.85,6.85,0,0,1,.79,0c-.24-2.73,1.17-4.48,4.2-4.48a16.46,16.46,0,0,1,7.59,2.45c-.78-5.3,1.73-8.75,7.39-8.75,4.57,0,10.36,2.24,16.08,5.9.5-2.08,2.18-3.33,5-3.33,5,0,12,3.86,17.7,9.3h0a8,8,0,0,1,5.48-2.08c4.73-.25,10.61,2,15.82,5.58a2.55,2.55,0,0,1,2.15-1c2.59-.13,6.15,1.86,8.23,4.52H343.75C341.52,168.7,343.29,165.17,347.91,164.71Z" fill="#f5f5f5"/>
        <path id="Trazado_7102" data-name="Trazado 7102" d="M188.78,104.23a6.676,6.676,0,0,1,.78,0c-.24-2.74,1.18-4.48,4.2-4.48a16.46,16.46,0,0,1,7.6,2.45c-.78-5.31,1.72-8.76,7.38-8.76,4.58,0,10.36,2.25,16.08,5.91.5-2.08,2.18-3.33,5-3.33,5,0,12,3.85,17.7,9.3h0a8.09,8.09,0,0,1,5.48-2.09c4.73-.24,10.61,2,15.82,5.58a2.56,2.56,0,0,1,2.15-1c2.59-.14,6.16,1.85,8.23,4.52H184.61C182.39,108.22,184.16,104.69,188.78,104.23Z" fill="#f5f5f5"/>
        <path id="Trazado_7103" data-name="Trazado 7103" d="M424.77,365.1,407,347.33H393.16l15.36,15.36H404.3V382.4h16.25V365.1Z" fill="#ebebeb"/>
        <path id="Trazado_7104" data-name="Trazado 7104" d="M410.93,365.1l-17.77-17.77L375.39,365.1h6.63v17.3H404.3V365.1Z" fill="#fafafa"/>
      </g>
      <g id="freepik--Shadow--inject-31">
        <ellipse id="Elipse_303" data-name="Elipse 303" cx="193.89" cy="11.32" rx="193.89" ry="11.32" transform="translate(56.11 404.92)" fill="#f5f5f5"/>
      </g>
      <g id="freepik--Houses--inject-31">
        <path id="Trazado_7105" data-name="Trazado 7105" d="M401.16,107.72,374.51,81.07H353.75l23.04,23.04h-6.34v29.55h24.37V107.72Z" fill="#2d1674"/>
        <path id="Trazado_7106" data-name="Trazado 7106" d="M401.16,107.72,374.51,81.07H353.75l23.04,23.04h-6.34v29.55h24.37V107.72Z" fill="#fff" opacity="0.4"/>
        <path id="Trazado_7107" data-name="Trazado 7107" d="M380.4,107.72,353.75,81.07,327.1,107.72h9.95v25.94h33.4V107.72Z" fill="#2d1674"/>
        <path id="Trazado_7108" data-name="Trazado 7108" d="M380.4,107.72,353.75,81.07,327.1,107.72h9.95v25.94h33.4V107.72Z" fill="#fff" opacity="0.7"/>
        <path id="Trazado_7109" data-name="Trazado 7109" d="M418.32,214.1l-26.65-26.66H370.91l23.04,23.04h-6.34v29.55h24.37V214.1Z" fill="#d0dc64"/>
        <path id="Trazado_7110" data-name="Trazado 7110" d="M418.32,214.1l-26.65-26.66H370.91l23.04,23.04h-6.34v29.55h24.37V214.1Z" fill="#fff" opacity="0.4"/>
        <path id="Trazado_7111" data-name="Trazado 7111" d="M397.56,214.1l-26.65-26.66L344.26,214.1h9.94v25.93h33.41V214.1Z" fill="#2d1674"/>
        <path id="Trazado_7112" data-name="Trazado 7112" d="M397.56,214.1l-26.65-26.66L344.26,214.1h9.94v25.93h33.41V214.1Z" fill="#e3eaa2" opacity="0.7"/>
        <path id="Trazado_7113" data-name="Trazado 7113" d="M298.38,241.81l-26.66-26.65H250.97l23.04,23.03h-6.34v29.56h24.37V241.81Z" fill="#e3eaa2"/>
        <path id="Trazado_7114" data-name="Trazado 7114" d="M277.62,241.81l-26.65-26.65-26.65,26.65h9.94v25.93h33.41V241.81Z" fill="#2d1674"/>
        <path id="Trazado_7115" data-name="Trazado 7115" d="M277.62,241.81l-26.65-26.65-26.65,26.65h9.94v25.93h33.41V241.81Z" fill="#acab94" opacity="0.7"/>
        <path id="Trazado_7116" data-name="Trazado 7116" d="M296.79,152.26H282.45l-2.05-2.04-16.65-31Z" fill="#2f54c6"/>
        <rect id="Rectángulo_4701" data-name="Rectángulo 4701" width="30.21" height="36.64" transform="translate(312.61 182.37) rotate(180)" fill="#2d1674"/>
        <rect id="Rectángulo_4702" data-name="Rectángulo 4702" width="30.21" height="36.64" transform="translate(312.61 182.37) rotate(180)" opacity="0.3"/>
        <path id="Trazado_7117" data-name="Trazado 7117" d="M294.74,150.22h25.74l-33.05-33.05H261.7Z" fill="#2d1674"/>
        <path id="Trazado_7118" data-name="Trazado 7118" d="M294.74,150.22h25.74l-33.05-33.05H261.7Z" opacity="0.3"/>
        <path id="Trazado_7119" data-name="Trazado 7119" d="M282.4,140.95v41.42H240.99V140.95l20.71-20.11.21.21,1.84,1.78Z" fill="#2d1674"/>
        <path id="Trazado_7120" data-name="Trazado 7120" d="M263.75,119.22v14.34l-18.71,18.7h-4.05V141.98l20.92-20.93Z" opacity="0.3"/>
        <path id="Trazado_7121" data-name="Trazado 7121" d="M294.74,150.22H280.4l-18.7-18.71V117.17Z" fill="#2d1674"/>
        <path id="Trazado_7122" data-name="Trazado 7122" d="M228.65,150.22h14.34l18.71-18.71V117.17Z" fill="#2d1674"/>
      </g>
      <g id="freepik--Character--inject-31">
        <path id="Trazado_7123" data-name="Trazado 7123" d="M224,192.38c-8.53,6.92-17.33,13.43-26.18,19.83S180,224.83,171,231s-18.15,12.11-27.34,18c-4.57,3-9.21,5.84-13.82,8.76a25.59,25.59,0,0,1-7.44,3.52,22.061,22.061,0,0,1-4.4.72,18.411,18.411,0,0,1-5-.27,10,10,0,0,1-7.8-11.82,2.372,2.372,0,0,1,.11-.5,18,18,0,0,1,2-4.6,21.52,21.52,0,0,1,2.59-3.57,25.63,25.63,0,0,1,6.43-5.14c4.65-2.86,9.26-5.77,13.93-8.57,9.31-5.69,18.71-11.22,28.16-16.68s19-10.75,28.63-15.91,19.34-10.19,29.3-14.83A7.31,7.31,0,0,1,224,192.38Z" fill="#2d1674"/>
        <path id="Trazado_7124" data-name="Trazado 7124" d="M224,192.38c-8.53,6.92-17.33,13.43-26.18,19.83S180,224.83,171,231s-18.15,12.11-27.34,18c-4.57,3-9.21,5.84-13.82,8.76a25.59,25.59,0,0,1-7.44,3.52,22.061,22.061,0,0,1-4.4.72,18.411,18.411,0,0,1-5-.27,10,10,0,0,1-7.8-11.82,2.372,2.372,0,0,1,.11-.5,18,18,0,0,1,2-4.6,21.52,21.52,0,0,1,2.59-3.57,25.63,25.63,0,0,1,6.43-5.14c4.65-2.86,9.26-5.77,13.93-8.57,9.31-5.69,18.71-11.22,28.16-16.68s19-10.75,28.63-15.91,19.34-10.19,29.3-14.83A7.31,7.31,0,0,1,224,192.38Z" fill="#2d1674"/>
        <path id="Trazado_7125" data-name="Trazado 7125" d="M224,192.38c-8.53,6.92-17.33,13.43-26.18,19.83S180,224.83,171,231s-18.15,12.11-27.34,18c-4.57,3-9.21,5.84-13.82,8.76a25.59,25.59,0,0,1-7.44,3.52,22.061,22.061,0,0,1-4.4.72,18.411,18.411,0,0,1-5-.27,10,10,0,0,1-7.8-11.82,2.372,2.372,0,0,1,.11-.5,18,18,0,0,1,2-4.6,21.52,21.52,0,0,1,2.59-3.57,25.63,25.63,0,0,1,6.43-5.14c4.65-2.86,9.26-5.77,13.93-8.57,9.31-5.69,18.71-11.22,28.16-16.68s19-10.75,28.63-15.91,19.34-10.19,29.3-14.83A7.31,7.31,0,0,1,224,192.38Z" fill="#fff" opacity="0.5"/>
        <path id="Trazado_7126" data-name="Trazado 7126" d="M187.1,407.63l8.16-1.89-3.82-19.03-8.16,1.89Z" fill="#ebb376"/>
        <path id="Trazado_7127" data-name="Trazado 7127" d="M132.08,180.23c-1.13,4-2.22,8.21-3.26,12.33s-2,8.3-2.8,12.46c-.44,2.07-.82,4.19-1.15,6.14a56.28,56.28,0,0,0-.64,6.05,59.5,59.5,0,0,0,0,6.12c0,1,.13,2,.23,3.06s.28,2.07.42,2.94l-4,1.51a26.329,26.329,0,0,1-1.35-3.32,33.219,33.219,0,0,1-1-3.33,45.369,45.369,0,0,1-1.12-6.84,53.847,53.847,0,0,1-.1-7c.16-2.36.44-4.53.75-6.73.63-4.39,1.44-8.74,2.4-13s2-8.55,3.35-12.86Z" fill="#ebb376"/>
        <path id="Trazado_7128" data-name="Trazado 7128" d="M120.31,181.61l8.41,6.7,5.05,4s.53-1.41,1.17-3.43c1.22-3.9,2.81-10.08,1.71-12.92-1.73-4.5-5-8.56-9.14-7.66C124,169.09,120.31,181.61,120.31,181.61Z" fill="#263238"/>
        <path id="Trazado_7129" data-name="Trazado 7129" d="M131.93,407.69h8.37l-.65-19.4h-8.38Z" fill="#ebb376"/>
        <path id="Trazado_7130" data-name="Trazado 7130" d="M191.44,386.72l2.05,10.19-8.24,1.5-1.98-9.8Z" fill="#da9d62"/>
        <path id="Trazado_7131" data-name="Trazado 7131" d="M131.27,388.29h8.38l.33,10H131.6Z" fill="#da9d62"/>
        <path id="Trazado_7132" data-name="Trazado 7132" d="M158.57,219.12s-4.86,57.49-9.9,89.89c-4.07,26.17-7.29,87.35-7.29,87.35H130s-5.44-59.08-3.37-85c5.23-65.49-4-77.09,6.95-92.27Z" fill="#2d1674"/>
        <path id="Trazado_7133" data-name="Trazado 7133" d="M158.57,219.12s-4.86,57.49-9.9,89.89c-4.07,26.17-7.29,87.35-7.29,87.35H130s-5.44-59.08-3.37-85c5.23-65.49-4-77.09,6.95-92.27Z" opacity="0.6"/>
        <path id="Trazado_7134" data-name="Trazado 7134" d="M121.43,230.19l-4.94,3.36.7,2.87s10.29-5.34,7.54-7.48Z" fill="#ebb376"/>
        <path id="Trazado_7135" data-name="Trazado 7135" d="M143.83,408.18a10.183,10.183,0,0,1-2.21-.3.22.22,0,0,1-.15-.16.2.2,0,0,1,.09-.2c.29-.19,2.82-1.83,3.8-1.39a.67.67,0,0,1,.4.56,1.13,1.13,0,0,1-.33,1.05,2.38,2.38,0,0,1-1.6.44Zm-1.65-.59c1.46.3,2.56.24,3-.14a.77.77,0,0,0,.21-.71.3.3,0,0,0-.17-.25c-.53-.23-2,.51-3.04,1.1Z" fill="#2d1674"/>
        <path id="Trazado_7136" data-name="Trazado 7136" d="M141.67,407.88a.16.16,0,0,1-.1,0,.21.21,0,0,1-.1-.17c0-.11,0-2.52.92-3.33a1,1,0,0,1,.84-.26.69.69,0,0,1,.67.55c.19,1-1.34,2.76-2.13,3.21a.18.18,0,0,1-.1,0Zm1.42-3.39a.7.7,0,0,0-.44.17,4.52,4.52,0,0,0-.77,2.64c.79-.64,1.75-2,1.63-2.57,0-.09-.07-.21-.33-.24Z" fill="#2d1674"/>
        <path id="Trazado_7137" data-name="Trazado 7137" d="M196,404.48a.21.21,0,0,1-.16-.33c.27-.32,2.6-3.06,3.79-3.06h.08a.61.61,0,0,1,.51.35,1.08,1.08,0,0,1,0,1c-.52,1.1-2.87,1.72-4.23,2Zm3.62-3c-.65,0-2.09,1.36-3.08,2.47,1.83-.43,3.07-1,3.36-1.65a.67.67,0,0,0,0-.67.25.25,0,0,0-.2-.15Z" fill="#2d1674"/>
        <path id="Trazado_7138" data-name="Trazado 7138" d="M196,404.48h0a.17.17,0,0,1-.14-.13c0-.09-.72-2.25-.08-3.46a1.44,1.44,0,0,1,.88-.74c.53-.16.79,0,.9.23.51.82-.62,3.24-1.37,4a.21.21,0,0,1-.19.1Zm1-4a.739.739,0,0,0-.23,0,1.05,1.05,0,0,0-.65.54,4.61,4.61,0,0,0,0,2.8c.71-1,1.4-2.79,1.1-3.28a.23.23,0,0,0-.28-.06Z" fill="#2d1674"/>
        <path id="Trazado_7139" data-name="Trazado 7139" d="M142.4,148.07c1,5,3,15-.45,18.35,0,0,1.36,5,10.6,5,10.15,0,4.85-5,4.85-5-5.54-1.32-5.4-5.43-4.43-9.3Z" fill="#ebb376"/>
        <path id="Trazado_7140" data-name="Trazado 7140" d="M162.58,137.41a.39.39,0,0,1-.23-.07.4.4,0,0,1-.09-.56,4,4,0,0,1,3.19-1.7.4.4,0,0,1,0,.79,3.15,3.15,0,0,0-2.52,1.38A.39.39,0,0,1,162.58,137.41Z" fill="#263238"/>
        <path id="Trazado_7141" data-name="Trazado 7141" d="M164.8,142.18a17.91,17.91,0,0,0,2.24,4.41,2.93,2.93,0,0,1-2.43.35Z" fill="#de5753"/>
        <path id="Trazado_7142" data-name="Trazado 7142" d="M164.24,141c0,.68.31,1.24.75,1.25s.82-.51.85-1.19-.31-1.23-.75-1.25S164.27,140.33,164.24,141Z" fill="#263238"/>
        <path id="Trazado_7143" data-name="Trazado 7143" d="M164.89,139.84l1.64-.4S165.65,140.67,164.89,139.84Z" fill="#263238"/>
        <path id="Trazado_7144" data-name="Trazado 7144" d="M141,406.72h-9.41a.65.65,0,0,0-.67.57l-1.07,7.44a1.33,1.33,0,0,0,1.34,1.49c3.28-.05,4.86-.25,9-.25,2.55,0,6.26.27,9.78.27s3.7-3.48,2.24-3.79c-6.56-1.42-7.6-3.36-9.81-5.22a2.21,2.21,0,0,0-1.4-.51Z" fill="#263238"/>
        <path id="Trazado_7145" data-name="Trazado 7145" d="M195.1,403.59l-8.69,3.61a.66.66,0,0,0-.4.78l1.86,7.29a1.34,1.34,0,0,0,1.81.86c3-1.31,4.4-2.09,8.22-3.68,2.35-1,7.32-2.75,10.57-4.1s2.08-4.63.61-4.36c-6.6,1.22-9.74.41-12.49-.46a2.18,2.18,0,0,0-1.49.06Z" fill="#263238"/>
        <path id="Trazado_7146" data-name="Trazado 7146" d="M176.18,176.79c1.63,3.84,3.39,7.77,5.17,11.59q1.35,2.88,2.81,5.66c1,1.86,2,3.68,3,5.42.53.86,1.06,1.72,1.61,2.51l.82,1.14a4.5,4.5,0,0,0,.57.66,6.89,6.89,0,0,0,3.89,1.66c3.41.49,7.69-.2,11.52-1.23l1.78,3.85a28.484,28.484,0,0,1-3.14,1.63,28.067,28.067,0,0,1-3.27,1.28,23.46,23.46,0,0,1-7.3,1.25,14.83,14.83,0,0,1-4.1-.54,12.47,12.47,0,0,1-4.11-2,12.71,12.71,0,0,1-1.75-1.61c-.45-.51-.78-.94-1.18-1.42-.75-.94-1.42-1.89-2.09-2.84a103.6,103.6,0,0,1-6.72-11.7c-2-4-3.8-8-5.46-12.14Z" fill="#ebb376"/>
        <path id="Trazado_7147" data-name="Trazado 7147" d="M204.71,208.52l9.14-1.44-2.43-5.18s-7.08,1.23-8.44,4.43Z" fill="#ebb376"/>
        <path id="Trazado_7148" data-name="Trazado 7148" d="M213.84,203.04l-1-2.21-1.42,1.07,2.42,5.18Z" fill="#ebb376"/>
        <path id="Trazado_7149" data-name="Trazado 7149" d="M141.64,137.79c.18,8.31.08,11.83,4.1,16.25,6,6.65,16.22,4.61,18.52-3.59,2.07-7.38,1.42-19.73-6.56-23.35a11.34,11.34,0,0,0-16.06,10.69Z" fill="#ebb376"/>
        <path id="Trazado_7150" data-name="Trazado 7150" d="M134.94,122.78c8.54-6.19,18.08-2.68,23.3,1.6,5.46,4.48,4.59,13.09,1.25,16.65a4.4,4.4,0,0,1,.56,3.61h0a10.85,10.85,0,0,1-8,12.2l-.47.12c-10.67,2.54-23-4.68-24.86-15.48C125.59,134.89,127.39,128.24,134.94,122.78Z" fill="#263238"/>
        <path id="Trazado_7151" data-name="Trazado 7151" d="M157.58,141.64a6.86,6.86,0,0,0,1.9,4.17c1.48,1.53,3,.65,3.27-1.16.23-1.63-.26-4.39-2.06-5.26S157.45,139.79,157.58,141.64Z" fill="#ebb376"/>
        <path id="Trazado_7152" data-name="Trazado 7152" d="M147,246c-.95,17.18,3.19,30.15,5.08,37.74,1.34-11.22,2.57-22.93,3.6-33.26C152.15,238.78,147.69,233.07,147,246Z" opacity="0.3"/>
        <path id="Trazado_7153" data-name="Trazado 7153" d="M142.95,396.58H128.4l-.77-5.1,15.4-.52Z" fill="#2d1674"/>
        <path id="Trazado_7154" data-name="Trazado 7154" d="M128.72,188.31l5.05,4s.53-1.41,1.17-3.43l-3-14.85Z" opacity="0.3"/>
        <path id="Trazado_7155" data-name="Trazado 7155" d="M139.7,124.17c2.61-2.89,11.48-7.3,19.09-3.84a12.4,12.4,0,0,1,7.26,11.32l-6.86,4.6Z" fill="#263238"/>
        <path id="Trazado_7156" data-name="Trazado 7156" d="M132.7,131.76c3.77-3.09,8-14.29,0-10.39S122.27,140.31,132.7,131.76Z" fill="#2d1674"/>
        <path id="Trazado_7157" data-name="Trazado 7157" d="M133.55,124.58c1.63-4.76-9.12-14.23-16.37-5.23S128.86,138.28,133.55,124.58Z" fill="#263238"/>
        <path id="Trazado_7158" data-name="Trazado 7158" d="M150.37,131.22c-6.25-2.66-9.36-12.74,1.37-12.45S162.16,136.25,150.37,131.22Z" fill="#2d1674"/>
        <path id="Trazado_7159" data-name="Trazado 7159" d="M148.35,126c-3.79-4.73.4-16.89,11.27-13S157.05,136.81,148.35,126Z" fill="#263238"/>
        <path id="Trazado_7160" data-name="Trazado 7160" d="M167.56,219.12S177,283.62,180.32,309c3.45,26.35,13.53,85.43,13.53,85.43l-11.2,1.71s-17.7-56.35-22.63-82c-5.38-27.95-16-95-16-95Z" fill="#2d1674"/>
        <path id="Trazado_7161" data-name="Trazado 7161" d="M167.56,219.12S177,283.62,180.32,309c3.45,26.35,13.53,85.43,13.53,85.43l-11.2,1.71s-17.7-56.35-22.63-82c-5.38-27.95-16-95-16-95Z" opacity="0.6"/>
        <path id="Trazado_7162" data-name="Trazado 7162" d="M171.56,168.57c4.16,1,9.29,12.44,9.29,12.44l-9.91,12.7s-10.24-14.49-8.87-18.91C163.49,170.19,166.51,167.34,171.56,168.57Z" fill="#263238"/>
        <path id="Trazado_7163" data-name="Trazado 7163" d="M158,168.05c1.37.2.1-2.93-.47-3.26-1.31-.78-18-2.35-17.81-.59A4.71,4.71,0,0,0,141,167C141.75,167.5,146,166.12,158,168.05Z" fill="#2d1674"/>
        <path id="Trazado_7164" data-name="Trazado 7164" d="M158,168.05c1.37.2.1-2.93-.47-3.26-1.31-.78-18-2.35-17.81-.59A4.71,4.71,0,0,0,141,167C141.75,167.5,146,166.12,158,168.05Z" fill="#fff" opacity="0.6"/>
        <path id="Trazado_7165" data-name="Trazado 7165" d="M171.56,168.57s4,1.4-4,50.55h-34c.57-13.84.59-22.38-6-50.8a100.27,100.27,0,0,1,14.44-1.9,107.542,107.542,0,0,1,15.45,0C164,167,171.56,168.57,171.56,168.57Z" fill="#263238"/>
        <path id="Trazado_7166" data-name="Trazado 7166" d="M133,217.13l-1.53,3c-.12.24.16.48.55.48H167.7c.3,0,.56-.15.58-.35l.3-3c0-.21-.24-.39-.58-.39H133.58a.6.6,0,0,0-.58.26Z" fill="#2d1674"/>
        <path id="Trazado_7167" data-name="Trazado 7167" d="M133,217.13l-1.53,3c-.12.24.16.48.55.48H167.7c.3,0,.56-.15.58-.35l.3-3c0-.21-.24-.39-.58-.39H133.58a.6.6,0,0,0-.58.26Z" fill="#fff" opacity="0.6"/>
        <path id="Trazado_7168" data-name="Trazado 7168" d="M137.66,221h-.93c-.18,0-.32-.1-.31-.21l.44-4c0-.12.17-.21.35-.21h.93c.18,0,.32.09.31.21l-.44,4C138,220.88,137.84,221,137.66,221Z" fill="#2d1674"/>
        <path id="Trazado_7169" data-name="Trazado 7169" d="M160,221h-.92c-.19,0-.33-.1-.31-.21l.43-4c0-.12.17-.21.36-.21h.92c.18,0,.32.09.31.21l-.43,4C160.36,220.88,160.2,221,160,221Z" fill="#2d1674"/>
        <path id="Trazado_7170" data-name="Trazado 7170" d="M137.66,221h-.93c-.18,0-.32-.1-.31-.21l.44-4c0-.12.17-.21.35-.21h.93c.18,0,.32.09.31.21l-.44,4C138,220.88,137.84,221,137.66,221Z" opacity="0.6"/>
        <path id="Trazado_7171" data-name="Trazado 7171" d="M160,221h-.92c-.19,0-.33-.1-.31-.21l.43-4c0-.12.17-.21.36-.21h.92c.18,0,.32.09.31.21l-.43,4C160.36,220.88,160.2,221,160,221Z" opacity="0.6"/>
        <path id="Trazado_7172" data-name="Trazado 7172" d="M195.5,394.43l-14.34,2.44-1.63-5.41,15.35-2.63Z" fill="#2d1674"/>
        <path id="Trazado_7173" data-name="Trazado 7173" d="M338.41,115.26a72.81,72.81,0,1,0-23.2,100.33,72.81,72.81,0,0,0,23.2-100.33Zm-110.49,69a41.713,41.713,0,1,0,0-.01Z" fill="#2d1674"/>
        <path id="Trazado_7174" data-name="Trazado 7174" d="M338.41,115.26a72.81,72.81,0,1,0-23.2,100.33,72.81,72.81,0,0,0,23.2-100.33Zm-110.49,69a41.713,41.713,0,1,0,0-.01Z" fill="#2d1674"/>
        <path id="Trazado_7175" data-name="Trazado 7175" d="M338.41,115.26a72.81,72.81,0,1,0-23.2,100.33,72.81,72.81,0,0,0,23.2-100.33Zm-110.49,69a41.713,41.713,0,1,0,0-.01Z" fill="#fff" opacity="0.5"/>
        <path id="Trazado_7176" data-name="Trazado 7176" d="M330.2,120.39a63.13,63.13,0,1,1-87-20.12A63.13,63.13,0,0,1,330.2,120.39Z" fill="#fafafa" opacity="0.2"/>
        <path id="Trazado_7177" data-name="Trazado 7177" d="M339.17,144.89l-98,61.18a63.11,63.11,0,0,1-19.41-21l107-66.81a63.16,63.16,0,0,1,10.41,26.63Z" fill="#e6e6e6" opacity="0.1"/>
      </g>
    </g>
  </g>
</svg>
