<svg xmlns="http://www.w3.org/2000/svg" width="533" height="420" viewBox="0 0 533 420">
  <g id="Grupo_2801" data-name="Grupo 2801" transform="translate(6687 -3184)">
    <rect id="Rectángulo_4703" data-name="Rectángulo 4703" width="533" height="420" transform="translate(-6687 3184)" fill="none"/>
    <g id="Houses-amico" transform="translate(-6651.995 3150.902)">
      <g id="freepik--house-4--inject-43" transform="translate(250.019 256.521)">
        <g id="freepik--Yard--inject-43" transform="translate(0.929 56.086)">
          <path id="Trazado_7178" data-name="Trazado 7178" d="M270.56,404.537v-4.314l112.079-64.7,70.985,40.974v4.314l-112.079,64.7Z" transform="translate(-270.56 -335.52)" fill="#2d1674"/>
          <path id="Trazado_7179" data-name="Trazado 7179" d="M270.56,400.224,341.545,441.2l112.079-64.7L382.639,335.52Z" transform="translate(-270.56 -335.52)" fill="#2d1674"/>
          <path id="Trazado_7180" data-name="Trazado 7180" d="M270.56,405.87l70.985,40.974v4.314L270.56,410.184Z" transform="translate(-270.56 -341.166)" opacity="0.15"/>
          <path id="Trazado_7181" data-name="Trazado 7181" d="M347.74,444.774l112.079-64.7v4.314l-112.079,64.7Z" transform="translate(-276.755 -339.096)" opacity="0.1"/>
        </g>
        <g id="freepik--House--inject-43" transform="translate(18.947 0)">
          <path id="Trazado_7182" data-name="Trazado 7182" d="M367.3,382.218l13.079,7.551V338.631L335.54,312.75l.009,51.137Z" transform="translate(-293.793 -277.607)" fill="#ebebeb"/>
          <path id="Trazado_7183" data-name="Trazado 7183" d="M380.23,340.172,428.8,351.945v-2.161L380.23,338.02Z" transform="translate(-297.38 -279.635)" fill="#37474f"/>
          <path id="Trazado_7184" data-name="Trazado 7184" d="M331.49,309.86l44.828,25.9,48.571,11.763-44.828-25.891Z" transform="translate(-293.468 -277.375)" fill="#455a64"/>
          <path id="Trazado_7185" data-name="Trazado 7185" d="M331.49,309.86l44.828,25.9,48.571,11.763-44.828-25.891Z" transform="translate(-293.468 -277.375)" fill="#37474f" opacity="0.5"/>
          <path id="Trazado_7186" data-name="Trazado 7186" d="M331.49,309.86l44.828,25.9v2.152L331.49,312.021Z" transform="translate(-293.468 -277.375)" fill="#263238"/>
          <path id="Trazado_7187" data-name="Trazado 7187" d="M384.29,392.064l41.1-23.729V351.3l-41.1-9.952Z" transform="translate(-297.706 -279.902)" fill="#ebebeb"/>
          <path id="Trazado_7188" data-name="Trazado 7188" d="M384.29,343.87l41.1,9.961V351.3l-41.1-9.952Z" transform="translate(-297.706 -279.902)" fill="#e0e0e0"/>
          <path id="Trazado_7189" data-name="Trazado 7189" d="M392.41,388.789V369.373l26.167-15.093v19.406Z" transform="translate(-298.358 -280.94)" fill="#455a64"/>
          <path id="Trazado_7190" data-name="Trazado 7190" d="M392.41,388.789V369.373l26.167-15.093v19.406Z" transform="translate(-298.358 -280.94)" fill="#37474f" opacity="0.5"/>
          <path id="Trazado_7191" data-name="Trazado 7191" d="M420.829,354.28l-.359.2v19l.359.193Z" transform="translate(-300.61 -280.94)" fill="#263238"/>
          <path id="Trazado_7192" data-name="Trazado 7192" d="M418.209,375.17l-25.8,14.891v.4l26.167-15.1Z" transform="translate(-298.358 -282.617)" fill="#37474f"/>
          <path id="Trazado_7193" data-name="Trazado 7193" d="M343.5,427.136V349.483L294.93,321.44v77.653Z" transform="translate(-290.534 -278.304)" fill="#ebebeb"/>
          <path id="Trazado_7194" data-name="Trazado 7194" d="M294.93,321.44v10.789L343.5,360.271V349.483Z" transform="translate(-290.534 -278.304)" fill="#e0e0e0"/>
          <path id="Trazado_7195" data-name="Trazado 7195" d="M306.467,344.434l-7.477-4.3v56.076l7.477,4.314Z" transform="translate(-290.86 -279.804)" fill="#455a64"/>
          <path id="Trazado_7196" data-name="Trazado 7196" d="M299.64,395.9V340.5l6.88,3.964v55.4Z" transform="translate(-290.912 -279.834)" fill="#fafafa"/>
          <path id="Trazado_7197" data-name="Trazado 7197" d="M299.64,340.5l6.88,3.964v2.051l-6.88-3.946Z" transform="translate(-290.912 -279.834)" fill="#e0e0e0"/>
          <path id="Trazado_7198" data-name="Trazado 7198" d="M298.99,401.07l.6-.34,6.88,3.964v.69Z" transform="translate(-290.86 -284.668)" fill="#37474f"/>
          <path id="Trazado_7199" data-name="Trazado 7199" d="M334.246,362.906,319.3,354.27v17.263l14.946,8.627Z" transform="translate(-292.49 -280.939)" fill="#455a64"/>
          <path id="Trazado_7200" data-name="Trazado 7200" d="M319.95,371.224V354.65l14.348,8.287V379.5Z" transform="translate(-292.542 -280.97)" fill="#fafafa"/>
          <path id="Trazado_7201" data-name="Trazado 7201" d="M319.95,354.65v2.64l14.348,8.287v-2.64Z" transform="translate(-292.542 -280.97)" fill="#e0e0e0"/>
          <path id="Trazado_7202" data-name="Trazado 7202" d="M319.3,373.01l.6-.34,14.348,8.278v.69Z" transform="translate(-292.49 -282.416)" fill="#37474f"/>
          <path id="Trazado_7203" data-name="Trazado 7203" d="M326.77,358.59l.6.34v17.263l-.6-.34Z" transform="translate(-293.089 -281.286)" fill="#455a64"/>
          <path id="Trazado_7204" data-name="Trazado 7204" d="M327.42,358.96v17.263l.607-.35V359.31Z" transform="translate(-293.141 -281.316)" fill="#37474f"/>
          <path id="Trazado_7205" data-name="Trazado 7205" d="M334.246,395.737,319.3,387.11v17.254l14.946,8.627Z" transform="translate(-292.49 -283.575)" fill="#455a64"/>
          <path id="Trazado_7206" data-name="Trazado 7206" d="M319.95,404.054V387.48l14.348,8.287v16.564Z" transform="translate(-292.542 -283.605)" fill="#fafafa"/>
          <path id="Trazado_7207" data-name="Trazado 7207" d="M319.95,387.48v2.64l14.348,8.287v-2.64Z" transform="translate(-292.542 -283.605)" fill="#e0e0e0"/>
          <path id="Trazado_7208" data-name="Trazado 7208" d="M319.3,405.84l.6-.34,14.348,8.278v.69Z" transform="translate(-292.49 -285.051)" fill="#37474f"/>
          <path id="Trazado_7209" data-name="Trazado 7209" d="M326.77,391.42l.6.349v17.254l-.6-.34Z" transform="translate(-293.089 -283.921)" fill="#455a64"/>
          <path id="Trazado_7210" data-name="Trazado 7210" d="M327.42,391.8v17.254l.607-.34V392.14Z" transform="translate(-293.141 -283.952)" fill="#37474f"/>
          <path id="Trazado_7211" data-name="Trazado 7211" d="M347.74,348.542,385.1,309.72v94.908L347.74,426.2Z" transform="translate(-294.772 -277.364)" fill="#fafafa"/>
          <path id="Trazado_7212" data-name="Trazado 7212" d="M385.1,379.114l-37.36,21.568V389.9L385.1,368.16Z" transform="translate(-294.772 -282.054)" fill="#e0e0e0"/>
          <path id="Trazado_7213" data-name="Trazado 7213" d="M347.74,354.1l37.36-38.684V309.72l-37.36,38.822Z" transform="translate(-294.772 -277.364)" fill="#f0f0f0"/>
          <path id="Trazado_7214" data-name="Trazado 7214" d="M359.92,355.757l14.946-8.627v23.83l-14.946,8.627Z" transform="translate(-295.75 -280.366)" fill="#455a64"/>
          <path id="Trazado_7215" data-name="Trazado 7215" d="M374.268,370.651V347.51l-14.348,8.278v23.141Z" transform="translate(-295.75 -280.397)" fill="#e6e6e6"/>
          <path id="Trazado_7216" data-name="Trazado 7216" d="M374.268,347.51v2.64l-14.348,8.278v-2.64Z" transform="translate(-295.75 -280.397)" fill="#e0e0e0"/>
          <path id="Trazado_7217" data-name="Trazado 7217" d="M374.866,373.01l-.6-.34-14.348,8.278v.69Z" transform="translate(-295.75 -282.416)" fill="#37474f"/>
          <path id="Trazado_7218" data-name="Trazado 7218" d="M368.648,351.45l-.6.34v23.83l.6-.34Z" transform="translate(-296.402 -280.713)" fill="#455a64"/>
          <path id="Trazado_7219" data-name="Trazado 7219" d="M368,351.82v23.83l-.607-.35V352.17Z" transform="translate(-296.349 -280.743)" fill="#37474f"/>
          <path id="Trazado_7220" data-name="Trazado 7220" d="M361.95,425.519V401.726l11.212-6.466v23.784Z" transform="translate(-295.913 -284.229)" fill="#37474f"/>
          <path id="Trazado_7221" data-name="Trazado 7221" d="M372.8,418.8V395.48l-10.853,6.263v23.315Z" transform="translate(-295.913 -284.247)" fill="#455a64"/>
          <path id="Trazado_7222" data-name="Trazado 7222" d="M374.109,395.26l-.359.2v23.315l.359.267Z" transform="translate(-296.86 -284.229)" fill="#263238"/>
          <path id="Trazado_7223" data-name="Trazado 7223" d="M347.74,387.568,385.1,366l7.468,4.314-37.36,21.568Z" transform="translate(-294.772 -281.881)" fill="#e0e0e0"/>
          <path id="Trazado_7224" data-name="Trazado 7224" d="M347.74,389.45v2.161l7.468,4.314v-2.161Z" transform="translate(-294.772 -283.763)" fill="#ebebeb"/>
          <path id="Trazado_7225" data-name="Trazado 7225" d="M355.86,392.258l37.36-21.568v2.161l-37.36,21.568Z" transform="translate(-295.424 -282.257)" fill="#f5f5f5"/>
          <path id="Trazado_7226" data-name="Trazado 7226" d="M356.1,378.9v12.821a.12.12,0,0,1-.074.11.414.414,0,0,1-.386,0,.12.12,0,0,1-.074-.11V378.9Z" transform="translate(-295.401 -282.916)" fill="#37474f"/>
          <path id="Trazado_7227" data-name="Trazado 7227" d="M359.613,376.87v12.821a.11.11,0,0,1-.074.11.414.414,0,0,1-.386,0,.11.11,0,0,1-.074-.11V376.87Z" transform="translate(-295.682 -282.753)" fill="#37474f"/>
          <path id="Trazado_7228" data-name="Trazado 7228" d="M363.133,374.85v12.821a.129.129,0,0,1-.083.11.469.469,0,0,1-.386,0,.156.156,0,0,1-.074-.11V374.85Z" transform="translate(-295.964 -282.591)" fill="#37474f"/>
          <path id="Trazado_7229" data-name="Trazado 7229" d="M366.643,372.82v12.821a.138.138,0,0,1-.083.11.414.414,0,0,1-.386,0,.138.138,0,0,1-.074-.11V372.82Z" transform="translate(-296.246 -282.428)" fill="#37474f"/>
          <path id="Trazado_7230" data-name="Trazado 7230" d="M370.153,370.79v12.821a.138.138,0,0,1-.083.11.4.4,0,0,1-.377,0,.138.138,0,0,1-.083-.11V370.79Z" transform="translate(-296.528 -282.265)" fill="#37474f"/>
          <path id="Trazado_7231" data-name="Trazado 7231" d="M373.663,368.76v12.821a.129.129,0,0,1-.083.11.4.4,0,0,1-.377,0,.129.129,0,0,1-.083-.11V368.76Z" transform="translate(-296.809 -282.102)" fill="#37474f"/>
          <path id="Trazado_7232" data-name="Trazado 7232" d="M377.173,366.74v12.821a.129.129,0,0,1-.083.11.45.45,0,0,1-.377,0q-.083-.055-.083-.11V366.74Z" transform="translate(-297.091 -281.94)" fill="#37474f"/>
          <path id="Trazado_7233" data-name="Trazado 7233" d="M380.683,364.71v12.821a.138.138,0,0,1-.074.11.414.414,0,0,1-.386,0,.138.138,0,0,1-.083-.11V364.71Z" transform="translate(-297.373 -281.777)" fill="#37474f"/>
          <path id="Trazado_7234" data-name="Trazado 7234" d="M384.193,362.68V375.5a.129.129,0,0,1-.074.11.414.414,0,0,1-.386,0,.129.129,0,0,1-.083-.11V362.68Z" transform="translate(-297.655 -281.614)" fill="#37474f"/>
          <path id="Trazado_7235" data-name="Trazado 7235" d="M387.7,360.66v12.821a.129.129,0,0,1-.074.11.469.469,0,0,1-.386,0q-.083-.055-.083-.11V360.66Z" transform="translate(-297.936 -281.452)" fill="#37474f"/>
          <path id="Trazado_7236" data-name="Trazado 7236" d="M391.213,358.63v12.821a.12.12,0,0,1-.074.11.414.414,0,0,1-.386,0,.12.12,0,0,1-.074-.11V358.63Z" transform="translate(-298.219 -281.289)" fill="#37474f"/>
          <path id="Trazado_7237" data-name="Trazado 7237" d="M394.733,356.6v12.821a.129.129,0,0,1-.083.11.414.414,0,0,1-.386,0,.129.129,0,0,1-.074-.11V356.6Z" transform="translate(-298.501 -281.126)" fill="#37474f"/>
          <path id="Trazado_7238" data-name="Trazado 7238" d="M355.3,376.98a.414.414,0,0,1-.23-.064l-6.006-3.4a.46.46,0,0,1,.451-.8l5.785,3.274,36.431-21.034-8.508-4.838a.461.461,0,1,1,.46-.8l9.2,5.233a.478.478,0,0,1,.23.4.46.46,0,0,1-.23.4l-37.36,21.568a.414.414,0,0,1-.221.064Z" transform="translate(-294.861 -280.537)" fill="#455a64"/>
          <path id="Trazado_7239" data-name="Trazado 7239" d="M344.41,351.258l41.756-43.237V305.86L344.41,349.1Z" transform="translate(-294.505 -277.054)" fill="#37474f"/>
          <path id="Trazado_7240" data-name="Trazado 7240" d="M340.055,352.517,290.15,323.7V321.54l49.9,28.815Z" transform="translate(-290.15 -278.312)" fill="#263238"/>
          <path id="Trazado_7241" data-name="Trazado 7241" d="M331.906,274.54l49.9,28.806-41.756,43.237-49.9-28.815Z" transform="translate(-290.15 -274.54)" fill="#455a64"/>
          <path id="Trazado_7242" data-name="Trazado 7242" d="M418.577,375.38l26.148,15.1-26.148,15.1-26.167-15.1Z" transform="translate(-298.358 -282.634)" fill="#f0f0f0"/>
          <path id="Trazado_7243" data-name="Trazado 7243" d="M373.162,421.12l-11.212,6.475,11.2,6.466,11.212-6.475Z" transform="translate(-295.913 -286.305)" fill="#f0f0f0"/>
        </g>
        <g id="freepik--Plants--inject-43" transform="translate(0 68.107)">
          <g id="freepik--plants--inject-43-2" data-name="freepik--plants--inject-43" transform="translate(100.711 46.225)">
            <path id="Trazado_7244" data-name="Trazado 7244" d="M386.959,414.007l1.591-.92a27.261,27.261,0,0,0,.184-7.827c-.8-5.086-4.258-6.834-5.518-6.328s-1.554,2.005.717,4.948a16.969,16.969,0,0,1,3.026,10.126Z" transform="translate(-379.306 -398.849)" fill="#2d1674"/>
            <g id="Grupo_2793" data-name="Grupo 2793" transform="translate(2.938)" opacity="0.2">
              <path id="Trazado_7245" data-name="Trazado 7245" d="M386.959,414.007l1.591-.92a27.261,27.261,0,0,0,.184-7.827c-.8-5.086-4.258-6.834-5.518-6.328s-1.554,2.005.717,4.948a16.969,16.969,0,0,1,3.026,10.126Z" transform="translate(-382.245 -398.849)"/>
            </g>
            <path id="Trazado_7246" data-name="Trazado 7246" d="M387.691,412.049h0a.11.11,0,0,1-.1-.129c.662-4.755-1.26-9.97-3.4-12.076a.11.11,0,0,1,0-.156.129.129,0,0,1,.166,0c2.189,2.143,4.139,7.441,3.467,12.279a.1.1,0,0,1-.129.083Z" transform="translate(-379.46 -398.914)" fill="#fff"/>
            <path id="Trazado_7247" data-name="Trazado 7247" d="M382.278,416.933c-.248.147-.763-.175-.966-.3a2.419,2.419,0,0,1-.8-.92,2.18,2.18,0,0,1-.193-1.343,4.9,4.9,0,0,1,.165-.727c.064-.23.138-.46.2-.69a1.351,1.351,0,0,0-.763-1.8,1.766,1.766,0,0,1-.874-1.315,2.134,2.134,0,0,1,.506-1.2c.276-.35.607-.653.855-1.021a1.435,1.435,0,0,0,.285-.92,1.462,1.462,0,0,0-.193-.552,7.79,7.79,0,0,1-.607-1.122,1.1,1.1,0,0,1,.193-1.186,1.315,1.315,0,0,1,.984-.248,2.253,2.253,0,0,1,.92.322c.92.506,1.435,1.591,2.4,1.977a9.832,9.832,0,0,0,1.168.285,1.463,1.463,0,0,1,.966.662c.359.708-.3,1.582-.055,2.336s.865.92,1.232,1.518a1.444,1.444,0,0,1,.166.874,3.983,3.983,0,0,1-.368,1.472,10.445,10.445,0,0,1-.8,1.334Z" transform="translate(-379.05 -399.227)" fill="#2d1674"/>
            <g id="Grupo_2794" data-name="Grupo 2794" transform="translate(0 4.337)" opacity="0.1">
              <path id="Trazado_7248" data-name="Trazado 7248" d="M382.278,416.933c-.248.147-.763-.175-.966-.3a2.419,2.419,0,0,1-.8-.92,2.18,2.18,0,0,1-.193-1.343,4.9,4.9,0,0,1,.165-.727c.064-.23.138-.46.2-.69a1.351,1.351,0,0,0-.763-1.8,1.766,1.766,0,0,1-.874-1.315,2.134,2.134,0,0,1,.506-1.2c.276-.35.607-.653.855-1.021a1.435,1.435,0,0,0,.285-.92,1.462,1.462,0,0,0-.193-.552,7.79,7.79,0,0,1-.607-1.122,1.1,1.1,0,0,1,.193-1.186,1.315,1.315,0,0,1,.984-.248,2.253,2.253,0,0,1,.92.322c.92.506,1.435,1.591,2.4,1.977a9.832,9.832,0,0,0,1.168.285,1.463,1.463,0,0,1,.966.662c.359.708-.3,1.582-.055,2.336s.865.92,1.232,1.518a1.444,1.444,0,0,1,.166.874,3.983,3.983,0,0,1-.368,1.472,10.445,10.445,0,0,1-.8,1.334Z" transform="translate(-379.05 -403.564)"/>
            </g>
            <path id="Trazado_7249" data-name="Trazado 7249" d="M385.054,415.62h0a.11.11,0,0,1-.11-.11c.184-4.507-1.931-9.483-3.477-10.927a.114.114,0,0,1,.156-.166c1.573,1.472,3.734,6.53,3.55,11.1A.12.12,0,0,1,385.054,415.62Z" transform="translate(-379.241 -399.293)" fill="#fff"/>
            <path id="Trazado_7250" data-name="Trazado 7250" d="M384.345,410.754h0a15.472,15.472,0,0,0-3.265-.524.115.115,0,1,1,.009-.23,15.425,15.425,0,0,1,3.329.543.11.11,0,0,1,.074.138.129.129,0,0,1-.147.074Z" transform="translate(-379.204 -399.744)" fill="#fff"/>
          </g>
          <rect id="Rectángulo_4704" data-name="Rectángulo 4704" width="6.263" height="0.515" transform="translate(175.92 21.747) rotate(-63.09)" fill="#455a64"/>
          <rect id="Rectángulo_4705" data-name="Rectángulo 4705" width="0.515" height="5.252" transform="matrix(0.85, -0.526, 0.526, 0.85, 173.072, 15.999)" fill="#455a64"/>
          <path id="Trazado_7251" data-name="Trazado 7251" d="M461.475,365.15v13.465a.239.239,0,0,1-.129.175.7.7,0,0,1-.607,0,.23.23,0,0,1-.12-.175V365.15Z" transform="translate(-284.886 -349.919)" fill="#455a64"/>
          <path id="Trazado_7252" data-name="Trazado 7252" d="M471.518,360.044a6.245,6.245,0,1,1-1.826-4.422A6.254,6.254,0,0,1,471.518,360.044Z" transform="translate(-284.757 -349.007)" fill="#2d1674"/>
          <path id="Trazado_7253" data-name="Trazado 7253" d="M467.283,358.444c.8-2.538,1.665-3.532,1.122-3.844a6.254,6.254,0,1,0,1.738,9.427C468.249,364.569,466.189,361.736,467.283,358.444Z" transform="translate(-284.761 -349.007)" opacity="0.2"/>
          <path id="Trazado_7254" data-name="Trazado 7254" d="M459.113,362.136a4.387,4.387,0,1,1-1.282-3.108,4.4,4.4,0,0,1,1.282,3.108Z" transform="translate(-284.059 -349.324)" fill="#2d1674"/>
          <path id="Trazado_7255" data-name="Trazado 7255" d="M454.778,357.74a4.369,4.369,0,0,0-2.575.828c-.11,2.686,2.161,5.3,1.527,6.181s-2.207.34-2.759-.4a4.387,4.387,0,1,0,3.8-6.6Z" transform="translate(-284.111 -349.324)" opacity="0.2"/>
          <circle id="Elipse_304" data-name="Elipse 304" cx="8.066" cy="8.066" r="8.066" transform="translate(168.091)" fill="#2d1674"/>
          <path id="Trazado_7256" data-name="Trazado 7256" d="M468.223,358.6a8.057,8.057,0,1,1-11.809-8.866,8.178,8.178,0,0,0-1.839,1.481,8.057,8.057,0,0,0,13.695,7.358Z" transform="translate(-284.22 -348.681)" opacity="0.1"/>
          <rect id="Rectángulo_4706" data-name="Rectángulo 4706" width="6.263" height="0.515" transform="translate(9.655 45.852) rotate(-63.09)" fill="#455a64"/>
          <rect id="Rectángulo_4707" data-name="Rectángulo 4707" width="0.516" height="5.261" transform="matrix(0.849, -0.529, 0.529, 0.849, 8.064, 39.067)" fill="#455a64"/>
          <path id="Trazado_7257" data-name="Trazado 7257" d="M280.7,391.34v13.483a.2.2,0,0,1-.129.175.625.625,0,0,1-.6,0,.2.2,0,0,1-.129-.175V391.34Z" transform="translate(-270.376 -352.021)" fill="#455a64"/>
          <path id="Trazado_7258" data-name="Trazado 7258" d="M290.748,386.236a6.254,6.254,0,1,1-1.851-4.424A6.254,6.254,0,0,1,290.748,386.236Z" transform="translate(-270.247 -351.111)" fill="#2d1674"/>
          <path id="Trazado_7259" data-name="Trazado 7259" d="M286.453,384.643c.809-2.538,1.665-3.532,1.122-3.845a6.254,6.254,0,1,0,1.738,9.418C287.464,390.76,285.377,387.936,286.453,384.643Z" transform="translate(-270.247 -351.11)" opacity="0.2"/>
          <path id="Trazado_7260" data-name="Trazado 7260" d="M278.343,388.326a4.4,4.4,0,1,1-4.4-4.4,4.4,4.4,0,0,1,4.4,4.4Z" transform="translate(-269.55 -351.426)" fill="#2d1674"/>
          <path id="Trazado_7261" data-name="Trazado 7261" d="M274,383.93a4.405,4.405,0,0,0-2.566.828c-.12,2.686,2.161,5.307,1.518,6.181s-2.207.34-2.759-.4a4.4,4.4,0,1,0,3.8-6.6Z" transform="translate(-269.601 -351.426)" opacity="0.2"/>
          <circle id="Elipse_305" data-name="Elipse 305" cx="8.066" cy="8.066" r="8.066" transform="translate(1.83 24.097)" fill="#2d1674"/>
          <path id="Trazado_7262" data-name="Trazado 7262" d="M287.45,384.787a8.066,8.066,0,1,1-11.809-8.857,2.749,2.749,0,0,0-2.1,3.311,8.057,8.057,0,0,0,13.916,5.518Z" transform="translate(-269.709 -350.784)" opacity="0.1"/>
        </g>
      </g>
      <g id="freepik--house-3--inject-43" transform="translate(26.21 213.468)">
        <g id="freepik--yard--inject-43-2" data-name="freepik--yard--inject-43" transform="translate(0 48.581)">
          <path id="Trazado_7263" data-name="Trazado 7263" d="M26.21,369.02v-4.314l145.7-84.156,82.2,47.486v4.314L108.4,416.524Z" transform="translate(-26.21 -280.55)" fill="#d0dc64"/>
          <path id="Trazado_7264" data-name="Trazado 7264" d="M26.21,364.706,108.4,412.2l145.714-84.165-82.2-47.486Z" transform="translate(-26.21 -280.55)" fill="#d0dc64"/>
          <path id="Trazado_7265" data-name="Trazado 7265" d="M214.186,322.8,180.56,342.216l33.662,19.416,33.589-19.544Z" transform="translate(-38.599 -283.941)" fill="#f0f0f0"/>
          <path id="Trazado_7266" data-name="Trazado 7266" d="M26.21,372.05l82.188,47.5v4.323l-82.188-47.5Z" transform="translate(-26.21 -287.894)" opacity="0.15"/>
          <path id="Trazado_7267" data-name="Trazado 7267" d="M115.57,416.345,261.284,332.18v4.314L115.57,420.668Z" transform="translate(-33.382 -284.694)" opacity="0.1"/>
        </g>
        <g id="freepik--house--inject-43-2" data-name="freepik--house--inject-43" transform="translate(18.68)">
          <path id="Trazado_7268" data-name="Trazado 7268" d="M150.26,257.925l52.305-30.195L226.7,274.186l-52.305,30.2Z" transform="translate(-54.846 -227.73)" fill="#455a64"/>
          <path id="Trazado_7269" data-name="Trazado 7269" d="M150.26,257.925l52.305-30.195L226.7,274.186l-52.305,30.2Z" transform="translate(-54.846 -227.73)" fill="#37474f" opacity="0.5"/>
          <path id="Trazado_7270" data-name="Trazado 7270" d="M176.5,341.356l44.837-25.881V285.28L176.5,311.161Z" transform="translate(-56.953 -232.349)" fill="#f0f0f0"/>
          <path id="Trazado_7271" data-name="Trazado 7271" d="M180.56,339.957V314.076l33.626-19.416v25.881Z" transform="translate(-57.278 -233.102)" fill="#455a64"/>
          <path id="Trazado_7272" data-name="Trazado 7272" d="M180.56,339.957V314.076l33.626-19.416v25.881Z" transform="translate(-57.278 -233.102)" fill="#37474f" opacity="0.5"/>
          <path id="Trazado_7273" data-name="Trazado 7273" d="M217.09,294.66l-.35.2v25.477l.35.193Z" transform="translate(-60.182 -233.102)" fill="#263238"/>
          <path id="Trazado_7274" data-name="Trazado 7274" d="M213.827,322.58,180.56,341.8v.4l33.626-19.416Z" transform="translate(-57.278 -235.343)" fill="#37474f"/>
          <path id="Trazado_7275" data-name="Trazado 7275" d="M209.808,275.245v-13.98l-8.048-4.645-8.02,13.888v14.026Z" transform="translate(-58.336 -230.049)" fill="#f0f0f0"/>
          <path id="Trazado_7276" data-name="Trazado 7276" d="M202.46,256.492l9.933,5.73,1.269-.727-11.2-6.475Z" transform="translate(-59.036 -229.92)" fill="#263238"/>
          <path id="Trazado_7277" data-name="Trazado 7277" d="M192.682,285.134l-8.029-13.925-4.093-7.119,12.122,7.018Z" transform="translate(-57.278 -230.648)" fill="#e0e0e0"/>
          <path id="Trazado_7278" data-name="Trazado 7278" d="M213.1,262.755H211.21V261.67Z" transform="translate(-59.738 -230.454)" opacity="0.4"/>
          <path id="Trazado_7279" data-name="Trazado 7279" d="M191.552,273.691l9.933-17.2V255.02L190.31,274.408Z" transform="translate(-58.061 -229.92)" fill="#2d1674"/>
          <path id="Trazado_7280" data-name="Trazado 7280" d="M191.552,273.691l9.933-17.2V255.02L190.31,274.408Z" transform="translate(-58.061 -229.92)" fill="#37474f"/>
          <path id="Trazado_7281" data-name="Trazado 7281" d="M189.3,273.825l11.175-19.388-11.552-6.677L177.75,267.148Z" transform="translate(-57.053 -229.338)" fill="#2d1674"/>
          <path id="Trazado_7282" data-name="Trazado 7282" d="M189.3,273.825l11.175-19.388-11.552-6.677L177.75,267.148Z" transform="translate(-57.053 -229.338)" fill="#263238"/>
          <path id="Trazado_7283" data-name="Trazado 7283" d="M198.11,268.875l8.029-4.645V273.5l-8.029,4.645Z" transform="translate(-58.687 -230.66)" fill="#455a64"/>
          <path id="Trazado_7284" data-name="Trazado 7284" d="M205.321,273.064V264.75l-7.211,4.166v8.314Z" transform="translate(-58.687 -230.701)" fill="#e0e0e0"/>
          <path id="Trazado_7285" data-name="Trazado 7285" d="M206.139,274.268l-.819-.478-7.211,4.166v.957Z" transform="translate(-58.687 -231.427)" fill="#37474f"/>
          <path id="Trazado_7286" data-name="Trazado 7286" d="M228.805,278.24l-52.305,30.2V310.6L228.805,280.4Z" transform="translate(-56.953 -231.784)" fill="#37474f"/>
          <path id="Trazado_7287" data-name="Trazado 7287" d="M95.408,330.765,72.994,287.62,50.58,304.883v60.39l44.828,25.881Z" transform="translate(-46.846 -232.537)" fill="#f0f0f0"/>
          <path id="Trazado_7288" data-name="Trazado 7288" d="M66.177,324.774,58.7,320.46v12.931l7.477,4.323Z" transform="translate(-47.498 -235.173)" fill="#455a64"/>
          <path id="Trazado_7289" data-name="Trazado 7289" d="M59.35,333.081V320.83l6.88,3.973v12.251Z" transform="translate(-47.55 -235.202)" fill="#fafafa"/>
          <path id="Trazado_7290" data-name="Trazado 7290" d="M59.35,320.83l6.88,4v1.278l-6.88-3.973Z" transform="translate(-47.55 -235.202)" fill="#e0e0e0"/>
          <path id="Trazado_7291" data-name="Trazado 7291" d="M58.7,334.49l.6-.34,6.88,3.973v.69Z" transform="translate(-47.498 -236.272)" fill="#37474f"/>
          <path id="Trazado_7292" data-name="Trazado 7292" d="M66.177,332.123,58.7,327.809v-.7l7.477,4.323Z" transform="translate(-47.498 -235.707)" fill="#455a64"/>
          <path id="Trazado_7293" data-name="Trazado 7293" d="M90.547,338.844,83.07,334.53v12.941l7.477,4.314Z" transform="translate(-49.454 -236.302)" fill="#455a64"/>
          <path id="Trazado_7294" data-name="Trazado 7294" d="M83.72,347.151V334.9l6.88,3.973v12.251Z" transform="translate(-49.506 -236.332)" fill="#fafafa"/>
          <path id="Trazado_7295" data-name="Trazado 7295" d="M83.72,334.9l6.88,3.973v1.278l-6.88-3.946Z" transform="translate(-49.506 -236.332)" fill="#e0e0e0"/>
          <path id="Trazado_7296" data-name="Trazado 7296" d="M83.07,348.57l.6-.35,6.88,3.973v.69Z" transform="translate(-49.454 -237.401)" fill="#37474f"/>
          <path id="Trazado_7297" data-name="Trazado 7297" d="M90.547,345.995l-7.477-4.286v-.7l7.477,4.286Z" transform="translate(-49.454 -236.822)" fill="#455a64"/>
          <path id="Trazado_7298" data-name="Trazado 7298" d="M66.177,352.914,58.7,348.6v12.941l7.477,4.314Z" transform="translate(-47.498 -237.431)" fill="#455a64"/>
          <path id="Trazado_7299" data-name="Trazado 7299" d="M59.35,361.222V348.98l6.88,3.964v12.251Z" transform="translate(-47.55 -237.462)" fill="#fafafa"/>
          <path id="Trazado_7300" data-name="Trazado 7300" d="M59.35,348.98l6.88,3.992v1.288l-6.88-3.973Z" transform="translate(-47.55 -237.462)" fill="#e0e0e0"/>
          <path id="Trazado_7301" data-name="Trazado 7301" d="M58.7,362.64l.6-.349,6.88,3.973v.69Z" transform="translate(-47.498 -238.53)" fill="#37474f"/>
          <path id="Trazado_7302" data-name="Trazado 7302" d="M66.177,360.273,58.7,355.95v-.69l7.477,4.314Z" transform="translate(-47.498 -237.966)" fill="#455a64"/>
          <path id="Trazado_7303" data-name="Trazado 7303" d="M90.547,366.984,83.07,362.67v12.941l7.477,4.314Z" transform="translate(-49.454 -238.561)" fill="#455a64"/>
          <path id="Trazado_7304" data-name="Trazado 7304" d="M83.72,375.3V363.05l6.88,3.964v12.251Z" transform="translate(-49.506 -238.591)" fill="#fafafa"/>
          <path id="Trazado_7305" data-name="Trazado 7305" d="M83.72,363.05l6.88,3.964v1.278l-6.88-3.936Z" transform="translate(-49.506 -238.591)" fill="#e0e0e0"/>
          <path id="Trazado_7306" data-name="Trazado 7306" d="M83.07,376.71l.6-.34,6.88,3.964v.69Z" transform="translate(-49.454 -239.66)" fill="#37474f"/>
          <path id="Trazado_7307" data-name="Trazado 7307" d="M90.547,374.136,83.07,369.85v-.69l7.477,4.277Z" transform="translate(-49.454 -239.082)" fill="#455a64"/>
          <path id="Trazado_7308" data-name="Trazado 7308" d="M170.305,350.369,99.32,391.343v-60.39l70.985-40.983Z" transform="translate(-50.758 -232.726)" fill="#fafafa"/>
          <path id="Trazado_7309" data-name="Trazado 7309" d="M133.17,375.833V354.256l11.2-6.466v21.568Z" transform="translate(-53.475 -237.366)" fill="#37474f"/>
          <path id="Trazado_7310" data-name="Trazado 7310" d="M144.023,369.109v-21.1l-10.853,6.263v21.1Z" transform="translate(-53.475 -237.384)" fill="#455a64"/>
          <path id="Trazado_7311" data-name="Trazado 7311" d="M145.32,347.79l-.35.2v21.1l.35.267Z" transform="translate(-54.422 -237.366)" fill="#263238"/>
          <path id="Trazado_7312" data-name="Trazado 7312" d="M150.1,341.233l16.813-9.7v17.852L150.1,359.095Z" transform="translate(-54.834 -236.061)" fill="#263238"/>
          <path id="Trazado_7313" data-name="Trazado 7313" d="M165.874,348.836V332.18L150.1,341.285v16.666Z" transform="translate(-54.834 -236.113)" fill="#e6e6e6"/>
          <path id="Trazado_7314" data-name="Trazado 7314" d="M165.874,332.18v3.881L150.1,345.176v-3.891Z" transform="translate(-54.834 -236.113)" fill="#e0e0e0"/>
          <path id="Trazado_7315" data-name="Trazado 7315" d="M166.913,350.888l-1.039-.6L150.1,359.4v1.2Z" transform="translate(-54.834 -237.567)" fill="#37474f"/>
          <path id="Trazado_7316" data-name="Trazado 7316" d="M166.913,341.187l-1.039-.607L150.1,349.695v1.2Z" transform="translate(-54.834 -236.788)" fill="#37474f"/>
          <path id="Trazado_7317" data-name="Trazado 7317" d="M159.529,354.441l-1.039.6V337.178l1.039-.6Z" transform="translate(-55.507 -236.467)" fill="#37474f"/>
          <path id="Trazado_7318" data-name="Trazado 7318" d="M107.45,365.853l16.8-9.7v17.861l-16.8,9.7Z" transform="translate(-51.41 -238.037)" fill="#263238"/>
          <path id="Trazado_7319" data-name="Trazado 7319" d="M123.223,373.466V356.8l-15.773,9.105v16.666Z" transform="translate(-51.41 -238.09)" fill="#e6e6e6"/>
          <path id="Trazado_7320" data-name="Trazado 7320" d="M123.223,356.8v3.881L107.45,369.8v-3.89Z" transform="translate(-51.41 -238.09)" fill="#e0e0e0"/>
          <path id="Trazado_7321" data-name="Trazado 7321" d="M124.254,375.518l-1.03-.6-15.773,9.105v1.2Z" transform="translate(-51.41 -239.544)" fill="#37474f"/>
          <path id="Trazado_7322" data-name="Trazado 7322" d="M124.254,365.808l-1.03-.6-15.773,9.115v1.186Z" transform="translate(-51.41 -238.765)" fill="#37474f"/>
          <path id="Trazado_7323" data-name="Trazado 7323" d="M116.87,379.071l-1.03.6V361.808l1.03-.6Z" transform="translate(-52.084 -238.443)" fill="#37474f"/>
          <path id="Trazado_7324" data-name="Trazado 7324" d="M129.74,320.173l16.813-9.7v17.861l-16.813,9.7Z" transform="translate(-53.199 -234.371)" fill="#263238"/>
          <path id="Trazado_7325" data-name="Trazado 7325" d="M145.523,327.786V311.12l-15.783,9.105v16.666Z" transform="translate(-53.199 -234.423)" fill="#e6e6e6"/>
          <path id="Trazado_7326" data-name="Trazado 7326" d="M145.523,311.12v1.711l-15.783,9.105v-1.711Z" transform="translate(-53.199 -234.423)" fill="#e0e0e0"/>
          <path id="Trazado_7327" data-name="Trazado 7327" d="M146.553,329.838l-1.03-.6-15.783,9.105v1.2Z" transform="translate(-53.199 -235.878)" fill="#37474f"/>
          <path id="Trazado_7328" data-name="Trazado 7328" d="M146.553,320.128l-1.03-.6-15.783,9.115v1.186Z" transform="translate(-53.199 -235.098)" fill="#37474f"/>
          <path id="Trazado_7329" data-name="Trazado 7329" d="M139.17,333.391l-1.03.6V316.128l1.03-.6Z" transform="translate(-53.874 -234.777)" fill="#37474f"/>
          <path id="Trazado_7330" data-name="Trazado 7330" d="M111.51,337.8l7.027-4.028v10.347l-7.027,4.028Z" transform="translate(-51.736 -236.241)" fill="#455a64"/>
          <path id="Trazado_7331" data-name="Trazado 7331" d="M117.939,343.806V334.14l-6.429,3.688v9.657Z" transform="translate(-51.736 -236.271)" fill="#e0e0e0"/>
          <path id="Trazado_7332" data-name="Trazado 7332" d="M118.537,344.99l-.6-.34-6.429,3.679v.69Z" transform="translate(-51.736 -237.114)" fill="#37474f"/>
          <path id="Trazado_7333" data-name="Trazado 7333" d="M111.51,343.358l7.027-4.028v-.69l-7.027,4.028Z" transform="translate(-51.736 -236.632)" fill="#455a64"/>
          <path id="Trazado_7334" data-name="Trazado 7334" d="M156.68,311.688l7.018-4.028v10.356l-7.018,4.028Z" transform="translate(-55.362 -234.145)" fill="#455a64"/>
          <path id="Trazado_7335" data-name="Trazado 7335" d="M163.1,317.7V308.04l-6.42,3.679v9.657Z" transform="translate(-55.362 -234.176)" fill="#e0e0e0"/>
          <path id="Trazado_7336" data-name="Trazado 7336" d="M163.7,318.89l-.6-.35-6.42,3.679v.7Z" transform="translate(-55.362 -235.019)" fill="#37474f"/>
          <path id="Trazado_7337" data-name="Trazado 7337" d="M156.68,317.257l7.018-4.028v-.7l-7.018,4.028Z" transform="translate(-55.362 -234.536)" fill="#455a64"/>
          <path id="Trazado_7338" data-name="Trazado 7338" d="M70.89,288.914l24.2,46.419,76.669-44.258L147.624,244.61Z" transform="translate(-48.476 -229.085)" fill="#455a64"/>
          <path id="Trazado_7339" data-name="Trazado 7339" d="M70.89,286.1l24.2,46.419,76.669-44.267L147.624,241.8Z" transform="translate(-48.476 -228.859)" fill="#455a64"/>
          <path id="Trazado_7340" data-name="Trazado 7340" d="M70.89,289.97v2.584l24.2,46.419v-2.584Z" transform="translate(-48.476 -232.726)" fill="#263238"/>
          <path id="Trazado_7341" data-name="Trazado 7341" d="M97.2,336.577l76.669-44.267V294.9L97.2,339.161Z" transform="translate(-50.588 -232.913)" fill="#37474f"/>
          <path id="Trazado_7342" data-name="Trazado 7342" d="M46.52,309.818l22.414-17.263V289.97L46.52,307.224Z" transform="translate(-46.52 -232.726)" fill="#263238"/>
          <path id="Trazado_7343" data-name="Trazado 7343" d="M68.934,292.78,46.52,310.043l3.734-2.3,18.68-14.375.221-.166Z" transform="translate(-46.52 -232.951)"/>
          <path id="Trazado_7344" data-name="Trazado 7344" d="M118,328.793l37.36-21.568-18.68-6.475Z" transform="translate(-52.257 -233.591)" fill="#fafafa"/>
          <path id="Trazado_7345" data-name="Trazado 7345" d="M117.022,324.467l-11.2-45.3L135.7,296.433Z" transform="translate(-51.28 -231.859)" fill="#263238"/>
          <path id="Trazado_7346" data-name="Trazado 7346" d="M136.68,300.524V297.94L118,325.974v2.594Z" transform="translate(-52.257 -233.365)" fill="#37474f"/>
          <path id="Trazado_7347" data-name="Trazado 7347" d="M156.99,307v-2.594l-18.68-6.466v2.584Z" transform="translate(-53.887 -233.365)" fill="#263238"/>
          <path id="Trazado_7348" data-name="Trazado 7348" d="M154.382,302.9,105.82,279.17,135.7,296.433Z" transform="translate(-51.28 -231.859)" fill="#37474f"/>
          <path id="Trazado_7349" data-name="Trazado 7349" d="M99.32,394.273l14.946,8.627,70.985-40.983-14.946-8.627Z" transform="translate(-50.758 -237.808)" fill="#e6e6e6"/>
          <path id="Trazado_7350" data-name="Trazado 7350" d="M99.32,397.85V400l14.946,8.636v-2.161Z" transform="translate(-50.758 -241.384)" fill="#f0f0f0"/>
          <path id="Trazado_7351" data-name="Trazado 7351" d="M186.555,362.67v2.161L115.57,405.815v-2.161Z" transform="translate(-52.062 -238.561)" fill="#fafafa"/>
          <path id="Trazado_7352" data-name="Trazado 7352" d="M116.51,368.86v32.264a.515.515,0,0,1-.3.423,1.619,1.619,0,0,1-1.453,0,.515.515,0,0,1-.3-.423V368.86Z" transform="translate(-51.972 -239.057)" fill="#37474f"/>
          <path id="Trazado_7353" data-name="Trazado 7353" d="M188.51,327.31v32.274a.506.506,0,0,1-.3.414,1.619,1.619,0,0,1-1.453,0,.506.506,0,0,1-.3-.414V327.31Z" transform="translate(-57.751 -235.723)" fill="#37474f"/>
          <path id="Trazado_7354" data-name="Trazado 7354" d="M99.32,359.094l14.946,8.627,70.985-40.983-14.946-8.627Z" transform="translate(-50.758 -234.984)" fill="#455a64"/>
          <path id="Trazado_7355" data-name="Trazado 7355" d="M99.32,362.67v2.161l14.946,8.627V371.3Z" transform="translate(-50.758 -238.561)" fill="#37474f"/>
          <path id="Trazado_7356" data-name="Trazado 7356" d="M186.555,327.49v2.161L115.57,370.635v-2.161Z" transform="translate(-52.062 -235.737)" fill="#263238"/>
        </g>
        <g id="freepik--plants--inject-43-3" data-name="freepik--plants--inject-43" transform="translate(3.89 64.933)">
          <rect id="Rectángulo_4708" data-name="Rectángulo 4708" width="6.263" height="0.515" transform="translate(212.199 21.755) rotate(-63.09)" fill="#455a64"/>
          <rect id="Rectángulo_4709" data-name="Rectángulo 4709" width="0.515" height="5.252" transform="matrix(0.85, -0.526, 0.526, 0.85, 209.358, 15.998)" fill="#455a64"/>
          <path id="Trazado_7357" data-name="Trazado 7357" d="M261.805,314.88v13.465a.212.212,0,0,1-.129.175.644.644,0,0,1-.607,0,.2.2,0,0,1-.12-.175V314.88Z" transform="translate(-48.941 -299.658)" fill="#455a64"/>
          <path id="Trazado_7358" data-name="Trazado 7358" d="M271.908,309.784a6.254,6.254,0,1,1-6.254-6.254,6.254,6.254,0,0,1,6.254,6.254Z" transform="translate(-48.817 -298.747)" fill="#2d1674"/>
          <path id="Trazado_7359" data-name="Trazado 7359" d="M267.563,308.183c.809-2.538,1.665-3.532,1.122-3.844a6.254,6.254,0,1,0,1.738,9.418C268.574,314.3,266.514,311.476,267.563,308.183Z" transform="translate(-48.812 -298.747)" opacity="0.2"/>
          <path id="Trazado_7360" data-name="Trazado 7360" d="M259.453,311.866a4.4,4.4,0,1,1-4.4-4.4,4.4,4.4,0,0,1,4.4,4.4Z" transform="translate(-48.115 -299.064)" fill="#2d1674"/>
          <path id="Trazado_7361" data-name="Trazado 7361" d="M255.108,307.47a4.405,4.405,0,0,0-2.566.828c-.12,2.686,2.161,5.307,1.518,6.19s-2.207.331-2.759-.414a4.4,4.4,0,1,0,3.8-6.6Z" transform="translate(-48.167 -299.064)" opacity="0.2"/>
          <circle id="Elipse_306" data-name="Elipse 306" cx="8.066" cy="8.066" r="8.066" transform="translate(204.366)" fill="#2d1674"/>
          <path id="Trazado_7362" data-name="Trazado 7362" d="M268.611,308.327a8.066,8.066,0,1,1-11.819-8.857,7.937,7.937,0,0,0-1.885,1.481,8.057,8.057,0,0,0,13.7,7.358Z" transform="translate(-48.278 -298.421)" opacity="0.1"/>
          <rect id="Rectángulo_4710" data-name="Rectángulo 4710" width="6.263" height="0.515" transform="translate(9.697 57.839) rotate(-63.09)" fill="#455a64"/>
          <rect id="Rectángulo_4711" data-name="Rectángulo 4711" width="0.516" height="5.261" transform="matrix(0.849, -0.529, 0.529, 0.849, 8.019, 51.881)" fill="#455a64"/>
          <path id="Trazado_7363" data-name="Trazado 7363" d="M41.615,354.11v13.465a.212.212,0,0,1-.129.175.644.644,0,0,1-.607,0,.212.212,0,0,1-.129-.175V354.11Z" transform="translate(-31.268 -302.807)" fill="#455a64"/>
          <path id="Trazado_7364" data-name="Trazado 7364" d="M51.658,349.014A6.254,6.254,0,1,1,45.4,342.76,6.254,6.254,0,0,1,51.658,349.014Z" transform="translate(-31.139 -301.896)" fill="#2d1674"/>
          <path id="Trazado_7365" data-name="Trazado 7365" d="M47.373,347.414c.8-2.538,1.665-3.532,1.113-3.844A6.24,6.24,0,1,0,50.279,353C48.375,353.53,46.37,350.707,47.373,347.414Z" transform="translate(-31.139 -301.896)" opacity="0.2"/>
          <path id="Trazado_7366" data-name="Trazado 7366" d="M39.233,351.1a4.4,4.4,0,1,1-4.4-4.4,4.4,4.4,0,0,1,4.4,4.4Z" transform="translate(-30.44 -302.212)" fill="#2d1674"/>
          <path id="Trazado_7367" data-name="Trazado 7367" d="M34.909,346.7a4.369,4.369,0,0,0-2.566.837c-.12,2.686,2.161,5.3,1.527,6.181s-2.207.34-2.759-.4A4.4,4.4,0,1,0,34.9,346.7Z" transform="translate(-30.494 -302.212)" opacity="0.2"/>
          <circle id="Elipse_307" data-name="Elipse 307" cx="8.066" cy="8.066" r="8.066" transform="translate(1.849 36.081)" fill="#2d1674"/>
          <path id="Trazado_7368" data-name="Trazado 7368" d="M48.36,347.557A8.066,8.066,0,1,1,36.551,338.7a8.222,8.222,0,0,0-1.895,1.481,8.057,8.057,0,0,0,13.7,7.358Z" transform="translate(-30.6 -301.57)" opacity="0.1"/>
          <g id="freepik--plants--inject-43-4" data-name="freepik--plants--inject-43" transform="translate(173.646 3.274)">
            <path id="Trazado_7369" data-name="Trazado 7369" d="M227.189,317.047l1.6-.92a27.187,27.187,0,0,0,.184-7.818c-.8-5.086-4.258-6.843-5.518-6.337s-1.554,2.014.717,4.948a16.942,16.942,0,0,1,3.017,10.126Z" transform="translate(-219.5 -301.889)" fill="#2d1674"/>
            <g id="Grupo_2795" data-name="Grupo 2795" transform="translate(2.984)" opacity="0.2">
              <path id="Trazado_7370" data-name="Trazado 7370" d="M227.189,317.047l1.6-.92a27.187,27.187,0,0,0,.184-7.818c-.8-5.086-4.258-6.843-5.518-6.337s-1.554,2.014.717,4.948a16.942,16.942,0,0,1,3.017,10.126Z" transform="translate(-222.485 -301.889)"/>
            </g>
            <path id="Trazado_7371" data-name="Trazado 7371" d="M227.922,315.1h0a.11.11,0,0,1-.092-.129c.653-4.764-1.26-9.979-3.412-12.076a.138.138,0,0,1,0-.166.12.12,0,0,1,.166,0c2.189,2.143,4.139,7.441,3.467,12.269a.11.11,0,0,1-.129.1Z" transform="translate(-219.653 -301.954)" fill="#fff"/>
            <path id="Trazado_7372" data-name="Trazado 7372" d="M222.514,319.983c-.248.138-.763-.175-.966-.3a2.419,2.419,0,0,1-.8-.92,2.207,2.207,0,0,1-.193-1.352,5.052,5.052,0,0,1,.166-.717l.2-.7a1.839,1.839,0,0,0,.1-.7,1.885,1.885,0,0,0-.865-1.1,1.729,1.729,0,0,1-.92-1.315,2.051,2.051,0,0,1,.506-1.2c.276-.349.607-.653.855-1.021a1.453,1.453,0,0,0,.285-.92,1.508,1.508,0,0,0-.193-.561,8.215,8.215,0,0,1-.607-1.113,1.1,1.1,0,0,1,.193-1.2,1.306,1.306,0,0,1,.984-.239,2.254,2.254,0,0,1,.92.322c.92.506,1.435,1.582,2.4,1.977a9.842,9.842,0,0,0,1.168.285,1.462,1.462,0,0,1,.92.662c.349.708-.3,1.582-.055,2.336s.865.92,1.232,1.518a1.444,1.444,0,0,1,.166.874,4.065,4.065,0,0,1-.368,1.472,9.842,9.842,0,0,1-.809,1.324Z" transform="translate(-219.24 -302.268)" fill="#2d1674"/>
            <g id="Grupo_2796" data-name="Grupo 2796" transform="translate(0 4.344)" opacity="0.1">
              <path id="Trazado_7373" data-name="Trazado 7373" d="M222.514,319.983c-.248.138-.763-.175-.966-.3a2.419,2.419,0,0,1-.8-.92,2.207,2.207,0,0,1-.193-1.352,5.052,5.052,0,0,1,.166-.717l.2-.7a1.839,1.839,0,0,0,.1-.7,1.885,1.885,0,0,0-.865-1.1,1.729,1.729,0,0,1-.92-1.315,2.051,2.051,0,0,1,.506-1.2c.276-.349.607-.653.855-1.021a1.453,1.453,0,0,0,.285-.92,1.508,1.508,0,0,0-.193-.561,8.215,8.215,0,0,1-.607-1.113,1.1,1.1,0,0,1,.193-1.2,1.306,1.306,0,0,1,.984-.239,2.254,2.254,0,0,1,.92.322c.92.506,1.435,1.582,2.4,1.977a9.842,9.842,0,0,0,1.168.285,1.462,1.462,0,0,1,.92.662c.349.708-.3,1.582-.055,2.336s.865.92,1.232,1.518a1.444,1.444,0,0,1,.166.874,4.065,4.065,0,0,1-.368,1.472,9.842,9.842,0,0,1-.809,1.324Z" transform="translate(-219.24 -306.612)"/>
            </g>
            <path id="Trazado_7374" data-name="Trazado 7374" d="M225.294,318.67h0a.11.11,0,0,1-.11-.12c.184-4.507-1.941-9.473-3.477-10.927a.11.11,0,0,1,0-.156.129.129,0,0,1,.166,0c1.573,1.481,3.734,6.53,3.55,11.1a.12.12,0,0,1-.129.1Z" transform="translate(-219.435 -302.335)" fill="#fff"/>
            <path id="Trazado_7375" data-name="Trazado 7375" d="M224.585,313.794h0a15.781,15.781,0,0,0-3.265-.533.11.11,0,0,1-.11-.11.1.1,0,0,1,.12-.11,15.635,15.635,0,0,1,3.32.533.115.115,0,1,1-.064.221Z" transform="translate(-219.398 -302.784)" fill="#fff"/>
          </g>
        </g>
      </g>
      <g id="freepik--house-2--inject-43" transform="translate(242.201 74.955)">
        <g id="freepik--yard--inject-43-3" data-name="freepik--yard--inject-43" transform="translate(0.993 63.719)">
          <path id="Trazado_7376" data-name="Trazado 7376" d="M262.13,206.8v-4.314l97.124-56.076,78.472,45.3v4.314L340.584,252.1Z" transform="translate(-262.13 -146.41)" fill="#d0dc64"/>
          <path id="Trazado_7377" data-name="Trazado 7377" d="M262.13,202.486l78.454,45.3,97.143-56.076-78.472-45.3Z" transform="translate(-262.13 -146.41)" fill="#d0dc64"/>
          <path id="Trazado_7378" data-name="Trazado 7378" d="M262.13,207.38l78.454,45.3v4.314l-78.454-45.3Z" transform="translate(-262.13 -151.304)" opacity="0.15"/>
          <path id="Trazado_7379" data-name="Trazado 7379" d="M347.43,251.736l97.143-56.076v4.314L347.43,256.05Z" transform="translate(-268.976 -150.363)" opacity="0.1"/>
        </g>
        <g id="freepik--house--inject-43-3" data-name="freepik--house--inject-43" transform="translate(19.664)">
          <path id="Trazado_7380" data-name="Trazado 7380" d="M331.327,166.1,308.913,122.96,286.5,140.214l-.009,60.372,44.837,25.881Z" transform="translate(-282.756 -80.808)" fill="#ebebeb"/>
          <path id="Trazado_7381" data-name="Trazado 7381" d="M302.088,160.1l-7.468-4.314v12.941l7.468,4.314Z" transform="translate(-283.408 -83.443)" fill="#455a64"/>
          <path id="Trazado_7382" data-name="Trazado 7382" d="M295.27,168.411V156.16l6.87,3.973v12.251Z" transform="translate(-283.461 -83.473)" fill="#fafafa"/>
          <path id="Trazado_7383" data-name="Trazado 7383" d="M295.27,156.16l6.87,4v1.288l-6.87-3.973Z" transform="translate(-283.461 -83.473)" fill="#e0e0e0"/>
          <path id="Trazado_7384" data-name="Trazado 7384" d="M294.62,169.83l.6-.35,6.87,3.973v.69Z" transform="translate(-283.408 -84.542)" fill="#37474f"/>
          <path id="Trazado_7385" data-name="Trazado 7385" d="M302.088,167.462l-7.468-4.323v-.7l7.468,4.323Z" transform="translate(-283.408 -83.977)" fill="#455a64"/>
          <path id="Trazado_7386" data-name="Trazado 7386" d="M326.467,174.174l-7.477-4.314V182.8l7.477,4.314Z" transform="translate(-285.364 -84.573)" fill="#455a64"/>
          <path id="Trazado_7387" data-name="Trazado 7387" d="M319.64,182.491V170.24l6.88,3.964v12.251Z" transform="translate(-285.417 -84.603)" fill="#fafafa"/>
          <path id="Trazado_7388" data-name="Trazado 7388" d="M319.64,170.24l6.88,3.964v1.278l-6.88-3.936Z" transform="translate(-285.417 -84.603)" fill="#e0e0e0"/>
          <path id="Trazado_7389" data-name="Trazado 7389" d="M318.99,183.9l.6-.34,6.88,3.964v.69Z" transform="translate(-285.364 -85.672)" fill="#37474f"/>
          <path id="Trazado_7390" data-name="Trazado 7390" d="M326.467,181.325l-7.477-4.286v-.7l7.477,4.286Z" transform="translate(-285.364 -85.093)" fill="#455a64"/>
          <path id="Trazado_7391" data-name="Trazado 7391" d="M302.088,188.253l-7.468-4.323v12.941l7.468,4.314Z" transform="translate(-283.408 -85.702)" fill="#455a64"/>
          <path id="Trazado_7392" data-name="Trazado 7392" d="M295.27,196.552V184.31l6.87,3.973v12.242Z" transform="translate(-283.461 -85.733)" fill="#fafafa"/>
          <path id="Trazado_7393" data-name="Trazado 7393" d="M295.27,184.31l6.87,4v1.278l-6.87-3.973Z" transform="translate(-283.461 -85.733)" fill="#e0e0e0"/>
          <path id="Trazado_7394" data-name="Trazado 7394" d="M294.62,197.97l.6-.35,6.87,3.973v.69Z" transform="translate(-283.408 -86.801)" fill="#37474f"/>
          <path id="Trazado_7395" data-name="Trazado 7395" d="M302.088,195.6l-7.468-4.323v-.69l7.468,4.314Z" transform="translate(-283.408 -86.237)" fill="#455a64"/>
          <path id="Trazado_7396" data-name="Trazado 7396" d="M326.467,202.314,318.99,198v12.941l7.477,4.314Z" transform="translate(-285.364 -86.831)" fill="#455a64"/>
          <path id="Trazado_7397" data-name="Trazado 7397" d="M319.64,210.631V198.38l6.88,3.964v12.251Z" transform="translate(-285.417 -86.862)" fill="#fafafa"/>
          <path id="Trazado_7398" data-name="Trazado 7398" d="M319.64,198.38l6.88,3.964v1.288l-6.88-3.946Z" transform="translate(-285.417 -86.862)" fill="#e0e0e0"/>
          <path id="Trazado_7399" data-name="Trazado 7399" d="M318.99,212.04l.6-.34,6.88,3.964v.69Z" transform="translate(-285.364 -87.931)" fill="#37474f"/>
          <path id="Trazado_7400" data-name="Trazado 7400" d="M326.467,209.466l-7.477-4.286v-.69l7.477,4.286Z" transform="translate(-285.364 -87.352)" fill="#455a64"/>
          <path id="Trazado_7401" data-name="Trazado 7401" d="M406.225,185.672,335.24,226.655V166.284L406.225,125.3Z" transform="translate(-286.669 -80.996)" fill="#fafafa"/>
          <path id="Trazado_7402" data-name="Trazado 7402" d="M335.24,177.228l70.985-41.14V125.3L335.24,166.284Z" transform="translate(-286.669 -80.996)" fill="#f0f0f0"/>
          <path id="Trazado_7403" data-name="Trazado 7403" d="M345.39,204,362.2,194.29v14.182l-16.813,9.7Z" transform="translate(-287.483 -86.534)" fill="#263238"/>
          <path id="Trazado_7404" data-name="Trazado 7404" d="M361.173,207.927V194.94l-15.783,9.115v12.977Z" transform="translate(-287.483 -86.586)" fill="#e6e6e6"/>
          <path id="Trazado_7405" data-name="Trazado 7405" d="M361.173,194.94v3.081l-15.783,9.105v-3.072Z" transform="translate(-287.483 -86.586)" fill="#e0e0e0"/>
          <path id="Trazado_7406" data-name="Trazado 7406" d="M362.2,209.658l-1.03-.6-15.783,9.105v1.2Z" transform="translate(-287.483 -87.719)" fill="#37474f"/>
          <path id="Trazado_7407" data-name="Trazado 7407" d="M362.2,201.948l-1.03-.6-15.783,9.115v1.2Z" transform="translate(-287.483 -87.1)" fill="#37474f"/>
          <path id="Trazado_7408" data-name="Trazado 7408" d="M354.82,213.532l-1.03.6V199.948l1.03-.6Z" transform="translate(-288.158 -86.94)" fill="#37474f"/>
          <path id="Trazado_7409" data-name="Trazado 7409" d="M345.39,180.5l16.813-9.7v14.173l-16.813,9.712Z" transform="translate(-287.483 -84.648)" fill="#263238"/>
          <path id="Trazado_7410" data-name="Trazado 7410" d="M361.173,184.427V171.45l-15.783,9.105v12.987Z" transform="translate(-287.483 -84.7)" fill="#e6e6e6"/>
          <path id="Trazado_7411" data-name="Trazado 7411" d="M361.173,171.45v3.072l-15.783,9.115v-3.081Z" transform="translate(-287.483 -84.7)" fill="#e0e0e0"/>
          <path id="Trazado_7412" data-name="Trazado 7412" d="M362.2,186.158l-1.03-.6-15.783,9.115v1.2Z" transform="translate(-287.483 -85.833)" fill="#37474f"/>
          <path id="Trazado_7413" data-name="Trazado 7413" d="M362.2,178.458l-1.03-.6-15.783,9.105v1.2Z" transform="translate(-287.483 -85.215)" fill="#37474f"/>
          <path id="Trazado_7414" data-name="Trazado 7414" d="M354.82,190.033l-1.03.6V176.449l1.03-.589Z" transform="translate(-288.158 -85.054)" fill="#37474f"/>
          <path id="Trazado_7415" data-name="Trazado 7415" d="M306.81,124.244l24.2,46.428,76.669-44.267L383.544,79.94Z" transform="translate(-284.387 -77.356)" fill="#455a64"/>
          <path id="Trazado_7416" data-name="Trazado 7416" d="M306.81,121.434l24.2,46.428L407.678,123.6,383.544,77.13Z" transform="translate(-284.387 -77.13)" fill="#455a64"/>
          <path id="Trazado_7417" data-name="Trazado 7417" d="M306.81,125.3v2.584l24.2,46.428v-2.584Z" transform="translate(-284.387 -80.996)" fill="#263238"/>
          <path id="Trazado_7418" data-name="Trazado 7418" d="M333.12,171.917l76.669-44.267v2.584L333.12,174.5Z" transform="translate(-286.499 -81.185)" fill="#37474f"/>
          <path id="Trazado_7419" data-name="Trazado 7419" d="M282.43,145.148l22.423-17.263V125.3L282.43,142.554Z" transform="translate(-282.43 -80.996)" fill="#263238"/>
          <path id="Trazado_7420" data-name="Trazado 7420" d="M304.853,128.11,282.43,145.373l3.734-2.3L304.853,128.7l.212-.166Z" transform="translate(-282.43 -81.222)"/>
          <path id="Trazado_7421" data-name="Trazado 7421" d="M375.86,208.514l11.212,6.466V174.465L375.86,167.99Z" transform="translate(-289.929 -84.423)" fill="#e0e0e0"/>
          <path id="Trazado_7422" data-name="Trazado 7422" d="M388.05,213.55l37.36-21.568v-41.8l-37.36,21.568Z" transform="translate(-290.907 -82.993)" fill="#fafafa"/>
          <path id="Trazado_7423" data-name="Trazado 7423" d="M388.05,172.678l37.36-21.172-18.68-6.466Z" transform="translate(-290.907 -82.581)" fill="#fafafa"/>
          <path id="Trazado_7424" data-name="Trazado 7424" d="M406.6,144.814V142.22l-20.133,29.8v2.575Z" transform="translate(-290.781 -82.354)" fill="#263238"/>
          <path id="Trazado_7425" data-name="Trazado 7425" d="M405.751,141.728l-9.768-5.638-20.124,29.8,9.758,5.638Z" transform="translate(-289.929 -81.862)" fill="#37474f"/>
          <path id="Trazado_7426" data-name="Trazado 7426" d="M385.618,174.128l-9.758-5.638v2.584l9.758,5.629Z" transform="translate(-289.929 -84.463)" fill="#263238"/>
          <path id="Trazado_7427" data-name="Trazado 7427" d="M430.774,152.576v-2.594L408.36,142.22v2.594Z" transform="translate(-292.537 -82.354)" fill="#37474f"/>
          <path id="Trazado_7428" data-name="Trazado 7428" d="M429.922,149.491l-16.307-7.8-15.875-5.6,9.768,5.638Z" transform="translate(-291.685 -81.862)" fill="#37474f"/>
          <path id="Trazado_7429" data-name="Trazado 7429" d="M429.922,149.491l-16.307-7.8-15.875-5.6,9.768,5.638Z" transform="translate(-291.685 -81.862)" fill="#263238"/>
          <path id="Trazado_7430" data-name="Trazado 7430" d="M394.72,212.589V188.8l11.212-6.466v23.784Z" transform="translate(-291.443 -85.574)" fill="#37474f"/>
          <path id="Trazado_7431" data-name="Trazado 7431" d="M405.573,205.865V182.55l-10.853,6.263v23.325Z" transform="translate(-291.443 -85.591)" fill="#455a64"/>
          <path id="Trazado_7432" data-name="Trazado 7432" d="M406.879,182.33l-.359.2v23.315l.359.267Z" transform="translate(-292.39 -85.574)" fill="#263238"/>
          <path id="Trazado_7433" data-name="Trazado 7433" d="M415.52,179.428l7.018-4.028v10.356l-7.018,4.028Z" transform="translate(-293.112 -85.017)" fill="#455a64"/>
          <path id="Trazado_7434" data-name="Trazado 7434" d="M421.94,185.437V175.78l-6.42,3.679v9.666Z" transform="translate(-293.112 -85.048)" fill="#e0e0e0"/>
          <path id="Trazado_7435" data-name="Trazado 7435" d="M422.538,186.63l-.6-.35-6.42,3.688v.69Z" transform="translate(-293.112 -85.891)" fill="#37474f"/>
          <path id="Trazado_7436" data-name="Trazado 7436" d="M415.52,185l7.018-4.028v-.69l-7.018,4.028Z" transform="translate(-293.112 -85.409)" fill="#455a64"/>
          <path id="Trazado_7437" data-name="Trazado 7437" d="M399.22,163.563l16.813-9.7v14.173l-16.813,9.7Z" transform="translate(-291.804 -83.289)" fill="#263238"/>
          <path id="Trazado_7438" data-name="Trazado 7438" d="M414.994,167.487V154.5l-15.773,9.115V176.6Z" transform="translate(-291.804 -83.34)" fill="#e6e6e6"/>
          <path id="Trazado_7439" data-name="Trazado 7439" d="M414.994,154.5v3.081L399.22,166.7v-3.081Z" transform="translate(-291.804 -83.34)" fill="#e0e0e0"/>
          <path id="Trazado_7440" data-name="Trazado 7440" d="M416.033,169.218l-1.039-.6-15.773,9.115v1.186Z" transform="translate(-291.804 -84.473)" fill="#37474f"/>
          <path id="Trazado_7441" data-name="Trazado 7441" d="M416.033,161.508l-1.039-.6-15.773,9.115v1.2Z" transform="translate(-291.804 -83.854)" fill="#37474f"/>
          <path id="Trazado_7442" data-name="Trazado 7442" d="M408.649,173.092l-1.039.6V159.508l1.039-.6Z" transform="translate(-292.477 -83.694)" fill="#37474f"/>
          <path id="Trazado_7443" data-name="Trazado 7443" d="M394.69,214.646,405.9,208.18l11.258,6.466-11.258,6.5Z" transform="translate(-291.44 -87.648)" fill="#f0f0f0"/>
        </g>
        <g id="freepik--plants--inject-43-5" data-name="freepik--plants--inject-43" transform="translate(0 80.394)">
          <g id="freepik--plants--inject-43-6" data-name="freepik--plants--inject-43" transform="translate(60.786 49.205)">
            <path id="Trazado_7444" data-name="Trazado 7444" d="M329.118,233.2l-1.591-.92a27.392,27.392,0,0,1-.193-7.818c.8-5.086,4.258-6.843,5.518-6.337s1.554,2.014-.717,4.948a16.941,16.941,0,0,0-3.017,10.126Z" transform="translate(-327.141 -218.039)" fill="#2d1674"/>
            <g id="Grupo_2797" data-name="Grupo 2797" opacity="0.2">
              <path id="Trazado_7445" data-name="Trazado 7445" d="M329.118,233.2l-1.591-.92a27.392,27.392,0,0,1-.193-7.818c.8-5.086,4.258-6.843,5.518-6.337s1.554,2.014-.717,4.948a16.941,16.941,0,0,0-3.017,10.126Z" transform="translate(-327.141 -218.039)"/>
            </g>
            <path id="Trazado_7446" data-name="Trazado 7446" d="M328.637,231.248h0a.12.12,0,0,0,.092-.129c-.653-4.764,1.26-9.979,3.412-12.076a.138.138,0,0,0,0-.166.12.12,0,0,0-.165,0c-2.189,2.143-4.139,7.441-3.467,12.269A.12.12,0,0,0,328.637,231.248Z" transform="translate(-327.24 -218.104)" fill="#fff"/>
            <path id="Trazado_7447" data-name="Trazado 7447" d="M333.6,236.129c.248.138.763-.175.966-.313a2.327,2.327,0,0,0,.8-.92,2.28,2.28,0,0,0,.2-1.352,6.275,6.275,0,0,0-.175-.717l-.2-.7a1.352,1.352,0,0,1,.773-1.839,1.757,1.757,0,0,0,.865-1.315,2.024,2.024,0,0,0-.506-1.2c-.276-.35-.607-.662-.855-1.021a1.453,1.453,0,0,1-.285-.92,1.508,1.508,0,0,1,.193-.561,7.79,7.79,0,0,0,.607-1.122,1.094,1.094,0,0,0-.193-1.186,1.306,1.306,0,0,0-.984-.239,2.254,2.254,0,0,0-.92.322c-.92.506-1.426,1.582-2.4,1.977a12.019,12.019,0,0,1-1.168.285,1.426,1.426,0,0,0-.92.662c-.349.708.3,1.582.055,2.327s-.865.92-1.232,1.527a1.416,1.416,0,0,0-.166.874,4.066,4.066,0,0,0,.368,1.472,9.84,9.84,0,0,0,.809,1.324S333.568,236.1,333.6,236.129Z" transform="translate(-327.214 -218.414)" fill="#2d1674"/>
            <g id="Grupo_2798" data-name="Grupo 2798" transform="translate(0.833 4.298)" opacity="0.1">
              <path id="Trazado_7448" data-name="Trazado 7448" d="M333.6,236.129c.248.138.763-.175.966-.313a2.327,2.327,0,0,0,.8-.92,2.28,2.28,0,0,0,.2-1.352,6.275,6.275,0,0,0-.175-.717l-.2-.7a1.352,1.352,0,0,1,.773-1.839,1.757,1.757,0,0,0,.865-1.315,2.024,2.024,0,0,0-.506-1.2c-.276-.35-.607-.662-.855-1.021a1.453,1.453,0,0,1-.285-.92,1.508,1.508,0,0,1,.193-.561,7.79,7.79,0,0,0,.607-1.122,1.094,1.094,0,0,0-.193-1.186,1.306,1.306,0,0,0-.984-.239,2.254,2.254,0,0,0-.92.322c-.92.506-1.426,1.582-2.4,1.977a12.019,12.019,0,0,1-1.168.285,1.426,1.426,0,0,0-.92.662c-.349.708.3,1.582.055,2.327s-.865.92-1.232,1.527a1.416,1.416,0,0,0-.166.874,4.066,4.066,0,0,0,.368,1.472,9.84,9.84,0,0,0,.809,1.324S333.568,236.1,333.6,236.129Z" transform="translate(-328.047 -222.712)"/>
            </g>
            <path id="Trazado_7449" data-name="Trazado 7449" d="M331.268,234.82h0a.11.11,0,0,0,.11-.12c-.184-4.507,1.941-9.482,3.477-10.926a.111.111,0,1,0-.156-.156c-1.582,1.481-3.743,6.53-3.559,11.1a.12.12,0,0,0,.129.1Z" transform="translate(-327.461 -218.484)" fill="#fff"/>
            <path id="Trazado_7450" data-name="Trazado 7450" d="M331.987,229.934h0a15.121,15.121,0,0,1,3.265-.533.11.11,0,0,0,.11-.12.1.1,0,0,0-.12-.1,15.009,15.009,0,0,0-3.32.533.11.11,0,0,0-.083.138A.12.12,0,0,0,331.987,229.934Z" transform="translate(-327.518 -218.933)" fill="#fff"/>
          </g>
          <rect id="Rectángulo_4712" data-name="Rectángulo 4712" width="6.263" height="0.515" transform="translate(169.552 21.764) rotate(-63.09)" fill="#455a64"/>
          <rect id="Rectángulo_4713" data-name="Rectángulo 4713" width="0.516" height="5.261" transform="matrix(0.849, -0.529, 0.529, 0.849, 167.217, 14.466)" fill="#455a64"/>
          <path id="Trazado_7451" data-name="Trazado 7451" d="M446.065,181.1v13.465a.23.23,0,0,1-.12.175.7.7,0,0,1-.607,0,.239.239,0,0,1-.129-.175V181.1Z" transform="translate(-275.831 -165.869)" fill="#455a64"/>
          <path id="Trazado_7452" data-name="Trazado 7452" d="M456.118,175.994a6.254,6.254,0,1,1-6.254-6.254,6.254,6.254,0,0,1,6.254,6.254Z" transform="translate(-275.703 -164.957)" fill="#2d1674"/>
          <path id="Trazado_7453" data-name="Trazado 7453" d="M451.824,174.394c.809-2.538,1.665-3.532,1.122-3.844a6.254,6.254,0,1,0,1.747,9.427C452.835,180.51,450.784,177.687,451.824,174.394Z" transform="translate(-275.703 -164.957)" opacity="0.2"/>
          <path id="Trazado_7454" data-name="Trazado 7454" d="M443.713,178.077a4.4,4.4,0,1,1-4.4-4.387,4.4,4.4,0,0,1,4.4,4.387Z" transform="translate(-275.005 -165.274)" fill="#2d1674"/>
          <path id="Trazado_7455" data-name="Trazado 7455" d="M439.369,173.69a4.36,4.36,0,0,0-2.566.828c-.12,2.686,2.161,5.3,1.527,6.181s-2.207.34-2.759-.4a4.4,4.4,0,1,0,3.8-6.6Z" transform="translate(-275.057 -165.274)" opacity="0.2"/>
          <circle id="Elipse_308" data-name="Elipse 308" cx="8.066" cy="8.066" r="8.066" transform="translate(161.745)" fill="#2d1674"/>
          <path id="Trazado_7456" data-name="Trazado 7456" d="M452.821,174.546A8.066,8.066,0,1,1,441,165.68a8.176,8.176,0,0,0-1.885,1.481,8.066,8.066,0,0,0,13.7,7.358Z" transform="translate(-275.164 -164.632)" opacity="0.1"/>
          <rect id="Rectángulo_4714" data-name="Rectángulo 4714" width="6.263" height="0.515" transform="translate(9.655 32.915) rotate(-63.09)" fill="#455a64"/>
          <rect id="Rectángulo_4715" data-name="Rectángulo 4715" width="0.515" height="5.252" transform="matrix(0.85, -0.526, 0.526, 0.85, 6.811, 27.162)" fill="#455a64"/>
          <path id="Trazado_7457" data-name="Trazado 7457" d="M272.2,193.22v13.465a.212.212,0,0,1-.129.175.644.644,0,0,1-.607,0,.212.212,0,0,1-.129-.175V193.22Z" transform="translate(-261.876 -166.842)" fill="#455a64"/>
          <path id="Trazado_7458" data-name="Trazado 7458" d="M282.248,188.124a6.245,6.245,0,1,1-1.829-4.425,6.254,6.254,0,0,1,1.829,4.425Z" transform="translate(-261.747 -165.931)" fill="#2d1674"/>
          <path id="Trazado_7459" data-name="Trazado 7459" d="M277.955,186.524c.809-2.538,1.674-3.532,1.122-3.844a6.245,6.245,0,1,0,1.747,9.418C278.967,192.64,276.916,189.817,277.955,186.524Z" transform="translate(-261.749 -165.931)" opacity="0.2"/>
          <path id="Trazado_7460" data-name="Trazado 7460" d="M269.843,190.206a4.4,4.4,0,1,1-4.4-4.4A4.4,4.4,0,0,1,269.843,190.206Z" transform="translate(-261.05 -166.247)" fill="#2d1674"/>
          <path id="Trazado_7461" data-name="Trazado 7461" d="M265.5,185.81a4.424,4.424,0,0,0-2.566.828c-.12,2.686,2.161,5.307,1.527,6.181s-2.207.34-2.759-.4a4.4,4.4,0,1,0,3.8-6.6Z" transform="translate(-261.102 -166.247)" opacity="0.2"/>
          <circle id="Elipse_309" data-name="Elipse 309" cx="8.066" cy="8.066" r="8.066" transform="translate(1.83 11.156)" fill="#2d1674"/>
          <path id="Trazado_7462" data-name="Trazado 7462" d="M278.95,186.667a8.066,8.066,0,1,1-11.809-8.857,7.808,7.808,0,0,0-1.895,1.481,8.057,8.057,0,0,0,13.7,7.358Z" transform="translate(-261.209 -165.605)" opacity="0.1"/>
        </g>
      </g>
      <g id="freepik--house-1--inject-43" transform="translate(50.822 74.551)">
        <path id="Trazado_7463" data-name="Trazado 7463" d="M53.3,170.46v-4.314l97.124-56.076L228.9,155.358v4.314l-97.143,56.086Z" transform="translate(-52.996 -79.369)" fill="#2d1674"/>
        <path id="Trazado_7464" data-name="Trazado 7464" d="M53.3,166.146l78.454,45.3L228.9,155.358,150.424,110.07Z" transform="translate(-52.996 -79.369)" fill="#2d1674"/>
        <path id="Trazado_7465" data-name="Trazado 7465" d="M53.3,171.04l78.454,45.3v4.314L53.3,175.354Z" transform="translate(-52.996 -84.263)" opacity="0.15"/>
        <path id="Trazado_7466" data-name="Trazado 7466" d="M138.6,215.4l97.143-56.086v4.314L138.6,219.709Z" transform="translate(-59.843 -83.321)" opacity="0.1"/>
        <path id="Trazado_7467" data-name="Trazado 7467" d="M137.859,166.927l13.079,7.551V105.461L106.11,79.57V148.6Z" transform="translate(-57.235 -76.921)" fill="#ebebeb"/>
        <path id="Trazado_7468" data-name="Trazado 7468" d="M150.938,111.926,106.11,86.045V79.57l44.828,25.891Z" transform="translate(-57.235 -76.921)" fill="#e0e0e0"/>
        <path id="Trazado_7469" data-name="Trazado 7469" d="M123.2,103.508,114.23,98.33V106.1l8.967,5.178Z" transform="translate(-57.887 -78.427)" fill="#455a64"/>
        <path id="Trazado_7470" data-name="Trazado 7470" d="M114.88,105.783V98.71l8.37,4.829v7.073Z" transform="translate(-57.939 -78.457)" fill="#fafafa"/>
        <path id="Trazado_7471" data-name="Trazado 7471" d="M114.23,106.75l.6-.35,8.37,4.829v.7Z" transform="translate(-57.887 -79.075)" fill="#37474f"/>
        <path id="Trazado_7472" data-name="Trazado 7472" d="M141.878,114.3l-8.958-5.178v7.763l8.958,5.178Z" transform="translate(-59.387 -79.293)" fill="#455a64"/>
        <path id="Trazado_7473" data-name="Trazado 7473" d="M133.57,116.563V109.49l8.36,4.838V121.4Z" transform="translate(-59.439 -79.323)" fill="#fafafa"/>
        <path id="Trazado_7474" data-name="Trazado 7474" d="M132.92,117.53l.6-.349,8.36,4.838v.69Z" transform="translate(-59.387 -79.94)" fill="#37474f"/>
        <path id="Trazado_7475" data-name="Trazado 7475" d="M150.79,107l56.04,7.45V112.3l-56.04-7.459Z" transform="translate(-60.821 -78.949)" fill="#37474f"/>
        <path id="Trazado_7476" data-name="Trazado 7476" d="M102.05,76.69l44.828,25.891,56.04,7.459L158.09,84.14Z" transform="translate(-56.909 -76.69)" fill="#455a64"/>
        <path id="Trazado_7477" data-name="Trazado 7477" d="M102.05,76.69l44.828,25.891v2.161l-44.828-25.9Z" transform="translate(-56.909 -76.69)" fill="#263238"/>
        <path id="Trazado_7478" data-name="Trazado 7478" d="M154.85,176.737,203.421,148.7V114.186L154.85,107.72Z" transform="translate(-61.147 -79.181)" fill="#fafafa"/>
        <path id="Trazado_7479" data-name="Trazado 7479" d="M162.98,175.623V154.055l11.2-6.475v21.577Z" transform="translate(-61.8 -82.38)" fill="#37474f"/>
        <path id="Trazado_7480" data-name="Trazado 7480" d="M173.833,168.909v-21.1l-10.853,6.263v21.1Z" transform="translate(-61.8 -82.398)" fill="#455a64"/>
        <path id="Trazado_7481" data-name="Trazado 7481" d="M175.13,147.58l-.35.212v21.1l.35.267Z" transform="translate(-62.747 -82.38)" fill="#263238"/>
        <path id="Trazado_7482" data-name="Trazado 7482" d="M187.35,139.985l11.2-6.475v12.941l-11.2,6.475Z" transform="translate(-63.756 -81.251)" fill="#455a64"/>
        <path id="Trazado_7483" data-name="Trazado 7483" d="M197.955,146.141V133.89l-10.6,6.125v12.251Z" transform="translate(-63.756 -81.281)" fill="#e0e0e0"/>
        <path id="Trazado_7484" data-name="Trazado 7484" d="M198.552,147.55l-.6-.34-10.6,6.125v.69Z" transform="translate(-63.756 -82.35)" fill="#37474f"/>
        <path id="Trazado_7485" data-name="Trazado 7485" d="M193.718,136.84l-.6.35V150.13l.6-.34Z" transform="translate(-64.219 -81.518)" fill="#455a64"/>
        <path id="Trazado_7486" data-name="Trazado 7486" d="M193.068,137.22v12.941l-.6-.34V137.56Z" transform="translate(-64.167 -81.548)" fill="#37474f"/>
        <path id="Trazado_7487" data-name="Trazado 7487" d="M177.916,134.1V115.927L162.97,113.94v28.788Z" transform="translate(-61.799 -79.68)" fill="#e0e0e0"/>
        <path id="Trazado_7488" data-name="Trazado 7488" d="M177.916,134.1V115.927L162.97,113.94v28.788Z" transform="translate(-61.799 -79.68)" fill="#37474f"/>
        <path id="Trazado_7489" data-name="Trazado 7489" d="M177.235,115.835,162.97,113.94v28l14.265-8.241Z" transform="translate(-61.799 -79.68)" fill="#e0e0e0"/>
        <path id="Trazado_7490" data-name="Trazado 7490" d="M178.48,116l.681.092v18.174l-.681-.4Z" transform="translate(-63.044 -79.845)" fill="#455a64"/>
        <path id="Trazado_7491" data-name="Trazado 7491" d="M171.781,138.105V115.112l-.681-.092V138.5Z" transform="translate(-62.451 -79.766)" fill="#455a64"/>
        <path id="Trazado_7492" data-name="Trazado 7492" d="M171.04,115.012v23.481l-.69-.4V114.92Z" transform="translate(-62.391 -79.758)" fill="#37474f"/>
        <path id="Trazado_7493" data-name="Trazado 7493" d="M187.35,130.047V117.18l11.2,1.49v4.9Z" transform="translate(-63.756 -79.94)" fill="#455a64"/>
        <path id="Trazado_7494" data-name="Trazado 7494" d="M197.955,123.232V118.6l-10.6-1.416v12.177Z" transform="translate(-63.756 -79.94)" fill="#e0e0e0"/>
        <path id="Trazado_7495" data-name="Trazado 7495" d="M193.718,126.7l-.6-.34V117.95l.6.074Z" transform="translate(-64.219 -80.002)" fill="#37474f"/>
        <path id="Trazado_7496" data-name="Trazado 7496" d="M193.77,118.03V126.7l.543-.34v-8.25Z" transform="translate(-64.271 -80.008)" fill="#455a64"/>
        <path id="Trazado_7497" data-name="Trazado 7497" d="M198.552,124.1l-.6-.34-10.6,6.125v.69Z" transform="translate(-63.756 -80.468)" fill="#37474f"/>
        <path id="Trazado_7498" data-name="Trazado 7498" d="M109.429,187.111,77.67,168.781V142.89l31.759,18.34Z" transform="translate(-54.952 -82.003)" fill="#f0f0f0"/>
        <path id="Trazado_7499" data-name="Trazado 7499" d="M109.429,161.23V167.7L77.67,149.365V142.89Z" transform="translate(-54.952 -82.003)" fill="#e0e0e0"/>
        <path id="Trazado_7500" data-name="Trazado 7500" d="M90.7,160.738,81.73,155.56v7.772L90.7,168.5Z" transform="translate(-55.278 -83.02)" fill="#455a64"/>
        <path id="Trazado_7501" data-name="Trazado 7501" d="M82.39,163.013V155.94l8.36,4.829v7.073Z" transform="translate(-55.331 -83.051)" fill="#fafafa"/>
        <path id="Trazado_7502" data-name="Trazado 7502" d="M82.39,155.97v2.171l8.36,4.829v-2.161Z" transform="translate(-55.331 -83.053)" fill="#e0e0e0"/>
        <path id="Trazado_7503" data-name="Trazado 7503" d="M81.73,163.979l.607-.349,8.36,4.829v.69Z" transform="translate(-55.278 -83.668)" fill="#37474f"/>
        <path id="Trazado_7504" data-name="Trazado 7504" d="M107.967,170.708,99,165.53v7.763l8.967,5.178Z" transform="translate(-56.664 -83.821)" fill="#455a64"/>
        <path id="Trazado_7505" data-name="Trazado 7505" d="M99.65,172.974V165.91l8.37,4.829v7.073Z" transform="translate(-56.717 -83.851)" fill="#fafafa"/>
        <path id="Trazado_7506" data-name="Trazado 7506" d="M99.65,165.91v2.161l8.37,4.829v-2.161Z" transform="translate(-56.717 -83.851)" fill="#e0e0e0"/>
        <path id="Trazado_7507" data-name="Trazado 7507" d="M99,173.94l.6-.35,8.37,4.838v.69Z" transform="translate(-56.664 -84.467)" fill="#37474f"/>
        <path id="Trazado_7508" data-name="Trazado 7508" d="M112.2,186.264l26.148-15.1V132.34L112.2,160.383Z" transform="translate(-57.724 -81.157)" fill="#fafafa"/>
        <path id="Trazado_7509" data-name="Trazado 7509" d="M116.26,186.371v-15.1l18.68-10.789v15.1Z" transform="translate(-58.05 -83.415)" fill="#455a64"/>
        <path id="Trazado_7510" data-name="Trazado 7510" d="M136.54,160.48l-.35.2v14.7l.35.193Z" transform="translate(-59.649 -83.415)" fill="#263238"/>
        <path id="Trazado_7511" data-name="Trazado 7511" d="M134.581,176.68,116.26,187.266v.4l18.68-10.789Z" transform="translate(-58.05 -84.715)" fill="#37474f"/>
        <path id="Trazado_7512" data-name="Trazado 7512" d="M111.39,164.17l28.76-30.848V131.17l-28.76,30.839Z" transform="translate(-57.659 -81.063)" fill="#37474f"/>
        <path id="Trazado_7513" data-name="Trazado 7513" d="M108.456,165.168,74.83,145.752V143.6l33.626,19.406Z" transform="translate(-54.724 -82.06)" fill="#263238"/>
        <path id="Trazado_7514" data-name="Trazado 7514" d="M103.6,110.06l33.616,19.416-28.76,30.839L74.83,140.908Z" transform="translate(-54.724 -79.368)" fill="#455a64"/>
        <path id="Trazado_7515" data-name="Trazado 7515" d="M174.182,171.04,196.6,183.981l-11.2,6.466L162.98,177.506Z" transform="translate(-61.8 -84.263)" fill="#f0f0f0"/>
        <g id="freepik--plants--inject-43-7" data-name="freepik--plants--inject-43" transform="translate(0 44.929)">
          <rect id="Rectángulo_4716" data-name="Rectángulo 4716" width="6.263" height="0.515" transform="translate(161.616 21.778) rotate(-63.09)" fill="#455a64"/>
          <rect id="Rectángulo_4717" data-name="Rectángulo 4717" width="0.515" height="5.252" transform="matrix(0.85, -0.526, 0.526, 0.85, 158.748, 16.016)" fill="#455a64"/>
          <path id="Trazado_7516" data-name="Trazado 7516" d="M229.335,142.1v13.465c0,.064,0,.12-.129.175a.7.7,0,0,1-.607,0,.212.212,0,0,1-.12-.175V142.1Z" transform="translate(-67.057 -126.869)" fill="#455a64"/>
          <path id="Trazado_7517" data-name="Trazado 7517" d="M239.378,136.994a6.245,6.245,0,1,1-1.826-4.422A6.254,6.254,0,0,1,239.378,136.994Z" transform="translate(-66.928 -125.957)" fill="#2d1674"/>
          <path id="Trazado_7518" data-name="Trazado 7518" d="M235.093,135.394c.8-2.538,1.665-3.532,1.113-3.835a6.107,6.107,0,0,0-3.072-.819,6.254,6.254,0,1,0,4.819,10.237C236.1,141.519,234.044,138.687,235.093,135.394Z" transform="translate(-66.928 -125.957)" opacity="0.2"/>
          <path id="Trazado_7519" data-name="Trazado 7519" d="M226.973,139.086a4.4,4.4,0,1,1-4.387-4.4A4.4,4.4,0,0,1,226.973,139.086Z" transform="translate(-66.23 -126.274)" fill="#2d1674"/>
          <path id="Trazado_7520" data-name="Trazado 7520" d="M222.668,134.69a4.369,4.369,0,0,0-2.575.828c-.12,2.686,2.161,5.3,1.527,6.181s-2.207.34-2.759-.4a4.387,4.387,0,1,0,3.8-6.6Z" transform="translate(-66.285 -126.274)" opacity="0.2"/>
          <circle id="Elipse_310" data-name="Elipse 310" cx="8.066" cy="8.066" r="8.066" transform="translate(153.78)" fill="#2d1674"/>
          <path id="Trazado_7521" data-name="Trazado 7521" d="M236.083,135.546a8.057,8.057,0,1,1-11.809-8.866,8.278,8.278,0,0,0-1.839,1.481,8.057,8.057,0,0,0,13.695,7.358Z" transform="translate(-66.391 -125.632)" opacity="0.1"/>
          <rect id="Rectángulo_4718" data-name="Rectángulo 4718" width="6.263" height="0.515" transform="translate(9.672 34.543) rotate(-63.09)" fill="#455a64"/>
          <rect id="Rectángulo_4719" data-name="Rectángulo 4719" width="0.515" height="5.252" transform="matrix(0.85, -0.526, 0.526, 0.85, 6.812, 28.783)" fill="#455a64"/>
          <path id="Trazado_7522" data-name="Trazado 7522" d="M64.125,156v13.456a.212.212,0,0,1-.129.175.644.644,0,0,1-.607,0,.2.2,0,0,1-.12-.175V156Z" transform="translate(-53.797 -127.985)" fill="#455a64"/>
          <path id="Trazado_7523" data-name="Trazado 7523" d="M74.168,150.874a6.254,6.254,0,1,1-6.245-6.254A6.254,6.254,0,0,1,74.168,150.874Z" transform="translate(-53.667 -127.071)" fill="#2d1674"/>
          <path id="Trazado_7524" data-name="Trazado 7524" d="M69.883,149.274c.8-2.538,1.665-3.532,1.113-3.844a6.254,6.254,0,1,0,1.747,9.427C70.895,155.39,68.834,152.567,69.883,149.274Z" transform="translate(-53.668 -127.071)" opacity="0.2"/>
          <path id="Trazado_7525" data-name="Trazado 7525" d="M61.763,152.957a4.4,4.4,0,1,1-4.387-4.387,4.4,4.4,0,0,1,4.387,4.387Z" transform="translate(-52.97 -127.388)" fill="#2d1674"/>
          <path id="Trazado_7526" data-name="Trazado 7526" d="M57.428,148.57a4.369,4.369,0,0,0-2.575.828c-.12,2.686,2.161,5.3,1.527,6.181s-2.207.34-2.759-.4a4.387,4.387,0,1,0,3.8-6.6Z" transform="translate(-53.022 -127.388)" opacity="0.2"/>
          <circle id="Elipse_311" data-name="Elipse 311" cx="8.066" cy="8.066" r="8.066" transform="translate(1.83 12.766)" fill="#2d1674"/>
          <path id="Trazado_7527" data-name="Trazado 7527" d="M70.872,149.417a8.057,8.057,0,1,1-11.809-8.857,7.983,7.983,0,0,0-1.885,1.481A8.048,8.048,0,0,0,70.872,149.4Z" transform="translate(-53.131 -126.746)" opacity="0.1"/>
          <g id="freepik--plants--inject-43-8" data-name="freepik--plants--inject-43" transform="translate(93.988 40.038)">
            <path id="Trazado_7528" data-name="Trazado 7528" d="M160.816,179.932l1.14-.653a19.48,19.48,0,0,0,.138-5.61c-.57-3.679-3.054-4.9-3.955-4.534s-1.113,1.444.515,3.541A12.159,12.159,0,0,1,160.816,179.932Z" transform="translate(-155.343 -169.072)" fill="#2d1674"/>
            <g id="Grupo_2799" data-name="Grupo 2799" transform="translate(2.102)" opacity="0.2">
              <path id="Trazado_7529" data-name="Trazado 7529" d="M160.816,179.932l1.14-.653a19.48,19.48,0,0,0,.138-5.61c-.57-3.679-3.054-4.9-3.955-4.534s-1.113,1.444.515,3.541A12.159,12.159,0,0,1,160.816,179.932Z" transform="translate(-157.445 -169.072)"/>
            </g>
            <path id="Trazado_7530" data-name="Trazado 7530" d="M161.339,178.524h0a.074.074,0,0,1-.064-.092c.469-3.412-.92-7.146-2.446-8.655a.083.083,0,0,1,0-.11.064.064,0,0,1,.11,0c1.573,1.527,2.971,5.325,2.492,8.793a.083.083,0,0,1-.092.064Z" transform="translate(-155.453 -169.117)" fill="#fff"/>
            <path id="Trazado_7531" data-name="Trazado 7531" d="M157.469,182.031c-.175.11-.552-.12-.69-.212a1.655,1.655,0,0,1-.57-.662,1.582,1.582,0,0,1-.147-.92,4.667,4.667,0,0,1,.12-.515c.055-.166.1-.331.147-.5a1.38,1.38,0,0,0,.074-.506,1.352,1.352,0,0,0-.625-.791,1.251,1.251,0,0,1-.616-.92,1.453,1.453,0,0,1,.359-.865c.2-.248.432-.469.607-.727a1.039,1.039,0,0,0,.212-.644,1.2,1.2,0,0,0-.138-.4,5.676,5.676,0,0,1-.441-.8.819.819,0,0,1,.138-.855.92.92,0,0,1,.708-.175,1.729,1.729,0,0,1,.662.23c.653.368,1.021,1.14,1.72,1.416a6.516,6.516,0,0,0,.837.2,1.039,1.039,0,0,1,.69.478c.258.506-.221,1.131,0,1.674s.616.662.92,1.085a1.049,1.049,0,0,1,.12.625,2.759,2.759,0,0,1-.267,1.058,7.772,7.772,0,0,1-.579.92Z" transform="translate(-155.16 -169.35)" fill="#2d1674"/>
            <g id="Grupo_2800" data-name="Grupo 2800" transform="translate(0 3.186)" opacity="0.1">
              <path id="Trazado_7532" data-name="Trazado 7532" d="M157.469,182.031c-.175.11-.552-.12-.69-.212a1.655,1.655,0,0,1-.57-.662,1.582,1.582,0,0,1-.147-.92,4.667,4.667,0,0,1,.12-.515c.055-.166.1-.331.147-.5a1.38,1.38,0,0,0,.074-.506,1.352,1.352,0,0,0-.625-.791,1.251,1.251,0,0,1-.616-.92,1.453,1.453,0,0,1,.359-.865c.2-.248.432-.469.607-.727a1.039,1.039,0,0,0,.212-.644,1.2,1.2,0,0,0-.138-.4,5.676,5.676,0,0,1-.441-.8.819.819,0,0,1,.138-.855.92.92,0,0,1,.708-.175,1.729,1.729,0,0,1,.662.23c.653.368,1.021,1.14,1.72,1.416a6.516,6.516,0,0,0,.837.2,1.039,1.039,0,0,1,.69.478c.258.506-.221,1.131,0,1.674s.616.662.92,1.085a1.049,1.049,0,0,1,.12.625,2.759,2.759,0,0,1-.267,1.058,7.772,7.772,0,0,1-.579.92Z" transform="translate(-155.16 -172.536)"/>
            </g>
            <path id="Trazado_7533" data-name="Trazado 7533" d="M159.463,181.086h0a.074.074,0,0,1-.074-.083c.129-3.228-1.389-6.8-2.492-7.827a.083.083,0,1,1,.11-.12c1.131,1.058,2.676,4.681,2.538,7.956A.083.083,0,0,1,159.463,181.086Z" transform="translate(-155.296 -169.389)" fill="#fff"/>
            <path id="Trazado_7534" data-name="Trazado 7534" d="M158.949,177.593h0a10.714,10.714,0,0,0-2.336-.377.083.083,0,0,1,0-.166,10.826,10.826,0,0,1,2.391.386.083.083,0,1,1-.055.156Z" transform="translate(-155.27 -169.712)" fill="#fff"/>
          </g>
        </g>
      </g>
      <g id="freepik--Clouds--inject-43" transform="translate(221.415 50.038)">
        <path id="Trazado_7535" data-name="Trazado 7535" d="M275.966,53.526,269.574,57.2a6.643,6.643,0,0,0,.055-.846V54.519c0-3.293-2.318-4.6-5.169-2.98a10.117,10.117,0,0,0-3.081,2.962c-.469-4.148-3.679-5.684-7.671-3.412a17.131,17.131,0,0,0-7.735,13.4v2.759a7.22,7.22,0,0,0,.662,3.21l-5.316,3.063a6.365,6.365,0,0,0-2.87,4.967c0,1.839,1.288,2.575,2.87,1.656L275.966,60.12a6.337,6.337,0,0,0,2.87-4.967C278.836,53.36,277.585,52.615,275.966,53.526Z" transform="translate(-238.45 -50.038)" fill="#ebebeb"/>
        <path id="Trazado_7536" data-name="Trazado 7536" d="M306.527,73.86l-4.819,2.759V74.605c0-2.483-1.747-3.5-3.9-2.244A7.441,7.441,0,0,0,295.49,74.6c-.349-3.127-2.759-4.3-5.785-2.575a12.876,12.876,0,0,0-5.84,10.117v2.088a5.592,5.592,0,0,0,.5,2.428l-4.01,2.309a4.792,4.792,0,0,0-2.161,3.753c0,1.38.966,1.941,2.161,1.251l26.176-15.111a4.783,4.783,0,0,0,2.171-3.743C308.689,73.777,307.714,73.17,306.527,73.86Z" transform="translate(-241.64 -51.738)" fill="#ebebeb"/>
        <path id="Trazado_7537" data-name="Trazado 7537" d="M439.1,260.268l-4.819,2.759v-2.033c0-2.492-1.747-3.495-3.9-2.253a7.652,7.652,0,0,0-2.327,2.235c-.35-3.127-2.805-4.3-5.785-2.575a12.876,12.876,0,0,0-5.84,10.117v2.088a5.519,5.519,0,0,0,.5,2.419l-4.01,2.318a4.773,4.773,0,0,0-2.161,3.743c0,1.38.92,1.941,2.161,1.251l26.148-15.093a4.8,4.8,0,0,0,2.171-3.753C441.267,260.13,440.292,259.569,439.1,260.268Z" transform="translate(-252.279 -66.698)" fill="#ebebeb"/>
      </g>
    </g>
  </g>
</svg>
