<svg xmlns="http://www.w3.org/2000/svg" width="533" height="420" viewBox="0 0 533 420">
  <g id="Grupo_2811" data-name="Grupo 2811" transform="translate(5621 -3184)">
    <rect id="Rectángulo_4749" data-name="Rectángulo 4749" width="533" height="420" transform="translate(-5621 3184)" fill="none"/>
    <g id="Realtor-rafiki_1_" data-name="Realtor-rafiki (1)" transform="translate(-5604.5 3152.72)">
      <g id="freepik--background-complete--inject-88">
        <rect id="Rectángulo_4750" data-name="Rectángulo 4750" width="500" height="0.25" transform="translate(0 382.4)" fill="#ebebeb"/>
        <rect id="Rectángulo_4751" data-name="Rectángulo 4751" width="33.12" height="0.25" transform="translate(416.78 398.49)" fill="#ebebeb"/>
        <rect id="Rectángulo_4752" data-name="Rectángulo 4752" width="8.69" height="0.25" transform="translate(322.53 401.21)" fill="#ebebeb"/>
        <rect id="Rectángulo_4753" data-name="Rectángulo 4753" width="19.19" height="0.25" transform="translate(396.59 389.21)" fill="#ebebeb"/>
        <rect id="Rectángulo_4754" data-name="Rectángulo 4754" width="43.19" height="0.25" transform="translate(52.46 390.89)" fill="#ebebeb"/>
        <rect id="Rectángulo_4755" data-name="Rectángulo 4755" width="6.33" height="0.25" transform="translate(104.56 390.89)" fill="#ebebeb"/>
        <rect id="Rectángulo_4756" data-name="Rectángulo 4756" width="93.68" height="0.25" transform="translate(131.47 395.11)" fill="#ebebeb"/>
        <path id="Trazado_7757" data-name="Trazado 7757" d="M237,337.8H43.91a5.71,5.71,0,0,1-5.7-5.71V60.66A5.71,5.71,0,0,1,43.91,55H237a5.71,5.71,0,0,1,5.71,5.71V332.09A5.71,5.71,0,0,1,237,337.8ZM43.91,55.2a5.46,5.46,0,0,0-5.45,5.46V332.09a5.46,5.46,0,0,0,5.45,5.46H237a5.47,5.47,0,0,0,5.46-5.46V60.66A5.47,5.47,0,0,0,237,55.2Z" fill="#ebebeb"/>
        <path id="Trazado_7758" data-name="Trazado 7758" d="M453.31,337.8H260.21a5.72,5.72,0,0,1-5.71-5.71V60.66A5.72,5.72,0,0,1,260.21,55h193.1A5.71,5.71,0,0,1,459,60.66V332.09A5.71,5.71,0,0,1,453.31,337.8ZM260.21,55.2a5.47,5.47,0,0,0-5.46,5.46V332.09a5.47,5.47,0,0,0,5.46,5.46h193.1a5.47,5.47,0,0,0,5.46-5.46V60.66a5.47,5.47,0,0,0-5.46-5.46Z" fill="#ebebeb"/>
        <ellipse id="Elipse_312" data-name="Elipse 312" cx="55.19" cy="42.44" rx="55.19" ry="42.44" transform="translate(333.51 232)" fill="#ebebeb"/>
        <ellipse id="Elipse_313" data-name="Elipse 313" cx="43.63" cy="33.56" rx="43.63" ry="33.56" transform="translate(333.52 196.37)" fill="#ebebeb"/>
        <path id="Trazado_7759" data-name="Trazado 7759" d="M380.49,83.09s7.21-6.23-2.15-7.72c-17-2.71-32.37,5.76-34.32,6.89,2-3.93.58-7-9.67-5.89C326.28,77.22,304.61,88,304.61,88H410.53C425.16,74.85,380.49,83.09,380.49,83.09Z" fill="#f0f0f0"/>
        <path id="Trazado_7760" data-name="Trazado 7760" d="M95.27,130.67s5.94-4.62.88-5.72c-9.17-2-20.51,4.27-22,5.1,2.27-2.91,2.25-5.15-4-4.36-5,.63-20.6,8.61-20.6,8.61h61.92C123.66,124.56,95.27,130.67,95.27,130.67Z" fill="#f0f0f0"/>
        <path id="Trazado_7761" data-name="Trazado 7761" d="M424.37,121.44s4.22-3.28.63-4.07c-6.52-1.42-14.58,3-15.61,3.63,1.62-2.07,1.6-3.66-2.86-3.1-3.52.45-14.64,6.12-14.64,6.12h44C444.54,117.1,424.37,121.44,424.37,121.44Z" fill="#f5f5f5"/>
        <ellipse id="Elipse_314" data-name="Elipse 314" cx="29.58" cy="22.75" rx="29.58" ry="22.75" transform="translate(81.31 313.45)" fill="#ebebeb"/>
        <path id="Trazado_7762" data-name="Trazado 7762" d="M92.43,341.29c-21.56,0-39,18.4-39,41.11H131.5C131.47,359.69,114,341.29,92.43,341.29Z" fill="#ebebeb"/>
        <rect id="Rectángulo_4757" data-name="Rectángulo 4757" width="173.36" height="212.29" transform="translate(112.24 170.11)" fill="#f0f0f0"/>
        <rect id="Rectángulo_4758" data-name="Rectángulo 4758" width="102.17" height="212.29" transform="translate(387.76 382.4) rotate(180)" fill="#e6e6e6"/>
        <rect id="Rectángulo_4759" data-name="Rectángulo 4759" width="38.59" height="73.7" transform="translate(355.98 264.25) rotate(180)" fill="#f5f5f5"/>
        <rect id="Rectángulo_4760" data-name="Rectángulo 4760" width="38.59" height="44.44" transform="translate(251.44 225.44) rotate(180)" fill="#f5f5f5"/>
        <rect id="Rectángulo_4761" data-name="Rectángulo 4761" width="38.59" height="44.44" transform="translate(184.99 225.44) rotate(180)" fill="#f5f5f5"/>
        <rect id="Rectángulo_4762" data-name="Rectángulo 4762" width="38.59" height="8.22" transform="translate(251.44 241.89) rotate(180)" fill="#f5f5f5"/>
        <rect id="Rectángulo_4763" data-name="Rectángulo 4763" width="38.59" height="8.22" transform="translate(184.99 241.89) rotate(180)" fill="#f5f5f5"/>
        <rect id="Rectángulo_4764" data-name="Rectángulo 4764" width="102.17" height="92.4" transform="translate(387.76 382.4) rotate(180)" fill="#f5f5f5"/>
        <rect id="Rectángulo_4765" data-name="Rectángulo 4765" width="32.27" height="45.07" transform="translate(372.12 349.48) rotate(180)" fill="#e6e6e6"/>
        <rect id="Rectángulo_4766" data-name="Rectángulo 4766" width="32.27" height="45.07" transform="translate(333.52 349.48) rotate(180)" fill="#e6e6e6"/>
        <rect id="Rectángulo_4767" data-name="Rectángulo 4767" width="173.36" height="92.4" transform="translate(112.24 290)" fill="#fafafa"/>
        <rect id="Rectángulo_4768" data-name="Rectángulo 4768" width="37.85" height="75.2" transform="translate(140.46 302)" fill="#e6e6e6"/>
        <path id="Trazado_7763" data-name="Trazado 7763" d="M301.08,104H198.92l86.68,66.11H387.76Z" fill="#f0f0f0"/>
        <rect id="Rectángulo_4769" data-name="Rectángulo 4769" width="28.44" height="58.44" transform="translate(151.47 96.11)" fill="#ebebeb"/>
        <path id="Trazado_7764" data-name="Trazado 7764" d="M198.92,104l-86.68,66.11H285.6Z" fill="#fafafa"/>
        <path id="Trazado_7765" data-name="Trazado 7765" d="M198.92,116.72l-70,53.39h140Z" fill="#f0f0f0"/>
        <path id="Trazado_7766" data-name="Trazado 7766" d="M238.22,253.78H120.89L94.56,280.11V290h170v-9.89Z" fill="#e6e6e6"/>
        <rect id="Rectángulo_4770" data-name="Rectángulo 4770" width="293.21" height="10.4" transform="translate(94.56 372)" fill="#e6e6e6"/>
        <rect id="Rectángulo_4771" data-name="Rectángulo 4771" width="116.82" height="35.8" transform="translate(168.78 336.2)" fill="#f0f0f0"/>
        <rect id="Rectángulo_4772" data-name="Rectángulo 4772" width="6.89" height="82" transform="translate(232.11 290)" fill="#e6e6e6"/>
        <rect id="Rectángulo_4773" data-name="Rectángulo 4773" width="6.89" height="82" transform="translate(99.89 290)" fill="#e6e6e6"/>
      </g>
      <g id="freepik--Shadow--inject-88">
        <ellipse id="freepik--path--inject-88" cx="193.89" cy="11.32" rx="193.89" ry="11.32" transform="translate(56.11 404.92)" fill="#f5f5f5"/>
      </g>
      <g id="freepik--Character--inject-88" transform="translate(35)">
        <path id="Trazado_7767" data-name="Trazado 7767" d="M219.74,150.76l-1.51,2c-.49.63-1,1.24-1.51,1.85-1,1.22-2.06,2.4-3.12,3.58-2.14,2.33-4.36,4.62-6.79,6.8a68.79,68.79,0,0,1-7.89,6.31,43.388,43.388,0,0,1-4.78,2.84A26.92,26.92,0,0,1,188,176.4l-.43.09a6.37,6.37,0,0,1-1.13.15,13.26,13.26,0,0,1-6-1.24,16.749,16.749,0,0,1-3.58-2.23,30.52,30.52,0,0,1-4.51-4.54,62.669,62.669,0,0,1-6-9c-1.66-3-3.13-6.06-4.46-9.15a97.631,97.631,0,0,1-3.56-9.44,4.57,4.57,0,0,1,8-4.1l.09.12c1.85,2.49,3.72,5.1,5.6,7.59s3.76,5,5.7,7.31a63.422,63.422,0,0,0,5.81,6.31,14.11,14.11,0,0,0,2.61,2c.34.18.6.25.58.2s-.4-.3-1.31-.28l-1.56.24a16,16,0,0,0,2-1.17c.84-.58,1.78-1.25,2.71-2s1.89-1.63,2.83-2.53,1.91-1.82,2.86-2.78c1.88-2,3.77-4,5.61-6.07l2.75-3.16,2.64-3.1.25-.29a9.12,9.12,0,0,1,14.19,11.45Z" fill="#263238"/>
        <path id="Trazado_7768" data-name="Trazado 7768" d="M166.12,135c-.57-4.5-8.74-6.58-8.74-6.58l-4.77-2.11a3.6,3.6,0,0,0-4.48,1.32l-2.43,3.72a3.62,3.62,0,0,0,1.1,5l4.38,2.74a6.55,6.55,0,0,0,2.58.92l3.72.48a8.32,8.32,0,0,0,8.07-3.76l.23-.35a2.17,2.17,0,0,0,.34-1.38Z" fill="#ffb573"/>
        <path id="Trazado_7769" data-name="Trazado 7769" d="M221.83,312.59c13-41.27,23.09-91.49,23.09-91.49l-39.15-3.85s-2.57,64.62-5,93.24c-2.54,29.75-12.47,98.86-12.47,98.86l11.9,1S220.63,349.54,221.83,312.59Z" fill="#263238"/>
        <path id="Trazado_7770" data-name="Trazado 7770" d="M229.65,254.82l5.44,9.71c-2.78,11.33-6,23.79-9.59,36C226,281.37,228,259.27,229.65,254.82Z"/>
        <path id="Trazado_7771" data-name="Trazado 7771" d="M172.35,412.1s16.83-1.38,18.44-3.77l9.05,1.37-1.49,9.54-5.58-.84-.72-1-1.55.67c-4.5-.69-16.5-2.67-19.16-4.07A2.14,2.14,0,0,1,172.35,412.1Z" fill="#263238"/>
        <path id="Trazado_7772" data-name="Trazado 7772" d="M259.88,309.84c-.69-42.43,2-70.79-1.61-91.7l-35.77-.54s8.79,67.32,13.16,95.35,9.93,97.25,9.93,97.25h11.06S266.27,342.67,259.88,309.84Z" fill="#263238"/>
        <path id="Trazado_7773" data-name="Trazado 7773" d="M234.75,416.05s10.61-3.87,12-6.47h9.16l-.69,9.66h-7.48l-.81-.89-1.48.89c-4.57,0-8.76-.18-11.56-1.21a2.27,2.27,0,0,1,.86-1.98Z" fill="#263238"/>
        <path id="Trazado_7774" data-name="Trazado 7774" d="M256.68,133.47c-12.65-1.57-30.73-1.42-42.85.67a14.66,14.66,0,0,0-11.9,12.34c-2.55,18.3-.36,50.29,1.27,82.49,27.68,9.47,56.89-.13,56.89-.13,1-6.5-1.26-27.78-2.79-39.14,2.29-11.73,7.13-25.17,10.33-40.75a12.76,12.76,0,0,0-10.95-15.48Z" fill="#263238"/>
        <path id="Trazado_7775" data-name="Trazado 7775" d="M224.06,132.91c-1.52,1.53-2.53,3.94-3.07,7-1.3,7.43.17,18.88,4.09,32,3.75-10.58,11.82-24.58,16.78-32.71,2.35-3.85,4-6.4,4.14-6.62h0a45.72,45.72,0,0,0-21.94.33Z" fill="#e0e0e0"/>
        <path id="Trazado_7776" data-name="Trazado 7776" d="M244.16,109.3l-14.41,11.82c1.87,4.95,2.46,10.11-5.68,12.1-2,2.69,1.56,5.77,4.92,7.17,5.43-.67,13.09-2.48,16.4-7C244.34,129.79,242.76,116.63,244.16,109.3Z" fill="#ffb573"/>
        <path id="Trazado_7777" data-name="Trazado 7777" d="M225.55,137.41a10.94,10.94,0,0,0,3,4.5c2.2,0,5.41-2.47,5.41-2.47s-1.24-3.49-3-4.2C226.51,136.34,225.55,137.41,225.55,137.41Z" fill="#2d1674"/>
        <path id="Trazado_7778" data-name="Trazado 7778" d="M230.57,140.4a3.16,3.16,0,0,0-2.43-.62c-2.88,4.09-4.71,10.45-6.49,17.79A123.837,123.837,0,0,0,225.08,172a113.147,113.147,0,0,1,5.6-12.73A75.861,75.861,0,0,1,230.57,140.4Z" fill="#2d1674"/>
        <path id="Trazado_7779" data-name="Trazado 7779" d="M238.15,114.23l-8.39,6.88a18.809,18.809,0,0,1,1,3.55c3.25.23,7.77-3.06,8-6A12.22,12.22,0,0,0,238.15,114.23Z" opacity="0.2"/>
        <path id="Trazado_7780" data-name="Trazado 7780" d="M223.81,88.62c-6.28,6.19-2.16,16.09-2.16,16.09S232.63,85.12,223.81,88.62Z" fill="#263238"/>
        <path id="Trazado_7781" data-name="Trazado 7781" d="M246.22,101.25c-1.31,9-1.62,14.39-6.6,18.63-7.49,6.38-18.36,1.19-19.78-8.08-1.27-8.35,1.09-21.72,10.29-24.52a12.58,12.58,0,0,1,16.09,13.97Z" fill="#ffb573"/>
        <path id="Trazado_7782" data-name="Trazado 7782" d="M247.23,105.88c-6.77,1.39-8.73-3.85-8.73-3.85a10.22,10.22,0,0,0,4.16,0s-4.56-4.66-1-9.17c-1.86-2-10.14-1.14-14,0-4.22-1.59-6.39-2.33-8.64-7.34a10.68,10.68,0,0,0,6.15-.76c4.2-1.93-2.1-3.35-2.1-3.35a30.29,30.29,0,0,1,15.2-1.79c9.8,1.38,11.32,4.29,10.94,7.59,5.13-.06,5.64,5.65,5.64,5.65a5,5,0,0,0-2.14-1C253,93.6,254,103.81,247.23,105.88Z" fill="#263238"/>
        <path id="Trazado_7783" data-name="Trazado 7783" d="M247.82,87.88c1.88-.85,2.45-5.34,1.34-7.22C254.19,86,250.56,88.18,247.82,87.88Z" fill="#263238"/>
        <path id="Trazado_7784" data-name="Trazado 7784" d="M249.28,108.26a7.85,7.85,0,0,1-4.38,4.16c-2.61,1-4.17-1.3-3.66-3.88.46-2.33,2.37-5.63,5.09-5.49a3.58,3.58,0,0,1,2.95,5.21Z" fill="#ffb573"/>
        <path id="Trazado_7785" data-name="Trazado 7785" d="M233.54,101.58c-.06.74-.51,1.3-1,1.26s-.83-.68-.76-1.42.5-1.31,1-1.26S233.6,100.84,233.54,101.58Z" fill="#263238"/>
        <path id="Trazado_7786" data-name="Trazado 7786" d="M224.69,101.36c-.06.74-.5,1.31-1,1.26s-.82-.68-.76-1.42.5-1.3,1-1.26S224.75,100.62,224.69,101.36Z" fill="#263238"/>
        <path id="Trazado_7787" data-name="Trazado 7787" d="M226.48,102.36s-2,4.11-4.06,6c1.21,1.34,3.48,1,3.48,1Z" fill="#ed893e"/>
        <path id="Trazado_7788" data-name="Trazado 7788" d="M235.69,99.36a.53.53,0,0,0,.22,0,.43.43,0,0,0,.24-.57,4.4,4.4,0,0,0-3-2.7.438.438,0,0,0-.17.86h0a3.46,3.46,0,0,1,2.32,2.16A.43.43,0,0,0,235.69,99.36Z" fill="#263238"/>
        <path id="Trazado_7789" data-name="Trazado 7789" d="M220.57,98.54a.44.44,0,0,0,.41-.06,3.43,3.43,0,0,1,3.08-.61.43.43,0,0,0,.56-.26.44.44,0,0,0-.26-.56,4.29,4.29,0,0,0-3.9.73.44.44,0,0,0,.11.76Z" fill="#263238"/>
        <path id="Trazado_7790" data-name="Trazado 7790" d="M246,132.61h0c-.15.22-1.79,2.77-4.14,6.62a18.25,18.25,0,0,1-8.4,4.41c.46-1.55-.93-6.8-2.47-8.42C234.62,135.43,239.62,134.81,246,132.61Z" fill="#fafafa"/>
        <path id="Trazado_7791" data-name="Trazado 7791" d="M231,135.24a13.45,13.45,0,0,0-7.23,7.7,5,5,0,0,1-2.74-3c.54-3.09,1.55-5.5,3.07-7C224.91,134,227.2,135,231,135.24Z" fill="#fafafa"/>
        <path id="Trazado_7792" data-name="Trazado 7792" d="M267.66,142.31c.74,1.61,1.36,3,2,4.57s1.2,3,1.78,4.56c1.12,3.06,2.17,6.16,3.09,9.36a95.47,95.47,0,0,1,2.38,9.9c.32,1.72.59,3.5.77,5.38a38.115,38.115,0,0,1,.07,6.19,30.38,30.38,0,0,1-3.79,11.8,55.568,55.568,0,0,1-6,8.8,81.786,81.786,0,0,1-6.89,7.35,75.07,75.07,0,0,1-7.7,6.37,4.57,4.57,0,0,1-6.44-6.28l.15-.21,2.51-3.69c.85-1.24,1.66-2.51,2.47-3.77,1.59-2.51,3.14-5,4.47-7.56a53.915,53.915,0,0,0,3.41-7.43,25,25,0,0,0,1-3.44,10.21,10.21,0,0,0,.25-2.73,22.335,22.335,0,0,0-.45-3.17c-.24-1.22-.53-2.52-.89-3.85-.74-2.66-1.62-5.42-2.58-8.19s-2-5.56-3.07-8.35l-3.24-8.29-.08-.19a9.13,9.13,0,0,1,16.8-7.13Z" fill="#263238"/>
        <path id="Trazado_7793" data-name="Trazado 7793" d="M214.05,189.43a20.39,20.39,0,0,0,21.9,34.2l2.5,3.2-.46,2,5.31,6.83,2.9.06-.79,3.37,10.42,13.4,5.6.1,1.88,2.43-.93,4,6.91,8.88,5.86.11,1-6.29-33.69-43.31h0a20.39,20.39,0,0,0-28.37-28.93Zm8.62,11.08a5.19,5.19,0,1,1,.9-7.28,5.19,5.19,0,0,1-.9,7.28Z" fill="#d0dc64"/>
        <path id="Trazado_7794" data-name="Trazado 7794" d="M254.62,214.62a2.08,2.08,0,0,0-.85-1.18L250.24,211a2.2,2.2,0,0,0-2.33-.11l-3.17,1.81a24.68,24.68,0,0,0-7.83,7l-.69,1a3.61,3.61,0,0,0,.89,5.08l3.66,2.52a3.61,3.61,0,0,0,4.65-.48L249,224S255.8,219,254.62,214.62Z" fill="#ffb573"/>
        <path id="Trazado_7795" data-name="Trazado 7795" d="M248.11,209a16.78,16.78,0,0,0-4.32,2.66c.46,2.81,8.29,7.49,10.93,7.55,1.07-1,2.48-5.11,2.48-5.11C254.24,212.82,250.25,210,248.11,209Z" fill="#e0e0e0"/>
        <path id="Trazado_7796" data-name="Trazado 7796" d="M168,139a16.669,16.669,0,0,0-.66-5c-2.75-.74-10.22,4.5-11.35,6.9.49,1.39,3.64,4.34,3.64,4.34C162,143,166.2,140.5,168,139Z" fill="#e0e0e0"/>
        <path id="Trazado_7797" data-name="Trazado 7797" d="M244.94,410.51l12.28.35,1.28-6.98-14.37.86Z" fill="#2d1674"/>
        <path id="Trazado_7798" data-name="Trazado 7798" d="M187.72,409.26l13.13,2.03,2.22-5.8-14.55-3.29Z" fill="#2d1674"/>
        <path id="Trazado_7799" data-name="Trazado 7799" d="M229.32,112a7.721,7.721,0,0,1-1.42-.07.23.23,0,0,1-.19-.28.28.28,0,0,1,.3-.22,7.09,7.09,0,0,0,5.9-1.85.26.26,0,0,1,.36,0,.25.25,0,0,1,0,.35A7.47,7.47,0,0,1,229.32,112Z" fill="#263238"/>
      </g>
      <g id="freepik--House--inject-88" transform="translate(35)">
        <path id="Trazado_7800" data-name="Trazado 7800" d="M194.91,75.45l-30.25-2.43L138.97,60.27l-28.16,8.42-4.06,50.55,84.1,6.76Z" fill="#635395"/>
        <path id="Trazado_7801" data-name="Trazado 7801" d="M98.04,124.15l-13.31-1.07,1.67-20.76,1.59.13-1.54,19.17,11.72.94Z" fill="#2d1674"/>
        <rect id="Rectángulo_4774" data-name="Rectángulo 4774" width="1.605" height="10.433" transform="translate(104.192 124.253) rotate(-85.426)" fill="#2d1674"/>
        <rect id="Rectángulo_4775" data-name="Rectángulo 4775" width="19.17" height="18.62" transform="matrix(0.997, 0.08, -0.08, 0.997, 92.235, 99.393)" fill="#635395"/>
        <path id="Trazado_7802" data-name="Trazado 7802" d="M109.86,119.49l16.76,1.35,2.03-25.28-17.3,5.36Z" opacity="0.2"/>
        <rect id="Rectángulo_4776" data-name="Rectángulo 4776" width="30.35" height="50.71" transform="matrix(0.997, 0.08, -0.08, 0.997, 164.659, 73.04)" opacity="0.2"/>
        <path id="Trazado_7803" data-name="Trazado 7803" d="M169.22,62.7l-30.25-2.43,25.69,12.75,30.25,2.43Z" fill="#263238"/>
        <path id="Trazado_7804" data-name="Trazado 7804" d="M194.91,77.05h-.13l-30.25-2.43a1.69,1.69,0,0,1-.58-.17L138.26,61.7a1.6,1.6,0,0,1-.83-1.86,1.62,1.62,0,0,1,1.67-1.17l30.25,2.43a1.74,1.74,0,0,1,.59.17L195.62,74a1.6,1.6,0,0,1-.71,3Zm-29.82-5.6,21.68,1.75-18-8.93-21.68-1.75Z" fill="#263238"/>
        <path id="Trazado_7805" data-name="Trazado 7805" d="M109.55,94.03l19.1,1.53-17.3,5.36-19.1-1.53Z" fill="#263238"/>
        <path id="Trazado_7806" data-name="Trazado 7806" d="M111.35,101.94h-.08L92.16,100.4A1,1,0,0,1,92,98.43l17.3-5.37a1,1,0,0,1,.38,0l19.1,1.54a1.008,1.008,0,0,1,.22,1.97l-17.3,5.36A1,1,0,0,1,111.35,101.94ZM97.55,98.8l13.69,1.1,12.11-3.75-13.69-1.1Z" fill="#263238"/>
        <line id="Línea_1141" data-name="Línea 1141" x1="27.39" y2="8.48" transform="translate(111.58 60.27)" fill="#263238"/>
        <path id="Trazado_7807" data-name="Trazado 7807" d="M111.58,70.35a1.6,1.6,0,0,1-.48-3.12l27.4-8.49a1.6,1.6,0,1,1,.94,3l-27.39,8.49a1.58,1.58,0,0,1-.47.12Z" fill="#263238"/>
        <rect id="Rectángulo_4777" data-name="Rectángulo 4777" width="10.955" height="19.933" transform="translate(138.482 102.127) rotate(4.574)" fill="#fff" opacity="0.6"/>
        <rect id="Rectángulo_4778" data-name="Rectángulo 4778" width="25.68" height="15.44" transform="matrix(0.997, 0.08, -0.08, 0.997, 124.824, 76.01)" fill="#fff"/>
        <rect id="Rectángulo_4779" data-name="Rectángulo 4779" width="10.81" height="13.4" transform="matrix(0.997, 0.08, -0.08, 0.997, 125.691, 77.107)" fill="#8a5de3"/>
        <rect id="Rectángulo_4780" data-name="Rectángulo 4780" width="10.81" height="13.4" transform="matrix(0.997, 0.08, -0.08, 0.997, 138.616, 78.15)" fill="#8a5de3"/>
        <rect id="Rectángulo_4781" data-name="Rectángulo 4781" width="14.35" height="15.44" transform="matrix(0.997, 0.08, -0.08, 0.997, 172.499, 79.854)" fill="#fff"/>
        <rect id="Rectángulo_4782" data-name="Rectángulo 4782" width="6.04" height="13.4" transform="matrix(0.997, 0.08, -0.08, 0.997, 172.939, 80.915)" fill="#8a5de3"/>
        <rect id="Rectángulo_4783" data-name="Rectángulo 4783" width="6.04" height="13.4" transform="matrix(0.997, 0.08, -0.08, 0.997, 180.159, 81.492)" fill="#8a5de3"/>
        <rect id="Rectángulo_4784" data-name="Rectángulo 4784" width="14.35" height="15.44" transform="matrix(0.997, 0.08, -0.08, 0.997, 170.514, 104.446)" fill="#fff"/>
        <rect id="Rectángulo_4785" data-name="Rectángulo 4785" width="6.04" height="13.4" transform="matrix(0.997, 0.08, -0.08, 0.997, 170.953, 105.507)" fill="#8a5de3"/>
        <rect id="Rectángulo_4786" data-name="Rectángulo 4786" width="6.059" height="13.443" transform="translate(178.777 106.392) rotate(4.574)" fill="#8a5de3"/>
      </g>
    </g>
  </g>
</svg>
