<svg xmlns="http://www.w3.org/2000/svg" width="1535.421" height="658.683" viewBox="0 0 1535.421 658.683">
  <g id="Grupo_1354" data-name="Grupo 1354" transform="translate(102.385 -140.898)">
    <g id="Building-bro" transform="translate(-479.866 205.473)" opacity="0.5">
      <g id="freepik--background-simple--inject-1--inject-10" transform="translate(377.481 -50.993)" opacity="0.44">
        <path id="Trazado_2311" data-name="Trazado 2311" d="M897,686.812c-24.8-28.211-59.547-19.856-34.721-82.7,15.386-38.953,27.69-84.937,13.02-125.994-17.491-49.152-71.482-75.128-120.7-79.056-26.583-2.17-54.772,9.917-80.531,4.557-31.292-6.51-49.8-37.651-53.449-67.511a.611.611,0,0,0,0-.2H857.941s2.93-8.789-7.812-14.648S834.5,320.287,830.6,315.4s10.742-17.578-18.554-30.381c0,0-1.953-27.343-41.991-28.211s-29.3,27.343-40.038,34.179-13.671-3.906-24.413,2.93-5.859,20.507-14.648,22.46-20.507-8.789-31.227-1.953-10.742,12.695-15.625,12.695-14.648-3.906-20.507,0c-1.172.76-2.365,1.584-3.537,2.387-1.758-24.934,3.3-49.912,6.684-74.867C636.507,183.03,606.625,127.433,535.1,106.3c-73.5-21.7-156.809-10.026-221.89,29.8C202.341,203.8,271.784,336.107,185.871,374.126S18.341,490.225,65.15,610.664c46.309,119.072,143.962,93.2,143.962,93.2l3.233,36.761H909.09S921.806,714.805,897,686.812ZM400.056,450.838H100.348s8.29-5.924,15.386-10.677,18.966,0,24.869,0,5.924-7.1,18.966-15.386,27.234,4.731,37.911,2.365,4.731-18.945,17.773-27.234,16.579,4.731,29.6-3.559,0-42.642,48.566-41.47,50.953,34.352,50.953,34.352c35.524,15.408,17.751,30.815,22.5,36.718s10.655,0,23.675,7.118,9.527,17.664,9.527,17.664ZM552.677,165.062H372.432s4.991-3.559,9.266-6.51,11.393,0,14.952,0,3.581-4.34,11.415-9.266,16.384,2.864,22.786,1.432,2.865-11.393,10.7-16.384,9.982,2.843,17.816-2.17,0-25.65,29.209-24.934,30.6,20.659,30.6,20.659c21.375,9.266,10.7,18.532,13.541,22.091s6.4,0,14.257,4.34,5.729,10.633,5.729,10.633ZM740.085,476.315H657.622s2.279-1.628,4.232-2.93,5.208,0,6.836,0,1.628-1.953,5.23-4.232,7.487,1.3,10.416.651,1.3-5.208,4.883-7.487,4.557,1.3,8.138-.977,0-11.74,13.368-11.415,14.019,9.461,14.019,9.461c9.765,4.232,4.883,8.463,6.185,10.091s2.93,0,6.51,1.953A4.21,4.21,0,0,1,740.085,476.315Z" transform="translate(-51.481 -95.527)" fill="#5c3caf"/>
        <circle id="Elipse_118" data-name="Elipse 118" cx="50.346" cy="50.346" r="50.346" transform="translate(612.719 127.599) rotate(-67.13)" fill="#5c3caf"/>
        <g id="Grupo_242" data-name="Grupo 242" opacity="0.7">
          <path id="Trazado_2312" data-name="Trazado 2312" d="M897,686.812c-24.8-28.211-59.547-19.856-34.721-82.7,15.386-38.953,27.69-84.937,13.02-125.994-17.491-49.152-71.482-75.128-120.7-79.056-26.583-2.17-54.772,9.917-80.531,4.557-31.292-6.51-49.8-37.651-53.449-67.511a.611.611,0,0,0,0-.2H857.941s2.93-8.789-7.812-14.648S834.5,320.287,830.6,315.4s10.742-17.578-18.554-30.381c0,0-1.953-27.343-41.991-28.211s-29.3,27.343-40.038,34.179-13.671-3.906-24.413,2.93-5.859,20.507-14.648,22.46-20.507-8.789-31.227-1.953-10.742,12.695-15.625,12.695-14.648-3.906-20.507,0c-1.172.76-2.365,1.584-3.537,2.387-1.758-24.934,3.3-49.912,6.684-74.867C636.507,183.03,606.625,127.433,535.1,106.3c-73.5-21.7-156.809-10.026-221.89,29.8C202.341,203.8,271.784,336.107,185.871,374.126S18.341,490.225,65.15,610.664c46.309,119.072,143.962,93.2,143.962,93.2l3.233,36.761H909.09S921.806,714.805,897,686.812ZM400.056,450.838H100.348s8.29-5.924,15.386-10.677,18.966,0,24.869,0,5.924-7.1,18.966-15.386,27.234,4.731,37.911,2.365,4.731-18.945,17.773-27.234,16.579,4.731,29.6-3.559,0-42.642,48.566-41.47,50.953,34.352,50.953,34.352c35.524,15.408,17.751,30.815,22.5,36.718s10.655,0,23.675,7.118,9.527,17.664,9.527,17.664ZM552.677,165.062H372.432s4.991-3.559,9.266-6.51,11.393,0,14.952,0,3.581-4.34,11.415-9.266,16.384,2.864,22.786,1.432,2.865-11.393,10.7-16.384,9.982,2.843,17.816-2.17,0-25.65,29.209-24.934,30.6,20.659,30.6,20.659c21.375,9.266,10.7,18.532,13.541,22.091s6.4,0,14.257,4.34,5.729,10.633,5.729,10.633ZM740.085,476.315H657.622s2.279-1.628,4.232-2.93,5.208,0,6.836,0,1.628-1.953,5.23-4.232,7.487,1.3,10.416.651,1.3-5.208,4.883-7.487,4.557,1.3,8.138-.977,0-11.74,13.368-11.415,14.019,9.461,14.019,9.461c9.765,4.232,4.883,8.463,6.185,10.091s2.93,0,6.51,1.953A4.21,4.21,0,0,1,740.085,476.315Z" transform="translate(-51.481 -95.527)" fill="#fff"/>
          <circle id="Elipse_119" data-name="Elipse 119" cx="50.346" cy="50.346" r="50.346" transform="translate(612.719 127.599) rotate(-67.13)" fill="#fff"/>
        </g>
      </g>
    </g>
    <g id="Building-bro-2" data-name="Building-bro" transform="translate(767 140.898)" opacity="0.5">
      <g id="freepik--background-simple--inject-1--inject-10-2" data-name="freepik--background-simple--inject-1--inject-10" transform="translate(0 0)" opacity="0.44">
        <path id="Trazado_2311-2" data-name="Trazado 2311" d="M63.355,552.992c19.19-21.826,46.07-15.362,26.863-63.984-11.9-30.137-21.423-65.714-10.074-97.479,13.532-38.028,55.3-58.125,93.383-61.164,20.567-1.679,42.376,7.673,62.305,3.526,24.21-5.037,38.532-29.13,41.352-52.232a.472.472,0,0,1,0-.151H93.576s-2.267-6.8,6.044-11.333,12.088-.755,15.11-4.533-8.311-13.6,14.355-23.505c0,0,1.511-21.155,32.488-21.826s22.666,21.155,30.976,26.443,10.577-3.022,18.888,2.267,4.533,15.866,11.333,17.377,15.866-6.8,24.16-1.511,8.311,9.822,12.088,9.822,11.333-3.022,15.866,0c.907.588,1.83,1.226,2.737,1.847,1.36-19.291-2.552-38.616-5.171-57.923-7.555-55.4,15.564-98.419,70.9-114.772,56.866-16.789,121.32-7.757,171.671,23.052,85.777,52.383,32.051,154.748,98.52,184.163s129.614,89.823,93.4,183c-35.828,92.123-111.381,72.11-111.381,72.11l-2.5,28.441H54S44.165,574.65,63.355,552.992ZM447.832,370.424H679.71s-6.414-4.584-11.9-8.26-14.674,0-19.241,0-4.583-5.49-14.674-11.9-21.071,3.66-29.331,1.83-3.66-14.657-13.75-21.071-12.827,3.66-22.9-2.753,0-32.991-37.575-32.084-39.421,26.578-39.421,26.578C463.429,334.68,477.18,346.6,473.5,351.167s-8.244,0-18.317,5.507-7.37,13.667-7.37,13.667Zm-118.08-221.1H469.2s-3.862-2.753-7.169-5.037-8.814,0-11.568,0-2.77-3.358-8.831-7.169-12.676,2.216-17.629,1.108-2.216-8.814-8.277-12.676-7.723,2.2-13.784-1.679,0-19.845-22.6-19.291-23.673,15.983-23.673,15.983c-16.538,7.169-8.277,14.338-10.477,17.092s-4.953,0-11.031,3.358-4.432,8.227-4.432,8.227ZM184.759,390.135h63.8s-1.763-1.259-3.274-2.267-4.029,0-5.289,0-1.259-1.511-4.046-3.274-5.792,1.007-8.059.5-1.007-4.029-3.778-5.792-3.526,1.007-6.3-.756,0-9.083-10.342-8.831-10.846,7.32-10.846,7.32c-7.555,3.274-3.778,6.548-4.785,7.807s-2.267,0-5.037,1.511A3.257,3.257,0,0,0,184.759,390.135Z" transform="translate(-51.481 -95.527)" fill="#5c3caf"/>
        <ellipse id="Elipse_118-2" data-name="Elipse 118" cx="38.951" cy="38.951" rx="38.951" ry="38.951" transform="matrix(-0.389, -0.921, 0.921, -0.389, 120.209, 128.997)" fill="#5c3caf"/>
        <g id="Grupo_242-2" data-name="Grupo 242" opacity="0.7">
          <path id="Trazado_2312-2" data-name="Trazado 2312" d="M63.355,552.992c19.19-21.826,46.07-15.362,26.863-63.984-11.9-30.137-21.423-65.714-10.074-97.479,13.532-38.028,55.3-58.125,93.383-61.164,20.567-1.679,42.376,7.673,62.305,3.526,24.21-5.037,38.532-29.13,41.352-52.232a.472.472,0,0,1,0-.151H93.576s-2.267-6.8,6.044-11.333,12.088-.755,15.11-4.533-8.311-13.6,14.355-23.505c0,0,1.511-21.155,32.488-21.826s22.666,21.155,30.976,26.443,10.577-3.022,18.888,2.267,4.533,15.866,11.333,17.377,15.866-6.8,24.16-1.511,8.311,9.822,12.088,9.822,11.333-3.022,15.866,0c.907.588,1.83,1.226,2.737,1.847,1.36-19.291-2.552-38.616-5.171-57.923-7.555-55.4,15.564-98.419,70.9-114.772,56.866-16.789,121.32-7.757,171.671,23.052,85.777,52.383,32.051,154.748,98.52,184.163s129.614,89.823,93.4,183c-35.828,92.123-111.381,72.11-111.381,72.11l-2.5,28.441H54S44.165,574.65,63.355,552.992ZM447.832,370.424H679.71s-6.414-4.584-11.9-8.26-14.674,0-19.241,0-4.583-5.49-14.674-11.9-21.071,3.66-29.331,1.83-3.66-14.657-13.75-21.071-12.827,3.66-22.9-2.753,0-32.991-37.575-32.084-39.421,26.578-39.421,26.578C463.429,334.68,477.18,346.6,473.5,351.167s-8.244,0-18.317,5.507-7.37,13.667-7.37,13.667Zm-118.08-221.1H469.2s-3.862-2.753-7.169-5.037-8.814,0-11.568,0-2.77-3.358-8.831-7.169-12.676,2.216-17.629,1.108-2.216-8.814-8.277-12.676-7.723,2.2-13.784-1.679,0-19.845-22.6-19.291-23.673,15.983-23.673,15.983c-16.538,7.169-8.277,14.338-10.477,17.092s-4.953,0-11.031,3.358-4.432,8.227-4.432,8.227ZM184.759,390.135h63.8s-1.763-1.259-3.274-2.267-4.029,0-5.289,0-1.259-1.511-4.046-3.274-5.792,1.007-8.059.5-1.007-4.029-3.778-5.792-3.526,1.007-6.3-.756,0-9.083-10.342-8.831-10.846,7.32-10.846,7.32c-7.555,3.274-3.778,6.548-4.785,7.807s-2.267,0-5.037,1.511A3.257,3.257,0,0,0,184.759,390.135Z" transform="translate(-51.481 -95.527)" fill="#fff"/>
          <ellipse id="Elipse_119-2" data-name="Elipse 119" cx="38.951" cy="38.951" rx="38.951" ry="38.951" transform="matrix(-0.389, -0.921, 0.921, -0.389, 120.209, 128.997)" fill="#fff"/>
        </g>
      </g>
    </g>
  </g>
</svg>
