<svg xmlns="http://www.w3.org/2000/svg" width="659.643" height="451.955" viewBox="0 0 659.643 451.955">
  <g id="Build_your_home-pana" data-name="Build your home-pana" transform="translate(-64.625 -53.54)">
    <g id="freepik--Drawing--inject-51" transform="translate(64.625 53.54)">
      <path id="Trazado_4879" data-name="Trazado 4879" d="M63.04,84.414l26.726,274.8,99.506-16.33,91.021,23.78,81.265-35.051,88.021,20.919,71.905-36.363L511.643,53.846,442.94,74.68,361.7,53.12,264.73,87.3,165.876,64.722Z" transform="translate(-62.997 -52.682)" fill="#ebebeb"/>
      <path id="Trazado_4880" data-name="Trazado 4880" d="M63,84.431l.416-.085,1.281-.267,5.07-1L89.683,79.2l76.1-14.729h.117l98.876,22.478h-.213L361.507,52.71h.267l81.3,21.517H442.8l68.682-20.855.651-.192v.672c3.042,80.806,6.4,169.532,9.883,262.325v.352l-.32.16-1.441.736-70.443,35.627-.182.085h-.192l-88.021-20.93h.331l-81.265,35.029-.171.064h-.171l-91.021-23.812h.2l-99.5,16.181-.459.075v-.459c-8.133-84.265-14.74-152.978-19.329-200.677-2.263-23.812-4.034-42.372-5.23-54.977-.6-6.286-1.067-11.089-1.345-14.334-.149-1.6-.256-2.828-.331-3.64S63,84.431,63,84.431s.064.438.149,1.259.213,2.06.384,3.682c.32,3.2.811,8.08,1.452,14.4,1.249,12.626,3.1,31.208,5.454,55.052C75.125,206.446,81.881,275.1,90.152,359.2l-.5-.384,99.5-16.383h.2l91.042,23.748h-.342L361.3,331.119l.171-.075h.171l88.021,20.9h-.374l70.443-35.627,1.441-.736-.3.523c-3.469-92.792-6.788-181.518-9.809-262.325l.672.47-68.7,20.813h-.278l-81.18-21.474h.267L264.861,87.739h-.214L165.814,65.08h.117l-76,14.345L69.938,83.182l-5.134.95-1.313.235A4.331,4.331,0,0,1,63,84.431Z" transform="translate(-63 -52.71)" fill="#263238"/>
      <path id="Trazado_4881" data-name="Trazado 4881" d="M71.54,91,96.793,350.642,190.8,335.208l86,22.467,84.008-36.225,87.755,20.8L511.1,308.493l-9.3-244.479L445.826,82.575,361.433,60.14,265.5,96.322,168.708,72.4Z" transform="translate(-62.425 -52.21)" fill="#fff"/>
      <path id="Trazado_4882" data-name="Trazado 4882" d="M71.54,91.01l97.126-18.731h.064l96.806,23.876h-.107l95.92-36.214h.139l84.393,22.414h-.139l55.97-18.561.331-.117v.352c2.871,75.363,6.03,158.059,9.318,244.479v.181l-.16.085-2.455,1.323-60.079,32.436-.1.053h-.1l-87.755-20.813h.171l-83.934,36.161h-.171l-85.994-22.488h.1L96.825,350.869H96.6v-.224C81.231,191.551,71.711,92.749,71.54,91.01c.171,1.74,9.862,100.53,25.466,259.624l-.256-.192,94.02-15.455h.1L276.881,357.4h-.171l84-36.289h.171l87.755,20.8h-.2l60.133-32.329,2.455-1.323-.149.256c-3.277-86.453-6.4-169.116-9.275-244.479l.341.235-56.023,18.55h-.15L361.38,60.41h.139L265.567,96.56h-.107l-96.784-24h0Z" transform="translate(-62.425 -52.223)" fill="#263238"/>
      <path id="Trazado_4883" data-name="Trazado 4883" d="M104.32,214.3c4.76,7.642,15.892,10.438,23.694,5.945a17.077,17.077,0,0,0,28.817-2.049c3.362,1.676,7.7.544,10.332-2.135a14.28,14.28,0,0,0,3.682-10.342,32.7,32.7,0,0,0-2.54-10.929s-29.191-7.77-31.24-7.215S104.32,214.3,104.32,214.3Z" transform="translate(-60.219 -43.634)" fill="#455a64"/>
      <path id="Trazado_4884" data-name="Trazado 4884" d="M118.2,202.807c0,.576,4.483,11.218,4.483,11.218l7.738,10.364,3.2,31.774,3.255,7.407.405,17.077,5.337-.181-1.153-18.539-1.59-10.673,2.988-11.4,7.962-12.082,4.771-25.061-4.045-.672-3.415,17.344-3.2,9.862-3.874,6.4-4.205.672,1.975-37.217-3.682-1.633-1.067,19.788-2.828,2.135-3.373-4.91-7.759-13.448Z" transform="translate(-59.284 -42.966)" fill="#a26760"/>
      <path id="Trazado_4885" data-name="Trazado 4885" d="M184.234,183.523c-2.135-5.5-6.681-9.659-11.057-13.608,2.433-1.633,3.309-4.963,2.7-7.834a15.338,15.338,0,0,0-4.547-7.375,33.343,33.343,0,0,0-35.552-6.873l-4.782.715a25.3,25.3,0,0,0-26.683,11.239,42.772,42.772,0,0,1-3.49,5.731c-2.049,2.455-5,3.938-7.546,5.87a25.53,25.53,0,0,0-5.764,34.581c1.836,2.743,4.269,5.144,5.71,8.09,1.067,2.135,1.686,4.568,3.2,6.489,2.828,3.7,8.3,4.536,12.722,3.074,3.49-1.163,10.993-12.125,12.424-14.942,1.7.406,9.115,0,10.673-7.1,0,0,4.13,3.992,13.149-1.452,2.711-1.633,6.906,3.2,9.99,5.08,3.319,2.007,6.084,4.8,9.264,7.012s7.055,3.885,10.865,3.2a9.467,9.467,0,0,0,4.942-16.02C185.451,196.2,186.4,189.009,184.234,183.523Z" transform="translate(-61.642 -46.47)" fill="#455a64"/>
      <path id="Trazado_4886" data-name="Trazado 4886" d="M145.586,186.88a1.633,1.633,0,0,1,.16.459,7.8,7.8,0,0,1,.235,1.366,10.566,10.566,0,0,1-.8,5.07,10.748,10.748,0,0,1-1.921,3.052,9.882,9.882,0,0,1-3.394,2.444,11,11,0,0,1-9.456-.277l.406-.192a8.144,8.144,0,0,1-1.516,3.543,9.275,9.275,0,0,1-9.894,3.512l.32-.171a19.767,19.767,0,0,1-7.236,9.9,18.807,18.807,0,0,1-3.074,1.782c-.374.171-.672.267-.875.342a1.219,1.219,0,0,1-.309.1,28.68,28.68,0,0,0,4.066-2.476,19.906,19.906,0,0,0,6.948-9.8l.075-.246.246.075a8.8,8.8,0,0,0,9.286-3.341,7.621,7.621,0,0,0,1.42-3.309l.053-.384.352.182a10.545,10.545,0,0,0,9,.309,9.926,9.926,0,0,0,5.177-5.2,10.886,10.886,0,0,0,.929-4.9C145.725,187.531,145.533,186.9,145.586,186.88Z" transform="translate(-59.955 -43.678)" fill="#263238"/>
      <path id="Trazado_4887" data-name="Trazado 4887" d="M164.264,205.974a3.017,3.017,0,0,1-1.067.48,8.718,8.718,0,0,1-3.138.416,9.029,9.029,0,0,1-4.483-1.388,9.4,9.4,0,0,1-3.693-4.4,9.979,9.979,0,0,1-.523-1.729l.416.181a8.122,8.122,0,0,1-5.006,1.067,7.8,7.8,0,0,1-3.864-1.484,7.474,7.474,0,0,1-1.889-1.985,2.724,2.724,0,0,1-.448-.9,11.635,11.635,0,0,0,2.594,2.625,7.813,7.813,0,0,0,3.693,1.3,7.9,7.9,0,0,0,4.675-1.067l.342-.2.075.384a9.692,9.692,0,0,0,.491,1.622,9.264,9.264,0,0,0,3.458,4.184,8.977,8.977,0,0,0,4.269,1.43A12.351,12.351,0,0,0,164.264,205.974Z" transform="translate(-57.778 -43.048)" fill="#263238"/>
      <path id="Trazado_4888" data-name="Trazado 4888" d="M375.16,191.59c6.03,9.691,20.151,13.235,30.034,7.535a21.72,21.72,0,0,0,36.513-2.6c4.269,2.135,9.755.7,13.107-2.69s4.76-8.346,4.675-13.117a41.714,41.714,0,0,0-3.2-13.875s-37-9.851-39.608-9.136S375.16,191.59,375.16,191.59Z" transform="translate(-41.987 -45.645)" fill="#455a64"/>
      <path id="Trazado_4889" data-name="Trazado 4889" d="M392.75,177.019c0,.726,5.7,14.217,5.7,14.217l9.8,13.149,4.13,40.312,4.109,9.392.16,21.346,6.19-.149-.555-23.235-2.028-13.576,3.789-14.441,10.1-15.327,6.052-31.774-5.134-.854-4.333,22-4.088,12.466-4.909,8.144-5.337.865,2.519-47.261-4.664-2.081L412.9,195.3l-3.586,2.764-4.269-6.222-9.894-17.077Z" transform="translate(-40.803 -44.8)" fill="#a26760"/>
      <path id="Trazado_4890" data-name="Trazado 4890" d="M476.495,152.567c-2.754-6.959-8.539-12.242-14.035-17.258,3.1-2.071,4.205-6.287,3.426-9.926s-3.127-6.735-5.763-9.36a42.287,42.287,0,0,0-45.073-8.709l-6.062.918a32.019,32.019,0,0,0-33.844,14.249c-1.462,2.423-2.6,5.07-4.43,7.247-2.594,3.117-6.34,5.006-9.606,7.471a32.372,32.372,0,0,0-7.3,43.835c2.337,3.49,5.336,6.521,7.247,10.268,1.377,2.722,2.135,5.8,3.981,8.218,3.586,4.7,10.534,5.753,16.138,3.9,4.429-1.462,13.939-15.359,15.743-18.988,2.135.523,11.57,0,13.6-9,0,0,5.241,5.07,16.671-1.836,3.437-2.071,8.752,4.077,12.669,6.4,4.205,2.54,7.706,6.084,11.74,8.891s8.944,4.92,13.768,4a12,12,0,0,0,6.3-20.215C478,168.673,479.259,159.484,476.495,152.567Z" transform="translate(-43.795 -49.241)" fill="#455a64"/>
      <path id="Trazado_4891" data-name="Trazado 4891" d="M427.487,156.83a3.91,3.91,0,0,1,.182.576,9.818,9.818,0,0,1,.288,1.74,13.521,13.521,0,0,1-1.067,6.4,13.922,13.922,0,0,1-2.444,3.853,12.6,12.6,0,0,1-4.269,3.074,13.875,13.875,0,0,1-11.933-.352l.406-.2a10.119,10.119,0,0,1-1.911,4.472c-2.988,4.024-8.293,5.774-12.456,4.429l.32-.171a25.181,25.181,0,0,1-9.147,12.541,23.356,23.356,0,0,1-3.874,2.263c-.48.224-.854.352-1.067.459a1.769,1.769,0,0,1-.384.128,13.224,13.224,0,0,1,1.419-.736,25.937,25.937,0,0,0,8.592-7.151,24.471,24.471,0,0,0,4.013-7.653l.075-.246.245.075c3.938,1.249,9.008-.427,11.858-4.269a9.608,9.608,0,0,0,1.814-4.269l.053-.384.341.182a13.459,13.459,0,0,0,11.484.395,12.272,12.272,0,0,0,4.152-2.924,13.377,13.377,0,0,0,2.422-3.7,13.766,13.766,0,0,0,1.163-6.244C427.668,157.652,427.433,156.841,427.487,156.83Z" transform="translate(-41.653 -45.701)" fill="#263238"/>
      <path id="Trazado_4892" data-name="Trazado 4892" d="M451.163,181.029a1.247,1.247,0,0,1-.331.181,5.907,5.907,0,0,1-1.014.395,11.068,11.068,0,0,1-3.96.5,11.421,11.421,0,0,1-5.646-1.761,11.953,11.953,0,0,1-4.642-5.55,11.49,11.49,0,0,1-.662-2.135l.416.181a10.406,10.406,0,0,1-6.318,1.409,9.915,9.915,0,0,1-4.867-1.857,9.753,9.753,0,0,1-2.4-2.5,3.975,3.975,0,0,1-.587-1.067,12.929,12.929,0,0,0,3.2,3.319,9.822,9.822,0,0,0,4.707,1.665,10.075,10.075,0,0,0,5.977-1.387l.331-.2.085.384a10.932,10.932,0,0,0,.63,2.07,11.739,11.739,0,0,0,4.408,5.337,11.41,11.41,0,0,0,5.4,1.8,12.375,12.375,0,0,0,3.875-.32A8.556,8.556,0,0,1,451.163,181.029Z" transform="translate(-38.891 -44.893)" fill="#263238"/>
      <path id="Trazado_4893" data-name="Trazado 4893" d="M423.152,169.636l-22.595.544L358.43,123.155l15.209-17.675Z" transform="translate(-43.113 -49.158)" fill="#d0dc64"/>
      <path id="Trazado_4894" data-name="Trazado 4894" d="M423.152,169.636l-22.595.544L358.43,123.155l15.209-17.675Z" transform="translate(-44.18 -45.956)" opacity="0.3"/>
      <path id="Trazado_4895" data-name="Trazado 4895" d="M168.755,168.68,155.04,232.324l7.621-.181,12.2-55.863Z" transform="translate(-56.804 -44.903)" fill="#2d1674"/>
      <path id="Trazado_4896" data-name="Trazado 4896" d="M168.755,168.68,155.04,232.324l7.621-.181,12.2-55.863Z" transform="translate(-56.804 -44.903)" opacity="0.3"/>
      <path id="Trazado_4897" data-name="Trazado 4897" d="M161.309,281.156l-1.249-52.117L170.4,180.38l10.748,52.9,1.142,47.378Z" transform="translate(-56.466 -44.116)" fill="#e0e0e0"/>
      <rect id="Rectángulo_2661" data-name="Rectángulo 2661" width="39.64" height="80.39" transform="translate(258.199 107.291) rotate(-1.37)" fill="#e0e0e0"/>
      <path id="Trazado_4898" data-name="Trazado 4898" d="M167.9,169.1l12.733,65.373L351.521,230.4l-35.4-64.839Z" transform="translate(-55.939 -45.114)" fill="#d0dc64"/>
      <rect id="Rectángulo_2662" data-name="Rectángulo 2662" width="169.927" height="47.389" transform="translate(124.684 189.152) rotate(-1.37)" fill="#ebebeb"/>
      <path id="Trazado_4899" data-name="Trazado 4899" d="M194.06,229.833l1.131,47.175,20.471-.491-1.484-47.367Z" transform="translate(-54.178 -40.833)" fill="#e0e0e0"/>
      <path id="Trazado_4900" data-name="Trazado 4900" d="M263.949,172.04,212.91,232.994l1.484,47.367,100.627-2.4-2-45.628Z" transform="translate(-52.909 -44.677)" fill="#ebebeb"/>
      <path id="Trazado_4901" data-name="Trazado 4901" d="M189.53,233.967l51.647-66.921,24.207-.576-53.473,66.963Z" transform="translate(-54.483 -45.052)" fill="#d0dc64"/>
      <path id="Trazado_4902" data-name="Trazado 4902" d="M294.64,169.864l39.395-.448,45.318-63.8-1.964-2.562-37.623,1.633Z" transform="translate(-47.407 -49.321)" fill="#d0dc64"/>
      <path id="Trazado_4903" data-name="Trazado 4903" d="M343.292,147.141,327.08,169.533l4.771-.117,45.318-63.8-1.964-2.562Z" transform="translate(-45.224 -49.321)" fill="#d0dc64"/>
      <path id="Trazado_4904" data-name="Trazado 4904" d="M343.317,147.168a1.4,1.4,0,0,1,.139-.224l.427-.63,1.718-2.444c1.537-2.135,3.746-5.241,6.521-9.147l22.926-31.8.2-.288.214.278,1.953,2.562.118.149-.107.16L362.091,127.4c-11.356,16.01-21.816,30.643-30.024,42.17l-.064.1H331.9l-4.76.1h-.416l.246-.331c5.016-6.873,9.083-12.445,11.922-16.319l3.277-4.429c.363-.491.651-.865.865-1.142a3.2,3.2,0,0,1,.309-.384,2.658,2.658,0,0,1-.267.416l-.811,1.174-3.2,4.493-11.74,16.426-.171-.32,4.76-.128-.171.1,29.885-42.244,15.359-21.6v.32l-1.932-2.551h.416c-9.382,12.893-17.387,23.887-23.054,31.689l-6.649,9.051-1.783,2.4-.469.608A1.283,1.283,0,0,1,343.317,147.168Z" transform="translate(-45.248 -49.349)" fill="#263238"/>
      <path id="Trazado_4905" data-name="Trazado 4905" d="M408.124,160.315l2.839,119.048-70.731,1.686L337.34,159.973,369.914,114.1Z" transform="translate(-44.533 -48.578)" fill="#ebebeb"/>
      <path id="Trazado_4906" data-name="Trazado 4906" d="M425.719,189.3a54.442,54.442,0,0,1,.555,7.738,55.57,55.57,0,0,1,0,7.749,52.367,52.367,0,0,1-.555-7.727A55.8,55.8,0,0,1,425.719,189.3Z" transform="translate(-38.593 -43.515)" fill="#263238"/>
      <path id="Trazado_4907" data-name="Trazado 4907" d="M427.134,189.307a111.462,111.462,0,0,1-11.292.555c-6.233.149-11.292.139-11.292,0s5.049-.395,11.282-.544S427.134,189.157,427.134,189.307Z" transform="translate(-40.009 -43.522)" fill="#263238"/>
      <path id="Trazado_4908" data-name="Trazado 4908" d="M418.835,204.876a53.125,53.125,0,0,1-.459-7.653,50.9,50.9,0,0,1,.1-7.663,55.1,55.1,0,0,1,.459,7.653A54.544,54.544,0,0,1,418.835,204.876Z" transform="translate(-39.085 -43.498)" fill="#263238"/>
      <path id="Trazado_4909" data-name="Trazado 4909" d="M411.165,205.157a54.465,54.465,0,0,1-.459-7.738,54.949,54.949,0,0,1,.085-7.759,53.272,53.272,0,0,1,.469,7.738A55.859,55.859,0,0,1,411.165,205.157Z" transform="translate(-39.601 -43.491)" fill="#263238"/>
      <path id="Trazado_4910" data-name="Trazado 4910" d="M188.16,234l53.11-66.953,24.207-.576L212,233.433Z" transform="translate(-54.42 -45.052)" opacity="0.3"/>
      <path id="Trazado_4911" data-name="Trazado 4911" d="M258.92,174.356l51.007,57.977,4.3-.1-53.376-60.2Z" transform="translate(-49.812 -44.677)" fill="#d0dc64"/>
      <path id="Trazado_4912" data-name="Trazado 4912" d="M258.92,174.356l51.007,57.977,4.3-.1-53.376-60.2Z" transform="translate(-49.812 -44.677)" opacity="0.3"/>
      <path id="Trazado_4913" data-name="Trazado 4913" d="M264.239,166.47l-57.7,67.059,6.8-.16,51.039-60.954,53.4,60.9,2.369-2.978Z" transform="translate(-53.338 -45.052)" fill="#d0dc64"/>
      <path id="Trazado_4914" data-name="Trazado 4914" d="M264.275,166.471l.256.277.768.854,2.988,3.373,11.356,12.893,40.7,46.311.139.149-.128.16-2.359,2.978-.181.235-.192-.224L264.254,172.64h.416l-1.676,1.868L213.567,233.53l-.064.085h-.117l-6.81.16H206l.363-.406c17.323-20.065,31.8-36.822,41.956-48.574l11.74-13.587,3.1-3.554.8-.907.267-.288s-.085.117-.267.331l-.79.939-3.1,3.639-11.74,13.7L206.7,233.68l-.192-.395,6.81-.171-.181.085,49.427-59,1.633-1.953.214-.256.213.245,53.366,60.922h-.373l2.369-2.978v.3l-40.344-46.364L268.331,171.1l-2.978-3.448-.768-.9Z" transform="translate(-53.374 -45.053)" fill="#263238"/>
      <path id="Trazado_4915" data-name="Trazado 4915" d="M214.176,276.942c-.149,0-.534-10.673-.843-23.791s-.448-23.812-.288-23.812.534,10.673.843,23.8S214.336,276.942,214.176,276.942Z" transform="translate(-52.904 -40.82)" fill="#263238"/>
      <path id="Trazado_4916" data-name="Trazado 4916" d="M195.5,277.573c-.16,0-.534-10.673-.854-23.8s-.438-23.812-.288-23.812.534,10.673.843,23.8S195.645,277.562,195.5,277.573Z" transform="translate(-54.162 -40.778)" fill="#263238"/>
      <rect id="Rectángulo_2663" data-name="Rectángulo 2663" width="19.937" height="41.487" transform="translate(197.361 193.326) rotate(-1.37)" fill="#455a64"/>
      <path id="Trazado_4917" data-name="Trazado 4917" d="M250.149,257.029h0a.672.672,0,0,1-.683-.662l-.1-4.195a.662.662,0,0,1,.651-.683h0a.661.661,0,0,1,.683.651l.107,4.195A.683.683,0,0,1,250.149,257.029Z" transform="translate(-50.455 -39.329)" fill="#263238"/>
      <path id="Trazado_4918" data-name="Trazado 4918" d="M250.359,255.413a.23.23,0,0,0-.459.011.246.246,0,0,0,.139.181v.246a.085.085,0,0,0,.107.085h0a.1.1,0,0,0,.1-.1v-.235a.245.245,0,0,0,.117-.192Z" transform="translate(-50.419 -39.079)" fill="#455a64"/>
      <path id="Trazado_4919" data-name="Trazado 4919" d="M253.383,253.822l-3.031.075a.342.342,0,0,1-.342-.32h0a.331.331,0,0,1,.331-.342l3.02-.075a.331.331,0,0,1,.341.32h0a.32.32,0,0,1-.32.342Z" transform="translate(-50.412 -39.217)" fill="#263238"/>
      <path id="Trazado_4920" data-name="Trazado 4920" d="M251.371,253.888a1.437,1.437,0,0,1-.416,0,2.986,2.986,0,0,1-.448,0,.7.7,0,0,1-.534-.235.331.331,0,0,1,0-.331.415.415,0,0,1,.245-.171,1.822,1.822,0,0,1,.459,0,1.126,1.126,0,0,1,.416,0,2.15,2.15,0,0,1-.416.053,1.29,1.29,0,0,0-.427.064.214.214,0,0,0-.16.331c.224.256.651.192.886.213A1.936,1.936,0,0,1,251.371,253.888Z" transform="translate(-50.417 -39.219)" fill="#455a64"/>
      <path id="Trazado_4921" data-name="Trazado 4921" d="M257.384,242.757s0-.694-.075-1.879-.085-2.988-.139-4.888h.053l-5.924.149h.053v3.586c0,1.067.053,2.135.075,3.2v-.053l4.269-.075h1.644l-1.612.064-4.269.128h0c0-.993-.053-2.06-.085-3.2V236.2h0l.053-.053,5.913-.139h0V236c0,1.91.064,3.576.1,4.92A11.077,11.077,0,0,1,257.384,242.757Z" transform="translate(-50.325 -40.372)" fill="#263238"/>
      <path id="Trazado_4922" data-name="Trazado 4922" d="M256.264,241.9v-1.441c0-1.067-.075-2.327-.117-3.725l.053.053-4.077.107s.107-.107,0-.064h0v2.732c0,.843,0,1.654.053,2.412h4.013l-1.067.053-2.967.1h0v-.053c0-.758,0-1.569-.064-2.412v-2.722h0c-.053,0,.064-.075.053-.064l4.077-.085h0q0,2.135.064,3.746C256.264,241.384,256.264,241.9,256.264,241.9Z" transform="translate(-50.272 -40.323)" fill="#263238"/>
      <path id="Trazado_4923" data-name="Trazado 4923" d="M257.662,256.532c-.064-2.135-.181-6.148-.363-12.658h.053l-5.913.149c.107-.117,0,0,.054-.053h0v3.565c0,1.153.053,2.273.074,3.351.054,2.135.1,4.045.128,5.721h0l5.924-.107-5.913.181h0c0-1.686-.1-3.618-.149-5.732,0-1.067-.053-2.188-.086-3.351v-3.586h0l.053-.053,5.913-.139h0v.053C257.534,250.416,257.62,254.386,257.662,256.532Z" transform="translate(-50.315 -39.845)" fill="#263238"/>
      <path id="Trazado_4924" data-name="Trazado 4924" d="M256.617,255.807v-.854c0-.544,0-1.43-.075-2.337-.053-2.135-.128-4.867-.214-7.994h0l-4.077.1h0v3.213c0,1.067.053,2.028.075,2.988,0,1.857.075,3.533.1,4.963h0l4.077-.053h-1.067l-3,.085h0c0-1.43-.075-3.106-.128-4.963,0-.95,0-1.953-.075-2.989v-3.213h0l.053-.053,4.077-.1h.053v.053c.064,3.149.117,5.9.16,8.026v2.327A3.9,3.9,0,0,0,256.617,255.807Z" transform="translate(-50.262 -39.793)" fill="#263238"/>
      <path id="Trazado_4925" data-name="Trazado 4925" d="M258.028,271.558c-.064-2.135-.181-6.148-.363-12.658h0l-5.913.149V259h0v3.565c0,1.153,0,2.273.075,3.351.053,2.135.1,4.045.128,5.721h0l5.924-.107-5.924.181h0c0-1.676-.1-3.607-.149-5.721,0-1.067,0-2.2-.085-3.351v-3.565h.053l5.913-.139h.053v.053C257.9,265.411,257.985,269.413,258.028,271.558Z" transform="translate(-50.296 -38.83)" fill="#263238"/>
      <path id="Trazado_4926" data-name="Trazado 4926" d="M256.972,270.837v-.854c0-.544,0-1.43-.075-2.337-.053-2.135-.128-4.867-.213-7.994l.053.054-4.077.1c.107-.117,0,0,.053-.053h0v3.213c0,1.068.053,2.028.075,2.988,0,1.857.075,3.533.1,4.963h0l4.077-.054h-1.067l-3,.085h0c0-1.43-.075-3.106-.128-4.963,0-.95-.053-1.953-.075-2.988v-3.213h0s-.064.053,0-.053l4.077-.1h.053c.064,3.2.117,5.9.16,8.026v2.327C256.983,270.634,256.972,270.837,256.972,270.837Z" transform="translate(-50.233 -38.781)" fill="#263238"/>
      <path id="Trazado_4927" data-name="Trazado 4927" d="M252.355,241.66a2.516,2.516,0,0,1-.48.448c-.288.224-.534.395-.555.363a3.849,3.849,0,0,1,1.035-.811Z" transform="translate(-50.323 -39.991)" fill="#263238"/>
      <path id="Trazado_4928" data-name="Trazado 4928" d="M257.062,242.284a3.053,3.053,0,0,1-.523-.31,2.014,2.014,0,0,1-.459-.395,2.659,2.659,0,0,1,.523.31A2.816,2.816,0,0,1,257.062,242.284Z" transform="translate(-50.003 -39.996)" fill="#263238"/>
      <path id="Trazado_4929" data-name="Trazado 4929" d="M256.778,236.14a1.881,1.881,0,0,1-.427.374,1.735,1.735,0,0,1-.491.277,2.777,2.777,0,0,1,.427-.373A1.368,1.368,0,0,1,256.778,236.14Z" transform="translate(-50.018 -40.362)" fill="#263238"/>
      <path id="Trazado_4930" data-name="Trazado 4930" d="M252.149,236.776a2.426,2.426,0,0,1-.491-.235c-.256-.16-.459-.31-.438-.331a1.728,1.728,0,0,1,.491.235C251.967,236.6,252.17,236.754,252.149,236.776Z" transform="translate(-50.33 -40.358)" fill="#263238"/>
      <path id="Trazado_4931" data-name="Trazado 4931" d="M252.3,244.785a1.517,1.517,0,0,1-.864-.865,5.442,5.442,0,0,0,.427.438C252.112,244.582,252.326,244.752,252.3,244.785Z" transform="translate(-50.315 -39.839)" fill="#263238"/>
      <path id="Trazado_4932" data-name="Trazado 4932" d="M256.964,243.86a2.369,2.369,0,0,1-.395.416,1.433,1.433,0,0,1-.459.32,2.574,2.574,0,0,1,.4-.406A1.578,1.578,0,0,1,256.964,243.86Z" transform="translate(-50.001 -39.843)" fill="#263238"/>
      <path id="Trazado_4933" data-name="Trazado 4933" d="M252.551,255.24s-.171.171-.384.363-.384.352-.416.331.117-.224.341-.416A1.068,1.068,0,0,1,252.551,255.24Z" transform="translate(-50.295 -39.077)" fill="#263238"/>
      <path id="Trazado_4934" data-name="Trazado 4934" d="M257.161,255.772a1.347,1.347,0,0,1-.438-.288c-.213-.182-.384-.352-.363-.374a1.348,1.348,0,0,1,.438.288C257.043,255.58,257.182,255.74,257.161,255.772Z" transform="translate(-49.984 -39.085)" fill="#263238"/>
      <path id="Trazado_4935" data-name="Trazado 4935" d="M252.761,259.937a1.942,1.942,0,0,1-.523-.416c-.267-.246-.47-.459-.448-.491a1.943,1.943,0,0,1,.523.416A2.009,2.009,0,0,1,252.761,259.937Z" transform="translate(-50.292 -38.822)" fill="#263238"/>
      <path id="Trazado_4936" data-name="Trazado 4936" d="M257.378,258.86a3.251,3.251,0,0,1-.427.48,1.9,1.9,0,0,1-.491.395,1.8,1.8,0,0,1,.416-.481,2.047,2.047,0,0,1,.5-.395Z" transform="translate(-49.977 -38.833)" fill="#263238"/>
      <path id="Trazado_4937" data-name="Trazado 4937" d="M252.816,270.16a3.1,3.1,0,0,1-.32.427,1.618,1.618,0,0,1-.405.352,2.321,2.321,0,0,1,.32-.427C252.613,270.3,252.784,270.139,252.816,270.16Z" transform="translate(-50.271 -38.072)" fill="#263238"/>
      <path id="Trazado_4938" data-name="Trazado 4938" d="M257.585,270.805a3.46,3.46,0,0,1-.47-.309c-.246-.192-.416-.384-.4-.406a1.408,1.408,0,0,1,.47.32C257.425,270.6,257.606,270.784,257.585,270.805Z" transform="translate(-49.96 -38.077)" fill="#263238"/>
      <path id="Trazado_4939" data-name="Trazado 4939" d="M264.7,242.588s0-.694-.064-1.889-.085-2.988-.149-4.888l.053.053-5.913.149s.107-.107.053-.064h0v3.565c0,1.121,0,2.188.064,3.2h0l4.269-.085h1.633l-1.6.064-4.269.128h0v-.053c0-.993-.053-2.049-.085-3.2v-3.554h0c-.053,0,.064-.075.054-.064l5.913-.128h0v.053c0,1.911.064,3.575.085,4.92A13.812,13.812,0,0,1,264.7,242.588Z" transform="translate(-49.831 -40.385)" fill="#263238"/>
      <path id="Trazado_4940" data-name="Trazado 4940" d="M263.658,241.715s0-.534-.064-1.441c0-1.067-.064-2.327-.107-3.714h0l-4.077.107s.1-.107.053,0h0v2.722c0,.843,0,1.654.053,2.423l-.053-.053h4.077s-.395,0-1.067.053l-2.978.1h0c0-.768,0-1.569-.064-2.423v-2.722h0s.075-.075.064-.053l4.067-.1h.053v.053q0,2.135.064,3.746C263.658,241.214,263.658,241.715,263.658,241.715Z" transform="translate(-49.779 -40.334)" fill="#263238"/>
      <path id="Trazado_4941" data-name="Trazado 4941" d="M265.032,256.359c-.053-2.135-.171-6.158-.352-12.669l.053.053-5.913.139.053-.053h0V247.4c0,1.163.053,2.284.075,3.351,0,2.135.085,4.056.128,5.732h0l5.913-.1-5.913.181h0c0-1.676-.1-3.608-.15-5.721,0-1.067-.053-2.2-.075-3.362v-3.554h0l.064-.064,5.913-.139h.053v.053C264.914,250.2,264.989,254.2,265.032,256.359Z" transform="translate(-49.818 -39.854)" fill="#263238"/>
      <path id="Trazado_4942" data-name="Trazado 4942" d="M263.985,255.626v-.854c0-.555,0-1.42-.064-2.337-.064-2.135-.139-4.856-.224-7.994v.053l-4.067.107.053-.064h0v3.223c0,1.067,0,2.039.064,2.989,0,1.857.075,3.533.107,4.963h0l4.077-.064h-1.067l-3,.1h0c0-1.43-.086-3.106-.128-4.952,0-.96-.053-1.964-.075-3v-3.2h0l.053-.064,4.077-.1h.053v.053c.064,3.149.128,5.9.171,8.037v2.327C264,255.338,263.985,255.626,263.985,255.626Z" transform="translate(-49.764 -39.804)" fill="#263238"/>
      <path id="Trazado_4943" data-name="Trazado 4943" d="M265.392,271.389c-.064-2.135-.171-6.158-.352-12.669h.053l-5.913.139h.053v3.575c0,1.163.053,2.284.075,3.351,0,2.135.085,4.056.128,5.732h0l5.913-.1-5.913.181h0c0-1.676-.1-3.608-.149-5.731,0-1.068,0-2.188-.085-3.351v-3.576h0l.064-.053,5.913-.139h0v.053C265.274,265.231,265.392,269.233,265.392,271.389Z" transform="translate(-49.794 -38.842)" fill="#263238"/>
      <path id="Trazado_4944" data-name="Trazado 4944" d="M264.341,270.71v-.854c0-.544,0-1.42-.075-2.337-.053-2.135-.128-4.856-.214-7.994h.053l-4.067.1.053-.053h0v3.223c0,1.067,0,2.039.064,2.988,0,1.857.075,3.533.107,4.963h0l4.077-.064h-1.067l-3,.1h0c0-1.43-.085-3.106-.128-4.963,0-.95-.053-1.953-.075-2.989v-3.2h0l.053-.064,4.077-.1h.053v.053c.064,3.149.128,5.9.171,8.037v2.316Z" transform="translate(-49.736 -38.793)" fill="#263238"/>
      <path id="Trazado_4945" data-name="Trazado 4945" d="M259.725,241.48a2.049,2.049,0,0,1-.48.459,1.939,1.939,0,0,1-.544.363,2.059,2.059,0,0,1,.48-.459A1.944,1.944,0,0,1,259.725,241.48Z" transform="translate(-49.826 -40.003)" fill="#263238"/>
      <path id="Trazado_4946" data-name="Trazado 4946" d="M264.412,242.1a3.047,3.047,0,0,1-.523-.309c-.277-.2-.48-.374-.459-.395a1.779,1.779,0,0,1,.523.31A2.006,2.006,0,0,1,264.412,242.1Z" transform="translate(-49.508 -40.008)" fill="#263238"/>
      <path id="Trazado_4947" data-name="Trazado 4947" d="M264.147,236a2.79,2.79,0,0,1-.427.374,1.483,1.483,0,0,1-.48.277,2.617,2.617,0,0,1,.416-.363A1.633,1.633,0,0,1,264.147,236Z" transform="translate(-49.521 -40.372)" fill="#263238"/>
      <path id="Trazado_4948" data-name="Trazado 4948" d="M259.529,236.606a1.85,1.85,0,0,1-.5-.235c-.256-.16-.448-.309-.438-.342a1.5,1.5,0,0,1,.5.245C259.348,236.425,259.54,236.574,259.529,236.606Z" transform="translate(-49.834 -40.37)" fill="#263238"/>
      <path id="Trazado_4949" data-name="Trazado 4949" d="M259.684,244.6a1.516,1.516,0,0,1-.864-.865A8.268,8.268,0,0,0,259.684,244.6Z" transform="translate(-49.818 -39.851)" fill="#263238"/>
      <path id="Trazado_4950" data-name="Trazado 4950" d="M264.349,243.69a3.333,3.333,0,0,1-.395.406.288.288,0,1,1-.075-.085C264.114,243.808,264.328,243.658,264.349,243.69Z" transform="translate(-49.509 -39.854)" fill="#263238"/>
      <path id="Trazado_4951" data-name="Trazado 4951" d="M259.92,255.071a5.015,5.015,0,0,1-.374.352c-.213.181-.395.352-.416.331s.117-.213.342-.406S259.909,255,259.92,255.071Z" transform="translate(-49.798 -39.089)" fill="#263238"/>
      <path id="Trazado_4952" data-name="Trazado 4952" d="M264.541,255.591a1.238,1.238,0,0,1-.438-.288c-.224-.181-.384-.342-.363-.363a1.127,1.127,0,0,1,.427.277,1.5,1.5,0,0,1,.374.374Z" transform="translate(-49.487 -39.097)" fill="#263238"/>
      <path id="Trazado_4953" data-name="Trazado 4953" d="M260.141,259.757a2.038,2.038,0,0,1-.523-.406,1.773,1.773,0,0,1-.448-.491,2.03,2.03,0,0,1,.523.406,2,2,0,0,1,.449.491Z" transform="translate(-49.795 -38.833)" fill="#263238"/>
      <path id="Trazado_4954" data-name="Trazado 4954" d="M264.759,258.69a1.823,1.823,0,0,1-.427.47,1.774,1.774,0,0,1-.5.395,1.82,1.82,0,0,1,.427-.47A1.778,1.778,0,0,1,264.759,258.69Z" transform="translate(-49.481 -38.844)" fill="#263238"/>
      <path id="Trazado_4955" data-name="Trazado 4955" d="M260.185,270a2.311,2.311,0,0,1-.32.427c-.2.213-.374.374-.4.352s.117-.213.32-.427A2.055,2.055,0,0,1,260.185,270Z" transform="translate(-49.775 -38.083)" fill="#263238"/>
      <path id="Trazado_4956" data-name="Trazado 4956" d="M264.965,270.636a1.542,1.542,0,0,1-.47-.32c-.246-.2-.416-.384-.395-.406a1.534,1.534,0,0,1,.47.32C264.8,270.422,264.986,270.6,264.965,270.636Z" transform="translate(-49.463 -38.089)" fill="#263238"/>
      <path id="Trazado_4957" data-name="Trazado 4957" d="M209.138,233.381a2.339,2.339,0,0,1-.534.064l-1.558.075-5.86.213-20.556.587h-.213v-.213c-1.121-5.71-2.359-12.039-3.661-18.689l-6.351-33.033c-.779-4.195-1.42-7.61-1.868-10.022l-.48-2.732a4.067,4.067,0,0,0-.107-.715.842.842,0,0,1,0-.245,1.074,1.074,0,0,1,.075.235,3.308,3.308,0,0,0,.171.7c.139.672.331,1.569.576,2.711l2.039,9.99,6.511,33c1.291,6.66,2.508,12.989,3.618,18.7l-.256-.213,20.556-.384,5.87-.075h1.452A3,3,0,0,1,209.138,233.381Z" transform="translate(-55.936 -44.904)" fill="#263238"/>
      <path id="Trazado_4958" data-name="Trazado 4958" d="M374.166,105.45l51.978,64.092-6.3.16L371.7,108.919Z" transform="translate(-42.22 -49.16)" fill="#d0dc64"/>
      <path id="Trazado_4959" data-name="Trazado 4959" d="M374.16,105.45l-.149.224-.448.662-1.8,2.626v-.1c6.4,7.9,25.509,31.9,48.307,60.656l-.224-.1,3.5-.085,2.8-.064-.213.448-36.652-45.4-11.057-13.758-2.988-3.768-.779-.993a3.184,3.184,0,0,1-.267-.352,2.729,2.729,0,0,1,.267.3l.779.939,3.01,3.661,11.143,13.6,36.993,45.425.363.438h-.566l-2.786.064-3.511.085h-.139l-.085-.107c-22.787-28.818-41.775-52.875-48.029-60.9h0l1.911-2.6.47-.63A.94.94,0,0,1,374.16,105.45Z" transform="translate(-42.225 -49.16)" fill="#263238"/>
      <path id="Trazado_4960" data-name="Trazado 4960" d="M335.243,165c0,.16-9.606.512-21.421.79s-21.442.395-21.442.235,9.606-.5,21.421-.79S335.233,164.886,335.243,165Z" transform="translate(-47.559 -45.155)" fill="#263238"/>
      <rect id="Rectángulo_2664" data-name="Rectángulo 2664" width="13.704" height="41.487" transform="translate(230.602 192.532) rotate(-1.37)" fill="#fff"/>
      <path id="Trazado_4961" data-name="Trazado 4961" d="M293.76,274.28a.578.578,0,0,1,0-.213v-.619c0-.576,0-1.355-.085-2.348-.064-2.071-.16-5.016-.288-8.688-.2-7.4-.491-17.717-.832-29.6l.278.267-13.694.331c.545-.566.15-.149.278-.277h0v3.074c0,1.067.053,2.049.075,3.052,0,2.017.1,4.013.139,5.956.085,3.885.171,7.621.245,11.153.139,7.033.267,13.235.363,18.23l-.181-.181,10.022-.139h3.682a.621.621,0,0,1-.224,0h-.672l-2.679.107-10.118.342h-.181v-.075c-.139-4.995-.31-11.2-.5-18.23-.1-3.533-.192-7.258-.288-11.153,0-1.943-.1-3.928-.149-5.945,0-1.067,0-2.028-.075-3.052V233.2h0c.128-.139-.267.267.277-.3l13.694-.32h.267v.267c.235,11.954.438,22.339.587,29.789.053,3.64.1,6.564.128,8.635v2.284A1.911,1.911,0,0,1,293.76,274.28Z" transform="translate(-48.47 -40.602)" fill="#263238"/>
      <path id="Trazado_4962" data-name="Trazado 4962" d="M293.114,243.233a42.423,42.423,0,0,1-6.841.438,42,42,0,0,1-6.852-.117,42.7,42.7,0,0,1,6.842-.437A40.466,40.466,0,0,1,293.114,243.233Z" transform="translate(-48.432 -39.899)" fill="#263238"/>
      <path id="Trazado_4963" data-name="Trazado 4963" d="M293.463,259.343a44.249,44.249,0,0,1-6.841.438,41.941,41.941,0,0,1-6.852-.117,42.56,42.56,0,0,1,6.841-.438A40.554,40.554,0,0,1,293.463,259.343Z" transform="translate(-48.408 -38.815)" fill="#263238"/>
      <path id="Trazado_4964" data-name="Trazado 4964" d="M286.587,274.3c-.16,0-.5-9.189-.769-20.535s-.374-20.546-.213-20.546.491,9.179.768,20.535S286.736,274.29,286.587,274.3Z" transform="translate(-48.021 -40.559)" fill="#263238"/>
      <rect id="Rectángulo_2665" data-name="Rectángulo 2665" width="13.704" height="41.487" transform="translate(317.949 190.348) rotate(-1.37)" fill="#fff"/>
      <path id="Trazado_4965" data-name="Trazado 4965" d="M375.6,272.257a1.136,1.136,0,0,1,0-.224v-.619c0-.576-.053-1.356-.1-2.348-.064-2.071-.16-5.016-.278-8.688-.214-7.4-.5-17.717-.833-29.6l.278.267-13.694.331c.534-.566.149-.149.267-.278v3.085c0,1.067,0,2.049.064,3.053,0,2.028.1,4.013.139,5.956.085,3.885.171,7.621.246,11.154.149,7.034.267,13.235.373,18.23l-.192-.181,10.022-.139h2.786l-2.668.107-10.129.342h-.181v-.182c-.139-4.995-.32-11.2-.512-18.23-.085-3.533-.181-7.258-.288-11.153,0-1.943-.1-3.928-.139-5.945,0-1.067,0-2.028-.075-3.052v-3.074h0c.117-.139-.277.267.267-.3l13.694-.32h.245v.267c.235,11.954.438,22.339.587,29.789.053,3.65.107,6.575.128,8.635v2.284C375.613,271.979,375.613,272.267,375.6,272.257Z" transform="translate(-42.963 -40.745)" fill="#263238"/>
      <path id="Trazado_4966" data-name="Trazado 4966" d="M374.384,241.483a42.693,42.693,0,0,1-6.841.437,40.707,40.707,0,0,1-6.863-.117,44.266,44.266,0,0,1,6.841-.437A42.105,42.105,0,0,1,374.384,241.483Z" transform="translate(-42.962 -40.017)" fill="#263238"/>
      <path id="Trazado_4967" data-name="Trazado 4967" d="M374.724,257.593a42.539,42.539,0,0,1-6.841.438,40.545,40.545,0,0,1-6.852-.117,42.707,42.707,0,0,1,6.842-.437A41.933,41.933,0,0,1,374.724,257.593Z" transform="translate(-42.938 -38.932)" fill="#263238"/>
      <path id="Trazado_4968" data-name="Trazado 4968" d="M367.847,272.591c-.16,0-.5-9.19-.769-20.535s-.374-20.546-.213-20.546.491,9.19.769,20.535S368,272.591,367.847,272.591Z" transform="translate(-42.55 -40.674)" fill="#263238"/>
      <rect id="Rectángulo_2666" data-name="Rectángulo 2666" width="13.704" height="41.487" transform="translate(334.048 190.262) rotate(-1.37)" fill="#fff"/>
      <path id="Trazado_4969" data-name="Trazado 4969" d="M390.682,272.162v-.833c0-.576-.053-1.355-.085-2.348-.075-2.071-.171-5.016-.288-8.688-.214-7.407-.5-17.728-.833-29.6l.278.256-13.694.342c.534-.576.149-.149.267-.278h0v3.074c0,1.067,0,2.039.075,3.052,0,2.017.086,4,.139,5.956.085,3.885.16,7.621.245,11.143.139,7.034.267,13.245.363,18.23l-.182-.171,10.011-.139h2.786l-2.668.107-10.129.341h-.181v-.182c-.139-4.984-.31-11.2-.512-18.23-.085-3.522-.182-7.258-.277-11.143-.053-1.953-.1-3.938-.15-5.956,0-1-.053-2.028-.075-3.052v-3.01h0c.117-.128-.278.278.278-.288l13.694-.32h.267v.267c.246,11.954.448,22.35.587,29.8.064,3.64.107,6.564.139,8.624v2.295A5.783,5.783,0,0,1,390.682,272.162Z" transform="translate(-41.948 -40.747)" fill="#263238"/>
      <path id="Trazado_4970" data-name="Trazado 4970" d="M390.044,241.1a41.942,41.942,0,0,1-6.842.448,43.454,43.454,0,0,1-6.852-.117A86.291,86.291,0,0,1,390.044,241.1Z" transform="translate(-41.907 -40.038)" fill="#263238"/>
      <path id="Trazado_4971" data-name="Trazado 4971" d="M390.394,257.208a41.9,41.9,0,0,1-6.842.448,43.581,43.581,0,0,1-6.863-.117A86.4,86.4,0,0,1,390.394,257.208Z" transform="translate(-41.884 -38.953)" fill="#263238"/>
      <path id="Trazado_4972" data-name="Trazado 4972" d="M383.507,272.171c-.149,0-.491-9.189-.768-20.524s-.363-20.546-.214-20.556.5,9.189.768,20.535S383.667,272.171,383.507,272.171Z" transform="translate(-41.496 -40.702)" fill="#263238"/>
      <rect id="Rectángulo_2667" data-name="Rectángulo 2667" width="13.704" height="41.487" transform="translate(171.471 193.945) rotate(-1.37)" fill="#fff"/>
      <path id="Trazado_4973" data-name="Trazado 4973" d="M238.346,275.635V274.8c0-.576-.053-1.356-.085-2.348-.075-2.081-.171-5.016-.288-8.688-.2-7.407-.491-17.728-.832-29.607l.277.267-13.694.342c.534-.576.149-.16.267-.277h0v3.074c0,1.067.053,2.038.075,3.053,0,2.017.1,4,.139,5.945.085,3.9.171,7.631.245,11.154.139,7.034.267,13.245.363,18.23l-.181-.171,10.076-.139h2.775l-2.668.117-10.118.342h-.182v-.182c-.139-4.984-.31-11.2-.5-18.23-.1-3.522-.192-7.258-.288-11.143,0-1.953-.1-3.938-.149-5.955,0-1.014,0-2.028-.075-3.053v-3.074h0l.278-.3,13.694-.309h.267v.267c.235,11.954.438,22.339.587,29.789.053,3.65.1,6.575.128,8.635v2.295A5.814,5.814,0,0,1,238.346,275.635Z" transform="translate(-52.196 -40.517)" fill="#263238"/>
      <path id="Trazado_4974" data-name="Trazado 4974" d="M237.714,244.553a42.472,42.472,0,0,1-6.842.438,42.768,42.768,0,0,1-6.852-.107,41.929,41.929,0,0,1,6.842-.448,43.448,43.448,0,0,1,6.852.117Z" transform="translate(-52.161 -39.81)" fill="#263238"/>
      <path id="Trazado_4975" data-name="Trazado 4975" d="M238.064,260.663a42.689,42.689,0,0,1-6.841.438,42.69,42.69,0,0,1-6.852-.107,41.636,41.636,0,0,1,6.841-.448A43.5,43.5,0,0,1,238.064,260.663Z" transform="translate(-52.137 -38.725)" fill="#263238"/>
      <path id="Trazado_4976" data-name="Trazado 4976" d="M231.177,275.591c-.149,0-.491-9.189-.769-20.535s-.363-20.546-.213-20.546.5,9.19.768,20.535S231.337,275.591,231.177,275.591Z" transform="translate(-51.75 -40.472)" fill="#263238"/>
      <rect id="Rectángulo_2668" data-name="Rectángulo 2668" width="30.952" height="22.947" transform="translate(191.767 157.166) rotate(-1.37)" fill="#fff"/>
      <path id="Trazado_4977" data-name="Trazado 4977" d="M274.169,222.229a2.631,2.631,0,0,1,0-.438,11.246,11.246,0,0,0-.053-1.238c0-1.067-.1-2.679-.171-4.653-.128-4.024-.3-9.723-.512-16.607l.224.213-30.952.8c-.064.053.512-.544.267-.288h0v3.042c0,1.014,0,2.028.075,3.021,0,2.006.085,3.97.139,5.892.085,3.842.16,7.471.235,10.972l-.256-.245,22.275-.416,6.4-.085h1.7a3.986,3.986,0,0,1,.608,0,3.693,3.693,0,0,1-.544,0l-1.654.064-6.308.224-22.414.662h-.192V222.9c-.085-3.458-.181-7.13-.278-10.972-.053-1.921-.1-3.885-.149-5.881,0-1,0-2.007-.075-3.031v-2.956h0c-.235.256.331-.341.277-.288l30.952-.683H274v.235c.118,6.948.214,12.69.288,16.757v5.8a1.477,1.477,0,0,1-.117.352Z" transform="translate(-50.919 -42.856)" fill="#263238"/>
      <path id="Trazado_4978" data-name="Trazado 4978" d="M265.537,204.81a53.376,53.376,0,0,1-6.244,4.5,52.216,52.216,0,0,1-6.553,4.045,54.852,54.852,0,0,1,6.244-4.5A53.8,53.8,0,0,1,265.537,204.81Z" transform="translate(-50.228 -42.471)" fill="#263238"/>
      <path id="Trazado_4979" data-name="Trazado 4979" d="M257.609,212.53a20.151,20.151,0,0,1-5.7,3.575A20.151,20.151,0,0,1,257.609,212.53Z" transform="translate(-50.283 -41.952)" fill="#263238"/>
      <rect id="Rectángulo_2669" data-name="Rectángulo 2669" width="30.952" height="22.947" transform="translate(262.864 197.453) rotate(-1.37)" fill="#fff"/>
      <path id="Trazado_4980" data-name="Trazado 4980" d="M340.8,259.985a2.694,2.694,0,0,1,0-.448V258.31c0-1.067-.107-2.679-.171-4.653-.128-4.024-.31-9.723-.523-16.618l.235.224-30.952.79.267-.278h0v3.042c0,1.014.053,2.028.075,3.02q.064,3,.128,5.892c.085,3.842.171,7.471.245,10.961l-.256-.245,22.264-.406,6.4-.085h1.708a3.968,3.968,0,0,1,.608,0h-.544l-1.654.064-6.318.214-22.414.662h-.245v-.256c-.085-3.447-.181-7.119-.277-10.961-.053-1.921-.1-3.885-.149-5.891,0-.993-.053-2.007-.075-3.021v-3.042h0l.277-.288,30.952-.683h.235v.267c.118,6.948.214,12.7.278,16.768,0,1.953,0,3.5.053,4.6v1.2A2.687,2.687,0,0,1,340.8,259.985Z" transform="translate(-46.43 -40.321)" fill="#263238"/>
      <path id="Trazado_4981" data-name="Trazado 4981" d="M332.167,242.56a53.349,53.349,0,0,1-6.244,4.5,53.789,53.789,0,0,1-6.553,4.045,107.12,107.12,0,0,1,12.808-8.539Z" transform="translate(-45.743 -39.93)" fill="#263238"/>
      <path id="Trazado_4982" data-name="Trazado 4982" d="M324.239,250.28a10.383,10.383,0,0,1-2.7,2.017,10.612,10.612,0,0,1-3,1.558,10.273,10.273,0,0,1,2.7-2.028A10.591,10.591,0,0,1,324.239,250.28Z" transform="translate(-45.798 -39.411)" fill="#263238"/>
      <rect id="Rectángulo_2670" data-name="Rectángulo 2670" width="30.952" height="30.952" transform="translate(312.913 124.936) rotate(-1.37)" fill="#fff"/>
      <path id="Trazado_4983" data-name="Trazado 4983" d="M387.876,200.05a5.758,5.758,0,0,1,0-.6c0-.416,0-.971-.064-1.676-.053-1.5-.117-3.629-.214-6.318-.16-5.433-.384-13.128-.662-22.35l.245.235-30.952.779c-.064.053.512-.544.278-.288h0V174.1q0,2.135.1,4.13.1,4.1.182,8c.117,5.187.224,10.1.32,14.59l-.245-.235,22.36-.406,6.319-.085h1.676a3.878,3.878,0,0,1,.6,0,3.1,3.1,0,0,1-.534,0l-1.633.075-6.265.213-22.51.651h-.235v-.235c-.117-4.5-.235-9.4-.374-14.6q-.1-3.906-.2-8.005c0-1.355-.064-2.743-.1-4.13,0-.694,0-1.4-.054-2.135V169.8h0l.278-.3,30.952-.694h.246v.245c.181,9.286.32,17.077.416,22.51,0,2.668.075,4.782.1,6.265v1.633a2.887,2.887,0,0,1-.021.587Z" transform="translate(-43.283 -44.895)" fill="#263238"/>
      <path id="Trazado_4984" data-name="Trazado 4984" d="M379.047,174.78a52.627,52.627,0,0,1-6.244,4.515,54.154,54.154,0,0,1-6.543,4.045,52.3,52.3,0,0,1,6.244-4.5A55.157,55.157,0,0,1,379.047,174.78Z" transform="translate(-42.586 -44.493)" fill="#263238"/>
      <path id="Trazado_4985" data-name="Trazado 4985" d="M371.13,182.51a10.565,10.565,0,0,1-2.711,2.017,10.439,10.439,0,0,1-3,1.547,10.568,10.568,0,0,1,2.754-1.974A9.823,9.823,0,0,1,371.13,182.51Z" transform="translate(-42.643 -43.973)" fill="#263238"/>
      <rect id="Rectángulo_2671" data-name="Rectángulo 2671" width="23.321" height="8.635" transform="translate(364.755 160.419) rotate(-1.37)" fill="#ebebeb"/>
      <path id="Trazado_4986" data-name="Trazado 4986" d="M426.731,189.22a.961.961,0,1,1-.293-.68.961.961,0,0,1,.293.68Z" transform="translate(-38.645 -43.585)" fill="#263238"/>
      <path id="Trazado_4987" data-name="Trazado 4987" d="M193.472,275.75l-9.787.235-7.535,6.436,10.438,1.825,13.683-3.234Z" transform="translate(-55.383 -37.696)" fill="#e0e0e0"/>
      <path id="Trazado_4988" data-name="Trazado 4988" d="M197.77,275.639l3.757,4.077,8.026.672,1.27-5.059Z" transform="translate(-53.928 -37.724)" fill="#e0e0e0"/>
      <path id="Trazado_4989" data-name="Trazado 4989" d="M214.241,275.241l-3.191,5.614,10.107,5.006,8.016-8.208-7.482-2.594Z" transform="translate(-53.034 -37.742)" fill="#e0e0e0"/>
      <path id="Trazado_4990" data-name="Trazado 4990" d="M500.639,267.291c0,.149-89.27,2.412-199.364,5.038s-199.385,4.643-199.4,4.493,89.249-2.412,199.385-5.049S500.639,267.13,500.639,267.291Z" transform="translate(-60.383 -38.266)" fill="#263238"/>
      <rect id="Rectángulo_2672" data-name="Rectángulo 2672" width="10.022" height="3.138" transform="translate(202.021 185.021) rotate(-1.37)" fill="#e0e0e0"/>
      <path id="Trazado_4991" data-name="Trazado 4991" d="M228.38,274.911l6.3,4.013,7.311-4.344Z" transform="translate(-51.867 -37.775)" fill="#e0e0e0"/>
      <path id="Trazado_4992" data-name="Trazado 4992" d="M239.15,279.236l6.745-4.728,11.655-.277-3.9,8.144Z" transform="translate(-51.142 -37.798)" fill="#e0e0e0"/>
      <path id="Trazado_4993" data-name="Trazado 4993" d="M259.042,274.168l-1.142,5.817,11.164-.267-4.451-5.678Z" transform="translate(-49.88 -37.811)" fill="#e0e0e0"/>
      <path id="Trazado_4994" data-name="Trazado 4994" d="M268.24,274.206l6.212,5.123,11.271-5.539Z" transform="translate(-49.184 -37.828)" fill="#e0e0e0"/>
      <path id="Trazado_4995" data-name="Trazado 4995" d="M288.5,273.746l-5.636,4.034,9.947,3.661,12.071-2.562,1.75-4.611L301,273.18Z" transform="translate(-48.2 -37.869)" fill="#e0e0e0"/>
      <path id="Trazado_4996" data-name="Trazado 4996" d="M310.258,273.842l-1.548,3.116,5.486,1.622,4.013-4.931Z" transform="translate(-46.46 -37.838)" fill="#e0e0e0"/>
      <path id="Trazado_4997" data-name="Trazado 4997" d="M321.937,272.934l-3.607,5.219,6.959,4.333,13.341-2.722,6.084-7.375Z" transform="translate(-45.813 -37.922)" fill="#e0e0e0"/>
      <path id="Trazado_4998" data-name="Trazado 4998" d="M142.833,271.755c2.4-.768,5.9,1.142,7.877,2.69-.672-2.134,1.26-4.333,3.426-4.813s4.387.245,6.489.971a7.653,7.653,0,0,1,12.808-8.112,14.942,14.942,0,0,1,13.438,4.654c-.8-.8.181-2.316,1.313-2.327a3.693,3.693,0,0,1,2.754,1.761,15.38,15.38,0,0,1,3.2,8.357l-55.628,1.388a6.105,6.105,0,0,1,4.323-4.568Z" transform="translate(-57.917 -38.771)" fill="#455a64"/>
      <path id="Trazado_4999" data-name="Trazado 4999" d="M338.555,268.7a3.938,3.938,0,0,0-7.386-.213,6,6,0,0,0-1.985-3.319,3.469,3.469,0,0,0-3.682-.438,2.476,2.476,0,0,0-.982,3.351l-7.087-5.913c-.736-.6-1.836-1.206-2.529-.555a1.9,1.9,0,0,0-.331,1.654,26.181,26.181,0,0,0,1.644,6.5,5.764,5.764,0,0,0-5.038-1.59,7.3,7.3,0,0,0-4.568,3.885l41.519-.993A7.14,7.14,0,0,0,338.555,268.7Z" transform="translate(-46.601 -38.666)" fill="#455a64"/>
      <path id="Trazado_5000" data-name="Trazado 5000" d="M403.661,157.4v.907c0,.63,0,1.516.1,2.647.075,2.348.182,5.721.31,9.979.235,8.538.555,20.759.939,35.147l-.256-.246,23.31-.587h.278v.277c.064,2.743.139,5.667.2,8.635v.277h-2.476l-21.111.5.256-.277c.384,17.782.726,33.2.96,44.208.1,5.475.181,9.851.235,12.883V276.1a.958.958,0,0,1,0,.3v-1.2c0-.811-.064-1.964-.128-3.437-.085-3.042-.214-7.407-.384-12.883-.288-11-.694-26.427-1.153-44.208v-.267h.278l21.1-.512,2.209-.053-.278.288c-.064-2.967-.139-5.881-.2-8.635l.288.267-23.321.534h-.246v-.224c-.3-14.387-.555-26.555-.736-35.147-.075-4.269-.128-7.642-.171-9.99v-3.319A1.024,1.024,0,0,1,403.661,157.4Z" transform="translate(-40.069 -45.663)" fill="#263238"/>
      <path id="Trazado_5001" data-name="Trazado 5001" d="M338.574,225.764c-.16,0-.651-15.369-1.067-34.346s-.693-34.357-.544-34.368.64,15.38,1.067,34.357S338.724,225.764,338.574,225.764Z" transform="translate(-44.561 -45.686)" fill="#263238"/>
      <path id="Trazado_5002" data-name="Trazado 5002" d="M161.255,275.691c-.16,0-.534-10.534-.843-23.545s-.438-23.545-.288-23.556.534,10.534.843,23.545S161.4,275.691,161.255,275.691Z" transform="translate(-56.466 -40.871)" fill="#263238"/>
      <path id="Trazado_5003" data-name="Trazado 5003" d="M183.453,319.911c-.149,0-.886-7.258-1.644-16.234s-1.238-16.277-1.067-16.287.886,7.258,1.644,16.234S183.613,319.9,183.453,319.911Z" transform="translate(-55.077 -36.913)" fill="#263238"/>
      <path id="Trazado_5004" data-name="Trazado 5004" d="M168.8,145.668c-.15,0-1.676-16.543-3.394-36.982s-2.988-37.015-2.828-37.025,1.665,16.543,3.383,36.982S168.953,145.668,168.8,145.668Z" transform="translate(-56.298 -51.434)" fill="#263238"/>
      <path id="Trazado_5005" data-name="Trazado 5005" d="M261.114,342.517c-.149,0-.672-12.477-1.163-27.867s-.747-27.889-.6-27.9.672,12.477,1.163,27.878S261.274,342.517,261.114,342.517Z" transform="translate(-49.785 -36.956)" fill="#263238"/>
      <path id="Trazado_5006" data-name="Trazado 5006" d="M255.46,163.373c-.15,0-.769-15.519-1.366-34.666s-.971-34.666-.822-34.677.768,15.519,1.377,34.666S255.62,163.373,255.46,163.373Z" transform="translate(-50.194 -49.929)" fill="#263238"/>
      <path id="Trazado_5007" data-name="Trazado 5007" d="M342.586,306.529c-.15,0-.267-5.433-.246-12.125s.149-12.114.31-12.114.267,5.422.246,12.125S342.746,306.529,342.586,306.529Z" transform="translate(-44.196 -37.256)" fill="#263238"/>
      <path id="Trazado_5008" data-name="Trazado 5008" d="M343.085,97.816c-.16,0-.256-8.432-.235-18.838s.171-18.838.32-18.838.256,8.432.235,18.838S343.235,97.816,343.085,97.816Z" transform="translate(-44.162 -52.21)" fill="#263238"/>
      <path id="Trazado_5009" data-name="Trazado 5009" d="M424.83,327.489c-.16,0-.395-10.748-.534-24s-.128-24.015,0-24.015.4,10.748.534,24S424.98,327.489,424.83,327.489Z" transform="translate(-38.686 -37.446)" fill="#263238"/>
      <path id="Trazado_5010" data-name="Trazado 5010" d="M422.4,96.317a52.975,52.975,0,0,1-.352-7.578,53.7,53.7,0,0,1,.192-7.589,50.244,50.244,0,0,1,.363,7.578,50.782,50.782,0,0,1-.2,7.589Z" transform="translate(-38.835 -50.796)" fill="#263238"/>
      <path id="Trazado_5011" data-name="Trazado 5011" d="M225.03,287.362l5.71-7.332,4.835,1.462,2.85-1.4,7.994,2.359.171,7.13-7.749,2.38Z" transform="translate(-52.093 -37.408)" fill="#f5f5f5"/>
      <path id="Trazado_5012" data-name="Trazado 5012" d="M202.922,282.318l4.653-.117,9.83,4.643-9.488,3.981-14.217-4.76Z" transform="translate(-54.202 -37.262)" fill="#f5f5f5"/>
      <path id="Trazado_5013" data-name="Trazado 5013" d="M247.94,283.7l.107,4.75,9.2-2.593-1.6-2.348Z" transform="translate(-50.551 -37.174)" fill="#f5f5f5"/>
      <path id="Trazado_5014" data-name="Trazado 5014" d="M276.028,281.74l6.372-2.7,10.652,4.739-9.19,2.444L271.15,284.3Z" transform="translate(-48.988 -37.475)" fill="#f5f5f5"/>
      <path id="Trazado_5015" data-name="Trazado 5015" d="M296.411,282.712l10.342-2.882,5.9.672,2,3.458-12.381,3.373-8.09-3.5Z" transform="translate(-47.438 -37.421)" fill="#f5f5f5"/>
      <path id="Trazado_5016" data-name="Trazado 5016" d="M314.95,280.38l.085,3.522,12.637,1.537Z" transform="translate(-46.04 -37.384)" fill="#f5f5f5"/>
      <path id="Trazado_5017" data-name="Trazado 5017" d="M169.735,283.522l8.571-6.532-16.394.4-9.851,2.209,6.607,5.283Z" transform="translate(-57.005 -37.613)" fill="#f5f5f5"/>
      <path id="Trazado_5018" data-name="Trazado 5018" d="M153.273,283.175l-6-5.465L135.31,278l1.334,3.672,9.061,3.223Z" transform="translate(-58.132 -37.564)" fill="#f5f5f5"/>
      <path id="Trazado_5019" data-name="Trazado 5019" d="M342.25,279.378l4.952-6.415,9.062-.213,2.252,5.347-6.126,3.672Z" transform="translate(-44.202 -37.898)" fill="#f5f5f5"/>
      <path id="Trazado_5020" data-name="Trazado 5020" d="M359.34,272.674l2.2,4.525,6.97-.619,6.617-4.28Z" transform="translate(-43.052 -37.928)" fill="#f5f5f5"/>
    </g>
    <g id="freepik--character-2--inject-51" transform="translate(568.113 130.315)">
      <path id="Trazado_5032" data-name="Trazado 5032" d="M568.318,233.831a12.8,12.8,0,0,0-1.985-5.187c-1.761-2.711-6.4-5.763-6.543-7.909s-2.5-1.2-2.743,1.366c-.149,1.633,1.857,6.607,1.857,6.607s-4-.15-6.083-2.295-10.044-7.247-11.324-6.3c-1.452,1.067.693,2.135,1.515,3.031.63.63,5.582,5.176,5.582,5.176s-11.41-3.725-13.021-3.6-.533,2.007.181,2.241c.459.149-1.409.95-.384,2.658.694,1.153,5.123,3.554,6.4,3.949l2.668.811-8.378-1.494s-1.783.875,0,2.135c.79.555,24.42,11.228,26.309,11.89,3.2,1.153,7.93,2.626,7.93,2.626l4.035-13.7Z" transform="translate(-534.733 -118.254)" fill="#a26760"/>
      <path id="Trazado_5033" data-name="Trazado 5033" d="M653.935,449.63v28.145l-34.965.171c.182-3.352,18.24-10.14,18.24-10.14l-.736-18.006Z" transform="translate(-529.063 -102.766)" fill="#455a64"/>
      <g id="Grupo_1316" data-name="Grupo 1316" transform="translate(117.246 363.408)" opacity="0.6">
        <path id="Trazado_5034" data-name="Trazado 5034" d="M646.288,465.162a1.43,1.43,0,0,1,.992,1.622,1.377,1.377,0,0,1-1.6,1,1.5,1.5,0,0,1-1.067-1.729,1.419,1.419,0,0,1,1.782-.854" transform="translate(-644.585 -465.131)" fill="#fff"/>
      </g>
      <g id="Grupo_1317" data-name="Grupo 1317" transform="translate(89.882 372.17)" opacity="0.6">
        <path id="Trazado_5035" data-name="Trazado 5035" d="M653.926,476.179V473.34l-33.6,1.227s-1.547.683-1.366,1.782Z" transform="translate(-618.946 -473.34)" fill="#fff"/>
      </g>
      <path id="Trazado_5036" data-name="Trazado 5036" d="M635.52,466.469c0,.171.864.246,1.708.79s1.292,1.26,1.441,1.2-.1-1.067-1.131-1.7S635.477,466.32,635.52,466.469Z" transform="translate(-527.949 -101.643)" fill="#263238"/>
      <path id="Trazado_5037" data-name="Trazado 5037" d="M632.09,467.9c0,.171.7.459,1.292,1.174s.747,1.484.918,1.473.278-.971-.47-1.857S632.09,467.744,632.09,467.9Z" transform="translate(-528.18 -101.541)" fill="#263238"/>
      <path id="Trazado_5038" data-name="Trazado 5038" d="M630.243,472.185c.149,0,.385-.811,0-1.75s-1.249-1.3-1.313-1.152.417.64.769,1.409S630.073,472.185,630.243,472.185Z" transform="translate(-528.393 -101.446)" fill="#263238"/>
      <path id="Trazado_5039" data-name="Trazado 5039" d="M635.791,462.638c.074.16.854-.086,1.814,0s1.729.363,1.814.214-.641-.747-1.783-.811S635.7,462.51,635.791,462.638Z" transform="translate(-527.931 -101.931)" fill="#263238"/>
      <path id="Trazado_5040" data-name="Trazado 5040" d="M636.55,458.888a3.2,3.2,0,0,0,1.751,0,7.852,7.852,0,0,0,1.835-.565,8.5,8.5,0,0,0,1-.544,2.033,2.033,0,0,0,.522-.406.757.757,0,0,0,.076-.918.96.96,0,0,0-.747-.384,2.013,2.013,0,0,0-.662.1,6.521,6.521,0,0,0-1.068.373,6.408,6.408,0,0,0-1.612,1.067c-.8.747-1.067,1.388-1.014,1.42s.47-.48,1.292-1.067a6.4,6.4,0,0,1,1.558-.886,6.537,6.537,0,0,1,1-.32c.363-.1.683-.107.779.064s0,.085,0,.192a1.517,1.517,0,0,1-.384.309,9.014,9.014,0,0,1-.918.523,9.14,9.14,0,0,1-1.7.662A12.635,12.635,0,0,0,636.55,458.888Z" transform="translate(-527.88 -102.333)" fill="#263238"/>
      <path id="Trazado_5041" data-name="Trazado 5041" d="M636.9,459.29a2.82,2.82,0,0,0,.459-1.7,5.876,5.876,0,0,0-.256-1.911,5.7,5.7,0,0,0-.448-1.067,1.452,1.452,0,0,0-1.068-.875.811.811,0,0,0-.726.491,2.355,2.355,0,0,0-.181.64,3.667,3.667,0,0,0,0,1.185,4.049,4.049,0,0,0,.747,1.8,2.806,2.806,0,0,0,1.42,1.067,5.177,5.177,0,0,1-1.067-1.281,4.156,4.156,0,0,1-.566-1.644,3.627,3.627,0,0,1,0-1.014c.053-.373.192-.672.331-.63a1.23,1.23,0,0,1,.608.566,5.9,5.9,0,0,1,.448.95,6.411,6.411,0,0,1,.342,1.74C636.988,458.628,636.807,459.258,636.9,459.29Z" transform="translate(-528.008 -102.49)" fill="#263238"/>
      <path id="Trazado_5042" data-name="Trazado 5042" d="M676.854,447.9l-.278,29.992-37.356-.16c.235-3.565,19.6-10.673,19.6-10.673l-.609-19.212Z" transform="translate(-527.7 -102.886)" fill="#455a64"/>
      <g id="Grupo_1318" data-name="Grupo 1318" transform="translate(140.912 362.644)" opacity="0.6">
        <path id="Trazado_5043" data-name="Trazado 5043" d="M668.511,464.442a1.527,1.527,0,0,1,1.067,1.74,1.452,1.452,0,0,1-1.718,1.067,1.611,1.611,0,0,1-1.067-1.857,1.526,1.526,0,0,1,1.91-.9" transform="translate(-666.758 -464.415)" fill="#fff"/>
      </g>
      <g id="Grupo_1319" data-name="Grupo 1319" transform="translate(111.464 371.978)" opacity="0.6">
        <path id="Trazado_5044" data-name="Trazado 5044" d="M676.58,476.191V473.16l-35.915.982s-1.665.715-1.483,1.889Z" transform="translate(-639.167 -473.16)" fill="#fff"/>
      </g>
      <path id="Trazado_5045" data-name="Trazado 5045" d="M657,465.742c0,.181.918.267,1.814.854s1.366,1.366,1.537,1.292-.149-1.131-1.217-1.857S657,465.572,657,465.742Z" transform="translate(-526.503 -101.695)" fill="#263238"/>
      <path id="Trazado_5046" data-name="Trazado 5046" d="M653.32,467.234c0,.181.747.491,1.366,1.27s.789,1.59.971,1.58.3-1.067-.48-1.985S653.32,467.063,653.32,467.234Z" transform="translate(-526.751 -101.586)" fill="#263238"/>
      <path id="Trazado_5047" data-name="Trazado 5047" d="M651.3,471.819c.171,0,.427-.875,0-1.879s-1.323-1.4-1.4-1.249.448.694.822,1.516S651.074,471.8,651.3,471.819Z" transform="translate(-526.981 -101.485)" fill="#263238"/>
      <path id="Trazado_5048" data-name="Trazado 5048" d="M657.32,461.641c.075.171.918-.075,1.953,0s1.825.395,1.921.245-.672-.811-1.889-.886S657.235,461.5,657.32,461.641Z" transform="translate(-526.482 -102.001)" fill="#263238"/>
      <path id="Trazado_5049" data-name="Trazado 5049" d="M658.17,457.638a3.55,3.55,0,0,0,1.879,0,8.077,8.077,0,0,0,1.964-.6,7.433,7.433,0,0,0,1.067-.566,2.017,2.017,0,0,0,.577-.437.79.79,0,0,0,.085-.971,1.068,1.068,0,0,0-.8-.416,2.3,2.3,0,0,0-.7.1,6.493,6.493,0,0,0-1.163.4,6.615,6.615,0,0,0-1.729,1.121c-.875.8-1.174,1.483-1.067,1.516s.512-.5,1.4-1.163a7.335,7.335,0,0,1,1.665-.939,7.013,7.013,0,0,1,1.067-.32c.395-.107.736-.107.833.075s0,.085,0,.2a1.754,1.754,0,0,1-.416.32,9.443,9.443,0,0,1-.992.566,10.484,10.484,0,0,1-1.8.683A12.871,12.871,0,0,0,658.17,457.638Z" transform="translate(-526.424 -102.429)" fill="#263238"/>
      <path id="Trazado_5050" data-name="Trazado 5050" d="M658.554,458.076a3.051,3.051,0,0,0,.5-1.8,5.86,5.86,0,0,0-.725-3.2,1.537,1.537,0,0,0-1.185-.95.865.865,0,0,0-.79.512,2.723,2.723,0,0,0-.192.694,4.345,4.345,0,0,0,.79,3.2c.726.971,1.484,1.2,1.495,1.131a6.65,6.65,0,0,1-1.068-1.377,4.192,4.192,0,0,1-.587-1.761,3.669,3.669,0,0,1,0-1.067c0-.406.2-.726.352-.683a1.343,1.343,0,0,1,.651.619,6.089,6.089,0,0,1,.459,1.014,6.991,6.991,0,0,1,.363,1.868C658.65,457.329,658.447,458.044,658.554,458.076Z" transform="translate(-526.563 -102.599)" fill="#263238"/>
      <path id="Trazado_5051" data-name="Trazado 5051" d="M608.34,304.72s.651,18.817,2.924,29.767c2.231,10.673,16.223,65.757,16.223,65.757l8.539,74.168,19.382-1.068-6.244-159.98Z" transform="translate(-529.778 -112.521)" fill="#263238"/>
      <path id="Trazado_5052" data-name="Trazado 5052" d="M629.34,313.239s6.4,45.222,10.567,63.324,5.646,24.121,5.646,24.121,7.119,14.227,7.14,14.59l5.219,57.635h19.639s4.9-50.548,2.231-60.634-6.82-25.52-5.934-36.79,1.184-35.222,1.184-37.2S679.8,322.7,679.8,322.7a38.7,38.7,0,0,0,1.889-13.64C681.393,301.3,629.34,313.239,629.34,313.239Z" transform="translate(-528.365 -112.406)" fill="#263238"/>
      <path id="Trazado_5053" data-name="Trazado 5053" d="M652.834,413.24a.915.915,0,0,1-.149-.224l-.4-.683-1.473-2.626-5.336-9.766h0c-2.412-8.4-5.443-19.937-8.379-32.745-3.031-13.192-5.475-25.189-7.215-33.887-.832-4.269-1.516-7.823-2-10.31-.214-1.185-.384-2.135-.512-2.807a3.805,3.805,0,0,0-.117-.726.478.478,0,0,1,0-.256.867.867,0,0,1,.075.235,4.293,4.293,0,0,0,.171.726c.15.683.363,1.612.619,2.786.523,2.476,1.259,5.977,2.135,10.278,1.825,8.667,4.333,20.653,7.365,33.834,2.935,12.808,5.9,24.345,8.229,32.767h0L651,409.686l1.366,2.7c.139.288.256.512.341.7A.93.93,0,0,1,652.834,413.24Z" transform="translate(-528.506 -111.546)" fill="#455a64"/>
      <path id="Trazado_5054" data-name="Trazado 5054" d="M673.053,335.594a23.08,23.08,0,0,1-2.253-2.8,20.063,20.063,0,0,1-2.23-2.818,8.368,8.368,0,0,1,2.668,2.465A8.241,8.241,0,0,1,673.053,335.594Z" transform="translate(-525.724 -110.821)" fill="#455a64"/>
      <path id="Trazado_5055" data-name="Trazado 5055" d="M623.794,188.79s-7.567,3.394-10.961,7.8c-3.031,3.938-21.346,46.684-21.346,46.684l-21.838-8.816-7.908,16.586s24.079,12.968,31.464,14.078c7.941,1.185,13.737-.865,17.4-7.311s11.154-37.527,11.154-37.527Z" transform="translate(-532.915 -120.325)" fill="#2d1674"/>
      <path id="Trazado_5056" data-name="Trazado 5056" d="M684.421,297.983c-1.228-9.606-12.1-27.152-12.1-27.152l12-58.457c1.067-7.151-.779-16.671-6.521-20.823-1.922-1.387-6.148-3.576-8.539-3.938l-14.376-3.2-25.5,1.484-8.677,3.2s-13.224,28.615-12.316,42.372c.725,11.057,8.154,29.031,7.471,31.891-5.721,23.033-8.357,56.568-8.357,56.568a221.432,221.432,0,0,1,23.321,1.505c10.812,1.206,55.17,2.444,55.17,2.444S685.2,304,684.421,297.983Z" transform="translate(-529.835 -120.62)" fill="#2d1674"/>
      <path id="Trazado_5057" data-name="Trazado 5057" d="M615.194,203.57a6.179,6.179,0,0,1,.267,1.356c.138.993.31,2.252.523,3.768v.149a41.985,41.985,0,0,0-3.426,5.059,30.95,30.95,0,0,0-2.893,7.034,33.017,33.017,0,0,0-.609,13.256c.107.854.245,1.612.374,2.284s.234,1.249.341,1.718a6.639,6.639,0,0,1,.267,1.473,7.938,7.938,0,0,1-.469-1.419,16.149,16.149,0,0,1-.438-1.708c-.17-.662-.331-1.43-.47-2.284a31.484,31.484,0,0,1,.47-13.459,29.6,29.6,0,0,1,2.989-7.14A37.107,37.107,0,0,1,615.7,208.6v.139c-.139-1.526-.267-2.786-.352-3.789A7.5,7.5,0,0,1,615.194,203.57Z" transform="translate(-529.791 -119.33)" fill="#263238"/>
      <path id="Trazado_5058" data-name="Trazado 5058" d="M584.019,223.049s5.443-1.761,9.147,0S615.58,239.2,615.58,239.2l-3.117,11.089-4.269-3.5s-7,.971-9.723-1.75-5.838-5.262-5.838-5.262-2.807,4.483-4.27,4.269c-1.067-.192-1.772-3.757-1.772-3.757s-3.277.833-2.466-2.412l1.943-6.4a3.02,3.02,0,0,1,2.583-2.135l5.785-.576-3.117-2.529a26.409,26.409,0,0,1-6.233-.352C584.019,225.579,583.272,223.594,584.019,223.049Z" transform="translate(-531.436 -118.071)" fill="#a26760"/>
      <path id="Trazado_5059" data-name="Trazado 5059" d="M595.922,234.186c0,.053-.651-.32-1.718-.736a4.845,4.845,0,0,0-1.932-.352,4,4,0,0,0-2.21.854,7.771,7.771,0,0,0-2.4,3.672,15,15,0,0,1-.662,1.793,8.284,8.284,0,0,1,.427-1.846,10.428,10.428,0,0,1,.779-1.911,6.059,6.059,0,0,1,1.644-1.943,4.1,4.1,0,0,1,2.391-.9,4.709,4.709,0,0,1,2.028.438,8.155,8.155,0,0,1,1.228.651A1.549,1.549,0,0,1,595.922,234.186Z" transform="translate(-531.215 -117.361)" fill="#7b4b45"/>
      <path id="Trazado_5060" data-name="Trazado 5060" d="M597.011,228.928a7.37,7.37,0,0,0-1.708-.576,7.219,7.219,0,0,0-1.793.16,1.231,1.231,0,0,1,.47-.31,2.786,2.786,0,0,1,1.366-.171,2.9,2.9,0,0,1,1.281.48C596.915,228.715,597.032,228.9,597.011,228.928Z" transform="translate(-530.777 -117.685)" fill="#7b4b45"/>
      <path id="Trazado_5061" data-name="Trazado 5061" d="M679.522,222.852s-21.655,34.154-23.716,36.769c-4.547,5.721-10.609,8.731-19.137,6.4s-31.23-14.7-31.23-14.7l6.788-15.455,26.566,5.657,20.546-41.166a19.115,19.115,0,0,1,10.609-9.883,5.231,5.231,0,0,1,3.031.117,13.683,13.683,0,0,1,9.606,15.775Z" transform="translate(-529.974 -120.222)" fill="#2d1674"/>
      <path id="Trazado_5062" data-name="Trazado 5062" d="M673.02,190.823h-1.2a11.93,11.93,0,0,0-3.362.726,13.069,13.069,0,0,0-4.6,3.01,16.275,16.275,0,0,0-2.2,2.711,39.266,39.266,0,0,0-1.868,3.5c-5.07,10.043-12.263,24.26-20.738,41.028l-.085.171h-.192l-26.565-5.646.309-.149-5.55,12.626c-.427.971-.853,1.932-1.238,2.828l-.139-.363c6.329,3.117,12.53,6.116,18.518,8.955,3,1.42,5.956,2.8,8.859,4.1,1.462.63,2.9,1.313,4.344,1.825a12,12,0,0,0,4.44.715,13.867,13.867,0,0,0,4.344-.768,18.436,18.436,0,0,0,3.906-1.836,24.9,24.9,0,0,0,6.212-5.465,65.508,65.508,0,0,0,4.269-6.5l3.778-6.126C669.1,238.383,673,232.1,675.71,227.72c1.355-2.135,2.4-3.821,3.127-4.984l.833-1.292c.182-.288.288-.427.288-.427s-.075.16-.245.459l-.778,1.313-3.042,5.048L664.6,246.377c-1.2,1.953-2.455,4-3.757,6.148a64.8,64.8,0,0,1-4.269,6.553,25.206,25.206,0,0,1-6.266,5.614,19.2,19.2,0,0,1-4,1.9,14.362,14.362,0,0,1-4.493.811,12.572,12.572,0,0,1-4.622-.747c-1.494-.523-2.913-1.185-4.387-1.825-2.914-1.3-5.87-2.679-8.869-4.088-6.009-2.839-12.2-5.838-18.539-8.944l-.235-.117.107-.246c.395-.9.811-1.857,1.238-2.818,1.9-4.333,3.778-8.592,5.55-12.637l.1-.2h.214l26.565,5.678-.277.139,20.909-40.932c.661-1.227,1.2-2.465,1.911-3.522a17.808,17.808,0,0,1,2.263-2.732,13.277,13.277,0,0,1,4.718-2.988,11.736,11.736,0,0,1,3.415-.651h.9Z" transform="translate(-529.993 -120.192)" fill="#263238"/>
      <path id="Trazado_5063" data-name="Trazado 5063" d="M621,135.622a15.5,15.5,0,0,1,7.674-9.147,19.478,19.478,0,0,1,13.149-1.206,41.22,41.22,0,0,1,12.263,5.475,20.278,20.278,0,0,1,5.8,4.792c2.754,3.682,5.422,9.67,5.561,14.27.118,3.714-1.569,12.968-3.2,16.3a8.24,8.24,0,0,1-3.65,3.106,31.512,31.512,0,0,1-6.98,8.709q-1.184-3.778-2.359-7.557Z" transform="translate(-528.926 -124.643)" fill="#263238"/>
      <path id="Trazado_5064" data-name="Trazado 5064" d="M668.19,160.569c-.288-5.732.982-8.208-3.34-17.813a29.47,29.47,0,0,0-13.672-14.2L630.589,130.8q.224-.566.448-1.067l-7.354,1.067a5.785,5.785,0,0,0-5.881,3.031,8.263,8.263,0,0,0-1.131,1.654,19.209,19.209,0,0,0-1.612,6.148,50.129,50.129,0,0,0-.437,6.286c-.064.833-.118,1.558-.171,2.135a9.866,9.866,0,0,0,.224,2.722c.3,8.848,1.441,18.582.363,25.925a3.894,3.894,0,0,0,.118,2.295,3.735,3.735,0,0,0,1.889,1.526c9.126,4.333,15.583-.865,24.549-5.411,1.761-.886,3.554-1.964,5.518-1.889s3.8,5.518,5.7,6.4l15.743,1.067C669.471,175.266,668.468,166.3,668.19,160.569Z" transform="translate(-529.368 -124.379)" fill="#263238"/>
      <path id="Trazado_5065" data-name="Trazado 5065" d="M657.679,147.527a12.5,12.5,0,0,0-9.072-11.74L631.882,131c-7.258-.993-12.37,7.823-13.053,15.124-.768,8.1-1.334,16.661-.555,22.744,1.559,12.242,10.844,14.078,10.844,14.078s-.118,4.195-.214,7.749l5.572,17.344,19.212-18.614,4.088-41.721C657.732,147.473,657.7,147.8,657.679,147.527Z" transform="translate(-529.135 -124.22)" fill="#a26760"/>
      <path id="Trazado_5066" data-name="Trazado 5066" d="M620.75,153.947a1.569,1.569,0,0,0,1.462,1.622,1.484,1.484,0,0,0,1.644-1.356,1.559,1.559,0,0,0-1.452-1.633,1.5,1.5,0,0,0-1.654,1.366Z" transform="translate(-528.943 -122.763)" fill="#263238"/>
      <path id="Trazado_5067" data-name="Trazado 5067" d="M620.351,149.758c.192.2,1.4-.63,3.084-.576s2.882.939,3.074.736-.1-.459-.619-.875a4.269,4.269,0,0,0-2.455-.832,4.1,4.1,0,0,0-2.455.7C620.448,149.3,620.266,149.662,620.351,149.758Z" transform="translate(-528.971 -123.057)" fill="#263238"/>
      <path id="Trazado_5068" data-name="Trazado 5068" d="M634.54,153.967A1.569,1.569,0,0,0,636,155.589a1.5,1.5,0,0,0,1.654-1.366,1.569,1.569,0,0,0-1.462-1.622,1.494,1.494,0,0,0-1.654,1.366Z" transform="translate(-528.015 -122.762)" fill="#263238"/>
      <path id="Trazado_5069" data-name="Trazado 5069" d="M635.311,150.178c.193.213,1.4-.63,3.085-.566s2.882.929,3.074.736-.1-.47-.619-.875a4.271,4.271,0,0,0-2.455-.843,4.1,4.1,0,0,0-2.455.715C635.407,149.73,635.226,150.092,635.311,150.178Z" transform="translate(-527.964 -123.028)" fill="#263238"/>
      <path id="Trazado_5070" data-name="Trazado 5070" d="M630.267,163.2a11.289,11.289,0,0,0-2.722-.576c-.427-.064-.832-.16-.9-.459a2.227,2.227,0,0,1,.331-1.259c.437-1.067.886-2.135,1.366-3.2,1.911-4.6,3.3-8.389,3.116-8.464s-1.878,3.6-3.788,8.2l-1.313,3.255a2.433,2.433,0,0,0-.277,1.676,1.068,1.068,0,0,0,.683.651,3.409,3.409,0,0,0,.726.117A10.9,10.9,0,0,0,630.267,163.2Z" transform="translate(-528.587 -122.987)" fill="#263238"/>
      <path id="Trazado_5071" data-name="Trazado 5071" d="M644.7,176s-4.206,8.261-16.362,6.745l.075-2.871A30.71,30.71,0,0,0,644.7,176Z" transform="translate(-528.432 -121.186)" fill="#7b4b45"/>
      <path id="Trazado_5072" data-name="Trazado 5072" d="M636,144.481c.149.459,1.835.3,3.8.587s3.544.886,3.821.491c.117-.192-.139-.63-.769-1.067a6.51,6.51,0,0,0-2.807-1.067,6.406,6.406,0,0,0-3,.256C636.279,143.916,635.9,144.257,636,144.481Z" transform="translate(-527.918 -123.384)" fill="#263238"/>
      <path id="Trazado_5073" data-name="Trazado 5073" d="M621,144.954c.288.395,1.462,0,2.85.064s2.562.331,2.85-.064c.128-.192-.053-.576-.555-.95a4.088,4.088,0,0,0-4.589,0C621.055,144.378,620.885,144.773,621,144.954Z" transform="translate(-528.929 -123.387)" fill="#263238"/>
      <path id="Trazado_5074" data-name="Trazado 5074" d="M622.188,135.349a5.336,5.336,0,0,1,4.813-2.9,10.437,10.437,0,0,1,5.571,1.8c7.14,4.4,10.577,14.633,17.622,19.212,1.74,1.067,4.056.2,5.518,1.665s2.37,3.736,1.484,5.6a16.929,16.929,0,0,0,2.6-4.13,5.742,5.742,0,0,0-.064-4.76c-.587-1.067-1.665-1.942-1.931-3.2s.224-2.135.2-3.2a6.992,6.992,0,0,0-1.068-3.138,31.677,31.677,0,0,0-11.292-12.584,20.7,20.7,0,0,0-10.673-3.074,15.806,15.806,0,0,0-10.289,3.757c-1.644,1.441-3.373,2.946-2.594,5" transform="translate(-528.866 -124.508)" fill="#263238"/>
      <path id="Trazado_5075" data-name="Trazado 5075" d="M653.389,154.747c.139-.352,6.564-2.466,6.4,4.269-.106,6.564-6.692,5.08-6.7,4.888S653.389,154.747,653.389,154.747Z" transform="translate(-526.766 -122.656)" fill="#a26760"/>
      <path id="Trazado_5076" data-name="Trazado 5076" d="M655.08,161.328a1.883,1.883,0,0,0,.31.171,1.068,1.068,0,0,0,.854,0,2.818,2.818,0,0,0,1.356-2.508,3.707,3.707,0,0,0-.288-1.644,1.335,1.335,0,0,0-.844-.9.587.587,0,0,0-.683.3c-.085.182,0,.32-.085.331s-.139-.117-.075-.384a.663.663,0,0,1,.267-.406.834.834,0,0,1,.63-.16A1.612,1.612,0,0,1,657.7,157.2a3.8,3.8,0,0,1,.363,1.836,2.945,2.945,0,0,1-1.718,2.8,1.206,1.206,0,0,1-1.067-.192C655.091,161.521,655.059,161.328,655.08,161.328Z" transform="translate(-526.633 -122.524)" fill="#7b4b45"/>
      <path id="Trazado_5077" data-name="Trazado 5077" d="M658.1,153.066l-.384-.235c-.256-.171-.63-.395-1.067-.726a23.2,23.2,0,0,1-3.448-3.33,63.294,63.294,0,0,1-4.173-5.753,51.9,51.9,0,0,0-5.219-6.895,20.747,20.747,0,0,0-3.416-2.86,17.162,17.162,0,0,0-3.725-1.825,18.583,18.583,0,0,0-6.927-1.067,17.677,17.677,0,0,0-4.686.779,9.862,9.862,0,0,0-1.227.416,2.632,2.632,0,0,1-.438.139,2.149,2.149,0,0,1,.416-.2,11.027,11.027,0,0,1,1.217-.47,17.074,17.074,0,0,1,4.707-.875,18.548,18.548,0,0,1,7.023,1,17.243,17.243,0,0,1,3.8,1.836,20.874,20.874,0,0,1,3.469,2.892,49.693,49.693,0,0,1,5.241,6.959,66.4,66.4,0,0,0,4.1,5.764,24.13,24.13,0,0,0,3.362,3.373c.438.352.811.587,1.067.768A2.25,2.25,0,0,1,658.1,153.066Z" transform="translate(-528.765 -124.273)" fill="#455a64"/>
      <path id="Trazado_5078" data-name="Trazado 5078" d="M655.819,162.141a1.28,1.28,0,1,1-.31.085" transform="translate(-526.656 -122.12)" fill="#fff"/>
      <path id="Trazado_5079" data-name="Trazado 5079" d="M655.516,162.228a1.836,1.836,0,0,0-.608.865,1.067,1.067,0,0,0,.224,1.067,1.153,1.153,0,0,0,2.039-.587,1.068,1.068,0,0,0-.363-.993,1.737,1.737,0,0,0-.982-.406.521.521,0,0,1,.31-.064,1.291,1.291,0,0,1,.811.31,1.312,1.312,0,0,1,.491,1.2,1.408,1.408,0,0,1-2.518.726,1.325,1.325,0,0,1-.214-1.281,1.241,1.241,0,0,1,.524-.694C655.4,162.228,655.516,162.206,655.516,162.228Z" transform="translate(-526.663 -122.121)" fill="#263238"/>
      <path id="Trazado_5080" data-name="Trazado 5080" d="M654.833,153.913a10.079,10.079,0,0,1-.79,5.262c-.875,1.569-2.989,2.594-4.525,1.654-1.249-.758-1.58-2.4-1.761-3.853-.5-4.194-.662-8.432-1.206-12.626Z" transform="translate(-527.206 -123.316)" fill="#263238"/>
      <path id="Trazado_5081" data-name="Trazado 5081" d="M623.76,131.934a11.351,11.351,0,0,1,5.956.822,14.278,14.278,0,0,1,2.679,1.473,30.841,30.841,0,0,1,2.754,2.231,34.012,34.012,0,0,1,5.336,6.073c.8,1.2,1.5,2.423,2.273,3.565a17.315,17.315,0,0,0,2.54,3.031,29.106,29.106,0,0,0,5.443,3.864c1.655.939,3.042,1.6,3.991,2.06l1.068.5a2.019,2.019,0,0,0,.395.16,1.78,1.78,0,0,0-.363-.224l-1.067-.566c-.939-.5-2.295-1.2-3.928-2.135a29.639,29.639,0,0,1-5.337-3.9,16.68,16.68,0,0,1-2.476-2.978c-.758-1.131-1.462-2.359-2.273-3.565a32.842,32.842,0,0,0-5.4-6.126,27.979,27.979,0,0,0-2.8-2.22,14.255,14.255,0,0,0-2.765-1.473,10.834,10.834,0,0,0-4.419-.822,8.041,8.041,0,0,0-1.217.139A1.714,1.714,0,0,0,623.76,131.934Z" transform="translate(-528.741 -124.167)" fill="#455a64"/>
      <path id="Trazado_5082" data-name="Trazado 5082" d="M636.7,166.446a7.884,7.884,0,0,0-.47-1.836.981.981,0,0,0-.395-.576.951.951,0,0,0-.7,0c-1.377.448-3.2,1.27-4.525,1.718a3.439,3.439,0,0,0,.683,2.732,3.31,3.31,0,0,0,2.338.79,3.2,3.2,0,0,0,2.583-1.067A2.5,2.5,0,0,0,636.7,166.446Z" transform="translate(-528.284 -121.996)" fill="#7b4b45"/>
      <path id="Trazado_5083" data-name="Trazado 5083" d="M631.865,168.688a4.27,4.27,0,0,0,2.028.406,2.805,2.805,0,0,0,1.889-.961,2.955,2.955,0,0,0,.6-2.476,2.37,2.37,0,0,0-.6-1.174c-.267-.278-.619-.2-1.067,0l-2.135.886a8.884,8.884,0,0,1-2.06.694,9.615,9.615,0,0,1,1.911-1.067l2.135-.993a2,2,0,0,1,.726-.192,1.068,1.068,0,0,1,.822.31,2.806,2.806,0,0,1,.768,1.43,3.416,3.416,0,0,1-.747,2.914,3.085,3.085,0,0,1-2.231,1,3.032,3.032,0,0,1-1.59-.374C631.982,168.88,631.854,168.709,631.865,168.688Z" transform="translate(-528.286 -122.007)" fill="#263238"/>
    </g>
    <g id="freepik--character-1--inject-51" transform="translate(462.382 105.263)">
      <path id="Trazado_5084" data-name="Trazado 5084" d="M548.25,443.29l-.79,33.844,44.6,1.163c-.149-4.034-22.99-12.722-22.99-12.722l1.452-21.688Z" transform="translate(-428.145 -78.141)" fill="#455a64"/>
      <g id="Grupo_1320" data-name="Grupo 1320" transform="translate(125.846 385.239)" opacity="0.6">
        <path id="Trazado_5085" data-name="Trazado 5085" d="M554.925,462.163a1.73,1.73,0,0,0-1.324,1.964,1.761,1.761,0,0,0,2.017,1.259,1.644,1.644,0,1,0-.864-3.138" transform="translate(-553.579 -462.113)" fill="#fff"/>
      </g>
      <g id="Grupo_1321" data-name="Grupo 1321" transform="translate(119.315 395.578)" opacity="0.6">
        <path id="Trazado_5086" data-name="Trazado 5086" d="M547.46,475.216l.224-3.415,42.693,2.391s1.964.864,1.708,2.188Z" transform="translate(-547.46 -471.8)" fill="#fff"/>
      </g>
      <path id="Trazado_5087" data-name="Trazado 5087" d="M568.647,464.012c0,.2-1.068.266-2.135.907s-1.686,1.483-1.889,1.387.16-1.259,1.494-2.007S568.7,463.852,568.647,464.012Z" transform="translate(-426.993 -76.76)" fill="#263238"/>
      <path id="Trazado_5088" data-name="Trazado 5088" d="M572.922,465.855c0,.2-.918.534-1.676,1.387s-1,1.761-1.227,1.75-.321-1.185.651-2.23S572.922,465.663,572.922,465.855Z" transform="translate(-426.636 -76.628)" fill="#263238"/>
      <path id="Trazado_5089" data-name="Trazado 5089" d="M575.084,471.1c-.192,0-.469-1,.129-2.135s1.622-1.537,1.707-1.366-.566.768-1.067,1.686S575.309,471.082,575.084,471.1Z" transform="translate(-426.301 -76.507)" fill="#263238"/>
      <path id="Trazado_5090" data-name="Trazado 5090" d="M568.453,459.41c-.1.192-1.068-.118-2.327-.075s-2.2.395-2.306.214.833-.9,2.284-.929S568.56,459.25,568.453,459.41Z" transform="translate(-427.044 -77.109)" fill="#263238"/>
      <path id="Trazado_5091" data-name="Trazado 5091" d="M567.723,454.871a4.405,4.405,0,0,1-2.231-.064,10.19,10.19,0,0,1-2.327-.747,9.009,9.009,0,0,1-1.259-.672,2.654,2.654,0,0,1-.662-.512.865.865,0,0,1-.064-1.067,1.2,1.2,0,0,1,.961-.448,3.2,3.2,0,0,1,.843.139,7.335,7.335,0,0,1,1.366.48,8.144,8.144,0,0,1,2.028,1.334c1.068.929,1.345,1.708,1.26,1.75s-.576-.6-1.612-1.366a9.256,9.256,0,0,0-1.964-1.067,8.817,8.817,0,0,0-1.27-.406c-.47-.128-.875-.139-.993.053s0,.107,0,.235a1.887,1.887,0,0,0,.48.384,12.864,12.864,0,0,0,1.164.661,13.665,13.665,0,0,0,2.135.843,16.606,16.606,0,0,1,2.145.469Z" transform="translate(-427.232 -77.598)" fill="#263238"/>
      <path id="Trazado_5092" data-name="Trazado 5092" d="M567.034,455.342a3.265,3.265,0,0,1-.523-2.049,6.4,6.4,0,0,1,.373-2.305,6.816,6.816,0,0,1,.6-1.27,1.835,1.835,0,0,1,1.462-1.068,1.068,1.068,0,0,1,.907.608,2.38,2.38,0,0,1,.214.779,4.48,4.48,0,0,1,0,1.419A4.669,4.669,0,0,1,569,453.592c-.908,1.067-1.815,1.3-1.836,1.227a9.19,9.19,0,0,0,1.4-1.516,4.885,4.885,0,0,0,.768-1.964,4.22,4.22,0,0,0,0-1.227c0-.448-.224-.811-.405-.769a1.593,1.593,0,0,0-.8.672,7.594,7.594,0,0,0-.587,1.131,7.378,7.378,0,0,0-.491,2.135C566.97,454.542,567.183,455.31,567.034,455.342Z" transform="translate(-426.863 -77.78)" fill="#263238"/>
      <path id="Trazado_5093" data-name="Trazado 5093" d="M520.1,444.483l-2.412,33.8-44.507-3.063c.523-4,24.078-10.481,24.078-10.481l.608-21.73Z" transform="translate(-433.145 -78.16)" fill="#455a64"/>
      <g id="Grupo_1322" data-name="Grupo 1322" transform="translate(75.763 385.678)" opacity="0.6">
        <path id="Trazado_5094" data-name="Trazado 5094" d="M508.891,462.541a1.638,1.638,0,1,1-1,3.117,1.815,1.815,0,0,1-1.185-2.135,1.857,1.857,0,0,1,2.337-.865" transform="translate(-506.654 -462.525)" fill="#fff"/>
      </g>
      <g id="Grupo_1323" data-name="Grupo 1323" transform="translate(40.06 395.044)" opacity="0.6">
        <path id="Trazado_5095" data-name="Trazado 5095" d="M517.685,476.38l.107-3.415L475.1,471.3s-2.028.683-1.889,2.017Z" transform="translate(-473.204 -471.3)" fill="#fff"/>
      </g>
      <path id="Trazado_5096" data-name="Trazado 5096" d="M495.08,463.129c0,.2,1.067.374,2.135,1.067s1.537,1.633,1.74,1.569,0-1.281-1.291-2.135S495.048,462.938,495.08,463.129Z" transform="translate(-431.671 -76.816)" fill="#263238"/>
      <path id="Trazado_5097" data-name="Trazado 5097" d="M490.59,464.535c-.064.192.854.608,1.537,1.526s.832,1.857,1.067,1.857.427-1.142-.437-2.273S490.612,464.332,490.59,464.535Z" transform="translate(-431.973 -76.716)" fill="#263238"/>
      <path id="Trazado_5098" data-name="Trazado 5098" d="M487.875,469.542c.192.053.565-.95.085-2.135s-1.473-1.687-1.58-1.516.491.8.875,1.761S487.662,469.5,487.875,469.542Z" transform="translate(-432.257 -76.622)" fill="#263238"/>
      <path id="Trazado_5099" data-name="Trazado 5099" d="M495.75,458.539c.085.192,1.067,0,2.327.138s2.135.6,2.274.427-.747-.961-2.188-1.142S495.654,458.368,495.75,458.539Z" transform="translate(-431.626 -77.156)" fill="#263238"/>
      <path id="Trazado_5100" data-name="Trazado 5100" d="M497.06,454.078a4.441,4.441,0,0,0,2.231.139,10.219,10.219,0,0,0,2.37-.513,9.955,9.955,0,0,0,1.323-.555,2.661,2.661,0,0,0,.7-.448.865.865,0,0,0,.171-1.067,1.206,1.206,0,0,0-.918-.534,2.985,2.985,0,0,0-.843.053,7.965,7.965,0,0,0-3.554,1.484c-1.067.832-1.494,1.58-1.42,1.623s.63-.534,1.729-1.206a9.277,9.277,0,0,1,2.06-.929,9.886,9.886,0,0,1,1.313-.278c.47-.085.875-.064.982.139s0,.117-.064.235a1.913,1.913,0,0,1-.523.331,12.111,12.111,0,0,1-3.426,1.185A13.909,13.909,0,0,0,497.06,454.078Z" transform="translate(-431.538 -77.616)" fill="#263238"/>
      <path id="Trazado_5101" data-name="Trazado 5101" d="M497.466,454.609a3.364,3.364,0,0,0,.726-2,6.406,6.406,0,0,0-.15-2.327,6.2,6.2,0,0,0-.491-1.313,1.8,1.8,0,0,0-1.345-1.163,1.067,1.067,0,0,0-.971.523,2.449,2.449,0,0,0-.277.758,4.262,4.262,0,0,0-.1,1.419,4.6,4.6,0,0,0,.811,2.241c.79,1.153,1.686,1.452,1.708,1.388a8.644,8.644,0,0,1-1.249-1.644,4.577,4.577,0,0,1-.577-2.028,4.366,4.366,0,0,1,.117-1.217c.107-.438.31-.79.48-.726a1.659,1.659,0,0,1,.736.736,7.194,7.194,0,0,1,.47,1.185,7.018,7.018,0,0,1,.3,2.135C497.636,453.819,497.348,454.577,497.466,454.609Z" transform="translate(-431.687 -77.837)" fill="#263238"/>
      <path id="Trazado_5102" data-name="Trazado 5102" d="M590.9,273.31l-73.538,2.348s-16.373,109.3-15.913,116.86l-10.1,79.291,29.373,1.067s4.622-25.7,7.845-43.3c2.134-11.74,6.052-28.892,7.108-38.669s15.7-77.06,15.7-77.06,1.27,78.266,1.3,81.521-3.693,76.644-3.693,76.644l29.159,2.775c1.814-12.594,5.39-68.949,6.158-79.771,1.388-19.553,8.229-75.779,8.87-89.922S590.9,273.31,590.9,273.31Z" transform="translate(-431.922 -89.583)" fill="#263238"/>
      <path id="Trazado_5103" data-name="Trazado 5103" d="M526.207,284.73a11.088,11.088,0,0,1-.363-3.4,11.888,11.888,0,0,1,.15-3.415A22.856,22.856,0,0,1,526.207,284.73Z" transform="translate(-429.604 -89.274)" fill="#455a64"/>
      <path id="Trazado_5104" data-name="Trazado 5104" d="M528.7,283.924a16.12,16.12,0,0,1,.523-5.774,8.409,8.409,0,0,1,0,2.914A8.536,8.536,0,0,1,528.7,283.924Z" transform="translate(-429.416 -89.258)" fill="#455a64"/>
      <path id="Trazado_5105" data-name="Trazado 5105" d="M570.756,283.874a12.264,12.264,0,0,1,0-4.984A12.239,12.239,0,0,1,570.756,283.874Z" transform="translate(-426.594 -89.208)" fill="#455a64"/>
      <path id="Trazado_5106" data-name="Trazado 5106" d="M573.46,285.187a9.327,9.327,0,0,1,.523-6.3,23.819,23.819,0,0,1-.3,3.149A23.123,23.123,0,0,1,573.46,285.187Z" transform="translate(-426.416 -89.208)" fill="#455a64"/>
      <path id="Trazado_5107" data-name="Trazado 5107" d="M551.49,311.693a6.823,6.823,0,0,1,.171-1.281c.16-.918.352-2.081.587-3.458.48-2.924,1.067-6.969,1.42-11.474s.448-8.539.448-11.538v-3.511a7.243,7.243,0,0,1,0-1.291,7.19,7.19,0,0,1,.16,1.281c.075.833.139,2.028.192,3.511a106.517,106.517,0,0,1-1.879,23.086c-.277,1.451-.544,2.626-.747,3.426A7,7,0,0,1,551.49,311.693Z" transform="translate(-427.874 -89.191)" fill="#455a64"/>
      <path id="Trazado_5108" data-name="Trazado 5108" d="M549.283,279.914a2.762,2.762,0,0,0-1.462.822,2.006,2.006,0,0,0-.48,1.644,1.91,1.91,0,0,0,3.33.63,2.072,2.072,0,0,0,.15-1.708,2.659,2.659,0,0,0-1.068-1.291,1.442,1.442,0,0,1,.491.117,2.136,2.136,0,0,1,.918,1.068,2.241,2.241,0,1,1-4.28,1.281,2.38,2.38,0,0,1,.672-1.974,2.136,2.136,0,0,1,1.228-.64C549.144,279.818,549.293,279.893,549.283,279.914Z" transform="translate(-428.185 -89.143)" fill="#455a64"/>
      <path id="Trazado_5109" data-name="Trazado 5109" d="M520.066,393.29a126.74,126.74,0,0,1-14.686-6.03A121.97,121.97,0,0,1,520.066,393.29Z" transform="translate(-430.978 -81.913)" fill="#455a64"/>
      <path id="Trazado_5110" data-name="Trazado 5110" d="M574.779,171.31s13.79,3.117,18.145,12.808c3.138,6.916,9.52,48.9,9.52,48.9l30.952-.107,4.718,14.91s-27.046,16.159-38.487,16.148c-9.606,0-17.963-7.322-17.963-7.322L569.4,221.143Z" transform="translate(-426.668 -96.449)" fill="#d0dc64"/>
      <path id="Trazado_5111" data-name="Trazado 5111" d="M592.121,242.832,583.892,194.9l-1.067-23.332-21.058-4.088-27.26,2.039-21.56,10.1a27.109,27.109,0,0,0-12.808,12.477l-14.718,29.682-23.193-7.386-11.879,8.08s30.739,31.742,38.541,30.472c9.392-1.526,20.76-25.989,20.76-25.989l3.64-7.749,12.744,38.84-5.614,28.818c4.9,4.269,18.667,7.973,42.17,6.639s33.994-7.087,33.994-7.087Z" transform="translate(-434.682 -96.707)" fill="#d0dc64"/>
      <path id="Trazado_5112" data-name="Trazado 5112" d="M562.568,121.385c-.15-3.746-1.846-8.816-4.835-11.089-1.954-1.473-4.75-.47-7.045-1.334-2.935-1.067-5.155-4.472-7.888-6.02s-6.179-2.5-8.954-1.067c-1.355.715-2.412,1.921-3.832,2.5-1.633.683-3.511.416-5.23.865a6.66,6.66,0,0,0-4.611,7.6,5.731,5.731,0,0,0,.491,11.153c2.038.384,4.344-.31,6.115.779s2.2,3.757,1.953,5.956-.865,4.483-.107,6.564l29.81,5.678c1.238-2.337,2.017-5.838,3-8.357C562.963,130.6,562.728,125.708,562.568,121.385Z" transform="translate(-430.263 -101.171)" fill="#263238"/>
      <path id="Trazado_5113" data-name="Trazado 5113" d="M554.916,137.566c.192-.1,7.759-2.444,7.652,5.337s-7.888,6.052-7.9,5.828S554.916,137.566,554.916,137.566Z" transform="translate(-427.66 -98.748)" fill="#ffbe9d"/>
      <path id="Trazado_5114" data-name="Trazado 5114" d="M556.93,145.649a2.853,2.853,0,0,0,.363.2,1.345,1.345,0,0,0,1.068,0,3.362,3.362,0,0,0,1.59-2.978,4.428,4.428,0,0,0-.352-1.942,1.58,1.58,0,0,0-1-1.067.694.694,0,0,0-.8.363c-.107.213-.064.374-.107.384s-.16-.128-.1-.448a.864.864,0,0,1,.31-.491,1.067,1.067,0,0,1,.758-.181,1.91,1.91,0,0,1,1.4,1.227,4.607,4.607,0,0,1,.438,2.135c-.075,1.569-.9,3.021-2.028,3.33a1.5,1.5,0,0,1-1.238-.224C556.941,145.831,556.909,145.66,556.93,145.649Z" transform="translate(-427.508 -98.592)" fill="#eb996e"/>
      <path id="Trazado_5115" data-name="Trazado 5115" d="M518.062,155.334c-.171-5.475.416-16.789,1.067-27.024a21.154,21.154,0,0,1,20.748-19.82h1.068c11.826.491,18.016,10.8,17.2,22.606l-1.067,41.06-1.686,1.067a23.385,23.385,0,0,1-25.616-.117h0l-.1-4.856S518.393,166.669,518.062,155.334Z" transform="translate(-430.126 -100.678)" fill="#ffbe9d"/>
      <path id="Trazado_5116" data-name="Trazado 5116" d="M529,164.762a26.342,26.342,0,0,0,14.718-4.472s-3.276,8.357-14.612,7.535Z" transform="translate(-429.387 -97.191)" fill="#eb996e"/>
      <path id="Trazado_5117" data-name="Trazado 5117" d="M521.46,135.542A1.622,1.622,0,0,0,523.1,137.2a1.548,1.548,0,0,0,1.644-1.494,1.622,1.622,0,0,0-1.59-1.612,1.548,1.548,0,0,0-1.7,1.452Z" transform="translate(-429.895 -98.955)" fill="#263238"/>
      <path id="Trazado_5118" data-name="Trazado 5118" d="M536.86,136.144a1.622,1.622,0,0,0,1.6,1.6,1.548,1.548,0,0,0,1.644-1.483,1.622,1.622,0,0,0-1.59-1.612,1.559,1.559,0,0,0-1.654,1.494Z" transform="translate(-428.858 -98.917)" fill="#263238"/>
      <path id="Trazado_5119" data-name="Trazado 5119" d="M521.342,132.031c.2.213,1.409-.715,3.2-.747s3.042.832,3.2.608-.117-.47-.683-.865a4.4,4.4,0,0,0-2.583-.747,4.27,4.27,0,0,0-2.519.854C521.417,131.561,521.235,131.945,521.342,132.031Z" transform="translate(-429.905 -99.212)" fill="#263238"/>
      <path id="Trazado_5120" data-name="Trazado 5120" d="M537,132.124c.213.2,1.366-.8,3.106-.939s3.084.63,3.255.395-.149-.459-.737-.822a4.492,4.492,0,0,0-2.625-.576,4.268,4.268,0,0,0-2.455,1.067C537,131.665,536.875,132.06,537,132.124Z" transform="translate(-428.852 -99.219)" fill="#263238"/>
      <path id="Trazado_5121" data-name="Trazado 5121" d="M532.06,145.388a11.621,11.621,0,0,0-2.839-.459c-.448,0-.875-.118-.95-.427a2.229,2.229,0,0,1,.267-1.323c.406-1.067.822-2.22,1.26-3.415,1.75-4.856,3-8.848,2.807-8.923s-1.772,3.821-3.511,8.677c-.427,1.2-.822,2.337-1.206,3.437a2.607,2.607,0,0,0-.2,1.75,1.131,1.131,0,0,0,.747.64,2.5,2.5,0,0,0,.758.085A11.745,11.745,0,0,0,532.06,145.388Z" transform="translate(-429.481 -99.174)" fill="#263238"/>
      <path id="Trazado_5122" data-name="Trazado 5122" d="M536.955,145.52c-.288,0-.256,1.878-1.857,3.2s-3.608,1.2-3.618,1.462.448.363,1.3.363a4.644,4.644,0,0,0,3.031-1.067,4.14,4.14,0,0,0,1.43-2.732C537.307,145.968,537.083,145.509,536.955,145.52Z" transform="translate(-429.22 -98.185)" fill="#263238"/>
      <path id="Trazado_5123" data-name="Trazado 5123" d="M537,125.205c.213.459,1.932.053,3.992.1s3.757.427,3.992,0c.1-.213-.235-.63-.95-1.067a6.948,6.948,0,0,0-6.073,0C537.288,124.576,537,124.992,537,125.205Z" transform="translate(-428.849 -99.665)" fill="#263238"/>
      <path id="Trazado_5124" data-name="Trazado 5124" d="M521.573,126.858c.309.395,1.505,0,2.946-.085s2.679.224,2.957-.2c.117-.2-.086-.6-.63-.961a4.131,4.131,0,0,0-2.412-.608,4.075,4.075,0,0,0-2.337.843C521.594,126.26,521.434,126.665,521.573,126.858Z" transform="translate(-429.891 -99.567)" fill="#263238"/>
      <path id="Trazado_5125" data-name="Trazado 5125" d="M531.2,107.711c3.96-1.729,8.048-1.067,12.339-.566a19.53,19.53,0,0,1,8.88,3.074,17.076,17.076,0,0,1,7.471,12.744,49.866,49.866,0,0,1-1.067,16.181l-.427-.075c.373,1.569.747,3.2-.16,4.728a2.285,2.285,0,0,1-2.53,1.067c-1.611-.48-1.75-2.54-1.665-4.163a95.339,95.339,0,0,0-.4-14.494c-.363-3.917-2.134-8.261-5.24-10.011a13.587,13.587,0,0,0-13.779.278,4.163,4.163,0,0,1-4.387.139c-3.031-1.793-5.582-1.686-7.407.7C523.481,113.09,527.281,109.429,531.2,107.711Z" transform="translate(-429.803 -100.806)" fill="#263238"/>
      <path id="Trazado_5126" data-name="Trazado 5126" d="M523.884,140.783a4.843,4.843,0,0,0,.8-.1,5.88,5.88,0,0,0,2.135-.747,6.122,6.122,0,0,0,1.249-.961,6.409,6.409,0,0,0,1.068-1.484,5.776,5.776,0,0,0,.6-1.975c.064-.715,0-1.5,0-2.305l.139.139H516.52l.149-.149a18.507,18.507,0,0,0,.075,2.583,5.9,5.9,0,0,0,3.757,4.547,6.7,6.7,0,0,0,2.5.395h.918a.727.727,0,0,1-.235,0H523a6.4,6.4,0,0,1-2.562-.32,5.966,5.966,0,0,1-3.085-2.423,6.094,6.094,0,0,1-.875-2.252,17.828,17.828,0,0,1-.1-2.626v-.149h13.651v2.476a5.7,5.7,0,0,1-.64,2.049,5.933,5.933,0,0,1-2.434,2.487,5.494,5.494,0,0,1-2.135.683,4.791,4.791,0,0,1-.608,0C523.959,140.8,523.884,140.794,523.884,140.783Z" transform="translate(-430.238 -99.031)" fill="#455a64"/>
      <path id="Trazado_5127" data-name="Trazado 5127" d="M541.476,140.785a4.8,4.8,0,0,0,.79-.1,5.848,5.848,0,0,0,2.135-.747,5.923,5.923,0,0,0,2.305-2.444,5.534,5.534,0,0,0,.587-1.975c.075-.715,0-1.5,0-2.305l.149.139H534.09l.15-.149a18.432,18.432,0,0,0,.075,2.583,5.873,5.873,0,0,0,.811,2.135,5.975,5.975,0,0,0,2.935,2.391,6.729,6.729,0,0,0,2.5.395h.929a.767.767,0,0,1-.245,0h-.683a6.332,6.332,0,0,1-2.551-.32,6.02,6.02,0,0,1-3.96-4.675,17.815,17.815,0,0,1-.107-2.626v-.149h13.641v2.476a5.92,5.92,0,0,1-.64,2.049,6.311,6.311,0,0,1-1.131,1.526,6.654,6.654,0,0,1-1.3.961,5.581,5.581,0,0,1-2.135.683,4.6,4.6,0,0,1-.6,0C541.583,140.806,541.476,140.8,541.476,140.785Z" transform="translate(-429.055 -99.032)" fill="#455a64"/>
      <path id="Trazado_5128" data-name="Trazado 5128" d="M534.334,134.974a5.374,5.374,0,0,0-.673-.608,3.2,3.2,0,0,0-3.928-.086c-.438.32-.651.608-.683.576s.107-.363.555-.758a3.137,3.137,0,0,1,2.135-.768,3.2,3.2,0,0,1,2.134.865C534.248,134.611,534.387,134.952,534.334,134.974Z" transform="translate(-429.384 -99.006)" fill="#455a64"/>
      <path id="Trazado_5129" data-name="Trazado 5129" d="M558.111,137.687a12.245,12.245,0,0,1-1.7-.331c-1.068-.235-2.476-.544-4.078-.843s-3.052-.523-4.109-.683a9.544,9.544,0,0,1-1.708-.31,10.426,10.426,0,0,1,1.729.085c1.068.107,2.541.3,4.141.6s3.042.651,4.077.939A8.223,8.223,0,0,1,558.111,137.687Z" transform="translate(-428.208 -98.859)" fill="#455a64"/>
      <path id="Trazado_5130" data-name="Trazado 5130" d="M523.405,140a3.693,3.693,0,0,1-1.451-.117,6.743,6.743,0,0,1-3.127-1.622,5.891,5.891,0,0,1-1.761-3.052,3.117,3.117,0,0,1,0-1.462,5.236,5.236,0,0,0,.267,1.409,6.137,6.137,0,0,0,1.761,2.871,7.191,7.191,0,0,0,2.967,1.644C522.829,139.919,523.405,139.951,523.405,140Z" transform="translate(-430.197 -98.978)" fill="#fff"/>
      <path id="Trazado_5131" data-name="Trazado 5131" d="M560.307,119.2s-5.272,4.611-8.624,4.931a16.364,16.364,0,0,0-.9-3.2,20.016,20.016,0,0,0-2.8-4.269,16.48,16.48,0,0,0,11.186-2A17.391,17.391,0,0,1,560.307,119.2Z" transform="translate(-428.109 -100.263)" fill="#e0e0e0"/>
      <path id="Trazado_5132" data-name="Trazado 5132" d="M560.183,120.65a10.672,10.672,0,0,1-8.453,5.337,36.541,36.541,0,0,0,4.579-2.135,34.647,34.647,0,0,0,3.874-3.2Z" transform="translate(-427.858 -99.86)" fill="#e0e0e0"/>
      <path id="Trazado_5133" data-name="Trazado 5133" d="M576.251,204.374a30.5,30.5,0,0,1-1.4-5.614,31.047,31.047,0,0,1-.843-5.71,29.894,29.894,0,0,1,1.4,5.6,31.069,31.069,0,0,1,.844,5.721Z" transform="translate(-426.358 -94.986)" fill="#263238"/>
      <path id="Trazado_5134" data-name="Trazado 5134" d="M435.68,174.23a212.349,212.349,0,0,0,7.119,21.346c3.97,9.691,12.733,24.815,14.185,32.3s3,56.493,3,56.493l49.246,5.336,38.946,23.225s34.613,1.217,64.637,0l38.861-8.229L637.851,196.323,598.8,205.556,524.2,199.974Z" transform="translate(-435.669 -96.253)" fill="#ebebeb"/>
      <path id="Trazado_5135" data-name="Trazado 5135" d="M435.681,174.23l88.587,25.615h0l74.595,5.529H598.8l39.053-9.232.277-.075v.288c4.216,33.087,8.837,69.237,13.662,106.988l.17,1.345v.256l-.245.053-38.872,8.218h0c-11.207.438-22.232.566-33.023.534s-21.346-.214-31.635-.545h-.16L509.1,289.969h.1l-49.246-5.336h-.192v-.192c-.587-17.557-1.174-33.482-2.081-47.474-.117-1.74-.245-3.458-.395-5.144a31.475,31.475,0,0,0-.726-4.9,59.806,59.806,0,0,0-3.3-8.763c-2.476-5.486-4.984-10.385-7.119-14.857a142.177,142.177,0,0,1-8.261-21.346c-.779-2.5-1.334-4.419-1.7-5.71s-.512-1.964-.512-1.964l.577,1.943c.384,1.292.96,3.2,1.75,5.7a146.147,146.147,0,0,0,8.357,21.229c2.135,4.461,4.675,9.35,7.172,14.836a60.47,60.47,0,0,1,3.341,8.816,31.078,31.078,0,0,1,.736,4.942q.235,2.53.417,5.155c.94,13.992,1.558,29.885,2.135,47.485l-.192-.2,49.256,5.337h.053l38.957,23.2H548.1q15.423.5,31.614.534c10.78,0,21.805-.107,33-.544h0l38.861-8.218-.224.3-.171-1.334c-4.8-37.762-9.424-73.954-13.63-106.988l.32.213L598.809,205.9h-.075l-74.595-5.625h0Z" transform="translate(-435.67 -96.253)" fill="#263238"/>
      <path id="Trazado_5136" data-name="Trazado 5136" d="M587.36,204.45,602.6,311.491l38.861-8.229L627.64,194.94Z" transform="translate(-425.459 -94.859)" fill="#fff"/>
      <path id="Trazado_5137" data-name="Trazado 5137" d="M486.03,188.87l19.809,99.8L544.786,311.9l1.761.534L520.814,198.988Z" transform="translate(-432.28 -95.267)" opacity="0.2"/>
      <path id="Trazado_5138" data-name="Trazado 5138" d="M450.128,220.168l-3.768-3.575a4.461,4.461,0,0,1-1.526-2.22c-.171-.907.491-2.006,1.4-1.91a2.412,2.412,0,0,1,.128-4.685,7.465,7.465,0,0,1-1.579-2.4,2.955,2.955,0,0,1,.32-2.753,3.02,3.02,0,0,1,3-.875,8.081,8.081,0,0,1,2.9,1.526q2.039,1.494,3.938,3.2a4.269,4.269,0,0,1,1.174,1.4,1.517,1.517,0,0,1-.256,1.708,4.088,4.088,0,0,1,3.554,4.589c.918,1.281-.256,3.2-1.772,3.6a7.355,7.355,0,0,1-4.568-.768,2.573,2.573,0,0,1,2.465,2.135,2.53,2.53,0,0,1-4.8,1.409" transform="translate(-435.079 -94.407)" fill="#ffbe9d"/>
      <path id="Trazado_5139" data-name="Trazado 5139" d="M632.987,229.2a3.522,3.522,0,0,1,3.138,5.518c1.131.352,1.558,1.793,1.387,2.967s-.758,2.274-.918,3.448c-.256,1.889.523,4.034-.565,5.593-.886,1.27-2.637,1.547-4.184,1.558a44.081,44.081,0,0,1-5.155-.374,6.285,6.285,0,0,1-2.135-.491,2.261,2.261,0,0,1-1.345-1.665,1.387,1.387,0,0,1,1.227-1.558,2.135,2.135,0,0,1-1.142-3.97,1.974,1.974,0,0,1,.213-2.6,7.72,7.72,0,0,1,2.455-1.473,14.612,14.612,0,0,0,6.863-7.044" transform="translate(-423.111 -92.559)" fill="#ffbe9d"/>
      <path id="Trazado_5140" data-name="Trazado 5140" d="M602.381,310.75c-.149,0-3.682-23.919-7.9-53.472s-7.471-53.537-7.343-53.558,3.693,23.919,7.9,53.483S602.531,310.75,602.381,310.75Z" transform="translate(-425.474 -94.268)" fill="#263238"/>
      <path id="Trazado_5141" data-name="Trazado 5141" d="M505.838,288.425c-.149,0-4.707-22.3-10.172-49.844s-9.787-49.929-9.606-49.961,4.707,22.286,10.182,49.844S506,288.393,505.838,288.425Z" transform="translate(-432.278 -95.284)" fill="#263238"/>
      <path id="Trazado_5142" data-name="Trazado 5142" d="M544.623,312.735c-.15,0-6.041-25.338-13.139-56.664s-12.744-56.749-12.594-56.781,6.031,25.327,13.139,56.664S544.741,312.7,544.623,312.735Z" transform="translate(-430.068 -94.566)" fill="#263238"/>
    </g>
  </g>
</svg>
