<svg xmlns="http://www.w3.org/2000/svg" xmlns:xlink="http://www.w3.org/1999/xlink" width="415.37" height="453.03" viewBox="0 0 415.37 453.03"><defs><clipPath id="a"><path d="M337.3,143.5v31.693h-3.181V148.409h-19.39v26.784h-3.181V148.409H201.881v26.784H198.7V148.409h-19.39v26.784H176.13V143.5Z" transform="translate(-176.13 -143.5)" fill="#5c3caf" stroke="#263238" stroke-linecap="round" stroke-linejoin="round" stroke-width="1"/></clipPath><clipPath id="b"><path d="M332.97,136.73h-152L158.4,150.567H355.541Z" transform="translate(-158.4 -136.73)" fill="#5c3caf" stroke="#263238" stroke-linecap="round" stroke-linejoin="round" stroke-width="1"/></clipPath><clipPath id="c"><rect width="201.569" height="3.344" fill="#5c3caf" stroke="#263238" stroke-linecap="round" stroke-linejoin="round" stroke-width="1"/></clipPath><clipPath id="d"><path d="M223.64,427.343V136.73h63.692V425.3" transform="translate(-223.64 -136.73)" fill="#5c3caf" stroke="#263238" stroke-linecap="round" stroke-linejoin="round" stroke-width="1"/></clipPath><clipPath id="e"><rect width="63.692" height="13.458" fill="#fff" stroke="#263238" stroke-linecap="round" stroke-linejoin="round" stroke-width="1"/></clipPath><clipPath id="f"><path d="M295.559,138.007H215.78l11.28-13.847h57.208Z" transform="translate(-215.78 -124.16)" fill="#5c3caf" stroke="#263238" stroke-linecap="round" stroke-linejoin="round" stroke-width="1"/></clipPath><clipPath id="g"><rect width="81.947" height="3.344" fill="#5c3caf" stroke="#263238" stroke-linecap="round" stroke-linejoin="round" stroke-width="1"/></clipPath></defs><g transform="translate(-42.029 -29.116)"><g transform="translate(58.67 29.116)"><path d="M68.148,170.218S39.636,243.851,79.7,317.994,202.3,431.306,268.357,464.8,403,481.98,435.594,427.124s-12.108-94.014-12.17-172.239,11.71-98.933-30.68-165.018-146.3-80.72-224.886-31.7S68.148,170.218,68.148,170.218Z" transform="translate(-58.313 -29.116)" fill="#fff" opacity="0.7"/><path d="M81.3,159.159c29.484-54.273,103.617-117.607,205.342-91.222S457.079,150.129,445.82,247.242,375.378,425.054,247.912,427.406,16.666,278.137,81.3,159.159Z" transform="translate(-58.24 -28.376)" fill="#5c3caf"/><path d="M81.3,159.159c29.484-54.273,103.617-117.607,205.342-91.222S457.079,150.129,445.82,247.242,375.378,425.054,247.912,427.406,16.666,278.137,81.3,159.159Z" transform="translate(-58.24 -28.376)" fill="#fff" opacity="0.7"/></g><g transform="translate(77.781 81.893)"><path d="M77,145.339s2.567-9.848,19.86-9.9,27.428,17.252,27.428,17.252,7.251-7.537,16.015-2.506,8.744,7.885,8.744,7.885h22.5" transform="translate(-77 -79.483)" fill="none" stroke="#263238" stroke-linecap="round" stroke-linejoin="round" stroke-width="1"/><path d="M436.156,160.67s-2.567-9.859-19.86-9.91-27.428,17.263-27.428,17.263-7.251-7.537-16.015-2.506-8.744,7.885-8.744,7.885h-22.5" transform="translate(-71.001 -79.135)" fill="none" stroke="#263238" stroke-linecap="round" stroke-linejoin="round" stroke-width="1"/><path d="M396.985,143.939H384.3s3.467-7.312-4.367-15.964-15.8-2.894-15.8-2.894-7.69-26.324-30.118-23.235-24.79,24.708-24.79,24.708-4.8-5.308-14.563-1.82-11.249,16.854-8.826,22.5c0,0-11.116,2.158-11.863,11.648,0,0-.685-8.4-11.147-8.652s-13.08,12.732-13.08,12.732H238" transform="translate(-73.35 -80.25)" fill="none" stroke="#263238" stroke-linecap="round" stroke-linejoin="round" stroke-width="1"/><path d="M114.31,125.574l58.66-2.925c6.453-21.568,30.854-12.548,30.854-12.548,9.235-22.376,30.844-11.71,30.844-11.71s10.963-21.558,32.6-17.048a33.656,33.656,0,0,1,26.078,23.593l14.931.624" transform="translate(-76.154 -80.723)" fill="none" stroke="#263238" stroke-linecap="round" stroke-linejoin="round" stroke-width="1"/></g><g transform="translate(87.066 126.315)"><path d="M86.08,341.193V279.28H95.8l8.488-8.5V258.51h2.833v55.142" transform="translate(-86.08 -121.114)" fill="none" stroke="#263238" stroke-linecap="round" stroke-linejoin="round" stroke-width="1"/><path d="M98.14,348.876v-32.3h29.126v59.029" transform="translate(-85.807 -119.797)" fill="none" stroke="#263238" stroke-linecap="round" stroke-linejoin="round" stroke-width="1"/><path d="M114.31,313.906V292.992H126.9V275.484h3.313V247.32h2.659v21.425h3.815v24.779l5.113,5.113v13.867h9.449" transform="translate(-85.44 -121.368)" fill="none" stroke="#263238" stroke-linecap="round" stroke-linejoin="round" stroke-width="1"/><path d="M135.05,379.918V341.3h8.171V322.689H154.01V292.5h4.919" transform="translate(-84.97 -120.343)" fill="none" stroke="#263238" stroke-linecap="round" stroke-linejoin="round" stroke-width="1"/><path d="M370.816,321.678v-8.867h-6.463V295.59h-2.7v17.017H351.17V319.8" transform="translate(-80.07 -120.273)" fill="none" stroke="#263238" stroke-linecap="round" stroke-linejoin="round" stroke-width="1"/><path d="M403.9,314.165V292.392L391.16,279.65H386.3v16.3H383.07v2.915H386.3v26.16H358.25V392.8" transform="translate(-79.909 -120.635)" fill="none" stroke="#263238" stroke-linecap="round" stroke-linejoin="round" stroke-width="1"/><path d="M393.46,369.2V316.58h27.111v13.233" transform="translate(-79.111 -119.797)" fill="none" stroke="#263238" stroke-linecap="round" stroke-linejoin="round" stroke-width="1"/><path d="M411,313.282V274.86h2.7v38.422" transform="translate(-78.713 -120.743)" fill="none" stroke="#263238" stroke-linecap="round" stroke-linejoin="round" stroke-width="1"/><path d="M352.361,390.862V353.391H325.29V304.364L303.334,282.4V259.52H298.66v95.886" transform="translate(-81.26 -121.091)" fill="none" stroke="#263238" stroke-linecap="round" stroke-linejoin="round" stroke-width="1"/><path d="M308.127,402.84V361.647H279.319V333.421h-3.753v-40.4h-3.457V254.573H267.5V208.41h-4.05v44.4l-5.349,5.338v22.264h-9.715v52.964H228.809v33.738H215.78V402.84" transform="translate(-83.139 -122.25)" fill="none" stroke="#263238" stroke-linecap="round" stroke-linejoin="round" stroke-width="1"/><path d="M161.39,311.06h15.258v36.949h12.108V378.3" transform="translate(-84.373 -119.923)" fill="none" stroke="#263238" stroke-linecap="round" stroke-linejoin="round" stroke-width="1"/><path d="M178.64,324.074h9.726V289.18h46.378v35.63" transform="translate(-83.981 -120.419)" fill="none" stroke="#263238" stroke-linecap="round" stroke-linejoin="round" stroke-width="1"/><line x2="16.547" transform="translate(196.404 196.783)" fill="none" stroke="#263238" stroke-linecap="round" stroke-linejoin="round" stroke-width="1"/><path d="M337.238,349.6V284.62H333.73v65.84" transform="translate(-80.465 -120.522)" fill="none" stroke="#263238" stroke-linecap="round" stroke-linejoin="round" stroke-width="1"/><path d="M337.3,143.5v31.693h-3.181V148.409h-19.39v26.784h-3.181V148.409H201.881v26.784H198.7V148.409h-19.39v26.784H176.13V143.5Z" transform="translate(-84.038 -123.722)" fill="#5c3caf"/><g transform="translate(92.092 19.778)" clip-path="url(#a)"><path d="M337.3,143.5v13.458h-3.181v-8.55h-19.39v8.55h-3.181v-8.55H201.881v8.55H198.7v-8.55h-19.39v8.55H176.13V143.5Z" transform="translate(-176.13 -143.5)" opacity="0.5"/></g><path d="M337.3,143.5v31.693h-3.181V148.409h-19.39v26.784h-3.181V148.409H201.881v26.784H198.7V148.409h-19.39v26.784H176.13V143.5Z" transform="translate(-84.038 -123.722)" fill="none" stroke="#263238" stroke-linecap="round" stroke-linejoin="round" stroke-width="1"/><path d="M332.97,136.73h-152L158.4,150.567H355.541Z" transform="translate(-84.44 -123.875)" fill="#5c3caf"/><g transform="translate(73.96 12.855)" clip-path="url(#b)"><path d="M332.97,136.73h-152L158.4,150.567H355.541Z" transform="translate(-158.4 -136.73)" opacity="0.1"/><path d="M292.029,136.73H224.41v13.837h85.1Z" transform="translate(-156.903 -136.73)" opacity="0.1"/></g><path d="M332.97,136.73h-152L158.4,150.567H355.541Z" transform="translate(-84.44 -123.875)" fill="none" stroke="#263238" stroke-linecap="round" stroke-linejoin="round" stroke-width="1"/><line x2="116.922" transform="translate(127.906 15.514)" fill="none" stroke="#263238" stroke-linecap="round" stroke-linejoin="round" stroke-width="1"/><line x1="82.816" transform="translate(133.039 18.459)" fill="none" stroke="#263238" stroke-linecap="round" stroke-linejoin="round" stroke-width="1"/><line x2="95.17" transform="translate(113.455 21.865)" fill="none" stroke="#263238" stroke-linecap="round" stroke-linejoin="round" stroke-width="1"/><line x2="2.833" transform="translate(219.609 18.459)" fill="none" stroke="#263238" stroke-linecap="round" stroke-linejoin="round" stroke-width="1"/><line x2="10.953" transform="translate(231.523 18.459)" fill="none" stroke="#263238" stroke-linecap="round" stroke-linejoin="round" stroke-width="1"/><line x2="1.994" transform="translate(249.777 15.514)" fill="none" stroke="#263238" stroke-linecap="round" stroke-linejoin="round" stroke-width="1"/><line x2="23.266" transform="translate(214.352 21.865)" fill="none" stroke="#263238" stroke-linecap="round" stroke-linejoin="round" stroke-width="1"/><line x2="3.109" transform="translate(242.476 21.865)" fill="none" stroke="#263238" stroke-linecap="round" stroke-linejoin="round" stroke-width="1"/><line x2="9.951" transform="translate(253.265 21.865)" fill="none" stroke="#263238" stroke-linecap="round" stroke-linejoin="round" stroke-width="1"/><line x2="21.568" transform="translate(87.387 18.459)" fill="none" stroke="#263238" stroke-linecap="round" stroke-linejoin="round" stroke-width="1"/><line x2="2.843" transform="translate(119.878 18.459)" fill="none" stroke="#263238" stroke-linecap="round" stroke-linejoin="round" stroke-width="1"/><line x1="21.711" transform="translate(98.166 15.514)" fill="none" stroke="#263238" stroke-linecap="round" stroke-linejoin="round" stroke-width="1"/><line x2="5.134" transform="translate(92.092 21.865)" fill="none" stroke="#263238" stroke-linecap="round" stroke-linejoin="round" stroke-width="1"/><path d="M346.049,173.59V401.37c-27.193,14.317-60.5,22.754-100.539,23.521a166.276,166.276,0,0,1-78.04-18.255V173.59Z" transform="translate(-84.235 -123.039)" fill="#5c3caf" stroke="#5c3caf" stroke-miterlimit="10" stroke-width="1"/><path d="M346.049,173.59V401.37c-27.193,14.317-60.5,22.754-100.539,23.521a166.276,166.276,0,0,1-78.04-18.255V173.59Z" transform="translate(-84.235 -123.039)" fill="#fff" opacity="0.4"/><rect width="7.905" height="244.593" transform="translate(201.589 51.471)" opacity="0.2"/><path d="M205.38,406.4l-4.07,10.227V177.55l4.07,10.227Z" transform="translate(-83.467 -122.95)" opacity="0.2"/><path d="M310.35,386.79l7.752,7.752H342.81V386.79H310.35" transform="translate(-80.995 -118.206)" opacity="0.2"/><path d="M310.35,342.62l7.752,7.752H342.81V342.62H310.35" transform="translate(-80.995 -119.207)" opacity="0.2"/><path d="M310.35,298.44l7.752,7.752H342.81V298.44H310.35" transform="translate(-80.995 -120.209)" opacity="0.2"/><path d="M310.35,254.27l7.752,7.752H342.81V254.27H310.35" transform="translate(-80.995 -121.21)" opacity="0.2"/><path d="M310.35,210.1l7.752,7.752H342.81V210.1H310.35" transform="translate(-80.995 -122.212)" opacity="0.2"/><path d="M167.35,386.79l7.752,7.752h26.753V386.79h-34.5" transform="translate(-84.237 -118.206)" opacity="0.2"/><path d="M167.35,342.62l7.752,7.752h26.753V342.62h-34.5" transform="translate(-84.237 -119.207)" opacity="0.2"/><path d="M167.35,298.44l7.752,7.752h26.753V298.44h-34.5" transform="translate(-84.237 -120.209)" opacity="0.2"/><path d="M167.35,254.27l7.752,7.752h26.753V254.27h-34.5" transform="translate(-84.237 -121.21)" opacity="0.2"/><path d="M167.35,210.1l7.752,7.752h26.753V210.1h-34.5" transform="translate(-84.237 -122.212)" opacity="0.2"/><line x2="173.67" transform="translate(85.69 40.488)" fill="none" stroke="#263238" stroke-linecap="round" stroke-linejoin="round" stroke-width="1"/><line x2="173.67" transform="translate(85.69 43.075)" fill="none" stroke="#263238" stroke-linecap="round" stroke-linejoin="round" stroke-width="1"/><line x2="173.67" transform="translate(85.69 45.662)" fill="none" stroke="#263238" stroke-linecap="round" stroke-linejoin="round" stroke-width="1"/><line x2="173.67" transform="translate(85.69 48.25)" fill="none" stroke="#263238" stroke-linecap="round" stroke-linejoin="round" stroke-width="1"/><rect width="173.67" height="12.364" transform="translate(85.69 38.187)" fill="none" stroke="#263238" stroke-linecap="round" stroke-linejoin="round" stroke-width="1"/><rect width="201.569" height="3.344" transform="translate(71.74 24.687)" fill="#5c3caf"/><g transform="translate(71.74 24.687)" clip-path="url(#c)"><rect width="201.569" height="3.344" opacity="0.2"/><rect width="86.048" height="3.344" transform="translate(69.726)" opacity="0.2"/></g><rect width="201.569" height="3.344" transform="translate(71.74 24.687)" fill="none" stroke="#263238" stroke-linecap="round" stroke-linejoin="round" stroke-width="1"/><path d="M167.47,406.616V173.59H346.049V401.37" transform="translate(-84.235 -123.039)" fill="none" stroke="#263238" stroke-linecap="round" stroke-linejoin="round" stroke-width="1"/><path d="M223.64,427.343V136.73h63.692V425.3" transform="translate(-82.961 -123.875)" fill="#5c3caf"/><g transform="translate(140.679 12.855)" clip-path="url(#d)"><rect width="63.692" height="7.568" transform="translate(0 2.659)" opacity="0.5"/></g><path d="M223.64,427.343V136.73h63.692V425.3" transform="translate(-82.961 -123.875)" fill="none" stroke="#263238" stroke-linecap="round" stroke-linejoin="round" stroke-width="1"/><rect width="17.662" height="13.458" transform="translate(145.424 58.834)" fill="#fff" stroke="#263238" stroke-linecap="round" stroke-linejoin="round" stroke-width="1"/><rect width="7.803" height="12.436" transform="translate(154.771 59.346)" fill="#fff"/><path d="M244.723,182.713v11.413h-6.78V182.713h6.78m1.023-1.023H236.92v13.458h8.826Z" transform="translate(-82.66 -122.856)" fill="#263238"/><rect width="27.264" height="25.822" transform="translate(86.262 58.834)" fill="#fff" stroke="#263238" stroke-linecap="round" stroke-linejoin="round" stroke-width="1"/><line y2="25.822" transform="translate(95.272 58.834)" fill="none" stroke="#263238" stroke-linecap="round" stroke-linejoin="round" stroke-width="1"/><path d="M196.28,182.713V206.49h-7.108V182.713h7.108m1.023-1.023H188.15v25.822H197.3Z" transform="translate(-83.766 -122.856)" fill="#263238"/><rect width="38.677" height="3.365" transform="translate(77.017 84.657)" fill="#5c3caf" stroke="#263238" stroke-linecap="round" stroke-linejoin="round" stroke-width="1"/><line x2="38.677" transform="translate(77.017 74.594)" fill="none" stroke="#263238" stroke-linecap="round" stroke-linejoin="round" stroke-width="1"/><line x2="38.677" transform="translate(77.017 77.181)" fill="none" stroke="#263238" stroke-linecap="round" stroke-linejoin="round" stroke-width="1"/><line x2="38.677" transform="translate(77.017 79.768)" fill="none" stroke="#263238" stroke-linecap="round" stroke-linejoin="round" stroke-width="1"/><line x2="38.677" transform="translate(77.017 82.356)" fill="none" stroke="#263238" stroke-linecap="round" stroke-linejoin="round" stroke-width="1"/><rect width="38.677" height="12.364" transform="translate(77.017 72.293)" fill="none" stroke="#263238" stroke-linecap="round" stroke-linejoin="round" stroke-width="1"/><rect width="5.809" height="13.458" transform="translate(126.3 58.834)" fill="#fff" stroke="#263238" stroke-linecap="round" stroke-linejoin="round" stroke-width="1"/><rect width="17.662" height="13.458" transform="translate(199.626 72.293) rotate(180)" fill="#fff" stroke="#263238" stroke-linecap="round" stroke-linejoin="round" stroke-width="1"/><rect width="7.803" height="12.436" transform="translate(182.475 59.346)" fill="#fff"/><path d="M271.823,182.713v11.413h-6.8V182.713h6.791m1.023-1.023H264v13.458h8.836Z" transform="translate(-82.046 -122.856)" fill="#263238"/><rect width="27.264" height="25.822" transform="translate(258.787 84.657) rotate(180)" fill="#fff" stroke="#263238" stroke-linecap="round" stroke-linejoin="round" stroke-width="1"/><line y2="25.822" transform="translate(249.777 58.834)" fill="none" stroke="#263238" stroke-linecap="round" stroke-linejoin="round" stroke-width="1"/><path d="M320.59,182.713V206.49h-7.1V182.713h7.1m1.023-1.023H312.47v25.822h9.143Z" transform="translate(-80.947 -122.856)" fill="#263238"/><rect width="38.677" height="3.365" transform="translate(268.042 88.032) rotate(180)" fill="#5c3caf" stroke="#263238" stroke-linecap="round" stroke-linejoin="round" stroke-width="1"/><line x1="38.677" transform="translate(229.355 74.594)" fill="none" stroke="#263238" stroke-linecap="round" stroke-linejoin="round" stroke-width="1"/><line x1="38.677" transform="translate(229.355 77.181)" fill="none" stroke="#263238" stroke-linecap="round" stroke-linejoin="round" stroke-width="1"/><line x1="38.677" transform="translate(229.355 79.768)" fill="none" stroke="#263238" stroke-linecap="round" stroke-linejoin="round" stroke-width="1"/><line x1="38.677" transform="translate(229.355 82.356)" fill="none" stroke="#263238" stroke-linecap="round" stroke-linejoin="round" stroke-width="1"/><rect width="38.677" height="12.364" transform="translate(268.042 84.667) rotate(180)" fill="none" stroke="#263238" stroke-linecap="round" stroke-linejoin="round" stroke-width="1"/><rect width="5.809" height="13.458" transform="translate(218.75 72.293) rotate(180)" fill="#fff" stroke="#263238" stroke-linecap="round" stroke-linejoin="round" stroke-width="1"/><rect width="17.662" height="13.458" transform="translate(145.424 103.975)" fill="#fff" stroke="#263238" stroke-linecap="round" stroke-linejoin="round" stroke-width="1"/><rect width="7.803" height="12.436" transform="translate(154.771 104.486)" fill="#fff"/><path d="M244.723,226.853v11.423h-6.78V226.853h6.78m1.023-1.023H236.92V239.3h8.826Z" transform="translate(-82.66 -121.855)" fill="#263238"/><rect width="27.264" height="25.822" transform="translate(86.262 103.975)" fill="#fff" stroke="#263238" stroke-linecap="round" stroke-linejoin="round" stroke-width="1"/><line y2="25.822" transform="translate(95.272 103.975)" fill="none" stroke="#263238" stroke-linecap="round" stroke-linejoin="round" stroke-width="1"/><path d="M196.28,226.853V250.63h-7.108V226.853h7.108m1.023-1.023H188.15v25.822H197.3Z" transform="translate(-83.766 -121.855)" fill="#263238"/><rect width="38.677" height="3.365" transform="translate(77.017 129.798)" fill="#5c3caf" stroke="#263238" stroke-linecap="round" stroke-linejoin="round" stroke-width="1"/><line x2="38.677" transform="translate(77.017 119.734)" fill="none" stroke="#263238" stroke-linecap="round" stroke-linejoin="round" stroke-width="1"/><line x2="38.677" transform="translate(77.017 122.322)" fill="none" stroke="#263238" stroke-linecap="round" stroke-linejoin="round" stroke-width="1"/><line x2="38.677" transform="translate(77.017 124.909)" fill="none" stroke="#263238" stroke-linecap="round" stroke-linejoin="round" stroke-width="1"/><line x2="38.677" transform="translate(77.017 127.497)" fill="none" stroke="#263238" stroke-linecap="round" stroke-linejoin="round" stroke-width="1"/><rect width="38.677" height="12.364" transform="translate(77.017 117.433)" fill="none" stroke="#263238" stroke-linecap="round" stroke-linejoin="round" stroke-width="1"/><rect width="5.809" height="13.458" transform="translate(126.3 103.975)" fill="#fff" stroke="#263238" stroke-linecap="round" stroke-linejoin="round" stroke-width="1"/><rect width="17.662" height="13.458" transform="translate(199.626 117.433) rotate(180)" fill="#fff" stroke="#263238" stroke-linecap="round" stroke-linejoin="round" stroke-width="1"/><rect width="7.803" height="12.436" transform="translate(182.475 104.486)" fill="#fff"/><path d="M271.823,226.853v11.423h-6.8V226.853h6.791m1.023-1.023H264V239.3h8.836Z" transform="translate(-82.046 -121.855)" fill="#263238"/><rect width="27.264" height="25.822" transform="translate(258.787 129.798) rotate(180)" fill="#fff" stroke="#263238" stroke-linecap="round" stroke-linejoin="round" stroke-width="1"/><line y2="25.822" transform="translate(249.777 103.975)" fill="none" stroke="#263238" stroke-linecap="round" stroke-linejoin="round" stroke-width="1"/><path d="M320.59,226.853V250.63h-7.1V226.853h7.1m1.023-1.023H312.47v25.822h9.143Z" transform="translate(-80.947 -121.855)" fill="#263238"/><rect width="38.677" height="3.365" transform="translate(268.042 133.162) rotate(180)" fill="#5c3caf" stroke="#263238" stroke-linecap="round" stroke-linejoin="round" stroke-width="1"/><line x1="38.677" transform="translate(229.355 119.734)" fill="none" stroke="#263238" stroke-linecap="round" stroke-linejoin="round" stroke-width="1"/><line x1="38.677" transform="translate(229.355 122.322)" fill="none" stroke="#263238" stroke-linecap="round" stroke-linejoin="round" stroke-width="1"/><line x1="38.677" transform="translate(229.355 124.909)" fill="none" stroke="#263238" stroke-linecap="round" stroke-linejoin="round" stroke-width="1"/><line x1="38.677" transform="translate(229.355 127.497)" fill="none" stroke="#263238" stroke-linecap="round" stroke-linejoin="round" stroke-width="1"/><rect width="38.677" height="12.364" transform="translate(268.042 129.798) rotate(180)" fill="none" stroke="#263238" stroke-linecap="round" stroke-linejoin="round" stroke-width="1"/><rect width="5.809" height="13.458" transform="translate(218.75 117.433) rotate(180)" fill="#fff" stroke="#263238" stroke-linecap="round" stroke-linejoin="round" stroke-width="1"/><rect width="17.662" height="13.458" transform="translate(145.424 149.116)" fill="#fff" stroke="#263238" stroke-linecap="round" stroke-linejoin="round" stroke-width="1"/><rect width="7.803" height="12.436" transform="translate(154.771 149.627)" fill="#fff"/><path d="M244.723,271.023v11.413h-6.78V271.023h6.78M245.746,270H236.92v13.458h8.826Z" transform="translate(-82.66 -120.853)" fill="#263238"/><rect width="27.264" height="25.822" transform="translate(86.262 149.116)" fill="#fff" stroke="#263238" stroke-linecap="round" stroke-linejoin="round" stroke-width="1"/><line y2="25.822" transform="translate(95.272 149.116)" fill="none" stroke="#263238" stroke-linecap="round" stroke-linejoin="round" stroke-width="1"/><path d="M196.28,271.023V294.8h-7.108V271.023h7.108M197.3,270H188.15v25.822H197.3Z" transform="translate(-83.766 -120.853)" fill="#263238"/><rect width="38.677" height="3.365" transform="translate(77.017 174.938)" fill="#5c3caf" stroke="#263238" stroke-linecap="round" stroke-linejoin="round" stroke-width="1"/><line x2="38.677" transform="translate(77.017 164.875)" fill="none" stroke="#263238" stroke-linecap="round" stroke-linejoin="round" stroke-width="1"/><line x2="38.677" transform="translate(77.017 167.463)" fill="none" stroke="#263238" stroke-linecap="round" stroke-linejoin="round" stroke-width="1"/><line x2="38.677" transform="translate(77.017 170.05)" fill="none" stroke="#263238" stroke-linecap="round" stroke-linejoin="round" stroke-width="1"/><line x2="38.677" transform="translate(77.017 172.637)" fill="none" stroke="#263238" stroke-linecap="round" stroke-linejoin="round" stroke-width="1"/><rect width="38.677" height="12.364" transform="translate(77.017 162.574)" fill="none" stroke="#263238" stroke-linecap="round" stroke-linejoin="round" stroke-width="1"/><rect width="5.809" height="13.458" transform="translate(126.3 149.116)" fill="#fff" stroke="#263238" stroke-linecap="round" stroke-linejoin="round" stroke-width="1"/><rect width="17.662" height="13.458" transform="translate(199.626 162.574) rotate(180)" fill="#fff" stroke="#263238" stroke-linecap="round" stroke-linejoin="round" stroke-width="1"/><rect width="7.803" height="12.436" transform="translate(182.475 149.627)" fill="#fff"/><path d="M271.823,271.023v11.413h-6.8V271.023h6.791M272.836,270H264v13.458h8.836Z" transform="translate(-82.046 -120.853)" fill="#263238"/><rect width="27.264" height="25.822" transform="translate(258.787 174.938) rotate(180)" fill="#fff" stroke="#263238" stroke-linecap="round" stroke-linejoin="round" stroke-width="1"/><line y2="25.822" transform="translate(249.777 149.116)" fill="none" stroke="#263238" stroke-linecap="round" stroke-linejoin="round" stroke-width="1"/><path d="M320.59,271.023V294.8h-7.1V271.023h7.1M321.613,270H312.47v25.822h9.143Z" transform="translate(-80.947 -120.853)" fill="#263238"/><rect width="38.677" height="3.365" transform="translate(268.042 178.303) rotate(180)" fill="#5c3caf" stroke="#263238" stroke-linecap="round" stroke-linejoin="round" stroke-width="1"/><line x1="38.677" transform="translate(229.355 164.875)" fill="none" stroke="#263238" stroke-linecap="round" stroke-linejoin="round" stroke-width="1"/><line x1="38.677" transform="translate(229.355 167.463)" fill="none" stroke="#263238" stroke-linecap="round" stroke-linejoin="round" stroke-width="1"/><line x1="38.677" transform="translate(229.355 170.05)" fill="none" stroke="#263238" stroke-linecap="round" stroke-linejoin="round" stroke-width="1"/><line x1="38.677" transform="translate(229.355 172.637)" fill="none" stroke="#263238" stroke-linecap="round" stroke-linejoin="round" stroke-width="1"/><rect width="38.677" height="12.364" transform="translate(268.042 174.938) rotate(180)" fill="none" stroke="#263238" stroke-linecap="round" stroke-linejoin="round" stroke-width="1"/><rect width="5.809" height="13.458" transform="translate(218.75 162.574) rotate(180)" fill="#fff" stroke="#263238" stroke-linecap="round" stroke-linejoin="round" stroke-width="1"/><rect width="17.662" height="13.458" transform="translate(145.424 194.257)" fill="#fff" stroke="#263238" stroke-linecap="round" stroke-linejoin="round" stroke-width="1"/><rect width="7.803" height="12.436" transform="translate(154.771 194.768)" fill="#fff"/><path d="M244.723,315.133v11.413h-6.78V315.133h6.78m1.023-1.023H236.92v13.458h8.826Z" transform="translate(-82.66 -119.853)" fill="#263238"/><rect width="27.264" height="25.822" transform="translate(86.262 194.257)" fill="#fff" stroke="#263238" stroke-linecap="round" stroke-linejoin="round" stroke-width="1"/><line y2="25.822" transform="translate(95.272 194.257)" fill="none" stroke="#263238" stroke-linecap="round" stroke-linejoin="round" stroke-width="1"/><path d="M196.28,315.133V338.91h-7.108V315.133h7.108m1.023-1.023H188.15v25.822H197.3Z" transform="translate(-83.766 -119.853)" fill="#263238"/><rect width="38.677" height="3.365" transform="translate(77.017 220.079)" fill="#5c3caf" stroke="#263238" stroke-linecap="round" stroke-linejoin="round" stroke-width="1"/><line x2="38.677" transform="translate(77.017 210.016)" fill="none" stroke="#263238" stroke-linecap="round" stroke-linejoin="round" stroke-width="1"/><line x2="38.677" transform="translate(77.017 212.603)" fill="none" stroke="#263238" stroke-linecap="round" stroke-linejoin="round" stroke-width="1"/><line x2="38.677" transform="translate(77.017 215.191)" fill="none" stroke="#263238" stroke-linecap="round" stroke-linejoin="round" stroke-width="1"/><line x2="38.677" transform="translate(77.017 217.778)" fill="none" stroke="#263238" stroke-linecap="round" stroke-linejoin="round" stroke-width="1"/><rect width="38.677" height="12.364" transform="translate(77.017 207.715)" fill="none" stroke="#263238" stroke-linecap="round" stroke-linejoin="round" stroke-width="1"/><rect width="5.809" height="13.458" transform="translate(126.3 194.257)" fill="#fff" stroke="#263238" stroke-linecap="round" stroke-linejoin="round" stroke-width="1"/><rect width="17.662" height="13.458" transform="translate(199.626 207.715) rotate(180)" fill="#fff" stroke="#263238" stroke-linecap="round" stroke-linejoin="round" stroke-width="1"/><rect width="7.803" height="12.436" transform="translate(182.475 194.768)" fill="#fff"/><path d="M271.823,315.133v11.413h-6.8V315.133h6.791m1.023-1.023H264v13.458h8.836Z" transform="translate(-82.046 -119.853)" fill="#263238"/><rect width="27.264" height="25.822" transform="translate(258.787 220.079) rotate(180)" fill="#fff" stroke="#263238" stroke-linecap="round" stroke-linejoin="round" stroke-width="1"/><line y2="25.822" transform="translate(249.777 194.257)" fill="none" stroke="#263238" stroke-linecap="round" stroke-linejoin="round" stroke-width="1"/><path d="M320.59,315.133V338.91h-7.1V315.133h7.1m1.023-1.023H312.47v25.822h9.143Z" transform="translate(-80.947 -119.853)" fill="#263238"/><rect width="38.677" height="3.365" transform="translate(268.042 223.444) rotate(180)" fill="#5c3caf" stroke="#263238" stroke-linecap="round" stroke-linejoin="round" stroke-width="1"/><line x1="38.677" transform="translate(229.355 210.016)" fill="none" stroke="#263238" stroke-linecap="round" stroke-linejoin="round" stroke-width="1"/><line x1="38.677" transform="translate(229.355 212.603)" fill="none" stroke="#263238" stroke-linecap="round" stroke-linejoin="round" stroke-width="1"/><line x1="38.677" transform="translate(229.355 215.191)" fill="none" stroke="#263238" stroke-linecap="round" stroke-linejoin="round" stroke-width="1"/><line x1="38.677" transform="translate(229.355 217.778)" fill="none" stroke="#263238" stroke-linecap="round" stroke-linejoin="round" stroke-width="1"/><rect width="38.677" height="12.364" transform="translate(268.042 220.079) rotate(180)" fill="none" stroke="#263238" stroke-linecap="round" stroke-linejoin="round" stroke-width="1"/><rect width="5.809" height="13.458" transform="translate(218.75 207.715) rotate(180)" fill="#fff" stroke="#263238" stroke-linecap="round" stroke-linejoin="round" stroke-width="1"/><rect width="17.662" height="13.458" transform="translate(145.424 239.397)" fill="#fff" stroke="#263238" stroke-linecap="round" stroke-linejoin="round" stroke-width="1"/><rect width="7.803" height="12.436" transform="translate(154.771 239.909)" fill="#fff"/><path d="M244.723,359.273v11.413h-6.78V359.273h6.78m1.023-1.023H236.92v13.458h8.826Z" transform="translate(-82.66 -118.853)" fill="#263238"/><rect width="27.264" height="25.822" transform="translate(86.262 239.397)" fill="#fff" stroke="#263238" stroke-linecap="round" stroke-linejoin="round" stroke-width="1"/><line y2="25.822" transform="translate(95.272 239.397)" fill="none" stroke="#263238" stroke-linecap="round" stroke-linejoin="round" stroke-width="1"/><path d="M196.28,359.273V383.05h-7.108V359.273h7.108m1.023-1.023H188.15v25.822H197.3Z" transform="translate(-83.766 -118.853)" fill="#263238"/><rect width="38.677" height="3.365" transform="translate(77.017 265.22)" fill="#5c3caf" stroke="#263238" stroke-linecap="round" stroke-linejoin="round" stroke-width="1"/><line x2="38.677" transform="translate(77.017 255.157)" fill="none" stroke="#263238" stroke-linecap="round" stroke-linejoin="round" stroke-width="1"/><line x2="38.677" transform="translate(77.017 257.744)" fill="none" stroke="#263238" stroke-linecap="round" stroke-linejoin="round" stroke-width="1"/><line x2="38.677" transform="translate(77.017 260.331)" fill="none" stroke="#263238" stroke-linecap="round" stroke-linejoin="round" stroke-width="1"/><line x2="38.677" transform="translate(77.017 262.919)" fill="none" stroke="#263238" stroke-linecap="round" stroke-linejoin="round" stroke-width="1"/><rect width="38.677" height="12.364" transform="translate(77.017 252.856)" fill="none" stroke="#263238" stroke-linecap="round" stroke-linejoin="round" stroke-width="1"/><rect width="5.809" height="13.458" transform="translate(126.3 239.397)" fill="#fff" stroke="#263238" stroke-linecap="round" stroke-linejoin="round" stroke-width="1"/><rect width="17.662" height="13.458" transform="translate(199.626 252.856) rotate(180)" fill="#fff" stroke="#263238" stroke-linecap="round" stroke-linejoin="round" stroke-width="1"/><rect width="7.803" height="12.436" transform="translate(182.475 239.909)" fill="#fff"/><path d="M271.823,359.273v11.413h-6.8V359.273h6.791m1.023-1.023H264v13.458h8.836Z" transform="translate(-82.046 -118.853)" fill="#263238"/><rect width="27.264" height="25.822" transform="translate(258.787 265.22) rotate(180)" fill="#fff" stroke="#263238" stroke-linecap="round" stroke-linejoin="round" stroke-width="1"/><line y2="25.822" transform="translate(249.777 239.397)" fill="none" stroke="#263238" stroke-linecap="round" stroke-linejoin="round" stroke-width="1"/><path d="M320.59,359.273V383.05h-7.1V359.273h7.1m1.023-1.023H312.47v25.822h9.143Z" transform="translate(-80.947 -118.853)" fill="#263238"/><rect width="38.677" height="3.365" transform="translate(268.042 268.584) rotate(180)" fill="#5c3caf" stroke="#263238" stroke-linecap="round" stroke-linejoin="round" stroke-width="1"/><line x1="38.677" transform="translate(229.355 255.157)" fill="none" stroke="#263238" stroke-linecap="round" stroke-linejoin="round" stroke-width="1"/><line x1="38.677" transform="translate(229.355 257.744)" fill="none" stroke="#263238" stroke-linecap="round" stroke-linejoin="round" stroke-width="1"/><line x1="38.677" transform="translate(229.355 260.331)" fill="none" stroke="#263238" stroke-linecap="round" stroke-linejoin="round" stroke-width="1"/><line x1="38.677" transform="translate(229.355 262.919)" fill="none" stroke="#263238" stroke-linecap="round" stroke-linejoin="round" stroke-width="1"/><rect width="38.677" height="12.364" transform="translate(268.042 265.22) rotate(180)" fill="none" stroke="#263238" stroke-linecap="round" stroke-linejoin="round" stroke-width="1"/><rect width="5.809" height="13.458" transform="translate(218.75 252.856) rotate(180)" fill="#fff" stroke="#263238" stroke-linecap="round" stroke-linejoin="round" stroke-width="1"/><rect width="63.692" height="13.458" transform="translate(140.679 19.778)" fill="#fff"/><g transform="translate(140.679 19.778)" clip-path="url(#e)"><rect width="63.702" height="3.855" opacity="0.3"/></g><rect width="63.692" height="13.458" transform="translate(140.679 19.778)" fill="none" stroke="#263238" stroke-linecap="round" stroke-linejoin="round" stroke-width="1"/><line y2="13.458" transform="translate(147.858 19.778)" fill="#fff" stroke="#263238" stroke-linecap="round" stroke-linejoin="round" stroke-width="1"/><line y2="13.458" transform="translate(156.08 19.778)" fill="#fff" stroke="#263238" stroke-linecap="round" stroke-linejoin="round" stroke-width="1"/><line y2="13.458" transform="translate(164.303 19.778)" fill="#fff" stroke="#263238" stroke-linecap="round" stroke-linejoin="round" stroke-width="1"/><line y2="13.458" transform="translate(172.525 19.778)" fill="#fff" stroke="#263238" stroke-linecap="round" stroke-linejoin="round" stroke-width="1"/><line y2="13.458" transform="translate(180.747 19.778)" fill="#fff" stroke="#263238" stroke-linecap="round" stroke-linejoin="round" stroke-width="1"/><line y2="13.458" transform="translate(188.969 19.778)" fill="#fff" stroke="#263238" stroke-linecap="round" stroke-linejoin="round" stroke-width="1"/><line y2="13.458" transform="translate(197.202 19.778)" fill="#fff" stroke="#263238" stroke-linecap="round" stroke-linejoin="round" stroke-width="1"/><path d="M295.559,138.007H215.78l11.28-13.847h57.208Z" transform="translate(-83.139 -124.16)" fill="#5c3caf"/><g transform="translate(132.641)" clip-path="url(#f)"><path d="M295.559,138.007H215.78l11.28-13.847h57.208Z" transform="translate(-215.78 -124.16)" opacity="0.1"/></g><path d="M295.559,138.007H215.78l11.28-13.847h57.208Z" transform="translate(-83.139 -124.16)" fill="none" stroke="#263238" stroke-linecap="round" stroke-linejoin="round" stroke-width="1"/><rect width="81.947" height="3.344" transform="translate(131.557 12.17)" fill="#5c3caf"/><g transform="translate(131.557 12.17)" clip-path="url(#g)"><rect width="81.947" height="3.344" opacity="0.2"/></g><rect width="81.947" height="3.344" transform="translate(131.557 12.17)" fill="none" stroke="#263238" stroke-linecap="round" stroke-linejoin="round" stroke-width="1"/><rect width="5.962" height="2.393" transform="translate(154.403 39.588) rotate(180)" opacity="0.2"/><rect width="5.962" height="2.393" transform="translate(159.179 42.318) rotate(180)" opacity="0.2"/><rect width="5.962" height="2.393" transform="translate(175.941 55.807) rotate(180)" opacity="0.2"/><rect width="5.962" height="2.393" transform="translate(172.954 58.967) rotate(180)" opacity="0.2"/><rect width="5.962" height="2.393" transform="translate(151.427 80.341) rotate(180)" opacity="0.2"/><rect width="5.962" height="2.393" transform="translate(154.689 83.317) rotate(180)" opacity="0.2"/><rect width="5.962" height="2.393" transform="translate(189.409 86.16) rotate(180)" opacity="0.2"/><rect width="5.962" height="2.393" transform="translate(186.259 89.351) rotate(180)" opacity="0.2"/><rect width="5.962" height="2.393" transform="translate(153.309 101.868) rotate(180)" opacity="0.2"/><rect width="5.962" height="2.393" transform="translate(158.105 80.341) rotate(180)" opacity="0.2"/><rect width="5.962" height="2.393" transform="translate(171.052 147.377)" opacity="0.2"/><rect width="5.962" height="2.393" transform="translate(144.8 144.637)" opacity="0.2"/><rect width="5.962" height="2.393" transform="translate(152.593 129.112)" opacity="0.2"/><rect width="5.962" height="2.393" transform="translate(155.569 125.952)" opacity="0.2"/><rect width="5.962" height="2.393" transform="translate(174.028 106.624)" opacity="0.2"/><rect width="5.962" height="2.393" transform="translate(170.766 103.638)" opacity="0.2"/><rect width="5.962" height="2.393" transform="translate(185.001 46.44)" opacity="0.2"/><rect width="5.962" height="2.393" transform="translate(188.151 43.249)" opacity="0.2"/><rect width="5.962" height="2.393" transform="translate(186.372 96.898)" opacity="0.2"/><rect width="5.962" height="2.393" transform="translate(167.35 106.624)" opacity="0.2"/><rect width="5.962" height="2.393" transform="translate(191.874 130.565)" opacity="0.2"/><rect width="5.962" height="2.393" transform="translate(187.098 127.824)" opacity="0.2"/><rect width="5.962" height="2.393" transform="translate(171.369 256.496)" opacity="0.2"/><rect width="5.962" height="2.393" transform="translate(185.595 275.825)" opacity="0.2"/><rect width="5.962" height="2.393" transform="translate(196.895 236.043)" opacity="0.2"/><rect width="5.962" height="2.393" transform="translate(193.633 233.067)" opacity="0.2"/><rect width="5.962" height="2.393" transform="translate(147.664 234.315)" opacity="0.2"/><rect width="5.962" height="2.393" transform="translate(150.813 231.124)" opacity="0.2"/><rect width="5.962" height="2.393" transform="translate(195.013 214.516)" opacity="0.2"/><rect width="5.962" height="2.393" transform="translate(190.217 236.043)" opacity="0.2"/><path d="M250.2,355.121c5.8-.061,11.771-.061,17.385,0" transform="translate(-82.359 -118.925)" opacity="0.2"/><rect width="5.962" height="2.393" transform="translate(163.986 165.939) rotate(180)" opacity="0.2"/><rect width="5.962" height="2.393" transform="translate(168.751 168.68) rotate(180)" opacity="0.2"/><rect width="5.962" height="2.393" transform="translate(182.445 184.204) rotate(180)" opacity="0.2"/><rect width="5.962" height="2.393" transform="translate(179.459 219.067) rotate(180)" opacity="0.2"/><rect width="5.962" height="2.393" transform="translate(160.999 202.612) rotate(180)" opacity="0.2"/><rect width="5.962" height="2.393" transform="translate(164.272 205.588) rotate(180)" opacity="0.2"/><rect width="5.962" height="2.393" transform="translate(159.23 267.899) rotate(180)" opacity="0.2"/><rect width="5.962" height="2.393" transform="translate(156.08 271.09) rotate(180)" opacity="0.2"/><rect width="5.962" height="2.393" transform="translate(148.656 212.317) rotate(180)" opacity="0.2"/><rect width="5.962" height="2.393" transform="translate(167.677 202.612) rotate(180)" opacity="0.2"/><rect width="5.962" height="2.393" transform="translate(147.388 259.749) rotate(180)" opacity="0.1"/><rect width="5.962" height="2.393" transform="translate(152.174 257.008) rotate(180)" opacity="0.1"/><rect width="5.962" height="2.393" transform="translate(197.458 262.735) rotate(180)" opacity="0.1"/><rect width="5.962" height="2.393" transform="translate(194.471 259.575) rotate(180)" opacity="0.1"/><rect width="5.962" height="2.393" transform="translate(192.702 226.767) rotate(180)" opacity="0.1"/><rect width="5.962" height="2.393" transform="translate(195.975 223.802) rotate(180)" opacity="0.1"/><rect width="5.962" height="2.393" transform="translate(174.764 242.036) rotate(180)" opacity="0.1"/><rect width="5.962" height="2.393" transform="translate(171.615 238.845) rotate(180)" opacity="0.1"/><rect width="5.962" height="2.393" transform="translate(178.661 272.164) rotate(180)" opacity="0.1"/><rect width="5.962" height="2.393" transform="translate(199.38 226.767) rotate(180)" opacity="0.1"/><rect width="5.962" height="2.393" transform="translate(171.052 165.642)" opacity="0.1"/><rect width="5.962" height="2.393" transform="translate(144.8 168.383)" opacity="0.1"/><rect width="5.962" height="2.393" transform="translate(150.22 180.87)" opacity="0.1"/><rect width="5.962" height="2.393" transform="translate(153.196 184.04)" opacity="0.1"/><rect width="5.962" height="2.393" transform="translate(159.383 216.786)" opacity="0.1"/><rect width="5.962" height="2.393" transform="translate(156.121 219.762)" opacity="0.1"/><rect width="5.962" height="2.393" transform="translate(142.448 191.137)" opacity="0.1"/><rect width="5.962" height="2.393" transform="translate(152.705 216.786)" opacity="0.1"/><rect width="5.962" height="2.393" transform="translate(191.874 182.455)" opacity="0.1"/><rect width="5.962" height="2.393" transform="translate(187.098 185.196)" opacity="0.1"/><rect width="5.962" height="2.393" transform="translate(146.631 46.44)" opacity="0.1"/><rect width="5.962" height="2.393" transform="translate(190.769 37.716)" opacity="0.1"/><rect width="5.962" height="2.393" transform="translate(194.471 75.483)" opacity="0.1"/><rect width="5.962" height="2.393" transform="translate(191.199 78.459)" opacity="0.1"/><rect width="5.962" height="2.393" transform="translate(166.409 42.052)" opacity="0.1"/><rect width="5.962" height="2.393" transform="translate(169.559 45.243)" opacity="0.1"/><rect width="5.962" height="2.393" transform="translate(195.013 98.494)" opacity="0.1"/><rect width="5.962" height="2.393" transform="translate(187.793 75.483)" opacity="0.1"/><rect width="5.962" height="2.393" transform="translate(156.725 94.423) rotate(180)" opacity="0.1"/><rect width="5.962" height="2.393" transform="translate(161.49 91.683) rotate(180)" opacity="0.1"/><rect width="5.962" height="2.393" transform="translate(170.807 140.822) rotate(180)" opacity="0.1"/><rect width="5.962" height="2.393" transform="translate(179.459 98.729) rotate(180)" opacity="0.1"/><rect width="5.962" height="2.393" transform="translate(175.002 138.45) rotate(-177.56)" opacity="0.1"/><rect width="5.962" height="2.393" transform="matrix(-1, -0.04, 0.04, -1, 177.486, 136.036)" opacity="0.1"/><rect width="5.962" height="2.393" transform="translate(176.462 74.543) rotate(180)" opacity="0.1"/><rect width="5.962" height="2.393" transform="translate(173.312 71.352) rotate(180)" opacity="0.1"/><rect width="5.962" height="2.393" transform="translate(174.708 120.979) rotate(-177.56)" opacity="0.1"/><rect width="5.962" height="2.393" transform="translate(181.667 138.729) rotate(-177.56)" opacity="0.1"/><line y2="231.451" transform="translate(117.843 54.6)" fill="none" stroke="#263238" stroke-linecap="round" stroke-linejoin="round" stroke-width="1"/><line y2="231.451" transform="translate(227.514 54.6)" fill="none" stroke="#263238" stroke-linecap="round" stroke-linejoin="round" stroke-width="1"/><path d="M276.34,127.05h3.426" transform="translate(-81.766 -124.094)" fill="none" stroke="#263238" stroke-linecap="round" stroke-linejoin="round" stroke-width="1"/><path d="M238,127h30.189" transform="translate(-82.636 -124.096)" fill="none" stroke="#263238" stroke-linecap="round" stroke-linejoin="round" stroke-width="1"/><path d="M224.46,127.05h10.462" transform="translate(-82.943 -124.094)" fill="none" stroke="#263238" stroke-linecap="round" stroke-linejoin="round" stroke-width="1"/><line x1="4.96" transform="translate(157.665 5.901)" fill="none" stroke="#263238" stroke-linecap="round" stroke-linejoin="round" stroke-width="1"/><path d="M287.7,129.93q-14.542.061-29.085,0" transform="translate(-82.168 -124.029)" fill="none" stroke="#263238" stroke-linecap="round" stroke-linejoin="round" stroke-width="1"/><line x2="2.311" transform="translate(203.225 9.296)" fill="none" stroke="#263238" stroke-linecap="round" stroke-linejoin="round" stroke-width="1"/><line x2="19.942" transform="translate(166.194 9.296)" fill="none" stroke="#263238" stroke-linecap="round" stroke-linejoin="round" stroke-width="1"/><line x2="17.754" transform="translate(145.322 9.296)" fill="none" stroke="#263238" stroke-linecap="round" stroke-linejoin="round" stroke-width="1"/><line x2="2.966" transform="translate(136.343 9.296)" fill="none" stroke="#263238" stroke-linecap="round" stroke-linejoin="round" stroke-width="1"/><line x2="1.626" transform="translate(169.948 5.901)" fill="none" stroke="#263238" stroke-linecap="round" stroke-linejoin="round" stroke-width="1"/></g><g transform="translate(62.911 189.526)"><path d="M166.231,227.071l-9.01-6.7V224h-44.1a5.113,5.113,0,0,1-5.113-5.113v-7.322h35.5a3.907,3.907,0,0,0,3.9-3.907V189.877a3.907,3.907,0,0,0-3.9-3.907H66.356a3.9,3.9,0,0,0-3.9,3.907V207.63a3.9,3.9,0,0,0,3.9,3.937h35.517v8.846a9.756,9.756,0,0,0,9.746,9.756h45.621v3.641Z" transform="translate(-62.46 -185.97)" fill="#fff" stroke="#263238" stroke-linecap="round" stroke-linejoin="round" stroke-width="1"/><path d="M75.632,192.92l1.841,3.733,4.121.6-2.976,2.9.706,4.111-3.692-1.933-3.692,1.933.706-4.111-2.986-2.9,4.121-.6Z" transform="translate(-62.297 -185.812)" fill="#5c3caf" stroke="#263238" stroke-linecap="round" stroke-linejoin="round" stroke-width="1"/><path d="M89.872,192.92l1.841,3.733,4.132.6-2.986,2.9.706,4.111-3.692-1.933-3.692,1.933.706-4.111-2.986-2.9,4.121-.6Z" transform="translate(-61.974 -185.812)" fill="#5c3caf" stroke="#263238" stroke-linecap="round" stroke-linejoin="round" stroke-width="1"/><path d="M104.112,192.92l1.841,3.733,4.132.6-2.986,2.9.706,4.111-3.692-1.933-3.692,1.933.706-4.111-2.986-2.9,4.121-.6Z" transform="translate(-61.651 -185.812)" fill="#5c3caf" stroke="#263238" stroke-linecap="round" stroke-linejoin="round" stroke-width="1"/><path d="M118.352,192.92l1.851,3.733,4.121.6-2.986,2.9.706,4.111-3.692-1.933-3.692,1.933.706-4.111-2.986-2.9,4.132-.6Z" transform="translate(-61.328 -185.812)" fill="#5c3caf" stroke="#263238" stroke-linecap="round" stroke-linejoin="round" stroke-width="1"/><path d="M132.592,192.92l1.851,3.733,4.121.6-2.986,2.9.706,4.111-3.692-1.933-3.692,1.933.706-4.111-2.986-2.9,4.132-.6Z" transform="translate(-61.005 -185.812)" fill="#5c3caf" stroke="#263238" stroke-linecap="round" stroke-linejoin="round" stroke-width="1"/></g><g transform="translate(240.571 204.785)"><path d="M452.221,200.89v38.248s-87.346,29.054-105.008,37.655-36.653,26.477-36.653,26.477c-6.341,6.566-29.658,12-28.522,5.921a22.928,22.928,0,0,0,.143-6.668,31.387,31.387,0,0,0-1.268-6.044c-2.045,3.845-6.566,8.181-6.566,8.181,0,4.52-2.72,12-2.72,12L270.6,331.138c4.643,8.376.552,11.761-1.207,11.536s-3.753-3.293-3.753-3.293l-2.628.358s-3.17,6.555-5.666,6.791-3.886-3.4-3.886-3.4-1.319,2.485-4.479,1.023a4.663,4.663,0,0,1-1.82-2.178c-1.974-3.958-3.068-11.791-3.385-14.645-.46-3.62-.91-20.372-.91-22.407s11.321-19.431,14.716-25.352,5.88-13.121,10.4-15.606,9.511-.46,24.217-1.36,27.387-3.845,34.045-6.341,8.273-5.88,18.009-8.181S451.546,201.125,452.221,200.89Z" transform="translate(-236.03 -200.89)" fill="#fff"/><path d="M283.948,293.267a49.359,49.359,0,0,1-1.861,7.414,31.386,31.386,0,0,0-1.268-6.044c-2.045,3.845-6.566,8.181-6.566,8.181,0,4.52-2.72,12-2.72,12L270.51,329.3c4.643,8.376.552,11.761-1.207,11.536s-3.753-3.293-3.753-3.293l-2.628.358s-3.17,6.555-5.666,6.791-3.886-3.4-3.886-3.4-1.319,2.485-4.479,1.023a4.664,4.664,0,0,1-1.82-2.178c1.135.511,2.506,0,3.743-3.334A15.964,15.964,0,0,0,249.494,323s4.7-10.063,4.51-12.5-2.8-4.776-1.841-6.433,3.283,1.309,5.113-.573,8.58-12.456,8.3-13.653,1.708-1.125,2.741-2.045.8-5.39,2.189-4.837a29.559,29.559,0,0,1,2.874,1.37,11.311,11.311,0,0,0,0-3.068c-.266-.511,4.929,4.807,6.443,5.021S284.53,287.857,283.948,293.267Z" transform="translate(-235.934 -199.069)" fill="#5c3caf" opacity="0.4"/><path d="M452.221,200.89c-.675.235-98.177,44.9-107.943,47.166s-11.362,5.655-18.009,8.181-19.328,5.43-34.045,6.341-19.686-1.135-24.217,1.36-7.016,9.726-10.4,15.606S242.89,302.861,242.89,304.9s.45,18.786.91,22.407,2.045,15.34,5.205,16.823,4.479-1.023,4.479-1.023,1.4,3.62,3.886,3.4,5.666-6.791,5.666-6.791l2.628-.358s1.984,3.068,3.753,3.293,5.85-3.16,1.207-11.536l1.023-14.481s2.71-7.476,2.71-12c0,0,4.53-4.305,6.566-8.181,0,0,2.26,6.637,1.125,12.712s22.182.644,28.522-5.921" transform="translate(-236.029 -200.89)" fill="none" stroke="#263238" stroke-linecap="round" stroke-linejoin="round" stroke-width="1"/><path d="M253.25,341.2s3.753-10.227,0-16.526a17.387,17.387,0,0,0,1.667-4.745c.522-2.72,1.718-10.36,1.37-11.546s.849-2.546.849-2.546a31.785,31.785,0,0,0,4.244-5.113c2.209-3.221,5.267-9.2,5.267-9.2s2.209-.675,4.919-3.907c0,0,2.884-.849,4.418,0" transform="translate(-235.794 -198.932)" fill="none" stroke="#263238" stroke-linecap="round" stroke-linejoin="round" stroke-width="1"/><path d="M280.79,288.28s1.524,4.888,0,8.642" transform="translate(-235.17 -198.909)" fill="none" stroke="#263238" stroke-linecap="round" stroke-linejoin="round" stroke-width="1"/><path d="M280.114,294.468s-.624-3.671-1.984-4.868" transform="translate(-235.23 -198.879)" fill="none" stroke="#263238" stroke-linecap="round" stroke-linejoin="round" stroke-width="1"/><path d="M266.35,291.43s3.283,4.234,10.227,3" transform="translate(-235.497 -198.837)" fill="none" stroke="#263238" stroke-linecap="round" stroke-linejoin="round" stroke-width="1"/><path d="M271.489,296.73s-4.418,8.519-6.136,10.288l-1.023,5.768" transform="translate(-235.543 -198.717)" fill="none" stroke="#263238" stroke-linecap="round" stroke-linejoin="round" stroke-width="1"/><path d="M257.88,306.79a6.453,6.453,0,0,0,5.43,0" transform="translate(-235.689 -198.489)" fill="none" stroke="#263238" stroke-linecap="round" stroke-linejoin="round" stroke-width="1"/><path d="M273.759,302.33s-3.446,3.068-4.929,2.3" transform="translate(-235.441 -198.59)" fill="none" stroke="#263238" stroke-linecap="round" stroke-linejoin="round" stroke-width="1"/><path d="M268.83,283a7.159,7.159,0,0,1,2.383,4.755" transform="translate(-235.441 -199.028)" fill="none" stroke="#263238" stroke-linecap="round" stroke-linejoin="round" stroke-width="1"/><path d="M272.18,279.65c-.194.5,2.352,4.745,4.224,6.617" transform="translate(-235.365 -199.104)" fill="none" stroke="#263238" stroke-linecap="round" stroke-linejoin="round" stroke-width="1"/><path d="M252.07,304.69a6.024,6.024,0,0,0,5.113.7" transform="translate(-235.821 -198.537)" fill="none" stroke="#263238" stroke-linecap="round" stroke-linejoin="round" stroke-width="1"/><path d="M250.75,323.319s2.863.215,3.375-1.3" transform="translate(-235.851 -198.144)" fill="none" stroke="#263238" stroke-linecap="round" stroke-linejoin="round" stroke-width="1"/><ellipse cx="8.059" cy="10.216" rx="8.059" ry="10.216" transform="translate(12.572 135.512) rotate(-5.51)" fill="none" stroke="#263238" stroke-linecap="round" stroke-linejoin="round" stroke-width="1"/><path d="M258.873,352.195a8.805,8.805,0,0,0-16.261.5l-5.86,15.473a8.807,8.807,0,1,0,16.475,6.228l5.85-15.463A8.775,8.775,0,0,0,258.873,352.195Zm-6.627-.092a1.16,1.16,0,1,1,0,.01Z" transform="translate(-236.181 -197.577)" fill="#5c3caf" stroke="#263238" stroke-linecap="round" stroke-linejoin="round" stroke-width="1"/><path d="M256.647,357.959l-5.85,15.463a6.269,6.269,0,0,1-11.72-4.428l5.85-15.473a6.136,6.136,0,0,1,2.741-3.191,6.412,6.412,0,0,0,9.061,3.416A6.279,6.279,0,0,1,256.647,357.959Z" transform="translate(-236.123 -197.502)" fill="#fff" stroke="#263238" stroke-linecap="round" stroke-linejoin="round" stroke-width="1"/><path d="M249.3,370.072a2.21,2.21,0,0,1-.9-.225l-1.1-.419c-.655-.256-1.023-.123-1.176.378l-.143.389,2.863,1.094-.419,1.1-7.046-2.69.644-1.677a1.524,1.524,0,0,1,2.25-1.023l.552.215a1.5,1.5,0,0,1,1.145,1.268h0c.44-.47,1.023-.45,1.769-.174l1.084.419a2.24,2.24,0,0,0,.91.2Zm-6.5-1.094,2.168.828.164-.43c.164-.419.072-.736-.491-.951l-.7-.266c-.5-.194-.787-.1-.941.286Z" transform="translate(-236.064 -197.128)" fill="#5c3caf"/><path d="M246.275,365.768l.573-1.524,1.023.389-.583,1.524,2.045.787.726-1.912,1.023.378-1.156,3.068-7.046-2.69,1.145-3.068,1.023.389-.726,1.912Z" transform="translate(-236.029 -197.221)" fill="#5c3caf"/><path d="M246.591,361.862h0l5.113,1.943-.378,1.023-7.046-2.69.522-1.391,4.653.491h0l-4.224-1.606.378-1.023,7.046,2.69-.43,1.145Z" transform="translate(-235.998 -197.314)" fill="#5c3caf"/><path d="M245.75,358.236l1.3-3.426,1.023.378-.44,1.166,6.044,2.3-.43,1.1-6.044-2.3-.44,1.156Z" transform="translate(-235.964 -197.4)" fill="#5c3caf"/><path d="M257.952,348.665l-11.924,5.594A2.045,2.045,0,0,0,245,357.031l7.322,15.688a2.045,2.045,0,0,0,2.771,1.023l3.477-1.626,12.477,26.722a1.452,1.452,0,0,0,1.933.706l2.383-1.115a1.452,1.452,0,0,0,.706-1.933L263.6,369.773l3.487-1.626a2.045,2.045,0,0,0,1.023-2.771l-7.322-15.7a2.045,2.045,0,0,0-2.833-1.012ZM260,351.989a1.749,1.749,0,0,1-.839,2.332l-.378.174a1.749,1.749,0,0,1-2.321-.849l-.174-.368a1.759,1.759,0,0,1,.839-2.332l.378-.174a1.749,1.749,0,0,1,2.321.859Z" transform="translate(-235.986 -197.545)" fill="#bfbfbf" stroke="#263238" stroke-linecap="round" stroke-linejoin="round" stroke-width="1"/><path d="M272.872,396.536,260.61,370.263l1.278-.593" transform="translate(-235.627 -197.063)" fill="none" stroke="#263238" stroke-linecap="round" stroke-linejoin="round" stroke-width="1"/><path d="M265.266,341.85c.542,5.614-2.618,10.513-7.046,10.932" transform="translate(-235.682 -197.694)" fill="none" stroke="#263238" stroke-linecap="round" stroke-linejoin="round" stroke-width="1"/><path d="M451.984,209.52v44.128l-3.467.9h0c-16.7,4.336-87.8,22.8-93.585,24.994-6.566,2.485-13.121,6.33-15.34,6.78s-14.031,13.806-17.651,17.2-12.446,7.241-22.632,9.961-19.686,9.961-22.172,12.221-15.166,19.431-18.112,18.1c-2.311-1.074-5.625-1.718-5.7-6.6a18.553,18.553,0,0,1,.726-4.939c2.485-9.511,7.915-16.976,13.121-18.786s17.651-17.876,18.1-21.957Z" transform="translate(-235.793 -200.694)" fill="#fff"/><path d="M448.487,253.55c-16.7,4.336-87.8,22.8-93.585,24.994-6.566,2.485-13.121,6.33-15.34,6.78s-14.031,13.806-17.651,17.2-12.446,7.241-22.632,9.961-19.686,9.961-22.172,12.221-15.166,19.431-18.112,18.1c-2.311-1.074-5.625-1.718-5.7-6.6,1.462,2.321,3.794,5.021,4.735,4,0,0-2.751-.2,0-6.883s4.091-9.91,7.465-7.486,7.312,3.242,8.672-1.616,1.851-2.628,7.977-6.678,12.6-10.84,14.42-10.677,15.984-1.176,20.228-3.436,16.363-15.892,16.68-19.809,15.432-9.572,19.206-11.791,18.531-5.062,24.2-6.269-8.5,3.968-12.743,6.934,35.794-10.176,46.317-12.2C420.711,258.326,447.444,253.734,448.487,253.55Z" transform="translate(-235.793 -199.696)" fill="#5c3caf" opacity="0.4"/><path d="M451.985,252.67s-90.517,23.4-97.082,25.9-13.121,6.33-15.34,6.78-14.031,13.806-17.651,17.2-12.446,7.241-22.632,9.961-19.686,9.961-22.172,12.221-15.166,19.431-18.112,18.1-7.465-2.045-4.97-11.536,7.915-16.976,13.121-18.786,17.651-17.876,18.1-21.957" transform="translate(-235.793 -199.716)" fill="none" stroke="#263238" stroke-linecap="round" stroke-linejoin="round" stroke-width="1"/></g><g transform="translate(42.57 379.027)"><path d="M297.276,419.53c-5.522,5.543-22.233,13.448-28.216,17.692-4.234,3.007-21.875,5.737-27.009,7.24-3.641,1.074-8.5,5.246-13.356,3.866s-45.315-20.811-55.02-25.659-59.877,2.761-89.811,1.779c-1.953-.061-3.825-.123-5.614-.164-25.761-.685-35.661.164-35.661.164L56.345,371.27s25.526,1.227,64.387,8.11c7.844,1.391,14.951,2.506,21.312,3.416,25.158,3.59,38.555,3.835,38.555,3.835s12.947-11.249,25.086-1.585,15.34,17.794,15.34,17.794l17,9.715s6.883-1.217,11.127,0,10.227-2.833,13.295-4.449a52.954,52.954,0,0,1,17.263-5.267s10.462-4.04,18.152-2.045c0,0,5.666-2.424,10.523-2.424a8.754,8.754,0,0,1,3.651.757,7.517,7.517,0,0,1,3.221,2.679,34.591,34.591,0,0,1,.808,4.254C316.492,408.915,309.61,407.135,297.276,419.53Z" transform="translate(-42.57 -371.27)" fill="#fff"/><path d="M296.486,418.852c-5.522,5.543-22.233,13.448-28.216,17.692-4.234,3.007-21.875,5.737-27.009,7.24-3.641,1.074-8.5,5.246-13.356,3.866s-45.315-20.811-55.02-25.659-59.877,2.761-89.811,1.779c-1.953-.061-3.825-.123-5.614-.164,12.947-.849,26.589-1.841,30.793-2.526,8.631-1.422,51.686-3.641,57.668-4.152S219.1,440.973,224.5,443.4s9.2,2.7,12.712,0,17.467-5.113,17.467-5.113l-8.038.726s10.687-3.866,17.621-5.584,13.827-7.987,18.408-9.439,12.538-10.544,16.537-12.415,0-7.425,0-7.425,4.837-.184,6.739,2.812c0,0,7.077.235,8.529-5.8a34.572,34.572,0,0,1,.808,4.254C315.7,408.237,308.819,406.457,296.486,418.852Z" transform="translate(-41.779 -370.592)" fill="#5c3caf" opacity="0.4"/><path d="M310.521,398.931c-11.689,3.068-14.174,5.021-14.174,5.021-2.127-.634-15.943,8.079-17.12,8.785s-1.871,4.091-1.871,4.091-3.968-4.091-10.7.6-7.466,7.609-7.466,7.609l-2.7-3.457s-11.423,1.023-14.911.46a16.9,16.9,0,0,1-7.946-3.2c-2.669-1.779-16.864-7.752-18.326-8.181s-3.313-3.15-3.313-3.15c-2.587-10.39-15.483-22.253-22.5-21.312a25.731,25.731,0,0,0-11.689,4.725s-13.131-1.35-19.871-1.616-47.738-7.823-47.738-7.823l30.251,1.023c25.158,3.59,38.555,3.835,38.555,3.835s12.947-11.249,25.086-1.585,15.34,17.795,15.34,17.795l17,9.715s6.883-1.217,11.127,0,10.227-2.833,13.295-4.449a52.954,52.954,0,0,1,17.263-5.267s10.462-4.04,18.152-2.045c0,0,5.666-2.424,10.523-2.424a8.752,8.752,0,0,1,3.733.849Z" transform="translate(-41.037 -371.053)" fill="#5c3caf" opacity="0.4"/><path d="M187.848,414.31s.072,2.863-1.422,2.6,2.71,3.937,5.4,3.262,9.306,5.4,11.873,8.1,24.882,6.2,29.658,6.064,8.376-5.052,5.011-10.012c0,0-.614,4.888-3.6,4.346,0,0,2.863-1.074-1.411-5.113s-10.626-5.8-11.975-4.991-9.552-2.557-10.032-3.068.726,11.669-6.422,11.249c0,0-8.008-5.911-9.6-8.355S187.848,414.31,187.848,414.31Z" transform="translate(-39.316 -370.294)" fill="#5c3caf" opacity="0.4"/><path d="M56.3,371.29s25.567,1.207,64.428,8.089S180.6,386.63,180.6,386.63s12.947-11.249,25.086-1.585,15.34,17.794,15.34,17.794l17,9.715s6.883-1.217,11.127,0,10.227-2.833,13.295-4.449a52.955,52.955,0,0,1,17.263-5.267s10.462-4.04,18.152-2.045c0,0,5.666-2.424,10.523-2.424a8.028,8.028,0,0,1,6.872,3.436,34.6,34.6,0,0,1,.808,4.254c.409,2.833-6.473,1.023-18.807,13.448-5.522,5.543-22.233,13.448-28.216,17.692-4.234,3.007-21.875,5.737-27.009,7.241-3.641,1.074-8.5,5.246-13.356,3.866s-45.315-20.811-55.02-25.659-59.877,2.761-89.811,1.779-41.275,0-41.275,0" transform="translate(-42.57 -371.269)" fill="none" stroke="#263238" stroke-linecap="round" stroke-linejoin="round" stroke-width="1"/><path d="M241.19,418.907h12.538s10.718-4.091,18.817-6.269c0,0,11.73-7.691,15.575-8.9s8.294,0,9.91,2.219a9.8,9.8,0,0,1,1.616,5.113s-11.331,7.414-14.563,10.227-10.114,5.461-17.6,10.319-21.108,5.113-26.293,8.089" transform="translate(-38.067 -370.545)" fill="none" stroke="#263238" stroke-linecap="round" stroke-linejoin="round" stroke-width="1"/><path d="M292.643,400.16s-13.121,4.847-19.1,11.423" transform="translate(-37.333 -370.615)" fill="none" stroke="#263238" stroke-linecap="round" stroke-linejoin="round" stroke-width="1"/><path d="M270.144,412s-9.807,2.628-16.894,4.653" transform="translate(-37.793 -370.347)" fill="none" stroke="#263238" stroke-linecap="round" stroke-linejoin="round" stroke-width="1"/><path d="M246.739,411.83s-.9,1.217,0,3.743" transform="translate(-37.95 -370.35)" fill="none" stroke="#263238" stroke-linecap="round" stroke-linejoin="round" stroke-width="1"/><path d="M186.4,414.022s4.847,2.178,7.476,3.6,5.768,8.386,9.306,10.012,9.1,2.321,16.363,3.334,17.017,2.833,18.6-3.538-9.4-10.523-15.064-13.407a42.484,42.484,0,0,0-9.531-3.671s-2.812-2.649-3.825-3.661-1.023-6.269-2.045-9" transform="translate(-39.309 -370.671)" fill="none" stroke="#263238" stroke-linecap="round" stroke-linejoin="round" stroke-width="1"/><path d="M211.835,400.16s-.266,4.551-2.045,6.985" transform="translate(-38.779 -370.615)" fill="none" stroke="#263238" stroke-linecap="round" stroke-linejoin="round" stroke-width="1"/><path d="M230.9,416.1a13.293,13.293,0,0,1,2.833-4.449" transform="translate(-38.3 -370.354)" fill="none" stroke="#263238" stroke-linecap="round" stroke-linejoin="round" stroke-width="1"/><path d="M185,416.58s5.4,1.217,7.783,0" transform="translate(-39.341 -370.243)" fill="none" stroke="#263238" stroke-linecap="round" stroke-linejoin="round" stroke-width="1"/><path d="M214.256,405.21a7.609,7.609,0,0,1-3,3.3" transform="translate(-38.745 -370.5)" fill="none" stroke="#263238" stroke-linecap="round" stroke-linejoin="round" stroke-width="1"/><path d="M209.825,416.58s.808,5.461-3.845,8.294" transform="translate(-38.865 -370.243)" fill="none" stroke="#263238" stroke-linecap="round" stroke-linejoin="round" stroke-width="1"/></g></g></svg>