<svg xmlns="http://www.w3.org/2000/svg" width="620" height="478.154" viewBox="0 0 620 478.154">
  <g id="Bye-rafiki" transform="translate(0 -41.7)">
    <g id="freepik--background-complete--inject-45" transform="translate(0 57.88)">
      <rect id="Rectángulo_2033" data-name="Rectángulo 2033" width="620" height="0.31" transform="translate(0 405.976)" fill="#ebebeb"/>
      <rect id="Rectángulo_2034" data-name="Rectángulo 2034" width="41.069" height="0.31" transform="translate(516.807 425.928)" fill="#ebebeb"/>
      <rect id="Rectángulo_2035" data-name="Rectángulo 2035" width="15.984" height="0.31" transform="translate(322.809 422.046)" fill="#ebebeb"/>
      <rect id="Rectángulo_2036" data-name="Rectángulo 2036" width="33.654" height="0.31" transform="translate(399.937 423.361)" fill="#ebebeb"/>
      <rect id="Rectángulo_2037" data-name="Rectángulo 2037" width="69.576" height="0.31" transform="translate(445.991 414.42)" fill="#ebebeb"/>
      <rect id="Rectángulo_2038" data-name="Rectángulo 2038" width="32.897" height="0.31" transform="translate(65.05 428.767)" fill="#ebebeb"/>
      <rect id="Rectángulo_2039" data-name="Rectángulo 2039" width="28.52" height="0.31" transform="translate(108.984 428.767)" fill="#ebebeb"/>
      <rect id="Rectángulo_2040" data-name="Rectángulo 2040" width="75.404" height="0.31" transform="translate(162.44 421.898)" fill="#ebebeb"/>
      <path id="Trazado_3612" data-name="Trazado 3612" d="M284.71,405.672H45.278a7.08,7.08,0,0,1-7.068-7.08V62.018A7.08,7.08,0,0,1,45.278,55H284.71a7.08,7.08,0,0,1,7.08,7.08V398.592A7.08,7.08,0,0,1,284.71,405.672ZM45.278,55.248a6.77,6.77,0,0,0-6.758,6.77V398.592a6.77,6.77,0,0,0,6.758,6.77H284.71a6.783,6.783,0,0,0,6.77-6.77V62.018a6.783,6.783,0,0,0-6.77-6.77Z" transform="translate(9.17 -55)" fill="#ebebeb"/>
      <path id="Trazado_3613" data-name="Trazado 3613" d="M501.024,405.672H261.58a7.093,7.093,0,0,1-7.08-7.08V62.018A7.093,7.093,0,0,1,261.58,55H501.024a7.08,7.08,0,0,1,7.056,7.018V398.592A7.08,7.08,0,0,1,501.024,405.672ZM261.58,55.248a6.783,6.783,0,0,0-6.77,6.77V398.592a6.783,6.783,0,0,0,6.77,6.77H501.024a6.783,6.783,0,0,0,6.77-6.77V62.018a6.783,6.783,0,0,0-6.77-6.77Z" transform="translate(61.08 -55)" fill="#ebebeb"/>
      <path id="Trazado_3614" data-name="Trazado 3614" d="M325,271h0q1.153,0,2.344.074a33.48,33.48,0,0,1,29.934,42.086,167.1,167.1,0,0,0-5.245,43.536v42.755a5.6,5.6,0,0,1-5.6,5.617H210.71V271Z" transform="translate(50.57 -3.16)" fill="#f0f0f0"/>
      <path id="Trazado_3615" data-name="Trazado 3615" d="M183.76,304.546a33.48,33.48,0,1,1,65.72,8.68,167.621,167.621,0,0,0-5.233,43.536v42.755a5.617,5.617,0,0,1-5.617,5.617H195.751a5.6,5.6,0,0,1-5.6-5.617v-45.26a152.334,152.334,0,0,0-5.183-40.8A33.754,33.754,0,0,1,183.76,304.546Z" transform="translate(44.102 -3.226)" fill="#f5f5f5"/>
      <rect id="Rectángulo_2041" data-name="Rectángulo 2041" width="121.818" height="81.381" transform="translate(429.152 401.909) rotate(180)" fill="#f0f0f0"/>
      <path id="Trazado_3616" data-name="Trazado 3616" d="M362.917,230.44H475.36c13.975,0,23.858,11.334,22.084,25.3l-12.76,96.088H321.65l12.76-96.088C336.183,241.774,348.942,230.44,362.917,230.44Z" transform="translate(77.196 -12.894)" fill="#e0e0e0"/>
      <path id="Trazado_3617" data-name="Trazado 3617" d="M327.882,230.44H442.768c13.305,0,22.717,10.788,21.08,24.081l-12.921,97.3H287.83l12.921-97.3C302.437,241.228,314.589,230.44,327.882,230.44Z" transform="translate(69.079 -12.894)" fill="#f5f5f5"/>
      <path id="Trazado_3618" data-name="Trazado 3618" d="M2.195,0H114.477a7.341,7.341,0,0,1,7.341,7.341V25.792a7.341,7.341,0,0,1-7.341,7.341H2.195A2.195,2.195,0,0,1,0,30.938V2.195A2.195,2.195,0,0,1,2.195,0Z" transform="translate(423.336 346.233) rotate(180)" fill="#e0e0e0"/>
      <path id="Trazado_3619" data-name="Trazado 3619" d="M459.126,271h0q1.166,0,2.344.074a33.48,33.48,0,0,1,29.9,42.086,167.624,167.624,0,0,0-5.233,43.536v42.755a5.617,5.617,0,0,1-5.617,5.617H344.81V271Z" transform="translate(82.754 -3.16)" fill="#f0f0f0"/>
      <path id="Trazado_3620" data-name="Trazado 3620" d="M317.85,304.546a33.48,33.48,0,1,1,65.72,8.68,167.1,167.1,0,0,0-5.245,43.536v42.755a5.6,5.6,0,0,1-5.6,5.617H329.854a5.617,5.617,0,0,1-5.617-5.617v-45.26a152.833,152.833,0,0,0-5.171-40.8A33.254,33.254,0,0,1,317.85,304.546Z" transform="translate(76.284 -3.226)" fill="#f5f5f5"/>
      <path id="Trazado_3621" data-name="Trazado 3621" d="M213.434,383.187H489.223a4.067,4.067,0,0,0,4.067-4.067H209.33a4.067,4.067,0,0,0,4.1,4.067Z" transform="translate(50.239 22.789)" fill="#e0e0e0"/>
      <rect id="Rectángulo_2042" data-name="Rectángulo 2042" width="388.678" height="159.886" transform="translate(497.414 191.022) rotate(180)" fill="#e6e6e6"/>
      <rect id="Rectángulo_2043" data-name="Rectángulo 2043" width="391.294" height="159.886" transform="translate(495.107 191.022) rotate(180)" fill="#f5f5f5"/>
      <rect id="Rectángulo_2044" data-name="Rectángulo 2044" width="388.678" height="6.051" transform="translate(497.414 197.086) rotate(180)" fill="#e6e6e6"/>
      <rect id="Rectángulo_2045" data-name="Rectángulo 2045" width="380.556" height="6.051" transform="translate(479.979 197.086) rotate(180)" fill="#f5f5f5"/>
      <rect id="Rectángulo_2046" data-name="Rectángulo 2046" width="141.558" height="377.555" transform="translate(488.25 40.312) rotate(90)" fill="#fafafa"/>
      <rect id="Rectángulo_2047" data-name="Rectángulo 2047" width="141.558" height="0.98" transform="translate(111.662 40.3) rotate(90)" fill="#e6e6e6"/>
      <path id="Trazado_3622" data-name="Trazado 3622" d="M385.449,229.058,360.029,87.5H326.71l25.42,141.558Z" transform="translate(78.41 -47.2)" fill="#fff"/>
      <path id="Trazado_3623" data-name="Trazado 3623" d="M272.694,229.058,247.274,87.5H232.22l25.42,141.558Z" transform="translate(55.733 -47.2)" fill="#fff"/>
      <rect id="Rectángulo_2048" data-name="Rectángulo 2048" width="150.288" height="1.575" rx="0.61" transform="translate(483.327 25.284) rotate(90)" fill="#ebebeb"/>
      <rect id="Rectángulo_2049" data-name="Rectángulo 2049" width="399.863" height="106.181" transform="translate(500.067 131.477) rotate(180)" fill="#e6e6e6" opacity="0.5"/>
      <rect id="Rectángulo_2050" data-name="Rectángulo 2050" width="399.863" height="2.815" transform="translate(500.067 28.111) rotate(180)" fill="#e0e0e0"/>
      <rect id="Rectángulo_2051" data-name="Rectángulo 2051" width="401.462" height="2.468" rx="0.87" transform="translate(500.873 26.524) rotate(180)" fill="#ebebeb"/>
      <path id="Trazado_3624" data-name="Trazado 3624" d="M80.765,161.728H481.05a.6.6,0,0,0,.583-.6h0a.583.583,0,0,0-.583-.583H80.765a.6.6,0,0,0-.6.583h0A.608.608,0,0,0,80.765,161.728Z" transform="translate(19.241 -29.668)" fill="#fff"/>
      <path id="Trazado_3625" data-name="Trazado 3625" d="M115.213,307.5c-13.566-19.183-45.88-26.3-57.04-38.44-14.644-15.884-14.558-39.68-2.1-48.286,10.838-7.44,46.723,43.028,50.766,48.67,13.9,19.394,17.943,33.8,20.547,47.752-.3-11.867-.583-22.754-.818-31.149-.756-27.4-1.711-36.22-2.145-38.924-1.488-1.327-3.261-2.877-4.29-3.72-8.68-7.006-27.888-12.4-37.51-22.58-14.062-14.88-11.3-38.291-3.72-42.569,10.813-6.1,32.959,8.494,39.94,26.04,5.32,13.367,7.242,27.689,8.258,45.186.161,2.691,1.153,12.673,1.7,26.573,2.939-14.967,8.779-24.986,19.617-34.336,13.33-11.495,24.8-25.482,35.824-23.684s5.072,20.336-3.621,33.331c-7.738,11.582-45.88,23.126-51.534,32.438.67,18.848,1.24,42.743,1.674,64.976,3.013-11.482.942-12.4,13.28-30.033,7.328-10.466,37.386-23.349,40.92-16.12s-1.872,20.758-13.218,30.268c-9.151,7.676-29.462,7.663-34.162,12.4-1.091,1.116-4.712,5.369-6.783,7.812.484,27.156.707,51.125.459,59.3l-1.972.087c.1-2.108-.136-15.922-.521-34.2-4.96-9.734-38.142-15.413-48.36-25.519-10.726-10.59-18.439-22.94-13.838-31.211,3.844-6.894,34.088,2.48,46.376,13.913,8.172,7.6,13.169,15.736,15.5,26.648-.285-12.462-.6-25.829-.905-38.44C125.009,320.506,119.33,313.252,115.213,307.5Z" transform="translate(11.267 -25.758)" fill="#e6e6e6"/>
      <path id="Trazado_3626" data-name="Trazado 3626" d="M152.529,387.056H88.806a7.142,7.142,0,0,1-7.18-4.96L77.1,363h87.122L159.7,382.071a7.13,7.13,0,0,1-7.167,4.985Z" transform="translate(18.504 18.92)" fill="#f0f0f0"/>
      <path id="Trazado_3627" data-name="Trazado 3627" d="M167.584,373.06H76.816a4.08,4.08,0,0,1-4.241-3.236l-1.86-14.037c-.285-2.17,1.7-4.067,4.253-4.067h94.476c2.48,0,4.526,1.9,4.241,4.067l-1.86,14.1A4.08,4.08,0,0,1,167.584,373.06Z" transform="translate(16.965 16.213)" fill="#f0f0f0"/>
    </g>
    <g id="freepik--Shadow--inject-45" transform="translate(69.576 491.781)">
      <ellipse id="freepik--path--inject-45" cx="240.424" cy="14.037" rx="240.424" ry="14.037" fill="#f5f5f5"/>
    </g>
    <g id="freepik--character-1--inject-45" transform="translate(165.771 71.901)">
      <path id="Trazado_3628" data-name="Trazado 3628" d="M224.934,146.564c.384-.422,4.328-4.452,2.864-6.894-1.24,2.567-3.621,6.46-10.912,7.105a20.237,20.237,0,0,0,1.24-6.907,19.046,19.046,0,0,1-5.233,6.944,56.223,56.223,0,0,1-13.293-2.629c-18.377,1.686-18.823-12.784-18.972-16.008a27.28,27.28,0,0,0-.632,6.572c-3.968-6.3-3.336-15.86,1.9-17.645.955-20.336,15.649-22.146,19.344-22.952,6.671-1.463,18.315-7.056,24.081,4.96,8.1,4.352,11.16,14.582,7.7,30.182C239.963,140.463,225.666,146.278,224.934,146.564Z" transform="translate(-123.188 -60.244)" fill="#263238"/>
      <path id="Trazado_3629" data-name="Trazado 3629" d="M195.053,419.048c9.6,0,10.862-.149,16.256-.335,4.613-.161,5.716.409,9.436.335,3.1-.074,2.976-3.038,2.021-6.448-.471-1.711-1.24-5.344-1.872-8.11l-14.582,1.525a14.471,14.471,0,0,1-11.321,7.341C189.82,414.05,191.234,419.048,195.053,419.048Z" transform="translate(-119.78 14.857)" fill="#263238"/>
      <path id="Trazado_3630" data-name="Trazado 3630" d="M189.192,394.026c5.679-7.527,7.118-10.416,10.18-14.756,2.616-3.72,3.125-2.79,5.915-6.46,1.835-2.48.136-5.878-2.48-6.634a40.932,40.932,0,0,1-7.18-2.145l-9.573,7.056c1.748,4.526,1.947,14.88-1.984,20.894C181.231,396.295,186.9,397.039,189.192,394.026Z" transform="translate(-121.781 5.146)" fill="#263238"/>
      <path id="Trazado_3631" data-name="Trazado 3631" d="M164.964,202.67s-27.578,78.839-31.149,107.694c-3.484,28.222,64.864,101.606,64.864,101.606,1.649,1.24,8.494-7.266,8.878-9.5,0,0-27.131-59.768-46.029-91.2,40.92-60.624,48.025-101.531,48.025-101.531Z" transform="translate(-133.686 -33.58)" fill="#2d1674"/>
      <path id="Trazado_3632" data-name="Trazado 3632" d="M169.69,204.38s15.413,79.36,21.291,117.6c6.2,40.126,22.146,105.822,20.6,132.06,2.244,1.314,10.5-.905,14.88-2.294,0,0,11.346-86.068-8.221-125.8,12.66-92.851-10.8-115.58-10.8-115.58Z" transform="translate(-125.045 -33.17)" fill="#2d1674"/>
      <path id="Trazado_3633" data-name="Trazado 3633" d="M202.682,396.945c0,2.356-.161,6.46-.508,9.6-.124,1.128.31,2.182.942,2.368,5.332,1.513,13.057-.694,15.512-1.476.471-.149.818-.806.893-1.649l.794-8.978c.112-1.24-.422-2.344-1.128-2.319l-15.4.533C203.2,395.048,202.707,395.879,202.682,396.945Z" transform="translate(-117.254 12.456)" fill="#263238"/>
      <path id="Trazado_3634" data-name="Trazado 3634" d="M179.419,366.732c1.488,2.021,4.117,5.617,6.014,8.333.632.893,1.562,1.364,2.133,1.1,4.278-1.984,9.374-7.44,11.024-9.2.322-.36.248-1.091-.186-1.81l-4.687-7.75c-.632-1.054-1.773-1.674-2.356-1.24L179.171,364.6C178.675,364.921,178.774,365.913,179.419,366.732Z" transform="translate(-122.845 3.225)" fill="#263238"/>
      <path id="Unión_14" data-name="Unión 14" d="M13.765,110.079l.063.048c-.435-.632-.683-1.028-.992-1.525l-.856-1.412c-.546-.931-1.055-1.872-1.55-2.816q-1.489-2.827-2.778-5.715A90.918,90.918,0,0,1,3.322,86.729,85.452,85.452,0,0,1,.694,74.243c-.309-2.121-.483-4.255-.606-6.4,0-1.079-.1-2.145-.087-3.224V63.007a12.743,12.743,0,0,1,.111-2.083,38.784,38.784,0,0,1,1.351-6.894c.582-2.107,1.241-4.091,1.96-6.038C4.85,44.1,6.46,40.391,8.146,36.745A205.038,205.038,0,0,1,18.637,17.2a27.772,27.772,0,0,1,3-10.139L23.15,1.218A1.39,1.39,0,0,1,25.11.127l8.024,4.178a2.307,2.307,0,0,1,1.053,2.319l-.719,5.606a7.442,7.442,0,0,1-2.343,4.75L25.65,21.7c-2.274,6.418-4.5,12.9-6.578,19.285-1.165,3.646-2.269,7.279-3.174,10.85-.461,1.773-.881,3.545-1.24,5.259a30.624,30.624,0,0,0-.533,4.66V62.6l.111,1.327c.062.867.185,1.748.272,2.628.261,1.748.509,3.5.869,5.232a86.33,86.33,0,0,0,2.739,10.329,100.5,100.5,0,0,0,3.932,10.02c.731,1.649,1.513,3.261,2.331,4.836l1.241,2.319.632,1.127.57.956.211.347a7.849,7.849,0,0,1-13.268,8.357Z" transform="translate(34.985 0)" fill="#fff" stroke="#263238" stroke-width="1"/>
      <path id="Trazado_3637" data-name="Trazado 3637" d="M179.66,169.91c20.311-6.882,10.627-21.712,5.134-35.687-5.332-4.042-21.08,12.586-21.08,12.586S159.708,168.372,179.66,169.91Z" transform="translate(-126.558 -50.16)" fill="#263238"/>
      <path id="Trazado_3638" data-name="Trazado 3638" d="M165.544,156.747a232.538,232.538,0,0,0-3.373,23.461c-1.24,10.23-2.1,20.336-3.261,37.2l51.162,8.11c1.24-14.582,5.53-30.74,19.84-61.715a12.09,12.09,0,0,0-7.75-17.124c-2-.521-4.117-1.029-6.312-1.488a165.433,165.433,0,0,0-23.225-3.72c-2.567-.161-5.233-.26-7.787-.31a19.505,19.505,0,0,0-19.294,15.587Z" transform="translate(-127.632 -48.343)" fill="#263238"/>
      <path id="Trazado_3639" data-name="Trazado 3639" d="M212.417,123.13c-3.212,7.155-7.862,20.448-3.794,26.214,0,0-6.907-2.195-23.411,4.724-3.373-6.932.186-8.407.186-8.407,8.792-.645,10.019-6.8,9.92-12.76Z" transform="translate(-121.669 -52.67)" fill="#fff" stroke="#263238" stroke-width="1"/>
      <path id="Trazado_3640" data-name="Trazado 3640" d="M187.71,148.181c4.848,1.488,5.208,9.213,5.208,9.213s13.231-6.535,17.93-11.867a50.342,50.342,0,0,1-3.906-3.447S191.058,145.7,187.71,148.181Z" transform="translate(-120.72 -48.122)" fill="#fff" stroke="#263238" stroke-width="1"/>
      <path id="Trazado_3641" data-name="Trazado 3641" d="M185.346,146.96s-4.464.484-6.956,6.2c.6-11.086,5.977-12.127,5.977-12.127a6.361,6.361,0,0,1,4.576,0A5.369,5.369,0,0,0,185.346,146.96Z" transform="translate(-122.957 -48.475)" fill="#fff" stroke="#263238" stroke-width="1"/>
      <path id="Trazado_3642" data-name="Trazado 3642" d="M203.244,126.34l-10.118,5.778a23.44,23.44,0,0,1-.236,4.191c3.286,0,8.482-2.716,9.6-5.952a11.272,11.272,0,0,0,.756-4.018Z" transform="translate(-119.477 -51.899)" opacity="0.2"/>
      <path id="Unión_15" data-name="Unión 15" d="M.019,30.754C.54,19.5,7.286,2.235,20.356.214c12.946-1.948,22,9.708,17.817,21.413-.445,1.248-.859,2.419-1.255,3.523a3.606,3.606,0,0,1,.884.2c3.075,1.116,3.361,5,1.252,7.637a9.914,9.914,0,0,1-6.7,3.645,4.385,4.385,0,0,1-.612.011,21.547,21.547,0,0,1-7.075,6.426,19.025,19.025,0,0,1-9.808,2.844C6.538,45.912-.412,39.817.019,30.754Z" transform="translate(61.328 34.832)" fill="#fff" stroke="#263238" stroke-width="1"/>
      <path id="Trazado_3644" data-name="Trazado 3644" d="M212.129,98.7c-6.324,3.794-6.113,24.2,4.4,22.717C226.278,109.611,218.912,95.09,212.129,98.7Z" transform="translate(-115.876 -58.668)" fill="#263238"/>
      <path id="Trazado_3645" data-name="Trazado 3645" d="M224.076,99.187c-7.3,11.47-34.906,1.538-41.416-3.931,4.687,1.4,12.586.174,18.29-1.24S222.464,85.162,224.076,99.187Z" transform="translate(-121.932 -60.433)" fill="#263238"/>
      <path id="Trazado_3646" data-name="Trazado 3646" d="M186.44,93.13a44.07,44.07,0,0,0,23.882-.632l8.345-.682C212.579,87.8,196.062,92.968,186.44,93.13Z" transform="translate(-121.025 -60.551)" fill="#263238"/>
      <path id="Trazado_3647" data-name="Trazado 3647" d="M201.718,111.908c-.31.992-1.079,1.674-1.724,1.525s-.93-1.079-.62-2.083,1.091-1.686,1.736-1.525S202.028,110.9,201.718,111.908Z" transform="translate(-117.951 -55.869)" fill="#263238"/>
      <path id="Trazado_3648" data-name="Trazado 3648" d="M191.648,109.207c-.31,1-1.091,1.686-1.736,1.538s-.918-1.091-.608-2.083,1.079-1.686,1.724-1.538S191.946,108.215,191.648,109.207Z" transform="translate(-120.368 -56.516)" fill="#263238"/>
      <path id="Trazado_3649" data-name="Trazado 3649" d="M191.308,107.46l-2.158-1.24S189.782,108.427,191.308,107.46Z" transform="translate(-120.375 -56.728)" fill="#263238"/>
      <path id="Trazado_3650" data-name="Trazado 3650" d="M194.783,111.3a31.273,31.273,0,0,1-5.493,5.543c.88,1.525,3.36,1.525,3.36,1.525Z" transform="translate(-120.341 -55.509)" fill="#263238"/>
      <path id="Trazado_3651" data-name="Trazado 3651" d="M196,121.485a9.621,9.621,0,0,1-1.7-.236.285.285,0,0,1-.2-.372.322.322,0,0,1,.372-.223,8.68,8.68,0,0,0,7.341-1.587.31.31,0,0,1,.434,0,.3.3,0,0,1,0,.422,9.188,9.188,0,0,1-6.25,2Z" transform="translate(-119.19 -53.666)" fill="#263238"/>
      <path id="Trazado_3653" data-name="Trazado 3653" d="M206.01,106.279a.533.533,0,0,1-.384-.248,4.427,4.427,0,0,0-3.72-2.108.583.583,0,0,1-.6-.583.657.657,0,0,1,.632-.62,5.543,5.543,0,0,1,4.675,2.616.632.632,0,0,1-.211.843A.645.645,0,0,1,206.01,106.279Z" transform="translate(-117.456 -57.568)" fill="#263238"/>
      <path id="Trazado_3654" data-name="Trazado 3654" d="M189.251,104.064a.533.533,0,0,1-.4-.174.608.608,0,0,1,0-.856,6.411,6.411,0,0,1,5.357-1.835.558.558,0,0,1,.422.707.657.657,0,0,1-.744.471,5.109,5.109,0,0,0-4.228,1.5A.682.682,0,0,1,189.251,104.064Z" transform="translate(-120.488 -57.946)" fill="#263238"/>
      <path id="Trazado_3655" data-name="Trazado 3655" d="M201.418,110.16l-2.158-1.24S199.855,111.065,201.418,110.16Z" transform="translate(-117.948 -56.08)" fill="#263238"/>
      <path id="Unión_16" data-name="Unión 16" d="M2.431,74.186.385,69.871a4.336,4.336,0,0,1,.7-4.649l2.553-2.89a4.514,4.514,0,0,1,3.845-1.5l6.728.716c1.743-.922,3.528-1.857,5.225-2.848,2.294-1.339,4.562-2.678,6.659-4.118a38.367,38.367,0,0,0,5.553-4.452A11.473,11.473,0,0,0,33.382,48c.067-.114.125-.221.175-.322a86.566,86.566,0,0,0-.933-8.631c-.544-3.149-1.238-6.3-1.982-9.46s-1.7-6.312-2.679-9.45c-.484-1.563-.993-3.125-1.538-4.675l-.818-2.292L24.825,11l-.11-.3A7.862,7.862,0,1,1,39.382,5.032c.422.991.746,1.8,1.092,2.678s.633,1.735.943,2.6c.607,1.738,1.241,3.473,1.723,5.22,1.054,3.5,1.973,7.055,2.716,10.665a101.273,101.273,0,0,1,1.685,11.037,79.7,79.7,0,0,1,.273,11.457v.4a5.231,5.231,0,0,1-.172,1.092,15.958,15.958,0,0,1-3.348,6.2,25.2,25.2,0,0,1-4.118,3.82,42.741,42.741,0,0,1-8.369,4.75,68.672,68.672,0,0,1-8.433,3.038q-1.677.492-3.377.9c-4.153,4.006-10.412,6.057-10.412,6.057l-2.2,1a3.714,3.714,0,0,1-4.959-1.762Zm31.3-26.911c.08-.232.091-.379.051-.406Z" transform="translate(67.646 109.349)" fill="#fff" stroke="#263238" stroke-width="1"/>
      <path id="Trazado_3658" data-name="Trazado 3658" d="M209.782,145.44c8.407,1.463,11.768,6.2,18.34,23.25-3.249,6.262-18,12.028-18,12.028S202.59,156.588,209.782,145.44Z" transform="translate(-116.17 -47.315)" fill="#263238"/>
    </g>
    <g id="freepik--character-2--inject-45" transform="translate(289.721 43)">
      <path id="Trazado_3659" data-name="Trazado 3659" d="M360.143,404.5l11.842-3.249-6.473-27.776-11.842,3.249Z" transform="translate(-204.84 36.315)" fill="#fff" stroke="#263238" stroke-width="1"/>
      <path id="Trazado_3660" data-name="Trazado 3660" d="M369.795,391.925l-13,3.336a1.017,1.017,0,0,0-.769,1.066l.893,11.061a1.885,1.885,0,0,0,2.356,1.662c4.662-1.24,11.358-3.3,17.248-4.811,6.894-1.773,6.274-1.327,14.347-3.4,4.886-1.24,4.724-6.485,2.542-6.4-9.92.372-10.912.508-20.472-2.331A5.939,5.939,0,0,0,369.795,391.925Z" transform="translate(-204.274 40.711)" fill="#263238"/>
      <path id="Trazado_3661" data-name="Trazado 3661" d="M365.512,373.48l3.336,14.322-11.842,3.249-3.336-14.322Z" transform="translate(-204.84 36.315)" opacity="0.2"/>
      <path id="Trazado_3662" data-name="Trazado 3662" d="M369.049,393.174a.26.26,0,0,1-.236-.186.285.285,0,0,1,.087-.322c.484-.422,4.774-4.117,6.386-3.72a.868.868,0,0,1,.62.645h0a1.736,1.736,0,0,1-.236,1.525c-1.079,1.5-4.588,1.91-6.584,2.009ZM375,389.541c-.955-.074-3.348,1.587-5.059,2.988,2.728-.236,4.662-.856,5.258-1.7a1.141,1.141,0,0,0,.161-1,.347.347,0,0,0-.248-.26Z" transform="translate(-201.21 40.02)" fill="#2d1674"/>
      <path id="Trazado_3663" data-name="Trazado 3663" d="M369.04,393.562h0a.322.322,0,0,1-.161-.236c0-.136-.36-3.472.893-5.121a2.232,2.232,0,0,1,1.463-.88h0c.794-.124,1.1.211,1.24.521.5,1.24-1.81,4.65-3.125,5.667a.223.223,0,0,1-.31.05Zm2.48-5.692h-.3a1.662,1.662,0,0,0-1.079.67,7.266,7.266,0,0,0-.806,4.117c1.24-1.24,2.8-3.819,2.48-4.6C371.855,388.02,371.818,387.9,371.52,387.871ZM371.4,389.768Z" transform="translate(-201.202 39.632)" fill="#2d1674"/>
      <path id="Trazado_3664" data-name="Trazado 3664" d="M335.266,309.752c-26.759-58.714-45.942-82.708-46.376-114.353l42.631-7.8s33.158,80.488,36.654,117.316c3.633,38.291,18.017,118.594,18.017,118.594l-19.443,3.72S336.221,353.115,335.266,309.752Z" transform="translate(-220.388 -8.296)" fill="#263238"/>
      <path id="Trazado_3665" data-name="Trazado 3665" d="M292.14,213.393c4.9,15.76,13.987,32.426,25.78,55.8C315.836,241.777,307,209.81,292.14,213.393Z" transform="translate(-219.608 -2.172)" opacity="0.2"/>
      <path id="Trazado_3666" data-name="Trazado 3666" d="M373.269,373.26l.471,8.618-21.03,5.667-2.79-7.564Z" transform="translate(-205.74 36.262)" fill="#263238"/>
      <path id="Trazado_3667" data-name="Trazado 3667" d="M276.227,384.988l-.967,28.52,13.64-.2.967-28.52Z" transform="translate(-223.659 39.03)" fill="#fff" stroke="#263238" stroke-width="1"/>
      <path id="Trazado_3668" data-name="Trazado 3668" d="M289,404.794l-13.4.211a.955.955,0,0,0-.942.856l-1.166,10.974a2,2,0,0,0,2.009,2.158c4.836-.161,6.349-.558,12.4-.645,7.105-.112,3.832.174,12.164,0,5.034-.087,5.84-5.183,3.72-5.642-6.832-1.426-8.68-4.142-11.693-7.043A4.39,4.39,0,0,0,289,404.794Z" transform="translate(-224.085 43.825)" fill="#263238"/>
      <path id="Trazado_3669" data-name="Trazado 3669" d="M276.138,384.986l-.508,14.706,13.652-.2.5-14.694Z" transform="translate(-223.57 39.032)" opacity="0.2"/>
      <path id="Trazado_3670" data-name="Trazado 3670" d="M284.061,406.473a.273.273,0,0,1-.26-.149.285.285,0,0,1,0-.335c.422-.471,4.129-4.576,5.828-4.328a.918.918,0,0,1,.732.546h0a1.624,1.624,0,0,1,0,1.513c-.831,1.6-4.3,2.418-6.287,2.753Zm5.406-4.241c-.98,0-3.112,1.947-4.6,3.509,2.691-.558,4.538-1.389,4.96-2.282a1.067,1.067,0,0,0,0-1,.347.347,0,0,0-.285-.223Z" transform="translate(-221.622 43.076)" fill="#2d1674"/>
      <path id="Trazado_3671" data-name="Trazado 3671" d="M284.115,406.785h0a.3.3,0,0,1-.211-.211c0-.136-.918-3.348.087-5.1a2.1,2.1,0,0,1,1.327-1.054h0c.781-.211,1.141.087,1.3.372.707,1.24-1.079,4.749-2.232,5.9a.248.248,0,0,1-.273.087Zm1.575-5.84a1.05,1.05,0,0,0-.3,0h0a1.488,1.488,0,0,0-.967.769,6.82,6.82,0,0,0-.161,4.117c1.091-1.389,2.207-4.055,1.773-4.786.025,0-.037-.112-.3-.1Zm-.372-.236Z" transform="translate(-221.676 42.765)" fill="#2d1674"/>
      <path id="Trazado_3672" data-name="Trazado 3672" d="M278.455,318.464c-3.869-43.97-14.62-87.06-11.036-119.474l44.64-7.44s6.423,90.88,1.525,128.34C308.5,358.838,295.27,437.082,295.27,437.082l-19.84.273S273.2,361.492,278.455,318.464Z" transform="translate(-225.713 -7.348)" fill="#263238"/>
      <path id="Trazado_3673" data-name="Trazado 3673" d="M296.815,385.97l-1.29,8.482-22.233.4-1.252-8.023Z" transform="translate(-224.432 39.313)" fill="#263238"/>
      <path id="Unión_18" data-name="Unión 18" d="M44.063,71.438c-4.55-.484-8.952-1.241-13.278-2.122S22.216,67.393,18,66.255,9.7,63.861,5.426,62.348a9.325,9.325,0,0,1,5.816-17.6h.2c3.721,1.142,7.774,2.343,11.681,3.461s7.874,2.171,11.78,3.163,7.825,1.833,11.631,2.479c1.9.335,3.781.571,5.593.783q.37.043.741.077a12.671,12.671,0,0,0-.158-1.851,60.553,60.553,0,0,0-2.63-10.925c-1.238-3.793-2.666-7.625-4.191-11.445-1.284-3.215-2.682-6.476-4.054-9.654l-8.446-7.3L30.375,9.2A3.592,3.592,0,0,1,31.4,4.13L37.083.56a3.57,3.57,0,0,1,4.5.545l4.661,4.875s6.859,6.632,5.473,11.945q2.513,3.463,4.794,7.087a122.9,122.9,0,0,1,6.549,11.643c.992,2.035,1.91,4.143,2.777,6.336A48.35,48.35,0,0,1,68.046,50a28.644,28.644,0,0,1,.805,8.68,16.994,16.994,0,0,1-1.462,5.753,14.475,14.475,0,0,1-4.75,5.742,7.916,7.916,0,0,1-3.572,1.388h-.335a63.862,63.862,0,0,1-6.8.363A64.117,64.117,0,0,1,44.063,71.438Zm8.446-14.224c0,.175.1,0,.2-.359,0-.024.008-.048.011-.072A2.031,2.031,0,0,0,52.509,57.213Z" transform="translate(69.798 23.448)" fill="#fff" stroke="#263238" stroke-width="1"/>
      <path id="Trazado_3677" data-name="Trazado 3677" d="M293.777,94.888c12.028-1.81,31.632,9.387,31.632,9.387l-4.29,26.672s-9.114-.694-21.08-6.733C296.405,122.354,279.554,97.046,293.777,94.888Z" transform="translate(-220.562 -30.594)" fill="#2d1674" stroke="#263238" stroke-width="1"/>
      <path id="Trazado_3678" data-name="Trazado 3678" d="M305.042,94.755c-13.268,1.24-33.579,5.952-46.959,11.358a17.6,17.6,0,0,0-11.024,17.645c1.364,17.782,11.458,46.165,24.3,99.336,6.671,1.376,25.643-.769,40.622-3.46,1.624-.285,5.233-4.563,5.233-4.563s3.956,2.753,6.014,2.282c9.92-2.257,17.645-4.836,19.282-6.994-5.059-12.078-9.325-47.529-13.305-68.746-.967-8.42-3.509-23.87-7.676-32.414C317.591,101.116,313.957,93.838,305.042,94.755Z" transform="translate(-230.438 -30.598)" fill="#2d1674" stroke="#263238" stroke-width="1"/>
      <path id="Trazado_3679" data-name="Trazado 3679" d="M267.835,81.35c1.587,9.089,3.013,19.753-1.575,26.66,4.2,5.295,13.305,8.99,22.171,10.478,5.022-7.068,3.819-13.318,1.029-16.765-5.369-3.2-5.034-8.754-5.146-12.586Z" transform="translate(-225.819 -33.796)" fill="#fff" stroke="#263238" stroke-width="1"/>
      <path id="Trazado_3680" data-name="Trazado 3680" d="M284.14,112.664a11.408,11.408,0,0,0,1.711-5.344c0-2.765,4.96-1.327,4.96-1.327A18.687,18.687,0,0,1,284.14,112.664Z" transform="translate(-221.528 -27.972)" fill="#263238"/>
      <path id="Trazado_3681" data-name="Trazado 3681" d="M286.42,111.945a5.047,5.047,0,0,0-4.7-3.311,16.12,16.12,0,0,0-7.08,1.24S281.7,112.453,286.42,111.945Z" transform="translate(-223.807 -27.253)" fill="#263238"/>
      <path id="Trazado_3682" data-name="Trazado 3682" d="M270.755,84.454c-.112-.57-.2-1.153-.285-1.724L283.3,88.818a22.319,22.319,0,0,0,1.042,7.862C278.381,94.932,271.834,89.934,270.755,84.454Z" transform="translate(-224.808 -33.465)" opacity="0.2"/>
      <path id="Trazado_3683" data-name="Trazado 3683" d="M280.212,53.353c7.44-1.24,12.636,7.44,6.2,19.728-4.414-2.108-8.072-9.188-8.072-9.188Z" transform="translate(-222.919 -40.544)" fill="#2d1674" stroke="#263238" stroke-width="1"/>
      <path id="Unión_22" data-name="Unión 22" d="M17.588,45.321a18.713,18.713,0,0,1-7.84-6.383,5.186,5.186,0,0,1-1.385-.078A11.416,11.416,0,0,1,1.01,34.049c-1.891-2.851-1.074-6.7,2-8q-.46-1.01-.951-2.072A16.788,16.788,0,0,1,17.353,0C30.188.075,38.284,16.292,39.834,27.454c1.4,10.171-6.38,19.259-15.856,19.259A15.73,15.73,0,0,1,17.588,45.321Z" transform="translate(32.686 11.979)" fill="#fff" stroke="#263238" stroke-width="1"/>
      <path id="Trazado_3685" data-name="Trazado 3685" d="M291.419,76.67s-3.807,0-13.789,2.282c2.046,2.765,4.96,4.737,10.044,3.509a4.538,4.538,0,0,0,3.745-5.791Z" transform="translate(-223.09 -34.919)" fill="#263238"/>
      <path id="Trazado_3686" data-name="Trazado 3686" d="M283.824,79.934a9.808,9.808,0,0,1,6,.186,5.183,5.183,0,0,1-2.926,1.649,9.672,9.672,0,0,1-5.989-.186A5.084,5.084,0,0,1,283.824,79.934Z" transform="translate(-222.303 -34.228)" fill="#fff"/>
      <path id="Trazado_3687" data-name="Trazado 3687" d="M290.851,76.68a1.972,1.972,0,0,1-1.128,1.86,52.774,52.774,0,0,1-9.064,1.24,3.063,3.063,0,0,1-2.678-.967A83.515,83.515,0,0,1,290.851,76.68Z" transform="translate(-223.006 -34.917)" fill="#fff"/>
      <path id="Unión_23" data-name="Unión 23" d="M3.22,27.366c-6.127-2.616-.931-9.238,3.942-11.878A17.614,17.614,0,0,0,16,3.324a14.847,14.847,0,0,1,3.781,5.521C22.551,6.929,25.838,3.893,26.457,0a22.26,22.26,0,0,1,3.382,6.97,9.238,9.238,0,0,0,3.846-5.507c4.633,10.67.066,17.8-6.023,16.848a11.84,11.84,0,0,1-9.072,3.876,39.408,39.408,0,0,1-6.072,7.883c4.192,2.629,7.676,12.4,7.676,12.4l-5.046.93C-.044,39.681-3.378,31.323,3.22,27.366Z" transform="translate(25.988)" fill="#2d1674" stroke="#263238" stroke-width="1"/>
      <path id="Trazado_3697" data-name="Trazado 3697" d="M275.225,70.418c.36.918,1.141,1.476,1.748,1.24s.794-1.24.434-2.108-1.141-1.476-1.748-1.24S274.866,69.475,275.225,70.418Z" transform="translate(-223.711 -36.938)" fill="#263238"/>
      <path id="Trazado_3698" data-name="Trazado 3698" d="M284.494,66.718c.36.918,1.141,1.476,1.748,1.24s.794-1.24.434-2.108-1.141-1.476-1.736-1.24S284.135,65.788,284.494,66.718Z" transform="translate(-221.485 -37.826)" fill="#263238"/>
      <path id="Trazado_3699" data-name="Trazado 3699" d="M281.4,67.55s4.34,4.328,7.7,5.853c-.942,2.207-3.968,2.74-3.968,2.74Z" transform="translate(-222.185 -37.108)" fill="#263238"/>
      <path id="Trazado_3700" data-name="Trazado 3700" d="M271.609,67.237a.484.484,0,0,1-.3,0,.57.57,0,0,1-.4-.719,5.816,5.816,0,0,1,3.534-3.993.57.57,0,0,1,.719.372.583.583,0,0,1-.372.732h0a4.7,4.7,0,0,0-2.765,3.212A.607.607,0,0,1,271.609,67.237Z" transform="translate(-224.708 -38.321)" fill="#263238"/>
      <path id="Trazado_3701" data-name="Trazado 3701" d="M286.943,61.006a.632.632,0,0,1-.558,0,4.538,4.538,0,0,0-4.191-.211.583.583,0,0,1-.781-.236.6.6,0,0,1,.236-.794,5.729,5.729,0,0,1,5.295.211.57.57,0,0,1,.236.781.756.756,0,0,1-.236.248Z" transform="translate(-222.198 -39.108)" fill="#263238"/>
      <path id="Unión_19" data-name="Unión 19" d="M42.138,119.614l-4.4-4.387s-6.14-4.347-6.97-8.92c-2.175-2.6-4.272-5.245-6.349-7.918-3.026-3.895-5.939-7.874-8.78-11.929s-5.578-8.235-8.146-12.614A84.512,84.512,0,0,1,.44,59.512a7.306,7.306,0,0,1-.213-4.3l.16-.62c1.054-4.18,2.148-8.307,3.362-12.4s2.48-8.146,3.719-12.178,2.656-8.046,4.067-12.029,2.841-7.946,4.44-11.913a9.314,9.314,0,0,1,17.459,6.5l-.024.076c-1.339,3.879-2.829,7.8-4.215,11.705L24.9,36.038,20.624,47.708c-1.1,3.114-2.224,6.21-3.306,9.3a83.239,83.239,0,0,0,3.975,9.5c1.988,4.2,4.12,8.432,6.352,12.652s4.5,8.442,6.8,12.674l4.105,7.552,9.671,5.23,4.724,6.263a4.32,4.32,0,0,1-.93,6.086l-4.3,3.1a4.312,4.312,0,0,1-5.569-.449Z" transform="translate(0 82.17)" fill="#fff" stroke="#263238" stroke-width="1"/>
      <path id="Trazado_3703" data-name="Trazado 3703" d="M259.351,104.282c-13.33,4.762-20.621,30.8-20.621,30.8l21.241,18.922s8.754-6.274,10.54-19.567C271.875,124.184,272.892,99.4,259.351,104.282Z" transform="translate(-232.426 -28.444)" fill="#2d1674" stroke="#263238" stroke-width="1"/>
      <path id="Trazado_3706" data-name="Trazado 3706" d="M268.532,98.53c.57,2.765,3.1,12,15.574,12.524-4.3,1.4-5.32,9.6-5.32,9.6s-12.834-8.085-14.086-18.2C265.072,99.782,268.532,98.53,268.532,98.53Z" transform="translate(-226.193 -29.673)" fill="#fff" stroke="#263238" stroke-width="1"/>
      <path id="Trazado_3707" data-name="Trazado 3707" d="M282.16,94.63c.558,2.7,4.762,7.229,4.166,15.326,4.328-1.327,9.8,2.331,9.8,2.331a33.653,33.653,0,0,0-8.68-16.529A12.486,12.486,0,0,0,282.16,94.63Z" transform="translate(-222.003 -30.609)" fill="#fff" stroke="#263238" stroke-width="1"/>
    </g>
  </g>
</svg>