<svg xmlns="http://www.w3.org/2000/svg" width="487.743" height="476.125" viewBox="0 0 487.743 476.125">
  <g id="Secure_login-pana" data-name="Secure login-pana" transform="translate(-24.6 -34.24)">
    <g id="freepik--background-complete--inject-49" transform="translate(36.263 34.24)">
      <rect id="Rectángulo_3583" data-name="Rectángulo 3583" width="416.225" height="325.57" transform="translate(0.187 0.298)" fill="#fafafa"/>
      <path id="Trazado_5969" data-name="Trazado 5969" d="M451.592,360.108c0-1.973-.1-129.093-.243-325.57l.243.231L35.4,34.824h0l.287-.287v325.57l-.254-.254,416.225.254-416.225.254H35.18V34.24H451.923v.243C451.658,231.015,451.592,358.134,451.592,360.108Z" transform="translate(-35.18 -34.24)" fill="#e0e0e0"/>
      <path id="Trazado_5970" data-name="Trazado 5970" d="M92.963,110.543H68.414a3.075,3.075,0,0,1-3.064-3.109V73.505a3.075,3.075,0,0,1,3.064-3.075H83.979L96.028,82.853v24.582a3.075,3.075,0,0,1-3.064,3.109Z" transform="translate(-32.093 -30.537)" fill="#ebebeb"/>
      <path id="Trazado_5971" data-name="Trazado 5971" d="M82.25,70.43V80A2.855,2.855,0,0,0,85.1,82.853H94.3Z" transform="translate(-30.364 -30.537)" fill="#f5f5f5"/>
      <path id="Trazado_5972" data-name="Trazado 5972" d="M82.37,79.87a3.164,3.164,0,0,0,2.513,3.075,1.443,1.443,0,0,0,.3.066c1.2.22,9.105,1.62,9.105,1.444V81.887H85.093S82.8,81.81,82.37,79.87Z" transform="translate(-30.352 -29.571)" fill="#e0e0e0"/>
      <path id="Trazado_5973" data-name="Trazado 5973" d="M92.971,110.551a3.24,3.24,0,0,0,.529-.066,3.109,3.109,0,0,0,1.389-.65,3.042,3.042,0,0,0,1.1-2.2c0-.992,0-2.138,0-3.428V82.817h0L83.91,70.515H69.117a8.314,8.314,0,0,0-1.179,0,2.943,2.943,0,0,0-1.863,1.279,2.888,2.888,0,0,0-.6,1.477v33.5a7.083,7.083,0,0,0,0,1.29A2.976,2.976,0,0,0,68,110.43a8.7,8.7,0,0,0,1.2,0h0a11.423,11.423,0,0,1-1.224,0,2.975,2.975,0,0,1-1.2-.43,3.153,3.153,0,0,1-1.477-2.083,6.615,6.615,0,0,1,0-1.323V73.282a3.108,3.108,0,0,1,.584-1.62,3.219,3.219,0,0,1,2.061-1.279,6.449,6.449,0,0,1,1.213,0h14.87L96.1,82.795h0v24.813a3.108,3.108,0,0,1-1.1,2.2,3.208,3.208,0,0,1-1.422.639h-.4Z" transform="translate(-32.101 -30.545)" fill="#e0e0e0"/>
      <path id="Trazado_5974" data-name="Trazado 5974" d="M94.311,82.867h-9.3a3,3,0,0,1-2.139-1,3.1,3.1,0,0,1-.6-1.1,3.307,3.307,0,0,1-.132-1.168v-9.3a.629.629,0,0,1,0,.243v9.061a2.822,2.822,0,0,0,.683,2.094,2.778,2.778,0,0,0,1.984.937h9.072C94.233,82.845,94.311,82.856,94.311,82.867Z" transform="translate(-30.376 -30.551)" fill="#e0e0e0"/>
      <path id="Trazado_5975" data-name="Trazado 5975" d="M83.031,78.18c0,.066-2.9.11-6.471.11s-6.471,0-6.471-.11,2.888-.11,6.471-.11S83.031,78.125,83.031,78.18Z" transform="translate(-31.608 -29.755)" fill="#e0e0e0"/>
      <path id="Trazado_5976" data-name="Trazado 5976" d="M89.171,82.51s-4.266.11-9.535.11-9.546,0-9.546-.11,4.266-.11,9.546-.11S89.171,82.444,89.171,82.51Z" transform="translate(-31.608 -29.312)" fill="#e0e0e0"/>
      <path id="Trazado_5977" data-name="Trazado 5977" d="M89.171,86.829c0,.066-4.266.11-9.535.11s-9.546,0-9.546-.11,4.266-.1,9.546-.1S89.171,86.774,89.171,86.829Z" transform="translate(-31.608 -28.869)" fill="#e0e0e0"/>
      <path id="Trazado_5978" data-name="Trazado 5978" d="M89.171,91.16s-4.266.11-9.535.11-9.546,0-9.546-.11,4.266-.11,9.546-.11S89.171,91.105,89.171,91.16Z" transform="translate(-31.608 -28.427)" fill="#e0e0e0"/>
      <path id="Trazado_5979" data-name="Trazado 5979" d="M89.171,95.49s-4.266.1-9.535.1-9.546,0-9.546-.1,4.266-.11,9.546-.11S89.171,95.424,89.171,95.49Z" transform="translate(-31.608 -27.984)" fill="#e0e0e0"/>
      <path id="Trazado_5980" data-name="Trazado 5980" d="M89.171,100.82c0,.066-4.266.11-9.535.11s-9.546,0-9.546-.11,4.266-.11,9.546-.11S89.171,100.765,89.171,100.82Z" transform="translate(-31.608 -27.439)" fill="#e0e0e0"/>
      <path id="Trazado_5981" data-name="Trazado 5981" d="M95.873,116.077c0,.165-6.812.287-15.2.287s-15.212-.121-15.212-.287,6.812-.287,15.212-.287S95.873,115.922,95.873,116.077Z" transform="translate(-32.082 -25.896)" fill="#e0e0e0"/>
      <path id="Trazado_5982" data-name="Trazado 5982" d="M89.946,119.69a81.805,81.805,0,0,1-9.778.287,81.926,81.926,0,0,1-9.789-.287,84.8,84.8,0,0,1,9.789-.287,84.683,84.683,0,0,1,9.778.287Z" transform="translate(-31.578 -25.53)" fill="#e0e0e0"/>
      <path id="Trazado_5983" data-name="Trazado 5983" d="M92.963,189.312H68.414a3.075,3.075,0,0,1-3.064-3.075V152.285a3.076,3.076,0,0,1,3.064-3.075H83.979l12.048,12.423v24.6a3.075,3.075,0,0,1-3.064,3.075Z" transform="translate(-32.093 -22.476)" fill="#ebebeb"/>
      <path id="Trazado_5984" data-name="Trazado 5984" d="M82.25,149.2v9.568a2.855,2.855,0,0,0,2.855,2.855H94.3Z" transform="translate(-30.364 -22.477)" fill="#f5f5f5"/>
      <path id="Trazado_5985" data-name="Trazado 5985" d="M82.37,158.64a3.164,3.164,0,0,0,2.513,3.076l.3.066c1.2.22,9.105,1.62,9.105,1.444v-2.568H85.093S82.8,160.58,82.37,158.64Z" transform="translate(-30.352 -21.511)" fill="#e0e0e0"/>
      <path id="Trazado_5986" data-name="Trazado 5986" d="M92.966,189.321a3.238,3.238,0,0,0,.529-.066,3.108,3.108,0,0,0,1.389-.65,3.042,3.042,0,0,0,1.1-2.2c0-.992,0-2.138,0-3.428v-21.33L83.905,149.285H69.112a8.314,8.314,0,0,0-1.179,0,2.943,2.943,0,0,0-1.863,1.279,2.888,2.888,0,0,0-.54,1.51V185.54a7.086,7.086,0,0,0,0,1.29,2.976,2.976,0,0,0,2.524,2.37,8.708,8.708,0,0,0,1.2,0h0a11.46,11.46,0,0,1-1.224,0,2.976,2.976,0,0,1-1.2-.43,3.153,3.153,0,0,1-1.477-2.083,6.616,6.616,0,0,1,0-1.323V152.052a3.108,3.108,0,0,1,.584-1.62A3.219,3.219,0,0,1,68,149.153a6.444,6.444,0,0,1,1.213,0H84.026l12.037,12.423h0v24.813a3.109,3.109,0,0,1-1.1,2.2,3.208,3.208,0,0,1-1.422.639h-.4Z" transform="translate(-32.096 -22.485)" fill="#e0e0e0"/>
      <path id="Trazado_5987" data-name="Trazado 5987" d="M94.311,161.637h-9.3a3,3,0,0,1-2.139-1,3.1,3.1,0,0,1-.6-1.1,3.307,3.307,0,0,1-.132-1.168v-9.3a.629.629,0,0,1,0,.243v9.061a2.822,2.822,0,0,0,.683,2.094,2.778,2.778,0,0,0,1.984.937h9.072C94.233,161.615,94.311,161.626,94.311,161.637Z" transform="translate(-30.376 -22.492)" fill="#e0e0e0"/>
      <path id="Trazado_5988" data-name="Trazado 5988" d="M83.031,156.95c0,.066-2.9.11-6.471.11s-6.471,0-6.471-.11,2.888-.11,6.471-.11S83.031,156.9,83.031,156.95Z" transform="translate(-31.608 -21.696)" fill="#e0e0e0"/>
      <path id="Trazado_5989" data-name="Trazado 5989" d="M89.171,161.28s-4.266.11-9.535.11-9.546-.055-9.546-.11,4.266-.11,9.546-.11S89.171,161.214,89.171,161.28Z" transform="translate(-31.608 -21.253)" fill="#e0e0e0"/>
      <path id="Trazado_5990" data-name="Trazado 5990" d="M89.171,165.6c0,.066-4.266.11-9.535.11s-9.546,0-9.546-.11,4.266-.1,9.546-.1S89.171,165.544,89.171,165.6Z" transform="translate(-31.608 -20.81)" fill="#e0e0e0"/>
      <path id="Trazado_5991" data-name="Trazado 5991" d="M89.171,169.93c0,.055-4.266.11-9.535.11s-9.546-.055-9.546-.11,4.266-.11,9.546-.11S89.171,169.875,89.171,169.93Z" transform="translate(-31.608 -20.368)" fill="#e0e0e0"/>
      <path id="Trazado_5992" data-name="Trazado 5992" d="M89.171,174.26c0,.055-4.266.1-9.535.1s-9.546,0-9.546-.1,4.266-.11,9.546-.11S89.171,174.194,89.171,174.26Z" transform="translate(-31.608 -19.925)" fill="#e0e0e0"/>
      <path id="Trazado_5993" data-name="Trazado 5993" d="M89.171,179.59c0,.066-4.266.11-9.535.11s-9.546,0-9.546-.11,4.266-.11,9.546-.11S89.171,179.535,89.171,179.59Z" transform="translate(-31.608 -19.379)" fill="#e0e0e0"/>
      <path id="Trazado_5994" data-name="Trazado 5994" d="M95.873,194.847c0,.165-6.812.287-15.2.287s-15.212-.121-15.212-.287,6.812-.287,15.212-.287S95.873,194.692,95.873,194.847Z" transform="translate(-32.082 -17.836)" fill="#e0e0e0"/>
      <path id="Trazado_5995" data-name="Trazado 5995" d="M89.946,198.46a81.8,81.8,0,0,1-9.778.287,81.917,81.917,0,0,1-9.789-.287,84.8,84.8,0,0,1,9.789-.287,84.68,84.68,0,0,1,9.778.287Z" transform="translate(-31.578 -17.47)" fill="#e0e0e0"/>
      <path id="Trazado_5996" data-name="Trazado 5996" d="M91.433,285.943H66.884a3.076,3.076,0,0,1-3.064-3.076V248.905a3.076,3.076,0,0,1,3.064-3.075H82.449L94.5,258.253v24.615a3.076,3.076,0,0,1-3.064,3.076Z" transform="translate(-32.25 -12.59)" fill="#ebebeb"/>
      <path id="Trazado_5997" data-name="Trazado 5997" d="M80.72,245.83v9.557a2.855,2.855,0,0,0,2.855,2.855h9.193Z" transform="translate(-30.52 -12.59)" fill="#f5f5f5"/>
      <path id="Trazado_5998" data-name="Trazado 5998" d="M80.84,255.26a3.175,3.175,0,0,0,2.513,3.087,2.549,2.549,0,0,0,.309.066c1.19.22,9.094,1.62,9.094,1.444v-2.568H83.563S81.27,257.178,80.84,255.26Z" transform="translate(-30.508 -11.625)" fill="#e0e0e0"/>
      <path id="Trazado_5999" data-name="Trazado 5999" d="M91.439,285.953a3.239,3.239,0,0,0,.529-.066,3.108,3.108,0,0,0,1.389-.65,3.042,3.042,0,0,0,1.1-2.2c0-.992,0-2.15,0-3.428V258.219h0l-12.081-12.3H67.585a7,7,0,0,0-1.179,0,2.944,2.944,0,0,0-1.918,1.2,2.888,2.888,0,0,0-.54,1.51v33.466a8.245,8.245,0,0,0,.077,1.411,2.976,2.976,0,0,0,2.524,2.37,10.824,10.824,0,0,0,1.2,0H67.7a9.187,9.187,0,0,1-1.224,0,3.164,3.164,0,0,1-2.679-2.37,6.681,6.681,0,0,1,0-1.323V248.695a3.164,3.164,0,0,1,2.646-2.9,7.556,7.556,0,0,1,1.213-.055H82.5l12.07,12.412h0v24.813a3.109,3.109,0,0,1-1.1,2.2,3,3,0,0,1-1.422.628,2.232,2.232,0,0,1-.4,0Z" transform="translate(-32.256 -12.6)" fill="#e0e0e0"/>
      <path id="Trazado_6000" data-name="Trazado 6000" d="M92.78,258.267h-9.3a2.954,2.954,0,0,1-2.128-1,3.054,3.054,0,0,1-.606-1.1,3.306,3.306,0,0,1-.132-1.168v-9.3a.628.628,0,0,1,0,.243v9.061a2.844,2.844,0,0,0,.683,2.094,2.723,2.723,0,0,0,1.984.926h9.072A4.756,4.756,0,0,0,92.78,258.267Z" transform="translate(-30.533 -12.605)" fill="#e0e0e0"/>
      <path id="Trazado_6001" data-name="Trazado 6001" d="M81.5,253.58c0,.055-2.9.11-6.471.11s-6.471,0-6.471-.11,2.9-.11,6.471-.11S81.5,253.525,81.5,253.58Z" transform="translate(-31.765 -11.809)" fill="#e0e0e0"/>
      <path id="Trazado_6002" data-name="Trazado 6002" d="M87.641,257.91c0,.055-4.266.1-9.535.1s-9.546,0-9.546-.1,4.266-.11,9.546-.11S87.641,257.844,87.641,257.91Z" transform="translate(-31.765 -11.366)" fill="#e0e0e0"/>
      <path id="Trazado_6003" data-name="Trazado 6003" d="M87.641,262.23c0,.066-4.266.11-9.535.11s-9.546,0-9.546-.11,4.266-.11,9.546-.11S87.641,262.175,87.641,262.23Z" transform="translate(-31.765 -10.924)" fill="#e0e0e0"/>
      <path id="Trazado_6004" data-name="Trazado 6004" d="M87.641,266.56c0,.055-4.266.11-9.535.11s-9.546,0-9.546-.11,4.266-.11,9.546-.11S87.641,266.494,87.641,266.56Z" transform="translate(-31.765 -10.48)" fill="#e0e0e0"/>
      <path id="Trazado_6005" data-name="Trazado 6005" d="M87.641,270.879c0,.066-4.266.11-9.535.11s-9.546,0-9.546-.11,4.266-.1,9.546-.1S87.641,270.824,87.641,270.879Z" transform="translate(-31.765 -10.037)" fill="#e0e0e0"/>
      <path id="Trazado_6006" data-name="Trazado 6006" d="M87.641,276.22c0,.055-4.266.11-9.535.11s-9.546-.055-9.546-.11,4.266-.11,9.546-.11S87.641,276.165,87.641,276.22Z" transform="translate(-31.765 -9.492)" fill="#e0e0e0"/>
      <path id="Trazado_6007" data-name="Trazado 6007" d="M94.342,291.477c0,.154-6.812.287-15.2.287s-15.2-.132-15.2-.287,6.8-.287,15.2-.287S94.342,291.322,94.342,291.477Z" transform="translate(-32.237 -7.949)" fill="#e0e0e0"/>
      <path id="Trazado_6008" data-name="Trazado 6008" d="M88.427,295.09a84.959,84.959,0,0,1-9.789.287,84.808,84.808,0,0,1-9.789-.287,84.8,84.8,0,0,1,9.789-.287A84.987,84.987,0,0,1,88.427,295.09Z" transform="translate(-31.735 -7.583)" fill="#e0e0e0"/>
      <path id="Trazado_6009" data-name="Trazado 6009" d="M237.844,283.721h-24.56a3.054,3.054,0,0,1-3.065-3.064V246.706a3.065,3.065,0,0,1,3.065-3.076h15.565L240.9,256.042v24.626A3.064,3.064,0,0,1,237.844,283.721Z" transform="translate(-17.27 -12.815)" fill="#ebebeb"/>
      <path id="Trazado_6010" data-name="Trazado 6010" d="M227.14,243.63v9.557a2.855,2.855,0,0,0,2.855,2.855h9.193Z" transform="translate(-15.539 -12.815)" fill="#f5f5f5"/>
      <path id="Trazado_6011" data-name="Trazado 6011" d="M227.25,253.06a3.175,3.175,0,0,0,2.524,3.087l.3.066c1.2.209,9.105,1.62,9.105,1.433v-2.568h-9.193S227.691,255,227.25,253.06Z" transform="translate(-15.528 -11.851)" fill="#e0e0e0"/>
      <path id="Trazado_6012" data-name="Trazado 6012" d="M237.847,283.751a3.73,3.73,0,0,0,.529-.055,3.086,3.086,0,0,0,1.4-.65,3.031,3.031,0,0,0,1.1-2.2V256.094L228.8,243.737H214a6.951,6.951,0,0,0-1.179,0,2.943,2.943,0,0,0-1.918,1.2,2.9,2.9,0,0,0-.551,1.5v33.488a7.086,7.086,0,0,0,.055,1.29,2.976,2.976,0,0,0,2.524,2.37h1.235a11.507,11.507,0,0,1-1.224,0,3.13,3.13,0,0,1-1.2-.419,3.175,3.175,0,0,1-1.477-2.083,7.649,7.649,0,0,1-.066-1.323V246.272a3.108,3.108,0,0,1,.584-1.62,3.186,3.186,0,0,1,2.061-1.29,9.053,9.053,0,0,1,1.213,0h14.914L241.01,255.8h0V280.62a3.131,3.131,0,0,1-1.1,2.2,3.085,3.085,0,0,1-1.422.628,1.408,1.408,0,0,1-.4,0Z" transform="translate(-17.273 -12.845)" fill="#e0e0e0"/>
      <path id="Trazado_6013" data-name="Trazado 6013" d="M239.2,256.043h-.915l-2.469.121h-5.9a2.932,2.932,0,0,1-2.734-2.072,3.616,3.616,0,0,1-.143-1.168v-9.072a.936.936,0,0,1,0-.231.936.936,0,0,1,0,.231v9.072a2.844,2.844,0,0,0,.683,2.094,2.722,2.722,0,0,0,1.984.926h9.072Z" transform="translate(-15.55 -12.816)" fill="#e0e0e0"/>
      <path id="Trazado_6014" data-name="Trazado 6014" d="M227.922,251.38s-2.9.11-6.471.11-6.482-.055-6.482-.11,2.9-.11,6.482-.11S227.922,251.314,227.922,251.38Z" transform="translate(-16.784 -12.034)" fill="#e0e0e0"/>
      <path id="Trazado_6015" data-name="Trazado 6015" d="M234.062,255.7c0,.066-4.266.11-9.546.11s-9.546,0-9.546-.11,4.277-.1,9.546-.1S234.062,255.644,234.062,255.7Z" transform="translate(-16.784 -11.591)" fill="#e0e0e0"/>
      <path id="Trazado_6016" data-name="Trazado 6016" d="M234.062,260.01c0,.066-4.266.11-9.546.11s-9.546,0-9.546-.11,4.277-.11,9.546-.11S234.062,260.01,234.062,260.01Z" transform="translate(-16.784 -11.151)" fill="#e0e0e0"/>
      <path id="Trazado_6017" data-name="Trazado 6017" d="M234.062,264.36s-4.266.1-9.546.1-9.546,0-9.546-.1,4.277-.11,9.546-.11S234.062,264.294,234.062,264.36Z" transform="translate(-16.784 -10.706)" fill="#e0e0e0"/>
      <path id="Trazado_6018" data-name="Trazado 6018" d="M234.062,268.68c0,.066-4.266.11-9.546.11s-9.546,0-9.546-.11,4.277-.11,9.546-.11S234.062,268.625,234.062,268.68Z" transform="translate(-16.784 -10.264)" fill="#e0e0e0"/>
      <path id="Trazado_6019" data-name="Trazado 6019" d="M234.062,274.01c0,.055-4.266.11-9.546.11s-9.546-.055-9.546-.11,4.277-.11,9.546-.11S234.062,274.01,234.062,274.01Z" transform="translate(-16.784 -9.718)" fill="#e0e0e0"/>
      <path id="Trazado_6020" data-name="Trazado 6020" d="M240.763,289.277c0,.154-6.812.287-15.212.287s-15.2-.132-15.2-.287,6.812-.287,15.2-.287S240.763,289.111,240.763,289.277Z" transform="translate(-17.257 -8.174)" fill="#e0e0e0"/>
      <path id="Trazado_6021" data-name="Trazado 6021" d="M234.816,292.89a84.767,84.767,0,0,1-9.789.287,84.7,84.7,0,0,1-9.778-.287,84.632,84.632,0,0,1,9.778-.287A84.753,84.753,0,0,1,234.816,292.89Z" transform="translate(-16.755 -7.808)" fill="#e0e0e0"/>
      <path id="Trazado_6022" data-name="Trazado 6022" d="M147,56.971l1.1,21.958a1.389,1.389,0,0,0,1.279,1.378h33.863a1.389,1.389,0,0,0,1.235-1.466v-17.1a1.389,1.389,0,0,0-1.279-1.488l-20.768.209a1.2,1.2,0,0,1-.9-.43l-3.616-4.167a1.18,1.18,0,0,0-.893-.419H148.2a1.4,1.4,0,0,0-1.2,1.521Z" transform="translate(-23.739 -32.07)" fill="#ebebeb"/>
      <rect id="Rectángulo_3584" data-name="Rectángulo 3584" width="37.005" height="25.805" transform="translate(123.768 25.596)" fill="#f5f5f5"/>
      <path id="Trazado_6023" data-name="Trazado 6023" d="M144.791,59.657,147.613,86.6a.893.893,0,0,0,.816.838H184.5a.882.882,0,0,0,.816-.882l1.819-26.919a.915.915,0,0,0-.816-1.025H145.607a.915.915,0,0,0-.816,1.047Z" transform="translate(-23.966 -31.746)" fill="#ebebeb"/>
      <path id="Trazado_6024" data-name="Trazado 6024" d="M180.6,97.157c0,.165-6.8.287-15.2.287s-15.2-.121-15.2-.287,6.8-.287,15.2-.287S180.6,97.013,180.6,97.157Z" transform="translate(-23.411 -27.832)" fill="#e0e0e0"/>
      <path id="Trazado_6025" data-name="Trazado 6025" d="M174.686,100.77a81.924,81.924,0,0,1-9.778.287,82.071,82.071,0,0,1-9.789-.287,84.953,84.953,0,0,1,9.789-.287A84.789,84.789,0,0,1,174.686,100.77Z" transform="translate(-22.908 -27.466)" fill="#e0e0e0"/>
      <path id="Trazado_6026" data-name="Trazado 6026" d="M148,150.626l1.157,21.958a1.378,1.378,0,0,0,1.279,1.389h33.94a1.378,1.378,0,0,0,1.268-1.477V155.388a1.378,1.378,0,0,0-1.279-1.477l-20.823.154a1.2,1.2,0,0,1-.9-.43l-3.616-4.156a1.191,1.191,0,0,0-.893-.43h-8.819A1.411,1.411,0,0,0,148,150.626Z" transform="translate(-23.637 -22.493)" fill="#ebebeb"/>
      <rect id="Rectángulo_3585" data-name="Rectángulo 3585" width="37.005" height="25.805" transform="translate(124.959 128.817)" fill="#f5f5f5"/>
      <path id="Trazado_6027" data-name="Trazado 6027" d="M145.871,153.309l2.833,26.908a.86.86,0,0,0,.8.838h36.068a.871.871,0,0,0,.816-.871l1.819-26.919a.915.915,0,0,0-.816-1.025H146.687a.915.915,0,0,0-.816,1.069Z" transform="translate(-23.856 -22.166)" fill="#ebebeb"/>
      <path id="Trazado_6028" data-name="Trazado 6028" d="M181.682,190.807c0,.154-6.8.287-15.2.287s-15.2-.132-15.2-.287,6.8-.287,15.2-.287S181.682,190.641,181.682,190.807Z" transform="translate(-23.301 -18.25)" fill="#e0e0e0"/>
      <path id="Trazado_6029" data-name="Trazado 6029" d="M175.817,194.42a84.8,84.8,0,0,1-9.789.287,84.951,84.951,0,0,1-9.788-.287,82.069,82.069,0,0,1,9.789-.287A81.935,81.935,0,0,1,175.817,194.42Z" transform="translate(-22.793 -17.884)" fill="#e0e0e0"/>
      <path id="Trazado_6030" data-name="Trazado 6030" d="M131.791,266.086l1.168,21.958a1.367,1.367,0,0,0,1.268,1.389H168.09a1.389,1.389,0,0,0,1.279-1.477V270.848a1.378,1.378,0,0,0-1.279-1.477l-20.834.154a1.2,1.2,0,0,1-.9-.43l-3.616-4.156a1.191,1.191,0,0,0-.893-.43h-8.819a1.411,1.411,0,0,0-1.235,1.576Z" transform="translate(-25.296 -10.679)" fill="#ebebeb"/>
      <rect id="Rectángulo_3586" data-name="Rectángulo 3586" width="37.005" height="25.805" transform="translate(107.057 256.091)" fill="#f5f5f5"/>
      <path id="Trazado_6031" data-name="Trazado 6031" d="M129.631,268.759l2.833,26.919a.86.86,0,0,0,.8.838h36.068a.882.882,0,0,0,.816-.882l1.775-26.908a.915.915,0,0,0-.816-1.036H130.447a.915.915,0,0,0-.816,1.069Z" transform="translate(-25.517 -10.354)" fill="#ebebeb"/>
      <path id="Trazado_6032" data-name="Trazado 6032" d="M165.442,306.267c0,.154-6.8.287-15.2.287s-15.2-.132-15.2-.287,6.812-.287,15.2-.287S165.442,306.1,165.442,306.267Z" transform="translate(-24.962 -6.436)" fill="#e0e0e0"/>
      <path id="Trazado_6033" data-name="Trazado 6033" d="M159.527,309.88a84.822,84.822,0,0,1-9.789.287,84.946,84.946,0,0,1-9.789-.287,82.052,82.052,0,0,1,9.789-.287A81.923,81.923,0,0,1,159.527,309.88Z" transform="translate(-24.46 -6.07)" fill="#e0e0e0"/>
      <rect id="Rectángulo_3587" data-name="Rectángulo 3587" width="244.935" height="215.404" transform="translate(230.44 18.85)" fill="#fff"/>
      <path id="Trazado_6034" data-name="Trazado 6034" d="M489.189,266.775c0-2.039-.1-85.794-.243-215.4l.243.243H244.276l.287-.287v215.4l-.254-.253,244.935.253-244.935.254H244V51.04H489.464v.243C489.288,180.981,489.189,264.736,489.189,266.775Z" transform="translate(-13.814 -32.521)" fill="#e0e0e0"/>
      <path id="Trazado_6035" data-name="Trazado 6035" d="M489.617,71.408c0,.1-54.377.187-121.442.187s-121.465-.088-121.465-.187,54.377-.2,121.465-.2S489.617,71.3,489.617,71.408Z" transform="translate(-13.536 -30.457)" fill="#e0e0e0"/>
      <path id="Trazado_6036" data-name="Trazado 6036" d="M259.817,62.469A2.513,2.513,0,1,1,257.3,60a2.513,2.513,0,0,1,2.513,2.469Z" transform="translate(-12.71 -31.604)" fill="#ebebeb"/>
      <path id="Trazado_6037" data-name="Trazado 6037" d="M267.307,62.469A2.513,2.513,0,1,1,264.793,60a2.513,2.513,0,0,1,2.513,2.469Z" transform="translate(-11.943 -31.604)" fill="#ebebeb"/>
      <path id="Trazado_6038" data-name="Trazado 6038" d="M274.8,62.469A2.513,2.513,0,1,1,272.283,60a2.513,2.513,0,0,1,2.513,2.469Z" transform="translate(-11.177 -31.604)" fill="#ebebeb"/>
      <path id="Trazado_6039" data-name="Trazado 6039" d="M462.637,89.7a2.76,2.76,0,0,0,.408-.077,1.411,1.411,0,0,0,.86-.8,2.051,2.051,0,0,0,.1-.882V79.679a1.312,1.312,0,0,0-1.268-1.191H393.72a1.213,1.213,0,0,0-1.224,1.1v8.3a1.586,1.586,0,0,0,.154.9,1.256,1.256,0,0,0,.661.551,1.477,1.477,0,0,0,.441.066h44.942l17.549.066h6.438a3.08,3.08,0,0,1-.419,0h-6.019l-17.549.066H393.753a1.928,1.928,0,0,1-.562-.088,1.664,1.664,0,0,1-.871-.728,1.961,1.961,0,0,1-.209-1.1v-7.97a1.62,1.62,0,0,1,1.609-1.477h69.016a1.5,1.5,0,0,1,1.455,1.378v8.278a2.208,2.208,0,0,1-.121.915,1.422,1.422,0,0,1-.915.8A.992.992,0,0,1,462.637,89.7Z" transform="translate(1.34 -29.744)" fill="#e0e0e0"/>
      <path id="Trazado_6040" data-name="Trazado 6040" d="M396.3,85.111l.187-.4a1.841,1.841,0,0,0,1.19.408c.628,0,.893-.243.893-.551,0-.882-2.2-.331-2.2-1.664,0-.562.43-1.036,1.378-1.036a2.2,2.2,0,0,1,1.157.32l-.165.419a1.819,1.819,0,0,0-.992-.3c-.617,0-.882.254-.882.573,0,.882,2.2.331,2.2,1.653,0,.551-.441,1.025-1.4,1.025A2.2,2.2,0,0,1,396.3,85.111Z" transform="translate(1.769 -29.367)" fill="#e0e0e0"/>
      <path id="Trazado_6041" data-name="Trazado 6041" d="M401.922,84.229h-2.2a.915.915,0,0,0,.992.8,1,1,0,0,0,.783-.331l.276.32a1.389,1.389,0,0,1-1.1.441,1.367,1.367,0,0,1-1.455-1.334,1.345,1.345,0,0,1,1.367-1.4,1.323,1.323,0,0,1,1.356,1.4A.619.619,0,0,0,401.922,84.229Zm-2.2-.353h1.753a.86.86,0,0,0-.882-.783.838.838,0,0,0-.882.783Z" transform="translate(2.067 -29.279)" fill="#e0e0e0"/>
      <path id="Trazado_6042" data-name="Trazado 6042" d="M404.421,83.793v1.653h-.474v-.364a1.025,1.025,0,0,1-.893.386c-.628,0-1.014-.331-1.014-.8s.287-.794,1.1-.794h.783v-.1c0-.419-.242-.661-.738-.661a1.334,1.334,0,0,0-.86.3l-.21-.375a1.8,1.8,0,0,1,1.1-.353C403.991,82.68,404.421,83.033,404.421,83.793Zm-.5.816v-.386h-.772c-.485,0-.628.187-.628.419s.231.452.606.452A.816.816,0,0,0,403.925,84.609Z" transform="translate(2.357 -29.284)" fill="#e0e0e0"/>
      <path id="Trazado_6043" data-name="Trazado 6043" d="M406.5,82.68v.485h-.11a.816.816,0,0,0-.86.926v1.367H405V82.7h.474v.463A1.1,1.1,0,0,1,406.5,82.68Z" transform="translate(2.66 -29.284)" fill="#e0e0e0"/>
      <path id="Trazado_6044" data-name="Trazado 6044" d="M406.66,84.135a1.378,1.378,0,0,1,1.477-1.455,1.2,1.2,0,0,1,1.1.584l-.375.243a.86.86,0,0,0-.739-.4.97.97,0,0,0,0,1.929.838.838,0,0,0,.739-.4l.375.243a1.2,1.2,0,0,1-1.1.584,1.367,1.367,0,0,1-1.477-1.334Z" transform="translate(2.829 -29.284)" fill="#e0e0e0"/>
      <path id="Trazado_6045" data-name="Trazado 6045" d="M412.131,83.97v1.576h-.5V84.025c0-.54-.276-.8-.739-.8a.816.816,0,0,0-.871.915v1.411h-.5V81.71h.518V83.2a1.2,1.2,0,0,1,.97-.419,1.1,1.1,0,0,1,1.113,1.191Z" transform="translate(3.123 -29.383)" fill="#e0e0e0"/>
      <path id="Trazado_6046" data-name="Trazado 6046" d="M412.51,84.923a.342.342,0,0,1,.353-.353.353.353,0,1,1,0,.705.342.342,0,0,1-.353-.353Z" transform="translate(3.428 -29.09)" fill="#e0e0e0"/>
      <path id="Trazado_6047" data-name="Trazado 6047" d="M413.57,84.923a.353.353,0,1,1,.353.353A.353.353,0,0,1,413.57,84.923Z" transform="translate(3.536 -29.09)" fill="#e0e0e0"/>
      <path id="Trazado_6048" data-name="Trazado 6048" d="M414.63,84.923a.353.353,0,1,1,.353.353A.353.353,0,0,1,414.63,84.923Z" transform="translate(3.645 -29.09)" fill="#e0e0e0"/>
      <path id="Trazado_6049" data-name="Trazado 6049" d="M381.88,105.617V144.2h46.959V105.617a3.307,3.307,0,0,0-3.307-3.307H385.22a3.307,3.307,0,0,0-3.34,3.307Z" transform="translate(0.294 -27.275)" fill="#e0e0e0"/>
      <path id="Trazado_6050" data-name="Trazado 6050" d="M383.88,122.637l.32-14.187h41.083v8.091" transform="translate(0.499 -26.647)" fill="#f5f5f5"/>
      <rect id="Rectángulo_3588" data-name="Rectángulo 3588" width="35.903" height="3.836" transform="translate(387.366 77.967)" fill="#f5f5f5"/>
      <path id="Trazado_6051" data-name="Trazado 6051" d="M386.606,105.013h2.734l7.584-.066,25.585-.077h.187v3.979c-.386.386-.121.11-.209.2H400.925l-14.33-.077h-.077V105.3a1.96,1.96,0,0,1,0-.243,1.485,1.485,0,0,1,0,.265v3.572l-.088-.077,14.33-.077h21.572c-.077.077.209-.2-.176.187v-3.913l.187.2-25.441-.088H386.639Z" transform="translate(0.76 -27.013)" fill="#e0e0e0"/>
      <path id="Trazado_6052" data-name="Trazado 6052" d="M426.72,149.137c0,.11-8.973.2-20.04.2s-20.04-.088-20.04-.2,8.973-.187,20.04-.187S426.72,149.005,426.72,149.137Z" transform="translate(0.781 -22.503)" fill="#e0e0e0"/>
      <path id="Trazado_6053" data-name="Trazado 6053" d="M378.612,115.257l3.6,27.955h46.959V116.128H407.856l-4.145-3.638H381.037a2.447,2.447,0,0,0-2.425,2.767Z" transform="translate(-0.042 -26.234)" fill="#ebebeb"/>
      <path id="Trazado_6054" data-name="Trazado 6054" d="M414.892,125.737c0,.11-5.148.2-11.486.2s-11.486-.088-11.486-.2,5.148-.187,11.486-.187S414.892,125.638,414.892,125.737Z" transform="translate(1.321 -24.897)" fill="#e0e0e0"/>
      <path id="Trazado_6055" data-name="Trazado 6055" d="M414.892,128.238c0,.11-5.148.187-11.486.187s-11.486-.077-11.486-.187,5.148-.2,11.486-.2S414.892,128.128,414.892,128.238Z" transform="translate(1.321 -24.642)" fill="#e0e0e0"/>
      <path id="Trazado_6056" data-name="Trazado 6056" d="M416.333,153.877c0,.11-5.622.2-12.566.2s-12.566-.088-12.566-.2,5.633-.187,12.566-.187S416.333,153.778,416.333,153.877Z" transform="translate(1.248 -22.018)" fill="#e0e0e0"/>
      <path id="Trazado_6057" data-name="Trazado 6057" d="M289.23,105.617V144.2h46.959V105.617a3.307,3.307,0,0,0-3.307-3.307H292.57a3.307,3.307,0,0,0-3.34,3.307Z" transform="translate(-9.186 -27.275)" fill="#e0e0e0"/>
      <path id="Trazado_6058" data-name="Trazado 6058" d="M291.23,122.637l.32-14.187h41.083v8.091" transform="translate(-8.981 -26.647)" fill="#f5f5f5"/>
      <rect id="Rectángulo_3589" data-name="Rectángulo 3589" width="35.903" height="3.836" transform="translate(285.236 77.967)" fill="#f5f5f5"/>
      <path id="Trazado_6059" data-name="Trazado 6059" d="M293.956,105.013h2.734l7.584-.066,25.585-.077h.187v3.979c-.386.386-.121.11-.209.2H308.276l-14.33-.077h-.077V105.3a1.96,1.96,0,0,1,0-.243,1.485,1.485,0,0,1,0,.265v3.572l-.088-.077,14.33-.077h21.738c-.077.077.209-.2-.176.187v-3.913l.188.2-25.442-.088H294.155Z" transform="translate(-8.72 -27.013)" fill="#e0e0e0"/>
      <path id="Trazado_6060" data-name="Trazado 6060" d="M334.02,149.137c0,.11-8.973.2-20.04.2s-20.04-.088-20.04-.2,8.973-.187,20.04-.187S334.02,149.005,334.02,149.137Z" transform="translate(-8.704 -22.503)" fill="#e0e0e0"/>
      <path id="Trazado_6061" data-name="Trazado 6061" d="M286,115.257l3.6,27.955h46.959V116.128H315.2l-4.145-3.638H288.383A2.447,2.447,0,0,0,286,115.257Z" transform="translate(-9.518 -26.234)" fill="#ebebeb"/>
      <path id="Trazado_6062" data-name="Trazado 6062" d="M322.242,125.737c0,.11-5.148.2-11.486.2s-11.486-.088-11.486-.2,5.148-.187,11.486-.187S322.242,125.638,322.242,125.737Z" transform="translate(-8.159 -24.897)" fill="#e0e0e0"/>
      <path id="Trazado_6063" data-name="Trazado 6063" d="M322.242,128.238c0,.11-5.148.187-11.486.187s-11.486-.077-11.486-.187,5.148-.2,11.486-.2S322.242,128.128,322.242,128.238Z" transform="translate(-8.159 -24.642)" fill="#e0e0e0"/>
      <path id="Trazado_6064" data-name="Trazado 6064" d="M323.7,153.877c0,.11-5.622.2-12.566.2s-12.566-.088-12.566-.2,5.633-.187,12.566-.187S323.7,153.778,323.7,153.877Z" transform="translate(-8.23 -22.018)" fill="#e0e0e0"/>
      <path id="Trazado_6065" data-name="Trazado 6065" d="M287.9,180.057v38.581h46.948V180.057a3.307,3.307,0,0,0-3.307-3.307H291.229a3.307,3.307,0,0,0-3.329,3.307Z" transform="translate(-9.322 -19.659)" fill="#e0e0e0"/>
      <path id="Trazado_6066" data-name="Trazado 6066" d="M289.9,197.077l.309-14.187h41.083v8.091" transform="translate(-9.117 -19.03)" fill="#f5f5f5"/>
      <rect id="Rectángulo_3590" data-name="Rectángulo 3590" width="35.903" height="3.836" transform="translate(283.759 160.024)" fill="#f5f5f5"/>
      <path id="Trazado_6067" data-name="Trazado 6067" d="M292.616,179.433h2.734l7.584-.055,25.585-.088h.2v4.023c-.386.386-.121.11-.21.2H306.935l-14.33-.077h-.088v-3.913a1.1,1.1,0,0,1,0,.254v3.572l-.077-.077,14.33-.077h21.572c-.077.088.209-.187-.176.187v-3.825l.187.187-25.442-.088H292.451Z" transform="translate(-8.857 -19.399)" fill="#e0e0e0"/>
      <path id="Trazado_6068" data-name="Trazado 6068" d="M332.72,223.577c0,.11-8.973.2-20.04.2s-20.04-.088-20.04-.2,8.973-.187,20.04-.187S332.72,223.478,332.72,223.577Z" transform="translate(-8.837 -14.886)" fill="#e0e0e0"/>
      <path id="Trazado_6069" data-name="Trazado 6069" d="M284.622,189.686l3.616,27.955h46.948V190.568H313.866l-4.134-3.638H287.047a2.447,2.447,0,0,0-2.425,2.756Z" transform="translate(-9.659 -18.617)" fill="#ebebeb"/>
      <path id="Trazado_6070" data-name="Trazado 6070" d="M320.9,200.188c0,.1-5.137.187-11.486.187s-11.486-.088-11.486-.187,5.148-.2,11.486-.2S320.9,200.078,320.9,200.188Z" transform="translate(-8.296 -17.281)" fill="#e0e0e0"/>
      <path id="Trazado_6071" data-name="Trazado 6071" d="M320.9,202.677c0,.11-5.137.187-11.486.187s-11.486-.077-11.486-.187,5.148-.187,11.486-.187S320.9,202.567,320.9,202.677Z" transform="translate(-8.296 -17.025)" fill="#e0e0e0"/>
      <path id="Trazado_6072" data-name="Trazado 6072" d="M322.333,228.317c0,.11-5.622.2-12.566.2s-12.566-.088-12.566-.2,5.633-.187,12.566-.187S322.333,228.218,322.333,228.317Z" transform="translate(-8.37 -14.401)" fill="#e0e0e0"/>
      <path id="Trazado_6073" data-name="Trazado 6073" d="M381.56,180.057v38.581h46.959V180.057a3.307,3.307,0,0,0-3.307-3.307H384.889a3.307,3.307,0,0,0-3.329,3.307Z" transform="translate(0.261 -19.659)" fill="#e0e0e0"/>
      <path id="Trazado_6074" data-name="Trazado 6074" d="M383.56,197.077l.309-14.187h41.094v8.091" transform="translate(0.466 -19.03)" fill="#f5f5f5"/>
      <rect id="Rectángulo_3591" data-name="Rectángulo 3591" width="35.903" height="3.836" transform="translate(387.013 160.024)" fill="#f5f5f5"/>
      <path id="Trazado_6075" data-name="Trazado 6075" d="M386.281,179.433H389l7.595-.055,25.585-.088h.176v4.023l-.2.2H400.6l-14.33-.077h-.088v-.088c0-1.235,0-2.2.055-2.877v-.948a2.224,2.224,0,0,1,0,.254v3.572l-.077-.077,14.33-.077h21.572c-.088.088.2-.187-.187.187v-3.825l.2.187-25.453-.088h-10.45Z" transform="translate(0.732 -19.399)" fill="#e0e0e0"/>
      <path id="Trazado_6076" data-name="Trazado 6076" d="M426.35,223.577c0,.11-8.973.2-20.04.2s-20.04-.088-20.04-.2,8.973-.187,20.04-.187S426.35,223.478,426.35,223.577Z" transform="translate(0.743 -14.886)" fill="#e0e0e0"/>
      <path id="Trazado_6077" data-name="Trazado 6077" d="M378.282,189.686l3.616,27.955h46.959V190.568h-21.33l-4.134-3.638H380.707a2.447,2.447,0,0,0-2.425,2.756Z" transform="translate(-0.076 -18.617)" fill="#ebebeb"/>
      <path id="Trazado_6078" data-name="Trazado 6078" d="M414.561,200.187c0,.1-5.137.187-11.475.187s-11.486-.088-11.486-.187,5.137-.187,11.464-.187S414.561,200.077,414.561,200.187Z" transform="translate(1.289 -17.28)" fill="#e0e0e0"/>
      <path id="Trazado_6079" data-name="Trazado 6079" d="M414.561,202.677c0,.11-5.137.187-11.475.187s-11.486-.077-11.486-.187,5.137-.187,11.486-.187S414.561,202.567,414.561,202.677Z" transform="translate(1.289 -17.025)" fill="#e0e0e0"/>
      <path id="Trazado_6080" data-name="Trazado 6080" d="M416.033,228.317c0,.11-5.633.2-12.566.2s-12.566-.088-12.566-.2,5.622-.187,12.566-.187S416.033,228.218,416.033,228.317Z" transform="translate(1.217 -14.401)" fill="#e0e0e0"/>
    </g>
    <g id="freepik--Table--inject-49" transform="translate(24.6 509.549)">
      <path id="Trazado_6081" data-name="Trazado 6081" d="M508.3,465.717c0,.165-108.292.286-241.838.286s-241.86-.121-241.86-.286,108.27-.287,241.86-.287S508.3,465.562,508.3,465.717Z" transform="translate(-24.6 -465.43)" fill="#263238"/>
    </g>
    <g id="freepik--speech-bubble--inject-49" transform="translate(113.004 97.543)">
      <path id="Trazado_6082" data-name="Trazado 6082" d="M317.054,278.3H231.36L214.99,302.553,199.018,278.3H114.844a9.744,9.744,0,0,1-9.744-9.745v-166.9a9.745,9.745,0,0,1,9.745-9.756H317.054a9.744,9.744,0,0,1,9.745,9.756V268.6A9.744,9.744,0,0,1,317.054,278.3Z" transform="translate(-104.767 -91.643)" fill="#fafafa"/>
      <path id="Trazado_6083" data-name="Trazado 6083" d="M317.085,278.326h.529a9.783,9.783,0,0,0,1.576-.232,9.678,9.678,0,0,0,7.286-7.209,7.332,7.332,0,0,0,.231-2.623V251.485c0-20.944-.055-51.126-.088-88.461V101.933a9.546,9.546,0,0,0-6.614-9.3,11.365,11.365,0,0,0-4.112-.463h-202a10.22,10.22,0,0,0-1.268.231,9.381,9.381,0,0,0-6.934,6.956,19.72,19.72,0,0,0-.276,4.729V266.322a22.41,22.41,0,0,0,.176,4.057A9.491,9.491,0,0,0,110,276.672a9.215,9.215,0,0,0,3.693,1.268c1.29.132,2.668.055,3.99.077H199.17l.066.1,15.951,24.251h-.331l16.391-24.251.055-.077h.088l63.229.287h0l-63.174.077.143-.077q-7.606,11.332-16.347,24.306l-.165.254-.165-.254-15.984-24.251.176.1H117.719c-1.345,0-2.657.055-4.046-.077a10.031,10.031,0,0,1-8.653-7.793,22.046,22.046,0,0,1-.2-4.156V101.768a10,10,0,0,1,7.65-9.833,11.092,11.092,0,0,1,1.345-.243H315.905a11.961,11.961,0,0,1,4.266.5,10.12,10.12,0,0,1,3.682,2.2,9.92,9.92,0,0,1,2.436,3.461,10.483,10.483,0,0,1,.783,4.134v61.091c0,37.336-.066,67.561-.088,88.461v16.777a11.156,11.156,0,0,1-.055,1.367,9.539,9.539,0,0,1-.231,1.29,9.767,9.767,0,0,1-7.419,7.242,8.987,8.987,0,0,1-1.576.187Z" transform="translate(-104.798 -91.667)" fill="#263238"/>
      <path id="Trazado_6084" data-name="Trazado 6084" d="M184.018,185.327c0,2.2-1.62,3.505-4.222,3.505h-1.951v2.679h-2.2V181.8h4.2C182.4,181.844,184.018,183.189,184.018,185.327Zm-2.282,0c0-1.1-.683-1.7-2.061-1.7h-1.83V187h1.83C181.052,187.047,181.736,186.43,181.736,185.327Z" transform="translate(-97.55 -82.445)" fill="#263238"/>
      <path id="Trazado_6085" data-name="Trazado 6085" d="M191.128,187.1v4.255H189.1v-.926a2.458,2.458,0,0,1-2.271,1.036c-1.742,0-2.789-.97-2.789-2.26s.937-2.2,3.208-2.2h1.72c0-.926-.551-1.466-1.72-1.466a3.582,3.582,0,0,0-2.15.694l-.783-1.51a5.755,5.755,0,0,1,3.219-.9C189.816,183.777,191.128,184.835,191.128,187.1Zm-2.2,1.9v-.761h-1.488c-1.014,0-1.334.375-1.334.871s.463.9,1.224.9a1.6,1.6,0,0,0,1.642-1.014Z" transform="translate(-96.69 -82.239)" fill="#263238"/>
      <path id="Trazado_6086" data-name="Trazado 6086" d="M191.59,190.639l.716-1.554a5.148,5.148,0,0,0,2.6.716c.992,0,1.367-.254,1.367-.672,0-1.224-4.508,0-4.508-2.954,0-1.411,1.279-2.414,3.461-2.414a6.217,6.217,0,0,1,2.866.65l-.716,1.543a4.277,4.277,0,0,0-2.2-.551c-.97,0-1.389.3-1.389.683,0,1.279,4.509,0,4.509,2.987,0,1.389-1.29,2.37-3.527,2.37A6.482,6.482,0,0,1,191.59,190.639Z" transform="translate(-95.918 -82.244)" fill="#263238"/>
      <path id="Trazado_6087" data-name="Trazado 6087" d="M198.27,190.639l.716-1.554a5.148,5.148,0,0,0,2.59.716c1,0,1.378-.254,1.378-.672,0-1.224-4.509,0-4.509-2.954,0-1.411,1.279-2.414,3.45-2.414a6.229,6.229,0,0,1,2.877.65l-.728,1.543a4.222,4.222,0,0,0-2.15-.551c-.97,0-1.378.3-1.378.683,0,1.279,4.5,0,4.5,2.987,0,1.389-1.29,2.37-3.516,2.37A6.449,6.449,0,0,1,198.27,190.639Z" transform="translate(-95.234 -82.244)" fill="#263238"/>
      <path id="Trazado_6088" data-name="Trazado 6088" d="M217.545,183.88l-2.7,7.463h-2.083l-1.676-4.63-1.731,4.63H207.25l-2.69-7.463H206.6l1.764,5.049,1.83-5.049h1.83l1.775,5.049,1.819-5.049Z" transform="translate(-94.591 -82.232)" fill="#263238"/>
      <path id="Trazado_6089" data-name="Trazado 6089" d="M216.571,187.675a4.1,4.1,0,1,1,4.1,3.836,3.836,3.836,0,0,1-4.1-3.836Zm6.008,0a1.918,1.918,0,1,0-1.907,2.061,1.9,1.9,0,0,0,1.885-2.061Z" transform="translate(-93.362 -82.29)" fill="#263238"/>
      <path id="Trazado_6090" data-name="Trazado 6090" d="M229.944,183.781v2h-.485a1.83,1.83,0,0,0-1.984,2.072v3.527h-2.2v-7.463h2.072v.981A3,3,0,0,1,229.944,183.781Z" transform="translate(-92.472 -82.243)" fill="#263238"/>
      <path id="Trazado_6091" data-name="Trazado 6091" d="M238.275,181.323v10.285h-2.061v-.86a2.877,2.877,0,0,1-2.326.97,3.858,3.858,0,1,1,0-7.716,2.866,2.866,0,0,1,2.2.9V181.29Zm-2.116,6.614A1.918,1.918,0,1,0,234.252,190a1.9,1.9,0,0,0,1.907-2.116Z" transform="translate(-91.984 -82.497)" fill="#263238"/>
      <rect id="Rectángulo_3592" data-name="Rectángulo 3592" width="26.125" height="36.145" rx="5.48" transform="translate(36.742 125.855)" fill="#ebebeb"/>
      <rect id="Rectángulo_3593" data-name="Rectángulo 3593" width="25.419" height="36.145" rx="5.48" transform="translate(99.101 125.855)" fill="#ebebeb"/>
      <rect id="Rectángulo_3594" data-name="Rectángulo 3594" width="25.419" height="36.145" rx="5.48" transform="translate(68.544 125.855)" fill="#ebebeb"/>
      <rect id="Rectángulo_3595" data-name="Rectángulo 3595" width="26.136" height="36.145" rx="5.48" transform="translate(129.514 125.855)" fill="#ebebeb"/>
      <rect id="Rectángulo_3596" data-name="Rectángulo 3596" width="26.136" height="36.145" rx="5.48" transform="translate(159.486 125.855)" fill="#ebebeb"/>
      <path id="Trazado_6092" data-name="Trazado 6092" d="M153.718,221.842l2.789,1.51-1.257,2.105-2.811-1.676v3.109h-2.4V223.76l-2.822,1.7-1.235-2.105,2.8-1.51-2.8-1.543,1.235-2.105,2.822,1.7V216.76h2.4v3.131l2.811-1.7,1.257,2.105Z" transform="translate(-100.584 -78.868)" fill="#1f004d"/>
      <path id="Trazado_6093" data-name="Trazado 6093" d="M181.373,221.69l2.8,1.51-1.257,2.105-2.822-1.654.055,3.109h-2.414V223.63l-2.822,1.7-1.224-2.105,2.789-1.51-2.789-1.543,1.224-2.105,2.822,1.7V216.63h2.414l-.055,3.131,2.822-1.7,1.257,2.105Z" transform="translate(-97.749 -78.881)" fill="#1f004d"/>
      <path id="Trazado_6094" data-name="Trazado 6094" d="M209.716,221.692l2.8,1.51-1.257,2.105-2.877-1.654.055,3.109h-2.414v-3.131l-2.822,1.7L202,223.2l2.789-1.51L202,220.148l1.224-2.105,2.822,1.7V216.61h2.414l-.055,3.131,2.822-1.7,1.257,2.105Z" transform="translate(-94.853 -78.883)" fill="#1f004d"/>
      <path id="Trazado_6095" data-name="Trazado 6095" d="M237.075,221.69l2.789,1.51-1.257,2.105-2.822-1.654.055,3.109h-2.414V223.63l-2.822,1.7-1.235-2.105,2.8-1.51-2.8-1.543,1.235-2.105,2.822,1.7V216.63h2.414l-.055,3.131,2.822-1.7,1.257,2.105Z" transform="translate(-92.052 -78.881)" fill="#1f004d"/>
      <path id="Trazado_6096" data-name="Trazado 6096" d="M157.95,242.237H144.435a6.316,6.316,0,0,1-6.305-6.305V211.945a6.316,6.316,0,0,1,6.305-6.305H157.95a6.305,6.305,0,0,1,6.305,6.305v23.987a6.316,6.316,0,0,1-6.305,6.305Zm-13.514-36.2a5.864,5.864,0,0,0-5.853,5.864v23.987a5.853,5.853,0,0,0,5.853,5.853H157.95a5.864,5.864,0,0,0,5.864-5.853V211.945a5.875,5.875,0,0,0-5.864-5.864Z" transform="translate(-101.388 -80.006)" fill="#263238"/>
      <path id="Trazado_6097" data-name="Trazado 6097" d="M186.431,242.237H172.905a6.316,6.316,0,0,1-6.305-6.305V211.945a6.316,6.316,0,0,1,6.305-6.305h13.525a6.305,6.305,0,0,1,6.294,6.305v23.987a6.305,6.305,0,0,1-6.294,6.305Zm-13.525-36.2a5.864,5.864,0,0,0-5.853,5.864v23.987a5.853,5.853,0,0,0,5.853,5.853h13.525a5.853,5.853,0,0,0,5.853-5.853V211.945a5.864,5.864,0,0,0-5.853-5.864Z" transform="translate(-98.475 -80.006)" fill="#263238"/>
      <path id="Trazado_6098" data-name="Trazado 6098" d="M214.122,242.237H200.585a6.316,6.316,0,0,1-6.305-6.305V211.945a6.316,6.316,0,0,1,6.305-6.305h13.525a6.305,6.305,0,0,1,6.294,6.305v23.987a6.305,6.305,0,0,1-6.283,6.305Zm-13.536-36.2a5.864,5.864,0,0,0-5.853,5.864v23.987a5.853,5.853,0,0,0,5.853,5.853h13.525a5.853,5.853,0,0,0,5.853-5.853V211.945a5.864,5.864,0,0,0-5.853-5.864Z" transform="translate(-95.642 -80.006)" fill="#263238"/>
      <path id="Trazado_6099" data-name="Trazado 6099" d="M242.122,242.237H228.585a6.316,6.316,0,0,1-6.305-6.305V211.945a6.305,6.305,0,0,1,6.305-6.305H242.1a6.316,6.316,0,0,1,6.305,6.305v23.987A6.316,6.316,0,0,1,242.122,242.237Zm-13.536-36.2a5.875,5.875,0,0,0-5.864,5.864v23.987a5.864,5.864,0,0,0,5.864,5.853H242.1a5.853,5.853,0,0,0,5.853-5.853V211.945a5.864,5.864,0,0,0-5.853-5.864Z" transform="translate(-92.777 -80.006)" fill="#263238"/>
      <path id="Trazado_6100" data-name="Trazado 6100" d="M269.31,242.237H255.8a6.316,6.316,0,0,1-6.305-6.305V211.945a6.305,6.305,0,0,1,6.305-6.305H269.31a6.316,6.316,0,0,1,6.305,6.305v23.987A6.316,6.316,0,0,1,269.31,242.237Zm-13.514-36.2a5.875,5.875,0,0,0-5.864,5.864v23.987a5.864,5.864,0,0,0,5.864,5.853H269.31a5.853,5.853,0,0,0,5.853-5.853V211.945a5.864,5.864,0,0,0-5.853-5.864Z" transform="translate(-89.993 -80.006)" fill="#263238"/>
      <path id="Trazado_6101" data-name="Trazado 6101" d="M269.254,230.16a44.97,44.97,0,0,1-7.242.287,44.981,44.981,0,0,1-7.242-.286,46.555,46.555,0,0,1,7.242-.287A46.566,46.566,0,0,1,269.254,230.16Z" transform="translate(-89.453 -77.53)" fill="#1f004d"/>
      <circle id="Elipse_299" data-name="Elipse 299" cx="29.2" cy="29.2" r="29.2" transform="translate(83.172 29.975)" fill="#1f004d"/>
      <path id="Trazado_6102" data-name="Trazado 6102" d="M202.126,141.335h-.485v-2.723a5.7,5.7,0,1,1,11.387,0v2.2h-.485v-2.2a5.214,5.214,0,1,0-10.417,0Z" transform="translate(-94.89 -87.473)" fill="#fff"/>
      <path id="Trazado_6103" data-name="Trazado 6103" d="M214.876,159.59H200.4a2.392,2.392,0,0,1-2.4-2.4V142.713a2.4,2.4,0,0,1,2.4-2.4h14.473a2.414,2.414,0,0,1,2.4,2.4v14.473A2.4,2.4,0,0,1,214.876,159.59ZM200.4,140.8a1.918,1.918,0,0,0-1.918,1.918v14.473A1.918,1.918,0,0,0,200.4,159.1h14.473a1.918,1.918,0,0,0,1.918-1.918V142.713a1.918,1.918,0,0,0-1.918-1.918Z" transform="translate(-95.262 -86.69)" fill="#fff"/>
      <path id="Trazado_6104" data-name="Trazado 6104" d="M207.023,149.914a2.282,2.282,0,1,1,2.271-2.271A2.282,2.282,0,0,1,207.023,149.914Zm0-4.057a1.775,1.775,0,1,0,1.266.52A1.786,1.786,0,0,0,207.023,145.857Z" transform="translate(-94.573 -86.174)" fill="#fff"/>
      <rect id="Rectángulo_3597" data-name="Rectángulo 3597" width="0.485" height="4.101" transform="translate(112.13 63.386)" fill="#fff"/>
      <circle id="Elipse_300" data-name="Elipse 300" cx="9.017" cy="9.017" r="9.017" transform="translate(191.69 23.683) rotate(-77.59)" fill="#e0e0e0"/>
      <path id="Trazado_6105" data-name="Trazado 6105" d="M285.836,110.424a.275.275,0,0,1-.2-.088.265.265,0,0,1,0-.386l5.842-5.842a.265.265,0,0,1,.386,0,.275.275,0,0,1,0,.4l-5.842,5.831A.275.275,0,0,1,285.836,110.424Z" transform="translate(-86.303 -90.403)" fill="#fff"/>
      <path id="Trazado_6106" data-name="Trazado 6106" d="M291.668,110.424a.276.276,0,0,1-.187-.088l-5.842-5.831a.276.276,0,0,1,0-.4.265.265,0,0,1,.386,0l5.842,5.842a.265.265,0,0,1,0,.386A.276.276,0,0,1,291.668,110.424Z" transform="translate(-86.303 -90.403)" fill="#fff"/>
    </g>
    <g id="freepik--Plant--inject-49" transform="translate(36.404 324.969)">
      <path id="Trazado_6107" data-name="Trazado 6107" d="M82.434,424.54S53.311,391.018,42.321,357.5s-5.776-29.674-5.776-29.674,14.837,32.562,26.1,48.292,31.328,38.8,31.328,38.8Z" transform="translate(-35.309 -294.944)" fill="#455a64"/>
      <path id="Trazado_6108" data-name="Trazado 6108" d="M83.615,332.62a1.7,1.7,0,0,0-3.153,1.1c1.775,11.784,5.611,39.408,5.512,57.321-.187,23.281,0,32.276,0,32.276H98.1s-2.2-48.127-4.894-62.832C91.243,350.224,87.164,338.8,83.615,332.62Z" transform="translate(-30.691 -294.527)" fill="#455a64"/>
      <path id="Trazado_6109" data-name="Trazado 6109" d="M89.32,419.78A128.366,128.366,0,0,0,99.3,383.591c.992-8.565-.783-20.15-3.428-35.6a95.053,95.053,0,0,1-1.532-17.13,2.888,2.888,0,0,1,5.423-1.356c1.466,2.612,5.7,11.53,6.779,17.119,2.932,15.256,6.25,22.884,3.715,37.369s-11.938,36.773-11.938,36.773Z" transform="translate(-29.782 -294.913)" fill="#455a64"/>
      <path id="Trazado_6110" data-name="Trazado 6110" d="M99.22,422.483s31.967-68.719,34.172-78.915,9.755-33.687,10.637-32.353,2.2,13.735-3.538,27.922-30.369,85.441-30.369,85.441H99.22" transform="translate(-28.769 -296.635)" fill="#455a64"/>
      <path id="Trazado_6111" data-name="Trazado 6111" d="M91.3,417.634a5.7,5.7,0,0,1-.893-.617c-.573-.43-1.433-1.036-2.48-1.885-2.127-1.676-5.115-4.222-8.6-7.584a144.405,144.405,0,0,1-23.149-29.763,195.318,195.318,0,0,1-15.84-34.3c-1.609-4.564-2.778-8.3-3.538-10.891-.4-1.3-.661-2.315-.849-3a6.437,6.437,0,0,1-.254-1.1,6.3,6.3,0,0,1,.386,1.014c.243.739.562,1.731.97,2.965.838,2.568,2.083,6.272,3.737,10.814A208.4,208.4,0,0,0,56.765,377.4a151.021,151.021,0,0,0,22.95,29.763c3.428,3.406,6.349,6,8.422,7.716,1.025.882,1.863,1.521,2.392,1.984A6.724,6.724,0,0,1,91.3,417.634Z" transform="translate(-35.269 -294.862)" fill="#263238"/>
      <path id="Trazado_6112" data-name="Trazado 6112" d="M90.081,384.185a9.674,9.674,0,0,1-.287-2.017c-.154-1.422-.353-3.307-.6-5.511-.507-4.652-1.3-11.023-2.425-18.111S84.382,345.163,83.4,340.6c-.474-2.2-.86-4.023-1.168-5.423a11.2,11.2,0,0,1-.353-2.006,11.813,11.813,0,0,1,.617,1.94c.353,1.268.827,3.1,1.378,5.379,1.1,4.553,2.436,10.891,3.572,17.957s1.852,13.492,2.2,18.166c.187,2.326.32,4.222.375,5.511A12.411,12.411,0,0,1,90.081,384.185Z" transform="translate(-30.544 -294.383)" fill="#263238"/>
      <path id="Trazado_6113" data-name="Trazado 6113" d="M96.41,328.87a4.279,4.279,0,0,1,.375.871l.959,2.557c.43,1.1.915,2.469,1.378,4.09s1.1,3.428,1.554,5.512l.794,3.23c.265,1.1.452,2.315.694,3.539.529,2.436.849,5.082,1.235,7.859a128.2,128.2,0,0,1,.772,18.21A128.077,128.077,0,0,1,102.1,392.86c-.584,2.734-1.1,5.357-1.786,7.716-.342,1.2-.617,2.381-.959,3.483l-1.025,3.219c-.606,2.028-1.356,3.8-1.94,5.379a35.159,35.159,0,0,1-1.665,3.979l-1.1,2.48a4.347,4.347,0,0,1-.441.838,5.015,5.015,0,0,1,.309-.893c.265-.639.606-1.477,1.025-2.524s1-2.425,1.543-4.023,1.268-3.307,1.852-5.391c.309-1,.628-2.061.97-3.164s.6-2.271.915-3.472c.661-2.392,1.1-4.993,1.72-7.716a134.155,134.155,0,0,0,2.006-18.023,134.04,134.04,0,0,0-.706-18.111c-.375-2.767-.672-5.4-1.168-7.838-.232-1.212-.408-2.4-.661-3.527s-.507-2.2-.75-3.23c-.43-2.061-1.014-3.88-1.444-5.512s-.882-3-1.268-4.123l-.827-2.59a5.011,5.011,0,0,1-.287-.948Z" transform="translate(-29.387 -294.823)" fill="#263238"/>
      <path id="Trazado_6114" data-name="Trazado 6114" d="M143.2,312.46a1.311,1.311,0,0,1,0,.309,7.667,7.667,0,0,1-.143.893c-.143.783-.32,1.94-.628,3.417a124.2,124.2,0,0,1-3.307,12.368c-1.653,5.159-3.77,11.222-6.36,17.869s-5.578,13.9-8.422,21.617-5.1,15.223-7.187,22.046-4.035,12.952-5.93,18.012a114.308,114.308,0,0,1-5.016,11.762c-.65,1.356-1.246,2.37-1.62,3.075l-.452.783c-.1.176-.154.265-.165.254a.926.926,0,0,1,.11-.287l.386-.816c.342-.717.893-1.753,1.51-3.131,1.279-2.723,3.02-6.724,4.828-11.806s3.748-11.189,5.776-18.023,4.266-14.33,7.154-22.046,5.864-14.981,8.477-21.616,4.839-12.644,6.493-17.78,2.745-9.348,3.439-12.28c.353-1.466.573-2.612.761-3.4.077-.353.154-.639.209-.871A1,1,0,0,1,143.2,312.46Z" transform="translate(-28.283 -296.502)" fill="#263238"/>
      <path id="Trazado_6115" data-name="Trazado 6115" d="M50.543,298.762a2.745,2.745,0,0,0-4.531,2.8,78.424,78.424,0,0,0,4.012,10.34c4.409,9.337,17.306,42.858,23.358,61.267S87.9,425.926,87.9,425.926l12.908-2.094S89,367.448,77.505,347.066C68.235,330.729,58.953,307.118,50.543,298.762Z" transform="translate(-34.227 -297.983)" fill="#455a64"/>
      <path id="Trazado_6116" data-name="Trazado 6116" d="M74,376.64a7.225,7.225,0,0,1,.672,1.543c.375,1.014.9,2.491,1.488,4.332,1.191,3.682,2.646,8.818,4.1,14.539s2.69,10.924,3.538,14.694c.386,1.775.705,3.307.97,4.464a8.518,8.518,0,0,1,.265,1.664,8.266,8.266,0,0,1-.529-1.6c-.309-1.179-.705-2.657-1.179-4.409-.992-3.88-2.282-8.984-3.726-14.628s-2.833-10.869-3.9-14.573c-.507-1.753-.937-3.219-1.279-4.409A8.413,8.413,0,0,1,74,376.64Z" transform="translate(-31.35 -289.935)" fill="#263238"/>
      <path id="Trazado_6117" data-name="Trazado 6117" d="M94.288,424.827a1.368,1.368,0,0,1-.066-.342,7.64,7.64,0,0,0-.154-1.014c-.132-.893-.254-2.2-.529-3.913-.474-3.4-1.312-8.278-2.7-14.242A205.522,205.522,0,0,0,84.8,384.7c-2.657-7.65-5.975-15.917-9.733-24.471C67.469,343.156,59.885,328,54.891,316.8c-2.513-5.6-4.409-10.152-5.754-13.338-.65-1.587-1.1-2.833-1.444-3.671-.154-.386-.265-.705-.364-.959a1.245,1.245,0,0,1-.1-.342,1.491,1.491,0,0,1,.165.309l.419.937c.386.882.9,2.094,1.576,3.627,1.356,3.142,3.373,7.716,5.942,13.228,5.093,11.122,12.754,26.257,20.36,43.365,3.759,8.565,7.077,16.854,9.7,24.538a195.1,195.1,0,0,1,5.919,20.724,143.525,143.525,0,0,1,2.491,14.33c.231,1.7.309,3.031.408,3.924l.077,1.025a1.435,1.435,0,0,1,0,.331Z" transform="translate(-34.089 -297.931)" fill="#263238"/>
      <path id="Trazado_6118" data-name="Trazado 6118" d="M97.062,417.184a14.168,14.168,0,0,1-.441-2.2c-.254-1.51-.6-3.516-1-5.93-.882-5-2.2-11.894-4.2-19.39s-4.112-14.143-5.787-18.938c-.816-2.315-1.5-4.222-2.017-5.666a13.676,13.676,0,0,1-.683-2.105,13.232,13.232,0,0,1,.937,2.006c.551,1.312,1.334,3.219,2.2,5.6a187.415,187.415,0,0,1,6,18.971A196.653,196.653,0,0,1,96.092,409c.364,2.513.639,4.553.783,5.975A14.7,14.7,0,0,1,97.062,417.184Z" transform="translate(-30.436 -291.336)" fill="#263238"/>
      <rect id="Rectángulo_3598" data-name="Rectángulo 3598" width="50.387" height="61.388" transform="translate(42.738 123.996)" fill="#1f004d"/>
      <g id="Grupo_1383" data-name="Grupo 1383" transform="translate(42.738 123.996)" opacity="0.3">
        <rect id="Rectángulo_3599" data-name="Rectángulo 3599" width="50.387" height="61.388"/>
      </g>
      <rect id="Rectángulo_3600" data-name="Rectángulo 3600" width="44.699" height="61.388" transform="translate(32.343 123.996)" fill="#1f004d"/>
    </g>
    <g id="freepik--Character--inject-49" transform="translate(155.259 166.117)">
      <path id="Trazado_6119" data-name="Trazado 6119" d="M395.667,286.926l-26.489-3.836-52.988,7.838-14.87,5.258,2.635,32.518,50.949,9.381,34.37-10.185,13-19.125Z" transform="translate(-126.946 -140.655)" fill="#ffbe9d"/>
      <path id="Trazado_6120" data-name="Trazado 6120" d="M414.566,289.875l-22.179-5.225s-15.664,48.5-54.344,46.375c-31.526-1.708-31.89-36.895-31.89-36.895l-22.719,7.275s-8.7,58.28.926,99.573c2.2,9.645,5.258,22.642,5.258,22.642l-3.076,60.33,168.037.264L414.567,289.875Z" transform="translate(-129.144 -140.495)" fill="#1f004d"/>
      <g id="Grupo_1384" data-name="Grupo 1384" transform="translate(219.548 317.605)" opacity="0.3">
        <path id="Trazado_6121" data-name="Trazado 6121" d="M342.3,456.143c8.179-.209,15.719.485,23.9.287,9.811-.243,19.7-.485,29.388,1.1,7.253,1.2,14.33,3.406,21.583,4.553,9.921,1.565,20.492,1.014,29.311-3.759l-1.422-8.234L411.57,442Z" transform="translate(-342.3 -442)"/>
      </g>
      <path id="Trazado_6122" data-name="Trazado 6122" d="M269.654,313.475c7.716-9.921,20.459-14.055,20.459-14.055l8.6,74.836L282.43,483.232l-53.33-.254S258.51,327.86,269.654,313.475Z" transform="translate(-134.335 -138.984)" fill="#1f004d"/>
      <path id="Trazado_6123" data-name="Trazado 6123" d="M400.582,288.89s35.892,2.877,48.767,61.73c5.82,26.6,13.228,57.762,15.311,78.717,1.532,15.19-6.724,38.978-21.87,40.929l-19.048,2.557a31.468,31.468,0,0,1-11.222-.408c-12.026-2.767-13.228-11.023-15.433-19.842l-5.512-17.549c-3.042-16.689,12.511-19.842,21.1-19.61l-6.4-76.181Z" transform="translate(-117.75 -140.061)" fill="#1f004d"/>
      <path id="Trazado_6124" data-name="Trazado 6124" d="M280.569,337.17a3.9,3.9,0,0,0-.165.816c-.088.6-.209,1.389-.364,2.37-.066.518-.154,1.1-.242,1.72s-.132,1.312-.209,2.05c-.154,1.466-.331,3.142-.408,5a126.508,126.508,0,0,0-.088,13.085,159.738,159.738,0,0,0,1.587,15.929c.827,5.633,1.863,10.946,2.921,15.752s2.083,9.116,2.987,12.732,1.665,6.515,2.2,8.521c.265.959.474,1.731.639,2.3a3.889,3.889,0,0,0,.265.794,4.093,4.093,0,0,0-.154-.816c-.132-.6-.309-1.367-.529-2.337-.5-2.083-1.19-4.994-2.05-8.565s-1.852-7.937-2.855-12.743-2.05-10.108-2.866-15.719-1.389-11.023-1.631-15.884a113.628,113.628,0,0,1,0-13.029c.055-1.863.2-3.527.32-5q.077-1.1.165-2.05c.066-.617.132-1.191.187-1.72.11-.981.2-1.775.254-2.381A4.227,4.227,0,0,0,280.569,337.17Z" transform="translate(-129.233 -135.121)" fill="#263238"/>
      <path id="Trazado_6125" data-name="Trazado 6125" d="M438.858,424.308a6.452,6.452,0,0,0-.253-1.51,24.056,24.056,0,0,0-1.389-3.869A26.378,26.378,0,0,0,416.151,403.6a23.156,23.156,0,0,0-4.112-.132,6.726,6.726,0,0,0-1.5.187,49.212,49.212,0,0,1,5.512.342,27.217,27.217,0,0,1,20.757,15.1A53.417,53.417,0,0,1,438.858,424.308Z" transform="translate(-115.77 -128.342)" fill="#263238"/>
      <path id="Trazado_6126" data-name="Trazado 6126" d="M430.553,395.8a2.767,2.767,0,0,0-.871-.077,18.3,18.3,0,0,0-2.37.11,27.2,27.2,0,0,0-7.573,1.9,27.838,27.838,0,0,0-6.724,3.979,19.128,19.128,0,0,0-1.753,1.587c-.386.408-.584.639-.562.672s.97-.772,2.568-1.94a31.647,31.647,0,0,1,14.1-5.8C429.318,395.941,430.553,395.9,430.553,395.8Z" transform="translate(-115.754 -129.131)" fill="#263238"/>
      <path id="Trazado_6127" data-name="Trazado 6127" d="M395.015,330.237a8.139,8.139,0,0,0,.088-1.576c0-1.014.066-2.469.188-4.266a68.494,68.494,0,0,1,7.562-26.919c.827-1.6,1.543-2.877,2.061-3.737a8.127,8.127,0,0,0,.739-1.389,8.316,8.316,0,0,0-.937,1.268,42.8,42.8,0,0,0-2.2,3.671,62.081,62.081,0,0,0-7.606,27.1c-.066,1.808-.066,3.307,0,4.288A7.6,7.6,0,0,0,395.015,330.237Z" transform="translate(-117.375 -139.707)" fill="#263238"/>
      <path id="Trazado_6128" data-name="Trazado 6128" d="M332.64,375.15a2.389,2.389,0,0,0,.154.617c.132.4.3,1,.6,1.731a35.915,35.915,0,0,0,2.987,6.052,38.9,38.9,0,0,0,38.107,18.3A37.151,37.151,0,0,0,381.1,400.4c.761-.232,1.334-.485,1.72-.628a3.3,3.3,0,0,0,.584-.254c0-.055-.849.231-2.37.661a39.953,39.953,0,0,1-44.324-16.843,41.773,41.773,0,0,1-3.13-5.919A14.882,14.882,0,0,0,332.64,375.15Z" transform="translate(-123.741 -131.235)" fill="#263238"/>
      <path id="Trazado_6129" data-name="Trazado 6129" d="M401.26,451.534c.055-.055.617.75,1.962,1.852a18.02,18.02,0,0,0,6.614,3.131,34.752,34.752,0,0,0,10.8.959c4.1-.3,8.631-.783,13.327-1.477a68.353,68.353,0,0,0,13.007-3,16.534,16.534,0,0,0,4.773-3.186,24.789,24.789,0,0,0,3.307-3.8,35.945,35.945,0,0,0,3.671-6.36c.342-.8.606-1.422.772-1.852a2.516,2.516,0,0,1,.287-.639,4.536,4.536,0,0,1-.176.672c-.132.452-.364,1.1-.683,1.907a32.22,32.22,0,0,1-3.538,6.515,24.623,24.623,0,0,1-3.307,3.9,16.665,16.665,0,0,1-4.894,3.307,64.828,64.828,0,0,1-13.118,3.076c-4.729.705-9.249,1.168-13.382,1.444a34.726,34.726,0,0,1-10.946-1.1,17.639,17.639,0,0,1-6.614-3.307,10.562,10.562,0,0,1-1.4-1.466A2.9,2.9,0,0,1,401.26,451.534Z" transform="translate(-116.72 -124.89)" fill="#263238"/>
      <path id="Trazado_6130" data-name="Trazado 6130" d="M395.89,343.72c.143,0,3.935,14.65,8.444,32.816s8.047,32.915,7.893,32.959-3.935-14.661-8.444-32.827S395.736,343.753,395.89,343.72Z" transform="translate(-117.27 -134.451)" fill="#263238"/>
      <path id="Trazado_6131" data-name="Trazado 6131" d="M391.767,420.591a4.493,4.493,0,0,1-.187-1.213,21.614,21.614,0,0,1-.077-3.307,9.8,9.8,0,0,1,1.62-4.707,14,14,0,0,1,1.841-2.315,12.971,12.971,0,0,1,2.546-1.9,32.279,32.279,0,0,1,10.45-3.373,29.382,29.382,0,0,1,3.307-.287,4.171,4.171,0,0,1,1.224,0c0,.088-1.731.154-4.475.65a34.808,34.808,0,0,0-10.23,3.461,12.785,12.785,0,0,0-2.447,1.808,13.838,13.838,0,0,0-1.786,2.2,9.49,9.49,0,0,0-1.654,4.409,28.159,28.159,0,0,0-.1,3.307A5.44,5.44,0,0,1,391.767,420.591Z" transform="translate(-117.721 -128.34)" fill="#263238"/>
      <g id="Grupo_1385" data-name="Grupo 1385" transform="translate(145.861 199.657)" opacity="0.3">
        <path id="Trazado_6132" data-name="Trazado 6132" d="M282.582,386.809c-9.16-15.51-9.359-35.66-1.367-51.809a145.242,145.242,0,0,0,1.631,51.743" transform="translate(-275.453 -335)"/>
      </g>
      <path id="Trazado_6133" data-name="Trazado 6133" d="M325.89,417.08h.066Z" transform="translate(-124.432 -126.945)" fill="#ffbe9d"/>
      <path id="Trazado_6134" data-name="Trazado 6134" d="M326.25,417.25l.143.066Z" transform="translate(-124.395 -126.927)" fill="#ffbe9d"/>
      <path id="Trazado_6135" data-name="Trazado 6135" d="M326,417.11l.331.154Z" transform="translate(-124.42 -126.942)" fill="#ffbe9d"/>
      <path id="Trazado_6136" data-name="Trazado 6136" d="M325.76,417l.143.066Z" transform="translate(-124.445 -126.953)" fill="#ffbe9d"/>
      <path id="Trazado_6137" data-name="Trazado 6137" d="M295.307,448.254c2.888-5.446,25.408-19.842,25.408-19.842L314.62,427l-6.735,2.844a16.535,16.535,0,0,1-2.9,6.305c-2.469,3.527-6.669-.121-6.669-.121l2.844-13.636,13.316-8.014S327,416.3,329.027,417.268l5.335,4.883c2.348,1.841,9.116,9.083,10.968,9.3s60.021-12.842,60.021-12.842h0c7.97,6.316,12.126,18.85,13.426,27.9,0,0,1.422,4.409-.121,6.856l-71.353,5.6-15.124,4.178a107.085,107.085,0,0,1-12.423,4.266c-5.027,1.1-8.411-.562-8.554-3.307s3.77-3.086,3.77-3.086a76.071,76.071,0,0,0,9.722-4.277,17.052,17.052,0,0,0,5.512-6.019l-5.39.639s-11.464,7.959-15.774,10.3-5.159-1.951-5.512-3.307,12.875-14.231,12.875-14.231-12.577,7.716-14.837,9.7-5.611,2.546-6.327,1.235S292.43,453.7,295.307,448.254Z" transform="translate(-127.712 -127.221)" fill="#ffbe9d"/>
      <path id="Trazado_6138" data-name="Trazado 6138" d="M326.38,417.31l.121.066Z" transform="translate(-124.381 -126.921)" fill="#ffbe9d"/>
      <path id="Trazado_6139" data-name="Trazado 6139" d="M326.56,417.4Z" transform="translate(-124.363 -126.912)" fill="#ffbe9d"/>
      <path id="Trazado_6140" data-name="Trazado 6140" d="M326.49,417.37h.077Z" transform="translate(-124.37 -126.915)" fill="#ffbe9d"/>
      <path id="Trazado_6141" data-name="Trazado 6141" d="M352.544,447.924a3.1,3.1,0,0,0,.066-.882,5.172,5.172,0,0,0-.066-1.036,7.81,7.81,0,0,0-.254-1.356,19.359,19.359,0,0,0-3.649-7.044,40.793,40.793,0,0,0-5.512-5.71,15.841,15.841,0,0,0-2.59-2.006,27.842,27.842,0,0,0,2.337,2.282,52.5,52.5,0,0,1,5.335,5.765,20.736,20.736,0,0,1,3.7,6.812C352.489,446.667,352.434,447.935,352.544,447.924Z" transform="translate(-122.933 -125.634)" fill="#eb996e"/>
      <path id="Trazado_6142" data-name="Trazado 6142" d="M318.69,426.963a8.267,8.267,0,0,0,7.11-2.392c-.088-.121-1.466.9-3.439,1.543S318.69,426.809,318.69,426.963Z" transform="translate(-125.168 -126.179)" fill="#eb996e"/>
      <path id="Trazado_6143" data-name="Trazado 6143" d="M315.29,440.71a70.889,70.889,0,0,0,11.266-4.63,34.422,34.422,0,0,0-5.732,2.072,35.944,35.944,0,0,0-5.534,2.557Z" transform="translate(-125.516 -125.001)" fill="#eb996e"/>
      <path id="Trazado_6144" data-name="Trazado 6144" d="M326.25,447.411a13.225,13.225,0,0,0,2.932-1.047,12.968,12.968,0,0,0,2.866-1.224A11.6,11.6,0,0,0,326.25,447.411Z" transform="translate(-124.395 -124.074)" fill="#eb996e"/>
      <path id="Trazado_6145" data-name="Trazado 6145" d="M317,441.182a12.475,12.475,0,0,1,2.2,1.94,12.22,12.22,0,0,1,1.279,2.668c.066,0,.132-.364,0-.937a4.775,4.775,0,0,0-.9-2.05,4.719,4.719,0,0,0-1.731-1.411C317.353,441.149,317,441.127,317,441.182Z" transform="translate(-125.341 -124.481)" fill="#eb996e"/>
      <path id="Trazado_6146" data-name="Trazado 6146" d="M312.18,433.633c-.077.132.915.672,1.565,1.808a14.337,14.337,0,0,1,.8,2.26,2.679,2.679,0,0,0-.364-2.557C313.448,433.864,312.2,433.489,312.18,433.633Z" transform="translate(-125.835 -125.254)" fill="#eb996e"/>
      <path id="Trazado_6147" data-name="Trazado 6147" d="M313.914,420.584c.066,0,.265-.221.43-.717a3.914,3.914,0,0,0,0-1.984,3.839,3.839,0,0,0-.948-1.742c-.364-.364-.661-.5-.706-.441a10.4,10.4,0,0,1,1.1,2.315A9.507,9.507,0,0,1,313.914,420.584Z" transform="translate(-125.782 -127.087)" fill="#eb996e"/>
      <path id="Trazado_6148" data-name="Trazado 6148" d="M408.961,455.091a10.248,10.248,0,0,1-.088-1.642,17.864,17.864,0,0,0-.077-1.918c-.077-.75-.066-1.6-.176-2.524a56.568,56.568,0,0,0-3.12-14.33,51.381,51.381,0,0,0-3.373-7.319c-.661-1.1-1.235-2.083-1.9-2.976-.309-.452-.617-.882-.915-1.3a9.7,9.7,0,0,0-.915-1.1c-2.37-2.921-4.189-4.409-4.1-4.5a7.527,7.527,0,0,1,1.279,1.025,16.361,16.361,0,0,1,1.411,1.334c.518.54,1.1,1.1,1.731,1.874.3.375.617.75.948,1.1a14.8,14.8,0,0,1,.959,1.3c.683.893,1.279,1.929,1.951,2.987a47.87,47.87,0,0,1,3.461,7.385,52.5,52.5,0,0,1,2.987,14.463c.077.937.066,1.8.088,2.546s0,1.4,0,1.929A8.236,8.236,0,0,1,408.961,455.091Z" transform="translate(-117.432 -126.904)" fill="#263238"/>
      <g id="Grupo_1386" data-name="Grupo 1386" transform="translate(294.869 274.491)" opacity="0.3">
        <path id="Trazado_6149" data-name="Trazado 6149" d="M431.772,405.6a35.848,35.848,0,0,0-21.142-1.929h0a29.244,29.244,0,0,1,28.539,18.453c.507,1.367,1.521,2.987,2.976,2.778s1.852-1.9,1.852-3.252C444.008,414.52,438.353,408.347,431.772,405.6Z" transform="translate(-410.63 -402.888)"/>
      </g>
      <path id="Trazado_6150" data-name="Trazado 6150" d="M281.887,333.98a3.462,3.462,0,0,1-.948-.32c-.606-.232-1.455-.617-2.491-1.1a52.2,52.2,0,0,1-7.716-4.729,52.906,52.906,0,0,1-6.768-5.952c-.794-.838-1.422-1.543-1.819-2.039s-.617-.794-.584-.827,1.036.992,2.69,2.579a70.034,70.034,0,0,0,6.823,5.787,68.855,68.855,0,0,0,7.529,4.817C280.674,333.329,281.953,333.9,281.887,333.98Z" transform="translate(-131.014 -136.979)" fill="#fff"/>
      <path id="Trazado_6151" data-name="Trazado 6151" d="M407.249,336.36a1.235,1.235,0,0,1-.276.188l-.849.507c-.739.452-1.863,1.1-3.307,1.83a92.6,92.6,0,0,1-12.842,5.412,123.611,123.611,0,0,1-20.1,4.828,195,195,0,0,1-25.221,2.094c-8.984.209-17.538,0-25.353-.132a168.9,168.9,0,0,1-20.613-1.554,79.984,79.984,0,0,1-13.581-3.153c-1.554-.529-2.756-.97-3.549-1.312l-.9-.386a1.62,1.62,0,0,1-.309-.143l.331.088.926.331c.8.309,2.017.717,3.583,1.213a87.232,87.232,0,0,0,13.559,2.965,177.485,177.485,0,0,0,20.569,1.422c7.716.143,16.314.3,25.276.088a198.092,198.092,0,0,0,25.155-2.05,125.735,125.735,0,0,0,20.051-4.685,99.8,99.8,0,0,0,12.875-5.225c1.466-.728,2.6-1.312,3.307-1.731l.871-.452A2.094,2.094,0,0,1,407.249,336.36Z" transform="translate(-129.091 -135.204)" fill="#fff"/>
      <path id="Trazado_6152" data-name="Trazado 6152" d="M283.534,372.943a6.086,6.086,0,0,1-1.367-.287l-3.671-1c-3.087-.871-7.341-2.117-12.037-3.516s-8.929-2.712-11.993-3.682l-3.616-1.168a7.6,7.6,0,0,1-1.3-.507,6.073,6.073,0,0,1,1.367.287l3.671,1c3.086.871,7.341,2.116,12.037,3.516s8.929,2.7,11.993,3.671l3.616,1.18A6.615,6.615,0,0,1,283.534,372.943Z" transform="translate(-132.243 -132.501)" fill="#fff"/>
      <path id="Trazado_6153" data-name="Trazado 6153" d="M287.838,428.631c0,.143-11.023-3.009-24.582-7.055s-24.46-7.452-24.416-7.606,11.023,3,24.582,7.055S287.882,428.477,287.838,428.631Z" transform="translate(-133.338 -127.264)" fill="#fff"/>
      <path id="Trazado_6154" data-name="Trazado 6154" d="M431.075,307.69a7.628,7.628,0,0,1-1.213.959c-.794.584-1.984,1.4-3.472,2.37a118.3,118.3,0,0,1-24.879,12.225c-1.675.584-3.042,1.025-4,1.3a7.428,7.428,0,0,1-1.5.375,8.524,8.524,0,0,1,1.433-.584l3.935-1.466c3.307-1.268,7.837-3.142,12.688-5.512s9.105-4.817,12.125-6.669l3.572-2.2A7.806,7.806,0,0,1,431.075,307.69Z" transform="translate(-117.257 -138.138)" fill="#fff"/>
      <path id="Trazado_6155" data-name="Trazado 6155" d="M452.286,364.51a13.631,13.631,0,0,1-1.786.849c-1.158.518-2.877,1.2-5.016,1.984a116.482,116.482,0,0,1-34.8,6.923c-2.282.1-4.123.121-5.4.077a14.774,14.774,0,0,1-1.973-.088,11.865,11.865,0,0,1,1.973-.132c1.268,0,3.109-.11,5.379-.265a135.184,135.184,0,0,0,17.582-2.282,137.179,137.179,0,0,0,17.119-4.608c2.15-.739,3.88-1.367,5.071-1.819A11.458,11.458,0,0,1,452.286,364.51Z" transform="translate(-116.51 -132.324)" fill="#fff"/>
      <path id="Trazado_6156" data-name="Trazado 6156" d="M420.278,460.658a2.375,2.375,0,0,1,.055-.617c.066-.452.165-1.025.276-1.731s.276-1.676.386-2.756.3-2.293.342-3.66c0-.672.088-1.389.132-2.128s0-1.521,0-2.315c0-1.6-.066-3.307-.154-5.1a74.827,74.827,0,0,0-1.775-11.552,75.7,75.7,0,0,0-3.671-11.1c-.75-1.631-1.422-3.208-2.2-4.608-.375-.705-.716-1.4-1.1-2.05l-1.1-1.83c-.672-1.19-1.4-2.2-1.984-3.1a27.57,27.57,0,0,0-1.6-2.271l-1.036-1.422a2.3,2.3,0,0,1-.331-.518,3.3,3.3,0,0,1,.419.441l1.1,1.367a26.467,26.467,0,0,1,1.687,2.2c.617.893,1.367,1.885,2.061,3.064l1.1,1.83c.386.639.739,1.345,1.1,2.05a47.44,47.44,0,0,1,2.2,4.619A66.558,66.558,0,0,1,421.7,442.3c.066,1.808.165,3.528.1,5.137,0,.8,0,1.587-.066,2.337s-.11,1.455-.165,2.138c-.077,1.378-.3,2.59-.441,3.671s-.309,2.006-.474,2.745-.287,1.268-.386,1.731a2.757,2.757,0,0,1,.011.6Z" transform="translate(-116.183 -128.293)" fill="#fff"/>
      <path id="Trazado_6157" data-name="Trazado 6157" d="M462.308,427.12c-.055,0-.088-.9-.342-2.491a21.42,21.42,0,0,0-2.2-6.416,27.03,27.03,0,0,0-6.228-7.848,32.342,32.342,0,0,0-10.593-6.2,41.281,41.281,0,0,0-12.136-2.116,76.913,76.913,0,0,0-10.119.386c-2.877.265-5.2.562-6.812.739l-1.852.2a2.418,2.418,0,0,1-.651,0,2.491,2.491,0,0,1,.628-.143l1.841-.309c1.6-.254,3.924-.6,6.8-.926a74.031,74.031,0,0,1,10.186-.507,41.372,41.372,0,0,1,12.3,2.128,32.608,32.608,0,0,1,10.759,6.349,26.8,26.8,0,0,1,6.239,8.058,20.272,20.272,0,0,1,2.017,6.614,13.75,13.75,0,0,1,.132,1.874A2.7,2.7,0,0,1,462.308,427.12Z" transform="translate(-115.685 -128.541)" fill="#fff"/>
      <path id="Trazado_6158" data-name="Trazado 6158" d="M355.738,395.79a2.6,2.6,0,0,1-.628.11l-1.8.188-6.614.551c-5.589.43-13.316.959-21.848,1.4s-16.281.716-21.892.783h-8.411a2.306,2.306,0,0,1-.628-.066,2.742,2.742,0,0,1,.628-.055h1.8l6.614-.165c5.589-.165,13.327-.5,21.859-.948l21.848-1.235,6.614-.375,1.808-.077A2.517,2.517,0,0,1,355.738,395.79Z" transform="translate(-127.703 -129.123)" fill="#fff"/>
      <g id="Grupo_1387" data-name="Grupo 1387" transform="translate(215.667 256.261)" opacity="0.3">
        <path id="Trazado_6159" data-name="Trazado 6159" d="M357.552,399.049c6.945,2.039,16.535,2.535,23.336,0-5.291,7.529-15.51,10.252-24.383,7.8s-17.042-11.321-17.725-20.5C343.079,392.137,350.608,396.987,357.552,399.049Z" transform="translate(-338.78 -386.35)"/>
      </g>
      <path id="Trazado_6160" data-name="Trazado 6160" d="M412.082,391.28a3.457,3.457,0,0,1-.562.154l-1.6.342c-1.4.287-3.417.661-5.93,1.1-5.016.882-11.971,1.962-19.676,2.91s-14.727,1.565-19.842,1.918c-2.535.176-4.6.3-6.019.353l-1.631.055a1.775,1.775,0,0,1-.573,0,2.95,2.95,0,0,1,.562-.088l1.631-.165,6-.54c5.071-.452,12.059-1.1,19.776-2.083s14.65-1.962,19.676-2.734l5.953-.926,1.631-.232a1.744,1.744,0,0,1,.606-.066Z" transform="translate(-121.325 -129.585)" fill="#fff"/>
      <g id="Grupo_1388" data-name="Grupo 1388" transform="translate(278.874 212.62)" opacity="0.3">
        <path id="Trazado_6161" data-name="Trazado 6161" d="M396.451,346.76c-1.742,19.952,3.693,39.75,9.083,59.04a8.2,8.2,0,0,0,1.477,3.307,2.866,2.866,0,0,0,3.307.915c1.687-.86,1.455-3.307.981-5.115l-14.98-57.321" transform="translate(-396.119 -346.76)"/>
      </g>
      <path id="Trazado_6162" data-name="Trazado 6162" d="M143.228,365.268l22.653,111.224H362.534a3.924,3.924,0,0,0,3.924-3.924h0a3.924,3.924,0,0,0-3.924-3.924h-39.6l-21-103.442a4.3,4.3,0,0,0-4.167-3.439l-150.29-1.643a4.288,4.288,0,0,0-4.255,5.148Z" transform="translate(-143.13 -132.773)" fill="#e0e0e0"/>
      <path id="Trazado_6163" data-name="Trazado 6163" d="M143.229,365.274a2.644,2.644,0,0,1-.066-.331,4.065,4.065,0,0,1,0-1.014,4.409,4.409,0,0,1,2.083-3.252,4.269,4.269,0,0,1,1.3-.507,6.459,6.459,0,0,1,1.543-.1h3.538l8.819.077,56.825.54,39.617.4,22.2.232,11.64.121,5.942.055h1.521a4.32,4.32,0,0,1,1.521.441,4.5,4.5,0,0,1,2.2,2.26,6.99,6.99,0,0,1,.408,1.51l.309,1.5c.2.992.408,2,.606,3,.419,2.017.827,4.046,1.246,6.074L307,388.654q2.546,12.511,5.2,25.607c3.549,17.439,7.242,35.572,11.023,54.267l-.265-.22H361.9a7.318,7.318,0,0,1,1.532.088,4.255,4.255,0,0,1,2.557,1.83,4.211,4.211,0,0,1-1.455,6.085,4.145,4.145,0,0,1-1.852.5H165.716v-.165c-6.934-34.172-12.566-61.995-16.469-81.263-1.929-9.634-3.439-17.13-4.464-22.223-.507-2.546-.893-4.486-1.1-5.8s-.364-1.984-.364-1.984.154.672.43,1.973l1.213,5.776c1.047,5.093,2.59,12.588,4.575,22.2l16.645,81.241-.209-.176H362.756a3.77,3.77,0,0,0,1.609-.43,3.671,3.671,0,0,0,1.257-5.3,3.594,3.594,0,0,0-2.2-1.488,7.413,7.413,0,0,0-1.422-.088H322.72v-.209q-5.688-28.109-11.023-54.278-2.657-13.074-5.192-25.607l-2.579-12.544c-.408-2.039-.816-4.057-1.224-6.074-.209-1-.408-2.006-.617-3.009l-.3-1.488a6.263,6.263,0,0,0-.386-1.422,4.023,4.023,0,0,0-1.885-2.028,4.1,4.1,0,0,0-1.356-.4h-1.477l-5.953-.066-11.64-.132-22.19-.265-39.617-.463-56.825-.694-8.819-.121-3.538-.055a6.828,6.828,0,0,0-1.521.077,4.475,4.475,0,0,0-1.268.5,4.288,4.288,0,0,0-2.083,3.175A5.125,5.125,0,0,0,143.229,365.274Z" transform="translate(-143.131 -132.779)" fill="#263238"/>
      <path id="Trazado_6164" data-name="Trazado 6164" d="M226.625,411.6a6.493,6.493,0,1,1-6.493-6.493,6.493,6.493,0,0,1,6.493,6.493Z" transform="translate(-135.917 -128.17)" fill="#fff"/>
      <path id="Trazado_6165" data-name="Trazado 6165" d="M143.38,365.61H153.7l28.12.132,92.76.65,13.415.11H291.3a8.048,8.048,0,0,1,1.687.1,4.542,4.542,0,0,1,1.587.639,4.619,4.619,0,0,1,2,2.712c.254,1.1.43,2.116.65,3.175,1.664,8.378,3.307,16.458,4.8,24.152,3.042,15.432,5.787,29.267,8.08,40.918l5.412,27.558c.617,3.252,1.1,5.776,1.444,7.507.154.849.276,1.5.364,1.962a5.807,5.807,0,0,1,.1.661s-.066-.22-.154-.65-.243-1.1-.419-1.951c-.353-1.731-.871-4.244-1.543-7.485-1.323-6.526-3.219-15.94-5.578-27.558l-8.2-40.9q-2.3-11.574-4.817-24.152c-.22-1.036-.419-2.116-.639-3.131a4.133,4.133,0,0,0-1.775-2.392,4.058,4.058,0,0,0-1.411-.529,7.36,7.36,0,0,0-1.576-.088h-3.307l-13.415-.1-92.771-.816L153.7,365.83l-7.65-.11h-1.984Z" transform="translate(-143.106 -132.211)" fill="#263238"/>
      <path id="Trazado_6166" data-name="Trazado 6166" d="M384.752,212.37a72.863,72.863,0,0,1-23.237,54.973Q356.3,252.3,351.12,237.249" transform="translate(-121.85 -147.891)" fill="#263238"/>
      <path id="Trazado_6167" data-name="Trazado 6167" d="M312.144,158.5c8.918-4.872,19.688-5.578,29.652-3.583s19.246,6.5,28.043,11.6c4.938,2.855,9.855,6,13.4,10.45,6.471,8.146,12.875,21.528,13.492,31.967.507,8.4-2.712,29.421-6.261,37.049-3.252,7-18.5,12.335-26.026,14.066L295.4,179.686A34.988,34.988,0,0,1,312.144,158.5Z" transform="translate(-127.551 -153.876)" fill="#263238"/>
      <path id="Trazado_6168" data-name="Trazado 6168" d="M301.617,168.164l16.535-2.954c-9.05,21.55-11.508,70.824-16.678,93.62-6.107-8.818-20.272-35.825-19.511-46.551S282.007,166.345,301.617,168.164Z" transform="translate(-128.929 -152.716)" fill="#263238"/>
      <path id="Trazado_6169" data-name="Trazado 6169" d="M379.272,203.758c-.893-12.588-9.05-22.906-21.275-26.026l-38.129-9.722c-16.469-1.775-27.47,18.486-28.55,35.021-1.2,18.376-1.94,37.754.209,51.467,4.31,27.558,25.431,31.13,25.431,31.13v21.165L329.711,359.6l41.106-56.792,8.51-98.7C379.36,203.626,379.272,204.387,379.272,203.758Z" transform="translate(-128.088 -152.441)" fill="#ffbe9d"/>
      <path id="Trazado_6170" data-name="Trazado 6170" d="M298.72,218.957a3.539,3.539,0,0,0,3.406,3.572,3.384,3.384,0,0,0,3.649-3.186,3.538,3.538,0,0,0-3.4-3.572,3.384,3.384,0,0,0-3.66,3.186Z" transform="translate(-127.211 -147.544)" fill="#263238"/>
      <path id="Trazado_6171" data-name="Trazado 6171" d="M295.007,209.9c.441.463,3.12-1.51,6.923-1.5s6.614,1.929,7,1.466c.209-.209-.243-1.036-1.455-1.929a9.723,9.723,0,0,0-5.6-1.742,9.391,9.391,0,0,0-5.512,1.764C295.15,208.868,294.753,209.694,295.007,209.9Z" transform="translate(-127.599 -148.522)" fill="#263238"/>
      <path id="Trazado_6172" data-name="Trazado 6172" d="M328.8,218.958a3.539,3.539,0,0,0,3.406,3.572,3.373,3.373,0,0,0,3.649-3.2,3.538,3.538,0,0,0-3.4-3.572,3.384,3.384,0,0,0-3.66,3.2Z" transform="translate(-124.134 -147.545)" fill="#263238"/>
      <path id="Trazado_6173" data-name="Trazado 6173" d="M327.735,209.9c.441.463,3.131-1.51,6.934-1.5s6.614,1.929,7,1.466c.2-.209-.242-1.036-1.455-1.929a9.789,9.789,0,0,0-5.567-1.742,9.447,9.447,0,0,0-5.512,1.764C327.922,208.868,327.525,209.694,327.735,209.9Z" transform="translate(-124.248 -148.522)" fill="#263238"/>
      <path id="Trazado_6174" data-name="Trazado 6174" d="M317.895,239.6c0-.209-2.348-.628-6.184-1.1-.97-.1-1.885-.3-2.05-.959a4.905,4.905,0,0,1,.661-2.877q1.378-3.516,2.888-7.4c4.012-10.516,6.911-19.169,6.493-19.324s-4.023,8.234-8.036,18.739q-1.455,3.88-2.767,7.43a5.644,5.644,0,0,0-.518,3.814,2.426,2.426,0,0,0,1.6,1.422,5.928,5.928,0,0,0,1.642.232C315.426,239.8,317.818,239.819,317.895,239.6Z" transform="translate(-126.236 -148.344)" fill="#263238"/>
      <path id="Trazado_6175" data-name="Trazado 6175" d="M351.033,265.79s-8.973,18.971-36.553,16.292V275.6A69.445,69.445,0,0,0,351.033,265.79Z" transform="translate(-125.599 -142.425)" fill="#eb996e"/>
      <path id="Trazado_6176" data-name="Trazado 6176" d="M328.822,197.349c.375,1.036,4.167.551,8.631,1.1s8.069,1.775,8.664.849c.265-.452-.364-1.422-1.819-2.425a14.329,14.329,0,0,0-6.416-2.2,14.581,14.581,0,0,0-6.757.772C329.483,196.048,328.657,196.853,328.822,197.349Z" transform="translate(-124.134 -149.713)" fill="#263238"/>
      <path id="Trazado_6177" data-name="Trazado 6177" d="M296.1,199.364c.661.871,3.307,0,6.438-.055s5.82.6,6.438-.309c.265-.441-.154-1.3-1.312-2.127a9.348,9.348,0,0,0-10.373.3C296.165,198.052,295.8,198.945,296.1,199.364Z" transform="translate(-127.49 -149.622)" fill="#263238"/>
      <path id="Trazado_6178" data-name="Trazado 6178" d="M298.048,178.833c1.687-4.145,6.239-6.614,10.7-6.856s8.819,1.466,12.721,3.7c16.413,9.491,24.857,32.408,41.072,42.23,3.99,2.414,9.182.2,12.578,3.4s5.589,8.312,3.715,12.577a38.669,38.669,0,0,0,5.633-9.513c1.235-3.494,1.389-7.54-.463-10.748-1.4-2.436-3.88-4.288-4.553-7.011-.606-2.4.342-4.905.243-7.375a16.171,16.171,0,0,0-2.524-7.033c-6.36-11.233-15.1-21.4-26.356-27.723a46.705,46.705,0,0,0-24.2-6.25,35.693,35.693,0,0,0-23.06,9.138c-3.627,3.384-7.441,6.878-5.512,11.464" transform="translate(-127.333 -153.431)" fill="#263238"/>
      <path id="Trazado_6179" data-name="Trazado 6179" d="M367.56,218.688c.287-.794,14.672-5.974,14.859,9.3.187,14.848-14.793,11.927-14.826,11.5S367.56,218.688,367.56,218.688Z" transform="translate(-120.168 -147.396)" fill="#ffbe9d"/>
      <path id="Trazado_6180" data-name="Trazado 6180" d="M371.7,233.375c.066,0,.254.176.694.375a2.624,2.624,0,0,0,1.94,0c1.554-.584,2.855-3.1,2.9-5.765a8.521,8.521,0,0,0-.75-3.7,3.01,3.01,0,0,0-1.973-1.962,1.3,1.3,0,0,0-1.51.716c-.2.419-.1.717-.187.739s-.32-.243-.2-.86a1.654,1.654,0,0,1,.573-.926,1.918,1.918,0,0,1,1.422-.4,3.615,3.615,0,0,1,2.723,2.282,8.641,8.641,0,0,1,.937,4.123c-.066,3-1.565,5.809-3.715,6.449a2.756,2.756,0,0,1-2.359-.364C371.723,233.739,371.646,233.408,371.7,233.375Z" transform="translate(-119.746 -146.949)" fill="#eb996e"/>
      <path id="Trazado_6181" data-name="Trazado 6181" d="M380.336,216.271a5.892,5.892,0,0,1-.893-.5c-.573-.364-1.455-.849-2.491-1.587a50.8,50.8,0,0,1-8.025-7.3,143.846,143.846,0,0,1-9.8-12.732A116.209,116.209,0,0,0,346.881,178.9a46.487,46.487,0,0,0-7.915-6.25,38.946,38.946,0,0,0-8.532-3.88,42.307,42.307,0,0,0-15.73-1.929,40.709,40.709,0,0,0-10.538,2.061c-1.224.375-2.127.783-2.756,1.025a5.649,5.649,0,0,1-.97.342,7.142,7.142,0,0,1,.915-.463,23.89,23.89,0,0,1,2.723-1.1,37.987,37.987,0,0,1,10.593-2.293,42.1,42.1,0,0,1,15.951,1.764,38.887,38.887,0,0,1,8.7,3.9,47.4,47.4,0,0,1,8.036,6.338,113.752,113.752,0,0,1,12.28,15.432,153.518,153.518,0,0,0,9.656,12.776,55.456,55.456,0,0,0,7.815,7.408c1.014.761,1.863,1.279,2.4,1.676A6.048,6.048,0,0,1,380.336,216.271Z" transform="translate(-127.036 -152.607)" fill="#455a64"/>
      <path id="Trazado_6182" data-name="Trazado 6182" d="M373.452,234.665a2.921,2.921,0,1,1-.694.22" transform="translate(-119.81 -145.614)" fill="#fff"/>
      <path id="Trazado_6183" data-name="Trazado 6183" d="M372.777,234.893a4.024,4.024,0,0,0-1.334,2,2.513,2.513,0,0,0,.573,2.326,2.6,2.6,0,0,0,4.575-1.444,2.524,2.524,0,0,0-.882-2.2,3.958,3.958,0,0,0-2.2-.86,1.338,1.338,0,0,1,.694-.165,3.031,3.031,0,0,1,1.852.65,2.976,2.976,0,0,1,1.19,2.679,3.186,3.186,0,0,1-5.655,1.8,2.976,2.976,0,0,1-.573-2.866,2.932,2.932,0,0,1,1.1-1.6C372.5,234.9,372.766,234.86,372.777,234.893Z" transform="translate(-119.83 -145.622)" fill="#263238"/>
      <path id="Trazado_6184" data-name="Trazado 6184" d="M371.326,217.4c.232,4.057.419,8.334-1.455,11.938s-6.614,6.063-10.119,4.046c-2.877-1.642-3.737-5.335-4.233-8.609-1.4-9.458-2.05-19.015-3.538-28.462Z" transform="translate(-121.762 -149.534)" fill="#263238"/>
      <path id="Trazado_6185" data-name="Trazado 6185" d="M301.32,170.585c0,.077,1.312-.254,3.682-.331a25.666,25.666,0,0,1,9.833,1.8,32.419,32.419,0,0,1,6.151,3.175,65.334,65.334,0,0,1,6.349,4.85,75.8,75.8,0,0,1,12.434,13.4c1.885,2.646,3.56,5.368,5.368,7.893a38.488,38.488,0,0,0,5.953,6.691,66.568,66.568,0,0,0,12.544,8.389c3.8,2.006,6.978,3.417,9.171,4.409l2.535,1.1a4.487,4.487,0,0,0,.915.331,4.26,4.26,0,0,0-.838-.474l-2.48-1.224c-2.2-1.1-5.28-2.557-9.017-4.619A68.648,68.648,0,0,1,351.6,207.49a37.6,37.6,0,0,1-5.8-6.614c-1.775-2.491-3.439-5.214-5.346-7.893a74.6,74.6,0,0,0-12.611-13.5,65.14,65.14,0,0,0-6.482-4.85,32.351,32.351,0,0,0-6.316-3.142,24.658,24.658,0,0,0-10.053-1.565,17.05,17.05,0,0,0-2.745.386,3.526,3.526,0,0,0-.926.276Z" transform="translate(-126.946 -152.237)" fill="#455a64"/>
      <path id="Trazado_6186" data-name="Trazado 6186" d="M369.9,208.889a6.732,6.732,0,0,0,1.312.882l3.77,2.2,1.257.716a3.857,3.857,0,0,0,1.631.54,1.565,1.565,0,0,0,1-.231,1.3,1.3,0,0,0,.551-.981,3.307,3.307,0,0,0-.695-1.874l-4.409-6.989-.6.54a15.565,15.565,0,0,0,10.086,3.009,4.276,4.276,0,0,0,1.356-.232,1.819,1.819,0,0,0,1.1-1,1.609,1.609,0,0,0-.254-1.5,5.8,5.8,0,0,0-.838-.926,30.943,30.943,0,0,1-5.06-6.382,53.417,53.417,0,0,1-3.219-6.834,7.782,7.782,0,0,0,.474,2,26.953,26.953,0,0,0,2.2,5.137,29.457,29.457,0,0,0,5.026,6.614c.551.529,1.1,1.1.893,1.6s-1.025.706-1.808.706a14.936,14.936,0,0,1-5.027-.606,15.123,15.123,0,0,1-4.53-2.2l-1.764-1.3,1.18,1.841,4.409,6.934a2.822,2.822,0,0,1,.628,1.455c0,.419-.375.661-.849.628a7.363,7.363,0,0,1-2.668-1.1l-3.88-1.984a6.861,6.861,0,0,0-1.29-.65Z" transform="translate(-119.928 -150.197)" fill="#455a64"/>
      <path id="Trazado_6187" data-name="Trazado 6187" d="M330.974,243.351a4.96,4.96,0,0,0-5.126-3.77,5.147,5.147,0,0,0-3.99,2.833,6.382,6.382,0,0,0-.232,4.971l.088.353a5.655,5.655,0,0,0,6.36,1.356A5.28,5.28,0,0,0,330.974,243.351Z" transform="translate(-124.908 -145.107)" fill="#eb996e"/>
      <path id="Trazado_6188" data-name="Trazado 6188" d="M319.16,248.085c0-.573,3.847-.4,6.746-3.549s2.668-7.275,3.208-7.275c.242,0,.705.948.661,2.69a9.568,9.568,0,0,1-2.458,6.074,8.367,8.367,0,0,1-5.644,2.734C320.086,248.823,319.127,248.349,319.16,248.085Z" transform="translate(-125.12 -145.344)" fill="#263238"/>
      <path id="Trazado_6189" data-name="Trazado 6189" d="M446.127,459a.991.991,0,0,1-.254,0l-.772.077-2.943.243c-2.557.209-6.261.452-10.847.727-9.16.54-21.826,1.1-35.825,1.334s-26.7.1-35.87-.143c-4.586-.11-8.3-.243-10.858-.353l-2.954-.154h2.954l10.869.187c9.171.132,21.848.2,35.847,0s26.654-.727,35.814-1.168l10.858-.54,2.954-.132h.761Z" transform="translate(-122.499 -122.656)" fill="#fff"/>
    </g>
  </g>
</svg>
