<svg xmlns="http://www.w3.org/2000/svg" width="244.37" height="47.481" viewBox="0 0 244.37 47.481">
  <g id="Grupo_2691" data-name="Grupo 2691" transform="translate(1142.226 10101.091)">
    <path id="Trazado_6832" data-name="Trazado 6832" d="M9,.272A11.434,11.434,0,0,1,4.488-.5,6.469,6.469,0,0,1,1.768-2.53,4.723,4.723,0,0,1,.789-5.2.546.546,0,0,1,.966-5.59a.576.576,0,0,1,.422-.177H4.814A1.052,1.052,0,0,1,5.4-5.63a1.5,1.5,0,0,1,.367.354,3.2,3.2,0,0,0,.612.789,2.856,2.856,0,0,0,1.047.612A4.748,4.748,0,0,0,9-3.645a4.64,4.64,0,0,0,2.38-.49,1.5,1.5,0,0,0,.8-1.333,1.272,1.272,0,0,0-.435-1.006,4.078,4.078,0,0,0-1.4-.694,24.541,24.541,0,0,0-2.57-.639A15.786,15.786,0,0,1,4.257-8.935,5.388,5.388,0,0,1,2.04-10.758a4.923,4.923,0,0,1-.762-2.815,4.954,4.954,0,0,1,.938-2.965,6.178,6.178,0,0,1,2.625-2.04,9.963,9.963,0,0,1,4-.734,10.183,10.183,0,0,1,3.3.49,7.534,7.534,0,0,1,2.407,1.306,6.157,6.157,0,0,1,1.482,1.727,3.933,3.933,0,0,1,.53,1.782.6.6,0,0,1-.15.394.522.522,0,0,1-.422.177H12.4a1.143,1.143,0,0,1-.517-.109,1,1,0,0,1-.381-.354,1.864,1.864,0,0,0-.857-1.047A3.28,3.28,0,0,0,8.84-15.4a3.479,3.479,0,0,0-1.863.422,1.423,1.423,0,0,0-.666,1.292,1.378,1.378,0,0,0,.367.952,2.94,2.94,0,0,0,1.224.707,21.144,21.144,0,0,0,2.353.626,17.68,17.68,0,0,1,4,1.156,5.119,5.119,0,0,1,2.244,1.8,4.943,4.943,0,0,1,.721,2.761A4.954,4.954,0,0,1,16.157-2.5a6.762,6.762,0,0,1-2.9,2.054A11.6,11.6,0,0,1,9,.272Zm17.326,0a9.023,9.023,0,0,1-3.849-.734A5.389,5.389,0,0,1,20.087-2.57a7.018,7.018,0,0,1-.938-3.278q-.027-.544-.027-1.238t.027-1.21a6.7,6.7,0,0,1,.979-3.291,5.679,5.679,0,0,1,2.434-2.094,8.807,8.807,0,0,1,3.767-.734,8.879,8.879,0,0,1,3.794.734,5.679,5.679,0,0,1,2.434,2.094A6.7,6.7,0,0,1,33.538-8.3q.027.517.027,1.21t-.027,1.238A7.018,7.018,0,0,1,32.6-2.57,5.389,5.389,0,0,1,30.206-.462,9.1,9.1,0,0,1,26.33.272Zm0-3.318a2.093,2.093,0,0,0,1.782-.734,4,4,0,0,0,.639-2.2q.027-.408.027-1.088T28.75-8.16a4.024,4.024,0,0,0-.639-2.19A2.076,2.076,0,0,0,26.33-11.1a2.09,2.09,0,0,0-1.754.748,3.74,3.74,0,0,0-.639,2.19q-.027.408-.027,1.088t.027,1.088a3.723,3.723,0,0,0,.639,2.2A2.107,2.107,0,0,0,26.33-3.046ZM41.453.272a5.37,5.37,0,0,1-2.761-.707A4.8,4.8,0,0,1,36.8-2.516a7.519,7.519,0,0,1-.68-3.359v-7.589a.663.663,0,0,1,.19-.49.663.663,0,0,1,.49-.19h3.4a.71.71,0,0,1,.5.19.64.64,0,0,1,.2.49v7.426q0,2.666,2.366,2.666a2.356,2.356,0,0,0,1.782-.694,2.733,2.733,0,0,0,.666-1.972v-7.426a.663.663,0,0,1,.19-.49.663.663,0,0,1,.49-.19h3.4a.663.663,0,0,1,.49.19.663.663,0,0,1,.19.49V-.68a.676.676,0,0,1-.19.476.64.64,0,0,1-.49.2H46.648a.652.652,0,0,1-.476-.2.652.652,0,0,1-.2-.476V-1.714A4.462,4.462,0,0,1,44.132-.231,6.541,6.541,0,0,1,41.453.272ZM60.928,0a7.411,7.411,0,0,1-3.006-.558A4.086,4.086,0,0,1,55.978-2.3a6.094,6.094,0,0,1-.68-3.06v-5.222H53.176a.71.71,0,0,1-.5-.19.64.64,0,0,1-.2-.49v-2.2a.64.64,0,0,1,.2-.49.71.71,0,0,1,.5-.19H55.3v-4.488a.64.64,0,0,1,.2-.49.676.676,0,0,1,.476-.19h3.155a.663.663,0,0,1,.49.19.663.663,0,0,1,.19.49v4.488h3.4a.71.71,0,0,1,.5.19.64.64,0,0,1,.2.49v2.2a.64.64,0,0,1-.2.49.71.71,0,0,1-.5.19h-3.4v4.842a2.667,2.667,0,0,0,.354,1.469,1.318,1.318,0,0,0,1.2.544h2.094a.663.663,0,0,1,.49.19.663.663,0,0,1,.19.49V-.68a.676.676,0,0,1-.19.476.64.64,0,0,1-.49.2Zm6.147,0a.64.64,0,0,1-.49-.2A.676.676,0,0,1,66.4-.68V-18.632a.663.663,0,0,1,.19-.49.663.663,0,0,1,.49-.19h3.482a.663.663,0,0,1,.49.19.663.663,0,0,1,.19.49v6.066a5.4,5.4,0,0,1,1.809-1.346,5.809,5.809,0,0,1,2.489-.5,5.572,5.572,0,0,1,2.815.707,4.934,4.934,0,0,1,1.945,2.067A7.255,7.255,0,0,1,81-8.269V-.68a.676.676,0,0,1-.19.476.64.64,0,0,1-.49.2H76.813a.652.652,0,0,1-.476-.2.652.652,0,0,1-.2-.476V-8.106a2.886,2.886,0,0,0-.612-1.972,2.25,2.25,0,0,0-1.782-.694,2.436,2.436,0,0,0-1.822.694,2.7,2.7,0,0,0-.68,1.972V-.68a.676.676,0,0,1-.19.476.64.64,0,0,1-.49.2ZM90.6.272A7.286,7.286,0,0,1,85.49-1.469,6.892,6.892,0,0,1,83.5-6.637v-.952a7.89,7.89,0,0,1,.966-3.686,5.853,5.853,0,0,1,2.448-2.339,7.912,7.912,0,0,1,3.658-.8,7.5,7.5,0,0,1,3.958.952,6.052,6.052,0,0,1,2.353,2.584,8.459,8.459,0,0,1,.789,3.726V-6.5a.663.663,0,0,1-.19.49.663.663,0,0,1-.49.19h-8.7v.19a4.293,4.293,0,0,0,.286,1.442,2.342,2.342,0,0,0,.762,1.034,1.992,1.992,0,0,0,1.238.381,2.093,2.093,0,0,0,.911-.177,2.4,2.4,0,0,0,.612-.408,4.782,4.782,0,0,0,.381-.394,1.344,1.344,0,0,1,.394-.367,1.227,1.227,0,0,1,.476-.068h3.373a.636.636,0,0,1,.449.163.492.492,0,0,1,.15.435,2.392,2.392,0,0,1-.462,1.115,5.617,5.617,0,0,1-1.265,1.292A6.877,6.877,0,0,1,93.514-.136,9.4,9.4,0,0,1,90.6.272ZM88.291-8.514h4.6v-.054A4.1,4.1,0,0,0,92.63-10.1a2.106,2.106,0,0,0-.789-.993,2.227,2.227,0,0,0-1.265-.354,2.114,2.114,0,0,0-1.224.354,2.221,2.221,0,0,0-.789.993,3.915,3.915,0,0,0-.272,1.537ZM100.912,0a.64.64,0,0,1-.49-.2.676.676,0,0,1-.19-.476V-13.464a.676.676,0,0,1,.19-.476.64.64,0,0,1,.49-.2h3.128a.684.684,0,0,1,.5.2.652.652,0,0,1,.2.476v1.088a4.822,4.822,0,0,1,1.727-1.306,5.506,5.506,0,0,1,2.3-.462h1.2a.663.663,0,0,1,.49.19.663.663,0,0,1,.19.49v2.8a.676.676,0,0,1-.19.476.64.64,0,0,1-.49.2h-2.638a2.336,2.336,0,0,0-1.727.612,2.336,2.336,0,0,0-.612,1.727V-.68a.652.652,0,0,1-.2.476.684.684,0,0,1-.5.2Zm12.349,0a.64.64,0,0,1-.49-.2.676.676,0,0,1-.19-.476V-13.464a.663.663,0,0,1,.19-.49.663.663,0,0,1,.49-.19h3.128a.71.71,0,0,1,.5.19.64.64,0,0,1,.2.49v1.034a5.392,5.392,0,0,1,1.822-1.414,5.954,5.954,0,0,1,2.693-.571,5.424,5.424,0,0,1,2.788.707,4.9,4.9,0,0,1,1.9,2.067A7.375,7.375,0,0,1,127-8.269V-.68a.676.676,0,0,1-.19.476.64.64,0,0,1-.49.2H122.89a.652.652,0,0,1-.476-.2.652.652,0,0,1-.2-.476V-8.106a2.886,2.886,0,0,0-.612-1.972,2.285,2.285,0,0,0-1.809-.694,2.356,2.356,0,0,0-1.782.694,2.733,2.733,0,0,0-.666,1.972V-.68a.652.652,0,0,1-.2.476.652.652,0,0,1-.476.2Zm24.67.272a9.445,9.445,0,0,1-4.284-.884,6.183,6.183,0,0,1-2.679-2.53A8.828,8.828,0,0,1,129.934-7.1q-.027-1.115-.027-2.394t.027-2.448a8.753,8.753,0,0,1,1.047-3.944,6.244,6.244,0,0,1,2.693-2.543,9.378,9.378,0,0,1,4.257-.884,10.465,10.465,0,0,1,3.318.49,7.68,7.68,0,0,1,2.5,1.346,6.159,6.159,0,0,1,1.6,2,5.724,5.724,0,0,1,.6,2.475.457.457,0,0,1-.15.408.6.6,0,0,1-.422.163H142.8a.769.769,0,0,1-.49-.15.863.863,0,0,1-.272-.5,3.742,3.742,0,0,0-1.5-2.448,4.95,4.95,0,0,0-2.638-.653,4.083,4.083,0,0,0-2.91,1.02,4.673,4.673,0,0,0-1.17,3.359q-.082,2.23,0,4.57a4.673,4.673,0,0,0,1.17,3.359,4.083,4.083,0,0,0,2.91,1.02,4.942,4.942,0,0,0,2.652-.666,3.664,3.664,0,0,0,1.482-2.434.822.822,0,0,1,.272-.517.823.823,0,0,1,.49-.136h2.584a.6.6,0,0,1,.422.163.457.457,0,0,1,.15.408,5.724,5.724,0,0,1-.6,2.475,6.159,6.159,0,0,1-1.6,2,7.68,7.68,0,0,1-2.5,1.346A10.465,10.465,0,0,1,137.931.272Zm17.19,0a7.945,7.945,0,0,1-3.658-.762,5.28,5.28,0,0,1-2.258-2.149,7.445,7.445,0,0,1-.884-3.237q-.027-.49-.027-1.2t.027-1.2a7.177,7.177,0,0,1,.911-3.25,5.478,5.478,0,0,1,2.285-2.135,7.813,7.813,0,0,1,3.6-.762,7.813,7.813,0,0,1,3.6.762,5.478,5.478,0,0,1,2.285,2.135,7.177,7.177,0,0,1,.911,3.25q.027.49.027,1.2t-.027,1.2a7.445,7.445,0,0,1-.884,3.237A5.28,5.28,0,0,1,158.78-.49,7.945,7.945,0,0,1,155.122.272Zm0-2.693a2.791,2.791,0,0,0,2.23-.911,4.305,4.305,0,0,0,.87-2.679q.027-.408.027-1.061t-.027-1.061a4.305,4.305,0,0,0-.87-2.679,2.791,2.791,0,0,0-2.23-.911,2.791,2.791,0,0,0-2.23.911,4.305,4.305,0,0,0-.87,2.679q-.027.408-.027,1.061t.027,1.061a4.305,4.305,0,0,0,.87,2.679A2.791,2.791,0,0,0,155.122-2.421Zm15.1,2.693A6.094,6.094,0,0,1,167.729-.2a4.718,4.718,0,0,1-1.782-1.346A6.26,6.26,0,0,1,164.859-3.6a9.666,9.666,0,0,1-.435-2.6q-.027-.49-.027-.884t.027-.884a9.712,9.712,0,0,1,.422-2.53,6.106,6.106,0,0,1,1.088-2.054,4.9,4.9,0,0,1,1.8-1.374,5.947,5.947,0,0,1,2.489-.49,5.586,5.586,0,0,1,2.489.5,5.315,5.315,0,0,1,1.7,1.292v-6.038a.655.655,0,0,1,.177-.462.618.618,0,0,1,.476-.19h2.312a.63.63,0,0,1,.462.19.63.63,0,0,1,.19.462V-.653a.63.63,0,0,1-.19.462.63.63,0,0,1-.462.19h-2.149a.618.618,0,0,1-.476-.19.655.655,0,0,1-.177-.462V-1.659a5.353,5.353,0,0,1-1.727,1.387A5.659,5.659,0,0,1,170.218.272Zm1.006-2.91a2.939,2.939,0,0,0,1.822-.517,3.086,3.086,0,0,0,1.006-1.319,4.742,4.742,0,0,0,.354-1.646q.027-.49.027-1.047t-.027-1.047a3.929,3.929,0,0,0-.381-1.564,3.176,3.176,0,0,0-1.034-1.238,2.956,2.956,0,0,0-1.768-.49,2.934,2.934,0,0,0-1.809.5,2.838,2.838,0,0,0-.966,1.319,6.189,6.189,0,0,0-.354,1.8q-.027.816,0,1.632a6.189,6.189,0,0,0,.354,1.8,2.838,2.838,0,0,0,.966,1.319A2.934,2.934,0,0,0,171.224-2.638Zm16.51,2.91a6.526,6.526,0,0,1-4.787-1.741,7.081,7.081,0,0,1-1.9-4.95q-.027-.272-.027-.694a6.362,6.362,0,0,1,.027-.666,8.049,8.049,0,0,1,.938-3.55,5.746,5.746,0,0,1,2.3-2.285,7.1,7.1,0,0,1,3.454-.8,6.993,6.993,0,0,1,3.7.911,5.769,5.769,0,0,1,2.258,2.53,8.692,8.692,0,0,1,.762,3.74v.571a.63.63,0,0,1-.19.462.663.663,0,0,1-.49.19h-9.03v.218a4.809,4.809,0,0,0,.367,1.754,3.038,3.038,0,0,0,1.006,1.292,2.613,2.613,0,0,0,1.591.49,3.129,3.129,0,0,0,1.278-.231,3.13,3.13,0,0,0,.843-.53,3.479,3.479,0,0,0,.462-.49,1.3,1.3,0,0,1,.394-.394,1.134,1.134,0,0,1,.449-.068h2.339a.636.636,0,0,1,.449.163.457.457,0,0,1,.15.408,2.286,2.286,0,0,1-.449,1.061,5.3,5.3,0,0,1-1.21,1.224,6.8,6.8,0,0,1-1.972.993A8.547,8.547,0,0,1,187.734.272ZM184.742-8.3h6.011v-.082a4.584,4.584,0,0,0-.354-1.863,2.82,2.82,0,0,0-1.034-1.251,2.9,2.9,0,0,0-1.632-.449,2.9,2.9,0,0,0-1.632.449,2.736,2.736,0,0,0-1.02,1.251,4.745,4.745,0,0,0-.34,1.863Z" transform="translate(-1092.308 -10068.122)" fill="#fff"/>
    <g id="Grupo_2652" data-name="Grupo 2652">
      <g id="Grupo_2649" data-name="Grupo 2649">
        <g id="Grupo_2648" data-name="Grupo 2648">
          <path id="Trazado_6813" data-name="Trazado 6813" d="M-1124.9-10066.5a4.3,4.3,0,0,1-2.8-1.1l-13.4-13.4a3.924,3.924,0,0,1,0-5.5l13.4-13.4a4.024,4.024,0,0,1,5.5-.2,3.9,3.9,0,0,1,.1,5.7l-8.1,8.1a3.621,3.621,0,0,0,0,5.1l8.1,8.1a3.924,3.924,0,0,1,0,5.5A4.293,4.293,0,0,1-1124.9-10066.5Z" fill="#fff"/>
        </g>
      </g>
      <g id="Grupo_2651" data-name="Grupo 2651">
        <g id="Grupo_2650" data-name="Grupo 2650">
          <path id="Trazado_6814" data-name="Trazado 6814" d="M-1118.3-10088.2a4.3,4.3,0,0,1,2.8,1.1l13.4,13.4a3.924,3.924,0,0,1,0,5.5l-13.4,13.4a4.024,4.024,0,0,1-5.5.2,3.9,3.9,0,0,1-.1-5.7l8.1-8.1a3.621,3.621,0,0,0,0-5.1l-8.1-8.1a3.924,3.924,0,0,1,0-5.5A3.924,3.924,0,0,1-1118.3-10088.2Z" fill="#fff"/>
        </g>
      </g>
    </g>
  </g>
</svg>
