<svg xmlns="http://www.w3.org/2000/svg" width="458.283" height="374.121" viewBox="0 0 458.283 374.121"><g transform="translate(-49.001 -86.157)"><g transform="translate(49.001 92.24)"><path d="M492.167,192.745C481.2,166.023,464.4,141.24,442.8,122.452c-25.331-22.025-65.288-39.011-99.067-26.961-34.964,12.426-58.346,42.18-84.27,66.44-9.12,8.5-19.061,16.564-30.883,21.307-54.093,21.66-90.836-7.889-138.808,25.627S37.714,309.368,69.36,351.754s107.161,36.48,164.332,36.48,47.972,40.413,148.008,41.394c102.293,1.015,134.578-107.5,123.52-188.717A197.426,197.426,0,0,0,492.167,192.745Z" transform="translate(-49.001 -91.493)" fill="#5c3caf"/><path d="M492.167,192.745C481.2,166.023,464.4,141.24,442.8,122.452c-25.331-22.025-65.288-39.011-99.067-26.961-34.964,12.426-58.346,42.18-84.27,66.44-9.12,8.5-19.061,16.564-30.883,21.307-54.093,21.66-90.836-7.889-138.808,25.627S37.714,309.368,69.36,351.754s107.161,36.48,164.332,36.48,47.972,40.413,148.008,41.394c102.293,1.015,134.578-107.5,123.52-188.717A197.426,197.426,0,0,0,492.167,192.745Z" transform="translate(-49.001 -91.493)" fill="#fff" opacity="0.7"/></g><g transform="translate(117.081 86.157)"><path d="M256.1,125.878c-6.612-3.614-9.622-.6-12.027-3.614s6.612-10.83-11.4-18.651c0,0-1.2-16.838-25.867-17.442s-18.069,16.906-24.693,21.067-8.425-2.405-15.037,1.8-3.614,12.631-9.029,13.84-12.631-5.415-19.255-1.208-6.612,7.832-9.622,7.832-9.029-2.417-12.631,0-7.82,5.415-7.82,5.415H260.934S262.735,129.5,256.1,125.878Z" transform="translate(-108.72 -86.157)" fill="#5c3caf"/><path d="M256.1,125.878c-6.612-3.614-9.622-.6-12.027-3.614s6.612-10.83-11.4-18.651c0,0-1.2-16.838-25.867-17.442s-18.069,16.906-24.693,21.067-8.425-2.405-15.037,1.8-3.614,12.631-9.029,13.84-12.631-5.415-19.255-1.208-6.612,7.832-9.622,7.832-9.029-2.417-12.631,0-7.82,5.415-7.82,5.415H260.934S262.735,129.5,256.1,125.878Z" transform="translate(-108.72 -86.157)" fill="#fff" opacity="0.5"/><path d="M359.241,146.44c-4.252-2.28-6.19-.388-7.729-2.28s4.252-6.965-7.342-11.982c0,0-.775-10.83-16.621-11.218s-11.594,10.83-15.846,13.532-5.415-1.55-9.667,1.14-2.28,8.117-5.8,8.892-8.117-3.488-12.358-.775-4.252,5.016-6.19,5.016-5.8-1.539-8.117,0-5.027,3.488-5.027,3.488h97.79S363.493,148.755,359.241,146.44Z" transform="translate(-86.904 -81.285)" fill="#fff"/></g><g transform="translate(92.582 172.018)"><rect width="310.619" height="98.018" transform="translate(28.341 90)" fill="#fff"/><path d="M422.779,339.081H112.16a.57.57,0,0,1-.57-.57V240.47a.57.57,0,0,1,.57-.57H422.779a.57.57,0,0,1,.57.57v98.041A.57.57,0,0,1,422.779,339.081ZM112.7,337.941H422.209v-96.9H112.73Z" transform="translate(-83.819 -150.492)" fill="#263238"/><path d="M267.715,161.97,112.81,251.4h309.8Z" transform="translate(-83.649 -161.403)" fill="#5c3caf"/><path d="M422.677,252.043h-309.8a.57.57,0,0,1-.285-1.06l154.9-89.434a.57.57,0,0,1,.57,0l154.893,89.445a.559.559,0,0,1,.274.638A.57.57,0,0,1,422.677,252.043ZM115.011,250.9H420.534L267.772,162.7Z" transform="translate(-83.718 -161.473)" fill="#263238"/><rect width="76.871" height="105.987" transform="translate(169.725 82.032)" fill="#fff"/><path d="M313.051,340.061H236.18a.57.57,0,0,1-.57-.57V233.47a.57.57,0,0,1,.57-.57h76.871a.581.581,0,0,1,.57.57V339.491A.57.57,0,0,1,313.051,340.061Zm-76.3-1.14h75.685V234.04H236.75Z" transform="translate(-66.455 -151.473)" fill="#263238"/><rect width="76.871" height="4.503" transform="translate(169.725 82.032)" fill="#263238"/><path d="M313.051,238.59H236.18a.57.57,0,0,1-.57-.57v-4.56a.57.57,0,0,1,.57-.57h76.871a.581.581,0,0,1,.57.57v4.56A.581.581,0,0,1,313.051,238.59Zm-76.3-1.14h75.685v-3.42H236.75Z" transform="translate(-66.455 -151.474)" fill="#263238"/><path d="M291.373,336.894H253V270.648a19.186,19.186,0,0,1,19.186-19.2h0a19.2,19.2,0,0,1,19.2,19.2Z" transform="translate(-64.021 -148.875)" fill="#263238"/><path d="M291.443,337.592H253.071a.57.57,0,0,1-.57-.57V270.776a19.768,19.768,0,1,1,39.524,0v66.246a.57.57,0,0,1-.581.57Zm-37.814-1.14h37.244V270.776a18.628,18.628,0,1,0-37.244,0Z" transform="translate(-64.091 -149.004)" fill="#263238"/><rect width="178.047" height="80.85" transform="translate(6.042 107.169)" fill="#fff"/><path d="M270.647,336.97H92.6a.57.57,0,0,1-.57-.57V255.55a.57.57,0,0,1,.57-.57H270.647a.57.57,0,0,1,.57.57V336.4A.57.57,0,0,1,270.647,336.97ZM93.136,335.83H270.077V256.143H93.136Z" transform="translate(-86.558 -148.381)" fill="#263238"/><rect width="178.047" height="3.602" transform="translate(6.042 107.169)" fill="#263238"/><path d="M270.647,259.722H92.6a.57.57,0,0,1-.57-.57v-3.6a.57.57,0,0,1,.57-.57H270.647a.57.57,0,0,1,.57.57v3.6A.57.57,0,0,1,270.647,259.722Zm-177.511-1.14H270.077v-2.44H93.136Z" transform="translate(-86.558 -148.381)" fill="#263238"/><rect width="138.865" height="74.18" transform="translate(25.627 113.838)" fill="#5c3caf"/><path d="M248.645,336.15H109.78a.57.57,0,0,1-.57-.57V261.4a.57.57,0,0,1,.57-.57H248.645a.57.57,0,0,1,.57.57v74.18A.57.57,0,0,1,248.645,336.15ZM110.35,335.01h137.7V261.97H110.35Z" transform="translate(-84.153 -147.562)" fill="#263238"/><path d="M182.225,203.59l-94.5,54.561H276.721Z" transform="translate(-87.16 -155.576)" fill="#5c3caf"/><path d="M276.79,258.84H87.8a.57.57,0,0,1-.285-1.06l94.5-54.561a.57.57,0,0,1,.57,0l94.5,54.481a.57.57,0,0,1-.285,1.06ZM89.931,257.7H274.613l-92.341-53.33Z" transform="translate(-87.229 -155.639)" fill="#263238"/><rect width="188.979" height="4.594" transform="translate(0.57 102.575)" fill="#fff"/><path d="M276.791,256.7H87.8a.57.57,0,0,1-.57-.57v-4.56a.57.57,0,0,1,.57-.57H276.791a.57.57,0,0,1,.57.57v4.56A.57.57,0,0,1,276.791,256.7ZM88.37,255.56H276.209v-3.42H88.37Z" transform="translate(-87.23 -148.938)" fill="#263238"/><path d="M275.829,206.45,226.9,234.7h97.87Z" transform="translate(-67.675 -155.176)" fill="#5c3caf"/><path d="M324.841,235.341h-97.87a.57.57,0,0,1-.559-.422.559.559,0,0,1,.274-.638l48.929-28.272a.627.627,0,0,1,.57,0l48.941,28.272a.57.57,0,0,1-.285,1.06ZM229.08,234.2H322.7l-46.8-27.052Z" transform="translate(-67.746 -155.247)" fill="#263238"/><rect width="97.87" height="4.537" transform="translate(159.225 79.524)" fill="#fff"/><path d="M324.84,236.41H226.97a.57.57,0,0,1-.57-.57v-4.56a.57.57,0,0,1,.57-.57h97.87a.57.57,0,0,1,.57.57v4.56A.57.57,0,0,1,324.84,236.41Zm-97.3-1.14h96.73v-3.42H227.54Z" transform="translate(-67.745 -151.779)" fill="#263238"/><rect width="11.24" height="11.24" transform="translate(30.689 119.8)" fill="#fff"/><path d="M125.451,278.441H114.21a.57.57,0,0,1-.57-.57V266.63a.57.57,0,0,1,.57-.57h11.24a.57.57,0,0,1,.57.57v11.24A.57.57,0,0,1,125.451,278.441Zm-10.67-1.14h10.1V267.2h-10.1Z" transform="translate(-83.532 -146.83)" fill="#263238"/><rect width="11.24" height="11.24" transform="translate(47.561 119.8)" fill="#fff"/><path d="M140.254,278.441H129.07a.57.57,0,0,1-.57-.57V266.63a.57.57,0,0,1,.57-.57h11.24a.57.57,0,0,1,.57.57v11.24a.57.57,0,0,1-.627.57Zm-10.67-1.14h10.1V267.2h-10.1Z" transform="translate(-81.452 -146.83)" fill="#263238"/><rect width="11.24" height="11.24" transform="translate(64.422 119.8)" fill="#fff"/><path d="M155.062,278.441H143.81a.57.57,0,0,1-.57-.57V266.63a.57.57,0,0,1,.57-.57h11.252a.57.57,0,0,1,.57.57v11.24A.57.57,0,0,1,155.062,278.441ZM144.38,277.3h10.112V267.2H144.38Z" transform="translate(-79.388 -146.83)" fill="#263238"/><rect width="11.24" height="11.24" transform="translate(81.294 119.8)" fill="#fff"/><path d="M169.862,278.441H158.61a.57.57,0,0,1-.57-.57V266.63a.57.57,0,0,1,.57-.57h11.252a.57.57,0,0,1,.57.57v11.24A.57.57,0,0,1,169.862,278.441ZM159.18,277.3h10.112V267.2H159.134Z" transform="translate(-77.316 -146.83)" fill="#263238"/><rect width="11.24" height="11.24" transform="translate(98.166 119.8)" fill="#fff"/><path d="M184.651,278.441H173.41a.57.57,0,0,1-.57-.57V266.63a.57.57,0,0,1,.57-.57h11.241a.57.57,0,0,1,.57.57v11.24A.57.57,0,0,1,184.651,278.441ZM173.98,277.3h10.1V267.2h-10.1Z" transform="translate(-75.244 -146.83)" fill="#263238"/><rect width="11.24" height="11.24" transform="translate(115.027 119.8)" fill="#fff"/><path d="M199.452,278.441H188.2a.57.57,0,0,1-.57-.57V266.63a.57.57,0,0,1,.57-.57h11.252a.57.57,0,0,1,.57.57v11.24A.57.57,0,0,1,199.452,278.441ZM188.77,277.3h10.112V267.2H188.77Z" transform="translate(-73.173 -146.83)" fill="#263238"/><rect width="11.24" height="11.24" transform="translate(131.899 119.8)" fill="#fff"/><path d="M214.252,278.441H203a.57.57,0,0,1-.57-.57V266.63a.57.57,0,0,1,.57-.57h11.252a.57.57,0,0,1,.57.57v11.24A.57.57,0,0,1,214.252,278.441ZM203.57,277.3h10.112V267.2H203.57Z" transform="translate(-71.101 -146.83)" fill="#263238"/><rect width="11.24" height="11.24" transform="translate(148.771 119.8)" fill="#fff"/><path d="M229.041,278.441H217.8a.57.57,0,0,1-.57-.57V266.63a.57.57,0,0,1,.57-.57h11.24a.57.57,0,0,1,.57.57v11.24A.57.57,0,0,1,229.041,278.441Zm-10.67-1.14h10.1V267.2h-10.1Z" transform="translate(-69.029 -146.83)" fill="#263238"/><rect width="11.24" height="11.24" transform="translate(30.689 136.353)" fill="#fff"/><path d="M125.451,292.961H114.21a.57.57,0,0,1-.57-.57V281.15a.57.57,0,0,1,.57-.57h11.24a.57.57,0,0,1,.57.57v11.241A.57.57,0,0,1,125.451,292.961Zm-10.67-1.14h10.1v-10.1h-10.1Z" transform="translate(-83.532 -144.797)" fill="#263238"/><rect width="11.24" height="11.24" transform="translate(47.561 136.353)" fill="#fff"/><path d="M140.254,292.961H129.07a.57.57,0,0,1-.57-.57V281.15a.57.57,0,0,1,.57-.57h11.24a.57.57,0,0,1,.57.57v11.241a.57.57,0,0,1-.627.57Zm-10.67-1.14h10.1v-10.1h-10.1Z" transform="translate(-81.452 -144.797)" fill="#263238"/><rect width="11.24" height="11.24" transform="translate(64.422 136.353)" fill="#fff"/><path d="M155.062,292.961H143.81a.57.57,0,0,1-.57-.57V281.15a.57.57,0,0,1,.57-.57h11.252a.57.57,0,0,1,.57.57v11.241A.57.57,0,0,1,155.062,292.961Zm-10.682-1.14h10.112v-10.1H144.38Z" transform="translate(-79.388 -144.797)" fill="#263238"/><rect width="11.24" height="11.24" transform="translate(81.294 136.353)" fill="#fff"/><path d="M169.862,292.961H158.61a.57.57,0,0,1-.57-.57V281.15a.57.57,0,0,1,.57-.57h11.252a.57.57,0,0,1,.57.57v11.241A.57.57,0,0,1,169.862,292.961Zm-10.682-1.14h10.112v-10.1H159.134Z" transform="translate(-77.316 -144.797)" fill="#263238"/><rect width="11.24" height="11.24" transform="translate(98.166 136.353)" fill="#fff"/><path d="M184.651,292.961H173.41a.57.57,0,0,1-.57-.57V281.15a.57.57,0,0,1,.57-.57h11.241a.57.57,0,0,1,.57.57v11.241A.57.57,0,0,1,184.651,292.961Zm-10.671-1.14h10.1v-10.1h-10.1Z" transform="translate(-75.244 -144.797)" fill="#263238"/><rect width="11.24" height="11.24" transform="translate(115.027 136.353)" fill="#fff"/><path d="M199.452,292.961H188.2a.57.57,0,0,1-.57-.57V281.15a.57.57,0,0,1,.57-.57h11.252a.57.57,0,0,1,.57.57v11.241A.57.57,0,0,1,199.452,292.961Zm-10.682-1.14h10.112v-10.1H188.77Z" transform="translate(-73.173 -144.797)" fill="#263238"/><rect width="11.24" height="11.24" transform="translate(131.899 136.353)" fill="#fff"/><path d="M214.252,292.961H203a.57.57,0,0,1-.57-.57V281.15a.57.57,0,0,1,.57-.57h11.252a.57.57,0,0,1,.57.57v11.241A.57.57,0,0,1,214.252,292.961Zm-10.682-1.14h10.112v-10.1H203.57Z" transform="translate(-71.101 -144.797)" fill="#263238"/><rect width="11.24" height="11.24" transform="translate(148.771 136.353)" fill="#fff"/><path d="M229.041,292.961H217.8a.57.57,0,0,1-.57-.57V281.15a.57.57,0,0,1,.57-.57h11.24a.57.57,0,0,1,.57.57v11.241A.57.57,0,0,1,229.041,292.961Zm-10.67-1.14h10.1v-10.1h-10.1Z" transform="translate(-69.029 -144.797)" fill="#263238"/><rect width="11.24" height="11.24" transform="translate(30.689 152.895)" fill="#fff"/><path d="M125.451,307.522H114.21a.57.57,0,0,1-.57-.57V295.7a.57.57,0,0,1,.57-.57h11.24a.57.57,0,0,1,.57.57v11.252A.57.57,0,0,1,125.451,307.522Zm-10.67-1.14h10.1V296.27h-10.1Z" transform="translate(-83.532 -142.76)" fill="#263238"/><rect width="11.24" height="11.24" transform="translate(47.561 152.895)" fill="#fff"/><path d="M140.254,307.522H129.07a.57.57,0,0,1-.57-.57V295.7a.57.57,0,0,1,.57-.57h11.24a.57.57,0,0,1,.57.57v11.252a.57.57,0,0,1-.627.57Zm-10.67-1.14h10.1V296.27h-10.1Z" transform="translate(-81.452 -142.76)" fill="#263238"/><rect width="11.24" height="11.24" transform="translate(64.422 152.895)" fill="#fff"/><path d="M155.062,307.522H143.81a.581.581,0,0,1-.57-.57V295.7a.57.57,0,0,1,.57-.57h11.252a.57.57,0,0,1,.57.57v11.252A.57.57,0,0,1,155.062,307.522Zm-10.682-1.14h10.112V296.27H144.38Z" transform="translate(-79.388 -142.76)" fill="#263238"/><rect width="11.24" height="11.24" transform="translate(81.294 152.895)" fill="#fff"/><path d="M169.862,307.522H158.61a.57.57,0,0,1-.57-.57V295.7a.57.57,0,0,1,.57-.57h11.252a.57.57,0,0,1,.57.57v11.252A.581.581,0,0,1,169.862,307.522Zm-10.727-1.14h10.112V296.27H159.134Z" transform="translate(-77.316 -142.76)" fill="#263238"/><rect width="11.24" height="11.24" transform="translate(98.166 152.895)" fill="#fff"/><path d="M184.651,307.522H173.41a.57.57,0,0,1-.57-.57V295.7a.57.57,0,0,1,.57-.57h11.241a.57.57,0,0,1,.57.57v11.252A.57.57,0,0,1,184.651,307.522Zm-10.671-1.14h10.1V296.27h-10.1Z" transform="translate(-75.244 -142.76)" fill="#263238"/><rect width="11.24" height="11.24" transform="translate(115.027 152.895)" fill="#fff"/><path d="M199.452,307.522H188.2a.581.581,0,0,1-.57-.57V295.7a.57.57,0,0,1,.57-.57h11.252a.57.57,0,0,1,.57.57v11.252A.57.57,0,0,1,199.452,307.522Zm-10.682-1.14h10.112V296.27H188.77Z" transform="translate(-73.173 -142.76)" fill="#263238"/><rect width="11.24" height="11.24" transform="translate(131.899 152.895)" fill="#fff"/><path d="M214.252,307.522H203a.581.581,0,0,1-.57-.57V295.7a.57.57,0,0,1,.57-.57h11.252a.57.57,0,0,1,.57.57v11.252A.581.581,0,0,1,214.252,307.522Zm-10.682-1.14h10.112V296.27H203.57Z" transform="translate(-71.101 -142.76)" fill="#263238"/><rect width="11.24" height="11.24" transform="translate(148.771 152.895)" fill="#fff"/><path d="M229.041,307.522H217.8a.57.57,0,0,1-.57-.57V295.7a.57.57,0,0,1,.57-.57h11.24a.57.57,0,0,1,.57.57v11.252A.57.57,0,0,1,229.041,307.522Zm-10.67-1.14h10.1V296.27h-10.1Z" transform="translate(-69.029 -142.76)" fill="#263238"/><rect width="11.24" height="11.24" transform="translate(30.689 169.448)" fill="#fff"/><path d="M125.451,321.991H114.21a.57.57,0,0,1-.57-.57V310.18a.57.57,0,0,1,.57-.57h11.24a.57.57,0,0,1,.57.57v11.275A.57.57,0,0,1,125.451,321.991Zm-10.67-1.14h10.1v-10.1h-10.1Z" transform="translate(-83.532 -140.732)" fill="#263238"/><rect width="11.24" height="11.24" transform="translate(47.561 169.448)" fill="#fff"/><path d="M140.254,321.991H129.07a.57.57,0,0,1-.57-.57V310.18a.57.57,0,0,1,.57-.57h11.24a.57.57,0,0,1,.57.57v11.275a.57.57,0,0,1-.627.536Zm-10.67-1.14h10.1v-10.1h-10.1Z" transform="translate(-81.452 -140.732)" fill="#263238"/><rect width="11.24" height="11.24" transform="translate(64.422 169.448)" fill="#fff"/><path d="M155.062,321.991H143.81a.57.57,0,0,1-.57-.57V310.18a.57.57,0,0,1,.57-.57h11.252a.57.57,0,0,1,.57.57v11.275A.57.57,0,0,1,155.062,321.991Zm-10.682-1.14h10.112v-10.1H144.38Z" transform="translate(-79.388 -140.732)" fill="#263238"/><rect width="11.24" height="11.24" transform="translate(81.294 169.448)" fill="#fff"/><path d="M169.862,321.991H158.61a.57.57,0,0,1-.57-.57V310.18a.57.57,0,0,1,.57-.57h11.252a.57.57,0,0,1,.57.57v11.275A.57.57,0,0,1,169.862,321.991Zm-10.682-1.14h10.112v-10.1H159.134Z" transform="translate(-77.316 -140.732)" fill="#263238"/><rect width="11.24" height="11.24" transform="translate(98.166 169.448)" fill="#fff"/><path d="M184.651,321.991H173.41a.57.57,0,0,1-.57-.57V310.18a.57.57,0,0,1,.57-.57h11.241a.57.57,0,0,1,.57.57v11.275A.57.57,0,0,1,184.651,321.991Zm-10.671-1.14h10.1v-10.1h-10.1Z" transform="translate(-75.244 -140.732)" fill="#263238"/><rect width="11.24" height="11.24" transform="translate(115.027 169.448)" fill="#fff"/><path d="M199.452,321.991H188.2a.57.57,0,0,1-.57-.57V310.18a.57.57,0,0,1,.57-.57h11.252a.57.57,0,0,1,.57.57v11.275A.57.57,0,0,1,199.452,321.991Zm-10.682-1.14h10.112v-10.1H188.77Z" transform="translate(-73.173 -140.732)" fill="#263238"/><rect width="11.24" height="11.24" transform="translate(131.899 169.448)" fill="#fff"/><path d="M214.252,321.991H203a.57.57,0,0,1-.57-.57V310.18a.57.57,0,0,1,.57-.57h11.252a.57.57,0,0,1,.57.57v11.275A.57.57,0,0,1,214.252,321.991Zm-10.682-1.14h10.112v-10.1H203.57Z" transform="translate(-71.101 -140.732)" fill="#263238"/><rect width="11.24" height="11.24" transform="translate(148.771 169.448)" fill="#fff"/><path d="M229.041,321.991H217.8a.57.57,0,0,1-.57-.57V310.18a.57.57,0,0,1,.57-.57h11.24a.57.57,0,0,1,.57.57v11.275A.57.57,0,0,1,229.041,321.991Zm-10.67-1.14h10.1v-10.1h-10.1Z" transform="translate(-69.029 -140.732)" fill="#263238"/><path d="M259.85,328.485a.57.57,0,0,1-.57-.57V316.15a.57.57,0,1,1,1.14,0v11.765A.57.57,0,0,1,259.85,328.485Z" transform="translate(-63.141 -139.897)" fill="#fff"/><path d="M280.448,334.088v-62.6H259.78v45.646" transform="translate(-63.071 -146.07)" fill="#263238"/><path d="M280.518,334.721a.57.57,0,0,1-.57-.57V272.134H260.42V317.21a.57.57,0,1,1-1.14,0v-45.6a.581.581,0,0,1,.57-.57h20.668a.581.581,0,0,1,.57.57v62.541A.57.57,0,0,1,280.518,334.721Z" transform="translate(-63.141 -146.133)" fill="#fff"/><path d="M406.238,343.194H292.67V237.207l56.784-30.757,56.784,30.757Z" transform="translate(-58.466 -155.176)" fill="#fff"/><path d="M406.308,343.841H292.74a.57.57,0,0,1-.57-.57V237.25a.581.581,0,0,1,.3-.5l56.784-30.78a.581.581,0,0,1,.547,0l56.784,30.78a.581.581,0,0,1,.3.5V343.271A.57.57,0,0,1,406.308,343.841Zm-113-1.14H405.738V237.626l-56.214-30.472L293.31,237.6Z" transform="translate(-58.536 -155.253)" fill="#263238"/><path d="M416.229,242.344,350.77,206.878l-65.459,35.466-2.041-3.762,67.5-36.572,67.5,36.572Z" transform="translate(-59.782 -155.797)" fill="#fff"/><path d="M416.3,242.989a.525.525,0,0,1-.262-.068l-65.2-35.34-65.2,35.34a.627.627,0,0,1-.433,0,.581.581,0,0,1-.331-.285l-2.041-3.751a.57.57,0,0,1,.228-.775l67.5-36.572a.581.581,0,0,1,.547,0l67.5,36.572a.593.593,0,0,1,.274.342.581.581,0,0,1,0,.433l-2.041,3.751A.57.57,0,0,1,416.3,242.989ZM350.84,206.383a.6.6,0,0,1,.274.068l64.981,35.192,1.493-2.759-66.725-36.15-66.691,36.15,1.493,2.759,64.981-35.192A.6.6,0,0,1,350.84,206.383Z" transform="translate(-59.853 -155.873)" fill="#263238"/><path d="M292.67,237.207v2.576l56.784-30.757,56.784,30.757v-2.576L349.454,206.45Z" transform="translate(-58.466 -155.176)" fill="#263238"/><path d="M406.308,240.425a.6.6,0,0,1-.274-.068l-56.51-30.609-56.51,30.609a.564.564,0,0,1-.844-.49V237.29a.581.581,0,0,1,.3-.5l56.784-30.78a.581.581,0,0,1,.547,0l56.784,30.78a.581.581,0,0,1,.3.5v2.576a.57.57,0,0,1-.274.49.547.547,0,0,1-.3.068Zm-56.784-31.92a.6.6,0,0,1,.274.068l55.94,30.3V237.6l-56.214-30.45L293.31,237.6v1.277l55.94-30.3a.6.6,0,0,1,.274-.046Z" transform="translate(-58.536 -155.247)" fill="#263238"/><path d="M320.69,257.382V246.21h49V301.9" transform="translate(-54.543 -149.609)" fill="#fff"/><path d="M369.76,302.541a.57.57,0,0,1-.57-.57V246.851H321.31v10.591a.57.57,0,0,1-1.14,0V246.27a.57.57,0,0,1,.57-.57h49.02a.57.57,0,0,1,.57.57V301.96a.57.57,0,0,1-.57.581Z" transform="translate(-54.616 -149.68)" fill="#263238"/><path d="M369.688,305.762v10.967h-49V259.74" transform="translate(-54.543 -147.715)" fill="#fff"/><path d="M369.76,317.371H320.74a.57.57,0,0,1-.57-.57v-57a.57.57,0,0,1,1.14,0v56.419h47.88v-10.4a.57.57,0,0,1,1.14,0v10.967a.581.581,0,0,1-.57.581Z" transform="translate(-54.616 -147.786)" fill="#263238"/><rect width="19.061" height="13.247" transform="translate(292.823 118.364)" fill="#263238"/><path d="M363.21,279.187H344.16a.57.57,0,0,1-.57-.57V265.37a.57.57,0,0,1,.57-.57h19.05a.57.57,0,0,1,.57.57v13.247A.57.57,0,0,1,363.21,279.187Zm-18.48-1.14h17.91V265.94H344.73Z" transform="translate(-51.337 -147.006)" fill="#263238"/><rect width="19.061" height="13.247" transform="translate(292.823 135.966)" fill="#263238"/><path d="M363.21,294.616H344.16a.57.57,0,0,1-.57-.57V280.81a.57.57,0,0,1,.57-.57h19.05a.57.57,0,0,1,.57.57v13.236a.57.57,0,0,1-.57.57Zm-18.48-1.14h17.91v-12.1H344.73Z" transform="translate(-51.337 -144.844)" fill="#263238"/><rect width="19.061" height="14.136" transform="translate(292.823 99.861)" fill="#263238"/><path d="M363.21,263.88H344.16a.57.57,0,0,1-.57-.57V249.14a.57.57,0,0,1,.57-.57h19.05a.57.57,0,0,1,.57.57v14.148a.57.57,0,0,1-.57.593Zm-18.48-1.14h17.91V249.71H344.73Z" transform="translate(-51.337 -149.279)" fill="#263238"/><rect width="19.061" height="14.136" transform="translate(269.407 99.861)" fill="#263238"/><path d="M342.681,263.88H323.62a.57.57,0,0,1-.57-.57V249.14a.57.57,0,0,1,.57-.57h19.061a.581.581,0,0,1,.57.57v14.148a.581.581,0,0,1-.57.593Zm-18.491-1.14h17.921V249.71H324.19Z" transform="translate(-54.213 -149.279)" fill="#263238"/><rect width="19.061" height="13.247" transform="translate(269.407 135.966)" fill="#263238"/><path d="M342.681,294.616H323.62a.57.57,0,0,1-.57-.57V280.81a.57.57,0,0,1,.57-.57h19.061a.57.57,0,0,1,.57.57v13.236a.57.57,0,0,1-.57.57Zm-18.491-1.14h17.921v-12.1H324.19Z" transform="translate(-54.213 -144.844)" fill="#263238"/><rect width="19.061" height="13.247" transform="translate(269.407 118.364)" fill="#263238"/><path d="M342.681,279.187H323.62a.57.57,0,0,1-.57-.57V265.37a.57.57,0,0,1,.57-.57h19.061a.57.57,0,0,1,.57.57v13.247a.581.581,0,0,1-.57.57Zm-18.491-1.14h17.921V265.94H324.19Z" transform="translate(-54.213 -147.006)" fill="#263238"/><rect width="19.061" height="12.187" transform="translate(292.823 153.556)" fill="#263238"/><path d="M363.21,309H344.16a.57.57,0,0,1-.57-.57V296.24a.57.57,0,0,1,.57-.57h19.05a.57.57,0,0,1,.57.57v12.187a.57.57,0,0,1-.57.57Zm-18.48-1.14h17.91V296.81H344.73Z" transform="translate(-51.337 -142.684)" fill="#263238"/><rect width="19.061" height="12.187" transform="translate(269.407 153.556)" fill="#263238"/><path d="M342.681,309H323.62a.57.57,0,0,1-.57-.57V296.24a.57.57,0,0,1,.57-.57h19.061a.581.581,0,0,1,.57.57v12.187a.57.57,0,0,1-.57.57Zm-18.491-1.14h17.921V296.81H324.19Z" transform="translate(-54.213 -142.684)" fill="#263238"/></g><g transform="translate(108.497 144.928)"><path d="M345.04,365.39h-2.28a.581.581,0,0,1-.57-.57.57.57,0,0,1,.57-.57h2.28a.57.57,0,1,1,0,1.14Zm-6.84,0h-2.28a.581.581,0,0,1-.57-.57.57.57,0,0,1,.57-.57h2.28a.57.57,0,0,1,0,1.14Zm-6.84,0h-2.28a.581.581,0,0,1-.57-.57.57.57,0,0,1,.57-.57h2.28a.57.57,0,0,1,0,1.14Zm-6.84,0h-2.28a.581.581,0,0,1-.57-.57.57.57,0,0,1,.57-.57h2.28a.57.57,0,0,1,0,1.14Z" transform="translate(-70.321 -105.992)" fill="#263238"/><path d="M119.453,397.107h-1.015a.57.57,0,0,1-.536-.6.559.559,0,0,1,.6-.536h2.246a.57.57,0,0,1,0,1.14h-1.3Zm213.341,0h-2.28a.57.57,0,1,1,0-1.14h2.28a.57.57,0,0,1,0,1.14Zm-6.84,0h-2.28a.57.57,0,0,1,0-1.14h2.28a.57.57,0,0,1,0,1.14Zm-6.84,0h-2.28a.57.57,0,1,1,0-1.14h2.28a.57.57,0,0,1,0,1.14Zm-6.84,0h-2.28a.57.57,0,0,1,0-1.14h2.28a.57.57,0,0,1,0,1.14Zm-6.84,0h-2.28a.57.57,0,1,1,0-1.14h2.28a.57.57,0,0,1,0,1.14Zm-6.84,0h-2.28a.57.57,0,1,1,0-1.14h2.28a.57.57,0,0,1,0,1.14Zm-6.84,0h-2.28a.57.57,0,1,1,0-1.14h2.28a.57.57,0,0,1,0,1.14Zm-6.84,0h-2.28a.57.57,0,1,1,0-1.14h2.28a.57.57,0,0,1,0,1.14Zm-6.84,0h-2.28a.57.57,0,1,1,0-1.14h2.28a.57.57,0,0,1,0,1.14Zm-6.84,0h-2.28a.57.57,0,1,1,0-1.14h2.28a.57.57,0,0,1,0,1.14Zm-6.84,0h-2.28a.57.57,0,0,1,0-1.14h2.28a.57.57,0,0,1,0,1.14Zm-6.84,0h-2.28a.57.57,0,0,1,0-1.14h2.28a.57.57,0,0,1,0,1.14Zm-6.84,0h-2.28a.57.57,0,0,1,0-1.14h2.28a.57.57,0,1,1,0,1.14Zm-6.84,0h-2.28a.57.57,0,0,1,0-1.14h2.28a.57.57,0,1,1,0,1.14Zm-6.84,0h-2.28a.57.57,0,1,1,0-1.14h2.28a.57.57,0,1,1,0,1.14Zm-6.84,0h-2.28a.57.57,0,1,1,0-1.14h2.28a.57.57,0,1,1,0,1.14Zm-6.84,0h-2.28a.57.57,0,0,1,0-1.14h2.28a.57.57,0,1,1,0,1.14Zm-6.84,0h-2.28a.57.57,0,0,1,0-1.14h2.28a.57.57,0,0,1,0,1.14Zm-6.84,0h-2.28a.57.57,0,0,1,0-1.14h2.28a.57.57,0,0,1,0,1.14Zm-6.84,0h-2.28a.57.57,0,0,1,0-1.14h2.28a.57.57,0,0,1,0,1.14Zm-6.84,0h-2.28a.57.57,0,0,1,0-1.14h2.28a.57.57,0,0,1,0,1.14Zm-6.84,0h-2.28a.57.57,0,0,1,0-1.14h2.28a.57.57,0,0,1,0,1.14Zm-6.84,0h-2.28a.57.57,0,0,1,0-1.14h2.28a.57.57,0,1,1,0,1.14Zm-6.84,0h-2.28a.57.57,0,1,1,0-1.14h2.28a.57.57,0,1,1,0,1.14Zm-6.84,0h-2.28a.57.57,0,1,1,0-1.14h2.28a.57.57,0,1,1,0,1.14Zm-6.84,0h-2.28a.57.57,0,0,1,0-1.14h2.28a.57.57,0,1,1,0,1.14Zm-6.84,0h-2.28a.57.57,0,0,1,0-1.14h2.28a.57.57,0,0,1,0,1.14Zm-6.84,0h-2.28a.57.57,0,0,1,0-1.14h2.28a.57.57,0,0,1,0,1.14Zm-6.84,0h-2.28a.57.57,0,0,1,0-1.14h2.28a.57.57,0,0,1,0,1.14Zm-6.84,0h-2.28a.57.57,0,0,1,0-1.14h2.28a.57.57,0,0,1,0,1.14Zm-6.84,0h-2.28a.57.57,0,0,1,0-1.14h2.28a.57.57,0,1,1,0,1.14ZM114,396.229a.444.444,0,0,1-.171,0,18.981,18.981,0,0,1-2.189-.866.581.581,0,0,1-.274-.764.57.57,0,0,1,.764-.274,16.737,16.737,0,0,0,2.052.821.577.577,0,0,1-.182,1.14Zm-5.928-3.306a.593.593,0,0,1-.376-.137,18.866,18.866,0,0,1-1.687-1.619.57.57,0,1,1,.832-.775,20.19,20.19,0,0,0,1.6,1.528.581.581,0,0,1,.068.809.593.593,0,0,1-.433.194Zm-4.264-5.29a.581.581,0,0,1-.513-.308,18.043,18.043,0,0,1-.958-2.143.572.572,0,0,1,1.072-.4,16.759,16.759,0,0,0,.9,2.018.57.57,0,0,1-.5.832Zm-1.961-6.509a.581.581,0,0,1-.57-.513c0-.6-.091-1.208-.091-1.824v-.513a.57.57,0,1,1,1.14,0v.513a17,17,0,0,0,.091,1.71.581.581,0,0,1-.513.627Zm-.091-6.84a.57.57,0,0,1-.57-.57v-2.28a.57.57,0,1,1,1.14,0v2.28a.57.57,0,0,1-.57.57Zm0-6.84a.57.57,0,0,1-.57-.57v-2.28a.57.57,0,1,1,1.14,0v2.28a.57.57,0,0,1-.57.57Zm0-6.84a.57.57,0,0,1-.57-.57v-2.28a.57.57,0,1,1,1.14,0v2.28a.57.57,0,0,1-.57.57Zm0-6.84a.57.57,0,0,1-.57-.57v-2.28a.57.57,0,1,1,1.14,0v2.28a.57.57,0,0,1-.57.57Zm0-6.84a.57.57,0,0,1-.57-.57v-2.28a.57.57,0,1,1,1.14,0v2.28a.57.57,0,0,1-.57.57Zm0-6.84a.57.57,0,0,1-.57-.57v-2.28a.57.57,0,1,1,1.14,0v2.28a.57.57,0,0,1-.57.57Zm0-6.84a.57.57,0,0,1-.57-.57v-2.28a.57.57,0,1,1,1.14,0v2.28a.57.57,0,0,1-.57.57Zm0-6.84a.57.57,0,0,1-.57-.57v-2.28a.57.57,0,1,1,1.14,0v2.28a.57.57,0,0,1-.57.57Zm0-6.84a.57.57,0,0,1-.57-.57v-2.28a.57.57,0,1,1,1.14,0v2.28a.57.57,0,0,1-.57.57Zm0-6.84a.57.57,0,0,1-.57-.57v-2.28a.57.57,0,0,1,1.14,0v2.28a.57.57,0,0,1-.57.57Zm0-6.84a.57.57,0,0,1-.57-.57v-2.28a.57.57,0,1,1,1.14,0v2.28a.57.57,0,0,1-.57.57Zm0-6.84a.57.57,0,0,1-.57-.57v-2.28a.57.57,0,1,1,1.14,0v2.28a.57.57,0,0,1-.57.57Zm0-6.84a.57.57,0,0,1-.57-.57v-2.28a.57.57,0,1,1,1.14,0v2.28a.57.57,0,0,1-.57.57Zm0-6.84a.57.57,0,0,1-.57-.57v-2.28a.57.57,0,1,1,1.14,0v2.28a.57.57,0,0,1-.57.57Zm0-6.84a.57.57,0,0,1-.57-.57v-2.28a.57.57,0,1,1,1.14,0v2.28a.57.57,0,0,1-.57.57Zm0-6.84a.57.57,0,0,1-.57-.57v-2.28a.57.57,0,1,1,1.14,0v2.28a.57.57,0,0,1-.57.57Zm0-6.84a.57.57,0,0,1-.57-.57v-2.28a.57.57,0,1,1,1.14,0v2.28a.57.57,0,0,1-.57.57Zm0-6.84a.57.57,0,0,1-.57-.57v-2.28a.57.57,0,1,1,1.14,0v2.28a.57.57,0,0,1-.57.57Zm0-6.84a.57.57,0,0,1-.57-.57v-2.28a.57.57,0,0,1,1.14,0v2.28a.57.57,0,0,1-.57.57Zm0-6.84a.57.57,0,0,1-.57-.57v-2.28a.57.57,0,1,1,1.14,0v2.28a.57.57,0,0,1-.57.57Zm0-6.84a.57.57,0,0,1-.57-.57v-2.28a.57.57,0,0,1,1.14,0v2.28a.57.57,0,0,1-.57.57Zm0-6.84a.57.57,0,0,1-.57-.57v-2.28a.57.57,0,1,1,1.14,0v2.28a.57.57,0,0,1-.57.57Zm0-6.84a.57.57,0,0,1-.57-.57v-2.28a.57.57,0,1,1,1.14,0v2.28a.57.57,0,0,1-.57.57Zm0-6.84a.57.57,0,0,1-.57-.57v-2.28a.57.57,0,1,1,1.14,0v2.28a.57.57,0,0,1-.57.57Zm0-6.84a.57.57,0,0,1-.57-.57v-2.28a.57.57,0,1,1,1.14,0v2.28a.57.57,0,0,1-.57.57Zm0-6.84a.57.57,0,0,1-.57-.57v-2.28a.57.57,0,1,1,1.14,0v2.28a.57.57,0,0,1-.57.57Zm0-6.84a.57.57,0,0,1-.57-.57v-2.28a.57.57,0,1,1,1.14,0v2.28a.57.57,0,0,1-.57.57Zm0-6.84a.57.57,0,0,1-.57-.57v-2.28a.57.57,0,1,1,1.14,0v2.28a.57.57,0,0,1-.57.57Zm0-6.84a.57.57,0,0,1-.57-.57v-2.28a.57.57,0,1,1,1.14,0v2.28a.57.57,0,0,1-.57.57Zm0-6.84a.57.57,0,0,1-.57-.57v-2.28a.57.57,0,0,1,1.14,0v2.28a.57.57,0,0,1-.57.57Zm0-6.84a.57.57,0,0,1-.57-.57v-2.28a.57.57,0,1,1,1.14,0v2.28a.57.57,0,0,1-.57.57Zm0-6.84a.57.57,0,0,1-.57-.57v-2.28a.57.57,0,1,1,1.14,0v2.28a.57.57,0,0,1-.57.57Zm0-6.84h0a.57.57,0,0,1-.536-.6,19.846,19.846,0,0,1,.308-2.28.581.581,0,1,1,1.14.228,17.512,17.512,0,0,0-.285,2.177.57.57,0,0,1-.581.479Zm1.744-6.566a.5.5,0,0,1-.251-.057.57.57,0,0,1-.262-.764,18.08,18.08,0,0,1,1.14-2.041.572.572,0,1,1,.958.627,15.964,15.964,0,0,0-1.14,1.915.57.57,0,0,1-.4.319Zm4.093-5.426a.536.536,0,0,1-.422-.182.57.57,0,0,1,0-.809,18.867,18.867,0,0,1,1.847-1.459.57.57,0,1,1,.65.935,18.24,18.24,0,0,0-1.733,1.368.525.525,0,0,1-.3.148Zm5.825-3.5a.559.559,0,0,1-.536-.376.57.57,0,0,1,.342-.73,19.594,19.594,0,0,1,2.28-.65.57.57,0,0,1,.684.433.559.559,0,0,1-.433.673,17.317,17.317,0,0,0-2.12.616.583.583,0,0,1-.125.034Zm8.995-1.049h-2.28a.581.581,0,0,1-.57-.57.57.57,0,0,1,.57-.57h2.28a.571.571,0,0,1,.046,1.14Z" transform="translate(-101.19 -137.709)" fill="#263238"/><path d="M413.628,156.6a.57.57,0,0,1-.57-.57,17.794,17.794,0,0,0-.136-2.2.57.57,0,0,1,.49-.642.593.593,0,0,1,.638.49,20.143,20.143,0,0,1,.148,2.348A.57.57,0,0,1,413.628,156.6Zm-1.3-6.669a.559.559,0,0,1-.524-.353,16.807,16.807,0,0,0-.969-1.984.593.593,0,0,1,.217-.787.57.57,0,0,1,.775.217,18.165,18.165,0,0,1,1.026,2.12.559.559,0,0,1-.308.741.49.49,0,0,1-.217.046Zm-3.716-5.7a.547.547,0,0,1-.41-.182,16.779,16.779,0,0,0-1.687-1.448.581.581,0,0,1,.718-.9,19.178,19.178,0,0,1,1.744,1.585.581.581,0,0,1-.41.969Zm-5.586-3.887a.58.58,0,0,1-.228,0,15.893,15.893,0,0,0-2.063-.752.57.57,0,1,1,.319-1.094,18.936,18.936,0,0,1,2.212.8.581.581,0,0,1,.285.752.559.559,0,0,1-.524.274ZM396.4,138.85h-2.28a.57.57,0,1,1,0-1.14h2.28a.576.576,0,0,1,0,1.151Zm-6.84,0h-2.28a.57.57,0,0,1,0-1.14h2.28a.576.576,0,0,1,0,1.151Zm-6.84,0h-2.28a.57.57,0,0,1,0-1.14h2.28a.576.576,0,0,1,0,1.151Zm-6.84,0H373.6a.57.57,0,0,1,0-1.14h2.28a.576.576,0,0,1,0,1.151Zm-6.84,0h-2.28a.57.57,0,0,1,0-1.14h2.28a.576.576,0,0,1,0,1.151Zm-6.84,0h-2.28a.57.57,0,1,1,0-1.14h2.28a.576.576,0,0,1,0,1.151Zm-6.84,0h-2.28a.57.57,0,0,1,0-1.14h2.28a.576.576,0,0,1,0,1.151Zm-6.84,0h-2.28a.57.57,0,1,1,0-1.14h2.28a.576.576,0,0,1,0,1.151Zm-6.84,0H339.4a.57.57,0,0,1,0-1.14h2.28a.576.576,0,0,1,0,1.151Zm-6.84,0h-2.28a.57.57,0,1,1,0-1.14h2.28a.576.576,0,0,1,0,1.151Zm-6.84,0h-2.28a.57.57,0,0,1,0-1.14H328a.576.576,0,0,1,0,1.151Zm-6.84,0h-2.28a.57.57,0,0,1,0-1.14h2.28a.576.576,0,0,1,0,1.151Zm-6.84,0h-2.28a.57.57,0,0,1,0-1.14h2.28a.576.576,0,0,1,0,1.151Zm-6.84,0H305.2a.57.57,0,0,1,0-1.14h2.28a.576.576,0,0,1,0,1.151Zm-6.84,0h-2.28a.57.57,0,1,1,0-1.14h2.28a.576.576,0,0,1,0,1.151Zm-6.84,0h-2.28a.57.57,0,0,1,0-1.14h2.28a.576.576,0,0,1,0,1.151Zm-6.84,0h-2.28a.57.57,0,1,1,0-1.14h2.28a.576.576,0,0,1,0,1.151Zm-6.84,0h-2.28a.57.57,0,0,1,0-1.14h2.28a.576.576,0,0,1,0,1.151Zm-6.84,0H271a.57.57,0,1,1,0-1.14h2.28a.576.576,0,0,1,0,1.151Zm-6.84,0h-2.28a.57.57,0,0,1,0-1.14h2.28a.576.576,0,0,1,0,1.151Zm-6.84,0h-2.28a.57.57,0,1,1,0-1.14h2.28a.576.576,0,0,1,0,1.151Zm-6.84,0h-2.28a.57.57,0,0,1,0-1.14h2.28a.576.576,0,0,1,0,1.151Zm-6.84,0h-2.28a.57.57,0,1,1,0-1.14h2.28a.576.576,0,0,1,0,1.151Zm-6.84,0H236.8a.57.57,0,0,1,0-1.14h2.28a.576.576,0,0,1,0,1.151Zm-6.84,0h-2.28a.57.57,0,0,1,0-1.14h2.28a.576.576,0,0,1,0,1.151Zm-6.84,0h-2.28a.57.57,0,1,1,0-1.14h2.28a.576.576,0,0,1,0,1.151Zm-6.84,0h-2.28a.57.57,0,0,1,0-1.14h2.28a.576.576,0,0,1,0,1.151Zm-6.84,0h-2.28a.57.57,0,1,1,0-1.14h2.28a.576.576,0,0,1,0,1.151Zm-6.84,0H202.6a.57.57,0,1,1,0-1.14h2.28a.576.576,0,0,1,0,1.151Zm-6.84,0h-2.28a.57.57,0,0,1,0-1.14h2.28a.576.576,0,0,1,0,1.151Zm-6.84,0h-2.28a.57.57,0,0,1,0-1.14h2.28a.576.576,0,0,1,0,1.151Zm-6.84,0h-2.28a.57.57,0,1,1,0-1.14h2.28a.576.576,0,0,1,0,1.151Zm-6.84,0h-2.28a.57.57,0,0,1,0-1.14h2.28a.576.576,0,0,1,0,1.151Zm-6.84,0H168.4a.57.57,0,0,1,0-1.14h2.28a.576.576,0,0,1,0,1.151Zm-6.84,0h-2.28a.57.57,0,1,1,0-1.14h2.28a.576.576,0,0,1,0,1.151Zm-6.84,0h-2.28a.57.57,0,0,1,0-1.14H157a.576.576,0,0,1,0,1.151Zm-6.84,0h-2.28a.57.57,0,1,1,0-1.14h2.28a.576.576,0,0,1,0,1.151Zm-6.84,0h-2.28a.57.57,0,1,1,0-1.14h2.28a.576.576,0,0,1,0,1.151Zm-6.84,0H134.2a.57.57,0,0,1,0-1.14h2.28a.576.576,0,0,1,0,1.151Z" transform="translate(-96.648 -137.71)" fill="#263238"/><path d="M387.758,161.26a73.109,73.109,0,1,0,73.519,72.664,73.109,73.109,0,0,0-73.519-72.664Zm.741,131.785a58.676,58.676,0,1,1,58.346-59.007A58.676,58.676,0,0,1,388.5,293.045Z" transform="translate(-71.246 -134.413)" fill="#fff"/><path d="M388.253,308.1a73.679,73.679,0,1,1-.4-147.358h.422a73.679,73.679,0,1,1,.4,147.358Zm0-146.218h-.422a72.539,72.539,0,1,0,.422,145.078h.422a72.539,72.539,0,1,0-.4-145.078Zm0,131.785a59.281,59.281,0,0,1-.331-118.481h.331a59.281,59.281,0,0,1,.331,118.481Zm.331-1.14h0a58.141,58.141,0,0,0-.331-116.2h-.331a58.141,58.141,0,0,0,.331,116.2Z" transform="translate(-71.342 -134.486)" fill="#263238"/><path d="M387.738,157.59a73.109,73.109,0,1,0,73.519,72.687,73.109,73.109,0,0,0-73.519-72.687Zm.741,131.774a58.676,58.676,0,1,1,58.334-59,58.676,58.676,0,0,1-58.334,59Z" transform="translate(-71.249 -134.927)" fill="#fff"/><path d="M388.159,304.39a73.485,73.485,0,1,1,.422,0Zm0-146.206h-.422a72.536,72.536,0,1,0,.4,145.072l.422-.005a72.536,72.536,0,1,0-.4-145.072Zm0,131.774a59.281,59.281,0,0,1-.319-118.481h.342a59.281,59.281,0,0,1,.319,118.481Zm0-117.341h-.342a58.141,58.141,0,0,0,.319,116.2h.342a58.14,58.14,0,0,0-.319-116.2Z" transform="translate(-71.271 -134.95)" fill="#263238"/><rect width="17.693" height="65.186" rx="2.88" transform="translate(310.405 168.683) rotate(-0.573)" fill="#5c3caf"/><path d="M375.894,353.154a3.876,3.876,0,0,1-3.853-3.842L371.71,290.7a3.888,3.888,0,0,1,1.14-2.736,3.819,3.819,0,0,1,2.725-1.14l11.115-.068a4,4,0,0,1,2.736,1.14,3.819,3.819,0,0,1,1.14,2.725l.331,58.608a3.876,3.876,0,0,1-3.83,3.887h0l-11.115.057Zm11.149-.627ZM386.69,287.9h0l-11.127.068a2.7,2.7,0,0,0-1.915.8,2.736,2.736,0,0,0-.787,1.927l.331,58.619a2.736,2.736,0,0,0,.809,1.915,2.667,2.667,0,0,0,1.9.787h0l11.115-.057a2.725,2.725,0,0,0,2.7-2.736l-.331-58.619a2.7,2.7,0,0,0-.8-1.915,2.736,2.736,0,0,0-1.9-.809Z" transform="translate(-63.314 -116.841)" fill="#263238"/><path d="M389.355,426.327l-14.946.091a8.334,8.334,0,0,1-8.379-8.288v-87.5a6.509,6.509,0,0,1,6.475-6.544L391.076,324a6.5,6.5,0,0,1,6.544,6.475v87.5a8.322,8.322,0,0,1-8.265,8.356Z" transform="translate(-64.11 -111.628)" fill="#263238"/><path d="M374.434,427.049a8.9,8.9,0,0,1-8.9-8.847v-87.5a7.079,7.079,0,0,1,7.034-7.114l18.594-.1h0a7.068,7.068,0,0,1,7.079,7.034v87.507a8.892,8.892,0,0,1-8.847,8.938h0l-14.946.08Zm14.991-.65Zm1.721-101.769h0l-18.582.1a5.939,5.939,0,0,0-5.905,5.974v87.5a7.763,7.763,0,0,0,7.763,7.706h0l14.945-.08a7.752,7.752,0,0,0,7.718-7.8v-87.5A5.939,5.939,0,0,0,391.146,324.63Z" transform="translate(-64.18 -111.699)" fill="#263238"/></g></g></svg>