<svg xmlns="http://www.w3.org/2000/svg" xmlns:xlink="http://www.w3.org/1999/xlink" width="457.769" height="358.707" viewBox="0 0 457.769 358.707"><defs><clipPath id="a"><path d="M57.78,439.853c3.278-11.1,37.238-126.517,37.124-127.385s2.776-16.369,9.538-29.288,16.152-27.312,17.328-29.071a25.233,25.233,0,0,0,3.518-9.4c.88-4.695,10.28-17.625,13.216-21.143s11.742-22.023,12.336-24.958,4.1-5.289,8.807-6.168,11.16-1.759,11.16-1.759a8.75,8.75,0,0,1,2.056,4.992c0,2.639-10.577,65.772-11.16,76.349s.88,16.437-3.815,27.312-18.5,17.614-25.255,22.023-6.237,5.323-6.237,5.323,3.815,105.694,3.724,114" transform="translate(-57.78 -190.68)" fill="#fff" stroke="#2e353a" stroke-linecap="round" stroke-linejoin="round" stroke-width="1"/></clipPath><clipPath id="b"><path d="M442,430.265s-27.129-50.031-30.99-58.8-6.774-22.594-7.722-26.386a25.5,25.5,0,0,1-.366-13.707c1.428-6.4.583-24.65,1.222-28.842s-1.953-17.305-3.427-24.65-4.809-12.565-9.309-13.136a8,8,0,0,0-7.036,2.753s-1.873-15.638-3.69-18.882-7.733-2.776-10.9-2-4.683,10.9-4.683,10.9-2.741-9.721-2.821-14.061-5.357-8.076-9.469-7.048-6.328,2.913-7.448,11.914.994,22.925.994,22.925l-2.136.868s-7.7-26.957-10.143-34.074-4.8-15.261-6.442-20.561-4.089-13.707-10.817-12.416-5.072,15.992-5.072,15.992,10.52,45.051,11.069,48.6,2.285,15.889,1.942,20-.331,14.849-.331,14.849L314.41,292.554a51.4,51.4,0,0,0-4.649-9.252c-3.427-5.529-11.046-10.68-15.992-9.138s-1.039,6.637,1.005,9.481,3.7,10.829,3.7,14.849,3.427,6.854,7.562,14.233,24.89,32.874,28.031,37.466a28.683,28.683,0,0,0,8.6,7.6s11.994,10.452,17.591,23.5,22.765,50.5,22.765,50.5" transform="translate(-291.369 -204.924)" fill="#fff" stroke="#2e353a" stroke-linecap="round" stroke-linejoin="round" stroke-width="1"/></clipPath><clipPath id="c"><path d="M138.909,260.951s9.7-1.759,14.975-8.213,17.911-14.69,22.023-16.152,10.577-1.771,12.93.286,3.518,7.048,0,12.93-17.865,11.411-20.858,14.084-5.574,4.409-9.138,12.336a62.173,62.173,0,0,1-14.678,20.264c-5.586,4.992-15.855,13.513-21.143,16.734" transform="translate(-123.02 -235.41)" fill="#fff" stroke="#2e353a" stroke-linecap="round" stroke-linejoin="round" stroke-width="1"/></clipPath></defs><g transform="translate(-47.28 -95.951)"><g transform="translate(82.218 95.951)"><path d="M473.1,311.678c27.095-42.424,39.065-105.591,13.707-151.6-23.485-42.435-74.11-62.927-120.749-64.07C325.71,95.025,293.681,106.961,262.2,130.4c-16.232,12.1-32.634,25.038-52.179,32.086-15.261,5.506-30.955,9.3-46.7,13.5-56.919,15.226-92,66.868-84.356,122.394,5.894,42.675,39.02,82.369,81.284,98.223,32.772,12.291,67.211,3.21,98.874-7.527,17.065-5.791,34.268-11.777,52.281-14.473,17.42-2.616,34.268.651,51.516-1.234C405.429,368.734,449.246,349.064,473.1,311.678Z" transform="translate(-77.929 -95.951)" fill="#5c3caf"/><path d="M473.1,311.678c27.095-42.424,39.065-105.591,13.707-151.6-23.485-42.435-74.11-62.927-120.749-64.07C325.71,95.025,293.681,106.961,262.2,130.4c-16.232,12.1-32.634,25.038-52.179,32.086-15.261,5.506-30.955,9.3-46.7,13.5-56.919,15.226-92,66.868-84.356,122.394,5.894,42.675,39.02,82.369,81.284,98.223,32.772,12.291,67.211,3.21,98.874-7.527,17.065-5.791,34.268-11.777,52.281-14.473,17.42-2.616,34.268.651,51.516-1.234C405.429,368.734,449.246,349.064,473.1,311.678Z" transform="translate(-77.929 -95.951)" fill="#fff" opacity="0.7"/></g><g transform="translate(262.446 332.444)"><path d="M464.094,302.99H235.71v9.686h4.832v98.452H459.262V312.676h4.832Z" transform="translate(-235.71 -302.99)" fill="#5c3caf"/><path d="M464.094,302.99H235.71v9.686h4.832v98.452H459.262V312.676h4.832Z" transform="translate(-235.71 -302.99)" fill="#fff" opacity="0.5"/><path d="M245.07,351.966h59.649V320.12H245.07Zm1.211-30.67h57.227v29.528H246.281Z" transform="translate(-234.378 -300.553)" fill="#fff"/><path d="M309.92,351.966h59.66V320.12H309.92Zm1.234-30.636h57.239v29.493H311.154Z" transform="translate(-225.153 -300.553)" fill="#fff"/><path d="M374.78,320.12v31.846h59.649V320.12Zm58.438,30.7H375.991V321.331h57.227Z" transform="translate(-215.925 -300.553)" fill="#fff"/><path d="M245.07,389.451h59.649V357.57H245.07Zm1.211-30.67h57.227V388.24H246.281Z" transform="translate(-234.378 -295.225)" fill="#fff"/><path d="M309.92,389.451h59.66V357.57H309.92Zm1.234-30.67h57.239V388.24H311.154Z" transform="translate(-225.153 -295.225)" fill="#fff"/><path d="M374.78,389.451h59.649V357.57H374.78Zm1.211-30.67h57.227V388.24H375.991Z" transform="translate(-215.925 -295.225)" fill="#fff"/><ellipse cx="9.686" cy="3.632" rx="9.686" ry="3.632" transform="translate(31.469 32.28)" fill="#fff"/><ellipse cx="9.686" cy="3.632" rx="9.686" ry="3.632" transform="translate(105.191 32.28)" fill="#fff"/><ellipse cx="9.686" cy="3.632" rx="9.686" ry="3.632" transform="translate(181.049 32.28)" fill="#fff"/><path d="M272.946,368.7c-5.346,0-9.686,1.622-9.686,3.632s4.341,3.621,9.686,3.621,9.686-1.622,9.686-3.621S278.292,368.7,272.946,368.7Z" transform="translate(-231.791 -293.642)" fill="#fff"/><path d="M337.486,368.7c-5.346,0-9.686,1.622-9.686,3.632s4.341,3.621,9.686,3.621,9.686-1.622,9.686-3.621S342.878,368.7,337.486,368.7Z" transform="translate(-222.609 -293.642)" fill="#fff"/><path d="M403.895,368.7c-5.346,0-9.675,1.622-9.675,3.632s4.329,3.621,9.675,3.621,9.686-1.622,9.686-3.621S409.252,368.7,403.895,368.7Z" transform="translate(-213.16 -293.642)" fill="#fff"/></g><g transform="translate(116.271 257.807)"><path d="M227.038,303.822c-4.409,6.545-10.555,15.055-13.833,21.886,1.245-4.5,2.467-8.761,3.575-12.565,1.679-3.3,6.18-11.628,11.423-17.134,6.591-7.059,9.412-11.594,5.86-11.982-2.456-.274-9.652,9.309-14.164,18.825.982-3.255,1.759-5.711,2.285-7.185.217-.663.423-1.382.628-2.147a190.581,190.581,0,0,0,12.725-20.412c6.659-12.439,8.807-24.182,4.363-19.133-4.089,4.649-11.206,27.768-16.86,38.643.48-1.873.937-3.941,1.336-5.985.8-1.976,1.85-3.987,2.444-5.814.925-2.81,1.736-5.643,2.387-8.533a59.135,59.135,0,0,0,1.622-13.707,27.745,27.745,0,0,0-4.249-15.352c-.765-1.142-5.449-8.144-6.854-4.569a3.838,3.838,0,0,0-.1,1.839c.685,5.951,2.844,11.423,4.181,17.214,2,8.67.674,23.222,0,29.413-.251.982-.571,2.193-.948,3.6.925-10.783-3.747-23.565-8.076-25.8-5.357-2.764-.1,8.087,4.032,17.568a28.316,28.316,0,0,1,2.684,13.3c-.845,3.107-1.816,6.614-2.821,10.155-.206.48-.388.971-.571,1.451a29.7,29.7,0,0,0,.56-7.025c-.388-6.191-7.4-18.585-12.062-16.837s3.233,8.281,7.448,15.889a22.937,22.937,0,0,1,2.433,13.707,6.19,6.19,0,0,1-.126.822c-.491,1.622-.971,3.175-1.428,4.66-1.142,3.427-2.113,6.717-3.084,9.892a49.575,49.575,0,0,0,1.553-14.118c-.583-9.07-5.894-17.637-10.28-18.813s3.987,13.627,6.8,21.943a29.836,29.836,0,0,1,.754,15.009c-1.359,4.5-2.639,8.944-3.952,13.639a113.667,113.667,0,0,0-.4-18.448c-.857-10.1-6.854-16.54-10.989-16.277s.183,6,6.145,18.276a41.019,41.019,0,0,1,4.066,20.766c-.537,1.976-1.142,4.009-1.645,6.134-.64,2.422-1.142,5.06-1.6,7.756-.594-2.41-1.485-5.928-2.524-9.812a86.964,86.964,0,0,1-2.627-13.1c-.56-5.152-1.919-11.583-6.968-14.255a2.867,2.867,0,0,0-4.238,1.142,5.711,5.711,0,0,0-.3,3.5,38.573,38.573,0,0,0,3.427,10.086,11.708,11.708,0,0,0-1.3,6.18c0,.8.069,1.6.126,2.4-.445-.822-.868-1.576-1.268-2.285a15.113,15.113,0,0,0-2.65-3.278,42.144,42.144,0,0,0,.388-5.711c0-2.5-2.936-8.887-5.586-4.158-1.062,1.9-.857,5.609-.96,8.076-.72.685-.937,2.079-.331,4.272-.411,5.711-.491,11.56.891,17.134l-.914-1.588a127.929,127.929,0,0,1-2.285-20.035c-.331-11.114,1.439-20.229-1.588-23.656s-4.718,8.624-3.427,21.76a54.486,54.486,0,0,0,4.729,17.317c-2.97-5.334-5.906-10.772-8.681-15.992-1.142-2.8-3.975-10.372-3.278-18.048.88-9.675,1.519-17.6-2.159-23.051s-4.443-1.908-2.639,9.447c1.234,7.79,2.547,18.208,4.809,25.438-2.147-4.146-4.169-8.087-5.974-11.651-1.028-3.564-3.427-12.713-3.427-20.309,0-9.664-1.028-14.849-3.884-12.759-1.988,1.474-.708,13.4,2.49,23.428-1.5-3.05-2.627-5.392-3.278-6.774-.3-.628-.628-1.3-1.005-2a191.127,191.127,0,0,0-4.626-23.6c-3.621-13.639-10.075-23.691-9.869-16.963.183,6.191,10.76,27.94,14.061,39.751-.937-1.7-2.022-3.518-3.118-5.289-.765-2-1.371-4.181-2.182-5.917-1.245-2.684-2.581-5.312-4.078-7.87a59.227,59.227,0,0,0-8.19-11.148,27.791,27.791,0,0,0-13.833-8.544c-1.348-.32-9.526-2.285-8.133,1.371a3.8,3.8,0,0,0,1.142,1.416c4.569,3.884,9.869,6.408,14.849,9.732,7.379,4.98,16.346,16.517,20.047,21.532l1.759,3.278c-6.682-8.521-18.825-14.667-23.508-13.342-5.8,1.633,5.437,5.974,14.929,10.075a28.225,28.225,0,0,1,11.034,7.893c1.508,2.856,3.187,6.065,4.866,9.344.194.491.377.971.571,1.451a29.7,29.7,0,0,0-4.375-5.517c-4.512-4.249-18.1-8.533-20.309-4.078s8,3.861,16.289,6.534a22.982,22.982,0,0,1,11.091,8.327c.16.228.308.468.468.685.754,1.508,1.462,2.981,2.136,4.375,1.553,3.278,3.038,6.351,4.489,9.332a49.516,49.516,0,0,0-8.487-11.423c-6.625-6.237-16.357-8.864-20.389-6.694s12.211,7.23,19.944,11.423a29.825,29.825,0,0,1,10.794,10.463c2.079,4.215,4.169,8.339,6.419,12.668a114.6,114.6,0,0,0-12.873-13.216c-7.528-6.8-16.312-7.413-19.156-4.4s4.226,4.261,16.951,9.138a41.019,41.019,0,0,1,17.134,12.394c.96,1.816,1.942,3.678,2.993,5.62a71.989,71.989,0,0,0,4.124,6.751c-2.079-1.348-5.14-3.312-8.544-5.437a85.171,85.171,0,0,1-10.863-7.8c-3.929-3.37-9.309-7.151-14.849-5.654a2.844,2.844,0,0,0-2.285,3.724,5.574,5.574,0,0,0,2.159,2.764c5.209,4.032,12.211,5.974,18.276,8.361a135.217,135.217,0,0,0,17.054,5.437c1.439,2.068,2.936,4.112,4.443,6.054l-2.719.08c-3.221.1-17.751-6.488-25.13-8.6s-14.278,1.885-6.545,6.043,28.762,3.233,28.762,3.233l6.065-.183c1.428,1.828,2.821,3.564,4.146,5.152H161.986v8H167.7l4.569,28.431h38.3l4.626-28.431H220.9v-8H201.817a72.963,72.963,0,0,1,.274-10.36,24.49,24.49,0,0,1,4.215-3.427c8.384-5.791,22.594-6.271,26.375-17.431.914-2.684-.126-6.134-3.335-5.985-2.285.1-4.763,2.136-6.2,3.792-4.8,5.54-8.407,11.286-14.644,15.489a80.77,80.77,0,0,0-6.168,5.254c.217-1.816.491-3.758.845-5.837a57.423,57.423,0,0,1,5.14-7.619c5.106-6.34,12.873-10.052,18.39-16.095,1.691-1.85,3.918-8.5-1.245-6.854-2.285.731-5,4.215-6.854,5.8-5.083,4.569-10.28,9.435-13.593,15.443.137-.594.286-1.142.423-1.782a126.4,126.4,0,0,1,12.005-16.209c7.333-8.339,14.849-13.8,14.975-18.368s-9.332,3.084-17.362,13.547a54.737,54.737,0,0,0-8.361,15.889c1.474-5.917,3.038-11.9,4.569-17.637,1.051-2.856,4.169-10.28,9.915-15.432,7.253-6.477,13.125-11.822,14.164-18.276S233.469,294.3,227.038,303.822Zm-40.562,73.47c-1.085-1.474-2.216-3.073-3.427-4.843a58.253,58.253,0,0,1-1.439-9.138,38.457,38.457,0,0,1,.365-7.847,92.178,92.178,0,0,0,6.2,6.934,34.415,34.415,0,0,1-.834,6.785,79.57,79.57,0,0,0-.868,8.11Zm6.214,7.527a72.671,72.671,0,0,1-4.832-5.711,23.989,23.989,0,0,1,.742-5.369,38.426,38.426,0,0,1,2.993-8c2.707,2.57,4.695,4.272,4.695,4.272l4.569,4.009c-.354,3.987-.56,7.733-.685,10.772Zm8.224-11.491-2.045-1.793c-1.142-1.028-3.2-5-5.437-9.584a57.772,57.772,0,0,0,2.536-5.928c2.422,4.489,4.569,8,5.837,9.858C201.44,368.359,201.154,370.884,200.914,373.328Z" transform="translate(-107.741 -237.648)" fill="#5c3caf"/><path d="M227.038,303.822c-4.409,6.545-10.555,15.055-13.833,21.886,1.245-4.5,2.467-8.761,3.575-12.565,1.679-3.3,6.18-11.628,11.423-17.134,6.591-7.059,9.412-11.594,5.86-11.982-2.456-.274-9.652,9.309-14.164,18.825.982-3.255,1.759-5.711,2.285-7.185.217-.663.423-1.382.628-2.147a190.581,190.581,0,0,0,12.725-20.412c6.659-12.439,8.807-24.182,4.363-19.133-4.089,4.649-11.206,27.768-16.86,38.643.48-1.873.937-3.941,1.336-5.985.8-1.976,1.85-3.987,2.444-5.814.925-2.81,1.736-5.643,2.387-8.533a59.135,59.135,0,0,0,1.622-13.707,27.745,27.745,0,0,0-4.249-15.352c-.765-1.142-5.449-8.144-6.854-4.569a3.838,3.838,0,0,0-.1,1.839c.685,5.951,2.844,11.423,4.181,17.214,2,8.67.674,23.222,0,29.413-.251.982-.571,2.193-.948,3.6.925-10.783-3.747-23.565-8.076-25.8-5.357-2.764-.1,8.087,4.032,17.568a28.316,28.316,0,0,1,2.684,13.3c-.845,3.107-1.816,6.614-2.821,10.155-.206.48-.388.971-.571,1.451a29.7,29.7,0,0,0,.56-7.025c-.388-6.191-7.4-18.585-12.062-16.837s3.233,8.281,7.448,15.889a22.937,22.937,0,0,1,2.433,13.707,6.19,6.19,0,0,1-.126.822c-.491,1.622-.971,3.175-1.428,4.66-1.142,3.427-2.113,6.717-3.084,9.892a49.575,49.575,0,0,0,1.553-14.118c-.583-9.07-5.894-17.637-10.28-18.813s3.987,13.627,6.8,21.943a29.836,29.836,0,0,1,.754,15.009c-1.359,4.5-2.639,8.944-3.952,13.639a113.667,113.667,0,0,0-.4-18.448c-.857-10.1-6.854-16.54-10.989-16.277s.183,6,6.145,18.276a41.019,41.019,0,0,1,4.066,20.766c-.537,1.976-1.142,4.009-1.645,6.134-.64,2.422-1.142,5.06-1.6,7.756-.594-2.41-1.485-5.928-2.524-9.812a86.964,86.964,0,0,1-2.627-13.1c-.56-5.152-1.919-11.583-6.968-14.255a2.867,2.867,0,0,0-4.238,1.142,5.711,5.711,0,0,0-.3,3.5,38.573,38.573,0,0,0,3.427,10.086,11.708,11.708,0,0,0-1.3,6.18c0,.8.069,1.6.126,2.4-.445-.822-.868-1.576-1.268-2.285a15.113,15.113,0,0,0-2.65-3.278,42.144,42.144,0,0,0,.388-5.711c0-2.5-2.936-8.887-5.586-4.158-1.062,1.9-.857,5.609-.96,8.076-.72.685-.937,2.079-.331,4.272-.411,5.711-.491,11.56.891,17.134l-.914-1.588a127.929,127.929,0,0,1-2.285-20.035c-.331-11.114,1.439-20.229-1.588-23.656s-4.718,8.624-3.427,21.76a54.486,54.486,0,0,0,4.729,17.317c-2.97-5.334-5.906-10.772-8.681-15.992-1.142-2.8-3.975-10.372-3.278-18.048.88-9.675,1.519-17.6-2.159-23.051s-4.443-1.908-2.639,9.447c1.234,7.79,2.547,18.208,4.809,25.438-2.147-4.146-4.169-8.087-5.974-11.651-1.028-3.564-3.427-12.713-3.427-20.309,0-9.664-1.028-14.849-3.884-12.759-1.988,1.474-.708,13.4,2.49,23.428-1.5-3.05-2.627-5.392-3.278-6.774-.3-.628-.628-1.3-1.005-2a191.127,191.127,0,0,0-4.626-23.6c-3.621-13.639-10.075-23.691-9.869-16.963.183,6.191,10.76,27.94,14.061,39.751-.937-1.7-2.022-3.518-3.118-5.289-.765-2-1.371-4.181-2.182-5.917-1.245-2.684-2.581-5.312-4.078-7.87a59.227,59.227,0,0,0-8.19-11.148,27.791,27.791,0,0,0-13.833-8.544c-1.348-.32-9.526-2.285-8.133,1.371a3.8,3.8,0,0,0,1.142,1.416c4.569,3.884,9.869,6.408,14.849,9.732,7.379,4.98,16.346,16.517,20.047,21.532l1.759,3.278c-6.682-8.521-18.825-14.667-23.508-13.342-5.8,1.633,5.437,5.974,14.929,10.075a28.225,28.225,0,0,1,11.034,7.893c1.508,2.856,3.187,6.065,4.866,9.344.194.491.377.971.571,1.451a29.7,29.7,0,0,0-4.375-5.517c-4.512-4.249-18.1-8.533-20.309-4.078s8,3.861,16.289,6.534a22.982,22.982,0,0,1,11.091,8.327c.16.228.308.468.468.685.754,1.508,1.462,2.981,2.136,4.375,1.553,3.278,3.038,6.351,4.489,9.332a49.516,49.516,0,0,0-8.487-11.423c-6.625-6.237-16.357-8.864-20.389-6.694s12.211,7.23,19.944,11.423a29.825,29.825,0,0,1,10.794,10.463c2.079,4.215,4.169,8.339,6.419,12.668a114.6,114.6,0,0,0-12.873-13.216c-7.528-6.8-16.312-7.413-19.156-4.4s4.226,4.261,16.951,9.138a41.019,41.019,0,0,1,17.134,12.394c.96,1.816,1.942,3.678,2.993,5.62a71.989,71.989,0,0,0,4.124,6.751c-2.079-1.348-5.14-3.312-8.544-5.437a85.171,85.171,0,0,1-10.863-7.8c-3.929-3.37-9.309-7.151-14.849-5.654a2.844,2.844,0,0,0-2.285,3.724,5.574,5.574,0,0,0,2.159,2.764c5.209,4.032,12.211,5.974,18.276,8.361a135.217,135.217,0,0,0,17.054,5.437c1.439,2.068,2.936,4.112,4.443,6.054l-2.719.08c-3.221.1-17.751-6.488-25.13-8.6s-14.278,1.885-6.545,6.043,28.762,3.233,28.762,3.233l6.065-.183c1.428,1.828,2.821,3.564,4.146,5.152H161.986v8H167.7l4.569,28.431h38.3l4.626-28.431H220.9v-8H201.817a72.963,72.963,0,0,1,.274-10.36,24.49,24.49,0,0,1,4.215-3.427c8.384-5.791,22.594-6.271,26.375-17.431.914-2.684-.126-6.134-3.335-5.985-2.285.1-4.763,2.136-6.2,3.792-4.8,5.54-8.407,11.286-14.644,15.489a80.77,80.77,0,0,0-6.168,5.254c.217-1.816.491-3.758.845-5.837a57.423,57.423,0,0,1,5.14-7.619c5.106-6.34,12.873-10.052,18.39-16.095,1.691-1.85,3.918-8.5-1.245-6.854-2.285.731-5,4.215-6.854,5.8-5.083,4.569-10.28,9.435-13.593,15.443.137-.594.286-1.142.423-1.782a126.4,126.4,0,0,1,12.005-16.209c7.333-8.339,14.849-13.8,14.975-18.368s-9.332,3.084-17.362,13.547a54.737,54.737,0,0,0-8.361,15.889c1.474-5.917,3.038-11.9,4.569-17.637,1.051-2.856,4.169-10.28,9.915-15.432,7.253-6.477,13.125-11.822,14.164-18.276S233.469,294.3,227.038,303.822Zm-40.562,73.47c-1.085-1.474-2.216-3.073-3.427-4.843a58.253,58.253,0,0,1-1.439-9.138,38.457,38.457,0,0,1,.365-7.847,92.178,92.178,0,0,0,6.2,6.934,34.415,34.415,0,0,1-.834,6.785,79.57,79.57,0,0,0-.868,8.11Zm6.214,7.527a72.671,72.671,0,0,1-4.832-5.711,23.989,23.989,0,0,1,.742-5.369,38.426,38.426,0,0,1,2.993-8c2.707,2.57,4.695,4.272,4.695,4.272l4.569,4.009c-.354,3.987-.56,7.733-.685,10.772Zm8.224-11.491-2.045-1.793c-1.142-1.028-3.2-5-5.437-9.584a57.772,57.772,0,0,0,2.536-5.928c2.422,4.489,4.569,8,5.837,9.858C201.44,368.359,201.154,370.884,200.914,373.328Z" transform="translate(-107.741 -237.648)" fill="#fff" opacity="0.5"/></g><g transform="translate(122.907 108.869)"><path d="M113.55,107.26V223.086H201.5V107.26ZM195.4,215.01H119.7V115.347H195.4Z" transform="translate(-113.55 -107.26)" fill="#5c3caf"/><path d="M113.55,107.26V223.086H201.5V107.26ZM195.4,215.01H119.7V115.347H195.4Z" transform="translate(-113.55 -107.26)" fill="#fff" opacity="0.5"/><path d="M383,156.73v85.533h64.972V156.73Zm60.437,79.559H387.569V162.75h55.9Z" transform="translate(-75.217 -100.222)" fill="#5c3caf"/><path d="M383,156.73v85.533h64.972V156.73Zm60.437,79.559H387.569V162.75h55.9Z" transform="translate(-75.217 -100.222)" fill="#fff" opacity="0.5"/></g><g transform="translate(47.78 140.761)"><path d="M57.78,439.853c3.278-11.1,37.238-126.517,37.124-127.385s2.776-16.369,9.538-29.288,16.152-27.312,17.328-29.071a25.233,25.233,0,0,0,3.518-9.4c.88-4.695,10.28-17.625,13.216-21.143s11.742-22.023,12.336-24.958,4.1-5.289,8.807-6.168,11.16-1.759,11.16-1.759a8.75,8.75,0,0,1,2.056,4.992c0,2.639-10.577,65.772-11.16,76.349s.88,16.437-3.815,27.312-18.5,17.614-25.255,22.023-6.237,5.323-6.237,5.323,3.815,105.694,3.724,114" transform="translate(-46.357 -127.284)" fill="#fff"/><g transform="translate(11.423 63.396)" clip-path="url(#a)"><path d="M175.186,259.723c-1.222-5.471-9.138-2.433-9.138-2.433a53.081,53.081,0,0,1-19.418,13.353,235.5,235.5,0,0,0-35.741,17.077c1.3-2.616,2.719-5.254,4.249-8,7.893-13.958,21.852-32.772,29.7-35.2,4.843-1.485,9.675,1.588,12.691,4.192l.343-56.542h-.194c-4.706.88-8.224,3.233-8.807,6.168s-9.4,21.429-12.336,24.958S124.2,239.745,123.316,244.44a25.232,25.232,0,0,1-3.518,9.4c-1.142,1.759-10.577,16.14-17.328,29.071S92.818,311.32,92.932,312.2c.08.64-12.988,47.975-21.292,77.765,6.854-13.479,17.511-35.285,23.988-51.4,2.547-.251,7.482-7.151,11.571-12.771,4.855-6.671,12.131-8.5,26.706-19.418s30.944-26.1,33.377-32.166S176.4,265.184,175.186,259.723Z" transform="translate(-55.808 -190.468)" fill="#5c3caf" opacity="0.7"/></g><path d="M57.78,439.853c3.278-11.1,37.238-126.517,37.124-127.385s2.776-16.369,9.538-29.288,16.152-27.312,17.328-29.071a25.233,25.233,0,0,0,3.518-9.4c.88-4.695,10.28-17.625,13.216-21.143s11.742-22.023,12.336-24.958,4.1-5.289,8.807-6.168,11.16-1.759,11.16-1.759a8.75,8.75,0,0,1,2.056,4.992c0,2.639-10.577,65.772-11.16,76.349s.88,16.437-3.815,27.312-18.5,17.614-25.255,22.023-6.237,5.323-6.237,5.323,3.815,105.694,3.724,114" transform="translate(-46.357 -127.284)" fill="none" stroke="#2e353a" stroke-linecap="round" stroke-linejoin="round" stroke-width="1"/><path d="M147.244,254.428s-3.221-.3-6.454-6.168" transform="translate(-34.548 -119.093)" fill="none" stroke="#2e353a" stroke-linecap="round" stroke-linejoin="round" stroke-width="1"/><path d="M143.36,220.5s9.138,1.759,10.28,9.389" transform="translate(-34.182 -123.042)" fill="none" stroke="#2e353a" stroke-linecap="round" stroke-linejoin="round" stroke-width="1"/><path d="M145.93,199.67a18,18,0,0,1,7.048,12.942" transform="translate(-33.817 -126.005)" fill="none" stroke="#2e353a" stroke-linecap="round" stroke-linejoin="round" stroke-width="1"/><path d="M441.91,270.538l-.72-121.96a13.41,13.41,0,0,0-13.41-13.4H160.89a13.4,13.4,0,0,0-13.4,13.4l-.731,121.96A13.524,13.524,0,0,0,160.3,284.074H428.374a13.524,13.524,0,0,0,13.536-13.536Z" transform="translate(-33.699 -135.18)" fill="#2e353a" stroke="#363636" stroke-linecap="round" stroke-linejoin="round" stroke-width="0.869"/><path d="M425.042,276.632,424.46,140.92H160.471L159.9,276.632Z" transform="translate(-31.829 -134.363)" fill="#fff" stroke="#363636" stroke-linecap="round" stroke-linejoin="round" stroke-width="0.652"/><path d="M424.391,140.92H160.4l-.023,6.774h25.358l6.488,9.275H424.46Z" transform="translate(-31.761 -134.363)" fill="#5c3caf" stroke="#2e353a" stroke-linecap="round" stroke-linejoin="round" stroke-width="1"/><path d="M414.621,164.56,229.06,273.269H415.2Z" transform="translate(-21.99 -131)" fill="#5c3caf" opacity="0.5"/><circle cx="2.045" cy="2.045" r="2.045" transform="translate(397.941 76.365) rotate(-89.26)" fill="#fff"/><circle cx="10.931" cy="10.931" r="10.931" transform="translate(138.043 34.279)" fill="#5c3caf" stroke="#2e353a" stroke-linecap="round" stroke-linejoin="round" stroke-width="1"/><circle cx="10.931" cy="10.931" r="10.931" transform="translate(138.043 79.227)" fill="#fff" stroke="#2e353a" stroke-linecap="round" stroke-linejoin="round" stroke-width="1"/><circle cx="10.931" cy="10.931" r="10.931" transform="translate(212.747 34.279)" fill="#fff" stroke="#2e353a" stroke-linecap="round" stroke-linejoin="round" stroke-width="1"/><circle cx="10.931" cy="10.931" r="10.931" transform="translate(212.747 79.227)" fill="#5c3caf" stroke="#2e353a" stroke-linecap="round" stroke-linejoin="round" stroke-width="1"/><circle cx="10.931" cy="10.931" r="10.931" transform="translate(287.462 34.279)" fill="#5c3caf" stroke="#2e353a" stroke-linecap="round" stroke-linejoin="round" stroke-width="1"/><circle cx="10.931" cy="10.931" r="10.931" transform="translate(287.462 79.227)" fill="#5c3caf" stroke="#2e353a" stroke-linecap="round" stroke-linejoin="round" stroke-width="2"/><circle cx="10.931" cy="10.931" r="10.931" transform="translate(362.166 34.279)" fill="#5c3caf" stroke="#2e353a" stroke-linecap="round" stroke-linejoin="round" stroke-width="1"/><circle cx="10.931" cy="10.931" r="10.931" transform="translate(362.166 79.227)" fill="#fff" stroke="#2e353a" stroke-linecap="round" stroke-linejoin="round" stroke-width="1"/><line x2="35.81" transform="translate(167.97 60.015)" fill="none" stroke="#2e353a" stroke-linecap="round" stroke-linejoin="round" stroke-width="1"/><line x2="35.81" transform="translate(167.97 68.273)" fill="none" stroke="#2e353a" stroke-linecap="round" stroke-linejoin="round" stroke-width="1"/><line x2="35.81" transform="translate(167.97 76.543)" fill="none" stroke="#2e353a" stroke-linecap="round" stroke-linejoin="round" stroke-width="1"/><line x2="35.81" transform="translate(241.657 60.015)" fill="none" stroke="#2e353a" stroke-linecap="round" stroke-linejoin="round" stroke-width="1"/><line x2="35.81" transform="translate(241.657 68.273)" fill="none" stroke="#2e353a" stroke-linecap="round" stroke-linejoin="round" stroke-width="1"/><line x2="35.81" transform="translate(241.657 76.543)" fill="none" stroke="#2e353a" stroke-linecap="round" stroke-linejoin="round" stroke-width="1"/><line x2="35.81" transform="translate(320.165 60.015)" fill="none" stroke="#2e353a" stroke-linecap="round" stroke-linejoin="round" stroke-width="1"/><line x2="35.81" transform="translate(320.165 68.273)" fill="none" stroke="#2e353a" stroke-linecap="round" stroke-linejoin="round" stroke-width="1"/><line x2="35.81" transform="translate(320.165 76.543)" fill="none" stroke="#2e353a" stroke-linecap="round" stroke-linejoin="round" stroke-width="1"/><line x2="35.81" transform="translate(167.97 106.779)" fill="none" stroke="#2e353a" stroke-linecap="round" stroke-linejoin="round" stroke-width="1"/><line x2="35.81" transform="translate(167.97 115.049)" fill="none" stroke="#2e353a" stroke-linecap="round" stroke-linejoin="round" stroke-width="1"/><line x2="35.81" transform="translate(167.97 123.307)" fill="none" stroke="#2e353a" stroke-linecap="round" stroke-linejoin="round" stroke-width="1"/><line x2="35.81" transform="translate(241.657 106.779)" fill="none" stroke="#2e353a" stroke-linecap="round" stroke-linejoin="round" stroke-width="1"/><line x2="35.81" transform="translate(241.657 115.049)" fill="none" stroke="#2e353a" stroke-linecap="round" stroke-linejoin="round" stroke-width="1"/><line x2="35.81" transform="translate(241.657 123.307)" fill="none" stroke="#2e353a" stroke-linecap="round" stroke-linejoin="round" stroke-width="1"/><line x2="35.81" transform="translate(320.165 106.779)" fill="none" stroke="#2e353a" stroke-linecap="round" stroke-linejoin="round" stroke-width="1"/><line x2="35.81" transform="translate(320.165 115.049)" fill="none" stroke="#2e353a" stroke-linecap="round" stroke-linejoin="round" stroke-width="1"/><line x2="35.81" transform="translate(320.165 123.307)" fill="none" stroke="#2e353a" stroke-linecap="round" stroke-linejoin="round" stroke-width="1"/><line x2="6.785" transform="translate(276.828 90.719)" fill="#fff" stroke="#2e353a" stroke-linecap="round" stroke-linejoin="round" stroke-width="1"/><line y1="8.476" transform="translate(299.113 68.684)" fill="#fff" stroke="#2e353a" stroke-linecap="round" stroke-linejoin="round" stroke-width="1"/><line x2="4.363" y2="3.393" transform="translate(284.092 78.131)" fill="#fff" stroke="#2e353a" stroke-linecap="round" stroke-linejoin="round" stroke-width="1"/><line x1="5.334" y2="2.913" transform="translate(284.092 99.434)" fill="#fff" stroke="#2e353a" stroke-linecap="round" stroke-linejoin="round" stroke-width="1"/><line x1="6.785" transform="translate(315.094 90.719)" fill="#fff" stroke="#2e353a" stroke-linecap="round" stroke-linejoin="round" stroke-width="1"/><line x1="4.352" y2="3.393" transform="translate(310.25 78.131)" fill="#fff" stroke="#2e353a" stroke-linecap="round" stroke-linejoin="round" stroke-width="1"/><line x2="5.711" y2="20.401" transform="translate(293.836 113.176)" fill="none" stroke="#2e353a" stroke-linecap="round" stroke-linejoin="round" stroke-width="1"/><line x2="3.267" y2="10.612" transform="translate(288.113 110.72)" fill="none" stroke="#2e353a" stroke-linecap="round" stroke-linejoin="round" stroke-width="1"/><path d="M442,430.265s-27.129-50.031-30.99-58.8-6.774-22.594-7.722-26.386a25.5,25.5,0,0,1-.366-13.707c1.428-6.4.583-24.65,1.222-28.842s-1.953-17.305-3.427-24.65-4.809-12.565-9.309-13.136a8,8,0,0,0-7.036,2.753s-1.873-15.638-3.69-18.882-7.733-2.776-10.9-2-4.683,10.9-4.683,10.9-2.741-9.721-2.821-14.061-5.357-8.076-9.469-7.048-6.328,2.913-7.448,11.914.994,22.925.994,22.925l-2.136.868s-7.7-26.957-10.143-34.074-4.8-15.261-6.442-20.561-4.089-13.707-10.817-12.416-5.072,15.992-5.072,15.992,10.52,45.051,11.069,48.6,2.285,15.889,1.942,20-.331,14.849-.331,14.849L314.41,292.554a51.4,51.4,0,0,0-4.649-9.252c-3.427-5.529-11.046-10.68-15.992-9.138s-1.039,6.637,1.005,9.481,3.7,10.829,3.7,14.849,3.427,6.854,7.562,14.233,24.89,32.874,28.031,37.466a28.683,28.683,0,0,0,8.6,7.6s11.994,10.452,17.591,23.5,22.765,50.5,22.765,50.5" transform="translate(-13.126 -125.258)" fill="#fff"/><g transform="translate(278.243 79.666)" clip-path="url(#b)"><path d="M400.047,417.27c5.609-5.14,7-46.661,6.294-62.116v-.411c-2-5.163-3.552-9.355-3.907-10.76a25.5,25.5,0,0,1-.366-13.707c1.428-6.4.583-24.65,1.222-28.842.377-2.479-.388-8.121-1.371-13.833-4.066-.354-11.514,3.313-11.514,3.313s-5.871-8.544-9.7-8.841-10.463,5.711-10.463,5.711-3.8-12.816-11.617-11.5-10.006,0-13.09.137-5.586-7.368-8.67-14.735-7.5-34.919-10.12-40.63c0,0-4.1-11.491-9.412-7.665s-.32,16.334,2.17,23.839,3.827,21.76,5.848,28.557c2.285,7.573,1.142,18.825,3.233,27.072s7.459,10.92,4.5,21.7-9.424,7.345-16.631,1.005-10.772-20.858-14.849-19.418a18.276,18.276,0,0,0-4.066,1.565c.091,3.952,3.427,6.854,7.562,14.073s24.947,32.726,28.088,37.318a28.682,28.682,0,0,0,8.6,7.6s11.994,10.452,17.591,23.5c1.005,2.342,2.6,5.8,4.569,9.915,2.285,1.828-2.559-6.854-1.371-5.414C370.5,393.979,394.45,422.422,400.047,417.27Z" transform="translate(-290.491 -203.831)" fill="#5c3caf" opacity="0.7"/></g><path d="M442,430.265s-27.129-50.031-30.99-58.8-6.774-22.594-7.722-26.386a25.5,25.5,0,0,1-.366-13.707c1.428-6.4.583-24.65,1.222-28.842s-1.953-17.305-3.427-24.65-4.809-12.565-9.309-13.136a8,8,0,0,0-7.036,2.753s-1.873-15.638-3.69-18.882-7.733-2.776-10.9-2-4.683,10.9-4.683,10.9-2.741-9.721-2.821-14.061-5.357-8.076-9.469-7.048-6.328,2.913-7.448,11.914.994,22.925.994,22.925l-2.136.868s-7.7-26.957-10.143-34.074-4.8-15.261-6.442-20.561-4.089-13.707-10.817-12.416-5.072,15.992-5.072,15.992,10.52,45.051,11.069,48.6,2.285,15.889,1.942,20-.331,14.849-.331,14.849L314.41,292.554a51.4,51.4,0,0,0-4.649-9.252c-3.427-5.529-11.046-10.68-15.992-9.138s-1.039,6.637,1.005,9.481,3.7,10.829,3.7,14.849,3.427,6.854,7.562,14.233,24.89,32.874,28.031,37.466a28.683,28.683,0,0,0,8.6,7.6s11.994,10.452,17.591,23.5,22.765,50.5,22.765,50.5" transform="translate(-13.126 -125.258)" fill="none" stroke="#2e353a" stroke-linecap="round" stroke-linejoin="round" stroke-width="1"/><path d="M310.53,207.9s1.245,7.722,1.485,8.693c.537,2.182,9.561,1.142,10.28-.537.64-1.5.171-4.74.171-4.74" transform="translate(-10.4 -124.835)" fill="none" stroke="#2e353a" stroke-linecap="round" stroke-linejoin="round" stroke-width="1"/><path d="M297.343,275.361a4.66,4.66,0,0,0,.56-5.848c-2.125-3.164-3.313-3.872-3.313-3.872" transform="translate(-12.668 -116.62)" fill="none" stroke="#2e353a" stroke-linecap="round" stroke-linejoin="round" stroke-width="1"/><path d="M319.67,247.521s4.032,1.348,7.825-3.621" transform="translate(-9.1 -119.713)" fill="none" stroke="#2e353a" stroke-linecap="round" stroke-linejoin="round" stroke-width="0.75"/><path d="M320.09,244.463s5.38-4.032,9.492-3.7" transform="translate(-9.04 -120.162)" fill="none" stroke="#2e353a" stroke-linecap="round" stroke-linejoin="round" stroke-width="0.75"/><path d="M315.21,225.958s4.032-4.021,7.265-3.153" transform="translate(-9.734 -122.732)" fill="none" stroke="#2e353a" stroke-linecap="round" stroke-linejoin="round" stroke-width="0.75"/><path d="M318.53,224.748a11.822,11.822,0,0,0,4.98-.228" transform="translate(-9.262 -122.47)" fill="none" stroke="#2e353a" stroke-linecap="round" stroke-linejoin="round" stroke-width="0.75"/><line x2="2.125" y2="12.576" transform="translate(351.966 132.286)" fill="none" stroke="#2e353a" stroke-linecap="round" stroke-linejoin="round" stroke-width="1"/><line x2="2.273" y2="13.205" transform="translate(371.236 142.269)" fill="none" stroke="#2e353a" stroke-linecap="round" stroke-linejoin="round" stroke-width="1"/><path d="M320.321,292.17s-.571,9.881.377,13.707" transform="translate(-9.031 -112.846)" fill="none" stroke="#2e353a" stroke-linecap="round" stroke-linejoin="round" stroke-width="1"/><path d="M357.78,267.86s2.342,6.2,1.771,10.28" transform="translate(-3.678 -116.304)" fill="none" stroke="#2e353a" stroke-linecap="round" stroke-linejoin="round" stroke-width="0.75"/><path d="M374.55,273.47s1.588,3.2.64,9.024" transform="translate(-1.292 -115.506)" fill="none" stroke="#2e353a" stroke-linecap="round" stroke-linejoin="round" stroke-width="0.75"/><path d="M138.909,260.951s9.7-1.759,14.975-8.213,17.911-14.69,22.023-16.152,10.577-1.771,12.93.286,3.518,7.048,0,12.93-17.865,11.411-20.858,14.084-5.574,4.409-9.138,12.336a62.173,62.173,0,0,1-14.678,20.264c-5.586,4.992-15.855,13.513-21.143,16.734" transform="translate(-37.076 -120.921)" fill="#fff"/><g transform="translate(85.944 114.489)" clip-path="url(#c)"><path d="M175.186,259.723c-1.222-5.471-9.138-2.433-9.138-2.433a53.081,53.081,0,0,1-19.418,13.353,235.5,235.5,0,0,0-35.741,17.077c1.3-2.616,2.719-5.254,4.249-8,7.893-13.958,21.852-32.772,29.7-35.2,4.843-1.485,9.675,1.588,12.691,4.192l.343-56.542h-.194c-4.706.88-8.224,3.233-8.807,6.168s-9.4,21.429-12.336,24.958S124.2,239.745,123.316,244.44a25.232,25.232,0,0,1-3.518,9.4c-1.142,1.759-10.577,16.14-17.328,29.071S92.818,311.32,92.932,312.2c.08.64-12.988,47.975-21.292,77.765,6.854-13.479,17.511-35.285,23.988-51.4,2.547-.251,7.482-7.151,11.571-12.771,4.855-6.671,12.131-8.5,26.706-19.418s30.944-26.1,33.377-32.166S176.4,265.184,175.186,259.723Z" transform="translate(-130.33 -241.561)" fill="#5c3caf" opacity="0.7"/></g><path d="M138.909,260.951s9.7-1.759,14.975-8.213,17.911-14.69,22.023-16.152,10.577-1.771,12.93.286,3.518,7.048,0,12.93-17.865,11.411-20.858,14.084-5.574,4.409-9.138,12.336a62.173,62.173,0,0,1-14.678,20.264c-5.586,4.992-15.855,13.513-21.143,16.734" transform="translate(-37.076 -120.921)" fill="none" stroke="#2e353a" stroke-linecap="round" stroke-linejoin="round" stroke-width="1"/><path d="M182.5,247.353c-1.759,2.639-6.168,2.936-6.168,2.936s-1.759-3.815-2.936-6.168a10.463,10.463,0,0,0-3.815-3.815s1.474-3.815,4.409-3.815" transform="translate(-30.452 -120.767)" fill="none" stroke="#2e353a" stroke-linecap="round" stroke-linejoin="round" stroke-width="1"/><path d="M81.028,310.275a125.648,125.648,0,0,1,33.011-2.684c18.745.9,23.2,11.605,23.2,11.605l-.891,24.09s-9.812-7.139-30.339-9.812-31.229-.891-31.229-.891Z" transform="translate(-43.939 -110.675)" fill="#fff" stroke="#2e353a" stroke-linecap="round" stroke-linejoin="round" stroke-width="1"/><path d="M141.263,419.664l4.832-77.32c-31.229-18.745-67.474-12.782-67.474-12.782l-30.841,90.1Z" transform="translate(-47.78 -107.655)" fill="#2e353a" stroke="#2e353a" stroke-linecap="round" stroke-linejoin="round" stroke-width="1"/><path d="M343,359.928s3.05-12.177,19.8-22.08,41.887-6.088,41.887-6.088l3.8,9.892s-20.561-.754-35.787,7.619-22.845,18.276-22.845,18.276Z" transform="translate(-5.781 -107.317)" fill="#fff" stroke="#2e353a" stroke-linecap="round" stroke-linejoin="round" stroke-width="1"/><path d="M456.178,418.541,410.99,337.76s-17.134-4.5-37.695,3.872S344.35,366,344.35,366L353,418.541Z" transform="translate(-5.589 -106.532)" fill="#2e353a" stroke="#2e353a" stroke-linecap="round" stroke-linejoin="round" stroke-width="1"/><path d="M353.611,364.953c.571,2.456-.114,4.718-1.553,5.049s-3.061-1.382-3.632-3.838.114-4.718,1.542-5.049S353.028,362.5,353.611,364.953Z" transform="translate(-5.038 -103.043)" fill="#fff"/></g></g></svg>