<svg xmlns="http://www.w3.org/2000/svg" width="457.692" height="374.621" viewBox="0 0 457.692 374.621"><g transform="translate(-45.34 -80.66)"><g transform="translate(77.678 110.147)"><path d="M101.119,339c51.916,59.505,104.337,67.039,178.022,81.141s127.791,4.356,167.66-31.583c46.033-41.542,44.214-136.705-26.227-170.59-22.006-10.61-48.211-13.821-67.488-28.742-36.815-28.473-66.59-72.776-125.691-81.1s-98.947,31.325-98.947,31.325C79.911,192.6,49.2,279.445,101.119,339Z" transform="translate(-74.142 -106.978)" fill="#5c3caf"/><path d="M101.119,339c51.916,59.505,104.337,67.039,178.022,81.141s127.791,4.356,167.66-31.583c46.033-41.542,44.214-136.705-26.227-170.59-22.006-10.61-48.211-13.821-67.488-28.742-36.815-28.473-66.59-72.776-125.691-81.1s-98.947,31.325-98.947,31.325C79.911,192.6,49.2,279.445,101.119,339Z" transform="translate(-74.142 -106.978)" fill="#fff" opacity="0.7"/></g><g transform="translate(62.866 437.317)"><rect width="437.87" height="17.964" fill="#5c3caf"/><rect width="437.87" height="17.964" fill="#fff" opacity="0.5"/></g><g transform="translate(45.34 180.355)"><path d="M166.125,233.259a62.882,62.882,0,0,0-6.3,2.436c1.123-.82,2.245-1.673,3.368-2.537a163.316,163.316,0,0,0,14.248-12.912,155.013,155.013,0,0,1-16.841,14.18A35.77,35.77,0,0,0,162.757,230c1.123-2.8,1.325-5.614-1.336-7.107-3.29-1.841-7.264.909-6.22,5.614a17.358,17.358,0,0,0,3.626,7.129A107.528,107.528,0,0,1,146.7,242.9l-.393.2a39.98,39.98,0,0,0,2.347-4.772c1.055-2.784,1.325-5.614-1.347-7.1-3.29-1.853-7.264.909-6.209,5.614a17.391,17.391,0,0,0,3.548,7.051c-5.041,2.481-10.251,4.592-15.438,6.882l-.752.337a34.6,34.6,0,0,0,2.818-3.447c1.684-2.47,2.594-5.142.348-7.219-2.762-2.56-7.287-.808-7.354,4.042a17.346,17.346,0,0,0,1.819,7.713,79.368,79.368,0,0,0-13.765,8.218l-.135.112a30.809,30.809,0,0,0,1.594-2.852c1.269-2.706,1.74-5.49-.82-7.186a4.177,4.177,0,0,0-6.265,1.942,3.941,3.941,0,0,0-1.336-1.28c-2.571-1.482-5.1.124-7.264,2.391-.561.6-1.123,1.235-1.606,1.864a79.2,79.2,0,0,1,6.276-13.361,19.21,19.21,0,0,0,7.556,1.606c5.12,0,7.275-4.266,4.76-6.916-2.043-2.144-4.918-1.325-7.635.247a28.692,28.692,0,0,0-2.594,1.707,77.626,77.626,0,0,1,8.825-10.98,19.233,19.233,0,0,0,7.3,3.671c4.974,1.224,8.095-2.38,6.3-5.558-1.46-2.582-4.491-2.481-7.466-1.617a34.516,34.516,0,0,0-4.177,1.549c1.359-1.325,2.762-2.594,4.188-3.851,1.864-1.594,3.795-3.132,5.76-4.637a19.188,19.188,0,0,0,7.174,3.582c4.974,1.224,8.095-2.38,6.3-5.558-1.46-2.582-4.491-2.481-7.477-1.617-.7.2-1.4.449-2.088.707,2.594-1.853,5.221-3.66,7.859-5.457l2.436-1.673a19.289,19.289,0,0,0,7.545,3.885c4.974,1.224,8.106-2.38,6.31-5.558-1.471-2.582-4.491-2.481-7.477-1.617q-1.763.539-3.469,1.246h0l1.5-1.123c.921-.662,1.841-1.336,2.74-2.043,1.123-.842,2.189-1.774,3.278-2.672.629-.494,1.224-1.022,1.819-1.561a19.233,19.233,0,0,0,7.59,3.918c4.974,1.224,8.095-2.38,6.3-5.558-1.46-2.582-4.491-2.481-7.466-1.617a42.156,42.156,0,0,0-4.9,1.853h0c2.032-1.886,4-3.851,5.861-5.894.124-.146.236-.292.371-.427.8-.887,1.583-1.785,2.347-2.717s1.751-2.156,2.582-3.278a64.255,64.255,0,0,0,8.353-14.6,64,64,0,0,1-8.634,14.371,90.349,90.349,0,0,1-11.531,12.182l-.46.393a42.667,42.667,0,0,0,2.537-5.064c1.067-2.784,1.325-5.614-1.347-7.1-3.278-1.853-7.264.909-6.209,5.614a17.459,17.459,0,0,0,3.941,7.5l-.988.853-1.123.966c-.651.528-1.325,1.033-2,1.538-.359.269-.707.55-1.123.82-.954.707-1.92,1.392-2.9,2.066l-1.4.954-1.594,1.123a38.992,38.992,0,0,0,2.448-4.951c1.067-2.8,1.325-5.614-1.336-7.1-3.29-1.853-7.275.909-6.22,5.614a17.369,17.369,0,0,0,3.761,7.309l-1.123.763-4.367,2.863-.865.561-2.436,1.628-1.055.707c-1.123.775-2.245,1.561-3.368,2.369a39.633,39.633,0,0,0,2.358-5.019c1.123-2.784,1.325-5.614-1.336-7.1-3.29-1.853-7.264.909-6.209,5.614a17.3,17.3,0,0,0,3.84,7.388c-1.909,1.4-3.795,2.841-5.614,4.345-1.336,1.123-2.65,2.245-3.941,3.458a30.924,30.924,0,0,0,1.5-3.211c1.055-2.8,1.325-5.614-1.347-7.1-3.29-1.853-7.264.909-6.209,5.614a17.391,17.391,0,0,0,3.548,7.051,78.841,78.841,0,0,0-9.779,11.822,29.986,29.986,0,0,0,.741-3.728c.359-2.964-.067-5.748-3.02-6.557-3.638-1-6.826,2.638-4.659,6.972a17.391,17.391,0,0,0,5.21,6.029,81.714,81.714,0,0,0-7.051,14.6A30.135,30.135,0,0,0,93.4,252.5c-.505-2.953-1.7-5.5-4.76-5.445-3.772.079-5.8,4.491-2.492,8.016a17.111,17.111,0,0,0,6.31,4.165,102.565,102.565,0,0,0-3.11,11.98c-.135.64-.236,1.28-.359,1.92-.135.124-.269.247-.393.382-.135-.55-.292-1.123-.472-1.65-.943-2.829-2.515-5.176-5.535-4.637-3.705.651-5.041,5.3-1.224,8.3a16.987,16.987,0,0,0,6.557,3.065c0,.112.09.213.146.326-.415,3.043-.73,6.108-.921,9.184-.146,2.245-.225,4.592-.269,6.894-3.211,0-5.479,3.525-3.267,7.343a16.19,16.19,0,0,0,3.537,4.177c.269,4.323.7,8.645,1.269,12.934a3.559,3.559,0,0,0-3.436-.8c-2.021.55-2.93,2.178-3.256,4.177a4,4,0,0,0-1.123,2.773c-1.5-2.245-2.93-4.491-4.311-6.86a19.087,19.087,0,0,0,5.131-5.984c2.414-4.491-.314-8.432-3.829-7.477-2.874.786-3.5,3.705-3.368,6.838a31.346,31.346,0,0,0,.337,3.548l-1.482-2.6c-1.235-2.245-2.245-4.491-3.458-6.736-.292-.55-.55-1.123-.786-1.684a19.086,19.086,0,0,0,6.141-4.906c3.222-3.975,1.28-8.342-2.358-8.061-2.964.236-4.143,2.987-4.637,6.085a38.169,38.169,0,0,0-.359,4.076L66.571,299.4a125.173,125.173,0,0,1-5.535-17,19.087,19.087,0,0,0,7.118-4.491c3.6-3.649,2.111-8.174-1.538-8.263-2.964-.067-4.412,2.549-5.221,5.614a41.022,41.022,0,0,0-.887,4.94q-1.179-4.985-2.021-10.1c-.382-2.088-.629-4.21-.887-6.321a19.356,19.356,0,0,0,7.927-3.559c4.042-3.144,3.155-7.859-.46-8.387-2.93-.46-4.7,1.954-5.894,4.861a48.522,48.522,0,0,0-1.751,5.614c-.225-2.448-.483-4.906-.6-7.365a115.157,115.157,0,0,1,0-15.247,115.563,115.563,0,0,0-.528,15.269c0,2.347.2,4.682.348,7.028a37.532,37.532,0,0,0-2.245-4.637c-1.527-2.571-3.57-4.491-6.4-3.368-3.492,1.437-3.795,6.265.584,8.376a17.38,17.38,0,0,0,8.207,1.561c.2,2.1.382,4.188.7,6.265.438,3.368,1,6.6,1.662,9.869a33.412,33.412,0,0,0-2.391-3.6c-1.853-2.347-4.12-4.008-6.736-2.493-3.267,1.875-2.953,6.736,1.662,8.23a17.4,17.4,0,0,0,8.073.539A129.936,129.936,0,0,0,64.8,299.962l.662,1.684a24.4,24.4,0,0,0-1.92-2.246c-2.077-2.156-4.491-3.582-6.995-1.8-3.065,2.245-2.245,6.961,2.47,8.016a17.37,17.37,0,0,0,7.859-.225c.236.573.472,1.123.752,1.707,1.123,2.313,2.122,4.682,3.3,6.95l.977,1.965c-.584-.505-1.19-.988-1.819-1.437-2.448-1.718-5.1-2.661-7.208-.449-2.6,2.728-.921,7.264,3.93,7.41a17.19,17.19,0,0,0,7.343-1.46c1.392,2.515,2.818,5,4.367,7.433.573.932,1.123,1.853,1.774,2.773a28.855,28.855,0,0,0-2.784-2.245c-2.448-1.718-5.1-2.661-7.219-.449-2.594,2.728-.909,7.264,3.941,7.41a17.459,17.459,0,0,0,7.994-1.83q1.213,1.684,2.492,3.368c-1.808,2.1-1.213,5.614,2.459,7.219a16.38,16.38,0,0,0,5.614,1.246c.225.18.449.359.7.528l.112.09q3.481,13,8.252,25.621c1.347,3.582,2.8,7.129,4.289,10.655H92.664v53.128h41.171V381.855H111.919c-1.875-4.1-3.683-8.241-5.367-12.429-2.751-6.871-5.243-13.855-7.41-20.939h0a9.574,9.574,0,0,0,1.123.258,4.9,4.9,0,0,0,1.516.067l-.584-3.694H100.8a6.926,6.926,0,0,1-.7-.135,10.7,10.7,0,0,1-1.516-.561l-.584-.269a19.009,19.009,0,0,0,5.939-3.368c3.9-3.368,2.8-7.971-.842-8.364-2.942-.326-4.6,2.167-5.614,5.12-.3.842-.55,1.718-.763,2.571-.213-.786-.427-1.572-.629-2.358-.6-2.324-1.123-4.671-1.662-7.017a18.9,18.9,0,0,0,6.433-3.492c3.9-3.368,2.784-7.96-.842-8.353-2.953-.326-4.6,2.167-5.614,5.12-.3.853-.561,1.74-.786,2.616-.337-1.707-.662-3.424-.966-5.142-.213-1.269-.415-2.549-.606-3.829-.067-1.819-.1-3.638-.079-5.468,0-1,0-2,.09-3a19.2,19.2,0,0,0,6.815.865c5.12-.337,7.006-4.716,4.334-7.2-2.178-2.032-5-1.022-7.612.707a35.8,35.8,0,0,0-3.368,2.594,82.07,82.07,0,0,1,1.942-12.687,64.768,64.768,0,0,1,2.144-7.253,19.232,19.232,0,0,0,7.309,1.022c5.12-.326,7.006-4.7,4.334-7.2-2.167-2.021-5-1.022-7.612.719a29.538,29.538,0,0,0-2.627,2.032,54.294,54.294,0,0,1,3.436-6.736,49.5,49.5,0,0,1,9.588-11.688,18.985,18.985,0,0,0,6.793,4.031c4.873,1.594,8.252-1.774,6.736-5.075-1.269-2.683-4.255-2.807-7.332-2.167a31.053,31.053,0,0,0-3.5.966l.079-.067A77.472,77.472,0,0,1,127,253.615a19.323,19.323,0,0,0,6.265,5.322c4.558,2.347,8.432-.438,7.421-3.941-.82-2.852-3.75-3.447-6.882-3.368a33.37,33.37,0,0,0-3.671.4c5.064-2.391,10.228-4.648,15.213-7.287h.112a19.087,19.087,0,0,0,7.736,4.042c4.974,1.235,8.1-2.38,6.3-5.614-1.46-2.582-4.491-2.47-7.466-1.617-.842.247-1.684.55-2.5.865a111.5,111.5,0,0,0,9.667-6.31l.258.281v-.146a19.491,19.491,0,0,0,7.8,4.1c4.963,1.224,8.095-2.38,6.3-5.614C172.132,232.294,169.145,232.395,166.125,233.259Zm-78.5,101.732c-1.022-1.19-1.987-2.436-2.93-3.694.225-.2.472-.427.719-.674a17.651,17.651,0,0,0,4.323.775v.236l.685-.146c.359,1.774.73,3.537,1.123,5.3A4.592,4.592,0,0,0,87.623,334.991Zm3.66-42.271c-.348,1.325-.64,2.65-.921,3.986l-.168-.236q0-4.109.124-8.2c.079-1.909.213-3.806.382-5.715a19.779,19.779,0,0,0,3.031,2.526,73.543,73.543,0,0,0-2.436,7.635Zm4.6-12.575c.067-.494.124-1,.146-1.493V277.9c.4-.123.82-.269,1.224-.438-.449.887-.921,1.785-1.359,2.683Zm5.85-9.487a3.582,3.582,0,0,0-2.055-1.931c-2.773-1.123-5.019.9-6.8,3.481l-.09.123h-.18a3.375,3.375,0,0,0-.573-.079.932.932,0,0,1,.079-.46,100.318,100.318,0,0,1,2.874-12,19.087,19.087,0,0,0,7.691-.6,6.546,6.546,0,0,0,3.772-2.683,17.335,17.335,0,0,0,2.773,6.3,51.523,51.523,0,0,0-7.477,7.859Z" transform="translate(-45.34 -169.51)" fill="#5c3caf"/><path d="M166.125,233.259a62.882,62.882,0,0,0-6.3,2.436c1.123-.82,2.245-1.673,3.368-2.537a163.316,163.316,0,0,0,14.248-12.912,155.013,155.013,0,0,1-16.841,14.18A35.77,35.77,0,0,0,162.757,230c1.123-2.8,1.325-5.614-1.336-7.107-3.29-1.841-7.264.909-6.22,5.614a17.358,17.358,0,0,0,3.626,7.129A107.528,107.528,0,0,1,146.7,242.9l-.393.2a39.98,39.98,0,0,0,2.347-4.772c1.055-2.784,1.325-5.614-1.347-7.1-3.29-1.853-7.264.909-6.209,5.614a17.391,17.391,0,0,0,3.548,7.051c-5.041,2.481-10.251,4.592-15.438,6.882l-.752.337a34.6,34.6,0,0,0,2.818-3.447c1.684-2.47,2.594-5.142.348-7.219-2.762-2.56-7.287-.808-7.354,4.042a17.346,17.346,0,0,0,1.819,7.713,79.368,79.368,0,0,0-13.765,8.218l-.135.112a30.809,30.809,0,0,0,1.594-2.852c1.269-2.706,1.74-5.49-.82-7.186a4.177,4.177,0,0,0-6.265,1.942,3.941,3.941,0,0,0-1.336-1.28c-2.571-1.482-5.1.124-7.264,2.391-.561.6-1.123,1.235-1.606,1.864a79.2,79.2,0,0,1,6.276-13.361,19.21,19.21,0,0,0,7.556,1.606c5.12,0,7.275-4.266,4.76-6.916-2.043-2.144-4.918-1.325-7.635.247a28.692,28.692,0,0,0-2.594,1.707,77.626,77.626,0,0,1,8.825-10.98,19.233,19.233,0,0,0,7.3,3.671c4.974,1.224,8.095-2.38,6.3-5.558-1.46-2.582-4.491-2.481-7.466-1.617a34.516,34.516,0,0,0-4.177,1.549c1.359-1.325,2.762-2.594,4.188-3.851,1.864-1.594,3.795-3.132,5.76-4.637a19.188,19.188,0,0,0,7.174,3.582c4.974,1.224,8.095-2.38,6.3-5.558-1.46-2.582-4.491-2.481-7.477-1.617-.7.2-1.4.449-2.088.707,2.594-1.853,5.221-3.66,7.859-5.457l2.436-1.673a19.289,19.289,0,0,0,7.545,3.885c4.974,1.224,8.106-2.38,6.31-5.558-1.471-2.582-4.491-2.481-7.477-1.617q-1.763.539-3.469,1.246h0l1.5-1.123c.921-.662,1.841-1.336,2.74-2.043,1.123-.842,2.189-1.774,3.278-2.672.629-.494,1.224-1.022,1.819-1.561a19.233,19.233,0,0,0,7.59,3.918c4.974,1.224,8.095-2.38,6.3-5.558-1.46-2.582-4.491-2.481-7.466-1.617a42.156,42.156,0,0,0-4.9,1.853h0c2.032-1.886,4-3.851,5.861-5.894.124-.146.236-.292.371-.427.8-.887,1.583-1.785,2.347-2.717s1.751-2.156,2.582-3.278a64.255,64.255,0,0,0,8.353-14.6,64,64,0,0,1-8.634,14.371,90.349,90.349,0,0,1-11.531,12.182l-.46.393a42.667,42.667,0,0,0,2.537-5.064c1.067-2.784,1.325-5.614-1.347-7.1-3.278-1.853-7.264.909-6.209,5.614a17.459,17.459,0,0,0,3.941,7.5l-.988.853-1.123.966c-.651.528-1.325,1.033-2,1.538-.359.269-.707.55-1.123.82-.954.707-1.92,1.392-2.9,2.066l-1.4.954-1.594,1.123a38.992,38.992,0,0,0,2.448-4.951c1.067-2.8,1.325-5.614-1.336-7.1-3.29-1.853-7.275.909-6.22,5.614a17.369,17.369,0,0,0,3.761,7.309l-1.123.763-4.367,2.863-.865.561-2.436,1.628-1.055.707c-1.123.775-2.245,1.561-3.368,2.369a39.633,39.633,0,0,0,2.358-5.019c1.123-2.784,1.325-5.614-1.336-7.1-3.29-1.853-7.264.909-6.209,5.614a17.3,17.3,0,0,0,3.84,7.388c-1.909,1.4-3.795,2.841-5.614,4.345-1.336,1.123-2.65,2.245-3.941,3.458a30.924,30.924,0,0,0,1.5-3.211c1.055-2.8,1.325-5.614-1.347-7.1-3.29-1.853-7.264.909-6.209,5.614a17.391,17.391,0,0,0,3.548,7.051,78.841,78.841,0,0,0-9.779,11.822,29.986,29.986,0,0,0,.741-3.728c.359-2.964-.067-5.748-3.02-6.557-3.638-1-6.826,2.638-4.659,6.972a17.391,17.391,0,0,0,5.21,6.029,81.714,81.714,0,0,0-7.051,14.6A30.135,30.135,0,0,0,93.4,252.5c-.505-2.953-1.7-5.5-4.76-5.445-3.772.079-5.8,4.491-2.492,8.016a17.111,17.111,0,0,0,6.31,4.165,102.565,102.565,0,0,0-3.11,11.98c-.135.64-.236,1.28-.359,1.92-.135.124-.269.247-.393.382-.135-.55-.292-1.123-.472-1.65-.943-2.829-2.515-5.176-5.535-4.637-3.705.651-5.041,5.3-1.224,8.3a16.987,16.987,0,0,0,6.557,3.065c0,.112.09.213.146.326-.415,3.043-.73,6.108-.921,9.184-.146,2.245-.225,4.592-.269,6.894-3.211,0-5.479,3.525-3.267,7.343a16.19,16.19,0,0,0,3.537,4.177c.269,4.323.7,8.645,1.269,12.934a3.559,3.559,0,0,0-3.436-.8c-2.021.55-2.93,2.178-3.256,4.177a4,4,0,0,0-1.123,2.773c-1.5-2.245-2.93-4.491-4.311-6.86a19.087,19.087,0,0,0,5.131-5.984c2.414-4.491-.314-8.432-3.829-7.477-2.874.786-3.5,3.705-3.368,6.838a31.346,31.346,0,0,0,.337,3.548l-1.482-2.6c-1.235-2.245-2.245-4.491-3.458-6.736-.292-.55-.55-1.123-.786-1.684a19.086,19.086,0,0,0,6.141-4.906c3.222-3.975,1.28-8.342-2.358-8.061-2.964.236-4.143,2.987-4.637,6.085a38.169,38.169,0,0,0-.359,4.076L66.571,299.4a125.173,125.173,0,0,1-5.535-17,19.087,19.087,0,0,0,7.118-4.491c3.6-3.649,2.111-8.174-1.538-8.263-2.964-.067-4.412,2.549-5.221,5.614a41.022,41.022,0,0,0-.887,4.94q-1.179-4.985-2.021-10.1c-.382-2.088-.629-4.21-.887-6.321a19.356,19.356,0,0,0,7.927-3.559c4.042-3.144,3.155-7.859-.46-8.387-2.93-.46-4.7,1.954-5.894,4.861a48.522,48.522,0,0,0-1.751,5.614c-.225-2.448-.483-4.906-.6-7.365a115.157,115.157,0,0,1,0-15.247,115.563,115.563,0,0,0-.528,15.269c0,2.347.2,4.682.348,7.028a37.532,37.532,0,0,0-2.245-4.637c-1.527-2.571-3.57-4.491-6.4-3.368-3.492,1.437-3.795,6.265.584,8.376a17.38,17.38,0,0,0,8.207,1.561c.2,2.1.382,4.188.7,6.265.438,3.368,1,6.6,1.662,9.869a33.412,33.412,0,0,0-2.391-3.6c-1.853-2.347-4.12-4.008-6.736-2.493-3.267,1.875-2.953,6.736,1.662,8.23a17.4,17.4,0,0,0,8.073.539A129.936,129.936,0,0,0,64.8,299.962l.662,1.684a24.4,24.4,0,0,0-1.92-2.246c-2.077-2.156-4.491-3.582-6.995-1.8-3.065,2.245-2.245,6.961,2.47,8.016a17.37,17.37,0,0,0,7.859-.225c.236.573.472,1.123.752,1.707,1.123,2.313,2.122,4.682,3.3,6.95l.977,1.965c-.584-.505-1.19-.988-1.819-1.437-2.448-1.718-5.1-2.661-7.208-.449-2.6,2.728-.921,7.264,3.93,7.41a17.19,17.19,0,0,0,7.343-1.46c1.392,2.515,2.818,5,4.367,7.433.573.932,1.123,1.853,1.774,2.773a28.855,28.855,0,0,0-2.784-2.245c-2.448-1.718-5.1-2.661-7.219-.449-2.594,2.728-.909,7.264,3.941,7.41a17.459,17.459,0,0,0,7.994-1.83q1.213,1.684,2.492,3.368c-1.808,2.1-1.213,5.614,2.459,7.219a16.38,16.38,0,0,0,5.614,1.246c.225.18.449.359.7.528l.112.09q3.481,13,8.252,25.621c1.347,3.582,2.8,7.129,4.289,10.655H92.664v53.128h41.171V381.855H111.919c-1.875-4.1-3.683-8.241-5.367-12.429-2.751-6.871-5.243-13.855-7.41-20.939h0a9.574,9.574,0,0,0,1.123.258,4.9,4.9,0,0,0,1.516.067l-.584-3.694H100.8a6.926,6.926,0,0,1-.7-.135,10.7,10.7,0,0,1-1.516-.561l-.584-.269a19.009,19.009,0,0,0,5.939-3.368c3.9-3.368,2.8-7.971-.842-8.364-2.942-.326-4.6,2.167-5.614,5.12-.3.842-.55,1.718-.763,2.571-.213-.786-.427-1.572-.629-2.358-.6-2.324-1.123-4.671-1.662-7.017a18.9,18.9,0,0,0,6.433-3.492c3.9-3.368,2.784-7.96-.842-8.353-2.953-.326-4.6,2.167-5.614,5.12-.3.853-.561,1.74-.786,2.616-.337-1.707-.662-3.424-.966-5.142-.213-1.269-.415-2.549-.606-3.829-.067-1.819-.1-3.638-.079-5.468,0-1,0-2,.09-3a19.2,19.2,0,0,0,6.815.865c5.12-.337,7.006-4.716,4.334-7.2-2.178-2.032-5-1.022-7.612.707a35.8,35.8,0,0,0-3.368,2.594,82.07,82.07,0,0,1,1.942-12.687,64.768,64.768,0,0,1,2.144-7.253,19.232,19.232,0,0,0,7.309,1.022c5.12-.326,7.006-4.7,4.334-7.2-2.167-2.021-5-1.022-7.612.719a29.538,29.538,0,0,0-2.627,2.032,54.294,54.294,0,0,1,3.436-6.736,49.5,49.5,0,0,1,9.588-11.688,18.985,18.985,0,0,0,6.793,4.031c4.873,1.594,8.252-1.774,6.736-5.075-1.269-2.683-4.255-2.807-7.332-2.167a31.053,31.053,0,0,0-3.5.966l.079-.067A77.472,77.472,0,0,1,127,253.615a19.323,19.323,0,0,0,6.265,5.322c4.558,2.347,8.432-.438,7.421-3.941-.82-2.852-3.75-3.447-6.882-3.368a33.37,33.37,0,0,0-3.671.4c5.064-2.391,10.228-4.648,15.213-7.287h.112a19.087,19.087,0,0,0,7.736,4.042c4.974,1.235,8.1-2.38,6.3-5.614-1.46-2.582-4.491-2.47-7.466-1.617-.842.247-1.684.55-2.5.865a111.5,111.5,0,0,0,9.667-6.31l.258.281v-.146a19.491,19.491,0,0,0,7.8,4.1c4.963,1.224,8.095-2.38,6.3-5.614C172.132,232.294,169.145,232.395,166.125,233.259Zm-78.5,101.732c-1.022-1.19-1.987-2.436-2.93-3.694.225-.2.472-.427.719-.674a17.651,17.651,0,0,0,4.323.775v.236l.685-.146c.359,1.774.73,3.537,1.123,5.3A4.592,4.592,0,0,0,87.623,334.991Zm3.66-42.271c-.348,1.325-.64,2.65-.921,3.986l-.168-.236q0-4.109.124-8.2c.079-1.909.213-3.806.382-5.715a19.779,19.779,0,0,0,3.031,2.526,73.543,73.543,0,0,0-2.436,7.635Zm4.6-12.575c.067-.494.124-1,.146-1.493V277.9c.4-.123.82-.269,1.224-.438-.449.887-.921,1.785-1.359,2.683Zm5.85-9.487a3.582,3.582,0,0,0-2.055-1.931c-2.773-1.123-5.019.9-6.8,3.481l-.09.123h-.18a3.375,3.375,0,0,0-.573-.079.932.932,0,0,1,.079-.46,100.318,100.318,0,0,1,2.874-12,19.087,19.087,0,0,0,7.691-.6,6.546,6.546,0,0,0,3.772-2.683,17.335,17.335,0,0,0,2.773,6.3,51.523,51.523,0,0,0-7.477,7.859Z" transform="translate(-45.34 -169.51)" fill="#fff" opacity="0.3"/><path d="M402.209,371.711s-5.434-12.137-6.736-13.383-11.71-5.019-14.6-14.6-8.364-35.142,5.445-33.469,10.453,28.45,15.471,27.608-4.177-43.5,4.6-49.4,23.005-.415,21.332,22.174-5.019,35.546-2.088,34.3,11.295-5.861,11.295,3.761-7.949,16.313-12.552,16.729-6.736.842-6.736.842v6.265Z" transform="translate(-4.589 -155.179)" fill="#2e353a" stroke="#2e353a" stroke-linecap="round" stroke-linejoin="round" stroke-width="1"/><path d="M396.866,344.564c-3.155-2.987-6.052-5.883-7.388-8.544-2.65-5.311-4.648-20.209-4.648-20.209" transform="translate(-3.67 -151.552)" fill="none" stroke="#fff" stroke-linecap="round" stroke-linejoin="round" stroke-width="0.5"/><path d="M380.64,322.29c2.088,8.7,2.38,15.258,8.69,22.893,3.368,4.132,12.283,7.635,13.282,11.284a132.534,132.534,0,0,1,2.01,13.282l4.985.337s1.01-8.645-1.841-14.809" transform="translate(-4.184 -150.757)" fill="none" stroke="#fff" stroke-linecap="round" stroke-linejoin="round" stroke-width="0.5"/><path d="M382.174,309.86s-3.728,2.863-2.4,9.914" transform="translate(-4.326 -152.283)" fill="none" stroke="#fff" stroke-linecap="round" stroke-linejoin="round" stroke-width="0.5"/><line x1="1.976" y2="3.2" transform="translate(399.753 183.254)" fill="none" stroke="#fff" stroke-linecap="round" stroke-linejoin="round" stroke-width="0.5"/><line x1="0.685" y2="1.112" transform="translate(401.729 182.143)" fill="none" stroke="#fff" stroke-linecap="round" stroke-linejoin="round" stroke-width="0.5"/><path d="M410.5,289.16s-7.635-.326-7.635,6.972c0,6.164,1.886,27.2,1.482,36.826" transform="translate(-1.456 -154.824)" fill="none" stroke="#fff" stroke-linecap="round" stroke-linejoin="round" stroke-width="0.5"/><path d="M415.432,343.03c-.18,2.5-.292,4.278-.292,4.951,0,3.649,9.285-10.3,13.608-10.621,0,0,4.311-.337,2.65,7.635A16.594,16.594,0,0,1,419.788,357.6c-3.66,1-6.647-.662-7.309,1a30.741,30.741,0,0,0-1,5.973" transform="translate(-0.399 -148.908)" fill="none" stroke="#fff" stroke-linecap="round" stroke-linejoin="round" stroke-width="0.5"/><path d="M417.112,295.33a29.483,29.483,0,0,1,.808,7.354c0,7.769-1.482,26.093-2.47,38.465" transform="translate(0.089 -154.066)" fill="none" stroke="#fff" stroke-linecap="round" stroke-linejoin="round" stroke-width="0.5"/><path d="M413.51,289.76a5.883,5.883,0,0,1,2.324,2.448" transform="translate(-0.15 -154.75)" fill="none" stroke="#fff" stroke-linecap="round" stroke-linejoin="round" stroke-width="0.5"/><line x1="0.236" y2="4.648" transform="translate(407.724 192.102)" fill="none" stroke="#fff" stroke-linecap="round" stroke-linejoin="round" stroke-width="0.5"/><path d="M410.433,293.3s-1.987.662-1.325,7.635c.55,5.76,0,31.908-.258,40.834" transform="translate(-0.722 -154.315)" fill="none" stroke="#fff" stroke-linecap="round" stroke-linejoin="round" stroke-width="0.5"/><path d="M431.358,339.13a26.857,26.857,0,0,1-12.945,11.957c-8.982,3.649-9.3,1.987-9.3,5.614s-.337,10.3-.337,10.3" transform="translate(-0.73 -148.69)" fill="none" stroke="#fff" stroke-linecap="round" stroke-linejoin="round" stroke-width="0.5"/><path d="M421.65,410.564H392.639L386.43,368.54h41.429Z" transform="translate(-3.473 -145.08)" fill="#5c3caf" stroke="#2e353a" stroke-linecap="round" stroke-linejoin="round" stroke-width="1"/><rect width="48.547" height="11.25" transform="translate(379.397 216.836)" fill="#5c3caf" stroke="#2e353a" stroke-linecap="round" stroke-linejoin="round" stroke-width="1"/></g><g transform="translate(135.609 199.396)"><path d="M284.367,383.264V360.45H217.182v22.814a33.042,33.042,0,0,1-7.141,20.468l-2.942,3.705h87.35l-2.942-3.705a33.043,33.043,0,0,1-7.141-20.468Z" transform="translate(-115.753 -165.115)" fill="#fff" stroke="#2e353a" stroke-linecap="round" stroke-linejoin="round" stroke-width="1"/><path d="M212.4,399.241h75.448a32.987,32.987,0,0,1-4.132-15.977V360.45H216.532v22.814a32.979,32.979,0,0,1-4.128,15.97Z" transform="translate(-115.103 -165.115)" fill="#5c3caf"/><rect width="270.031" height="202.532" rx="8.48" fill="#2e353a" stroke="#2e353a" stroke-linecap="round" stroke-linejoin="round" stroke-width="1"/><path d="M125.74,338.82H395.783v21.95a9.521,9.521,0,0,1-9.521,9.521H135.272a9.521,9.521,0,0,1-9.521-9.521h0V338.82Z" transform="translate(-125.74 -167.77)" fill="#fff" stroke="#2e353a" stroke-linecap="round" stroke-linejoin="round" stroke-width="1"/><rect width="242.872" height="143.083" transform="translate(13.585 12.608)" fill="#fff" stroke="#2e353a" stroke-linecap="round" stroke-linejoin="round" stroke-width="1"/><path d="M251.53,353.385a4.985,4.985,0,1,0-4.985,4.985,4.985,4.985,0,0,0,4.985-4.985Z" transform="translate(-111.524 -166.594)" fill="#2e353a" stroke="#2e353a" stroke-linecap="round" stroke-linejoin="round" stroke-width="1"/><rect width="87.361" height="4.076" transform="translate(91.347 242.367)" fill="#fff" stroke="#2e353a" stroke-linecap="round" stroke-linejoin="round" stroke-width="1"/><rect width="238.684" height="12.541" transform="translate(15.494 22.691)" fill="#fff" stroke="#2e353a" stroke-linecap="round" stroke-linejoin="round" stroke-width="1"/><path d="M178.926,218.7l-2.863-7.747H139.54V333.06H378.224V218.7Z" transform="translate(-124.046 -183.465)" fill="#5c3caf" stroke="#2e353a" stroke-linecap="round" stroke-linejoin="round" stroke-width="1"/><line x2="111.915" transform="translate(79.737 91.942)" fill="none" stroke="#2e353a" stroke-linecap="round" stroke-linejoin="round" stroke-width="2"/><line x2="111.915" transform="translate(79.737 102.944)" fill="none" stroke="#2e353a" stroke-linecap="round" stroke-linejoin="round" stroke-width="2"/><line x2="111.915" transform="translate(79.737 113.947)" fill="none" stroke="#2e353a" stroke-linecap="round" stroke-linejoin="round" stroke-width="2"/><line x2="111.915" transform="translate(79.737 124.961)" fill="none" stroke="#2e353a" stroke-linecap="round" stroke-linejoin="round" stroke-width="2"/><g transform="translate(88.658 29.154)"><path d="M51.4,53.97a4.255,4.255,0,0,0-.363-1.84,4.5,4.5,0,0,0-3.722-2.888,4.546,4.546,0,0,0-3.4.647,2.087,2.087,0,0,0-.438.226,4.706,4.706,0,0,0-1.874,3.7A4.546,4.546,0,0,0,43.5,57.624a3.047,3.047,0,0,0,2.395.9.673.673,0,0,0,.406.1,5,5,0,0,0,2.138-.336c.406-.205.559-.091.63.35-.214.169-.292.463-.556.583l-.322.376a8.358,8.358,0,0,1-1.465.529.57.57,0,0,0-.223.068c-.325.445-.141.936-.108,1.405a.329.329,0,0,0,.433.26c.721-.168,1.523-.1,2.111-.669a3.219,3.219,0,0,0,1.711-1.7.433.433,0,0,0,.256-.232,4.523,4.523,0,0,0,.5-1.891c-.028-1.129-.016-2.26-.006-3.389m-5.029-4.281c0,.01.008.024.013.037h-.038a.209.209,0,0,1,.025-.036m1.016,1.557a1.9,1.9,0,0,0,.806.247l.045-.015c0,.388.346.586.548.85a2.818,2.818,0,0,1-1.3,4.2,3.5,3.5,0,0,1-2.41-.1.346.346,0,0,0-.188.075,1.383,1.383,0,0,0-.438-.464.5.5,0,0,0-.011-.173,3.555,3.555,0,0,1-.657-2.288c.188-1.778,2.29-3.042,3.6-2.324m.25,5.837h0Zm-4.112.511v0l-.025.027a.388.388,0,0,0,.025-.03m3.827,2.592-.006.006,0-.006Zm3.259-.724h0v0l.037.026Z" transform="translate(-1.739 -2.422)" fill="#fff"/><path d="M25.11,49.322c-.1,0-.19,0-.286,0-.752.018-.824.083-.827.814-.006,1.1.01,2.209,0,3.313a3.54,3.54,0,0,1-.834,2.538c-.16.171-.319.345-.478.517-.63.14-1.156.6-1.838.576l-.26-.006h0a2.624,2.624,0,0,0-.84-.373,2.975,2.975,0,0,1-1.782-2.5c-.006-1.293,0-2.587,0-3.88a1.222,1.222,0,0,0-.1-.755.127.127,0,0,0-.034-.107c-.1-.17-.273-.151-.431-.149-.417,0-.832.018-1.249.028a2.515,2.515,0,0,0-.058.765c0,1.285.023,2.57-.012,3.854a4.147,4.147,0,0,0,.752,2.427,1.749,1.749,0,0,0,.847,1.011,3.943,3.943,0,0,0,1.245.872,6.989,6.989,0,0,0,2.485.36.717.717,0,0,1,.54-.118,1.181,1.181,0,0,0,.788-.265l-.041-.052,0,0,.039.055a2.147,2.147,0,0,0,.837-.32c.053-.1.158-.107.254-.127l.177.138c-.033.376.123.583.524.58.19,0,.38.01.57,0,.61-.015.642-.035.643-.65q.008-3.948,0-7.894c0-.628-.021-.638-.63-.654M21.137,58.2l0,0h-.006l0,0" transform="translate(0 -2.431)" fill="#fff"/><path d="M76.993,54.317a5.04,5.04,0,0,0-1.237-3.573c-.4-.461-.933-.715-1.352-1.124-.242,0-.423-.231-.68-.183a7.312,7.312,0,0,0-3.168-.011,4.8,4.8,0,0,0-1.408.6,7.171,7.171,0,0,0-1.7,2.436,5.972,5.972,0,0,0-.178,1.928,1.262,1.262,0,0,0,.267,1.01l.046-.032,0,0-.048.027c.013.18.027.359.041.539a4.377,4.377,0,0,0,.3.464c.373.458.619,1.043,1.253,1.245a3.955,3.955,0,0,0,.925.613,7.5,7.5,0,0,0,2.638.359L73,58.5a1.983,1.983,0,0,0,1.287-.311c.172-.075.338-.225.51-.228.254,0,.176.289.275.435a.5.5,0,0,0,.359.208,5.066,5.066,0,0,0,.571.034c.933.014.983-.033.987-.929,0-1.13-.021-2.261.007-3.39m-7.866,3.052v-.026l.013.012h0l-.013.014h.007l-.007,0ZM72.562,50.3h0m-2.92,2.381a.47.47,0,0,0,0-.462.52.52,0,0,0,.076-.011,1.253,1.253,0,0,0,.5-.368,2.61,2.61,0,0,1,3.631-.073c.161.147.3.326.532.348a1.332,1.332,0,0,0,.177.554,2.818,2.818,0,0,1-.349,3.015.842.842,0,0,0-.253.486.253.253,0,0,0,.042.07l-.127.016a3.7,3.7,0,0,1-2.142.538,5.254,5.254,0,0,1-.785-.23.608.608,0,0,1-.288-.209c-1.132-1.009-1.795-2.144-1.014-3.672m.646,4.094v0h0v0m1.7.6h0l.031,0V57.4a.37.37,0,0,0-.031-.022m-1.4-7.631h-.018l0-.006.007-.007.013.011m-3.029,4.773c0-.107,0-.214.009-.322,0-.034,0-.066.008-.1q-.01.21-.017.419h0" transform="translate(-3.485 -2.427)" fill="#fff"/><path d="M38.01,51.864c-.283-.333-.429-.772-.815-1.022a.292.292,0,0,0-.05.039l.05-.039a.775.775,0,0,0-.592-.561h0a.592.592,0,0,0-.294-.264L36.032,50a4.507,4.507,0,0,0-3.612-.555,1.379,1.379,0,0,0-.6.13,3.288,3.288,0,0,1-1.224.44c-.065-.272-.089-.6-.438-.653a2.548,2.548,0,0,0-1.269.051c-.145.055-.164.219-.167.365,0,.258-.012.517-.012.776q0,3.426.007,6.851c0,1.184.021,1.189,1.255,1.108.364-.023.5-.155.5-.512-.007-1.363.159-2.727.069-4.089a2.39,2.39,0,0,1,.458-1.655,1.314,1.314,0,0,0,.331-.265,2.772,2.772,0,0,1,3.25-.84c.355.126.547.55.982.464.013-.01.016-.023.024-.034v.007l.154.262c.047.215.315.31.309.554a1.577,1.577,0,0,1,.4.892c.026.657.161,1.3.139,1.968-.033.917-.016,1.837,0,2.755.006.428.117.541.53.6a3.124,3.124,0,0,0,.429.008c.758,0,.8-.037.8-.806q.006-1.767,0-3.532a4.133,4.133,0,0,0-.29-2.072.914.914,0,0,1-.034-.348M36.02,50.3l.006-.011h0l0,0v0l.007.011H36.02" transform="translate(-0.86 -2.43)" fill="#fff"/><path d="M62.765,50.681a.311.311,0,0,0-.249-.111,1.776,1.776,0,0,0-.881-.664c-.012-.183-.213-.19-.294-.31a3.774,3.774,0,0,0-1.545-.3,1.783,1.783,0,0,0-1.04-.09,4.678,4.678,0,0,0-3.7,7.325A2.3,2.3,0,0,0,56.2,57.67v0a1.656,1.656,0,0,0,.8.561,5.657,5.657,0,0,0,3.89.083A2,2,0,0,1,61.3,58.2c.294-.032.387.094.3.376-.089.308-.353.495-.521.747a4.337,4.337,0,0,1-1.856.762.323.323,0,0,0-.3.341c-.008.349-.019.7,0,1.047a.391.391,0,0,0,.487.387,3.845,3.845,0,0,0,2.105-.688h0a1.216,1.216,0,0,0,.718-.563l.234-.025q.306-.408.615-.816a3.064,3.064,0,0,0,.872-2.154c.032-1.267-.029-2.538.02-3.8a4.712,4.712,0,0,0-1.216-3.133m-3.075.482c.228.057.453.17.672-.017h.014c-.088.271.182.363.322.5a4.45,4.45,0,0,1,.877,1.107,2.722,2.722,0,0,1-.869,3.4A2.533,2.533,0,0,1,57.319,56c-.226-.2-.405-.472-.74-.526a.185.185,0,0,0-.065.032l0-.012c.082-.626-.154-1.225-.128-1.857a2.688,2.688,0,0,1,3.3-2.478m-4.038,1.8,0,0,.031-.029a.118.118,0,0,1-.032.033Zm-.584-.98.008-.008v.013l-.008,0V52a.14.14,0,0,0-.023-.012Zm.574,1.573v-.01l0,0h.012c-.006,0-.009.009-.014.013m4.726,6.5c0,.012-.006.02-.007.031l-.025-.033c.011,0,.021,0,.033,0" transform="translate(-2.594 -2.421)" fill="#fff"/><path d="M62.788,39.248h0c0-.09,0-.18,0-.27,0-.159.037-.329-.14-.432h0a.734.734,0,0,1-.11-.135.123.123,0,0,1-.04-.129.312.312,0,0,0-.109-.3l-.015-.031a.283.283,0,0,0-.152-.251l0,0a.285.285,0,0,0-.131-.278l-.01-.02a.258.258,0,0,0-.054-.1c-.03-.069-.059-.138-.088-.207l-.062-.018v0l.062.021a.329.329,0,0,0-.063-.081h0c-.027-.062-.053-.126-.08-.189a.285.285,0,0,0-.059-.09.424.424,0,0,1-.1-.291.273.273,0,0,0-.138-.3A1.1,1.1,0,0,1,61.388,36l-.014-.023a.3.3,0,0,0-.1-.241c-.018-.058-.034-.116-.052-.174l-.1-.125h0l-.035-.01-.009-.035A.267.267,0,0,0,61,35.306l-.06-.157a.219.219,0,0,0-.056-.113c-.03-.1-.059-.2-.089-.306l-.1-.147h0l-.04-.046-.062-.007v0l.062.011a.493.493,0,0,0-.062-.07.387.387,0,0,1-.091-.29.3.3,0,0,0-.1-.287c-.017-.045-.034-.089-.05-.134l0,0-.135-.063a.171.171,0,0,0-.073-.079l-.067-.286a.3.3,0,0,0-.118-.293l-.018-.021-.113-.126-.02-.027c-.034-.078-.067-.156-.1-.234h0l-.062-.275a.652.652,0,0,0-.133-.166v0c0-.144-.051-.253-.212-.28-.025-.094-.051-.187-.076-.281a.267.267,0,0,0-.153-.282.246.246,0,0,1-.134-.284.31.31,0,0,0-.113-.283l-.024-.036a.287.287,0,0,0-.074-.087c-.025-.055-.048-.11-.073-.164a.319.319,0,0,0-.116-.281l-.023-.036-.06-.014v0l.059.019a.5.5,0,0,0-.052-.074h0a.554.554,0,0,1-.239-.465.211.211,0,0,0-.07-.109c-.023-.06-.046-.119-.07-.18a.3.3,0,0,0-.124-.264h0l-.02-.031-.058-.021h0l.058.021a.354.354,0,0,0-.052-.081l-.085-.207a.333.333,0,0,0-.119-.248l-.029-.04a.831.831,0,0,0-.084-.1h0a.063.063,0,0,1-.064-.062h-.061l0-.031,0,.029.061,0a.44.44,0,0,0-.063-.062l-.372-.567a2.541,2.541,0,0,1-.434-.24,5.141,5.141,0,0,0-3.258-1.05,3.471,3.471,0,0,1-.85-.076,7.537,7.537,0,0,0-2.194-.207c-.666,0-1.335-.019-2,.028a1.18,1.18,0,0,1-1.146-.548c-.078-.115-.169-.223-.253-.334-.019-.226-.195-.371-.293-.555-.4-.746-.917-1.416-1.354-2.138s-.869-1.442-1.375-2.116a3.712,3.712,0,0,0-.711-1.125c-.453-.89-1.067-1.684-1.57-2.544a1.052,1.052,0,0,0-.574-.71.279.279,0,0,0-.162-.265.959.959,0,0,0-.568-.574c-.105-.272-.4-.352-.575-.554a14.071,14.071,0,0,0-1.237-.692,2.9,2.9,0,0,0-2.47-.171,9.013,9.013,0,0,0-1.121.6,4.623,4.623,0,0,0-2.373,2.99.275.275,0,0,0,.068.068l-.021.009h0a.343.343,0,0,0-.247.417c-.016.053-.031.105-.047.159a.875.875,0,0,1-.13-.007h0c-.2.2-.187.473-.281.709a.7.7,0,0,1-.016.133,6.457,6.457,0,0,0-.405,1.15,3.029,3.029,0,0,1-.115.76,8.028,8.028,0,0,0-.281,3.063c.07.564-.054,1.192.352,1.7a.348.348,0,0,0,.06-.05v.006l-.06.045a2,2,0,0,0,.17.675,6.005,6.005,0,0,0,3.17,2.949,4.43,4.43,0,0,1,.691.153,5.026,5.026,0,0,0,3.463-.252l.248-.078a4.031,4.031,0,0,0,1.154-.626c.125-.089.292-.213.457-.1s.11.292.073.452c-.2.867-.363,1.744-.616,2.594-.144.482-.108.981-.249,1.448-.472,1.569-.742,3.182-1.084,4.779-.048,0-.1,0-.143,0A20.412,20.412,0,0,0,38.209,40a.477.477,0,0,0,.016.276,5.353,5.353,0,0,0,.966,2.219c.043.113.144.146.245.18l.058-.064,0,0a.216.216,0,0,0-.061.062,1.6,1.6,0,0,0,.819.752c.614.237,1.245.434,1.881.61a1.1,1.1,0,0,0,.7-.01,4.205,4.205,0,0,1,1.885-.241c.22,0,.442,0,.484-.294a5.166,5.166,0,0,0,.3-1.224,10.032,10.032,0,0,0,.568-2.444.46.46,0,0,0,.08-.114c.464-1.324.633-2.719,1-4.069.157-.571.257-1.184.407-1.77.083-.322-.053-.684.15-.963a1.336,1.336,0,0,0,.2-.871,1.547,1.547,0,0,1,.23-.636,1.643,1.643,0,0,1,.582,1.265c-.135.971-.279,1.939-.489,2.9a8.833,8.833,0,0,0-.39,2.479v0l.01.028a11.645,11.645,0,0,0-.469,1.76,31.248,31.248,0,0,1-.734,3.284c-.223.614.169,1.052.84,1.065.881.017,1.761.011,2.643,0a4.438,4.438,0,0,0,3.653-1.678,3.669,3.669,0,0,0,.919-2.374c.448.56.531,1.195.914,1.674a.274.274,0,0,0,.045-.042l0,.007-.047.034c-.045.392.168.775.064,1.164a.641.641,0,0,0,.378.8c.143.171.342.13.529.138a4.065,4.065,0,0,1,2.025.248.422.422,0,0,0,.472-.068,1.126,1.126,0,0,1,.668-.191,1.944,1.944,0,0,0,1.051-.391.327.327,0,0,0-.048-.047l.009,0,.038.048c.2-.017.4-.03.429-.288l-.04-.038h0l.036.039.144-.137-.033-.036,0,0,.031.039c.256-.028.38-.25.57-.372.408-.264.487-.767.843-1.061a7,7,0,0,1,.079-.765,2.589,2.589,0,0,0-.089-1.637M44.457,43.231l-.013-.022h.037l-.024.022m-3.932-21.91a.312.312,0,0,0,.082-.018v.009a.652.652,0,0,0,.05.2,1.406,1.406,0,0,1-.331,1.937,6.4,6.4,0,0,1-.713.573.555.555,0,0,0-.273.719,3.588,3.588,0,0,1,.116,1.83.5.5,0,0,0-.375.334l0,.026a.45.45,0,0,0-.34.16,2.7,2.7,0,0,1-2.18.667,2.056,2.056,0,0,1-2.048-2.748.879.879,0,0,0-.448-1.125c-1.464-.894-1.588-2.266-.332-3.492.082-.08.171-.158.163-.274a.514.514,0,0,0,.1.014,3.723,3.723,0,0,1,2.353.257c.211.131.45.026.681-.06,1.343-.505,2.7-.414,3.283.815a.389.389,0,0,0,.215.174M32.6,23.406v.012a.179.179,0,0,1-.039,0l.039-.011M49.918,41.658l-.007-.009.007,0h0ZM40.891,21.03v0h0l0,0M37.93,28.616a.184.184,0,0,0,0,.032H37.9a.378.378,0,0,1,.034-.033m20.86,14.73a.306.306,0,0,1,.032-.029v.029Zm-2-15.122h0l0,0v0M46.342,25.255h0l.027.014a.165.165,0,0,0-.022.016c0-.01,0-.02,0-.03m-12.455-8.9h0v-.021c.01,0,.018,0,.028,0-.01.007-.017.017-.029.024M51.516,43.34l.006.009H51.5l.016-.009m-3.751-11.3,0-.009a.116.116,0,0,0,.019.009h-.021M53.76,42.331l0-.006v.006Zm7.942.21h0c0-.017.007-.03.007-.045a.3.3,0,0,1,.017.025c-.008.006-.015.013-.023.02Z" transform="translate(-1.018)" fill="#fff"/><path d="M37.619,36.556h0a1.106,1.106,0,0,0-.144-.144,8.482,8.482,0,0,1-1.73-1.252l-.262-.034a.389.389,0,0,0-.281-.276c-.349-.544-.947-.869-1.291-1.418a.191.191,0,0,0-.136-.143.29.29,0,0,0-.153-.277.718.718,0,0,0-.424-.57h0a.185.185,0,0,0-.134-.145.3.3,0,0,0-.15-.277.272.272,0,0,0-.147-.281h0a.339.339,0,0,0-.127-.274l.011,0a.231.231,0,0,0-.032-.282c-.13-.325-.394-.58-.5-.924a.418.418,0,0,0-.4-.257c-.227-.011-.227.2-.273.346a9.622,9.622,0,0,0-.39,1.347c-.226,1.553-.665,3.056-1.016,4.58.094.441-.2.836-.157,1.27-.007.087-.014.172-.021.259-.123.49-.214.985-.35,1.474s-.2.994-.3,1.493a.947.947,0,0,0,.1.864,3.3,3.3,0,0,0,2,2.839,3.507,3.507,0,0,0,1.95.525c.682-.054,1.362-.108,2.046-.127a.793.793,0,0,0,.753-.535l.116-.016a1.976,1.976,0,0,1,.166-.808,1.342,1.342,0,0,0,.127-.742c0-.045.007-.09.009-.135.186-.157.131-.371.133-.57v0a1.953,1.953,0,0,0,.291-1.409,2.848,2.848,0,0,0,.417-1.372c.084-.689.3-1.346.442-2.02-.043-.235.114-.512-.151-.7m-7-.853h0V35.7l.006.007m-.021.014a.666.666,0,0,0-.051.051l.051-.051m4.876,8.459v-.022a.1.1,0,0,0,.018.006c-.007.006-.011.012-.018.017m-5.424-6.629h0l-.015-.013.015.013m-.583,3.116-.007,0,.007-.01Zm7.692-1.708.015-.013v.015l-.016,0m-2.4-4.1h0Z" transform="translate(-0.891 -1.116)" fill="#fff"/><path d="M38.442,22.539a.68.68,0,0,0-.6.737c.01.417.211.628.595.627s.54-.18.538-.65c0-.4-.222-.7-.527-.714" transform="translate(-1.482 -0.608)" fill="#fff"/><path d="M35.476,22.626a.584.584,0,0,0-.591.64.57.57,0,0,0,.606.623c.37.007.535-.17.536-.572a.632.632,0,0,0-.551-.691" transform="translate(-1.281 -0.614)" fill="#fff"/></g></g><g transform="translate(64.853 81.16)"><path d="M318.356,289.492a6.545,6.545,0,0,0,3.6,3.615c1.269.516,2.964.4,4.918,1.5,4.412,2.481,15.427.269,23.409,1.123s18.739-7.983,18.739-7.983l31.673,1.74V258.055s-33.054,1.381-40.217-1.381-15.146-8.533-18.727-8.263-33.054,3.582-33.054,3.582l9.644,37.5Z" transform="translate(-32.527 -60.632)" fill="#fff" stroke="#2e353a" stroke-linecap="round" stroke-linejoin="round" stroke-width="1"/><path d="M313.237,172.122a33.267,33.267,0,1,0,36.725,29.4h0a33.245,33.245,0,0,0-36.725-29.4Zm6.6,59.6a26.688,26.688,0,1,1,23.578-29.472,26.688,26.688,0,0,1-23.578,29.472Z" transform="translate(-35.605 -70.02)" fill="#fff" stroke="#2e353a" stroke-linecap="round" stroke-linejoin="round" stroke-width="1"/><path d="M313.077,170.432a33.267,33.267,0,1,0,36.725,29.4h0A33.278,33.278,0,0,0,313.077,170.432Zm6.6,59.6a26.688,26.688,0,1,1,23.578-29.472A26.688,26.688,0,0,1,319.679,230.028Z" transform="translate(-35.624 -70.227)" fill="#fff" stroke="#2e353a" stroke-linecap="round" stroke-linejoin="round" stroke-width="1"/><rect width="8.05" height="29.663" rx="2.88" transform="translate(281.08 167.482) rotate(-6.32)" fill="#5c3caf" stroke="#2e353a" stroke-linecap="round" stroke-linejoin="round" stroke-width="1"/><path d="M317.412,247.043l3.368-.359a5.535,5.535,0,0,1,6.085,4.85l5.041,45.595a7.073,7.073,0,0,1-6.254,7.8h-.225a7.062,7.062,0,0,1-7.8-6.254l-5.041-45.583a5.524,5.524,0,0,1,4.884-6.108Z" transform="translate(-32.055 -60.847)" fill="#2e353a" stroke="#2e353a" stroke-linecap="round" stroke-linejoin="round" stroke-width="1"/><path d="M322.309,280.84s-7.983.292-9.105,1.673-.921,6.186,1.246,6.736c5.524,1.448,17.268.606,17.728-.382s1.4-6.736-1.022-7.354A58.381,58.381,0,0,0,322.309,280.84Z" transform="translate(-32.057 -56.65)" fill="#fff" stroke="#2e353a" stroke-linecap="round" stroke-linejoin="round" stroke-width="1"/><path d="M320.484,270.923s-9.285-.348-10.733,1.325-1.729,7.927.719,8.87c6.242,2.391,20.288,1.46,20.928.225s2.032-7.646-.719-8.679S320.484,270.923,320.484,270.923Z" transform="translate(-32.534 -57.871)" fill="#fff" stroke="#2e353a" stroke-linecap="round" stroke-linejoin="round" stroke-width="1"/><path d="M319.384,259.724s-9.925-.382-11.474,1.415-1.853,8.466.763,9.476c6.736,2.56,21.332,2.56,22.017,1.235s2.526-9.162-.415-10.273S319.384,259.724,319.384,259.724Z" transform="translate(-32.77 -59.246)" fill="#fff" stroke="#2e353a" stroke-linecap="round" stroke-linejoin="round" stroke-width="1"/><path d="M314.287,249.243s-9.925-.371-11.474,1.415-1.92,8.668.763,9.476,21.332,2.56,22.017,1.246,2.526-9.173-.415-10.284S314.287,249.243,314.287,249.243Z" transform="translate(-33.398 -60.533)" fill="#fff" stroke="#2e353a" stroke-linecap="round" stroke-linejoin="round" stroke-width="1"/><path d="M345.465,282.644a16.741,16.741,0,0,1-5-2.313c-7.983-5.513-7.713-18.177-7.713-18.177l-1.92-.55a17.089,17.089,0,0,1-4.412-2.481,39.876,39.876,0,0,1,1.123,7.983,5.962,5.962,0,0,1-5.49,5.827c-2.481.281-3.582.55-4.412-2.751s-4.951-16.527-5.232-18.458c-.247-1.751,2.695-4.873,7.376-5.614,7.2.584,14.293,2.594,21.545,2.594a14.6,14.6,0,0,1,7.017,2.582" transform="translate(-32.073 -60.913)" fill="#fff" stroke="#2e353a" stroke-linecap="round" stroke-linejoin="round" stroke-width="1"/><path d="M348.9,279.27a25.625,25.625,0,0,1-2.627,0" transform="translate(-27.916 -56.843)" fill="#fff" stroke="#2e353a" stroke-linecap="round" stroke-linejoin="round" stroke-width="1"/><path d="M354.482,278.3a25.488,25.488,0,0,1-5.872,1.123" transform="translate(-27.628 -56.962)" fill="#fff" stroke="#2e353a" stroke-linecap="round" stroke-linejoin="round" stroke-width="1"/><line x2="9.914" transform="translate(336.767 217.768)" fill="none" stroke="#2e353a" stroke-linecap="round" stroke-linejoin="round" stroke-width="1"/><line x2="4.132" transform="translate(337.598 220.518)" fill="none" stroke="#2e353a" stroke-linecap="round" stroke-linejoin="round" stroke-width="1"/><path d="M330.53,260.757s5.479,0,9.072-3.267" transform="translate(-29.848 -59.516)" fill="none" stroke="#2e353a" stroke-linecap="round" stroke-linejoin="round" stroke-width="1"/><path d="M324.882,257.861a21.783,21.783,0,0,0-.932-4.4" transform="translate(-30.655 -60.011)" fill="none" stroke="#2e353a" stroke-linecap="round" stroke-linejoin="round" stroke-width="1"/><path d="M317.044,266.889s-1.044-2.9.225-3.941,4.637-2.549,5.221-1.392,1.853,6.489,1.5,7.534l-.348,1.044" transform="translate(-31.553 -59.069)" fill="none" stroke="#2e353a" stroke-linecap="round" stroke-linejoin="round" stroke-width="0.5"/><path d="M462.928,302.651H368V255.99h94.928" transform="translate(-25.248 -59.701)" fill="#5c3caf" stroke="#2e353a" stroke-linecap="round" stroke-linejoin="round" stroke-width="1"/><circle cx="2.133" cy="2.133" r="2.133" transform="translate(347.579 235.563)" fill="#fff" stroke="#2e353a" stroke-linecap="round" stroke-linejoin="round" stroke-width="1"/><path d="M244.326,225.411a6.545,6.545,0,0,0,3.615-3.6c.516-1.269.393-2.953,1.5-4.918,2.47-4.4.269-15.415,1.123-23.409s-7.994-18.727-7.994-18.727l1.718-31.673H212.855s1.37,33.054-1.381,40.205-8.533,15.157-8.263,18.739,3.6,33.031,3.6,33.031l37.455-9.644Z" transform="translate(-45.477 -73.56)" fill="#fff" stroke="#2e353a" stroke-linecap="round" stroke-linejoin="round" stroke-width="1"/><path d="M127.022,227.725a33.267,33.267,0,1,0,29.427-36.7h-.079A33.267,33.267,0,0,0,127.022,227.725Zm59.505-6.613a26.7,26.7,0,1,1-29.495-23.578h0a26.71,26.71,0,0,1,29.494,23.578Z" transform="translate(-54.852 -67.7)" fill="#fff" stroke="#2e353a" stroke-linecap="round" stroke-linejoin="round" stroke-width="1"/><path d="M125.293,227.907a33.256,33.256,0,1,0,29.4-36.725,33.256,33.256,0,0,0-29.4,36.725Zm59.6-6.59a26.688,26.688,0,1,1-29.472-23.578A26.688,26.688,0,0,1,184.888,221.317Z" transform="translate(-55.065 -67.68)" fill="#fff" stroke="#2e353a" stroke-linecap="round" stroke-linejoin="round" stroke-width="1"/><rect width="29.663" height="8.05" rx="2.88" transform="translate(136.626 148.614) rotate(-6.32)" fill="#5c3caf" stroke="#2e353a" stroke-linecap="round" stroke-linejoin="round" stroke-width="1"/><path d="M201.9,218.432l-.37-3.368a5.535,5.535,0,0,1,4.9-6.108l45.583-5.041a7.084,7.084,0,0,1,7.859,6.254h0v.225a7.084,7.084,0,0,1-6.254,7.859h0l-45.583,5.041a5.546,5.546,0,0,1-6.13-4.862Z" transform="translate(-45.685 -66.098)" fill="#2e353a" stroke="#2e353a" stroke-linecap="round" stroke-linejoin="round" stroke-width="1"/><path d="M235.69,213.621s.3,7.971,1.673,9.094,6.2.921,6.736-1.246c1.46-5.513.606-17.268-.382-17.717s-6.736-1.415-7.343,1.022A58.387,58.387,0,0,0,235.69,213.621Z" transform="translate(-41.489 -66.183)" fill="#fff" stroke="#2e353a" stroke-linecap="round" stroke-linejoin="round" stroke-width="1"/><path d="M225.784,215.812s-.359,9.285,1.314,10.733,7.927,1.74,8.87-.719c2.4-6.242,1.46-20.288.225-20.917s-7.646-2.032-8.679.719S225.784,215.812,225.784,215.812Z" transform="translate(-42.709 -66.083)" fill="#fff" stroke="#2e353a" stroke-linecap="round" stroke-linejoin="round" stroke-width="1"/><path d="M214.584,217.1s-.382,9.925,1.4,11.474,8.477,1.853,9.487-.775c2.56-6.669,2.56-21.332,1.235-22.006s-9.173-2.526-10.273.415S214.584,217.1,214.584,217.1Z" transform="translate(-44.084 -66.009)" fill="#fff" stroke="#2e353a" stroke-linecap="round" stroke-linejoin="round" stroke-width="1"/><path d="M204.1,222.188s-.382,9.925,1.415,11.474,8.668,1.92,9.476-.775,2.56-21.332,1.235-22.017-9.162-2.515-10.273.427S204.1,222.188,204.1,222.188Z" transform="translate(-45.37 -65.385)" fill="#fff" stroke="#2e353a" stroke-linecap="round" stroke-linejoin="round" stroke-width="1"/><path d="M238.194,185.08a19.58,19.58,0,0,1-3.009,12.608c-5.5,7.994-18.177,7.713-18.177,7.713l-.55,1.931a16.7,16.7,0,0,1-2.481,4.4,39.98,39.98,0,0,1,7.994-1.123,5.973,5.973,0,0,1,5.782,5.513c.281,2.481.55,3.582-2.751,4.4s-16.527,4.963-18.458,5.243c-1.751.247-4.873-2.695-5.614-7.376.6-7.2,2.6-14.3,2.6-21.545a14.6,14.6,0,0,1,2.582-7.028" transform="translate(-45.755 -68.404)" fill="#fff" stroke="#2e353a" stroke-linecap="round" stroke-linejoin="round" stroke-width="1"/><path d="M233.16,179.88a22.626,22.626,0,0,1,.763,3.211" transform="translate(-41.799 -69.043)" fill="#fff" stroke="#2e353a" stroke-linecap="round" stroke-linejoin="round" stroke-width="1"/><line y1="9.914" transform="translate(187.779 90.998)" fill="none" stroke="#2e353a" stroke-linecap="round" stroke-linejoin="round" stroke-width="1"/><line y1="4.132" transform="translate(190.53 95.961)" fill="none" stroke="#2e353a" stroke-linecap="round" stroke-linejoin="round" stroke-width="1"/><path d="M215.607,204.172s0-5.479-3.267-9.072" transform="translate(-44.355 -67.174)" fill="none" stroke="#2e353a" stroke-linecap="round" stroke-linejoin="round" stroke-width="1"/><path d="M212.721,208.94a21.757,21.757,0,0,0-4.4.921" transform="translate(-44.848 -65.476)" fill="none" stroke="#2e353a" stroke-linecap="round" stroke-linejoin="round" stroke-width="1"/><path d="M221.749,217.446s-2.9,1.044-3.941-.236-2.549-4.637-1.392-5.21,6.489-1.853,7.534-1.5l1.044.337" transform="translate(-43.906 -65.292)" fill="none" stroke="#2e353a" stroke-linecap="round" stroke-linejoin="round" stroke-width="0.5"/><path d="M257.513,81.16v94.928H210.84V81.16" transform="translate(-44.539 -81.16)" fill="#5c3caf" stroke="#2e353a" stroke-linecap="round" stroke-linejoin="round" stroke-width="1"/><circle cx="2.133" cy="2.133" r="2.133" transform="translate(205.575 85.834)" fill="#fff" stroke="#2e353a" stroke-linecap="round" stroke-linejoin="round" stroke-width="1"/><path d="M207,371.491a6.512,6.512,0,0,1-3.6,3.615c-1.269.528-2.953.4-4.918,1.5-4.4,2.481-15.415.281-23.409,1.123s-18.727-7.983-18.727-7.983l-31.706,1.74V340.054s33.054,1.381,40.217-1.37,15.146-8.544,18.727-8.263S216.638,334,216.638,334Z" transform="translate(-55.12 -50.566)" fill="#fff" stroke="#2e353a" stroke-linecap="round" stroke-linejoin="round" stroke-width="1"/><path d="M209.287,254.181a33.267,33.267,0,1,1-36.725,29.4h0a33.256,33.256,0,0,1,36.714-29.393Zm-6.6,59.6a26.7,26.7,0,1,0-23.578-29.494h0a26.71,26.71,0,0,0,23.578,29.495Z" transform="translate(-49.263 -59.946)" fill="#fff" stroke="#2e353a" stroke-linecap="round" stroke-linejoin="round" stroke-width="1"/><path d="M209.467,252.493a33.256,33.256,0,1,1-36.725,29.393,33.256,33.256,0,0,1,36.725-29.393Zm-6.6,59.6a26.7,26.7,0,1,0-23.578-29.495h0a26.7,26.7,0,0,0,23.578,29.472Z" transform="translate(-49.24 -60.155)" fill="#fff" stroke="#2e353a" stroke-linecap="round" stroke-linejoin="round" stroke-width="1"/><rect width="29.663" height="8.05" rx="2.88" transform="translate(145.323 288.213) rotate(-83.68)" fill="#5c3caf" stroke="#2e353a" stroke-linecap="round" stroke-linejoin="round" stroke-width="1"/><path d="M191.984,387.042h-.225a7.073,7.073,0,0,1-6.254-7.859l5.041-45.583a5.524,5.524,0,0,1,6.108-4.9l3.368.371a5.535,5.535,0,0,1,4.9,6.108l-5.041,45.64a7.1,7.1,0,0,1-7.859,6.254Z" transform="translate(-47.655 -50.78)" fill="#2e353a" stroke="#2e353a" stroke-linecap="round" stroke-linejoin="round" stroke-width="1"/><path d="M195.141,362.89s7.971.3,9.094,1.673.921,6.186-1.246,6.736c-5.513,1.46-17.268.606-17.717-.382s-1.415-6.736,1.022-7.354a58.382,58.382,0,0,1,8.847-.674Z" transform="translate(-47.747 -46.579)" fill="#fff" stroke="#2e353a" stroke-linecap="round" stroke-linejoin="round" stroke-width="1"/><path d="M197.372,353s9.285-.359,10.733,1.314,1.74,7.927-.719,8.87c-6.242,2.391-20.288,1.46-20.917.225s-2.032-7.646.719-8.679S197.372,353,197.372,353Z" transform="translate(-47.643 -47.797)" fill="#fff" stroke="#2e353a" stroke-linecap="round" stroke-linejoin="round" stroke-width="1"/><path d="M198.657,341.773s9.925-.37,11.474,1.415,1.853,8.477-.763,9.476c-6.736,2.571-21.332,2.56-22.017,1.246s-2.526-9.173.415-10.284S198.657,341.773,198.657,341.773Z" transform="translate(-47.569 -49.175)" fill="#fff" stroke="#2e353a" stroke-linecap="round" stroke-linejoin="round" stroke-width="1"/><path d="M203.748,331.3s9.925-.382,11.474,1.4,1.92,8.679-.775,9.487-21.332,2.549-22.017,1.235-2.515-9.173.427-10.273S203.748,331.3,203.748,331.3Z" transform="translate(-46.945 -50.46)" fill="#fff" stroke="#2e353a" stroke-linecap="round" stroke-linejoin="round" stroke-width="1"/><path d="M168,365.45a18.829,18.829,0,0,0,11.059-3.065c7.994-5.513,7.713-18.177,7.713-18.177l1.931-.55a16.694,16.694,0,0,0,4.4-2.481,39.881,39.881,0,0,0-1.123,7.983,5.984,5.984,0,0,0,5.513,5.793c2.481.269,3.582.55,4.412-2.762s4.951-16.527,5.232-18.447-2.695-4.884-7.376-5.614c-7.2.6-14.3,2.6-21.545,2.6a14.685,14.685,0,0,0-7.028,2.571" transform="translate(-49.797 -50.846)" fill="#fff" stroke="#2e353a" stroke-linecap="round" stroke-linejoin="round" stroke-width="1"/><path d="M161.44,360.36a25.106,25.106,0,0,0,4.817.977" transform="translate(-50.603 -46.89)" fill="#fff" stroke="#2e353a" stroke-linecap="round" stroke-linejoin="round" stroke-width="1"/><line x1="9.914" transform="translate(90.998 309.889)" fill="none" stroke="#2e353a" stroke-linecap="round" stroke-linejoin="round" stroke-width="1"/><line x1="4.132" transform="translate(95.961 312.64)" fill="none" stroke="#2e353a" stroke-linecap="round" stroke-linejoin="round" stroke-width="1"/><path d="M185.732,342.807s-5.479,0-9.072-3.267" transform="translate(-48.734 -49.445)" fill="none" stroke="#2e353a" stroke-linecap="round" stroke-linejoin="round" stroke-width="1"/><path d="M190.5,339.911a21.758,21.758,0,0,1,.921-4.4" transform="translate(-47.036 -49.94)" fill="none" stroke="#2e353a" stroke-linecap="round" stroke-linejoin="round" stroke-width="1"/><path d="M199.006,348.939s1.044-2.9-.236-3.941-4.637-2.549-5.21-1.392-1.853,6.5-1.5,7.534l.348,1.044" transform="translate(-46.852 -48.997)" fill="none" stroke="#2e353a" stroke-linecap="round" stroke-linejoin="round" stroke-width="0.5"/><path d="M62.72,384.712h94.928V338.04H62.72" transform="translate(-62.72 -49.629)" fill="#5c3caf" stroke="#2e353a" stroke-linecap="round" stroke-linejoin="round" stroke-width="1"/><path d="M139.17,375.153a2.133,2.133,0,1,0,2.133-2.133h0A2.133,2.133,0,0,0,139.17,375.153Z" transform="translate(-53.336 -45.336)" fill="#fff" stroke="#2e353a" stroke-linecap="round" stroke-linejoin="round" stroke-width="1"/></g></g></svg>