<svg xmlns="http://www.w3.org/2000/svg" width="533" height="420" viewBox="0 0 533 420">
  <g id="Grupo_2810" data-name="Grupo 2810" transform="translate(6154 -3184)">
    <rect id="Rectángulo_4720" data-name="Rectángulo 4720" width="533" height="420" transform="translate(-6154 3184)" fill="none"/>
    <g id="Friendship-pana" transform="translate(-6101.605 3173.349)">
      <g id="freepik--background-complete--inject-154" transform="translate(26.816 27.59)">
        <path id="Trazado_7538" data-name="Trazado 7538" d="M145.745,40.62v60.84H58.36L55.21,41.043Z" transform="translate(-31.671 -29.818)" fill="#e0e0e0"/>
        <rect id="Rectángulo_4721" data-name="Rectángulo 4721" width="60.285" height="87.385" transform="translate(23.539 71.509) rotate(-90)" fill="#fff"/>
        <path id="Trazado_7539" data-name="Trazado 7539" d="M142.924,101.744H54.71V40.63h88.214Zm-87.385-.829h86.556V41.459H55.539Z" transform="translate(-31.586 -29.82)" fill="#e0e0e0"/>
        <rect id="Rectángulo_4722" data-name="Rectángulo 4722" width="68.45" height="45.305" transform="translate(33.006 18.719)" fill="#fff"/>
        <path id="Trazado_7540" data-name="Trazado 7540" d="M135.021,50.117h-5.065l-14.093.058-49.276.1.2-.2v45.3h0l-.216-.216h68.45l-.166.174c0-13.786.066-25.094.083-32.969,0-3.929.041-7.005.05-9.119v-.033c0,2.1,0,5.156.041,9.119,0,7.892.058,19.233.091,33.069v.174H66.28v-.216h0V49.86h.2l49.408.1,14.093.05h4.667Z" transform="translate(-33.564 -31.398)" fill="#e0e0e0"/>
        <path id="Trazado_7541" data-name="Trazado 7541" d="M55.21,40.93a6.731,6.731,0,0,1,1.484.97c.9.647,2.114,1.559,3.432,2.611s2.487,2.048,3.316,2.794a6.781,6.781,0,0,1,1.252,1.285c-.083.091-2.18-1.658-4.808-3.739A48.488,48.488,0,0,1,55.21,40.93Z" transform="translate(-31.671 -29.871)" fill="#e0e0e0"/>
        <path id="Trazado_7542" data-name="Trazado 7542" d="M158.667,41.13a41.629,41.629,0,0,1-4.6,3.913,42.279,42.279,0,0,1-4.866,3.581,42.092,42.092,0,0,1,4.6-3.921,42.778,42.778,0,0,1,4.866-3.573Z" transform="translate(-47.744 -29.905)" fill="#e0e0e0"/>
        <path id="Trazado_7543" data-name="Trazado 7543" d="M158.529,112.232l-9.749-7.892" transform="translate(-47.672 -40.714)" fill="#fff"/>
        <path id="Trazado_7544" data-name="Trazado 7544" d="M148.78,104.34a45.533,45.533,0,0,1,4.974,3.78,46.264,46.264,0,0,1,4.742,4.145,44.286,44.286,0,0,1-4.974-3.78,46.257,46.257,0,0,1-4.742-4.145Z" transform="translate(-47.672 -40.714)" fill="#e0e0e0"/>
        <path id="Trazado_7545" data-name="Trazado 7545" d="M55.21,112.323a42.222,42.222,0,0,1,4.551-3.871,40.082,40.082,0,0,1,4.816-3.532,42.22,42.22,0,0,1-4.568,3.871A40.082,40.082,0,0,1,55.21,112.323Z" transform="translate(-31.671 -40.813)" fill="#e0e0e0"/>
        <rect id="Rectángulo_4723" data-name="Rectángulo 4723" width="15.171" height="43.075" transform="translate(46.9 48.007) rotate(-90)" fill="#e0e0e0"/>
        <rect id="Rectángulo_4724" data-name="Rectángulo 4724" width="47.477" height="68.824" transform="translate(155.756 66.585)" fill="#e0e0e0"/>
        <rect id="Rectángulo_4725" data-name="Rectángulo 4725" width="47.477" height="68.824" transform="translate(153.377 66.585)" fill="#f5f5f5"/>
        <rect id="Rectángulo_4726" data-name="Rectángulo 4726" width="35.68" height="53.91" transform="translate(159.271 74.038)" fill="#fff"/>
        <path id="Trazado_7546" data-name="Trazado 7546" d="M254.62,170.76V155.672c0-9.509,0-22.972-.058-38.822l.116.116H219.031l.133-.124v53.885l-.108-.1,25.973.05h-.05l-26.039.058h-.1V116.61h35.9v.116c0,15.884-.05,29.371-.058,38.9v14.764A1.4,1.4,0,0,1,254.62,170.76Z" transform="translate(-59.652 -42.813)" fill="#e0e0e0"/>
        <path id="Trazado_7547" data-name="Trazado 7547" d="M267.93,107.91a8.507,8.507,0,0,1-.829,1.227c-.547.738-1.335,1.741-2.23,2.827s-1.724,2.048-2.346,2.727a9.016,9.016,0,0,1-1.044,1.069,8.815,8.815,0,0,1,.912-1.185l2.28-2.777,2.288-2.777A9.178,9.178,0,0,1,267.93,107.91Z" transform="translate(-66.944 -41.325)" fill="#e0e0e0"/>
        <path id="Trazado_7548" data-name="Trazado 7548" d="M262.2,181.72a44.405,44.405,0,0,0,6.226,7.784" transform="translate(-67.067 -53.946)" fill="#fff"/>
        <path id="Trazado_7549" data-name="Trazado 7549" d="M268.426,189.5a6.692,6.692,0,0,1-1.086-.987,33.241,33.241,0,0,1-2.346-2.645A34.081,34.081,0,0,1,262.93,183a7.459,7.459,0,0,1-.73-1.277,9.593,9.593,0,0,1,.879,1.177c.522.73,1.26,1.741,2.114,2.81s1.658,2.014,2.28,2.686a9.883,9.883,0,0,1,.953,1.111Z" transform="translate(-67.067 -53.946)" fill="#e0e0e0"/>
        <path id="Trazado_7550" data-name="Trazado 7550" d="M211.82,189.277l6.217-7.677" transform="translate(-58.452 -53.926)" fill="#fff"/>
        <path id="Trazado_7551" data-name="Trazado 7551" d="M218.037,181.6a46.427,46.427,0,0,1-3.009,3.921,48.445,48.445,0,0,1-3.208,3.755,46.42,46.42,0,0,1,3.009-3.921A48.437,48.437,0,0,1,218.037,181.6Z" transform="translate(-58.452 -53.926)" fill="#e0e0e0"/>
        <path id="Trazado_7552" data-name="Trazado 7552" d="M211.83,107.91a41.986,41.986,0,0,1,3.018,3.606,44.781,44.781,0,0,1,2.819,3.772,43.722,43.722,0,0,1-3.026-3.614,42.151,42.151,0,0,1-2.81-3.764Z" transform="translate(-58.453 -41.325)" fill="#e0e0e0"/>
        <rect id="Rectángulo_4727" data-name="Rectángulo 4727" width="11.946" height="33.923" transform="translate(171.888 84.981)" fill="#e0e0e0"/>
        <rect id="Rectángulo_4728" data-name="Rectángulo 4728" width="85.246" height="161.149" transform="translate(111.985 197.799)" fill="#e0e0e0"/>
        <rect id="Rectángulo_4729" data-name="Rectángulo 4729" width="85.246" height="161.149" transform="translate(86.684 197.799)" fill="#f5f5f5"/>
        <path id="Trazado_7553" data-name="Trazado 7553" d="M211.556,300.93H138.38V275.38h73.176Zm-72.28-.9h71.377V276.284H139.275Z" transform="translate(-45.893 -69.962)" fill="#e0e0e0"/>
        <path id="Trazado_7554" data-name="Trazado 7554" d="M166.36,275.93h27.771v.987a4.1,4.1,0,0,1-4.1,4.1H170.464a4.1,4.1,0,0,1-4.1-4.1Z" transform="translate(-50.678 -70.056)" fill="#ebebeb"/>
        <path id="Trazado_7555" data-name="Trazado 7555" d="M211.556,340.07H138.38V314.52h73.176Zm-72.28-.9h71.377V315.424H139.275Z" transform="translate(-45.893 -76.655)" fill="#e0e0e0"/>
        <path id="Trazado_7556" data-name="Trazado 7556" d="M166.36,315.07h27.771v.987a4.1,4.1,0,0,1-4.1,4.1H170.464a4.1,4.1,0,0,1-4.1-4.1Z" transform="translate(-50.678 -76.749)" fill="#ebebeb"/>
        <path id="Trazado_7557" data-name="Trazado 7557" d="M211.556,379.212H138.38V353.67h73.176Zm-72.28-.9h71.377V354.565H139.275Z" transform="translate(-45.893 -83.35)" fill="#e0e0e0"/>
        <path id="Trazado_7558" data-name="Trazado 7558" d="M166.36,354.21h27.771v.987a4.1,4.1,0,0,1-4.1,4.1H170.464a4.1,4.1,0,0,1-4.1-4.1Z" transform="translate(-50.678 -83.442)" fill="#ebebeb"/>
        <path id="Trazado_7559" data-name="Trazado 7559" d="M211.556,418.351H138.38V392.81h73.176Zm-72.28-.9h71.377V393.705H139.275Z" transform="translate(-45.893 -90.043)" fill="#e0e0e0"/>
        <path id="Trazado_7560" data-name="Trazado 7560" d="M166.36,393.35h27.771v.987a4.1,4.1,0,0,1-4.1,4.1H170.464a4.1,4.1,0,0,1-4.1-4.1Z" transform="translate(-50.678 -90.135)" fill="#ebebeb"/>
        <rect id="Rectángulo_4730" data-name="Rectángulo 4730" width="92.599" height="8.025" transform="translate(82.903 191.764)" fill="#ebebeb"/>
        <rect id="Rectángulo_4731" data-name="Rectángulo 4731" width="27.846" height="8.025" transform="translate(175.503 191.764)" fill="#e0e0e0"/>
        <rect id="Rectángulo_4732" data-name="Rectángulo 4732" width="4.477" height="8.232" transform="translate(86.684 358.94)" fill="#e0e0e0"/>
        <rect id="Rectángulo_4733" data-name="Rectángulo 4733" width="4.477" height="8.232" transform="translate(114.364 358.94)" fill="#e0e0e0"/>
        <rect id="Rectángulo_4734" data-name="Rectángulo 4734" width="4.477" height="8.232" transform="translate(164.925 358.94)" fill="#e0e0e0"/>
        <rect id="Rectángulo_4735" data-name="Rectángulo 4735" width="4.477" height="8.232" transform="translate(190.209 358.94)" fill="#e0e0e0"/>
        <path id="Trazado_7561" data-name="Trazado 7561" d="M226.376,233.06l8.63,22.076-5.364-.025-4.3-13.571Z" transform="translate(-60.764 -62.726)" fill="#e0e0e0"/>
        <path id="Trazado_7562" data-name="Trazado 7562" d="M190.438,208.46l-2.968,42.3,30.623.638,3.449-42.934Z" transform="translate(-54.288 -58.519)" fill="#ebebeb"/>
        <path id="Trazado_7563" data-name="Trazado 7563" d="M194.23,212.517l-2.47,35.208,22.773,1.069,3.175-36.484Z" transform="translate(-55.021 -59.177)" fill="#fafafa"/>
        <path id="Trazado_7564" data-name="Trazado 7564" d="M200.389,218.57l-1.849,24.746H211.1l2.213-24.746Z" transform="translate(-56.181 -60.248)" fill="#e0e0e0"/>
        <rect id="Rectángulo_4736" data-name="Rectángulo 4736" width="112.429" height="201.969" transform="translate(245.056 5.505)" fill="#ebebeb"/>
        <rect id="Rectángulo_4737" data-name="Rectángulo 4737" width="102.29" height="190.098" transform="translate(249.549 11.366)" fill="#fafafa"/>
        <path id="Trazado_7565" data-name="Trazado 7565" d="M430.122,43.538,327.84,173.65V41.3H430.122Z" transform="translate(-78.291 -29.934)" fill="#f5f5f5"/>
        <rect id="Rectángulo_4738" data-name="Rectángulo 4738" width="104.504" height="2.023" transform="translate(249.549 66.046)" fill="#ebebeb"/>
        <rect id="Rectángulo_4739" data-name="Rectángulo 4739" width="104.504" height="2.023" transform="translate(249.549 111.318)" fill="#ebebeb"/>
        <rect id="Rectángulo_4740" data-name="Rectángulo 4740" width="104.504" height="2.023" transform="translate(249.549 156.59)" fill="#ebebeb"/>
        <rect id="Rectángulo_4741" data-name="Rectángulo 4741" width="139.794" height="5.165" transform="translate(298.103 206.852) rotate(-90)" fill="#ebebeb"/>
        <rect id="Rectángulo_4742" data-name="Rectángulo 4742" width="2.338" height="55.7" transform="translate(269.246 11.366)" fill="#ebebeb"/>
        <rect id="Rectángulo_4743" data-name="Rectángulo 4743" width="2.338" height="55.7" transform="translate(289.432 11.366)" fill="#ebebeb"/>
        <rect id="Rectángulo_4744" data-name="Rectángulo 4744" width="2.338" height="55.7" transform="translate(309.626 11.366)" fill="#ebebeb"/>
        <rect id="Rectángulo_4745" data-name="Rectángulo 4745" width="2.338" height="55.7" transform="translate(329.821 11.366)" fill="#ebebeb"/>
        <rect id="Rectángulo_4746" data-name="Rectángulo 4746" width="4.758" height="206.645" transform="translate(240.297 2.081)" fill="#f5f5f5"/>
        <path id="Trazado_7566" data-name="Trazado 7566" d="M462.8,237.317,458.04,235.5V30.1H462.8Z" transform="translate(-100.556 -28.019)" fill="#e0e0e0"/>
        <rect id="Rectángulo_4747" data-name="Rectángulo 4747" width="121.937" height="5.513" transform="translate(240.297)" fill="#e0e0e0"/>
        <rect id="Rectángulo_4748" data-name="Rectángulo 4748" width="128.536" height="5.132" transform="translate(236.923 209.977)" fill="#e0e0e0"/>
        <path id="Trazado_7567" data-name="Trazado 7567" d="M433.171,277.87l7.975,2.5H312.61l8.133-2.5Z" transform="translate(-75.687 -70.388)" fill="#ebebeb"/>
        <path id="Trazado_7568" data-name="Trazado 7568" d="M47.138,298.06c-5.9.124-9.475,6.864-9.774,12.766s1.3,11.929-.149,17.649c-1.84,7.279-8.29,12.742-9.948,20.053-1.973,8.622,3.125,17.218,3.78,26.047.315,4.286-.423,8.68.58,12.866a16.348,16.348,0,0,0,16.016,12.137,16.34,16.34,0,0,0,14.972-13.347c1.061-6.682-2.2-13.571-.771-20.186,1.061-4.891,4.6-9.169,4.667-14.168.075-5.952-4.775-10.86-5.911-16.7s1.55-11.73,1.708-17.683c.274-10.677-4.543-18.81-15.2-19.432" transform="translate(-26.816 -73.841)" fill="#ebebeb"/>
        <path id="Trazado_7569" data-name="Trazado 7569" d="M53.557,331.68a6.889,6.889,0,0,1,0,.953c0,.663-.1,1.567-.174,2.7-.182,2.4-.431,5.8-.738,9.948-.63,8.406-1.492,20.02-2.354,32.853s-1.592,24.48-2.122,32.895c-.257,4.145-.464,7.56-.613,9.948-.083,1.136-.141,2.039-.191,2.711a7.131,7.131,0,0,1-.1.945,4.975,4.975,0,0,1,0-.953c0-.663.05-1.575.083-2.711.108-2.412.257-5.8.439-9.948.406-8.431,1.053-20.062,1.923-32.9S51.5,353.673,52.2,345.276c.381-4.145.7-7.544.912-9.948.124-1.136.216-2.031.282-2.7A6.749,6.749,0,0,1,53.557,331.68Z" transform="translate(-30.309 -79.59)" fill="#e0e0e0"/>
        <path id="Trazado_7570" data-name="Trazado 7570" d="M12.576,0H25.1A12.576,12.576,0,0,1,37.678,12.543v25.1H0v-25.1A12.576,12.576,0,0,1,12.576,0Z" transform="translate(37.93 367.023) rotate(180)" fill="#e0e0e0"/>
        <path id="Trazado_7571" data-name="Trazado 7571" d="M27.12,436.005a3.316,3.316,0,0,1,.6.431l1.658,1.3,5.8,4.75h-.207l10.868-6.632h0l.116-.066.116.075L56.185,442.5h-.207l6.358-4.742,1.8-1.31a4.149,4.149,0,0,1,.655-.423,4.329,4.329,0,0,1-.589.514l-1.733,1.384L56.2,442.787l-.108.083-.108-.075-10.155-6.632h.257l-10.91,6.582-.108.066-.1-.083-5.7-4.866-1.575-1.376a5.032,5.032,0,0,1-.572-.481Z" transform="translate(-26.868 -97.393)" fill="#fff"/>
        <path id="Trazado_7572" data-name="Trazado 7572" d="M27.12,431.454a3.313,3.313,0,0,1,.6.431l1.658,1.3,5.8,4.75h-.207L45.839,431.3h0l.116-.075.116.075,10.114,6.632h-.207l6.358-4.742,1.807-1.326a3.921,3.921,0,0,1,.655-.431,3.445,3.445,0,0,1-.589.522l-1.733,1.376L56.21,438.21l-.108.075-.108-.066-10.155-6.632h.249l-10.91,6.582-.108.066-.1-.083-5.7-4.875L27.692,431.9A4.147,4.147,0,0,1,27.12,431.454Z" transform="translate(-26.868 -96.613)" fill="#fff"/>
        <path id="Trazado_7573" data-name="Trazado 7573" d="M27.12,440.626a3.315,3.315,0,0,1,.6.431l1.658,1.3,5.8,4.75h-.207l10.868-6.632h0l.116-.066.116.075,10.114,6.632h-.207l6.358-4.742,1.8-1.3a3.929,3.929,0,0,1,.655-.431,3.715,3.715,0,0,1-.589.514l-1.724,1.4-6.267,4.866-.108.083-.108-.075-10.155-6.624h.249l-10.91,6.574-.108.066-.1-.083-5.745-4.808-1.575-1.376a5.039,5.039,0,0,1-.531-.555Z" transform="translate(-26.868 -98.183)" fill="#fff"/>
      </g>
      <g id="freepik--Floor--inject-154" transform="translate(37.969 393.344)">
        <path id="Trazado_7574" data-name="Trazado 7574" d="M398.895,469.006c0,.124-80.289.216-179.3.216S40.27,469.13,40.27,469.006s80.264-.216,179.321-.216S398.895,468.889,398.895,469.006Z" transform="translate(-40.27 -468.79)" fill="#263238"/>
      </g>
      <g id="freepik--character-2--inject-154" transform="translate(169.938 42.562)">
        <path id="Trazado_7575" data-name="Trazado 7575" d="M271.984,67.63a44.174,44.174,0,0,1-5.214,3.316,44.435,44.435,0,0,1-5.43,2.926,43.75,43.75,0,0,1,5.214-3.316A45.139,45.139,0,0,1,271.984,67.63Z" transform="translate(-210.042 -49.409)" fill="#263238"/>
        <path id="Trazado_7576" data-name="Trazado 7576" d="M256.511,50.86a78.574,78.574,0,0,1-3.929,7.4,80.939,80.939,0,0,1-4.3,7.2c-.1-.058,1.658-3.374,3.929-7.411A80.827,80.827,0,0,1,256.511,50.86Z" transform="translate(-207.807 -46.541)" fill="#263238"/>
        <path id="Trazado_7577" data-name="Trazado 7577" d="M237.561,45.65a75.99,75.99,0,0,1,0,7.958,75.374,75.374,0,0,1-.464,7.942,70.893,70.893,0,0,1,0-7.958,70.553,70.553,0,0,1,.464-7.942Z" transform="translate(-205.877 -45.65)" fill="#263238"/>
        <path id="Trazado_7578" data-name="Trazado 7578" d="M219.894,65.035a29.925,29.925,0,0,1-3.913-3.2,29.982,29.982,0,0,1-3.631-3.515,29.115,29.115,0,0,1,3.913,3.2A29.246,29.246,0,0,1,219.894,65.035Z" transform="translate(-201.664 -47.817)" fill="#263238"/>
        <path id="Trazado_7579" data-name="Trazado 7579" d="M208.736,76.193a4.692,4.692,0,0,1-1.55-.274,17.741,17.741,0,0,1-3.515-1.418,17.408,17.408,0,0,1-3.125-2.139,4.841,4.841,0,0,1-1.086-1.144c.091-.1,1.84,1.534,4.419,2.9S208.77,76.06,208.736,76.193Z" transform="translate(-199.46 -50.022)" fill="#263238"/>
        <path id="Trazado_7580" data-name="Trazado 7580" d="M403.5,276.79l6.118,6.159s2.636,6.781,3.623,8.638c2.039,3.822,2.379,3.648,2.785,3.316,1.086-.829-3.316-6.864-1.658-6.118s4.543,7.992,5.637,7.071c1.434-1.21-3.316-7.461-3.656-7.983s.431-1.1.73-.58c.431.746,5.148,8.481,6.566,7.312.829-.655-.506-1.956-.506-1.956s-4.974-6.914-4.261-7.461,3.739,3.415,4.675,4.825,1.956,1.517,2.23.6c.191-.622-2.562-4.974-3.515-6.375s-3.631-5.082-.829-4.327,5.256.274,5.8-.315a.9.9,0,0,0-.928-1.442,10.816,10.816,0,0,1-2.926-.207,7.037,7.037,0,0,1-2.222-.788c-.829-.456-1.459-.87-2.014-1.235l-9.21-9.359" transform="translate(-234.351 -83.426)" fill="#936754"/>
        <path id="Trazado_7581" data-name="Trazado 7581" d="M320.666,110.29c-4.46,1.658-8.423,8.837-8.588,13.993-.091,3.009.406,6.5-1.766,8.572-1.907,1.824-4.974,1.575-7.378,2.628a7.328,7.328,0,0,0-4.269,6.93c.091,1.575.7,3.142.406,4.7-.663,3.5-5.156,4.634-7.345,7.461-2.006,2.578-1.766,6.416-.091,9.21s4.543,4.692,7.519,6.035a32.032,32.032,0,0,0,14.731,2.794c3.606-.182,7.461-1.119,9.865-3.789,3.109-3.407,3.109-8.53,3.051-13.148a257.532,257.532,0,0,1,3.1-43" transform="translate(-214.994 -56.703)" fill="#263238"/>
        <path id="Trazado_7582" data-name="Trazado 7582" d="M246.447,96.569l-5.405-6.8s-1.874-7.03-2.645-8.986c-1.6-4.021-1.965-3.888-2.4-3.623-1.169.721,2.545,7.187.945,6.259s-3.631-8.439-4.825-7.643c-1.559,1.036,2.487,7.743,2.752,8.34s-.547,1.036-.788.489c-.348-.829-4.145-8.995-5.72-7.983-.829.555.29,2,.29,2s4.145,7.411,3.407,7.859-3.316-3.813-4.145-5.314-1.774-1.724-2.147-.829c-.257.6,1.99,5.256,2.785,6.723s3.051,5.447.34,4.385-5.19-.829-5.8-.323a.9.9,0,0,0,.763,1.534,10.777,10.777,0,0,1,2.885.531,7,7,0,0,1,2.139,1c.746.539,1.36,1.028,1.865,1.451l8.116,10.313" transform="translate(-203.455 -50.792)" fill="#936754"/>
        <path id="Trazado_7583" data-name="Trazado 7583" d="M384.516,233.272c-1.716-4.319-38.134-66.527-38.134-66.527-1.094-3.275-21.1-13.662-21.1-13.662s-33.831-15.03-37.471-19.788-21.463-26.578-25.1-28.758a19.016,19.016,0,0,0-7.851-2.412L246.04,94l-11.25,9.2c1.094.73,5.8,9.857,5.8,9.857s.945,5.878,3.5,9.873,41.765,41.724,41.765,41.724-1.343,32.978-.282,39.958c1.567,10.255,8.837,14.408,8.837,14.408.531,1.169,37.9-1.782,37.9-1.782s6.831-.779,6.831-7.1l.5-7.461c4.22,8.373,17.152,33.881,19.5,36.874,2.819,3.59,12.526,7.055,12.526,7.055l5.944,4.07,9.691-7.361A65.5,65.5,0,0,0,384.516,233.272Z" transform="translate(-205.501 -53.918)" fill="#2d1674"/>
        <path id="Trazado_7584" data-name="Trazado 7584" d="M307.5,206.51c-.829.829-2.595.431-3.888-.9s-1.658-3.067-.788-3.9,2.595-.431,3.88.9S308.343,205.681,307.5,206.51Z" transform="translate(-217.054 -72.262)" fill="#fafafa"/>
        <path id="Trazado_7585" data-name="Trazado 7585" d="M317.49,188.177c-1.111-.439-1.4-2.321-.655-4.2s2.247-3.042,3.357-2.6,1.4,2.313.655,4.195S318.6,188.616,317.49,188.177Z" transform="translate(-219.46 -68.842)" fill="#fafafa"/>
        <path id="Trazado_7586" data-name="Trazado 7586" d="M308.571,169.186c-.97.7-2.487.2-3.457-1.111s-.928-2.926.042-3.631,2.487-.2,3.457,1.111S309.541,168.482,308.571,169.186Z" transform="translate(-217.406 -65.909)" fill="#fafafa"/>
        <path id="Trazado_7587" data-name="Trazado 7587" d="M289.693,151.259a2.628,2.628,0,1,1-3.026-1.476A2.388,2.388,0,0,1,289.693,151.259Z" transform="translate(-214.031 -63.435)" fill="#fafafa"/>
        <path id="Trazado_7588" data-name="Trazado 7588" d="M283.143,134.538a2.686,2.686,0,1,1,2.28-2.487A2.429,2.429,0,0,1,283.143,134.538Z" transform="translate(-213.242 -59.936)" fill="#fafafa"/>
        <path id="Trazado_7589" data-name="Trazado 7589" d="M265.579,136.854c-.182,1.177-1.807,1.907-3.623,1.658s-3.142-1.459-2.96-2.645,1.8-1.907,3.614-1.658S265.761,135.686,265.579,136.854Z" transform="translate(-209.638 -60.785)" fill="#fafafa"/>
        <path id="Trazado_7590" data-name="Trazado 7590" d="M259.255,114.789a2.122,2.122,0,1,1,2.412-1.84,2.147,2.147,0,0,1-2.412,1.84Z" transform="translate(-209.374 -56.751)" fill="#fafafa"/>
        <path id="Trazado_7591" data-name="Trazado 7591" d="M245.3,110.664a2.238,2.238,0,1,1,.788-3.009A2.205,2.205,0,0,1,245.3,110.664Z" transform="translate(-206.717 -56.058)" fill="#fafafa"/>
        <path id="Trazado_7592" data-name="Trazado 7592" d="M323.947,161.252a2.014,2.014,0,1,1-.572-2.885A2.081,2.081,0,0,1,323.947,161.252Z" transform="translate(-220.123 -64.873)" fill="#fafafa"/>
        <path id="Trazado_7593" data-name="Trazado 7593" d="M341.68,203.431a2.487,2.487,0,1,1,.522-3.241A2.329,2.329,0,0,1,341.68,203.431Z" transform="translate(-223.084 -71.878)" fill="#fafafa"/>
        <path id="Trazado_7594" data-name="Trazado 7594" d="M352.7,215.937c-.746.928-2.363.879-3.614-.116s-1.658-2.562-.912-3.5,2.354-.879,3.606.124S353.445,215.008,352.7,215.937Z" transform="translate(-224.826 -74.037)" fill="#fafafa"/>
        <path id="Trazado_7595" data-name="Trazado 7595" d="M318.743,239.672a2.4,2.4,0,1,1,1.882-2.6A2.28,2.28,0,0,1,318.743,239.672Z" transform="translate(-219.362 -78.018)" fill="#fafafa"/>
        <path id="Trazado_7596" data-name="Trazado 7596" d="M326.034,220.774c-.829.829-2.7.348-4.145-1.1s-1.94-3.316-1.1-4.145,2.7-.348,4.145,1.1S326.871,219.937,326.034,220.774Z" transform="translate(-220.137 -74.63)" fill="#fafafa"/>
        <path id="Trazado_7597" data-name="Trazado 7597" d="M304.527,231.694c-1.194,0-2.213-1.393-2.288-3.208s.829-3.316,2.031-3.366,2.214,1.384,2.28,3.2S305.671,231.652,304.527,231.694Z" transform="translate(-217.035 -76.339)" fill="#fafafa"/>
        <path id="Trazado_7598" data-name="Trazado 7598" d="M349.991,238.482c-.962.713-2.686,0-3.872-1.583s-1.359-3.44-.4-4.145,2.686,0,3.863,1.583S350.928,237.769,349.991,238.482Z" transform="translate(-224.365 -77.598)" fill="#fafafa"/>
        <path id="Trazado_7599" data-name="Trazado 7599" d="M370.866,219.751c-.763.912-2.437.771-3.747-.315s-1.749-2.711-.986-3.631,2.437-.779,3.747.315S371.629,218.831,370.866,219.751Z" transform="translate(-227.897 -74.643)" fill="#fafafa"/>
        <path id="Trazado_7600" data-name="Trazado 7600" d="M382.477,220.743c-1.161-.29-1.757-1.882-1.335-3.556s1.7-2.8,2.852-2.487,1.757,1.882,1.335,3.556S383.629,221,382.477,220.743Z" transform="translate(-230.505 -74.549)" fill="#fafafa"/>
        <path id="Trazado_7601" data-name="Trazado 7601" d="M394.858,259.1c-1.111-.431-1.36-2.437-.564-4.468s2.338-3.316,3.449-2.9,1.368,2.437.572,4.477S395.969,259.535,394.858,259.1Z" transform="translate(-232.697 -80.877)" fill="#fafafa"/>
        <path id="Trazado_7602" data-name="Trazado 7602" d="M410.992,272.205a2.42,2.42,0,0,1-1.55.655,2.794,2.794,0,0,1-1.658-.365,2.836,2.836,0,0,1-1.119-1.219,2.33,2.33,0,0,1-.2-1.658,1.724,1.724,0,0,1,1.252-1.194,3.125,3.125,0,0,1,3.648,2.114A1.733,1.733,0,0,1,410.992,272.205Z" transform="translate(-234.846 -83.732)" fill="#fafafa"/>
        <path id="Trazado_7603" data-name="Trazado 7603" d="M364.457,189.2c1.136-.365,2.62,1.111,3.316,3.316s.323,4.244-.829,4.6-2.611-1.119-3.316-3.316S363.321,189.555,364.457,189.2Z" transform="translate(-227.473 -70.187)" fill="#fafafa"/>
        <path id="Trazado_7604" data-name="Trazado 7604" d="M405.38,277.91a11.342,11.342,0,0,0,3.382,2.794" transform="translate(-234.673 -85.367)" fill="#455a64"/>
        <path id="Trazado_7605" data-name="Trazado 7605" d="M408.762,280.7a3.938,3.938,0,0,1-1.965-1.061,4.02,4.02,0,0,1-1.418-1.733c.1-.083.771.638,1.658,1.393S408.82,280.595,408.762,280.7Z" transform="translate(-234.673 -85.365)" fill="#263238"/>
        <path id="Trazado_7606" data-name="Trazado 7606" d="M412.176,278.075c-.075.091-.829-.356-1.534-1.061s-1.235-1.393-1.144-1.476.7.464,1.443,1.161S412.25,277.984,412.176,278.075Z" transform="translate(-235.375 -84.96)" fill="#263238"/>
        <path id="Trazado_7607" data-name="Trazado 7607" d="M415.49,275.781c-.091.075-.638-.4-1.161-1.119s-.829-1.384-.7-1.442.539.489,1.053,1.194S415.589,275.7,415.49,275.781Z" transform="translate(-236.078 -84.564)" fill="#263238"/>
        <path id="Trazado_7608" data-name="Trazado 7608" d="M360.418,203.83a16.364,16.364,0,0,1,.406,2.769c.182,1.716.365,4.145.448,6.731s.058,5.024,0,6.748a16.263,16.263,0,0,1-.232,2.794,21.569,21.569,0,0,1-.075-2.794c0-1.724,0-4.145-.116-6.731s-.216-4.974-.323-6.723A21.3,21.3,0,0,1,360.418,203.83Z" transform="translate(-226.983 -72.699)" fill="#263238"/>
        <path id="Trazado_7609" data-name="Trazado 7609" d="M329.819,243.264a2.7,2.7,0,0,1-1.119-.572,8.2,8.2,0,0,1-3.241-5.04,2.7,2.7,0,0,1-.058-1.252,15.544,15.544,0,0,0,1.567,3.813A15.752,15.752,0,0,0,329.819,243.264Z" transform="translate(-220.988 -78.268)" fill="#263238"/>
        <path id="Trazado_7610" data-name="Trazado 7610" d="M335.437,238.07a4.972,4.972,0,0,1,0,2.586,5.033,5.033,0,0,1-.887,2.429,17.483,17.483,0,0,1,.456-2.487,17.428,17.428,0,0,1,.431-2.528Z" transform="translate(-222.561 -78.554)" fill="#263238"/>
        <path id="Trazado_7611" data-name="Trazado 7611" d="M241,109.982a18.826,18.826,0,0,1-2.338-3.175,18.438,18.438,0,0,1-1.99-3.407,17.8,17.8,0,0,1,2.346,3.175A18.087,18.087,0,0,1,241,109.982Z" transform="translate(-205.823 -55.525)" fill="#263238"/>
        <path id="Trazado_7612" data-name="Trazado 7612" d="M244.979,105.97a15.336,15.336,0,0,1-2.329-2.727,15.04,15.04,0,0,1-1.99-2.993,15.2,15.2,0,0,1,2.329,2.736A14.69,14.69,0,0,1,244.979,105.97Z" transform="translate(-206.505 -54.987)" fill="#263238"/>
        <path id="Trazado_7613" data-name="Trazado 7613" d="M249.4,100.73a9.341,9.341,0,0,1-2.23-1.724A9.5,9.5,0,0,1,245.24,97a9.31,9.31,0,0,1,2.222,1.658A9.425,9.425,0,0,1,249.4,100.73Z" transform="translate(-207.288 -54.431)" fill="#263238"/>
        <path id="Trazado_7614" data-name="Trazado 7614" d="M320.5,460.761l-.174-9.641,18.064-.439.406,14.093-1.119.1c-4.974.4-25.334,1.658-28.692.754C305.215,464.6,320.5,460.761,320.5,460.761Z" transform="translate(-218.087 -114.91)" fill="#8a5de3"/>
        <g id="Grupo_2802" data-name="Grupo 2802" transform="translate(114.137 344.559)" opacity="0.4">
          <path id="Trazado_7615" data-name="Trazado 7615" d="M337.14,466.611a6.251,6.251,0,0,1,2.205-3.9,6.1,6.1,0,0,1,4.195-1.418l.124,5.049Z" transform="translate(-337.14 -461.282)"/>
        </g>
        <path id="Trazado_7616" data-name="Trazado 7616" d="M313.028,465.43s-5.347,1.658-4.651,2.553,21.314.348,30.391-.68l-.041-.4-24.041.829S314.072,465.447,313.028,465.43Z" transform="translate(-218.074 -117.433)" opacity="0.4"/>
        <path id="Trazado_7617" data-name="Trazado 7617" d="M338.994,467.18a1.135,1.135,0,0,1-.307.041l-.887.083-3.316.224c-2.769.166-6.632.348-10.835.456s-8.066.133-10.843.1l-3.316-.05h3.316c2.777,0,6.632-.058,10.843-.166s8.058-.265,10.827-.4l3.316-.157h.9Z" transform="translate(-218.068 -117.732)" fill="#263238"/>
        <path id="Trazado_7618" data-name="Trazado 7618" d="M315.627,467.947a4.775,4.775,0,0,0-1.807-2.777,2.388,2.388,0,0,1,1.335,1.111A2.487,2.487,0,0,1,315.627,467.947Z" transform="translate(-219.016 -117.388)" fill="#263238"/>
        <path id="Trazado_7619" data-name="Trazado 7619" d="M322.135,464.787a2.458,2.458,0,0,1-.58-.68c-.274-.406-.456-.771-.406-.829s.307.274.58.68S322.185,464.754,322.135,464.787Z" transform="translate(-220.267 -117.064)" fill="#263238"/>
        <path id="Trazado_7620" data-name="Trazado 7620" d="M323.842,463.915c0,.05-.323-.133-.647-.406s-.539-.531-.506-.58.332.141.647.415S323.883,463.873,323.842,463.915Z" transform="translate(-220.532 -117.004)" fill="#263238"/>
        <path id="Trazado_7621" data-name="Trazado 7621" d="M324.76,461.988a2.2,2.2,0,0,1-.945.141,2.225,2.225,0,0,1-.945-.075,2.171,2.171,0,0,1,.937-.066,2,2,0,0,1,.953,0Z" transform="translate(-220.563 -116.834)" fill="#263238"/>
        <path id="Trazado_7622" data-name="Trazado 7622" d="M325.051,460.58a1.832,1.832,0,0,1-1.045.332,1.965,1.965,0,0,1-1.086-.116,5.308,5.308,0,0,1,1.069-.1A5.908,5.908,0,0,1,325.051,460.58Z" transform="translate(-220.572 -116.603)" fill="#263238"/>
        <path id="Trazado_7623" data-name="Trazado 7623" d="M320.852,462.9a3.26,3.26,0,0,1-1.161,0,6.635,6.635,0,0,1-1.244-.24,2.923,2.923,0,0,1-.713-.274.6.6,0,0,1-.3-.348.447.447,0,0,1,.166-.472,2.147,2.147,0,0,1,3.042,1.318.831.831,0,0,1,.041.315,3.317,3.317,0,0,0-.555-.978,2.147,2.147,0,0,0-1.011-.614,1.766,1.766,0,0,0-1.376.124c-.182.141-.108.356.1.473a3.256,3.256,0,0,0,.663.265,8.464,8.464,0,0,0,1.2.282C320.388,462.871,320.852,462.855,320.852,462.9Z" transform="translate(-219.632 -116.731)" fill="#263238"/>
        <path id="Trazado_7624" data-name="Trazado 7624" d="M321.163,462.831a1.144,1.144,0,0,1-.157-.829,1.958,1.958,0,0,1,.3-.829,1.169,1.169,0,0,1,.945-.613.464.464,0,0,1,.373.531,1.259,1.259,0,0,1-.182.522,3.707,3.707,0,0,1-.531.713c-.357.365-.638.514-.655.489s.232-.216.539-.589a3.934,3.934,0,0,0,.473-.713c.149-.249.249-.688,0-.738s-.589.282-.754.514a2.023,2.023,0,0,0-.315.763A3.642,3.642,0,0,0,321.163,462.831Z" transform="translate(-220.241 -116.6)" fill="#263238"/>
        <path id="Trazado_7625" data-name="Trazado 7625" d="M343.442,461.21s-.522,0-1.335.083a5.687,5.687,0,0,0-4.634,3.888,12.655,12.655,0,0,0-.307,1.3.988.988,0,0,1,0-.365,5.443,5.443,0,0,1,.174-.978,5.571,5.571,0,0,1,1.766-2.744,5.48,5.48,0,0,1,3-1.252,4.341,4.341,0,0,1,.995,0,1.3,1.3,0,0,1,.34.066Z" transform="translate(-223.005 -116.695)" fill="#263238"/>
        <path id="Trazado_7626" data-name="Trazado 7626" d="M342.239,452.22a29.655,29.655,0,0,1,.249,3.706,31.04,31.04,0,0,1,0,3.714,31.305,31.305,0,0,1-.249-3.706,33.4,33.4,0,0,1,0-3.714Z" transform="translate(-223.867 -115.174)" fill="#263238"/>
        <path id="Trazado_7627" data-name="Trazado 7627" d="M333.251,465.655a10.088,10.088,0,0,1-2.628.332,10.338,10.338,0,0,1-2.653-.149c0-.066,1.185,0,2.645-.075A23.608,23.608,0,0,1,333.251,465.655Z" transform="translate(-221.435 -117.468)" fill="#263238"/>
        <path id="Trazado_7628" data-name="Trazado 7628" d="M338.506,465.548c.042.041-.091.249-.207.522s-.166.514-.232.514-.1-.282,0-.6S338.465,465.5,338.506,465.548Z" transform="translate(-223.151 -117.452)" fill="#263238"/>
        <path id="Trazado_7629" data-name="Trazado 7629" d="M340.031,463.5c.041.041-.066.232-.249.431s-.365.315-.415.274.075-.232.257-.423S339.99,463.457,340.031,463.5Z" transform="translate(-223.382 -117.101)" fill="#263238"/>
        <path id="Trazado_7630" data-name="Trazado 7630" d="M342.239,462.51c0,.058-.249.066-.514.166s-.448.249-.5.207.091-.3.423-.415S342.256,462.452,342.239,462.51Z" transform="translate(-223.701 -116.917)" fill="#263238"/>
        <path id="Trazado_7631" data-name="Trazado 7631" d="M343.968,462.051c0,.05-.083.149-.232.207s-.282.066-.307,0,.075-.157.224-.216S343.943,462,343.968,462.051Z" transform="translate(-224.078 -116.847)" fill="#263238"/>
        <path id="Trazado_7632" data-name="Trazado 7632" d="M372.212,459.571l-1.418-9.542,17.857-2.769,2.222,13.935-1.094.24c-4.883,1.036-24.87,4.974-28.352,4.452C357.58,465.34,372.212,459.571,372.212,459.571Z" transform="translate(-227.046 -114.326)" fill="#8a5de3"/>
        <g id="Grupo_2803" data-name="Grupo 2803" transform="translate(157.336 341.639)" opacity="0.4">
          <path id="Trazado_7633" data-name="Trazado 7633" d="M389.25,463.853a6.267,6.267,0,0,1,1.658-4.145,6.126,6.126,0,0,1,3.971-1.948l.779,4.974Z" transform="translate(-389.25 -457.76)"/>
        </g>
        <path id="Trazado_7634" data-name="Trazado 7634" d="M365.1,465.447s-5.082,2.363-4.286,3.134,21.189-2.4,30.051-4.593l-.091-.4L367.03,467.5S366.143,465.331,365.1,465.447Z" transform="translate(-227.037 -117.118)" opacity="0.4"/>
        <path id="Trazado_7635" data-name="Trazado 7635" d="M391.055,463.52a1.16,1.16,0,0,1-.307.083l-.87.191-3.225.647c-2.719.531-6.5,1.2-10.677,1.857s-7.992,1.169-10.777,1.5l-3.266.373-.887.083h-.315l.307-.058.887-.124,3.258-.439c2.744-.373,6.541-.912,10.727-1.567s7.958-1.31,10.686-1.791l3.233-.58.879-.149Z" transform="translate(-227.037 -117.106)" fill="#263238"/>
        <path id="Trazado_7636" data-name="Trazado 7636" d="M367.951,468.12a7.226,7.226,0,0,0-.829-1.451,7.068,7.068,0,0,0-1.3-1.069,2.918,2.918,0,0,1,2.147,2.487Z" transform="translate(-227.908 -117.462)" fill="#263238"/>
        <path id="Trazado_7637" data-name="Trazado 7637" d="M374,464.152c-.041.042-.348-.232-.671-.6s-.547-.7-.506-.746.348.232.672.6S374.046,464.111,374,464.152Z" transform="translate(-229.104 -116.984)" fill="#263238"/>
        <path id="Trazado_7638" data-name="Trazado 7638" d="M375.578,463.059c0,.05-.34-.091-.7-.315s-.605-.456-.572-.506.34.091.7.315S375.611,463.009,375.578,463.059Z" transform="translate(-229.359 -116.885)" fill="#263238"/>
        <path id="Trazado_7639" data-name="Trazado 7639" d="M376.245,460.993a4.143,4.143,0,0,1-1.865.315,2.022,2.022,0,0,1,.912-.265A2.114,2.114,0,0,1,376.245,460.993Z" transform="translate(-229.371 -116.669)" fill="#263238"/>
        <path id="Trazado_7640" data-name="Trazado 7640" d="M376.349,459.54a1.815,1.815,0,0,1-.995.464,1.84,1.84,0,0,1-1.094,0,5.25,5.25,0,0,1,1.045-.24A5.5,5.5,0,0,1,376.349,459.54Z" transform="translate(-229.351 -116.426)" fill="#263238"/>
        <path id="Trazado_7641" data-name="Trazado 7641" d="M372.492,462.4a3.317,3.317,0,0,1-1.152.174,6.355,6.355,0,0,1-1.26-.083,3.317,3.317,0,0,1-.746-.174.654.654,0,0,1-.34-.315.456.456,0,0,1,.1-.481,2.139,2.139,0,0,1,3.192.912.679.679,0,0,1,.083.307,3.415,3.415,0,0,0-.68-.9,2.129,2.129,0,0,0-1.078-.489,1.865,1.865,0,0,0-1.351.307c-.158.166-.058.373.166.456a2.8,2.8,0,0,0,.688.174,7.979,7.979,0,0,0,1.227.124C372.044,462.432,372.484,462.366,372.492,462.4Z" transform="translate(-228.445 -116.698)" fill="#263238"/>
        <path id="Trazado_7642" data-name="Trazado 7642" d="M372.817,462.3a1.136,1.136,0,0,1-.257-.779,1.931,1.931,0,0,1,.182-.887,1.169,1.169,0,0,1,.829-.729.464.464,0,0,1,.439.472,1.327,1.327,0,0,1-.116.539,3.391,3.391,0,0,1-.431.779,1.783,1.783,0,0,1-.589.572,6.5,6.5,0,0,0,.456-.655,3.851,3.851,0,0,0,.423-.8c.124-.273.158-.721-.133-.729s-.539.348-.68.605a1.9,1.9,0,0,0-.207.829A3.924,3.924,0,0,0,372.817,462.3Z" transform="translate(-229.06 -116.487)" fill="#263238"/>
        <path id="Trazado_7643" data-name="Trazado 7643" d="M394.842,457.691a8.272,8.272,0,0,0-1.31.249,5.679,5.679,0,0,0-4.1,4.46c-.149.829-.1,1.326-.141,1.326a.913.913,0,0,1-.058-.357,4.389,4.389,0,0,1,.05-.995,5.521,5.521,0,0,1,1.393-2.943,5.587,5.587,0,0,1,2.81-1.658,4.779,4.779,0,0,1,.987-.124A1.076,1.076,0,0,1,394.842,457.691Z" transform="translate(-231.911 -116.102)" fill="#263238"/>
        <path id="Trazado_7644" data-name="Trazado 7644" d="M392.32,449.09a32.732,32.732,0,0,1,.729,3.639,31.794,31.794,0,0,1,.506,3.681,32.567,32.567,0,0,1-.721-3.648A30.647,30.647,0,0,1,392.32,449.09Z" transform="translate(-232.439 -114.639)" fill="#263238"/>
        <path id="Trazado_7645" data-name="Trazado 7645" d="M385.136,463.428a14.465,14.465,0,0,1-5.206.829c0-.058,1.169-.174,2.6-.414S385.12,463.37,385.136,463.428Z" transform="translate(-230.321 -117.089)" fill="#263238"/>
        <path id="Trazado_7646" data-name="Trazado 7646" d="M390.35,462.769c.05,0-.058.257-.133.547s-.108.531-.166.539-.141-.265-.05-.6S390.3,462.727,390.35,462.769Z" transform="translate(-232.036 -116.977)" fill="#263238"/>
        <path id="Trazado_7647" data-name="Trazado 7647" d="M391.591,460.539c.05,0,0,.24-.191.456s-.323.365-.373.323.041-.232.191-.448S391.541,460.506,391.591,460.539Z" transform="translate(-232.216 -116.596)" fill="#263238"/>
        <path id="Trazado_7648" data-name="Trazado 7648" d="M393.649,459.268c0,.066-.24.1-.489.232s-.414.3-.473.265.058-.3.365-.456S393.657,459.21,393.649,459.268Z" transform="translate(-232.5 -116.369)" fill="#263238"/>
        <path id="Trazado_7649" data-name="Trazado 7649" d="M395.294,458.594a.362.362,0,0,1-.2.24c-.141.083-.274.108-.307.05s.058-.158.2-.24S395.261,458.544,395.294,458.594Z" transform="translate(-232.86 -116.259)" fill="#263238"/>
        <path id="Trazado_7650" data-name="Trazado 7650" d="M381.392,244.806c-.788.9-2.429.73-3.656-.356s-1.6-2.694-.829-3.59,2.429-.738,3.664.356S382.188,243.911,381.392,244.806Z" transform="translate(-229.735 -78.932)" fill="#fafafa"/>
        <path id="Trazado_7651" data-name="Trazado 7651" d="M343.364,242.66s9.434,14.922,10.777,20.617,26.528,156.49,26.528,156.49l-23.1,1.409L326.179,273.665,338.8,420.1l-22.731,1.907S298,266.983,299.609,262.9s5.853-18.454,5.853-18.454Z" transform="translate(-216.568 -79.339)" fill="#455a64"/>
        <path id="Trazado_7652" data-name="Trazado 7652" d="M330.3,273.113s0,.124-.182.249a.829.829,0,0,1-.887-.083,2.031,2.031,0,0,1-.547-1.3l-.3-1.8c-.439-2.669-1.011-6.35-1.658-10.429s-1.136-7.768-1.5-10.445c-.157-1.277-.3-2.338-.4-3.167a5.427,5.427,0,0,1-.091-1.177,7.3,7.3,0,0,1,.257,1.152c.141.829.323,1.882.539,3.15.439,2.661,1.011,6.35,1.658,10.429s1.136,7.768,1.492,10.437c.091.663.166,1.268.24,1.807a1.981,1.981,0,0,0,.414,1.219.713.713,0,0,0,.738.133C330.244,273.179,330.285,273.1,330.3,273.113Z" transform="translate(-220.882 -79.732)" fill="#263238"/>
        <path id="Trazado_7653" data-name="Trazado 7653" d="M328.45,248.443s0-.133.224-.257a1.26,1.26,0,0,1,.912-.133,1.227,1.227,0,0,1,.97.995,1.467,1.467,0,0,1-.746,1.534,1.517,1.517,0,0,1-1.658-.282,1.4,1.4,0,0,1-.39-1.326c.2-.829.763-.987.763-.937a2.28,2.28,0,0,0-.464.987,1.1,1.1,0,0,0,.365.987,1.152,1.152,0,0,0,1.219.191,1.1,1.1,0,0,0,.547-1.086.945.945,0,0,0-.663-.771A1.608,1.608,0,0,0,328.45,248.443Z" transform="translate(-221.394 -80.255)" fill="#263238"/>
        <path id="Trazado_7654" data-name="Trazado 7654" d="M347.108,126.725A12.874,12.874,0,0,0,335.5,112.308a13.128,13.128,0,0,0-13.993,11.274,142.7,142.7,0,0,0-1.658,14.2c.083,6.632,3.946,9.177,5.513,9.948a8.77,8.77,0,0,0,1.741.431h0v.05l-1.467,7.585c-.663,4.974,2.114,9.4,7.071,10.13s8.87-3.092,9.633-8.066Z" transform="translate(-220.047 -57.039)" fill="#936754"/>
        <path id="Trazado_7655" data-name="Trazado 7655" d="M323.727,129.7a1.061,1.061,0,0,0,.829,1.2,1.011,1.011,0,0,0,1.2-.788,1.053,1.053,0,0,0-.829-1.194,1,1,0,0,0-1.2.779Z" transform="translate(-220.708 -59.886)" fill="#263238"/>
        <path id="Trazado_7656" data-name="Trazado 7656" d="M323.728,127.909c.108.158.978-.315,2.1-.149s1.857.829,2,.73,0-.315-.348-.63a2.81,2.81,0,0,0-1.575-.746,2.769,2.769,0,0,0-1.7.282C323.819,127.611,323.669,127.843,323.728,127.909Z" transform="translate(-220.708 -59.575)" fill="#263238"/>
        <path id="Trazado_7657" data-name="Trazado 7657" d="M336.5,131.833a1.053,1.053,0,0,0,.829,1.194.995.995,0,0,0,1.2-.779,1.053,1.053,0,0,0-.829-1.2A1.02,1.02,0,0,0,336.5,131.833Z" transform="translate(-222.891 -60.249)" fill="#263238"/>
        <path id="Trazado_7658" data-name="Trazado 7658" d="M336.995,130.09c.108.158.987-.307,2.106-.141s1.849.829,2,.721,0-.315-.348-.63a2.918,2.918,0,0,0-1.575-.746,2.752,2.752,0,0,0-1.7.29C337.053,129.8,336.9,130.023,336.995,130.09Z" transform="translate(-222.974 -59.948)" fill="#263238"/>
        <path id="Trazado_7659" data-name="Trazado 7659" d="M330.037,137.652a7.215,7.215,0,0,0-1.774-.6c-.282-.066-.539-.166-.564-.365a1.558,1.558,0,0,1,.315-.829l1.161-2.056A33.449,33.449,0,0,0,331.9,128.4a38.547,38.547,0,0,0-3.15,5.173c-.4.73-.771,1.418-1.136,2.073a1.716,1.716,0,0,0-.307,1.1.7.7,0,0,0,.406.481,1.806,1.806,0,0,0,.481.141,7.869,7.869,0,0,0,1.84.282Z" transform="translate(-221.322 -59.8)" fill="#263238"/>
        <path id="Trazado_7660" data-name="Trazado 7660" d="M328.628,155.286s4.261.978,10.139-1.476c0,0-2.537,5.455-10.537,3.515Z" transform="translate(-221.48 -64.145)" fill="#7c5142"/>
        <path id="Trazado_7661" data-name="Trazado 7661" d="M330.659,142.776a2.023,2.023,0,0,1,1.915-.481,1.865,1.865,0,0,1,1.177.829,1.194,1.194,0,0,1-.108,1.351,1.368,1.368,0,0,1-1.517.157,4.344,4.344,0,0,1-1.31-1.061,1.344,1.344,0,0,1-.274-.381.39.39,0,0,1,.066-.415" transform="translate(-221.87 -62.164)" fill="#7c5142"/>
        <path id="Trazado_7662" data-name="Trazado 7662" d="M333.6,141.07c-.182,0-.356,1.177-1.525,1.89s-2.437.381-2.487.555.257.274.829.373a3.108,3.108,0,0,0,2.056-.4,2.678,2.678,0,0,0,1.2-1.592C333.775,141.393,333.684,141.078,333.6,141.07Z" transform="translate(-221.711 -61.967)" fill="#263238"/>
        <path id="Trazado_7663" data-name="Trazado 7663" d="M336.69,127.687c.066.323,1.2.34,2.487.688s2.3.829,2.487.622c.091-.124-.05-.439-.431-.829a4.46,4.46,0,0,0-3.813-.987C336.947,127.338,336.665,127.537,336.69,127.687Z" transform="translate(-222.926 -59.576)" fill="#263238"/>
        <path id="Trazado_7664" data-name="Trazado 7664" d="M324.617,125.2c.166.29.97.133,1.9.257s1.658.423,1.907.182,0-.39-.3-.68a2.57,2.57,0,0,0-1.476-.638,2.6,2.6,0,0,0-1.583.29C324.7,124.823,324.551,125.071,324.617,125.2Z" transform="translate(-220.859 -59.1)" fill="#263238"/>
        <path id="Trazado_7665" data-name="Trazado 7665" d="M358.27,159.826c-1.036-1.849-2.935-3.167-3.714-5.132-1.343-3.374,1.028-7.121,1.658-10.677.414-.945.771-1.824.962-2.388a11.868,11.868,0,0,0-.323-7.892c-.987-1.956-3.482-3.9-4.2-5.8-1.119-2.918-.29-3.672-1.144-9.757-.489-3.457-5.09-8.24-9.948-7.461a9.832,9.832,0,0,0-5.8-3.067,13.82,13.82,0,0,0-14.043,5.8,9.255,9.255,0,0,0-1.451,7.726c1.368,2.081,5.712.829,8.331-.638a6.226,6.226,0,0,0,8.506-1.766,2.959,2.959,0,0,0,2.089,1.127c.091.771.182,1.418.24,1.832.265,1.907,3.125,4.659,3.158,6.582.058,3.614-2.719,3.8-3.49,7.337-.58,2.661,1.442,4.22,1.824,6.914a4.4,4.4,0,0,1-.423,1.733,12.833,12.833,0,0,0-1.832,6.914c.207,2.28,1.443,4.377,1.558,6.632.2,4-2.951,7.262-4.792,10.777a17.682,17.682,0,0,0-1.749,10.694A156.348,156.348,0,0,0,356,181.678a1.658,1.658,0,0,0,2.039-1.874q.547-6.143,1.086-12.269C359.356,164.932,359.555,162.122,358.27,159.826Z" transform="translate(-220.059 -56.209)" fill="#263238"/>
      </g>
      <g id="freepik--character-1--inject-154" transform="translate(66.971 70.05)">
        <path id="Trazado_7666" data-name="Trazado 7666" d="M119.75,126.669a5.306,5.306,0,0,0-9.724,2.62,14.233,14.233,0,0,1-.1,3.15,3.175,3.175,0,0,1-3.316,2.222,4.377,4.377,0,0,0,2.1,1.559.754.754,0,0,0-1.069.605,1.235,1.235,0,0,0,.754,1.161,3.415,3.415,0,0,0,1.451.216c2.388,0,4.974-.265,6.773-1.84,1.948-1.658,2.487-4.435,2.968-6.98" transform="translate(-80.616 -86.585)" fill="#263238"/>
        <path id="Trazado_7667" data-name="Trazado 7667" d="M146.527,115c2.487-.141,4.808,1.368,6.524,3.183s3.051,3.979,4.841,5.728c1.326,1.3,2.943,2.421,3.747,4.145,1.285,2.678.207,6.135,1.824,8.622.912,1.4,2.487,2.222,3.465,3.606,1.177,1.733,1.086,4,.829,6.077a5.471,5.471,0,0,1-4.41,5.662,42.154,42.154,0,0,1-25.318.539" transform="translate(-85.989 -84.995)" fill="#263238"/>
        <path id="Trazado_7668" data-name="Trazado 7668" d="M127.54,132.2a12.874,12.874,0,0,1,11.606-14.416,13.141,13.141,0,0,1,14,11.274c.9,5.977,1.658,12.012,1.658,14.2-.083,6.632-3.946,9.177-5.513,9.948a8.774,8.774,0,0,1-1.741.431h0v.05l1.467,7.585c.663,4.974-2.114,9.4-7.071,10.13s-8.87-3.092-9.633-8.066Z" transform="translate(-84.178 -85.464)" fill="#ffbe9d"/>
        <path id="Trazado_7669" data-name="Trazado 7669" d="M156.144,135.89c-.108.157-.978-.315-2.1-.149s-1.857.829-2,.73,0-.315.348-.63a2.81,2.81,0,0,1,1.575-.746,2.728,2.728,0,0,1,1.658.282C156.069,135.592,156.227,135.84,156.144,135.89Z" transform="translate(-88.377 -88.428)" fill="#263238"/>
        <path id="Trazado_7670" data-name="Trazado 7670" d="M144.142,138.491c-.116.158-.987-.315-2.106-.149s-1.857.829-2,.73,0-.315.348-.63a2.918,2.918,0,0,1,1.575-.746,2.827,2.827,0,0,1,1.658.282C144.068,138.192,144.217,138.424,144.142,138.491Z" transform="translate(-86.323 -88.873)" fill="#263238"/>
        <path id="Trazado_7671" data-name="Trazado 7671" d="M149.305,143.092a7.856,7.856,0,0,1,1.774-.6c.282-.066.539-.166.564-.365a1.558,1.558,0,0,0-.315-.829l-1.161-2.056a38.176,38.176,0,0,1-2.727-5.405,37.859,37.859,0,0,1,3.158,5.181c.39.721.763,1.409,1.127,2.064a1.716,1.716,0,0,1,.323,1.177.7.7,0,0,1-.406.481,1.756,1.756,0,0,1-.473.141A7.952,7.952,0,0,1,149.305,143.092Z" transform="translate(-87.598 -88.218)" fill="#263238"/>
        <path id="Trazado_7672" data-name="Trazado 7672" d="M149.5,160.766s-4.269.978-10.147-1.476c0,0,2.537,5.455,10.537,3.515Z" transform="translate(-86.215 -92.57)" fill="#eb996e"/>
        <path id="Trazado_7673" data-name="Trazado 7673" d="M148.929,148.256a2.023,2.023,0,0,0-1.915-.481,1.9,1.9,0,0,0-1.177.829,1.194,1.194,0,0,0,.108,1.351,1.384,1.384,0,0,0,1.525.158,4.318,4.318,0,0,0,1.3-1.061,1.344,1.344,0,0,0,.274-.381.373.373,0,0,0-.066-.414" transform="translate(-87.297 -90.589)" fill="#eb996e"/>
        <path id="Trazado_7674" data-name="Trazado 7674" d="M145.836,146.55c.182,0,.356,1.177,1.525,1.89s2.437.39,2.487.555-.257.274-.829.373a3.117,3.117,0,0,1-2.056-.4,2.678,2.678,0,0,1-1.2-1.592C145.662,146.873,145.753,146.558,145.836,146.55Z" transform="translate(-87.304 -90.392)" fill="#263238"/>
        <path id="Trazado_7675" data-name="Trazado 7675" d="M143.068,134.143c-.066.323-1.21.34-2.487.688s-2.3.829-2.487.613c-.1-.116.041-.431.431-.829a4.269,4.269,0,0,1,1.791-.937,4.343,4.343,0,0,1,2.023-.058C142.811,133.787,143.093,133.994,143.068,134.143Z" transform="translate(-85.995 -88.165)" fill="#263238"/>
        <path id="Trazado_7676" data-name="Trazado 7676" d="M154.877,131.713c-.158.282-.97.133-1.9.257s-1.658.414-1.907.174c-.1-.116,0-.39.3-.68a2.769,2.769,0,0,1,3.059-.348C154.8,131.332,154.944,131.572,154.877,131.713Z" transform="translate(-88.213 -87.7)" fill="#263238"/>
        <path id="Trazado_7677" data-name="Trazado 7677" d="M155.243,126.771c-1.368,2.089-5.7.829-8.331-.638a6.226,6.226,0,0,1-8.505-1.757c-1.5,1.907-4.551,1.277-5.662-.879a6.8,6.8,0,0,1,1.045-7,9.766,9.766,0,0,1,5.96-3.241,13.828,13.828,0,0,1,14.043,5.8,9.255,9.255,0,0,1,1.451,7.726" transform="translate(-84.989 -84.656)" fill="#263238"/>
        <path id="Trazado_7678" data-name="Trazado 7678" d="M131.189,116.976c-4.916-.937-9.658,3.963-10.147,7.461-.829,6.085,0,6.848-1.144,9.766-.73,1.9-3.225,3.838-4.211,5.8a11.849,11.849,0,0,0-.323,7.884c.622,1.89,3.158,7.154,3.158,7.154s7.312-.24,11.051-1.194a6.226,6.226,0,0,0,2.645-1.227c.7-.647-.754-2.877-.622-3.822.381-2.7,2.4-4.261,1.824-6.922-.771-3.54-3.548-3.714-3.49-7.337,0-1.915,2.893-4.676,3.158-6.574s1.368-8.506-1.9-10.993" transform="translate(-82.024 -85.315)" fill="#263238"/>
        <path id="Trazado_7679" data-name="Trazado 7679" d="M121.969,131.458c.124,0-.133-1.227-.108-2.694s.307-2.653.182-2.694a6.591,6.591,0,0,0-.075,5.388Z" transform="translate(-83.15 -86.89)" fill="#d0dc64"/>
        <path id="Trazado_7680" data-name="Trazado 7680" d="M122.26,128.707a1.235,1.235,0,0,0,.531.124,5.057,5.057,0,0,0,1.476-.083,5.663,5.663,0,0,0,2.048-.829,6.1,6.1,0,0,0,1.865-1.948,12.383,12.383,0,0,1,1.525-2.089,6.175,6.175,0,0,1,1.708-1.194,14.329,14.329,0,0,1,1.857-.605,1.2,1.2,0,0,0-.547,0,5.379,5.379,0,0,0-1.434.356,5.878,5.878,0,0,0-1.865,1.177,10.966,10.966,0,0,0-1.575,2.122,5.985,5.985,0,0,1-3.623,2.711,16.581,16.581,0,0,1-1.965.257Z" transform="translate(-83.292 -86.203)" fill="#455a64"/>
        <path id="Trazado_7681" data-name="Trazado 7681" d="M107.79,137.273a1.061,1.061,0,0,0,.63.207,2.719,2.719,0,0,0,1.749-.5,4.294,4.294,0,0,0,1.592-2.172c.356-.953.522-2.048.829-3.125a4.576,4.576,0,0,1,1.608-2.553,3.515,3.515,0,0,1,2.387-.547,4.319,4.319,0,0,1,2.114.962,1.492,1.492,0,0,0-.423-.514,3.44,3.44,0,0,0-1.658-.754,3.764,3.764,0,0,0-2.653.522,4.833,4.833,0,0,0-1.8,2.761c-.332,1.119-.481,2.2-.829,3.109a4.145,4.145,0,0,1-1.384,2.064,2.8,2.8,0,0,1-1.567.58C108.022,137.314,107.8,137.24,107.79,137.273Z" transform="translate(-80.818 -87.258)" fill="#455a64"/>
        <path id="Trazado_7682" data-name="Trazado 7682" d="M122.11,127.479a1.432,1.432,0,0,0,.605,0,3.042,3.042,0,0,0,1.409-.829,6.218,6.218,0,0,0,1.277-2.073,13.263,13.263,0,0,1,1.21-2.595,5.944,5.944,0,0,1,4.3-2.487,10.189,10.189,0,0,1,2.147.116,2.085,2.085,0,0,0-.547-.24,5.206,5.206,0,0,0-1.658-.182,5.977,5.977,0,0,0-4.634,2.487,12.908,12.908,0,0,0-1.227,2.686,6.342,6.342,0,0,1-1.127,2.006A3.449,3.449,0,0,1,122.11,127.479Z" transform="translate(-83.267 -85.712)" fill="#455a64"/>
        <path id="Trazado_7683" data-name="Trazado 7683" d="M123.578,156.715s-.356-.406-.978-1.152a16.389,16.389,0,0,1-2.172-3.457,11.556,11.556,0,0,1-1.061-5.869,9.276,9.276,0,0,1,3.233-6.367c1.011-.829,2.172-1.434,3.15-2.263a6.035,6.035,0,0,0,2.048-3.051,18.338,18.338,0,0,0,.605-3.25,14.921,14.921,0,0,1,.564-2.761,4.8,4.8,0,0,1,2.487-3.009,4.146,4.146,0,0,1,1.442-.3,1.061,1.061,0,0,0-.39-.058,2.844,2.844,0,0,0-1.119.207,4.866,4.866,0,0,0-2.727,3.059,15.081,15.081,0,0,0-.622,2.81,19.892,19.892,0,0,1-.63,3.175,5.753,5.753,0,0,1-1.94,2.852c-.945.788-2.1,1.4-3.158,2.255a9.575,9.575,0,0,0-3.316,6.632,11.606,11.606,0,0,0,1.185,6.027,14.475,14.475,0,0,0,2.321,3.44,11,11,0,0,0,.829.829C123.553,156.665,123.561,156.732,123.578,156.715Z" transform="translate(-82.728 -86.737)" fill="#455a64"/>
        <path id="Trazado_7684" data-name="Trazado 7684" d="M165.99,153.581a1.973,1.973,0,0,0,.182-.257,6.866,6.866,0,0,0,.414-.829,8.631,8.631,0,0,0,.638-3.316,8.912,8.912,0,0,0-1.376-4.808A20.724,20.724,0,0,0,164,142.058a6.292,6.292,0,0,1-1.459-2.645c-.439-2.056.232-4.145.091-6.027a10.1,10.1,0,0,0-1.326-4.825,8.2,8.2,0,0,0-2.288-2.487,5.919,5.919,0,0,0-.788-.481c-.182-.1-.29-.141-.29-.124s.365.249.97.738a8.579,8.579,0,0,1,2.13,2.487,10.056,10.056,0,0,1,1.21,4.684,19.739,19.739,0,0,1-.174,2.91,9.948,9.948,0,0,0,.058,3.208,6.631,6.631,0,0,0,1.559,2.81,22.758,22.758,0,0,1,1.84,2.263,8.846,8.846,0,0,1,1.4,4.6,9.068,9.068,0,0,1-.489,3.25C166.172,153.183,165.956,153.564,165.99,153.581Z" transform="translate(-89.394 -86.786)" fill="#455a64"/>
        <path id="Trazado_7685" data-name="Trazado 7685" d="M142.55,114.175a21.968,21.968,0,0,1,3.167.182,11.523,11.523,0,0,1,6.566,3.532,14.309,14.309,0,0,1,3.159,6.839,18.383,18.383,0,0,1,.158,3.167,2.944,2.944,0,0,0,.182-.829,10.007,10.007,0,0,0,0-2.363,13.778,13.778,0,0,0-3.134-7.08,11.324,11.324,0,0,0-6.839-3.548,10,10,0,0,0-2.371,0A2.677,2.677,0,0,0,142.55,114.175Z" transform="translate(-86.762 -84.827)" fill="#455a64"/>
        <path id="Trazado_7686" data-name="Trazado 7686" d="M148.361,124.006a2.1,2.1,0,0,0,.108-.746,7.52,7.52,0,0,0-.215-2.039,8.4,8.4,0,0,0-10.537-6.209,7.66,7.66,0,0,0-1.89.829c-.406.257-.613.431-.6.456a15.147,15.147,0,0,1,2.562-.962,8.373,8.373,0,0,1,10.164,5.994,15.506,15.506,0,0,1,.406,2.678Z" transform="translate(-85.51 -84.941)" fill="#455a64"/>
        <path id="Trazado_7687" data-name="Trazado 7687" d="M94.587,276.727c-.182.638-.39,1.393-.589,2.3a6.973,6.973,0,0,0-.1,2.346,10.7,10.7,0,0,0,.655,2.86.914.914,0,0,1-1.111,1.318c-.73-.34-1.907-2.57-2.006-5.48s-2.86.746-3.9,2.056-4.41,5.223-5.065,5.223c-.962,0-1.144-1.02-.083-2.3s3.971-5.372,3.25-5.886-5.861,6.218-5.861,6.218-.829,1.658-1.724,1.061c-1.534-1.02,4.477-7.793,5.065-8.423.406-.439-.356-1.02-.763-.531s-4.974,6.856-6.566,5.8c-1.2-.779,4.891-5.612,5.107-7.461s-4.253,4.145-5.372,3.316c-.415-.3-.688-.572,2.371-3.639,1.484-1.484,7.2-5.994,7.2-5.994l11.606-40.5h15.229Z" transform="translate(-75.258 -104.493)" fill="#ffbe9d"/>
        <path id="Trazado_7688" data-name="Trazado 7688" d="M237.393,86.586c-1.161-.738-5.339,5.447-5.214,3.6s5.994-6.972,4.75-7.693c-1.617-.945-5.878,5.6-6.276,6.135s-1.177,0-.829-.489c.555-.655,6.242-7.71,4.659-8.646-.879-.522-1.658,1.136-1.658,1.136s-4.833,6.988-5.571,6.516,1.965-4.676,2.976-6.027.763-2.354-.191-2.3c-.655,0-3.847,4.145-4.816,5.455s-3.556,5.14-3.8,2.238-1.517-5.04-2.263-5.38-1.492.58-1.045,1.368a10.485,10.485,0,0,1,.829,2.827,7.012,7.012,0,0,1,0,2.354c-.149.9-.323,1.658-.481,2.313l-1.956,3.208s-14.3,25.334-16.679,28.949-20.211,18.711-20.211,18.711l1.409,19.9,29.015-25.7,17.8-37.512.439-.928s5.5-4.767,6.906-6.325C238.106,87.133,237.824,86.868,237.393,86.586Z" transform="translate(-93.101 -78.808)" fill="#ffbe9d"/>
        <path id="Trazado_7689" data-name="Trazado 7689" d="M161.164,183.5l22.325-23.253-8.845-19.175-30.5,21.761-.547-1.658-17.774,2.222v3.142l-.506.058s-16.912,3.076-20.311,15.751c-2.346,8.746-7.212,25.036-9.948,34.287l20.286,1.774,5.156-16.978s3.233,7.386,3.051,10.885-3.532,14.839-3.532,14.839l39.618,3.706-.589-33.425Z" transform="translate(-78.641 -89.455)" fill="#d0dc64"/>
        <path id="Trazado_7690" data-name="Trazado 7690" d="M161.43,196.224c0,.116-12.435.216-27.705.216s-27.705-.1-27.705-.216S118.455,196,133.725,196,161.43,196.1,161.43,196.224Z" transform="translate(-80.515 -98.848)" fill="#f5f5f5"/>
        <path id="Trazado_7691" data-name="Trazado 7691" d="M162.812,192.156c0,.124-12.435.216-27.7.216s-27.705-.091-27.705-.216,12.435-.216,27.705-.216S162.812,192.039,162.812,192.156Z" transform="translate(-80.753 -98.154)" fill="#f5f5f5"/>
        <path id="Trazado_7692" data-name="Trazado 7692" d="M87.478,433.09l-4.244,19.191L75.5,466.49a2.014,2.014,0,0,0,.928,2.794h0a1.981,1.981,0,0,0,1.84-.083c3.6-2.072,16.8-9.79,17.036-11.216.265-1.658,5.8-19.946,5.8-19.946Z" transform="translate(-75.254 -139.39)" fill="#d0dc64"/>
        <path id="Trazado_7693" data-name="Trazado 7693" d="M76.64,474.154,95.831,461.57l-.2.829a3.017,3.017,0,0,1-1.169,1.741c-1.559,1.127-5.936,4.145-15.925,9.948A2.006,2.006,0,0,1,76.64,474.154Z" transform="translate(-75.491 -144.261)" fill="#fff" opacity="0.6"/>
        <g id="Grupo_2804" data-name="Grupo 2804" transform="translate(17.182 310.148)" opacity="0.6">
          <path id="Trazado_7694" data-name="Trazado 7694" d="M96.735,452.988a1.219,1.219,0,0,0-.7,1.467,1.161,1.161,0,0,0,1.442.7,1.277,1.277,0,0,0,.738-1.55,1.21,1.21,0,0,0-1.583-.572" transform="translate(-95.981 -452.931)" fill="#fff"/>
        </g>
        <path id="Trazado_7695" data-name="Trazado 7695" d="M83.669,467.39a5.993,5.993,0,0,0-1.31-1.89,6.22,6.22,0,0,0-2.089-.962c0-.05.274-.141.73-.091a3.068,3.068,0,0,1,1.658.721,3.1,3.1,0,0,1,.995,1.484C83.76,467.083,83.719,467.39,83.669,467.39Z" transform="translate(-76.112 -144.75)" fill="#263238"/>
        <path id="Trazado_7696" data-name="Trazado 7696" d="M81.319,470.239c-.116.066-.572-.7-1.492-1.235a17.222,17.222,0,0,0-1.807-.7,2.247,2.247,0,0,1,2.023.323A2.38,2.38,0,0,1,81.319,470.239Z" transform="translate(-75.727 -145.394)" fill="#263238"/>
        <path id="Trazado_7697" data-name="Trazado 7697" d="M87.4,464.075a21.411,21.411,0,0,0-2.172-2.064,19.946,19.946,0,0,0-2.669-1.351,4.377,4.377,0,0,1,2.918,1,4.493,4.493,0,0,1,1.923,2.412Z" transform="translate(-76.504 -144.105)" fill="#263238"/>
        <path id="Trazado_7698" data-name="Trazado 7698" d="M89.524,457.54c-.075.1-1.028-.6-2.388-.987s-2.487-.323-2.537-.448A4.974,4.974,0,0,1,89.524,457.54Z" transform="translate(-76.852 -143.298)" fill="#263238"/>
        <path id="Trazado_7699" data-name="Trazado 7699" d="M91.153,450.777a10.3,10.3,0,0,0-2.487-1.086,10.03,10.03,0,0,0-2.686,0,1.483,1.483,0,0,1,.746-.381,4.4,4.4,0,0,1,2.031-.05,4.244,4.244,0,0,1,1.832.829C91.02,450.462,91.186,450.744,91.153,450.777Z" transform="translate(-77.088 -142.139)" fill="#263238"/>
        <path id="Trazado_7700" data-name="Trazado 7700" d="M89.1,447.762a1.658,1.658,0,0,1,.149-.73,5.2,5.2,0,0,1,1-1.749,2.321,2.321,0,0,1,1.219-.829.829.829,0,0,1,.829.39,1.368,1.368,0,0,1,.091.937,2.844,2.844,0,0,1-2.968,1.965,3.316,3.316,0,0,1-2.744-2.446,1.186,1.186,0,0,1,.174-.945.829.829,0,0,1,.912-.207,2.8,2.8,0,0,1,1.094.962,5.7,5.7,0,0,1,.937,1.807,1.732,1.732,0,0,1,.133.73A8.779,8.779,0,0,0,88.6,445.3a2.554,2.554,0,0,0-.97-.829.431.431,0,0,0-.5.108.829.829,0,0,0-.083.63,2.943,2.943,0,0,0,2.379,2.122,2.487,2.487,0,0,0,2.611-1.658.961.961,0,0,0,0-.655.439.439,0,0,0-.464-.224,2.115,2.115,0,0,0-1.045.68A7.761,7.761,0,0,0,89.1,447.762Z" transform="translate(-77.203 -141.271)" fill="#263238"/>
        <path id="Trazado_7701" data-name="Trazado 7701" d="M160.976,440.252l-1.152,15.337s15.2,6.317,15.27,9.169L145.25,463.6l.829-23.975Z" transform="translate(-87.224 -140.509)" fill="#d0dc64"/>
        <g id="Grupo_2805" data-name="Grupo 2805" transform="translate(62.523 313.413)" opacity="0.6">
          <path id="Trazado_7702" data-name="Trazado 7702" d="M151.583,456.886a1.21,1.21,0,0,0-.9,1.351,1.169,1.169,0,0,0,1.335.9,1.285,1.285,0,0,0,.945-1.442,1.219,1.219,0,0,0-1.5-.779" transform="translate(-150.674 -456.869)" fill="#fff"/>
        </g>
        <path id="Trazado_7703" data-name="Trazado 7703" d="M145.28,468.052l.174-2.412,28.526,2.006s1.31.63,1.119,1.559Z" transform="translate(-87.229 -144.957)" fill="#fff" opacity="0.6"/>
        <path id="Trazado_7704" data-name="Trazado 7704" d="M162.847,458.689c0,.141-.738.182-1.476.622s-1.136,1.036-1.268.978.116-.9,1.011-1.418S162.889,458.556,162.847,458.689Z" transform="translate(-89.758 -143.742)" fill="#263238"/>
        <path id="Trazado_7705" data-name="Trazado 7705" d="M166.707,460.407c0,.149-.605.365-1.127.962s-.688,1.243-.829,1.235-.207-.829.448-1.567S166.716,460.275,166.707,460.407Z" transform="translate(-90.542 -144.051)" fill="#263238"/>
        <path id="Trazado_7706" data-name="Trazado 7706" d="M169.068,464.491c-.133,0-.307-.7.1-1.492s1.094-1.069,1.152-.945-.381.531-.7,1.177S169.218,464.491,169.068,464.491Z" transform="translate(-91.27 -144.339)" fill="#263238"/>
        <path id="Trazado_7707" data-name="Trazado 7707" d="M162.629,454.35c-.066.124-.73-.1-1.55-.075s-1.476.257-1.55.133.564-.63,1.542-.638S162.7,454.234,162.629,454.35Z" transform="translate(-89.664 -142.927)" fill="#263238"/>
        <path id="Trazado_7708" data-name="Trazado 7708" d="M160.876,443.949l-.207,2.736-14.648-.7.083-2.47Z" transform="translate(-87.355 -141.172)" opacity="0.3"/>
        <path id="Trazado_7709" data-name="Trazado 7709" d="M162.562,450.2a2.868,2.868,0,0,1-1.492-.066,6.751,6.751,0,0,1-1.542-.539,7.383,7.383,0,0,1-.829-.489,1.889,1.889,0,0,1-.431-.373.638.638,0,0,1-.041-.779.829.829,0,0,1,.655-.307,2.144,2.144,0,0,1,.555.1,5.351,5.351,0,0,1,.912.356,5.19,5.19,0,0,1,1.343.962c.672.663.887,1.219.829,1.244s-.39-.423-1.078-.978a5.654,5.654,0,0,0-1.3-.829,5.96,5.96,0,0,0-.829-.3c-.315-.091-.58-.108-.663,0s0,.075,0,.166a1.511,1.511,0,0,0,.315.265q.377.264.779.489a8.143,8.143,0,0,0,1.418.605,9.6,9.6,0,0,1,1.4.473Z" transform="translate(-89.423 -141.88)" fill="#263238"/>
        <path id="Trazado_7710" data-name="Trazado 7710" d="M163.168,450.025a2.388,2.388,0,0,1-.34-1.459,4.975,4.975,0,0,1,.274-1.658,4.8,4.8,0,0,1,.414-.9,1.235,1.235,0,0,1,.978-.713.688.688,0,0,1,.605.439,1.916,1.916,0,0,1,.133.555,3.317,3.317,0,0,1,0,1,3.391,3.391,0,0,1-.7,1.517c-.613.754-1.227.9-1.243.829a8.937,8.937,0,0,0,.953-1.061,3.423,3.423,0,0,0,.522-1.384,3.052,3.052,0,0,0,0-.87c0-.315-.141-.572-.265-.547a1.057,1.057,0,0,0-.539.473,5.088,5.088,0,0,0-.406.788,5.241,5.241,0,0,0-.34,1.484C163.118,449.428,163.251,450.025,163.168,450.025Z" transform="translate(-90.228 -141.478)" fill="#263238"/>
        <path id="Trazado_7711" data-name="Trazado 7711" d="M119.37,238.06s-9.442,14.922-10.777,20.609c-1.219,5.115-21.861,116.267-26.138,139.272A4.709,4.709,0,0,0,85.77,403.3l18.677,5.612a4.7,4.7,0,0,0,5.961-3.523L133.4,297.7l-6.748,106.684a5.471,5.471,0,0,0,5.621,5.8l18.288-.564a5.48,5.48,0,0,0,5.289-5.123c1.583-25.7,8.738-142.588,7.3-146.235-1.608-4.145-5.844-18.454-5.844-18.454Z" transform="translate(-76.472 -106.04)" fill="#263238"/>
        <path id="Trazado_7712" data-name="Trazado 7712" d="M112.227,431.887a6.638,6.638,0,0,1-1.144-.141c-.73-.116-1.782-.315-3.084-.58-2.586-.531-6.151-1.376-10.031-2.487s-7.3-2.346-9.782-3.291c-1.235-.473-2.23-.87-2.91-1.169a5.845,5.845,0,0,1-1.036-.489,5.513,5.513,0,0,1,1.1.331l2.951,1.036c2.487.871,5.96,2.023,9.824,3.15s7.411,2.014,9.948,2.62l3.051.713a5.157,5.157,0,0,1,1.111.307Z" transform="translate(-76.791 -137.79)" fill="#455a64"/>
        <path id="Trazado_7713" data-name="Trazado 7713" d="M89.824,424.445a3.167,3.167,0,0,1-1.177-2.039,3.117,3.117,0,0,1,.149-2.346c.124,0,0,1.045.274,2.247S89.923,424.363,89.824,424.445Z" transform="translate(-77.517 -137.162)" fill="#455a64"/>
        <path id="Trazado_7714" data-name="Trazado 7714" d="M92.613,420.56a3.913,3.913,0,0,1-.216,2.205,4.071,4.071,0,0,1-1.028,1.965,9.947,9.947,0,0,1,.613-2.089A11.306,11.306,0,0,1,92.613,420.56Z" transform="translate(-78.01 -137.248)" fill="#455a64"/>
        <path id="Trazado_7715" data-name="Trazado 7715" d="M163.527,427.34a4.883,4.883,0,0,1,.531,1.948,4.974,4.974,0,0,1,.108,2.015,4.974,4.974,0,0,1-.539-1.948A4.692,4.692,0,0,1,163.527,427.34Z" transform="translate(-90.338 -138.407)" fill="#455a64"/>
        <path id="Trazado_7716" data-name="Trazado 7716" d="M166.163,426.09a5.422,5.422,0,0,1,.191,2.089,5.256,5.256,0,0,1-.249,2.081,5.421,5.421,0,0,1-.191-2.089,5.255,5.255,0,0,1,.249-2.081Z" transform="translate(-90.752 -138.193)" fill="#455a64"/>
        <path id="Trazado_7717" data-name="Trazado 7717" d="M152.142,244.33a2.819,2.819,0,0,1,0,.58c0,.431-.041.987-.066,1.658-.058,1.459-.182,3.565-.373,6.168-.381,5.206-1.094,12.385-2.247,20.269s-2.487,14.972-3.581,20.078c-.531,2.553-.978,4.617-1.31,6.035-.166.68-.29,1.219-.39,1.658a2.858,2.858,0,0,1-.166.564,4.141,4.141,0,0,1,.083-.589c.075-.414.182-.97.307-1.658.29-1.484.688-3.54,1.177-6.06.978-5.123,2.288-12.211,3.449-20.087s1.915-15.03,2.371-20.228c.216-2.562.39-4.651.514-6.151.058-.7.108-1.252.141-1.658A2.837,2.837,0,0,1,152.142,244.33Z" transform="translate(-87.012 -107.112)" fill="#455a64"/>
        <path id="Trazado_7718" data-name="Trazado 7718" d="M165.417,244.76a1.3,1.3,0,0,1-.415.05l-1.194.058c-1.045.05-2.553.091-4.419.116-3.722.066-8.87.058-14.557-.1s-10.827-.439-14.541-.713c-1.857-.133-3.316-.257-4.394-.356l-1.194-.133a1.416,1.416,0,0,1-.415-.075,1.977,1.977,0,0,1,.415,0l1.2.041,4.4.224c3.722.191,8.862.431,14.541.589s10.777.207,14.541.224H165a1.468,1.468,0,0,1,.414.075Z" transform="translate(-83.639 -106.987)" fill="#455a64"/>
        <path id="Trazado_7719" data-name="Trazado 7719" d="M156.294,244.09a8.4,8.4,0,0,1,0,1.409c0,.978-.075,2.271-.133,3.838-.124,3.233-.323,7.71-.572,12.65-.133,2.487-.232,4.816-.4,6.972a13.5,13.5,0,0,1-1.451,5.529,7.187,7.187,0,0,1-2.653,2.8,4.649,4.649,0,0,1-.962.423c-.232.066-.357.091-.357.075a12.8,12.8,0,0,0,1.235-.647,7.378,7.378,0,0,0,2.487-2.794,13.82,13.82,0,0,0,1.326-5.422c.141-2.13.224-4.493.356-6.964.249-4.974.5-9.409.7-12.642.108-1.567.191-2.852.257-3.83a8.38,8.38,0,0,1,.158-1.4Z" transform="translate(-87.997 -107.071)" fill="#455a64"/>
        <path id="Trazado_7720" data-name="Trazado 7720" d="M128.611,255.18a3.474,3.474,0,0,1,0,.962,13.628,13.628,0,0,1-.456,2.586,15.992,15.992,0,0,1-4.427,7.353,15.826,15.826,0,0,1-7.652,3.913,14.538,14.538,0,0,1-2.6.29,3.5,3.5,0,0,1-.953-.066,34.875,34.875,0,0,0,3.5-.522,16.091,16.091,0,0,0,11.822-11.059A33.425,33.425,0,0,0,128.611,255.18Z" transform="translate(-81.627 -108.968)" fill="#455a64"/>
        <path id="Trazado_7721" data-name="Trazado 7721" d="M177.626,271.372a2.145,2.145,0,0,1-.647-.166,10.253,10.253,0,0,1-1.658-.73,13.678,13.678,0,0,1-2.271-1.517A14.665,14.665,0,0,1,169,263.7a13.267,13.267,0,0,1-.887-2.578,9.442,9.442,0,0,1-.274-1.815,1.839,1.839,0,0,1,0-.671c.075,0,.149.945.564,2.412a16.278,16.278,0,0,0,.945,2.487,17.767,17.767,0,0,0,1.708,2.769,17,17,0,0,0,2.238,2.354,16.021,16.021,0,0,0,2.164,1.559C176.755,270.99,177.659,271.305,177.626,271.372Z" transform="translate(-91.082 -109.558)" fill="#455a64"/>
        <path id="Trazado_7722" data-name="Trazado 7722" d="M133.6,258.46a3.042,3.042,0,0,1,0,.373,9.77,9.77,0,0,1-.141,1.086c-.133.978-.323,2.379-.572,4.145-.5,3.623-1.277,8.862-2.3,15.328-2.039,12.924-5.148,30.739-9.169,50.3s-8.224,37.156-11.465,49.831c-1.658,6.342-2.968,11.465-3.938,14.988-.489,1.749-.829,3.109-1.127,4.062-.124.448-.232.829-.3,1.053a3.361,3.361,0,0,1-.124.357l.075-.365c.066-.265.158-.614.265-1.069.24-.953.6-2.321,1.045-4.079.92-3.54,2.23-8.671,3.805-15.022,3.167-12.692,7.3-30.292,11.341-49.848s7.171-37.346,9.285-50.254c1.061-6.458,1.89-11.689,2.437-15.3.282-1.791.506-3.192.655-4.145.075-.464.141-.829.182-1.086A2.629,2.629,0,0,0,133.6,258.46Z" transform="translate(-80.25 -109.529)" fill="#455a64"/>
        <path id="Trazado_7723" data-name="Trazado 7723" d="M157.9,405.413v-.357c0-.24.041-.589.075-1.028.075-.92.191-2.255.332-3.954.307-3.457.754-8.414,1.3-14.541,1.094-12.269,2.81-29.214,4.145-47.974.638-9.376,1.078-18.329,1.26-26.47s.124-15.477,0-21.637-.473-11.133-.721-14.574c-.116-1.7-.216-3.034-.282-3.954,0-.439-.05-.779-.066-1.036a2.739,2.739,0,0,1,0-.348,1.9,1.9,0,0,1,.05.348c0,.249.066.589.108,1.028.091.92.216,2.255.373,3.946.29,3.44.613,8.414.829,14.582s.282,13.5.116,21.653-.589,17.111-1.227,26.528c-1.293,18.769-3.059,35.7-4.228,47.974-.605,6.118-1.094,11.075-1.442,14.524-.174,1.7-.315,3.026-.414,3.946-.05.439-.083.779-.116,1.028A1.453,1.453,0,0,1,157.9,405.413Z" transform="translate(-89.387 -111.423)" fill="#455a64"/>
        <path id="Trazado_7724" data-name="Trazado 7724" d="M165.508,431.108c0,.116-6.557.937-14.673,1.832s-14.706,1.525-14.715,1.409,6.549-.945,14.665-1.84S165.491,431.017,165.508,431.108Z" transform="translate(-85.662 -139.05)" fill="#455a64"/>
      </g>
      <g id="freepik--Plant--inject-154" transform="translate(341.578 230.778)">
        <path id="Trazado_7725" data-name="Trazado 7725" d="M448.578,414.374a1.942,1.942,0,0,0-.149-.348l-.472-1.011a24.956,24.956,0,0,1-1.393-4.062,35.666,35.666,0,0,1,.116-15.66,84.5,84.5,0,0,1,2.91-10.52c1.227-3.73,2.653-7.693,3.822-11.971a46.158,46.158,0,0,0,1.882-13.77c-.174-4.875-1.617-9.732-3.2-14.574s-3.216-9.583-3.714-14.35a21.869,21.869,0,0,1,2.636-13.264c2.1-3.871,4.742-7.179,6.715-10.6a36.858,36.858,0,0,0,4.037-10.188,38.06,38.06,0,0,0,.257-15.792,29.273,29.273,0,0,0-1.658-5.571,2.121,2.121,0,0,0,.1.365l.332,1.069a42.609,42.609,0,0,1,1.028,4.145,38.422,38.422,0,0,1-.414,15.668,36.729,36.729,0,0,1-4.045,10.056c-1.973,3.391-4.626,6.682-6.765,10.595a22.308,22.308,0,0,0-2.719,13.521c.5,4.85,2.147,9.616,3.722,14.458s3.009,9.65,3.192,14.433a45.975,45.975,0,0,1-1.84,13.629c-1.152,4.261-2.562,8.224-3.772,11.971a82.392,82.392,0,0,0-2.86,10.578,35.218,35.218,0,0,0,.042,15.751,23.532,23.532,0,0,0,1.492,4.054c.224.414.39.746.522.995a1.393,1.393,0,0,0,.2.4Z" transform="translate(-413.168 -272.69)" fill="#263238"/>
        <path id="Trazado_7726" data-name="Trazado 7726" d="M456.141,310.613s4.012-12.825-3.183-20.344a.439.439,0,0,0-.763.224C451.822,292.607,451.349,299.065,456.141,310.613Z" transform="translate(-414.281 -275.671)" fill="#d0dc64"/>
        <path id="Trazado_7727" data-name="Trazado 7727" d="M454.12,295.46a12.2,12.2,0,0,0,.274,2.371q.4,2.487.912,5.654c.34,2.114.638,4.029.9,5.662a12.67,12.67,0,0,0,.423,2.346,9.831,9.831,0,0,0-.075-2.388c-.133-1.467-.39-3.482-.754-5.7s-.746-4.211-1.061-5.646A10.7,10.7,0,0,0,454.12,295.46Z" transform="translate(-414.647 -276.584)" fill="#263238"/>
        <path id="Trazado_7728" data-name="Trazado 7728" d="M448.673,347.943s-2.487-13.214-12.336-16.489a.439.439,0,0,0-.572.547C436.42,334.057,439.015,339.985,448.673,347.943Z" transform="translate(-411.505 -282.734)" fill="#d0dc64"/>
        <path id="Trazado_7729" data-name="Trazado 7729" d="M439.71,335.58a11.245,11.245,0,0,0,1.343,1.965l3.457,4.576,3.44,4.576a12.732,12.732,0,0,0,1.467,1.874,9.584,9.584,0,0,0-1.177-2.073c-.829-1.235-1.973-2.893-3.316-4.684s-2.628-3.366-3.573-4.493a10.876,10.876,0,0,0-1.641-1.741Z" transform="translate(-412.183 -283.444)" fill="#263238"/>
        <path id="Trazado_7730" data-name="Trazado 7730" d="M452.96,387.349s1.492-13.363-7.005-19.365a.448.448,0,0,0-.7.365C445.275,370.47,446.038,376.928,452.96,387.349Z" transform="translate(-413.131 -288.971)" fill="#d0dc64"/>
        <path id="Trazado_7731" data-name="Trazado 7731" d="M448,372.88a11.75,11.75,0,0,0,.713,2.271l1.981,5.388c.738,2.006,1.4,3.83,1.965,5.38a12.428,12.428,0,0,0,.829,2.222,9.712,9.712,0,0,0-.522-2.33c-.414-1.418-1.053-3.316-1.832-5.447s-1.534-3.987-2.122-5.339A10.779,10.779,0,0,0,448,372.88Z" transform="translate(-413.601 -289.823)" fill="#263238"/>
        <path id="Trazado_7732" data-name="Trazado 7732" d="M443.849,427.651s1.011-13.405-7.7-19.067a.439.439,0,0,0-.688.381C435.559,411.088,436.554,417.479,443.849,427.651Z" transform="translate(-411.456 -295.915)" fill="#d0dc64"/>
        <path id="Trazado_7733" data-name="Trazado 7733" d="M438.38,413.37a11.5,11.5,0,0,0,.829,2.247l2.172,5.306c.829,1.981,1.534,3.78,2.147,5.314a13.559,13.559,0,0,0,.945,2.18,9.726,9.726,0,0,0-.605-2.3c-.464-1.4-1.169-3.316-2.023-5.38s-1.658-3.929-2.313-5.256A10.9,10.9,0,0,0,438.38,413.37Z" transform="translate(-411.956 -296.746)" fill="#263238"/>
        <path id="Trazado_7734" data-name="Trazado 7734" d="M464,297.715s11.921-6.217,12.153-16.621a.448.448,0,0,0-.7-.39C473.666,281.931,468.758,286.151,464,297.715Z" transform="translate(-416.337 -274.047)" fill="#d0dc64"/>
        <path id="Trazado_7735" data-name="Trazado 7735" d="M473.675,285.5a11.681,11.681,0,0,0-1.484,1.865l-3.357,4.642-3.374,4.634A13.372,13.372,0,0,0,464.1,298.6a9.771,9.771,0,0,0,1.658-1.733c.945-1.136,2.189-2.744,3.5-4.56s2.487-3.507,3.241-4.742A10.9,10.9,0,0,0,473.675,285.5Z" transform="translate(-416.354 -274.881)" fill="#263238"/>
        <path id="Trazado_7736" data-name="Trazado 7736" d="M448.54,331.117s12.277-5.488,13.14-15.859a.439.439,0,0,0-.672-.423C459.168,315.947,454.011,319.86,448.54,331.117Z" transform="translate(-413.693 -279.885)" fill="#d0dc64"/>
        <path id="Trazado_7737" data-name="Trazado 7737" d="M459.014,319.48a11.609,11.609,0,0,0-1.6,1.774l-3.631,4.46-3.648,4.427a12.78,12.78,0,0,0-1.476,1.865,9.493,9.493,0,0,0,1.741-1.658c1.011-1.069,2.354-2.595,3.772-4.336s2.653-3.316,3.523-4.535A10.562,10.562,0,0,0,459.014,319.48Z" transform="translate(-413.714 -280.691)" fill="#263238"/>
        <path id="Trazado_7738" data-name="Trazado 7738" d="M457.057,367.357s8.431-10.479,4.477-20.1a.448.448,0,0,0-.829-.075C459.61,349.011,456.8,354.848,457.057,367.357Z" transform="translate(-415.147 -285.386)" fill="#d0dc64"/>
        <path id="Trazado_7739" data-name="Trazado 7739" d="M460.723,352.47a11.993,11.993,0,0,0-.613,2.3c-.348,1.608-.763,3.507-1.219,5.6l-1.235,5.6a12.5,12.5,0,0,0-.456,2.338,10.148,10.148,0,0,0,.829-2.247c.406-1.409.9-3.382,1.376-5.579s.829-4.186,1.078-5.637A11.014,11.014,0,0,0,460.723,352.47Z" transform="translate(-415.174 -286.332)" fill="#263238"/>
        <path id="Trazado_7740" data-name="Trazado 7740" d="M447,411.8s12.178-5.7,12.874-16.074a.448.448,0,0,0-.68-.414C457.363,396.45,452.272,400.446,447,411.8Z" transform="translate(-413.43 -293.646)" fill="#d0dc64"/>
        <path id="Trazado_7741" data-name="Trazado 7741" d="M457.249,400a12.588,12.588,0,0,0-1.559,1.8l-3.565,4.493-3.573,4.477a13.6,13.6,0,0,0-1.442,1.9,10.046,10.046,0,0,0,1.716-1.658c.995-1.086,2.3-2.636,3.7-4.394s2.6-3.4,3.449-4.593A10.567,10.567,0,0,0,457.249,400Z" transform="translate(-413.449 -294.46)" fill="#263238"/>
        <path id="Trazado_7742" data-name="Trazado 7742" d="M417.718,351.44a1.019,1.019,0,0,0,0,.3v.829c0,.829.083,1.9.149,3.258.158,2.868.373,6.864.638,11.606h0c.87,4.858,3.316,10.255,6.673,15.494,2.446,3.855,4.974,7.362,7.212,10.619a75.437,75.437,0,0,1,5.455,9.036,38.241,38.241,0,0,1,2.487,6.524c.207.829.373,1.434.464,1.865a3.859,3.859,0,0,0,.174.647,2.71,2.71,0,0,0-.075-.672c-.058-.431-.191-1.069-.381-1.882a34.581,34.581,0,0,0-2.4-6.632,71.371,71.371,0,0,0-5.339-9.036c-2.189-3.316-4.734-6.8-7.163-10.636-3.316-5.206-5.8-10.52-6.682-15.3h0c-.332-4.775-.613-8.771-.829-11.606-.108-1.36-.2-2.446-.265-3.25a5.746,5.746,0,0,0-.083-.829A1.824,1.824,0,0,0,417.718,351.44Z" transform="translate(-408.421 -286.156)" fill="#263238"/>
        <path id="Trazado_7743" data-name="Trazado 7743" d="M426.069,384.054s-5.156-12.435,1.335-20.551a.439.439,0,0,1,.779.149C428.755,365.725,429.825,372.108,426.069,384.054Z" transform="translate(-409.518 -288.189)" fill="#d0dc64"/>
        <path id="Trazado_7744" data-name="Trazado 7744" d="M427.36,368.76a10.034,10.034,0,0,0-.414,2.346c-.182,1.459-.381,3.482-.547,5.72s-.232,4.269-.232,5.745a9.806,9.806,0,0,0,.141,2.379,12.819,12.819,0,0,0,.216-2.371c.108-1.658.24-3.581.381-5.72s.282-4.07.4-5.72A12.253,12.253,0,0,0,427.36,368.76Z" transform="translate(-409.864 -289.118)" fill="#263238"/>
        <g id="Grupo_2806" data-name="Grupo 2806" transform="translate(14.609 75.135)" opacity="0.3">
          <path id="Trazado_7745" data-name="Trazado 7745" d="M426.069,384.054s-5.156-12.435,1.335-20.551a.439.439,0,0,1,.779.149C428.755,365.725,429.825,372.108,426.069,384.054Z" transform="translate(-424.127 -363.324)"/>
        </g>
        <path id="Trazado_7746" data-name="Trazado 7746" d="M445.5,420.188s-4.145-12.791,2.993-20.377a.448.448,0,0,1,.763.216C449.665,402.141,450.2,408.59,445.5,420.188Z" transform="translate(-412.969 -294.404)" fill="#d0dc64"/>
        <path id="Trazado_7747" data-name="Trazado 7747" d="M447.964,405a10.772,10.772,0,0,0-.6,2.3c-.3,1.442-.663,3.44-1.011,5.654s-.58,4.244-.7,5.712a9.815,9.815,0,0,0-.05,2.379,12.635,12.635,0,0,0,.406-2.346c.24-1.658.522-3.548.829-5.662l.829-5.67A11.5,11.5,0,0,0,447.964,405Z" transform="translate(-413.184 -295.315)" fill="#263238"/>
        <g id="Grupo_2807" data-name="Grupo 2807" transform="translate(31.337 105.268)" opacity="0.3">
          <path id="Trazado_7748" data-name="Trazado 7748" d="M445.5,420.188s-4.145-12.791,2.993-20.377a.448.448,0,0,1,.763.216C449.665,402.141,450.2,408.59,445.5,420.188Z" transform="translate(-444.306 -399.672)"/>
        </g>
        <path id="Trazado_7749" data-name="Trazado 7749" d="M416.49,366.193s-11.017-7.71-9.907-18.056a.448.448,0,0,1,.738-.29C408.922,349.307,413.249,354.123,416.49,366.193Z" transform="translate(-406.505 -285.523)" fill="#d0dc64"/>
        <g id="Grupo_2808" data-name="Grupo 2808" transform="translate(0 62.215)" opacity="0.3">
          <path id="Trazado_7750" data-name="Trazado 7750" d="M416.49,366.193s-11.017-7.71-9.907-18.056a.448.448,0,0,1,.738-.29C408.922,349.307,413.249,354.123,416.49,366.193Z" transform="translate(-406.505 -347.738)"/>
        </g>
        <path id="Trazado_7751" data-name="Trazado 7751" d="M409,352.9a10.268,10.268,0,0,0,.912,2.205c.63,1.326,1.542,3.142,2.6,5.115s2.1,3.731,2.885,4.974a9.85,9.85,0,0,0,1.4,1.932,13.228,13.228,0,0,0-1.094-2.114c-.829-1.451-1.724-3.15-2.744-5.032l-2.736-5.04A11.887,11.887,0,0,0,409,352.9Z" transform="translate(-406.932 -286.406)" fill="#263238"/>
        <path id="Trazado_7752" data-name="Trazado 7752" d="M436.909,406.552s-13.264-2.073-16.845-11.846a.448.448,0,0,1,.539-.589C422.667,394.705,428.669,397.134,436.909,406.552Z" transform="translate(-408.819 -293.451)" fill="#d0dc64"/>
        <g id="Grupo_2809" data-name="Grupo 2809" transform="translate(11.217 100.649)" opacity="0.3">
          <path id="Trazado_7753" data-name="Trazado 7753" d="M436.909,406.552s-13.264-2.073-16.845-11.846a.448.448,0,0,1,.539-.589C422.667,394.705,428.669,397.134,436.909,406.552Z" transform="translate(-420.036 -394.1)"/>
        </g>
        <path id="Trazado_7754" data-name="Trazado 7754" d="M424.28,398a10.2,10.2,0,0,0,1.791,1.575c1.152.92,2.769,2.147,4.593,3.449s3.523,2.429,4.783,3.192a9.37,9.37,0,0,0,2.106,1.119,14.668,14.668,0,0,0-1.9-1.459c-1.351-.945-2.935-2.064-4.676-3.316l-4.675-3.316A12.16,12.16,0,0,0,424.28,398Z" transform="translate(-409.545 -294.118)" fill="#263238"/>
        <path id="Trazado_7755" data-name="Trazado 7755" d="M454.367,438.61,450.554,463.6l-15.212-.025L430.21,438.61Z" transform="translate(-410.559 -301.062)" fill="#455a64"/>
        <path id="Trazado_7756" data-name="Trazado 7756" d="M440.941,447.363a4.269,4.269,0,0,0,.7-2.089,2.28,2.28,0,0,0-1.036-2.147,2.487,2.487,0,0,0-2.545.207,3.7,3.7,0,0,0-1.459,2.3,10.479,10.479,0,0,0,.423,5.712,6.375,6.375,0,0,0,1.766,2.487,4.874,4.874,0,0,0,2.926,1.227,5.346,5.346,0,0,0,3.051-.887,8.984,8.984,0,0,0,2.271-2.056,4.973,4.973,0,0,0,1.152-2.744,3.176,3.176,0,0,0-1.078-2.645,2.487,2.487,0,0,0-2.7-.166,2.869,2.869,0,0,0-1.55,2.039,3.9,3.9,0,0,0,1.923,3.954,5.372,5.372,0,0,0,3.673.531,8.545,8.545,0,0,0,2.62-1.02,15.341,15.341,0,0,0,1.459-.995,3.238,3.238,0,0,0,.473-.4,2.794,2.794,0,0,0-.514.332c-.34.216-.829.555-1.5.912a8.447,8.447,0,0,1-2.578.937,5.149,5.149,0,0,1-3.482-.555,3.6,3.6,0,0,1-1.733-3.631,2.487,2.487,0,0,1,1.376-1.782,2.114,2.114,0,0,1,2.3.141,2.819,2.819,0,0,1,.92,2.33,4.6,4.6,0,0,1-1.078,2.487,8.762,8.762,0,0,1-2.172,1.956,4.974,4.974,0,0,1-2.8.829,4.5,4.5,0,0,1-2.678-1.128,6.009,6.009,0,0,1-1.658-2.354,9.12,9.12,0,0,1-.6-2.76,9.428,9.428,0,0,1,.166-2.7,3.316,3.316,0,0,1,1.285-2.081,2.122,2.122,0,0,1,2.172-.216,1.94,1.94,0,0,1,.887,1.84,3.988,3.988,0,0,1-.63,1.94,5.63,5.63,0,0,1-2.835,2.122,6.277,6.277,0,0,1-2.711.323,7.5,7.5,0,0,1-2.247-.663l.133.091a3.408,3.408,0,0,0,.4.224,5.46,5.46,0,0,0,1.658.514,6.342,6.342,0,0,0,2.8-.265,5.885,5.885,0,0,0,3.009-2.188" transform="translate(-411.019 -301.791)" fill="#263238"/>
      </g>
    </g>
  </g>
</svg>
