<svg xmlns="http://www.w3.org/2000/svg" width="57.875" height="46.652" viewBox="0 0 57.875 46.652">
  <g id="UnggaSVG" transform="translate(-17.2 -12.973)">
    <g id="Grupo_944" data-name="Grupo 944" transform="translate(17.2 47.082)">
      <path id="Trazado_4128" data-name="Trazado 4128" d="M24.962,77.377V76.2a4.208,4.208,0,0,1-1.428.869,5.324,5.324,0,0,1-1.677.31A4.609,4.609,0,0,1,17.2,72.719V68h1.615v4.719a2.667,2.667,0,0,0,.435,1.552,3.15,3.15,0,0,0,2.67,1.552,2.667,2.667,0,0,0,1.552-.435,3.206,3.206,0,0,0,1.118-1.118,3.433,3.433,0,0,0,.435-1.552V68h1.615v9.377Z" transform="translate(-17.2 -67.938)" fill="#fff"/>
      <path id="Trazado_4129" data-name="Trazado 4129" d="M38.315,68v1.18a4.208,4.208,0,0,1,1.428-.869A5.019,5.019,0,0,1,41.419,68a4.941,4.941,0,0,1,2.36.621A4.815,4.815,0,0,1,45.456,70.3a4.328,4.328,0,0,1,.621,2.36v4.719H44.462V72.657a2.667,2.667,0,0,0-.435-1.552,3.15,3.15,0,0,0-2.67-1.552,2.667,2.667,0,0,0-1.552.435A3.61,3.61,0,0,0,38.749,71.1a3.433,3.433,0,0,0-.435,1.552v4.719H36.7V68Z" transform="translate(-24.591 -67.938)" fill="#fff"/>
      <path id="Trazado_4130" data-name="Trazado 4130" d="M61,67.962h.186a4.743,4.743,0,0,1,2.3.683,4.635,4.635,0,0,1,1.615,1.677,4.262,4.262,0,0,1,.621,2.3v3.167a4.476,4.476,0,0,1-.621,2.36,4.609,4.609,0,0,1-4.036,2.3V78.829a2.95,2.95,0,0,0,1.49-.373,3.4,3.4,0,0,0,1.118-.994,3.555,3.555,0,0,0,.5-1.428,5.49,5.49,0,0,1-1.428.869,5.019,5.019,0,0,1-1.677.311,4.475,4.475,0,0,1-2.36-.621,4.609,4.609,0,0,1-2.3-4.036,4.119,4.119,0,0,1,.621-2.3,4.635,4.635,0,0,1,1.615-1.677,4.743,4.743,0,0,1,2.3-.683Zm-1.552,1.987a2.766,2.766,0,0,0-1.118,1.118,3.433,3.433,0,0,0-.435,1.552,2.667,2.667,0,0,0,.435,1.552,2.766,2.766,0,0,0,1.118,1.118A3.226,3.226,0,0,0,61,75.724a2.667,2.667,0,0,0,1.552-.435,2.437,2.437,0,0,0,1.118-1.118,3.433,3.433,0,0,0,.435-1.552,2.667,2.667,0,0,0-.435-1.552,2.766,2.766,0,0,0-1.118-1.118A3.433,3.433,0,0,0,61,69.515,4.454,4.454,0,0,0,59.443,69.949Z" transform="translate(-32.058 -67.9)" fill="#fff"/>
      <path id="Trazado_4131" data-name="Trazado 4131" d="M80.5,67.962h.186a4.743,4.743,0,0,1,2.3.683,4.635,4.635,0,0,1,1.615,1.677,4.262,4.262,0,0,1,.621,2.3v3.167a4.476,4.476,0,0,1-.621,2.36,4.347,4.347,0,0,1-1.677,1.677,4.476,4.476,0,0,1-2.36.621V78.829a2.95,2.95,0,0,0,1.49-.373,3.4,3.4,0,0,0,1.118-.994,3.554,3.554,0,0,0,.5-1.428,5.49,5.49,0,0,1-1.428.869,5.019,5.019,0,0,1-1.677.311,4.476,4.476,0,0,1-2.36-.621,4.609,4.609,0,0,1-2.3-4.036,4.119,4.119,0,0,1,.621-2.3,4.635,4.635,0,0,1,1.615-1.677,4.743,4.743,0,0,1,2.3-.683ZM79,69.949a2.766,2.766,0,0,0-1.118,1.118,3.433,3.433,0,0,0-.435,1.552,2.667,2.667,0,0,0,.435,1.552A2.766,2.766,0,0,0,79,75.29a3.227,3.227,0,0,0,1.552.435,2.667,2.667,0,0,0,1.552-.435,3.211,3.211,0,0,0,1.118-1.118,3.433,3.433,0,0,0,.435-1.552,2.667,2.667,0,0,0-.435-1.552,2.766,2.766,0,0,0-1.118-1.118,3.433,3.433,0,0,0-1.552-.435A3.8,3.8,0,0,0,79,69.949Z" transform="translate(-39.449 -67.9)" fill="#fff"/>
      <path id="Trazado_4132" data-name="Trazado 4132" d="M102.379,68.652a5.4,5.4,0,0,1,1.677,1.677,4.328,4.328,0,0,1,.621,2.36v4.719h-1.615v-1.18a4.207,4.207,0,0,1-1.428.869,5.324,5.324,0,0,1-1.677.31A4.609,4.609,0,0,1,95.3,72.75a4.476,4.476,0,0,1,.621-2.36A4.815,4.815,0,0,1,97.6,68.714a4.328,4.328,0,0,1,2.36-.621A3.91,3.91,0,0,1,102.379,68.652Zm-3.912,1.366a2.767,2.767,0,0,0-1.118,1.118,3.433,3.433,0,0,0-.435,1.552,2.667,2.667,0,0,0,.435,1.552,2.437,2.437,0,0,0,1.118,1.118,3.433,3.433,0,0,0,1.552.435,2.668,2.668,0,0,0,1.552-.435,2.766,2.766,0,0,0,1.118-1.118,3.433,3.433,0,0,0,.435-1.552,2.667,2.667,0,0,0-.435-1.552,3.211,3.211,0,0,0-1.118-1.118,3.433,3.433,0,0,0-1.552-.435A4.454,4.454,0,0,0,98.467,70.018Z" transform="translate(-46.802 -67.969)" fill="#fff"/>
    </g>
    <path id="Sustracción_13" data-name="Sustracción 13" d="M9154.405-5585.254c-.126,0-.254-.005-.392-.017-2.217-.139-3.778-1.09-4.285-2.609a5.872,5.872,0,0,1,.063-3.291c.872-2.839,1.515-5.817,2.2-8.971l.009-.041.252-1.167.028-.13a7.973,7.973,0,0,1-4.344,1.547,5.708,5.708,0,0,1-3.231-1.05c-2.69-1.818-2.675-4.64-2.36-6.894a15.092,15.092,0,0,1,1.365-4.534c1-2.223,2.468-3.435,4.348-3.6.13-.011.258-.017.379-.017,1.666,0,3.105.981,4.4,3,.286.455.578.917.864,1.37l.213.337.012.019c1.308,2.066,2.66,4.2,3.878,6.347a2.774,2.774,0,0,0,2.575,1.633c.128,0,.265-.006.406-.019.216-.008.432-.012.643-.012a28.949,28.949,0,0,1,4.262.385,4.464,4.464,0,0,1,3.663,2.669l.037.077c1.39,2.9,2.827,5.9,4.311,8.8.985,1.968.843,3.572-.436,4.9a3.9,3.9,0,0,1-3.123,1.214,17.171,17.171,0,0,1-1.751-.122l-.341-.035c-.49-.049-.554-.4-.621-.769-.016-.086-.035-.193-.062-.289l-.024-.091a5.825,5.825,0,0,0-1.279-2.7c-.086.239-.166.479-.232.683-.428,1.292-.832,2.512-2.314,3.042a7.033,7.033,0,0,1-2.239.294c-.236,0-.483,0-.683-.009s-.437-.008-.668-.008c-.361,0-.661.011-.941.033q-.076,0-.146,0a.769.769,0,0,1-.612-.191c-.16-.194-.1-.514-.029-.885l.014-.074c.009-.053.019-.106.028-.161.294-1.495.577-3.016.852-4.487l.052-.278c.289-1.55.587-3.152.9-4.735a1.735,1.735,0,0,0-.868-2.236c-.706,3.038-1.415,6.2-2.3,10.247C9156.593-5586.621,9156.33-5585.255,9154.405-5585.254Zm-8.429-24.588a1.988,1.988,0,0,0-1.9,1.345,2.321,2.321,0,0,0,.682,2.857,1.219,1.219,0,0,0,.328.158c.194.071.395.145.46.316a.647.647,0,0,1-.1.519,2.068,2.068,0,0,0,0,1.925l.146.108.012.009a3.768,3.768,0,0,1,.464.38,2.891,2.891,0,0,0,1.943.78,3.29,3.29,0,0,0,1.533-.407,2.012,2.012,0,0,0,1.057-2.8c-.236-.592.141-.841.506-1.083l.052-.034a1.887,1.887,0,0,0,.622-2.733,2.141,2.141,0,0,0-1.96-1.371,2.719,2.719,0,0,0-.585.068,7.134,7.134,0,0,1-1.4.14,7.115,7.115,0,0,1-1.4-.14A2.694,2.694,0,0,0,9145.977-5609.843Z" transform="translate(-9110.795 5629)" fill="#fff"/>
    <path id="Trazado_4134" data-name="Trazado 4134" d="M39.823,37.3c1.49,3.043,3.1,5.216,5.527,6.707a1.014,1.014,0,0,1,.373,1.366c-.5,2.111-.994,4.223-1.428,6.334a1.232,1.232,0,0,1-1.3,1.118c-4.285.621-6.334-1.615-5.34-5.9.373-1.552.683-3.1.994-4.6C39.015,40.9,39.326,39.411,39.823,37.3Z" transform="translate(-7.657 -9.22)" fill="#fff"/>
    <path id="Trazado_4137" data-name="Trazado 4137" d="M47.042,26.806c0,.683-.062.994-.5,1.056s-.745-.124-.745-.621c0-.435.248-.807.683-.745A.565.565,0,0,1,47.042,26.806Z" transform="translate(-10.84 -5.123)" fill="#fff"/>
    <path id="Trazado_4138" data-name="Trazado 4138" d="M51.542,27.046c0,.559-.124.807-.559.869-.5.062-.683-.248-.683-.683a.688.688,0,0,1,.559-.745C51.356,26.362,51.48,26.8,51.542,27.046Z" transform="translate(-12.546 -5.113)" fill="#fff"/>
  </g>
</svg>
