<svg xmlns="http://www.w3.org/2000/svg" xmlns:xlink="http://www.w3.org/1999/xlink" width="427.228" height="458.469" viewBox="0 0 427.228 458.469">
  <defs>
    <clipPath id="clip-path">
      <rect id="Rectángulo_172" data-name="Rectángulo 172" width="38.459" height="50.789" transform="translate(50.789) rotate(90)" fill="#2d1674" stroke="#263238" stroke-linecap="round" stroke-linejoin="round" stroke-width="1"/>
    </clipPath>
    <clipPath id="clip-path-2">
      <path id="Trazado_456" data-name="Trazado 456" d="M284.334,432.448s13.192-4.861,15.779,4.861c0,0-2.354,10.706-.944,16.551s8.5,17.038,8.95,19.169c.852,4.15.2,4.435.2,4.435s-5.165,2.983-12.1-.213-18.956-16.946-20.833-19.778,5.886-14.034,5.886-14.034Z" transform="translate(-275.101 -431.232)" fill="#fff" stroke="#263238" stroke-linecap="round" stroke-linejoin="round" stroke-width="1"/>
    </clipPath>
    <clipPath id="clip-path-3">
      <path id="Trazado_474" data-name="Trazado 474" d="M235.462,267.218s-16.388,23.542-8.179,61.758c0,0,1.725,2.03,3.937-4.353,0,0,3.511,12.248,32.32,4.353l1.654-8.768,6.19,8.768s12.309-18.8,29.925-22.01c0,0-7.854-16.368-14.988-26.049L280.4,263.21Z" transform="translate(-224.982 -263.21)" fill="#263238" stroke="#263238" stroke-miterlimit="10" stroke-width="1"/>
    </clipPath>
    <clipPath id="clip-path-4">
      <path id="Trazado_478" data-name="Trazado 478" d="M245.038,445.428s5.622-4.008,17.251-3.207c0,0,.842,13.953,2.425,18.012s9.924,11.091,11.477,12.3,1.553,5.419,1.553,5.419H242.41a111.891,111.891,0,0,1,2.8-17.921Z" transform="translate(-242.41 -442.116)" fill="#fff" stroke="#263238" stroke-linecap="round" stroke-linejoin="round" stroke-width="1"/>
    </clipPath>
    <clipPath id="clip-path-5">
      <path id="Trazado_493" data-name="Trazado 493" d="M275.506,192.391s12,17.251,13.324,23.9-8.311,28.129-4.7,52.615c0,0,6.535,12.745,2.314,13.06,0,0-7.1-1.522-14.694,4.232-12.695,9.589-32.087,23.421-46.679,23.421,0,0-5.764-2.03-4.059-5.622a63.691,63.691,0,0,1,4.059-7.225s3.592-48.576,0-58.612c-1.258-3.511-3.968-15.465-3.968-15.465-.558-16.916-4.445-23.634-4.445-23.634s10.006-2.577,31.3-2.618C247.986,196.44,271.67,191.681,275.506,192.391Z" transform="translate(-216.66 -192.319)" fill="#2d1674" stroke="#263238" stroke-linecap="round" stroke-linejoin="round" stroke-width="1"/>
    </clipPath>
    <clipPath id="clip-path-6">
      <path id="Trazado_497" data-name="Trazado 497" d="M271,192.695s-.548-3.47,4.81-3.044,10.148,12.563,10.066,21.036C285.826,210.656,276.236,195.567,271,192.695Z" transform="translate(-270.984 -189.614)" fill="#2d1674" stroke="#263238" stroke-linecap="round" stroke-linejoin="round" stroke-width="1"/>
    </clipPath>
    <clipPath id="clip-path-7">
      <path id="Trazado_501" data-name="Trazado 501" d="M221.178,222.635s2.6-1.664,3.958-6.88c2.3-8.828-2.821-17.768-2.821-17.768-2.435-3.511-9.2-1.512-7.6,2.03S220.376,206.622,221.178,222.635Z" transform="translate(-214.471 -196.151)" fill="#2d1674" stroke="#263238" stroke-linecap="round" stroke-linejoin="round" stroke-width="1"/>
    </clipPath>
  </defs>
  <g id="About_me-bro" data-name="About me-bro" transform="translate(-36.458 -28.874)">
    <g id="freepik--background-simple--inject-64" transform="translate(36.458 29.116)">
      <path id="Trazado_383" data-name="Trazado 383" d="M68.072,169.126S39.78,242.189,79.539,315.759,201.188,428.194,266.731,461.427s133.6,17.048,165.943-37.384S420.66,330.757,420.6,253.138,432.218,154.97,390.156,89.4,244.985,9.3,167.011,57.939,68.072,169.126,68.072,169.126Z" transform="translate(-36.135 -29.116)" fill="#fff" opacity="0.7"/>
      <path id="Trazado_384" data-name="Trazado 384" d="M38.956,286.12a110.223,110.223,0,0,1,5.865-65.452c11.731-28.981,36.907-49.571,65.127-61.586,41-17.464,81.3-17.789,114.576-52.006,10.28-10.553,18.915-22.639,29.428-32.969,30.97-30.443,76.3-26.79,110.152-2.618,70.617,50.423,96.016,150.3,92.089,232.856-1.766,37.049-19.453,71.53-47.45,95.844C345.423,455.169,237.9,445.914,165.2,417.217,110.913,395.816,51.692,345.889,38.956,286.12Z" transform="translate(-36.458 -28.773)" fill="#2d1674"/>
      <path id="Trazado_385" data-name="Trazado 385" d="M38.956,286.12a110.223,110.223,0,0,1,5.865-65.452c11.731-28.981,36.907-49.571,65.127-61.586,41-17.464,81.3-17.789,114.576-52.006,10.28-10.553,18.915-22.639,29.428-32.969,30.97-30.443,76.3-26.79,110.152-2.618,70.617,50.423,96.016,150.3,92.089,232.856-1.766,37.049-19.453,71.53-47.45,95.844C345.423,455.169,237.9,445.914,165.2,417.217,110.913,395.816,51.692,345.889,38.956,286.12Z" transform="translate(-36.458 -28.773)" fill="#fff" opacity="0.7"/>
    </g>
    <g id="freepik--Floor--inject-64" transform="translate(64.254 486.654)">
      <line id="Línea_50" data-name="Línea 50" x2="377.794" fill="none" stroke="#263238" stroke-linecap="round" stroke-linejoin="round" stroke-width="1"/>
    </g>
    <g id="freepik--Plant--inject-64" transform="translate(144.821 386.436)">
      <path id="Trazado_386" data-name="Trazado 386" d="M342.34,426.56s15.272,1.208,15.911,12.471C358.231,439.031,342.787,446.155,342.34,426.56Z" transform="translate(-140.307 -380.571)" fill="none" stroke="#263238" stroke-linecap="round" stroke-linejoin="round" stroke-width="1"/>
      <path id="Trazado_387" data-name="Trazado 387" d="M372.12,429.426s8.534-11.538,22.325-5.622C394.445,423.8,386.022,437.747,372.12,429.426Z" transform="translate(-139.868 -380.637)" fill="none" stroke="#263238" stroke-linecap="round" stroke-linejoin="round" stroke-width="1"/>
      <path id="Trazado_388" data-name="Trazado 388" d="M393.258,393.42s2.456,22.193-17.748,16.084C375.469,409.5,381.883,393.187,393.258,393.42Z" transform="translate(-139.818 -381.06)" fill="none" stroke="#263238" stroke-linecap="round" stroke-linejoin="round" stroke-width="1"/>
      <path id="Trazado_389" data-name="Trazado 389" d="M368.553,381.24s15.972,8.625,4.232,21.7C372.785,402.936,361.572,393.6,368.553,381.24Z" transform="translate(-139.954 -381.24)" fill="none" stroke="#263238" stroke-linecap="round" stroke-linejoin="round" stroke-width="1"/>
      <path id="Trazado_390" data-name="Trazado 390" d="M349.14,400.791s17.373-1.756,17.373,14.328C366.513,415.119,349.14,415.809,349.14,400.791Z" transform="translate(-140.207 -380.952)" fill="none" stroke="#263238" stroke-linecap="round" stroke-linejoin="round" stroke-width="1"/>
      <path id="Trazado_391" data-name="Trazado 391" d="M362,448.686c-.243-5.4-.243-12.339,3.044-19.676,7.6-16.926,10.148-31.184,6.2-41.23" transform="translate(-140.018 -381.144)" fill="none" stroke="#263238" stroke-linecap="round" stroke-linejoin="round" stroke-width="1"/>
      <path id="Trazado_392" data-name="Trazado 392" d="M354.77,405.05s10.411,4.14,13.953,14.866" transform="translate(-140.124 -380.889)" fill="none" stroke="#263238" stroke-linecap="round" stroke-linejoin="round" stroke-width="1"/>
      <path id="Trazado_393" data-name="Trazado 393" d="M387.786,402.17s-6.018,8.2-16.236,7.316" transform="translate(-139.876 -380.931)" fill="none" stroke="#263238" stroke-linecap="round" stroke-linejoin="round" stroke-width="1"/>
      <path id="Trazado_394" data-name="Trazado 394" d="M387.889,426.1s-16.662,4.8-23.289,3.227" transform="translate(-139.979 -380.578)" fill="none" stroke="#263238" stroke-linecap="round" stroke-linejoin="round" stroke-width="1"/>
      <path id="Trazado_395" data-name="Trazado 395" d="M347.25,431.56s7.448,8.179,14.937,8.047" transform="translate(-140.235 -380.497)" fill="none" stroke="#263238" stroke-linecap="round" stroke-linejoin="round" stroke-width="1"/>
      <path id="Trazado_396" data-name="Trazado 396" d="M382.04,447.8H345.823a.883.883,0,0,0-.883.883v2.75a.883.883,0,0,0,.883.873h1.015l3.237,28.17h27.652l3.227-28.17h1.015a.883.883,0,0,0,.883-.873v-2.75a.883.883,0,0,0-.812-.883Z" transform="translate(-140.269 -380.258)" fill="none" stroke="#263238" stroke-miterlimit="10" stroke-width="1"/>
      <line id="Línea_51" data-name="Línea 51" x2="21.066" transform="translate(208.933 72.048)" fill="none" stroke="#263238" stroke-linecap="round" stroke-linejoin="round" stroke-width="1"/>
      <line id="Línea_52" data-name="Línea 52" x2="3.166" transform="translate(233.978 72.048)" fill="none" stroke="#263238" stroke-linecap="round" stroke-linejoin="round" stroke-width="1"/>
      <path id="Trazado_397" data-name="Trazado 397" d="M189.638,463.992c-3.9-4.445-16.074,6.829-16.074,6.829,3.663-10.259,13.121-15.536,15.566-25s-4.577-14.034-7.327-3.46S171.24,465.29,171.24,465.29c4.942-17.017,6.373-45.41.264-45.41-4.78,0-4.871,6.535-3.511,18.134s-1.634,28.362-1.634,28.362-2.588-18.722-6.007-22.325-9.133-2.5-2.73,11.974c3.9,8.828,5.074,18.469,5.358,24.872h9.275a25.968,25.968,0,0,1,11.629-11.446C186.279,468.294,191.83,466.488,189.638,463.992Z" transform="translate(-143.076 -380.67)" fill="none" stroke="#263238" stroke-linecap="round" stroke-linejoin="round" stroke-width="1"/>
      <path id="Trazado_398" data-name="Trazado 398" d="M167.34,480.667c2.03-14.866,5.348-30.443,4.394-45.867" transform="translate(-142.89 -380.45)" fill="none" stroke="#263238" stroke-linecap="round" stroke-linejoin="round" stroke-width="1"/>
      <path id="Trazado_399" data-name="Trazado 399" d="M160.79,454.77c3.46,7.824,4.79,17.129,5.449,25.6" transform="translate(-142.986 -380.155)" fill="none" stroke="#263238" stroke-linecap="round" stroke-linejoin="round" stroke-width="1"/>
      <path id="Trazado_400" data-name="Trazado 400" d="M184.051,447.86s-7.935,16.754-15.221,23.187" transform="translate(-142.868 -380.257)" fill="none" stroke="#263238" stroke-linecap="round" stroke-linejoin="round" stroke-width="1"/>
      <path id="Trazado_401" data-name="Trazado 401" d="M184.073,465.65s-13.415,9.265-16.713,14.562" transform="translate(-142.889 -379.994)" fill="none" stroke="#263238" stroke-linecap="round" stroke-linejoin="round" stroke-width="1"/>
      <path id="Trazado_402" data-name="Trazado 402" d="M180.081,446.592c-1.258-2.141-3.826-1.928-5.561-.081" transform="translate(-142.784 -380.298)" fill="none" stroke="#263238" stroke-linecap="round" stroke-linejoin="round" stroke-width="1"/>
      <path id="Trazado_403" data-name="Trazado 403" d="M161.546,467.668s-7.225-11.436-9.965-22.01-9.772-5.987-7.327,3.47,11.9,14.744,15.566,25c0,0-12.177-11.274-16.074-6.829-2.192,2.5,3.359,4.3,5.764,5.449a24.172,24.172,0,0,1,9.407,7.844H172.11" transform="translate(-143.245 -380.379)" fill="none" stroke="#263238" stroke-linecap="round" stroke-linejoin="round" stroke-width="1"/>
      <path id="Trazado_404" data-name="Trazado 404" d="M167.2,427.888c-1.208-3.968-2.821-5.206-5.6-4.455-3.755,1.015-1.015,11.233.355,23.481" transform="translate(-143.002 -380.62)" fill="none" stroke="#263238" stroke-linecap="round" stroke-linejoin="round" stroke-width="1"/>
    </g>
    <g id="freepik--Icons--inject-64" transform="translate(53.386 29.374)">
      <path id="Trazado_405" data-name="Trazado 405" d="M218.89,97.56v23.329l8.7,8.768" transform="translate(-50.694 -28.364)" fill="none" stroke="#263238" stroke-linecap="round" stroke-linejoin="round" stroke-width="1"/>
      <path id="Trazado_406" data-name="Trazado 406" d="M229.107,129.213a1.624,1.624,0,1,1-1.624-1.613,1.624,1.624,0,0,1,1.624,1.613Z" transform="translate(-50.591 -27.92)" fill="#fff" stroke="#263238" stroke-linecap="round" stroke-linejoin="round" stroke-width="1"/>
      <rect id="Rectángulo_158" data-name="Rectángulo 158" width="70.211" height="70.211" rx="7.9" transform="translate(133.532)" fill="#fff" stroke="#263238" stroke-linecap="round" stroke-linejoin="round" stroke-width="1"/>
      <rect id="Rectángulo_159" data-name="Rectángulo 159" width="70.211" height="70.211" rx="7.9" transform="translate(313.469 67.278)" fill="#fff" stroke="#263238" stroke-linecap="round" stroke-linejoin="round" stroke-width="1"/>
      <path id="Trazado_407" data-name="Trazado 407" d="M363.285,130.26H298.848l-20.508,20.6" transform="translate(-49.817 -27.881)" fill="none" stroke="#263238" stroke-linecap="round" stroke-linejoin="round" stroke-width="1"/>
      <path id="Trazado_408" data-name="Trazado 408" d="M279.977,150.583a1.613,1.613,0,1,1-1.613-1.613A1.613,1.613,0,0,1,279.977,150.583Z" transform="translate(-49.84 -27.605)" fill="#fff" stroke="#263238" stroke-linecap="round" stroke-linejoin="round" stroke-width="1"/>
      <rect id="Rectángulo_160" data-name="Rectángulo 160" width="70.211" height="70.211" rx="7.9" transform="translate(339.589 257.18)" fill="#fff" stroke="#263238" stroke-linecap="round" stroke-linejoin="round" stroke-width="1"/>
      <path id="Trazado_409" data-name="Trazado 409" d="M389.182,318.249H351.139L293.47,260.58" transform="translate(-49.593 -25.958)" fill="none" stroke="#263238" stroke-linecap="round" stroke-linejoin="round" stroke-width="1"/>
      <path id="Trazado_410" data-name="Trazado 410" d="M295.107,260.6a1.613,1.613,0,1,1-1.613-1.613A1.613,1.613,0,0,1,295.107,260.6Z" transform="translate(-49.617 -25.981)" fill="#fff" stroke="#263238" stroke-linecap="round" stroke-linejoin="round" stroke-width="1"/>
      <rect id="Rectángulo_161" data-name="Rectángulo 161" width="70.211" height="70.211" rx="7.9" transform="translate(22.446 318.248)" fill="#fff" stroke="#263238" stroke-linecap="round" stroke-linejoin="round" stroke-width="1"/>
      <path id="Trazado_411" data-name="Trazado 411" d="M109.86,344.067V312.9l57.4-42.884" transform="translate(-52.303 -25.819)" fill="none" stroke="#263238" stroke-linecap="round" stroke-linejoin="round" stroke-width="1"/>
      <path id="Trazado_412" data-name="Trazado 412" d="M168.047,270.023a1.624,1.624,0,1,1-1.624-1.613A1.624,1.624,0,0,1,168.047,270.023Z" transform="translate(-51.492 -25.842)" fill="#fff" stroke="#263238" stroke-linecap="round" stroke-linejoin="round" stroke-width="1"/>
      <rect id="Rectángulo_162" data-name="Rectángulo 162" width="70.211" height="70.211" rx="7.9" transform="translate(0 119.63)" fill="#fff" stroke="#263238" stroke-linecap="round" stroke-linejoin="round" stroke-width="1"/>
      <line id="Línea_53" data-name="Línea 53" x2="75.488" transform="translate(70.211 154.74)" fill="none" stroke="#263238" stroke-linecap="round" stroke-linejoin="round" stroke-width="1"/>
      <path id="Trazado_413" data-name="Trazado 413" d="M198.357,181.884a1.613,1.613,0,1,1-.469-1.147A1.613,1.613,0,0,1,198.357,181.884Z" transform="translate(-51.045 -27.143)" fill="#fff" stroke="#263238" stroke-linecap="round" stroke-linejoin="round" stroke-width="1"/>
      <rect id="Rectángulo_163" data-name="Rectángulo 163" width="58.876" height="32.432" rx="3.54" transform="translate(5.672 138.18)" fill="#2d1674" stroke="#263238" stroke-linecap="round" stroke-linejoin="round" stroke-width="1"/>
      <rect id="Rectángulo_164" data-name="Rectángulo 164" width="35.872" height="32.432" transform="translate(17.17 138.18)" fill="#fff"/>
      <line id="Línea_54" data-name="Línea 54" y1="3.46" transform="translate(17.17 155.836)" fill="#fff" stroke="#263238" stroke-linecap="round" stroke-linejoin="round" stroke-width="1"/>
      <path id="Trazado_414" data-name="Trazado 414" d="M105.932,192.184v5.449H70.06V188.45" transform="translate(-52.89 -27.022)" fill="none" stroke="#263238" stroke-linecap="round" stroke-linejoin="round" stroke-width="1"/>
      <line id="Línea_55" data-name="Línea 55" y2="7.479" transform="translate(53.041 146.917)" fill="#fff" stroke="#263238" stroke-linecap="round" stroke-linejoin="round" stroke-width="1"/>
      <path id="Trazado_415" data-name="Trazado 415" d="M70.06,171.882V165.54h35.872v5.277" transform="translate(-52.89 -27.36)" fill="none" stroke="#263238" stroke-linecap="round" stroke-linejoin="round" stroke-width="1"/>
      <path id="Trazado_416" data-name="Trazado 416" d="M113.184,188.572a2.192,2.192,0,1,1-2.192-2.192A2.192,2.192,0,0,1,113.184,188.572Z" transform="translate(-52.319 -27.053)" fill="#9857ed"/>
      <path id="Trazado_417" data-name="Trazado 417" d="M112.032,173.436a1.1,1.1,0,1,1-1.1-1.1,1.1,1.1,0,0,1,1.1,1.1Z" transform="translate(-52.303 -27.26)" fill="#9857ed"/>
      <path id="Trazado_418" data-name="Trazado 418" d="M112.032,177.756a1.1,1.1,0,1,1-1.1-1.1,1.1,1.1,0,0,1,1.1,1.1Z" transform="translate(-52.303 -27.196)" fill="#9857ed"/>
      <path id="Trazado_419" data-name="Trazado 419" d="M113.136,176.692a1.1,1.1,0,1,1,1.1-1.1A1.1,1.1,0,0,1,113.136,176.692Z" transform="translate(-52.271 -27.228)" fill="#9857ed"/>
      <path id="Trazado_420" data-name="Trazado 420" d="M108.816,176.692a1.1,1.1,0,1,1,1.1-1.1A1.1,1.1,0,0,1,108.816,176.692Z" transform="translate(-52.335 -27.228)" fill="#9857ed"/>
      <circle id="Elipse_23" data-name="Elipse 23" cx="2.192" cy="2.192" r="2.192" transform="translate(9.346 145.08)" fill="#9857ed"/>
      <path id="Trazado_421" data-name="Trazado 421" d="M63.43,189.636a1.1,1.1,0,1,1,1.1,1.1A1.1,1.1,0,0,1,63.43,189.636Z" transform="translate(-52.988 -27.021)" fill="#9857ed"/>
      <path id="Trazado_422" data-name="Trazado 422" d="M63.43,185.316a1.1,1.1,0,1,1,1.1,1.1,1.1,1.1,0,0,1-1.1-1.1Z" transform="translate(-52.988 -27.085)" fill="#9857ed"/>
      <path id="Trazado_423" data-name="Trazado 423" d="M62.366,186.38a1.1,1.1,0,1,1-1.1,1.1,1.1,1.1,0,0,1,1.1-1.1Z" transform="translate(-53.02 -27.053)" fill="#9857ed"/>
      <path id="Trazado_424" data-name="Trazado 424" d="M66.686,186.38a1.1,1.1,0,1,1-1.1,1.1,1.1,1.1,0,0,1,1.1-1.1Z" transform="translate(-52.956 -27.053)" fill="#9857ed"/>
      <rect id="Rectángulo_165" data-name="Rectángulo 165" width="30.362" height="26.637" transform="translate(19.92 141.082)" fill="#263238"/>
      <path id="Trazado_425" data-name="Trazado 425" d="M390.022,122.107s-4.3-7.387-10.33-7.367-5.307,15.221,8.686,15.221Z" transform="translate(-48.374 -28.11)" fill="#2d1674" stroke="#263238" stroke-linecap="round" stroke-linejoin="round" stroke-width="1"/>
      <path id="Trazado_426" data-name="Trazado 426" d="M392.442,151.234s-12.918-46.344,2.872-46.344,6.028,45.542,6.028,45.542Z" transform="translate(-48.206 -28.256)" fill="#2d1674" stroke="#263238" stroke-linecap="round" stroke-linejoin="round" stroke-width="1"/>
      <path id="Trazado_427" data-name="Trazado 427" d="M402,129.925s10.33-10.655,15.79-7.2-6.312,14.054-15.79,13.77" transform="translate(-47.992 -28.003)" fill="#2d1674" stroke="#263238" stroke-linecap="round" stroke-linejoin="round" stroke-width="1"/>
      <path id="Trazado_428" data-name="Trazado 428" d="M391.92,131a90.3,90.3,0,0,1,1.157,12.177" transform="translate(-48.14 -27.87)" fill="none" stroke="#9857ed" stroke-linecap="round" stroke-linejoin="round" stroke-width="1"/>
      <path id="Trazado_429" data-name="Trazado 429" d="M392.127,110.9c-1.583,5.652-1.34,11.507-.609,17.251" transform="translate(-48.155 -28.167)" fill="none" stroke="#9857ed" stroke-linecap="round" stroke-linejoin="round" stroke-width="1"/>
      <path id="Trazado_430" data-name="Trazado 430" d="M395.23,104.89A23.34,23.34,0,0,0,393.2,108.4" transform="translate(-48.122 -28.256)" fill="none" stroke="#9857ed" stroke-linecap="round" stroke-linejoin="round" stroke-width="1"/>
      <path id="Trazado_431" data-name="Trazado 431" d="M397.73,135.43c.173,3.917.284,7.844.315,11.771" transform="translate(-48.055 -27.805)" fill="none" stroke="#9857ed" stroke-linecap="round" stroke-linejoin="round" stroke-width="1"/>
      <path id="Trazado_432" data-name="Trazado 432" d="M396.61,118.38c0,4.83.69,9.61,1.015,14.42" transform="translate(-48.071 -28.056)" fill="none" stroke="#9857ed" stroke-linecap="round" stroke-linejoin="round" stroke-width="1"/>
      <path id="Trazado_433" data-name="Trazado 433" d="M398.569,106.62c-2.151,2.212-2.03,6.089-1.969,8.981" transform="translate(-48.072 -28.23)" fill="none" stroke="#9857ed" stroke-linecap="round" stroke-linejoin="round" stroke-width="1"/>
      <path id="Trazado_434" data-name="Trazado 434" d="M409,127.708c2.4-1.532,6.738-4.8,9.8-3.775" transform="translate(-47.888 -27.977)" fill="none" stroke="#9857ed" stroke-linecap="round" stroke-linejoin="round" stroke-width="1"/>
      <path id="Trazado_435" data-name="Trazado 435" d="M402,132.64c1.532-1.187,3.105-2.324,4.7-3.42" transform="translate(-47.992 -27.896)" fill="none" stroke="#9857ed" stroke-linecap="round" stroke-linejoin="round" stroke-width="1"/>
      <path id="Trazado_436" data-name="Trazado 436" d="M380.08,121a17.118,17.118,0,0,0,7.5,5.409" transform="translate(-48.315 -28.018)" fill="none" stroke="#9857ed" stroke-linecap="round" stroke-linejoin="round" stroke-width="1"/>
      <path id="Trazado_437" data-name="Trazado 437" d="M378,115.23a8.707,8.707,0,0,0,.71,3.47" transform="translate(-48.346 -28.103)" fill="none" stroke="#9857ed" stroke-linecap="round" stroke-linejoin="round" stroke-width="1"/>
      <path id="Trazado_438" data-name="Trazado 438" d="M410.742,157.7H383.76L381.73,145.94h31.041Z" transform="translate(-48.291 -27.65)" fill="#263238"/>
      <path id="Trazado_439" data-name="Trazado 439" d="M225.153,42.784s.507-2.669,4.059-2.263,3.105,5.419-1.015,6.322-5.48.538-5.926,2.09a1.461,1.461,0,0,0,2.375,1.553" transform="translate(-50.645 -29.206)" fill="none" stroke="#9857ed" stroke-linecap="round" stroke-linejoin="round" stroke-width="1"/>
      <path id="Trazado_440" data-name="Trazado 440" d="M212.574,42.784s-.507-2.669-4.059-2.263-3.115,5.419,1.015,6.322,5.48.538,5.916,2.09a1.461,1.461,0,0,1-2.344,1.553" transform="translate(-50.882 -29.206)" fill="none" stroke="#9857ed" stroke-linecap="round" stroke-linejoin="round" stroke-width="1"/>
      <path id="Trazado_441" data-name="Trazado 441" d="M222.248,48.119c3.734-2.5,3.44-8.179,3.44-8.179H212.1s-.294,5.683,3.44,8.179,2.75,8.636,0,9.863h6.708C219.5,56.734,218.5,50.605,222.248,48.119Z" transform="translate(-50.794 -29.214)" fill="#2d1674" stroke="#9857ed" stroke-linecap="round" stroke-linejoin="round" stroke-width="1"/>
      <rect id="Rectángulo_166" data-name="Rectángulo 166" width="10.807" height="4.089" transform="translate(162.696 28.748)" fill="#757575" stroke="#9857ed" stroke-linecap="round" stroke-linejoin="round" stroke-width="1"/>
      <rect id="Rectángulo_167" data-name="Rectángulo 167" width="18.905" height="28.332" transform="translate(158.647 32.838)" fill="#2d1674" stroke="#9857ed" stroke-linecap="round" stroke-linejoin="round" stroke-width="1"/>
      <rect id="Rectángulo_168" data-name="Rectángulo 168" width="18.905" height="18.905" transform="translate(177.552 42.265)" fill="#2d1674" stroke="#9857ed" stroke-linecap="round" stroke-linejoin="round" stroke-width="1"/>
      <rect id="Rectángulo_169" data-name="Rectángulo 169" width="18.905" height="12.441" transform="translate(139.732 48.729)" fill="#2d1674" stroke="#9857ed" stroke-linecap="round" stroke-linejoin="round" stroke-width="1"/>
      <path id="Trazado_442" data-name="Trazado 442" d="M217.36,72.1a1.137,1.137,0,0,0,1.268-.923h.781v7.337h-1.157V72.925h-.893Z" transform="translate(-50.717 -28.753)" fill="#9857ed"/>
      <path id="Trazado_443" data-name="Trazado 443" d="M236.735,77.845c-.365,0-.6.2-.6.731v.781H235.05v-.71c0-1.177.589-1.847,1.715-1.847s1.715.67,1.715,1.847a4.059,4.059,0,0,1-1.421,2.9c-.68.731-.873,1.076-.873,1.471a.767.767,0,0,0,0,.152h2.182v1.015H235.04v-.9a3.2,3.2,0,0,1,1.147-2.344,3.044,3.044,0,0,0,1.137-2.293C237.333,78.018,237.1,77.845,236.735,77.845Z" transform="translate(-50.456 -28.67)" fill="#9857ed"/>
      <path id="Trazado_444" data-name="Trazado 444" d="M200.413,81.578c0-.66-.233-.832-.6-.832s-.6.193-.6.72v.477H198.13v-.406a1.725,1.725,0,1,1,3.44,0v.193a1.421,1.421,0,0,1-.812,1.5h0a1.482,1.482,0,0,1,.812,1.532v.568c0,1.177-.589,1.847-1.725,1.847s-1.715-.67-1.715-1.847v-.609h1.086v.69c0,.518.233.72.6.72s.6-.183.6-.832v-.578c0-.68-.233-.923-.751-.923h-.4V82.785h.457c.426,0,.69-.183.69-.771Z" transform="translate(-51 -28.628)" fill="#9857ed"/>
      <rect id="Rectángulo_170" data-name="Rectángulo 170" width="57.557" height="45.228" transform="translate(28.707 332.932)" fill="none" stroke="#263238" stroke-linecap="round" stroke-linejoin="round" stroke-width="1"/>
      <rect id="Rectángulo_171" data-name="Rectángulo 171" width="38.459" height="50.789" transform="translate(82.875 336.321) rotate(90)" fill="#2d1674"/>
      <g id="Grupo_60" data-name="Grupo 60" transform="translate(32.087 336.321)" clip-path="url(#clip-path)">
        <path id="Trazado_445" data-name="Trazado 445" d="M135.549,378.69v-7.144L120.9,393.171l-9.985-5.977L129.288,360.8h-5.8l-8.027,11.4-7.56-3.846V360.8h-4.942v9.7l9.894,5.409-6.17,8.747L84.76,371.546v4.911l19.646,11.436L96.4,399.259h6.109l6.18-8.879,15.242,8.879h7.144l-6.677-4Z" transform="translate(-84.76 -360.8)" fill="#fff" opacity="0.5"/>
      </g>
      <rect id="Rectángulo_173" data-name="Rectángulo 173" width="38.459" height="50.789" transform="translate(82.875 336.321) rotate(90)" fill="none" stroke="#263238" stroke-linecap="round" stroke-linejoin="round" stroke-width="1"/>
      <path id="Trazado_446" data-name="Trazado 446" d="M131.14,351.415h0a10.462,10.462,0,0,0-14.805,0h0a10.462,10.462,0,0,0,0,14.805l7.408,7.4,7.4-7.4a10.462,10.462,0,0,0,0-14.805Zm-4.353,10.442h0a4.313,4.313,0,1,1,0-6.089h0a4.3,4.3,0,0,1,0,6.089Z" transform="translate(-52.253 -24.663)" fill="#263238"/>
      <path id="Trazado_447" data-name="Trazado 447" d="M422.9,295.92h0c-14.349,11.731-14.349,30.757,0,42.488h0C437.235,326.677,437.235,307.651,422.9,295.92Z" transform="translate(-47.842 -25.436)" fill="#2d1674" stroke="#263238" stroke-linecap="round" stroke-linejoin="round" stroke-width="1"/>
      <line id="Línea_56" data-name="Línea 56" y1="36.907" transform="translate(375.054 276.065)" fill="none" stroke="#9857ed" stroke-linecap="round" stroke-linejoin="round" stroke-width="1"/>
      <path id="Trazado_448" data-name="Trazado 448" d="M427.054,307.07l-4.252,4.252-4.262-4.252" transform="translate(-47.748 -25.272)" fill="none" stroke="#9857ed" stroke-linecap="round" stroke-linejoin="round" stroke-width="1"/>
      <path id="Trazado_449" data-name="Trazado 449" d="M427.054,315.31l-4.252,4.262-4.262-4.262" transform="translate(-47.748 -25.15)" fill="none" stroke="#9857ed" stroke-linecap="round" stroke-linejoin="round" stroke-width="1"/>
      <path id="Trazado_450" data-name="Trazado 450" d="M427.054,323.56l-4.252,4.252-4.262-4.252" transform="translate(-47.748 -25.028)" fill="none" stroke="#9857ed" stroke-linecap="round" stroke-linejoin="round" stroke-width="1"/>
      <path id="Trazado_451" data-name="Trazado 451" d="M447.293,302.677c0-3.521-2.03-7.387-4.577-7.387s-4.587,3.866-4.587,7.387c0,2.933,1.441,4.678,3.379,5.185V337.21a1.208,1.208,0,1,0,2.4,0V307.863C445.862,307.355,447.293,305.61,447.293,302.677Z" transform="translate(-47.458 -25.446)" fill="none" stroke="#263238" stroke-linecap="round" stroke-linejoin="round" stroke-width="1"/>
      <path id="Trazado_452" data-name="Trazado 452" d="M406.733,296.092a.873.873,0,0,0-.873-.8h-.629v6.373h-1.5v-5.5a.883.883,0,0,0-1.756,0v5.5h-1.512V295.29h-.619a.873.873,0,0,0-.873.8l-.649,7.59a3.288,3.288,0,0,0,3.268,3.562h.061V337.21a1.208,1.208,0,1,0,2.4,0V307.244h0a3.288,3.288,0,0,0,3.268-3.562Z" transform="translate(-48.046 -25.446)" fill="none" stroke="#263238" stroke-linecap="round" stroke-linejoin="round" stroke-width="1"/>
    </g>
    <g id="freepik--Character--inject-64" transform="translate(168.353 138.208)">
      <path id="Trazado_453" data-name="Trazado 453" d="M275.1,455.74l-1.015,2.973a60.1,60.1,0,0,0,5.155,7.256s1.015-.335,2.689,1.136a6.22,6.22,0,0,1,1.786,3.815s7.743,9.305,17.586,9.437,6.87-4.82,6.87-4.82Z" transform="translate(-164.846 -131.912)" fill="#2d1674" stroke="#263238" stroke-linecap="round" stroke-linejoin="round" stroke-width="1"/>
      <path id="Trazado_454" data-name="Trazado 454" d="M284.334,432.448s13.192-4.861,15.779,4.861c0,0-2.354,10.706-.944,16.551s8.5,17.038,8.95,19.169c.852,4.15.2,4.435.2,4.435s-5.165,2.983-12.1-.213-18.956-16.946-20.833-19.778,5.886-14.034,5.886-14.034Z" transform="translate(-164.831 -132.274)" fill="#fff"/>
      <g id="Grupo_61" data-name="Grupo 61" transform="translate(110.271 298.959)" clip-path="url(#clip-path-2)">
        <path id="Trazado_455" data-name="Trazado 455" d="M284.334,432.448s13.192-4.861,15.779,4.861c0,0-2.354,10.706-.944,16.551s8.5,17.038,8.95,19.169c.852,4.15.2,4.435.2,4.435s-5.165,2.983-12.1-.213-18.956-16.946-20.833-19.778,5.886-14.034,5.886-14.034Z" transform="translate(-275.101 -431.232)" fill="#2d1674" opacity="0.4"/>
      </g>
      <path id="Trazado_457" data-name="Trazado 457" d="M284.334,432.448s13.192-4.861,15.779,4.861c0,0-2.354,10.706-.944,16.551s8.5,17.038,8.95,19.169c.852,4.15.2,4.435.2,4.435s-5.165,2.983-12.1-.213-18.956-16.946-20.833-19.778,5.886-14.034,5.886-14.034Z" transform="translate(-164.831 -132.274)" fill="none" stroke="#263238" stroke-linecap="round" stroke-linejoin="round" stroke-width="1"/>
      <path id="Trazado_458" data-name="Trazado 458" d="M281.208,443.26s.355,13.872,3.044,16.693,4.708,0,4.708,0-.233,4.232-4.434,3.379-4.374-10.9-4.587-18.124Z" transform="translate(-164.759 -132.096)" fill="#2d1674" stroke="#263238" stroke-linecap="round" stroke-linejoin="round" stroke-width="1"/>
      <path id="Trazado_459" data-name="Trazado 459" d="M290.856,446a28.647,28.647,0,0,0,3.308,19.088" transform="translate(-164.605 -132.056)" fill="none" stroke="#263238" stroke-linecap="round" stroke-linejoin="round" stroke-width="1"/>
      <path id="Trazado_460" data-name="Trazado 460" d="M294.11,467.3a8.889,8.889,0,0,0,5.642,5.216,15.7,15.7,0,0,0,8.118,0L304.7,466.09A20.174,20.174,0,0,1,294.11,467.3Z" transform="translate(-164.55 -131.759)" fill="#2d1674" stroke="#263238" stroke-linecap="round" stroke-linejoin="round" stroke-width="1"/>
      <path id="Trazado_461" data-name="Trazado 461" d="M292.27,463.485s6.9.406,10.5-1.015" transform="translate(-164.577 -131.813)" fill="none" stroke="#263238" stroke-linecap="round" stroke-linejoin="round" stroke-width="1"/>
      <path id="Trazado_462" data-name="Trazado 462" d="M291,459.725s6.444,1.015,10.046-1.015" transform="translate(-164.596 -131.868)" fill="none" stroke="#263238" stroke-linecap="round" stroke-linejoin="round" stroke-width="1"/>
      <path id="Trazado_463" data-name="Trazado 463" d="M289.93,455.564s5.652.822,9.336-.934" transform="translate(-164.612 -131.928)" fill="none" stroke="#263238" stroke-linecap="round" stroke-linejoin="round" stroke-width="1"/>
      <path id="Trazado_464" data-name="Trazado 464" d="M289.31,450.82s6.281,1.979,9.265,0" transform="translate(-164.621 -131.985)" fill="none" stroke="#263238" stroke-linecap="round" stroke-linejoin="round" stroke-width="1"/>
      <path id="Trazado_465" data-name="Trazado 465" d="M288.4,439.184l-1.1,6.941s8.311,5.49,13.811-1.36V437.55S299.051,442.38,288.4,439.184Z" transform="translate(-164.651 -132.181)" fill="#2d1674" stroke="#263238" stroke-linecap="round" stroke-linejoin="round" stroke-width="1"/>
      <path id="Trazado_466" data-name="Trazado 466" d="M235.429,267.218s-12.177,35.445-6.789,58.673,7.1,32.756,6.789,45.38,12.877,78.248,12.877,78.248h12.035s-1.786-56.826-1.7-70.6-2.486-10.005.68-23.339.812-26.769,5.2-41.219c0,0,23.654,40.682,27.936,46.567,0,0-4.759,17.87-4.221,33.061.619,17.789-.954,44.568-.954,44.568s2.689,5.023,10.046,3.044c0,0,19.22-79.263,18.144-83.21s-8.565-46.821-29.134-75.285c0,0-3.511-12.116-5.926-19.869Z" transform="translate(-165.537 -134.753)" fill="#fff" stroke="#263238" stroke-linecap="round" stroke-linejoin="round" stroke-width="1"/>
      <path id="Trazado_467" data-name="Trazado 467" d="M235.462,267.218s-16.388,23.542-8.179,61.758c0,0,1.725,2.03,3.937-4.353,0,0,3.511,12.248,32.32,4.353l1.654-8.768,6.19,8.768s12.309-18.8,29.925-22.01c0,0-7.854-16.368-14.988-26.049L280.4,263.21Z" transform="translate(-165.57 -134.753)" fill="#263238"/>
      <g id="Grupo_62" data-name="Grupo 62" transform="translate(59.411 128.457)" clip-path="url(#clip-path-3)">
        <path id="Trazado_468" data-name="Trazado 468" d="M265.06,317.167s0-1.583,1.9-6.261c1.816-4.526,6.961-14.724,11.781-15.526" transform="translate(-224.39 -262.735)" fill="none" stroke="#fff" stroke-linecap="round" stroke-linejoin="round" stroke-width="1"/>
        <path id="Trazado_469" data-name="Trazado 469" d="M269.512,298.42s-4.82,10.838-13.922,14.308" transform="translate(-224.53 -262.69)" fill="none" stroke="#fff" stroke-linecap="round" stroke-linejoin="round" stroke-width="1"/>
        <path id="Trazado_470" data-name="Trazado 470" d="M263.915,326.644l-.386,2.131c-28.809,7.895-32.32-4.343-32.32-4.343-2.182,6.373-3.958,4.343-3.958,4.343-.051-.233-.1-.477-.142-.71,2.192-2.882,2.882-8.047,2.882-8.047-1.015-33.122,4.81-44.538,4.81-44.538h3.217c-4.617,7.854-4.82,44.538-4.82,44.538s1.015,6.017,11.842,8.422C251.515,329.9,259.623,327.953,263.915,326.644Z" transform="translate(-224.95 -263.029)" fill="#2d1674"/>
        <path id="Trazado_471" data-name="Trazado 471" d="M300.657,306.406c-17.626,3.217-29.925,21.99-29.925,21.99l-.812-1.137h0c2.517-4.678,12.421-21.381,27.074-23.268a7.9,7.9,0,0,0,1.015-2.831C299.652,304.306,300.657,306.406,300.657,306.406Z" transform="translate(-224.318 -262.65)" fill="#2d1674"/>
        <path id="Trazado_472" data-name="Trazado 472" d="M271.678,302.15s2.253,10.351,3.349,20.823a55.035,55.035,0,0,0-4.221,5.429l-5.865-8.3C265.549,315.545,267.223,307.295,271.678,302.15Z" transform="translate(-224.392 -262.635)" opacity="0.2"/>
        <path id="Trazado_473" data-name="Trazado 473" d="M287,281.842c-7.428,3.176-25.541,11.4-34.969,19.889S233.1,316.039,225.284,315.42c-2.385-30.148,10.148-48.191,10.148-48.191l44.933-4.059,5.936,17.708Z" transform="translate(-224.982 -263.211)" opacity="0.2"/>
      </g>
      <path id="Trazado_475" data-name="Trazado 475" d="M235.462,267.218s-16.388,23.542-8.179,61.758c0,0,1.725,2.03,3.937-4.353,0,0,3.511,12.248,32.32,4.353l1.654-8.768,6.19,8.768s12.309-18.8,29.925-22.01c0,0-7.854-16.368-14.988-26.049L280.4,263.21Z" transform="translate(-165.57 -134.753)" fill="none" stroke="#263238" stroke-miterlimit="10" stroke-width="1"/>
      <path id="Trazado_476" data-name="Trazado 476" d="M245.038,445.428s5.622-4.008,17.251-3.207c0,0,.842,13.953,2.425,18.012s9.924,11.091,11.477,12.3,1.553,5.419,1.553,5.419H242.41a111.891,111.891,0,0,1,2.8-17.921Z" transform="translate(-165.313 -132.113)" fill="#fff"/>
      <g id="Grupo_63" data-name="Grupo 63" transform="translate(77.097 310.002)" clip-path="url(#clip-path-4)">
        <path id="Trazado_477" data-name="Trazado 477" d="M245.038,445.428s5.622-4.008,17.251-3.207c0,0,.842,13.953,2.425,18.012s9.924,11.091,11.477,12.3,1.553,5.419,1.553,5.419H242.41a111.891,111.891,0,0,1,2.8-17.921Z" transform="translate(-242.41 -442.116)" fill="#2d1674" opacity="0.4"/>
      </g>
      <path id="Trazado_479" data-name="Trazado 479" d="M245.038,445.428s5.622-4.008,17.251-3.207c0,0,.842,13.953,2.425,18.012s9.924,11.091,11.477,12.3,1.553,5.419,1.553,5.419H242.41a111.891,111.891,0,0,1,2.8-17.921Z" transform="translate(-165.313 -132.113)" fill="none" stroke="#263238" stroke-linecap="round" stroke-linejoin="round" stroke-width="1"/>
      <path id="Trazado_480" data-name="Trazado 480" d="M245.179,459.77s3.481,7.012,5.9,7.946,2.669-2.273,2.669-2.273.67,4.688-1.065,5.348-6.18-3.643-8.118-8.443Z" transform="translate(-165.281 -131.853)" fill="#2d1674" stroke="#263238" stroke-linecap="round" stroke-linejoin="round" stroke-width="1"/>
      <path id="Trazado_481" data-name="Trazado 481" d="M252.16,447.16s.842,12.847,2.831,16.236a23.472,23.472,0,0,0,3.917,5.074" transform="translate(-165.169 -132.039)" fill="none" stroke="#263238" stroke-linecap="round" stroke-linejoin="round" stroke-width="1"/>
      <path id="Trazado_482" data-name="Trazado 482" d="M259.81,469.937s1.776,2.212,3.744,2.506,12.37-.294,12.37-.294l-4.242-3.673S263.047,466.984,259.81,469.937Z" transform="translate(-165.056 -131.73)" fill="#2d1674" stroke="#263238" stroke-linecap="round" stroke-linejoin="round" stroke-width="1"/>
      <path id="Trazado_483" data-name="Trazado 483" d="M256.15,466.973s7.54-4.323,12.9-1.015" transform="translate(-165.11 -131.78)" fill="none" stroke="#263238" stroke-linecap="round" stroke-linejoin="round" stroke-width="1"/>
      <path id="Trazado_484" data-name="Trazado 484" d="M254.36,464.087s5.256-4.11,11.467-1.857" transform="translate(-165.137 -131.826)" fill="none" stroke="#263238" stroke-linecap="round" stroke-linejoin="round" stroke-width="1"/>
      <path id="Trazado_485" data-name="Trazado 485" d="M252.16,459.667s5.662-4.394,11.629-1.593" transform="translate(-165.169 -131.891)" fill="none" stroke="#263238" stroke-linecap="round" stroke-linejoin="round" stroke-width="1"/>
      <path id="Trazado_486" data-name="Trazado 486" d="M251.41,454.158s6.86-3.694,11.852-.893" transform="translate(-165.18 -131.964)" fill="none" stroke="#263238" stroke-linecap="round" stroke-linejoin="round" stroke-width="1"/>
      <path id="Trazado_487" data-name="Trazado 487" d="M242.41,477.43v2.608h4.059a7.1,7.1,0,0,1,6.8,0h19.067a13.8,13.8,0,0,0,5.815-1.309l-.4-1.3Z" transform="translate(-165.313 -131.592)" fill="#2d1674" stroke="#263238" stroke-linecap="round" stroke-linejoin="round" stroke-width="1"/>
      <path id="Trazado_488" data-name="Trazado 488" d="M247.39,444.643l.9,5.693s10.6-3.44,16.459-1.208v-7S253.844,438.291,247.39,444.643Z" transform="translate(-165.24 -132.13)" fill="#2d1674" stroke="#263238" stroke-linecap="round" stroke-linejoin="round" stroke-width="1"/>
      <path id="Trazado_489" data-name="Trazado 489" d="M217.6,200c-4.922-4.059-52.159,44.7-51.154,48.708s24.09,49.175,27.906,51.184,18.621,6.434,19.778,1.6l-14.541-7.8s-5.185-9.752-9.934-26.719c-2.7-9.782-5.744-17.88-5.744-17.88s21.675-21.8,28.1-23.847a85.313,85.313,0,0,1,9.874-2.659S224.2,205.463,217.6,200Z" transform="translate(-166.434 -135.69)" fill="#fff" stroke="#263238" stroke-linecap="round" stroke-linejoin="round" stroke-width="1"/>
      <path id="Trazado_490" data-name="Trazado 490" d="M274.65,193.1c8.93-3.156,16.672,6.149,26.11,12.279,8.473,5.5,15.485,9.813,15.485,9.813-8.768-10.939-8.534-24.1-19.382-44.771l6.921-3.47s19.108,26.445,27.206,44.862a39.575,39.575,0,0,1,3.389,17.9s-3.359,5.256-12.461,2.882c-14.44-3.744-30.514-14.694-38.561-16.48Z" transform="translate(-164.837 -136.174)" fill="#fff" stroke="#263238" stroke-linecap="round" stroke-linejoin="round" stroke-width="1"/>
      <path id="Trazado_491" data-name="Trazado 491" d="M275.506,192.391s12,17.251,13.324,23.9-8.311,28.129-4.7,52.615c0,0,6.535,12.745,2.314,13.06,0,0-7.1-1.522-14.694,4.232-12.695,9.589-32.087,23.421-46.679,23.421,0,0-5.764-2.03-4.059-5.622a63.691,63.691,0,0,1,4.059-7.225s3.592-48.576,0-58.612c-1.258-3.511-3.968-15.465-3.968-15.465-.558-16.916-4.445-23.634-4.445-23.634s10.006-2.577,31.3-2.618C247.986,196.44,271.67,191.681,275.506,192.391Z" transform="translate(-165.693 -135.8)" fill="#2d1674"/>
      <g id="Grupo_64" data-name="Grupo 64" transform="translate(50.967 56.519)" clip-path="url(#clip-path-5)">
        <path id="Trazado_492" data-name="Trazado 492" d="M268.026,259s-3.572,19.707-16.967,29.611-23.451,11.325-24.354,14.9a4.982,4.982,0,0,0,2.709,5.47,27.4,27.4,0,0,1-4.384.375s-5.764-2.029-4.059-5.622a65.491,65.491,0,0,1,4.059-7.225s3.6-48.566,0-58.6c-1.258-3.521-3.958-15.465-3.958-15.465a96.176,96.176,0,0,0-.873-10.4,17.412,17.412,0,0,1,5.419-1.674s9.133,11.67,9.366,22.213,24.08,6.535,28.21,3.318,8.25,1.6,8.25,1.6-12.4,16.886-26.587,22.893-11.761,24.2-3.805,22.325S263.713,265.948,268.026,259Z" transform="translate(-216.608 -192.053)" opacity="0.2"/>
      </g>
      <path id="Trazado_494" data-name="Trazado 494" d="M275.506,192.391s12,17.251,13.324,23.9-8.311,28.129-4.7,52.615c0,0,6.535,12.745,2.314,13.06,0,0-7.1-1.522-14.694,4.232-12.695,9.589-32.087,23.421-46.679,23.421,0,0-5.764-2.03-4.059-5.622a63.691,63.691,0,0,1,4.059-7.225s3.592-48.576,0-58.612c-1.258-3.511-3.968-15.465-3.968-15.465-.558-16.916-4.445-23.634-4.445-23.634s10.006-2.577,31.3-2.618C247.986,196.44,271.67,191.681,275.506,192.391Z" transform="translate(-165.693 -135.8)" fill="none" stroke="#263238" stroke-linecap="round" stroke-linejoin="round" stroke-width="1"/>
      <path id="Trazado_495" data-name="Trazado 495" d="M271,192.695s-.548-3.47,4.81-3.044,10.148,12.563,10.066,21.036C285.826,210.656,276.236,195.567,271,192.695Z" transform="translate(-164.892 -135.839)" fill="#2d1674"/>
      <g id="Grupo_65" data-name="Grupo 65" transform="translate(106.093 53.775)" clip-path="url(#clip-path-6)">
        <path id="Trazado_496" data-name="Trazado 496" d="M271,192.695s-.548-3.47,4.81-3.044,10.148,12.563,10.066,21.036C285.826,210.656,276.236,195.567,271,192.695Z" transform="translate(-270.984 -189.614)" fill="#fff" opacity="0.4"/>
      </g>
      <path id="Trazado_498" data-name="Trazado 498" d="M271,192.695s-.548-3.47,4.81-3.044,10.148,12.563,10.066,21.036C285.826,210.656,276.236,195.567,271,192.695Z" transform="translate(-164.892 -135.839)" fill="none" stroke="#263238" stroke-linecap="round" stroke-linejoin="round" stroke-width="1"/>
      <path id="Trazado_499" data-name="Trazado 499" d="M221.178,222.635s2.6-1.664,3.958-6.88c2.3-8.828-2.821-17.768-2.821-17.768-2.435-3.511-9.2-1.512-7.6,2.03S220.376,206.622,221.178,222.635Z" transform="translate(-165.726 -135.743)" fill="#2d1674"/>
      <g id="Grupo_66" data-name="Grupo 66" transform="translate(48.745 60.408)" clip-path="url(#clip-path-7)">
        <path id="Trazado_500" data-name="Trazado 500" d="M221.178,222.635s2.6-1.664,3.958-6.88c2.3-8.828-2.821-17.768-2.821-17.768-2.435-3.511-9.2-1.512-7.6,2.03S220.376,206.622,221.178,222.635Z" transform="translate(-214.471 -196.151)" fill="#fff" opacity="0.4"/>
      </g>
      <path id="Trazado_502" data-name="Trazado 502" d="M221.178,222.635s2.6-1.664,3.958-6.88c2.3-8.828-2.821-17.768-2.821-17.768-2.435-3.511-9.2-1.512-7.6,2.03S220.376,206.622,221.178,222.635Z" transform="translate(-165.726 -135.743)" fill="none" stroke="#263238" stroke-linecap="round" stroke-linejoin="round" stroke-width="1"/>
      <path id="Trazado_503" data-name="Trazado 503" d="M279.108,238.16c-6.647,14.044-15.171,27.926-26.485,38.784a62.972,62.972,0,0,1-11.852,9.133" transform="translate(-165.337 -135.123)" fill="none" stroke="#263238" stroke-linecap="round" stroke-linejoin="round" stroke-width="1"/>
      <path id="Trazado_504" data-name="Trazado 504" d="M281.191,232.25c-.447,1.116-.934,2.222-1.421,3.318" transform="translate(-164.762 -135.21)" fill="none" stroke="#263238" stroke-linecap="round" stroke-linejoin="round" stroke-width="1"/>
      <path id="Trazado_505" data-name="Trazado 505" d="M237.5,240.16c7.8,2.841,16.5,2.517,23.624-2.03" transform="translate(-165.386 -135.123)" fill="none" stroke="#263238" stroke-linecap="round" stroke-linejoin="round" stroke-width="1"/>
      <path id="Trazado_506" data-name="Trazado 506" d="M231.53,237.1a18.5,18.5,0,0,0,3.328,1.938" transform="translate(-165.474 -135.139)" fill="none" stroke="#263238" stroke-linecap="round" stroke-linejoin="round" stroke-width="1"/>
      <path id="Trazado_507" data-name="Trazado 507" d="M263.446,206.77s-1.015,10.97-17.606,10.148" transform="translate(-165.263 -135.586)" fill="none" stroke="#263238" stroke-linecap="round" stroke-linejoin="round" stroke-width="1"/>
      <path id="Trazado_508" data-name="Trazado 508" d="M221.5,201s-2.994,4.516-1.969,9.529" transform="translate(-165.654 -135.671)" fill="none" stroke="#263238" stroke-linecap="round" stroke-linejoin="round" stroke-width="1"/>
      <path id="Trazado_509" data-name="Trazado 509" d="M276.42,195.007s4.059-2.618,7.367,4.658" transform="translate(-164.811 -135.767)" fill="none" stroke="#263238" stroke-linecap="round" stroke-linejoin="round" stroke-width="1"/>
      <circle id="Elipse_24" data-name="Elipse 24" cx="23.218" cy="23.218" r="23.218" transform="translate(24.482 119.354)" fill="#2d1674" stroke="#263238" stroke-linecap="round" stroke-linejoin="round" stroke-width="1"/>
      <circle id="Elipse_25" data-name="Elipse 25" cx="17.413" cy="17.413" r="17.413" transform="matrix(0.762, -0.648, 0.648, 0.762, 19.631, 137.311)" fill="#fff" opacity="0.4"/>
      <path id="Trazado_510" data-name="Trazado 510" d="M191.8,269.68s8.2,19.118,25.257,21.127,19.382-8.605,19.382-8.605" transform="translate(-166.06 -134.658)" fill="none" stroke="#263238" stroke-linecap="round" stroke-linejoin="round" stroke-width="1"/>
      <path id="Trazado_511" data-name="Trazado 511" d="M221.712,255.69c7.55,4.637,10.148,48.3-16.632,43.361" transform="translate(-165.864 -134.864)" fill="none" stroke="#263238" stroke-linecap="round" stroke-linejoin="round" stroke-width="1"/>
      <path id="Trazado_512" data-name="Trazado 512" d="M203.093,256.75a21.837,21.837,0,0,0,4.769,10.564c5.49,6.423,8.017,16.236,4.323,22.629-2.841,4.952-8.839,6.22-15.485,3.328" transform="translate(-165.988 -134.849)" fill="none" stroke="#263238" stroke-linecap="round" stroke-linejoin="round" stroke-width="1"/>
      <path id="Trazado_513" data-name="Trazado 513" d="M235.588,270.93c.863,9.417-2.821,9.732-6.626,18.59a17.779,17.779,0,0,0-1.5,6.22" transform="translate(-165.534 -134.639)" fill="none" stroke="#263238" stroke-linecap="round" stroke-linejoin="round" stroke-width="1"/>
      <path id="Trazado_514" data-name="Trazado 514" d="M254.6,211.662c-11.7.934-22.934-12.847-22.934-12.847s6.342-.264,7.1-3.166c2.557-9.133-3.755-21.229-3.755-21.229s27.977,3.044,22.558,9a16.044,16.044,0,0,0-2.527,3.623c-2.03,4.059-1.116,7.286-.274,8.118a1.269,1.269,0,0,0,.193.152c1.634.913,8.7.325,8.7.325S265.279,210.809,254.6,211.662Z" transform="translate(-165.472 -136.064)" fill="#fff" stroke="#263238" stroke-linecap="round" stroke-linejoin="round" stroke-width="1"/>
      <path id="Trazado_515" data-name="Trazado 515" d="M235.3,202.26a31.641,31.641,0,0,0,13.009,2.567l3.369,2.03" transform="translate(-165.418 -135.653)" fill="none" stroke="#263238" stroke-linecap="round" stroke-linejoin="round" stroke-width="1"/>
      <path id="Trazado_516" data-name="Trazado 516" d="M254.91,206.87l.447-2.293s5.9-1.329,7.956-4.607" transform="translate(-165.129 -135.687)" fill="none" stroke="#263238" stroke-linecap="round" stroke-linejoin="round" stroke-width="1"/>
      <path id="Trazado_517" data-name="Trazado 517" d="M254.653,195.018c-8.768,1.542-11.913-9.792-11.913-9.792s7.042-1.492,12.177,1.664C252.888,190.928,253.811,194.135,254.653,195.018Z" transform="translate(-165.308 -135.909)" fill="#263238"/>
      <path id="Trazado_518" data-name="Trazado 518" d="M241.032,144.637s2.212-5.815-10.635-7.824-21.878,12.177-15.658,25.166-2.03,23.41,3.217,28.231,8.889.8,8.889.8-1.015.873-4.272-3.582,5.216-4.658,5.815-20.914,8.372-11.842,8.372-11.842Z" transform="translate(-165.751 -136.621)" fill="#263238"/>
      <path id="Trazado_519" data-name="Trazado 519" d="M240.96,143.595s.061-2.395-6.089-2.395-9.732,9.366-4.252,13.111S240.96,143.595,240.96,143.595Z" transform="translate(-165.527 -136.554)" fill="#2d1674" stroke="#263238" stroke-linecap="round" stroke-linejoin="round" stroke-width="1"/>
      <path id="Trazado_520" data-name="Trazado 520" d="M264.115,145.682a19.128,19.128,0,0,1,7.245,18.154c-1.827,11.863-8.9,22.507-22.923,21.1s-24.476-10.939-21.178-27.49C231.744,134.925,264.115,138.183,264.115,145.682Z" transform="translate(-165.546 -136.571)" fill="#263238"/>
      <path id="Trazado_521" data-name="Trazado 521" d="M255.041,145.844c19.118,2.821,9.894,30.981,7.915,37.972-.731,2.588-8.778,10.148-12.38,9.478-2.811-.538-12.827-8.981-13.334-12.482C235.882,171.5,233.538,142.677,255.041,145.844Z" transform="translate(-165.402 -136.489)" fill="#fff" stroke="#263238" stroke-linecap="round" stroke-linejoin="round" stroke-width="1"/>
      <path id="Trazado_522" data-name="Trazado 522" d="M257.376,166.08c0,1.319-1.1,5.074,1.492,7.722,1.674,1.7-2.588,2.466-2.588,2.466" transform="translate(-165.109 -136.187)" fill="none" stroke="#263238" stroke-linecap="round" stroke-linejoin="round" stroke-width="1"/>
      <path id="Trazado_523" data-name="Trazado 523" d="M258.21,162.28s4.059-2.141,6.494,1.238" transform="translate(-165.08 -136.253)" fill="none" stroke="#263238" stroke-linecap="round" stroke-linejoin="round" stroke-width="1"/>
      <path id="Trazado_524" data-name="Trazado 524" d="M251.826,163.992s-3.988-4.232-7.306-3.46" transform="translate(-165.282 -136.27)" fill="none" stroke="#263238" stroke-linecap="round" stroke-linejoin="round" stroke-width="1"/>
      <path id="Trazado_525" data-name="Trazado 525" d="M261.81,169.174c-.152.771-.731,1.319-1.289,1.218s-.893-.832-.751-1.613.731-1.319,1.289-1.208A1.287,1.287,0,0,1,261.81,169.174Z" transform="translate(-165.058 -136.165)" fill="#263238"/>
      <path id="Trazado_526" data-name="Trazado 526" d="M249.6,168.26a10.422,10.422,0,0,0-3.765-.72" transform="translate(-165.263 -136.165)" fill="none" stroke="#263238" stroke-linecap="round" stroke-linejoin="round" stroke-width="1"/>
      <path id="Trazado_527" data-name="Trazado 527" d="M248.57,177.35a14.389,14.389,0,0,0,6.88,3.887" transform="translate(-165.222 -136.02)" fill="none" stroke="#263238" stroke-linecap="round" stroke-linejoin="round" stroke-width="1"/>
      <path id="Trazado_528" data-name="Trazado 528" d="M249.71,178.38s-.1,2.872,1.725,3.8,3.552-1.015,3.552-1.015" transform="translate(-165.206 -136.005)" fill="none" stroke="#263238" stroke-linecap="round" stroke-linejoin="round" stroke-width="1"/>
      <path id="Trazado_529" data-name="Trazado 529" d="M269.008,152.581s.345,1.847-11.934,5.226c-11.883,3.257-18.529,5.206-20.224,13.415,0,0-4.272-6.251-4.12-13.06s7.1-15.922,21.827-14.44S269.008,152.581,269.008,152.581Z" transform="translate(-165.456 -136.519)" fill="#263238"/>
      <path id="Trazado_530" data-name="Trazado 530" d="M237.992,168.34c.294-1.553-3.328-5.845-4.881-3.41-2.628,4.171-1.279,8.118.964,9.772,1.015.751,2.232,2.111,3.268,1.015" transform="translate(-165.472 -136.214)" fill="#fff" stroke="#263238" stroke-linecap="round" stroke-linejoin="round" stroke-width="1"/>
      <path id="Trazado_531" data-name="Trazado 531" d="M261.21,143.56s5.074,3.907-1.593,8.717-27.946,8.4-27.946,8.4" transform="translate(-165.472 -136.519)" fill="none" stroke="#fff" stroke-linecap="round" stroke-linejoin="round" stroke-width="1" opacity="0.2"/>
      <path id="Trazado_532" data-name="Trazado 532" d="M256.628,146.87a37.962,37.962,0,0,1-23.9,5.206" transform="translate(-165.456 -136.47)" fill="none" stroke="#fff" stroke-linecap="round" stroke-linejoin="round" stroke-width="1" opacity="0.2"/>
      <path id="Trazado_533" data-name="Trazado 533" d="M226.909,142.781s-7.6-1.116-10.208,5.256,2.76,16.236,3.755,23.2-1.086,9.579-1.086,9.579" transform="translate(-165.703 -136.532)" fill="none" stroke="#fff" stroke-linecap="round" stroke-linejoin="round" stroke-width="1" opacity="0.2"/>
      <path id="Trazado_534" data-name="Trazado 534" d="M299.759,176.267s-2.4.173-6.089-2.03-11.741-2.933-11.741-2.933-.061-2.435,2.963-2.253a58.442,58.442,0,0,0,7.864-.4s-1.2-8.453-.365-9.447,10.726-1.969,12.106-.741,7.215,16.114,1.512,17.068" transform="translate(-164.73 -136.308)" fill="#fff" stroke="#263238" stroke-linecap="round" stroke-linejoin="round" stroke-width="1"/>
      <path id="Trazado_535" data-name="Trazado 535" d="M292.232,159.2c-1.015,0-1.674,7.1-1.471,6.982s2.2,1.674,3.044,1.847a2.892,2.892,0,0,0,1.715-.365,67.349,67.349,0,0,0,7.479,0c1.015-.274,1.654-2.03.842-3.653" transform="translate(-164.6 -136.288)" fill="#fff" stroke="#263238" stroke-linecap="round" stroke-linejoin="round" stroke-width="1"/>
      <path id="Trazado_536" data-name="Trazado 536" d="M303.543,160.94a6.941,6.941,0,0,1-.893,4.221" transform="translate(-164.424 -136.263)" fill="none" stroke="#263238" stroke-linecap="round" stroke-linejoin="round" stroke-width="1"/>
      <path id="Trazado_537" data-name="Trazado 537" d="M295.442,167.637s-2.314-2.5-2.212-3.389a27.488,27.488,0,0,1,.9-3.308" transform="translate(-164.563 -136.263)" fill="none" stroke="#263238" stroke-linecap="round" stroke-linejoin="round" stroke-width="1"/>
      <path id="Trazado_538" data-name="Trazado 538" d="M298.024,167.645s-1.7-2.4-1.613-3.349.8-3.866.8-3.866" transform="translate(-164.516 -136.27)" fill="none" stroke="#263238" stroke-linecap="round" stroke-linejoin="round" stroke-width="1"/>
      <path id="Trazado_539" data-name="Trazado 539" d="M301.014,167.749a5.409,5.409,0,0,1-.923-3.714,22.172,22.172,0,0,1,.923-3.1" transform="translate(-164.463 -136.263)" fill="none" stroke="#263238" stroke-linecap="round" stroke-linejoin="round" stroke-width="1"/>
      <path id="Trazado_540" data-name="Trazado 540" d="M292.57,168.511a6.738,6.738,0,0,1,5.49,1.624" transform="translate(-164.573 -136.152)" fill="none" stroke="#263238" stroke-linecap="round" stroke-linejoin="round" stroke-width="1"/>
    </g>
  </g>
</svg>
