<svg xmlns="http://www.w3.org/2000/svg" xmlns:xlink="http://www.w3.org/1999/xlink" width="451.872" height="429.087" viewBox="0 0 451.872 429.087">
  <defs>
    <clipPath id="clip-path">
      <path id="Trazado_59" data-name="Trazado 59" d="M104.915,325.58s-19.123,12.931-24.612,18.9-2.481,10.685-1.953,15.168,2.735,14.416,9.191,17.893,86.768,1.953,133.512,3.487,147.225-.283,159.7-3.282,15.383-18.4,16.125-27.1-8.175-20.881-13.146-22.366-46.324-1.709-92.316-.713-67.069,5-119.526,4S116.85,323.343,104.915,325.58Z" transform="translate(-77.053 -325.153)" fill="#b2b2b2" stroke="#263238" stroke-linecap="round" stroke-linejoin="round" stroke-width="1"/>
    </clipPath>
    <clipPath id="clip-path-2">
      <path id="Trazado_122" data-name="Trazado 122" d="M196.9,208.641s7.706-2.569,8.888-7.11-3.155-19.768-16.2-25.11-34.4-1.582-41.714,6.729.4,16.008.6,17.785-5.733,2.93-6.72,10.48,8.7,15.217,19.172,17.58,15.627-.6,15.627-4.551-2.373-7.511,2.178-10.47,9.679-8.5,11.857-8.3S196.9,208.641,196.9,208.641Z" transform="translate(-141.679 -173.939)" fill="#263238" stroke="#263238" stroke-linecap="round" stroke-linejoin="round" stroke-width="1"/>
    </clipPath>
  </defs>
  <g id="Family-bro" transform="translate(-21.05 -35.259)">
    <g id="freepik--background-simple--inject-32" transform="translate(22.881 35.259)">
      <path id="Trazado_25" data-name="Trazado 25" d="M449.1,254.808s-2.93,76.552-67.088,126.3S229.459,432.731,157.868,436.12,31.574,397.785,23.692,336.234s46.881-78.457,77.041-147.723,27.63-92.3,90.685-133.971,161.084-13.332,212.1,61.345S449.1,254.808,449.1,254.808Z" transform="translate(-22.925 -35.259)" fill="#2d1674"/>
      <path id="Trazado_26" data-name="Trazado 26" d="M449.1,254.808s-2.93,76.552-67.088,126.3S229.459,432.731,157.868,436.12,31.574,397.785,23.692,336.234s46.881-78.457,77.041-147.723,27.63-92.3,90.685-133.971,161.084-13.332,212.1,61.345S449.1,254.808,449.1,254.808Z" transform="translate(-22.925 -35.259)" fill="#fff" opacity="0.7"/>
    </g>
    <g id="freepik--Floor--inject-32" transform="translate(21.05 374.745)">
      <ellipse id="Elipse_6" data-name="Elipse 6" cx="224.608" cy="44.8" rx="224.608" ry="44.8" fill="#2d1674"/>
      <ellipse id="Elipse_7" data-name="Elipse 7" cx="224.608" cy="44.8" rx="224.608" ry="44.8" fill="#fff" opacity="0.5"/>
    </g>
    <g id="freepik--Window--inject-32" transform="translate(277.956 40.729)">
      <path id="Trazado_27" data-name="Trazado 27" d="M344.644,40.86h4.268a60.554,60.554,0,0,1,60.554,60.554V328.981H284.09V101.414A60.554,60.554,0,0,1,344.644,40.86Z" transform="translate(-284.09 -40.86)" fill="none" stroke="#263238" stroke-linecap="round" stroke-linejoin="round" stroke-width="1"/>
      <path id="Trazado_28" data-name="Trazado 28" d="M298.58,328.723V105.951A48.531,48.531,0,0,1,347.111,57.42h0a48.531,48.531,0,0,1,48.57,48.531V328.723" transform="translate(-284.428 -41.246)" fill="none" stroke="#263238" stroke-linecap="round" stroke-linejoin="round" stroke-width="1"/>
      <line id="Línea_1" data-name="Línea 1" y2="287.809" transform="translate(62.683 0)" fill="none" stroke="#263238" stroke-linecap="round" stroke-linejoin="round" stroke-width="1"/>
      <line id="Línea_2" data-name="Línea 2" x2="123.853" transform="translate(0.674 55.436)" fill="none" stroke="#263238" stroke-linecap="round" stroke-linejoin="round" stroke-width="1"/>
      <line id="Línea_3" data-name="Línea 3" x2="123.853" transform="translate(0.674 94.533)" fill="none" stroke="#263238" stroke-linecap="round" stroke-linejoin="round" stroke-width="1"/>
      <line id="Línea_4" data-name="Línea 4" x2="123.853" transform="translate(0.674 133.63)" fill="none" stroke="#263238" stroke-linecap="round" stroke-linejoin="round" stroke-width="1"/>
      <line id="Línea_5" data-name="Línea 5" x2="123.853" transform="translate(0.674 172.716)" fill="none" stroke="#263238" stroke-linecap="round" stroke-linejoin="round" stroke-width="1"/>
      <line id="Línea_6" data-name="Línea 6" x2="123.853" transform="translate(0.674 211.813)" fill="none" stroke="#263238" stroke-linecap="round" stroke-linejoin="round" stroke-width="1"/>
      <line id="Línea_7" data-name="Línea 7" x2="123.853" transform="translate(0.674 250.91)" fill="none" stroke="#263238" stroke-linecap="round" stroke-linejoin="round" stroke-width="1"/>
      <line id="Línea_8" data-name="Línea 8" x2="11.232" y2="10.226" transform="translate(17.229 19.563)" fill="none" stroke="#263238" stroke-linecap="round" stroke-linejoin="round" stroke-width="1"/>
      <line id="Línea_9" data-name="Línea 9" x1="11.232" y2="10.226" transform="translate(96.428 19.563)" fill="none" stroke="#263238" stroke-linecap="round" stroke-linejoin="round" stroke-width="1"/>
      <path id="Trazado_29" data-name="Trazado 29" d="M443.708,380.9s22.4-39.536,27.611-57.771-14.406-3.907-14.406-3.907,23.294-38.491,25.1-63.816-24.915,6.055-24.915,6.055,9.181-32.631,11.183-60.886S457.538,186.1,457.538,186.1s-1.065-53.923-8.3-48.57S438.8,160.293,438.8,160.293s-4.053-53.171-9.962-38.9,3.438,89.347,3.438,89.347-13.859-39.175-17.258-18.85,21.936,76.953,21.936,76.953-12.873,2.022-14.465,10.743,18.869,52.184,18.869,52.184-16.984-22.747-20.041-7.306,14.142,62.693,14.142,62.693Z" transform="translate(-287.136 -42.681)" fill="#2d1674"/>
      <path id="Trazado_30" data-name="Trazado 30" d="M469.016,302.822c-3.125-10.988-11.476-3.75-11.476-3.75s17.727-56.511,10.206-60.965-13.84,15.627-13.84,15.627,9.093-86.495,3.907-81.973-8.194,32.709-8.194,32.709-6.153-78.73-12.99-65.506,1.211,93.107,1.211,93.107-12.814-40.044-14.055-22.542,12.267,75.283,12.267,75.283-15.314-5-14.963,3.829,9.2,49.615,9.2,49.615-9.464-4.59-7.169,4.385,13.1,36.137,13.1,36.137l11.486,3.75s16.6-27.21,9.767-26.722a14.015,14.015,0,0,0-10.157,5.147S472.151,313.79,469.016,302.822Z" transform="translate(-287.284 -43.113)" fill="none" stroke="#263238" stroke-linecap="round" stroke-linejoin="round" stroke-width="1"/>
      <path id="Trazado_31" data-name="Trazado 31" d="M442.43,379.946s5.04-90.138,2.93-147.186" transform="translate(-287.782 -45.335)" fill="none" stroke="#263238" stroke-linecap="round" stroke-linejoin="round" stroke-width="1"/>
      <path id="Trazado_32" data-name="Trazado 32" d="M451.52,424.9H430.16L427.65,379h26.37Z" transform="translate(-287.438 -48.745)" fill="#263238" stroke="#263238" stroke-linecap="round" stroke-linejoin="round" stroke-width="1"/>
    </g>
    <g id="freepik--Picture--inject-32" transform="translate(202.322 86.116)">
      <rect id="Rectángulo_59" data-name="Rectángulo 59" width="58.816" height="80.596" fill="none" stroke="#263238" stroke-linecap="round" stroke-linejoin="round" stroke-width="1"/>
      <rect id="Rectángulo_60" data-name="Rectángulo 60" width="41.333" height="56.638" transform="translate(8.741 11.974)" fill="none" stroke="#263238" stroke-linecap="round" stroke-linejoin="round" stroke-width="1"/>
    </g>
    <g id="freepik--character-1--inject-32" transform="translate(60.361 101.417)">
      <path id="Trazado_33" data-name="Trazado 33" d="M116.63,173.05a21.34,21.34,0,0,1,8.185,3.545c3.418,2.637,15.891,22.942,20.51,27.347s10.1,9.825,8.194,14.191-4.883,12.013-13.107,8.79-10.431-7.393-12.619-11.212-9.279-9.552-9.279-9.552" transform="translate(-62.59 -104.63)" fill="#2d1674" stroke="#263238" stroke-linecap="round" stroke-linejoin="round" stroke-width="1"/>
      <path id="Trazado_34" data-name="Trazado 34" d="M150.569,215.808c-5.792-6.27-10.91-1.582-14.328,3.809-3.8,6.007-7.179,12.277-10.538,18.557,0,0-5.059,4.805-5.313,7.081s3.79,8.341,5.86,8.1,6.075-1.524,6.329-2.784-1.768-.977-1.768-.977l1.514-2.276-.977-5.4c6.651-5.665,16.945-14.484,19.827-17.375C153.822,221.835,152.884,218.318,150.569,215.808Z" transform="translate(-62.678 -105.558)" fill="#fff" stroke="#263238" stroke-linecap="round" stroke-linejoin="round" stroke-width="1"/>
      <path id="Trazado_35" data-name="Trazado 35" d="M79.317,253.217s-2.676,11.457-1.533,14.9,5.3,11.945,5.3,11.945L91.74,390.157l9.357-.234,4.239-115.874,1.895-.225,3.37,116.1,9.64.381,6.495-112.25s.977-14.513.977-16.047-2.53-15.627-2.53-15.627Z" transform="translate(-61.678 -106.34)" fill="#263238" stroke="#263238" stroke-linecap="round" stroke-linejoin="round" stroke-width="1"/>
      <path id="Trazado_36" data-name="Trazado 36" d="M91.809,393.584S80.7,402.774,80.47,405.9s8.927,1.69,12.785-2.93,7.55-3.379,7.726-6.514l.186-3.135Z" transform="translate(-61.747 -109.767)" fill="#fff" stroke="#263238" stroke-linecap="round" stroke-linejoin="round" stroke-width="1"/>
      <path id="Trazado_37" data-name="Trazado 37" d="M120.707,393.584s11.1,9.181,11.349,12.316-8.937,1.69-12.795-2.93-7.54-3.379-7.726-6.515l-.186-3.135Z" transform="translate(-62.467 -109.767)" fill="#fff" stroke="#263238" stroke-linecap="round" stroke-linejoin="round" stroke-width="1"/>
      <path id="Trazado_38" data-name="Trazado 38" d="M119.159,186.928,118.065,174.1c-7.1-3.008-19.709-3.418-23.44-1.953,0,0-21.555,10.919-23.743,13.107S61.3,220.223,61.3,225.7s3.008,9.278,8.458,10.372,9.015-5.733,9.015-5.733-3.008,16.6-2.461,18.557,1.563,4.737,3.741,5.01,42.1-1.465,43.746-2.285,2.725-2.451,2.725-6.27-5.46-42.574-5.46-42.574" transform="translate(-61.3 -104.59)" fill="#2d1674" stroke="#263238" stroke-linecap="round" stroke-linejoin="round" stroke-width="1"/>
      <line id="Línea_10" data-name="Línea 10" x1="0.225" y1="10.226" transform="translate(18.283 94.624)" fill="none" stroke="#263238" stroke-linecap="round" stroke-linejoin="round" stroke-width="1"/>
      <ellipse id="Elipse_8" data-name="Elipse 8" cx="9.962" cy="10.919" rx="9.962" ry="10.919" transform="translate(28.109 67.326)" fill="#fff" stroke="#263238" stroke-linecap="round" stroke-linejoin="round" stroke-width="1"/>
      <path id="Trazado_39" data-name="Trazado 39" d="M93.71,163.55s0,19.651,1.953,23.2,9,4.639,9.552,0,.273-21.555.273-21.555Z" transform="translate(-62.056 -104.409)" fill="#fff" stroke="#263238" stroke-linecap="round" stroke-linejoin="round" stroke-width="1"/>
      <path id="Trazado_40" data-name="Trazado 40" d="M105.519,173.034c0-4.3-.068-7.813-.068-7.813L93.73,163.58s0,3.125.127,7.11A13.117,13.117,0,0,0,105.519,173.034Z" transform="translate(-62.056 -104.41)" fill="#263238" stroke="#263238" stroke-linecap="round" stroke-linejoin="round" stroke-width="1"/>
      <path id="Trazado_41" data-name="Trazado 41" d="M113,125.637s1.953,19.924,2.461,25.657-1.641,12.824-9.005,15.549-13.371-1.084-17.2-6.27-4.883-5.46-4.883-5.46a4.727,4.727,0,0,1-5.723-3.545c-1.367-4.639,2.451-6.554,5.45-7.374,0,0-4.883-11.183-4.883-14.191s5.176-9.278,16.1-12S113,125.637,113,125.637Z" transform="translate(-61.698 -103.336)" fill="#fff" stroke="#263238" stroke-linecap="round" stroke-linejoin="round" stroke-width="1"/>
      <path id="Trazado_42" data-name="Trazado 42" d="M104.857,137.85l.273,4.366s6.28.547,4.092,2.451a15.363,15.363,0,0,1-5.733,2.735" transform="translate(-62.284 -103.81)" fill="none" stroke="#263238" stroke-linecap="round" stroke-linejoin="round" stroke-width="1"/>
      <path id="Trazado_43" data-name="Trazado 43" d="M94.55,153.49a8.566,8.566,0,0,0,7.921,2.188" transform="translate(-62.075 -104.174)" fill="none" stroke="#263238" stroke-linecap="round" stroke-linejoin="round" stroke-width="1"/>
      <path id="Trazado_44" data-name="Trazado 44" d="M97.845,141.425c0,1.279-.615,2.315-1.367,2.315s-1.367-1.035-1.367-2.315.615-2.325,1.367-2.325S97.845,140.145,97.845,141.425Z" transform="translate(-62.088 -103.839)" fill="#263238"/>
      <ellipse id="Elipse_9" data-name="Elipse 9" cx="1.367" cy="2.325" rx="1.367" ry="2.325" transform="translate(44.752 32.8)" fill="#263238"/>
      <path id="Trazado_45" data-name="Trazado 45" d="M91.2,137.218s2.451-3.282,7.911-3.008" transform="translate(-61.997 -103.724)" fill="none" stroke="#263238" stroke-linecap="round" stroke-linejoin="round" stroke-width="1"/>
      <path id="Trazado_46" data-name="Trazado 46" d="M104.05,131.053a4.883,4.883,0,0,1,5.733-3.545" transform="translate(-62.297 -103.566)" fill="none" stroke="#263238" stroke-linecap="round" stroke-linejoin="round" stroke-width="1"/>
      <path id="Trazado_47" data-name="Trazado 47" d="M81.185,143.855s4.092,4.366,5.46,2.188,0-6.007.273-9.005,3.545-2.735,2.451-5.186-4.883.273-4.883-2.461S91.86,122.3,98.951,122.3s14.738,6.837,21.018,3.819,3.819-9.552.273-12.55-10.646-2.735-10.646-2.735,8.732-2.725,5.733-5.46-10.646-3-14.738-1.358-8.487,3.868-8.487,3.868,3.545-5.733-1.367-3.272a15.539,15.539,0,0,0-8.185,9.278c-1.367,3.545-2.461,6-2.461,6s-3.272-2.451-5.723-1.358,1.953,1.953,1.953,1.953-5.733,3.282-4.883,7.647,6.007,10.636,7.374,11.456S81.185,143.855,81.185,143.855Z" transform="translate(-61.534 -102.997)" fill="#263238" stroke="#263238" stroke-linecap="round" stroke-linejoin="round" stroke-width="1"/>
      <path id="Trazado_48" data-name="Trazado 48" d="M108.956,191.177V179.721c0-1.094,7.1-1.641,7.1-1.641l.264,1.641-3,1.631,2.032,4.532s10.245-6.71,11.339-5.342a3.633,3.633,0,0,1-.273,4.366,4.824,4.824,0,0,0-1.084,2.178s.264,7.374-1.641,8.185-12.013,3.555-12.013,3.555c-8,9.474-16.086,19.045-25.706,26.947-3.907,3.223-8.585,8.663-13.586,5.606-4.805-2.93-4.688-10.3-1.641-14.269,5.46-7.1,12.7-8.468,19.944-12.492a107.115,107.115,0,0,0,18.264-13.439Z" transform="translate(-61.47 -104.748)" fill="#fff" stroke="#263238" stroke-linecap="round" stroke-linejoin="round" stroke-width="1"/>
      <path id="Trazado_49" data-name="Trazado 49" d="M116.47,185.585l1.953-17.873a2.119,2.119,0,0,1,2.061-1.953l6.524-.469a2.129,2.129,0,0,1,2.178,2.158l-1.367,12.834Z" transform="translate(-62.586 -104.449)" fill="#263238" stroke="#263238" stroke-linecap="round" stroke-linejoin="round" stroke-width="1"/>
    </g>
    <g id="freepik--Couch--inject-32" transform="translate(47.915 247.165)">
      <path id="Trazado_50" data-name="Trazado 50" d="M386.269,333.294s5.469-13.673,1.953-42c-1.533-12.443-.439-38-17.453-38.833-18.156-.879-25.57.918-43.765,1.123-65.633.752-113.9,7.3-153.915,3.438-32.162-3.106-59.91-8.2-71.3,3.233s-10.441,35.8-9.444,40.523,8.439,37.026,8.439,37.026l283.746-1.279Z" transform="translate(-49.565 -252.224)" fill="#999" stroke="#263238" stroke-linecap="round" stroke-linejoin="round" stroke-width="1"/>
      <path id="Trazado_51" data-name="Trazado 51" d="M103.509,326.15s-5.469-21.878-14.426-27.845-20.628.5-30.277,9.943-12.433,20.637-8.448,39.282S65.985,393.766,69.5,406.2s3.477,18.9,15.158,22.874,22.874,4.229,30.082-5.723,5.225-55.671-.5-72.841S103.509,326.15,103.509,326.15Z" transform="translate(-48.558 -253.245)" fill="#b2b2b2" stroke="#263238" stroke-linecap="round" stroke-linejoin="round" stroke-width="1"/>
      <path id="Trazado_52" data-name="Trazado 52" d="M102.512,422.957c-4.971-9.405-19.885-76.8-19.641-86.016s-7.208-24.612-16.408-25.863c-7.579-.977-13.674,6.231-15.539,8.79-2.93,7.3-3.145,16.135-.615,27.992,3.975,18.645,3.477,46.812,6.954,59.246S60.71,426.024,72.43,430c7.686,2.618,27.347,3.037,33.608.586A60.968,60.968,0,0,0,102.512,422.957Z" transform="translate(-48.557 -253.594)" fill="#8a8a8a" stroke="#263238" stroke-linecap="round" stroke-linejoin="round" stroke-width="1"/>
      <path id="Trazado_53" data-name="Trazado 53" d="M377.6,325.72s5.782-21.878,15.227-27.845,21.8.5,32.035,9.943S438,328.455,433.8,347.1s-16.545,46.236-20.227,58.669-3.672,18.9-16.018,22.874-24.153,4.229-31.771-5.714-5.509-55.671.527-72.851S377.6,325.72,377.6,325.72Z" transform="translate(-55.839 -253.234)" fill="#b2b2b2" stroke="#263238" stroke-linecap="round" stroke-linejoin="round" stroke-width="1"/>
      <path id="Trazado_54" data-name="Trazado 54" d="M378.97,423.914c5.245-9.572,21-77.773,20.745-87.081s7.608-24.866,17.287-26.175c8.009-1.045,14.406,6.3,16.408,8.907,3.135,7.384,3.331,16.33.664,28.324-4.209,18.879-10.626,46.812-14.308,59.4s-3.672,19.123-16.018,23.157c-8.116,2.647-21.927,3.663-28.548,1.172A61.916,61.916,0,0,1,378.97,423.914Z" transform="translate(-56.173 -253.584)" fill="#8a8a8a" stroke="#263238" stroke-linecap="round" stroke-linejoin="round" stroke-width="1"/>
      <path id="Trazado_55" data-name="Trazado 55" d="M393.08,369.85s-6.212,38.6-10.2,51.53-2.735,12.931-9.444,13.429-261.37-.215-269.33-1.455-12.179-7.218-14.416-15.627-4.473-46.812-4.473-46.812l297.165-.977Z" transform="translate(-49.412 -254.967)" fill="#999" stroke="#263238" stroke-linecap="round" stroke-linejoin="round" stroke-width="1"/>
      <path id="Trazado_56" data-name="Trazado 56" d="M85.162,376.874a8.624,8.624,0,0,0,6.681,5.245c5.255.977,139.871,2.393,144.158,2.393s114.086,0,131.754-1.436,26.654-3.77,25.257-13.341-.918-1.953-.918-1.953L82.3,371.62Z" transform="translate(-49.343 -254.851)" fill="#263238"/>
      <path id="Trazado_57" data-name="Trazado 57" d="M104.915,325.58s-19.123,12.931-24.612,18.9-2.481,10.685-1.953,15.168,2.735,14.416,9.191,17.893,86.768,1.953,133.512,3.487,147.225-.283,159.7-3.282,15.383-18.4,16.125-27.1-8.175-20.881-13.146-22.366-46.324-1.709-92.316-.713-67.069,5-119.526,4S116.85,323.343,104.915,325.58Z" transform="translate(-49.221 -253.924)" fill="#b2b2b2"/>
      <g id="Grupo_52" data-name="Grupo 52" transform="translate(27.832 71.228)" clip-path="url(#clip-path)">
        <path id="Trazado_58" data-name="Trazado 58" d="M78.32,360.107c.488,4.473,2.735,14.416,9.191,17.893s86.768,1.953,133.512,3.487,147.254-.283,159.727-3.282,19.885-14.914,20.628-23.616a11.312,11.312,0,0,0-.43-3.907c-1.758,1.748-5.128-.146-9.122-.713-8.859-1.279-102.063,4.522-171.818,4.522-75.751,0-100.432,0-137.917-7.208-5.577-1.074-1.748-2.373-1.748-2.373C74.833,350.907,77.822,355.624,78.32,360.107Z" transform="translate(-77.053 -325.613)" fill="#999"/>
      </g>
      <path id="Trazado_60" data-name="Trazado 60" d="M104.915,325.58s-19.123,12.931-24.612,18.9-2.481,10.685-1.953,15.168,2.735,14.416,9.191,17.893,86.768,1.953,133.512,3.487,147.225-.283,159.7-3.282,15.383-18.4,16.125-27.1-8.175-20.881-13.146-22.366-46.324-1.709-92.316-.713-67.069,5-119.526,4S116.85,323.343,104.915,325.58Z" transform="translate(-49.221 -253.924)" fill="none" stroke="#263238" stroke-linecap="round" stroke-linejoin="round" stroke-width="1"/>
      <path id="Trazado_61" data-name="Trazado 61" d="M244.066,258.14l-.391,70.448S240.6,347.858,241,350.524s.381,28.871.381,28.871" transform="translate(-53.043 -252.362)" fill="none" stroke="#263238" stroke-linecap="round" stroke-linejoin="round" stroke-width="1"/>
    </g>
    <g id="freepik--character-4--inject-32" transform="translate(313.756 220.626)">
      <path id="Trazado_62" data-name="Trazado 62" d="M372,275.857a13.859,13.859,0,0,1,8.732,1.524c3.907,2.4,10.265,10.265,10.265,10.265l6.768-18.782s-3.057-5.674-3.057-7.638-.215-3.907-.215-4.805,1.953-1.748,1.953-.869a25.4,25.4,0,0,0,.654,3.487l2.246,2.637,1.309-10.91s1.084-1.309,1.524-.225.254,6.71.254,6.71h1.084l1.035-8.839s.313-.42,1.358-.313a.752.752,0,0,1,.723,1.035l-.723,8.331.625.1,1.738-7.687s.733-.723,1.25-.313a1.954,1.954,0,0,1,.518,1.358l-1.113,8,2.471-4.571s1.035-.41,1.035.42a65.947,65.947,0,0,1-2.784,8.106c-.205.313-4.161,7.589-4.161,7.589s-3.223,19.25-4.678,23.44-4.581,7.9-9.054,8.116-9.571-4.883-9.571-4.883Z" transform="translate(-321.939 -225.589)" fill="#fff" stroke="#263238" stroke-linecap="round" stroke-linejoin="round" stroke-width="1"/>
      <path id="Trazado_63" data-name="Trazado 63" d="M402.48,268.179s.762-3.389,1.69-4.463a8.79,8.79,0,0,1,2.93-1.856" transform="translate(-322.65 -225.91)" fill="none" stroke="#263238" stroke-linecap="round" stroke-linejoin="round" stroke-width="1"/>
      <path id="Trazado_64" data-name="Trazado 64" d="M356.643,268.894s-.43,6.114-.869,7.813-3.057,1.309-5.46,1.309-3.272,3.907-3.711,7.423S340.928,327.8,341.8,333.3s10.05,11.359,20.09,12.013,24.231-.879,29.916-5.245,6.329-7.813,5.02-12.228-4.805-8.946-6.554-10.91-3.5-4.366-3.5-4.366-9.825-32.533-12.228-34.936-7.2-1.309-7.2-1.309l-1.533-8.087Z" transform="translate(-321.233 -226.058)" fill="#2d1674" stroke="#263238" stroke-linecap="round" stroke-linejoin="round" stroke-width="1"/>
      <path id="Trazado_65" data-name="Trazado 65" d="M347.66,330.594s10.324-22.727,36.684-15.627" transform="translate(-321.372 -227.116)" fill="none" stroke="#263238" stroke-linecap="round" stroke-linejoin="round" stroke-width="1"/>
      <path id="Trazado_66" data-name="Trazado 66" d="M354.51,318.179s7.452-6.114,15.471-5.919" transform="translate(-321.531 -227.085)" fill="none" stroke="#263238" stroke-linecap="round" stroke-linejoin="round" stroke-width="1"/>
      <path id="Trazado_67" data-name="Trazado 67" d="M369.562,276.093a11.6,11.6,0,0,0-1.9.234l-1.533-8.087-9.171.654s-.43,6.114-.869,7.813c-.215.869-.977,1.192-1.953,1.309.733,1.953,3.418,7.94,9.6,8.3C369.21,286.69,369.689,279.726,369.562,276.093Z" transform="translate(-321.523 -226.059)" fill="#fff" stroke="#263238" stroke-linecap="round" stroke-linejoin="round" stroke-width="1"/>
      <path id="Trazado_68" data-name="Trazado 68" d="M356.57,273.865a24.89,24.89,0,0,0,5.03.606,16.184,16.184,0,0,0,5.606-.869l-.977-5.391-9.171.654S356.824,271.57,356.57,273.865Z" transform="translate(-321.579 -226.058)" fill="#263238" stroke="#263238" stroke-linecap="round" stroke-linejoin="round" stroke-width="1"/>
      <path id="Trazado_69" data-name="Trazado 69" d="M380.72,231.262s7.208-5.245,15.94-3.907,8.077,15.07,4.805,18.782-11.134,1.309-11.134-.44,1.309-7.638-1.953-10.743a6.837,6.837,0,0,0-6.768-1.748Z" transform="translate(-322.143 -225.1)" fill="#263238" stroke="#263238" stroke-linecap="round" stroke-linejoin="round" stroke-width="1"/>
      <path id="Trazado_70" data-name="Trazado 70" d="M344.958,247.367a35.251,35.251,0,0,0-.215,5.86c.215,2.188-2.842,3.711-.879,7.423s6.553,10.05,17.473,10.265,18.117-10.04,18.117-19.651-12.033-17-18.391-17-13.312,5.46-14.65,7.647a14.454,14.454,0,0,0-1.455,5.46Z" transform="translate(-321.268 -225.266)" fill="#fff" stroke="#263238" stroke-linecap="round" stroke-linejoin="round" stroke-width="1"/>
      <path id="Trazado_71" data-name="Trazado 71" d="M357.831,255.963a1.885,1.885,0,1,1-1.856-1.533,1.719,1.719,0,0,1,1.856,1.533Z" transform="translate(-321.522 -225.736)" fill="none" stroke="#263238" stroke-linecap="round" stroke-linejoin="round" stroke-width="1"/>
      <path id="Trazado_72" data-name="Trazado 72" d="M352.55,259.53s2.627,3.057,7.862.215" transform="translate(-321.486 -225.855)" fill="none" stroke="#263238" stroke-linecap="round" stroke-linejoin="round" stroke-width="1"/>
      <ellipse id="Elipse_10" data-name="Elipse 10" cx="1.309" cy="2.188" rx="1.309" ry="2.188" transform="translate(28.447 23.624)" fill="#263238"/>
      <path id="Trazado_73" data-name="Trazado 73" d="M362.107,251.648c0,1.211-.6,2.188-1.318,2.188s-1.309-.977-1.309-2.188.586-2.178,1.309-2.178S362.107,250.447,362.107,251.648Z" transform="translate(-321.647 -225.621)" fill="#263238"/>
      <path id="Trazado_74" data-name="Trazado 74" d="M349,247.646a4.62,4.62,0,0,1,4.366-1.309" transform="translate(-321.403 -225.545)" fill="none" stroke="#263238" stroke-linecap="round" stroke-linejoin="round" stroke-width="1"/>
      <path id="Trazado_75" data-name="Trazado 75" d="M359,246.108s4.141-.869,5.45,2.842" transform="translate(-321.636 -225.54)" fill="none" stroke="#263238" stroke-linecap="round" stroke-linejoin="round" stroke-width="1"/>
      <path id="Trazado_76" data-name="Trazado 76" d="M358.69,235.364s6.114,13.537,11.574,17.024,10.695,1.094,11.574-.869a19.709,19.709,0,0,0,1.309-14.65c-2.188-7.423-6.768-12.228-13.976-11.789s-15.5,6.329-15.5,6.329Z" transform="translate(-321.512 -225.052)" fill="#263238" stroke="#263238" stroke-linecap="round" stroke-linejoin="round" stroke-width="1"/>
      <path id="Trazado_77" data-name="Trazado 77" d="M360.871,236.077s-14.152,10.695-16.809,12.882-6.114.869-8.517-6.993,2.627-14.406,9.4-14.406,14.406,4.336,14.406,4.336" transform="translate(-321.075 -225.11)" fill="#263238" stroke="#263238" stroke-linecap="round" stroke-linejoin="round" stroke-width="1"/>
      <path id="Trazado_78" data-name="Trazado 78" d="M373.88,255.559s3.487-5.86,6.768-5.46,1.524,8.517-.225,10.48-5.02-.215-5.02-.215" transform="translate(-321.983 -225.635)" fill="#fff" stroke="#263238" stroke-linecap="round" stroke-linejoin="round" stroke-width="1"/>
      <path id="Trazado_79" data-name="Trazado 79" d="M352.9,281.806a4.131,4.131,0,0,0-5.46-2.842c-4.366,1.319-5.86,10.919-6.983,17.033s-8.077,40.835-8.077,40.835-7.208,1.084-10.265,1.953-.654,1.309,3.711,1.748,6.983.869,6.983.869-4.8,2.4-.43,2.4,6.983-2.842,7.423-3.907,12.228-45.2,13.1-50.221A18.587,18.587,0,0,0,352.9,281.806Z" transform="translate(-320.744 -226.303)" fill="#fff" stroke="#263238" stroke-linecap="round" stroke-linejoin="round" stroke-width="1"/>
      <path id="Trazado_80" data-name="Trazado 80" d="M395.787,321.957s-6.3-4.209-12.795.186-1.533,16.428-.2,20.637,6.495,16.232,8.985,22.346,4.581,15.627,5.157,17.385S402.1,385.382,404,385a73.167,73.167,0,0,0,13-5.548c2.285-1.524,2.862-4.2,1.524-4.776S404,374.3,404,374.3a71,71,0,0,1-2.862-13.752c-.381-5.938-2.676-23.118-2.862-28.851S396.6,323.138,395.787,321.957Z" transform="translate(-322.119 -227.269)" fill="#fff" stroke="#263238" stroke-linecap="round" stroke-linejoin="round" stroke-width="1"/>
      <path id="Trazado_81" data-name="Trazado 81" d="M403.058,377.348a5.86,5.86,0,0,1-.391,1.953,44.005,44.005,0,0,1-6.4.635c.5,1.953.86,3.379,1.055,3.907.566,1.719,5.157,2.871,7.061,2.491a73.179,73.179,0,0,0,13-5.548c2.285-1.524,2.862-4.2,1.524-4.776s-14.523-.381-14.523-.381S403.058,376.4,403.058,377.348Z" transform="translate(-322.505 -228.562)" fill="#263238" stroke="#263238" stroke-linecap="round" stroke-linejoin="round" stroke-width="1"/>
      <path id="Trazado_82" data-name="Trazado 82" d="M385.188,382.016s-1.572,0-5.069-23.968c-1.533-10.49-.381-27.621-4.4-33.354s-16.6-4-16.6,8.312,11.457,39.263,14.65,47,4.014,12.609,6.837,13.185,14.045-2.3,18.342-5.157,5.157-6.837,2.3-6.837S385.188,382.016,385.188,382.016Z" transform="translate(-321.639 -227.302)" fill="#fff" stroke="#263238" stroke-linecap="round" stroke-linejoin="round" stroke-width="1"/>
      <path id="Trazado_83" data-name="Trazado 83" d="M383.647,384.633a3.291,3.291,0,0,0,.293,3.008c.537.586-1.348.879-7.1.977,1.319,3.516,2.334,5.655,4.17,6.026,2.871.576,14.045-2.3,18.342-5.157s5.157-6.837,2.3-6.837-16.047.86-16.047.86A2.93,2.93,0,0,0,383.647,384.633Z" transform="translate(-322.052 -228.726)" fill="#263238" stroke="#263238" stroke-linecap="round" stroke-linejoin="round" stroke-width="1"/>
    </g>
    <g id="freepik--character-3--inject-32" transform="translate(218.321 175.571)">
      <path id="Trazado_84" data-name="Trazado 84" d="M286.536,194.625a17.707,17.707,0,0,0-5.176-11.789c-5.176-4.883-16.672-6.036-22.132,1.436s-5.46,13.517-3.448,14.953l2.012,1.436s-2.588,4.883.283,7.188,5.176,4.6,5.753,2.012-3.741-8.048,2.872-12.365S286.536,194.625,286.536,194.625Z" transform="translate(-223.766 -178.921)" fill="#263238" stroke="#263238" stroke-linecap="round" stroke-linejoin="round" stroke-width="1"/>
      <path id="Trazado_85" data-name="Trazado 85" d="M284.04,188.715s8.624-7.188,13.507-1.152-5.167,13.8-6.6,14.65-7.188-10.919-7.188-10.919S282.321,190.151,284.04,188.715Z" transform="translate(-224.434 -179.066)" fill="#263238" stroke="#263238" stroke-linecap="round" stroke-linejoin="round" stroke-width="1"/>
      <path id="Trazado_86" data-name="Trazado 86" d="M292.109,204.053s3.252-4.786,4.971-.772-1.953,9.571-3.633,10.744S292.109,204.053,292.109,204.053Z" transform="translate(-224.641 -179.451)" fill="#fff" stroke="#263238" stroke-linecap="round" stroke-linejoin="round" stroke-width="1"/>
      <path id="Trazado_87" data-name="Trazado 87" d="M262,208.886s-3.067-7.071-5.167-4.014.2,11.1,4.21,11.1a9.194,9.194,0,0,0,1.143-2.676" transform="translate(-223.801 -179.508)" fill="#fff" stroke="#263238" stroke-linecap="round" stroke-linejoin="round" stroke-width="1"/>
      <path id="Trazado_88" data-name="Trazado 88" d="M308.139,279.031c-3.35-8.849,1.533-32.025-6.094-35.688s-18.293-4.883-18.293-4.883l-8.849.322-8.849-.322s-10.675,1.221-18.3,4.883-2.745,26.839-6.095,35.688-6.1,20.422-4.883,27.748,5.489,10.06,8.849,10.978c2.3.625,19.055.391,29.3.186,10.216.205,26.966.44,29.3-.186,3.35-.918,7.618-3.663,8.839-10.978S311.5,287.821,308.139,279.031Z" transform="translate(-223.345 -180.309)" fill="#2d1674" stroke="#263238" stroke-linecap="round" stroke-linejoin="round" stroke-width="1"/>
      <path id="Trazado_89" data-name="Trazado 89" d="M255.79,282.984s21.321-10.509,38.257-2.93" transform="translate(-223.795 -181.215)" fill="none" stroke="#263238" stroke-linecap="round" stroke-linejoin="round" stroke-width="1"/>
      <path id="Trazado_90" data-name="Trazado 90" d="M269.85,272.653s10.216-1.465,17.229,2.334" transform="translate(-224.123 -181.1)" fill="none" stroke="#263238" stroke-linecap="round" stroke-linejoin="round" stroke-width="1"/>
      <path id="Trazado_91" data-name="Trazado 91" d="M270.771,232.686s-5.928,1.953-6.886,4.6-2.871,9.943-2.676,13.195,2.1,4.971,3.057,3.448,10.138-5.548,11.29-6.124,8.224,1.533,9.562,3.057,5.167,5.743,5.743,4.21,0-8.419-1.953-14.533-3.633-7.081-7.081-8.038S270.771,232.686,270.771,232.686Z" transform="translate(-223.921 -180.161)" fill="#fff" stroke="#263238" stroke-linecap="round" stroke-linejoin="round" stroke-width="1"/>
      <path id="Trazado_92" data-name="Trazado 92" d="M268.8,232.31s.381,9.572,1.953,14.543,5.733,11.671,7.647,10.744,4.024-9.767,4.971-13.39a85.694,85.694,0,0,0,1.533-10.91S271.281,234.224,268.8,232.31Z" transform="translate(-224.099 -180.166)" fill="#fff" stroke="#263238" stroke-linecap="round" stroke-linejoin="round" stroke-width="1"/>
      <path id="Trazado_93" data-name="Trazado 93" d="M284.866,233.267s-13.586.977-16.066-.977c0,0,.107,2.608.42,5.811a29.9,29.9,0,0,0,14.1,1.035c.332-.068.635-.156.977-.234C284.622,235.982,284.866,233.267,284.866,233.267Z" transform="translate(-224.099 -180.165)" fill="#263238" stroke="#263238" stroke-linecap="round" stroke-linejoin="round" stroke-width="1"/>
      <path id="Trazado_94" data-name="Trazado 94" d="M261.855,199.117s-3.252,25.716,0,30.15,14.474,6.837,21.272,5.313,10.05-5.86,10.353-14.484-2.071-22.757-5.03-24.817-10.343-4.737-16.848-2.666S262.735,196.753,261.855,199.117Z" transform="translate(-223.903 -179.222)" fill="#fff" stroke="#263238" stroke-linecap="round" stroke-linejoin="round" stroke-width="1"/>
      <path id="Trazado_95" data-name="Trazado 95" d="M271.641,191s-1.953,7.4-6.622,9.767-3.506-3.907-2.334-7.4" transform="translate(-223.932 -179.202)" fill="#263238" stroke="#263238" stroke-linecap="round" stroke-linejoin="round" stroke-width="1"/>
      <path id="Trazado_96" data-name="Trazado 96" d="M269.1,208.686s3.33-2.93,5.86-.391" transform="translate(-224.105 -179.581)" fill="none" stroke="#263238" stroke-linecap="round" stroke-linejoin="round" stroke-width="1"/>
      <path id="Trazado_97" data-name="Trazado 97" d="M282.17,208.072s2.744-3.731,5.694.205" transform="translate(-224.41 -179.563)" fill="none" stroke="#263238" stroke-linecap="round" stroke-linejoin="round" stroke-width="1"/>
      <path id="Trazado_98" data-name="Trazado 98" d="M280.069,203.13l1.143,12.628s-3.438,1.719-4.971-1.533" transform="translate(-224.272 -179.485)" fill="#fff" stroke="#263238" stroke-linecap="round" stroke-linejoin="round" stroke-width="1"/>
      <path id="Trazado_99" data-name="Trazado 99" d="M268.6,203.091a9.611,9.611,0,0,1,6.837-1.533" transform="translate(-224.094 -179.446)" fill="none" stroke="#263238" stroke-linecap="round" stroke-linejoin="round" stroke-width="1"/>
      <path id="Trazado_100" data-name="Trazado 100" d="M280.55,201.736a6.192,6.192,0,0,1,6.5-.2" transform="translate(-224.372 -179.429)" fill="none" stroke="#263238" stroke-linecap="round" stroke-linejoin="round" stroke-width="1"/>
      <path id="Trazado_101" data-name="Trazado 101" d="M277.244,215.86s-7.921,1.5-7.345,2.842,3.008,2.93,5.3,2.754,3.956-2.93,3.956-2.93,3.7,5.469,8.614.752c1.572-1.5-6.71-3.233-6.71-3.233S278.387,217.2,277.244,215.86Z" transform="translate(-224.123 -179.782)" fill="#263238"/>
      <path id="Trazado_102" data-name="Trazado 102" d="M307.629,311.663s-.586-5.147-18.977-9.386-31.83-.313-37.973,4.239-9.933,7.569-12.267,15.744-2.93,24.212,15.48,28.451,47.594,3.6,56.062-4.7C323.618,332.632,310.257,314.661,307.629,311.663Z" transform="translate(-223.363 -181.755)" fill="#263238" stroke="#263238" stroke-linecap="round" stroke-linejoin="round" stroke-width="1"/>
      <path id="Trazado_103" data-name="Trazado 103" d="M288.243,308.718s-5.684-.527-7.315-.889-7.257,2.725-10.343,4.356a12.1,12.1,0,0,0-5.088,6.173c0,.547-.537,3.262.371,3.633s5.44-.733,6.71-.733,8.351-2.178,10.167-1.953,8.37-3.5,8.37-3.5Z" transform="translate(-224.018 -181.926)" fill="#fff" stroke="#263238" stroke-linecap="round" stroke-linejoin="round" stroke-width="1"/>
      <path id="Trazado_104" data-name="Trazado 104" d="M280.864,316.75s-5.089.547-6.358,1.631a32.675,32.675,0,0,1-4.356,2.725" transform="translate(-224.13 -182.135)" fill="none" stroke="#263238" stroke-linecap="round" stroke-linejoin="round" stroke-width="1"/>
      <path id="Trazado_105" data-name="Trazado 105" d="M278.613,314a33.565,33.565,0,0,0-6.358,2.539,38.589,38.589,0,0,0-5.264,4.883" transform="translate(-224.056 -182.07)" fill="none" stroke="#263238" stroke-linecap="round" stroke-linejoin="round" stroke-width="1"/>
      <path id="Trazado_106" data-name="Trazado 106" d="M277.484,311.55s-7.081,2.539-8.351,3.448a36.841,36.841,0,0,0-3.633,3.448" transform="translate(-224.022 -182.013)" fill="none" stroke="#263238" stroke-linecap="round" stroke-linejoin="round" stroke-width="1"/>
      <path id="Trazado_107" data-name="Trazado 107" d="M303.009,242.21s8.849,1.524,13.117,6.095,9.454,27.748,11.9,36.6,3.663,22.132,2.442,24.876-6.681,4.5-11.222,4.5-28.4.518-28.4.518l-3.35-7.325,23.938-11.144-6.016-34.907" transform="translate(-224.534 -180.396)" fill="#2d1674" stroke="#263238" stroke-linecap="round" stroke-linejoin="round" stroke-width="1"/>
      <path id="Trazado_108" data-name="Trazado 108" d="M251.1,242.21s-8.849,1.524-13.117,6.095-9.454,27.748-11.886,36.6-3.838,20.1-2.618,22.845,7.628,7.013,12.2,7.013,26.859-.518,26.859-.518l2.871-7.052L243,294.941l5.655-33.52" transform="translate(-223.031 -180.396)" fill="#2d1674" stroke="#263238" stroke-linecap="round" stroke-linejoin="round" stroke-width="1"/>
      <path id="Trazado_109" data-name="Trazado 109" d="M266.351,308.718s5.675-.527,7.306-.889,7.266,2.725,10.353,4.356a12.062,12.062,0,0,1,5.079,6.173c0,.547.547,3.262-.361,3.633s-5.45-.733-6.72-.733-8.351-2.178-10.167-1.953-8.36-3.5-8.36-3.5Z" transform="translate(-223.974 -181.926)" fill="#fff" stroke="#263238" stroke-linecap="round" stroke-linejoin="round" stroke-width="1"/>
      <path id="Trazado_110" data-name="Trazado 110" d="M274.09,316.75s5.079.547,6.348,1.631a33.339,33.339,0,0,0,4.356,2.725" transform="translate(-224.222 -182.135)" fill="none" stroke="#263238" stroke-linecap="round" stroke-linejoin="round" stroke-width="1"/>
      <path id="Trazado_111" data-name="Trazado 111" d="M276.32,314a33.294,33.294,0,0,1,6.348,2.539,37.98,37.98,0,0,1,5.264,4.883" transform="translate(-224.274 -182.07)" fill="none" stroke="#263238" stroke-linecap="round" stroke-linejoin="round" stroke-width="1"/>
      <path id="Trazado_112" data-name="Trazado 112" d="M277.43,311.55s7.081,2.539,8.351,3.448a36.849,36.849,0,0,1,3.633,3.448" transform="translate(-224.3 -182.013)" fill="none" stroke="#263238" stroke-linecap="round" stroke-linejoin="round" stroke-width="1"/>
      <path id="Trazado_113" data-name="Trazado 113" d="M269.345,327.042s-14.6-13.429-26.859-13.722-19.534,8.468-18.987,21.9S237.788,438.56,237.788,438.56l14.015-.293L255.329,336.1" transform="translate(-223.041 -182.054)" fill="#263238" stroke="#263238" stroke-linecap="round" stroke-linejoin="round" stroke-width="1"/>
      <path id="Trazado_114" data-name="Trazado 114" d="M237.894,441.543s-7.6,5.255-9.64,11.388,9.64,4.385,14.65-.576a84.351,84.351,0,0,0,9.054-11.1Z" transform="translate(-223.148 -185.038)" fill="#fff" stroke="#263238" stroke-linecap="round" stroke-linejoin="round" stroke-width="1"/>
      <path id="Trazado_115" data-name="Trazado 115" d="M282.67,327.042s14.6-13.429,26.869-13.722,19.534,8.468,18.977,21.9S308.923,438.56,308.923,438.56l-14.015-.293L296.666,336.1" transform="translate(-224.422 -182.054)" fill="#263238" stroke="#263238" stroke-linecap="round" stroke-linejoin="round" stroke-width="1"/>
      <path id="Trazado_116" data-name="Trazado 116" d="M309.215,441.543s7.6,5.255,9.64,11.388-9.64,4.385-14.6-.576a84.344,84.344,0,0,1-9.054-11.1Z" transform="translate(-224.714 -185.038)" fill="#fff" stroke="#263238" stroke-linecap="round" stroke-linejoin="round" stroke-width="1"/>
    </g>
    <g id="freepik--character-2--inject-32" transform="translate(116.218 170.705)">
      <path id="Trazado_117" data-name="Trazado 117" d="M196.9,208.641s7.706-2.569,8.888-7.11-3.155-19.768-16.2-25.11-34.4-1.582-41.714,6.729.4,16.008.6,17.785-5.733,2.93-6.72,10.48,8.7,15.217,19.172,17.58,15.627-.6,15.627-4.551-2.373-7.511,2.178-10.47,9.679-8.5,11.857-8.3S196.9,208.641,196.9,208.641Z" transform="translate(-119.031 -173.939)" fill="#263238"/>
      <g id="Grupo_53" data-name="Grupo 53" transform="translate(22.648)" clip-path="url(#clip-path-2)">
        <path id="Trazado_118" data-name="Trazado 118" d="M180.163,184.4A43.951,43.951,0,0,1,157.7,202.566C142.395,207.831,137.14,204,137.14,204" transform="translate(-141.573 -174.183)" fill="none" stroke="#636363" stroke-linecap="round" stroke-linejoin="round" stroke-width="1"/>
        <path id="Trazado_119" data-name="Trazado 119" d="M173.075,181s-14.338,19.123-32.035,18.645" transform="translate(-141.664 -174.104)" fill="none" stroke="#636363" stroke-linecap="round" stroke-linejoin="round" stroke-width="1"/>
        <path id="Trazado_120" data-name="Trazado 120" d="M185.781,184.4s-24.417,36.821-53.551,36.821" transform="translate(-141.459 -174.183)" fill="none" stroke="#636363" stroke-linecap="round" stroke-linejoin="round" stroke-width="1"/>
        <path id="Trazado_121" data-name="Trazado 121" d="M176.78,178s24.28,12.746,29.828,23.587" transform="translate(-142.497 -174.034)" fill="none" stroke="#636363" stroke-linecap="round" stroke-linejoin="round" stroke-width="1"/>
      </g>
      <path id="Trazado_123" data-name="Trazado 123" d="M196.9,208.641s7.706-2.569,8.888-7.11-3.155-19.768-16.2-25.11-34.4-1.582-41.714,6.729.4,16.008.6,17.785-5.733,2.93-6.72,10.48,8.7,15.217,19.172,17.58,15.627-.6,15.627-4.551-2.373-7.511,2.178-10.47,9.679-8.5,11.857-8.3S196.9,208.641,196.9,208.641Z" transform="translate(-119.031 -173.939)" fill="none" stroke="#263238" stroke-linecap="round" stroke-linejoin="round" stroke-width="1"/>
      <path id="Trazado_124" data-name="Trazado 124" d="M193.485,248.526s11.466,3.164,16.8,10.675,9.884,25.5,11.72,33.207-.557,16.164-5.86,18.928-14.084-7.813-16.252-11.808-2.178-18.381-3.907-28.07-5.333-21.741-5.333-21.741S188.943,247.734,193.485,248.526Z" transform="translate(-120.166 -175.674)" fill="#fff" stroke="#263238" stroke-linecap="round" stroke-linejoin="round" stroke-width="1"/>
      <path id="Trazado_125" data-name="Trazado 125" d="M168.983,223s1.192,11.867,0,14.435-5.528,5.528-12.843,7.9-12.257,4.356-16.213,11.076-8.282,40.835-13.244,49.811c-5.059,9.161-6.241,27.894,5.753,37.192,9.767,7.608,44.068,6.69,56.315,4.883s23.147-.068,26.507-8.565-3.575-22.864-6.934-27.21-10.118-8.644-10.118-8.644,4.219-7.325,4.542-13.439c.6-11.076-10.87-42.505-10.87-42.505s-6.915-2.93-8.5-6.72-.977-9.093-.977-9.093Z" transform="translate(-118.596 -175.083)" fill="#2d1674" stroke="#263238" stroke-linecap="round" stroke-linejoin="round" stroke-width="1"/>
      <path id="Trazado_126" data-name="Trazado 126" d="M151.06,317.6s20.159.879,31.117,9.64" transform="translate(-119.25 -177.289)" fill="none" stroke="#263238" stroke-linecap="round" stroke-linejoin="round" stroke-width="1"/>
      <path id="Trazado_127" data-name="Trazado 127" d="M164.42,298.873s11.857,1.778,22.923-2.373" transform="translate(-119.561 -176.797)" fill="none" stroke="#263238" stroke-linecap="round" stroke-linejoin="round" stroke-width="1"/>
      <path id="Trazado_128" data-name="Trazado 128" d="M178.38,300.656s7.911-1.182,12.453-3.956" transform="translate(-119.887 -176.802)" fill="none" stroke="#263238" stroke-linecap="round" stroke-linejoin="round" stroke-width="1"/>
      <path id="Trazado_129" data-name="Trazado 129" d="M145.469,283.129c4.346-2.569,9.679-14.426,10.675-23.919.781-7.54-1.055-11.33-1.836-12.56-6.212,2.11-10.607,4.317-14.181,10.392-2.442,4.151-5.635,18.5-8.517,31.146C135.507,288.208,141.533,285.4,145.469,283.129Z" transform="translate(-118.796 -175.635)" fill="#fff" stroke="#263238" stroke-linecap="round" stroke-linejoin="round" stroke-width="1"/>
      <path id="Trazado_130" data-name="Trazado 130" d="M184.315,241.215c-1.582-3.751-.977-9.093-.977-9.093L169.88,223s1.192,11.867,0,14.435c-.918,1.953-3.741,4.219-8.38,6.231.82,3.624,3.223,12.912,7,16.692,4.737,4.747,13.83,5.733,16.994-.586s1.582-15.021,1.582-15.021l.078-.205a9.308,9.308,0,0,1-2.842-3.33Z" transform="translate(-119.493 -175.083)" fill="#fff" stroke="#263238" stroke-linecap="round" stroke-linejoin="round" stroke-width="1"/>
      <path id="Trazado_131" data-name="Trazado 131" d="M183.533,232.152l-11.671-7.892-1.592.869c.117,1.494.264,3.594.322,5.684,2.588,2.93,6.339,6.554,9.816,7.218a12.979,12.979,0,0,0,3.291.205A25.6,25.6,0,0,1,183.533,232.152Z" transform="translate(-119.698 -175.113)" fill="#263238"/>
      <path id="Trazado_132" data-name="Trazado 132" d="M188.323,195.71s-4.346,7.315-11.271,11.066a53.913,53.913,0,0,1-11.857,4.942s.2,2.373-.791,2.373-3.164-3.555-4.542-3.75-5.733,5.528-4.161,7.9a13.185,13.185,0,0,0,5.938,4.747c1.953.791,4.151-1.778,4.151-1.778s15.217,18.557,23.919,13.84,8.1-29.056,8.1-29.056S195.834,200.652,188.323,195.71Z" transform="translate(-119.35 -174.447)" fill="#fff" stroke="#263238" stroke-linecap="round" stroke-linejoin="round" stroke-width="1"/>
      <path id="Trazado_133" data-name="Trazado 133" d="M183.079,211.446c0,1.25-.576,2.266-1.289,2.266s-1.279-.977-1.279-2.266.576-2.276,1.279-2.276S183.079,210.186,183.079,211.446Z" transform="translate(-119.936 -174.761)" fill="#263238"/>
      <path id="Trazado_134" data-name="Trazado 134" d="M195.629,210.226c0,1.26-.576,2.276-1.289,2.276s-1.279-.977-1.279-2.276.566-2.266,1.279-2.266S195.629,208.976,195.629,210.226Z" transform="translate(-120.229 -174.732)" fill="#263238"/>
      <path id="Trazado_135" data-name="Trazado 135" d="M190.892,208.06l-1.182,3.75s3.155.977,3.155,2.774-2.93,2.569-3.555,2.569" transform="translate(-120.142 -174.735)" fill="none" stroke="#263238" stroke-linecap="round" stroke-linejoin="round" stroke-width="1"/>
      <path id="Trazado_136" data-name="Trazado 136" d="M186.88,223.24a4.414,4.414,0,0,0,4.151,0" transform="translate(-120.085 -175.089)" fill="none" stroke="#263238" stroke-linecap="round" stroke-linejoin="round" stroke-width="1"/>
      <path id="Trazado_137" data-name="Trazado 137" d="M179.19,206.58s1.778-3.164,5.137-2.373" transform="translate(-119.906 -174.642)" fill="none" stroke="#263238" stroke-linecap="round" stroke-linejoin="round" stroke-width="1"/>
      <path id="Trazado_138" data-name="Trazado 138" d="M192.75,204.813a2.588,2.588,0,0,1,3.555,1.182" transform="translate(-120.222 -174.652)" fill="none" stroke="#263238" stroke-linecap="round" stroke-linejoin="round" stroke-width="1"/>
      <path id="Trazado_139" data-name="Trazado 139" d="M186.27,315.21s6.729,1.1,7.13,1.953,2.637,5.684,2.031,7.1-1.826-.606-2.227-2.032-4.883-4.659-4.883-4.659" transform="translate(-120.071 -177.233)" fill="#fff" stroke="#263238" stroke-linecap="round" stroke-linejoin="round" stroke-width="1"/>
      <path id="Trazado_140" data-name="Trazado 140" d="M185.06,315.33s5.7,1.768,6.261,2.49c1.182,1.533,3.506,5.342,2.93,6.759s-1.367.566-4.317-4.044a13.136,13.136,0,0,0-2.784-2.647" transform="translate(-120.042 -177.236)" fill="#fff" stroke="#263238" stroke-linecap="round" stroke-linejoin="round" stroke-width="1"/>
      <path id="Trazado_141" data-name="Trazado 141" d="M152.977,246.6s-13.322,2.549-20.833,8.224-12.179,35.883-12.97,43.189-1.621,14.191,2.022,15.627,30.824,2.637,36.293,2.637,20.686,2.012,21.9,2.012,8.312,4.464,9.532,5.684,1.4-1.055.811-3.252c-.791-2.93-4.883-7.5-9.933-9.122s-13.586-.811-19.065-3.848-18.645-9.972-20.676-10.353a17.3,17.3,0,0,0-2.637-.4s10.548-23.518,11.554-26.966" transform="translate(-118.49 -175.634)" fill="#fff" stroke="#263238" stroke-linecap="round" stroke-linejoin="round" stroke-width="1"/>
      <path id="Trazado_142" data-name="Trazado 142" d="M185.62,319.16s4.883,3.448,4.883,6.495" transform="translate(-120.056 -177.325)" fill="none" stroke="#263238" stroke-linecap="round" stroke-linejoin="round" stroke-width="1"/>
      <path id="Trazado_143" data-name="Trazado 143" d="M214.73,298.988a17.4,17.4,0,0,0-12.853,1.778c-6.319,3.76-9.884,7.315-13.674,8.3s-10.079.4-14.826,2.373A98.1,98.1,0,0,1,163.3,314.8c-2.373.791-2.178,2.569-.4,2.569s4.151-.2,4.151-.2-3.155,4.942-3.155,6.524,4.737,1.778,6.514,1.377,4.747-4.151,5.733-4.542,4.747.2,7.511-1.778,3.956-2.93,3.956-2.93,11.271,3.555,19.534,1.582,11.163-3.848,13.537-12.345" transform="translate(-119.494 -176.843)" fill="#fff" stroke="#263238" stroke-linecap="round" stroke-linejoin="round" stroke-width="1"/>
      <path id="Trazado_144" data-name="Trazado 144" d="M167.22,317.55a15.792,15.792,0,0,1,3.956-3.36" transform="translate(-119.626 -177.21)" fill="none" stroke="#263238" stroke-linecap="round" stroke-linejoin="round" stroke-width="1"/>
      <path id="Trazado_145" data-name="Trazado 145" d="M165.4,324.684s3.565-6.72,8.3-9.484" transform="translate(-119.584 -177.233)" fill="none" stroke="#263238" stroke-linecap="round" stroke-linejoin="round" stroke-width="1"/>
      <path id="Trazado_146" data-name="Trazado 146" d="M168.22,325.22s1.436-5.46,7.921-8.79" transform="translate(-119.65 -177.262)" fill="none" stroke="#263238" stroke-linecap="round" stroke-linejoin="round" stroke-width="1"/>
      <path id="Trazado_147" data-name="Trazado 147" d="M170.66,325.54a10.607,10.607,0,0,1,7.169-7.54" transform="translate(-119.707 -177.298)" fill="none" stroke="#263238" stroke-linecap="round" stroke-linejoin="round" stroke-width="1"/>
      <path id="Trazado_148" data-name="Trazado 148" d="M209.223,331.475s-8.79-4.082-17.268,3.76-8.4,11.72-19.69,27.767-27.621,45.5-31.068,47.7-14.435,6.583-16.6,13.175.977,8.478,5.645,6.593,12.55-15.383,13.81-16.32,27.933-22.278,42.056-30.443,21.262-15.832,26.908-29.955S214.243,332.412,209.223,331.475Z" transform="translate(-118.616 -177.588)" fill="#fff" stroke="#263238" stroke-linecap="round" stroke-linejoin="round" stroke-width="1"/>
      <path id="Trazado_149" data-name="Trazado 149" d="M143.8,416.295a8.311,8.311,0,0,1-3.477-3.155c-4.122,2.324-13.674,6.554-15.764,12.7-2.2,6.593.977,8.478,5.645,6.593C134.74,430.584,142.046,418.238,143.8,416.295Z" transform="translate(-118.615 -179.517)" fill="#263238" stroke="#263238" stroke-linecap="round" stroke-linejoin="round" stroke-width="1"/>
      <path id="Trazado_150" data-name="Trazado 150" d="M146.124,421.534s15.822-25.745,25.863-41.753,14.758-25.726,14.758-33.578c0,0,.41-11.554-8.79-11.613-5.655,0-16.32,3.457-24.163,18.557s-13.5,64.334-14.435,67.157-.977,20.4,1.563,24.485,6.905,1.25,7.218-7.54a48.5,48.5,0,0,0-2.012-15.715Z" transform="translate(-118.963 -177.685)" fill="#fff" stroke="#263238" stroke-linecap="round" stroke-linejoin="round" stroke-width="1"/>
      <path id="Trazado_151" data-name="Trazado 151" d="M139.131,423.39c-.7,4.727-.5,19.7,1.787,23.44,2.52,4.073,6.905,1.25,7.218-7.54a48.5,48.5,0,0,0-2.012-15.676S142.54,427.941,139.131,423.39Z" transform="translate(-118.963 -179.756)" fill="#263238" stroke="#263238" stroke-linecap="round" stroke-linejoin="round" stroke-width="1"/>
    </g>
  </g>
</svg>
