<svg xmlns="http://www.w3.org/2000/svg" width="449.672" height="429.587" viewBox="0 0 449.672 429.587">
  <g id="home_remodel" data-name="House restyling-bro" transform="translate(-9.2 -24.89)">
    <g id="freepik--background-simple--inject-73" transform="translate(13.568 31.876)">
      <path id="Trazado_154" data-name="Trazado 154" d="M364.021,68.982s-60.9-50.915-137.9-32.734S94.517,126.033,48.839,182.738,2.5,313.618,45.295,363.027,134.116,379,205.719,402.476s87.914,41.544,158.058,18.612S470.93,297.522,443.929,203.416,364.021,68.982,364.021,68.982Z" transform="translate(-13.87 -32.325)" fill="#2d1674"/>
      <path id="Trazado_155" data-name="Trazado 155" d="M364.021,68.982s-60.9-50.915-137.9-32.734S94.517,126.033,48.839,182.738,2.5,313.618,45.295,363.027,134.116,379,205.719,402.476s87.914,41.544,158.058,18.612S470.93,297.522,443.929,203.416,364.021,68.982,364.021,68.982Z" transform="translate(-13.87 -32.325)" fill="#fff" opacity="0.7"/>
    </g>
    <g id="freepik--Clouds--inject-73" transform="translate(49.023 67.632)">
      <path id="Trazado_156" data-name="Trazado 156" d="M452.7,208.543c-1.786-.935-2.6-.159-3.245-.935s1.786-2.918-3.077-5.032c0,0-.327-4.536-6.977-4.676s-4.863,4.536-6.64,5.668-2.273-.645-4.059.486-.935,3.4-2.432,3.741-3.4-1.459-5.191-.327-1.777,2.114-2.591,2.114-2.432-.645-3.4,0-2.1,1.459-2.1,1.459H454a2.1,2.1,0,0,0-1.3-2.5Z" transform="translate(-75.165 -78.801)" fill="none" stroke="#92989b" stroke-linecap="round" stroke-linejoin="round" stroke-width="0.984"/>
      <path id="Trazado_157" data-name="Trazado 157" d="M429.45,208.57a4.806,4.806,0,0,1-.72.337" transform="translate(-76.185 -79.492)" fill="none" stroke="#92989b" stroke-linecap="round" stroke-linejoin="round" stroke-width="0.984"/>
      <path id="Trazado_158" data-name="Trazado 158" d="M438.343,200.47a2.806,2.806,0,0,0-1.59,1.973c-.29,1.487-.991,2.478-1.777,2.572s-3.741-.2-4.255.935a4.275,4.275,0,0,0-.281.991" transform="translate(-76.296 -78.968)" fill="none" stroke="#92989b" stroke-linecap="round" stroke-linejoin="round" stroke-width="0.984"/>
      <line id="Línea_11" data-name="Línea 11" x2="2.843" transform="translate(349.16 128.713)" fill="none" stroke="#92989b" stroke-linecap="round" stroke-linejoin="round" stroke-width="0.984"/>
      <path id="Trazado_159" data-name="Trazado 159" d="M444.331,205.3H463.5s1.543-4.62-4.106-7.7-8.221-.514-10.288-3.086,5.612-9.25-9.755-15.9c0,0-1.029-14.384-22.091-14.9S401.851,178.1,396.2,181.7s-7.192-2.058-12.841,1.543-3.086,10.784-7.706,11.812-10.821-4.648-16.432-1.057-5.612,6.678-8.221,6.678-7.707-2.058-10.784,0-6.678,4.62-6.678,4.62h82.415" transform="translate(-70.022 -76.587)" fill="none" stroke="#92989b" stroke-linecap="round" stroke-linejoin="round" stroke-width="0.984"/>
      <path id="Trazado_160" data-name="Trazado 160" d="M385.721,197.69a17.273,17.273,0,0,1-2.291,1.085" transform="translate(-73.252 -78.788)" fill="none" stroke="#92989b" stroke-linecap="round" stroke-linejoin="round" stroke-width="0.984"/>
      <path id="Trazado_161" data-name="Trazado 161" d="M388.86,192.42a13.86,13.86,0,0,1,.879-3.142c1.571-3.451,10.971-2.506,13.477-2.806s4.676-3.451,5.612-8.146a8.773,8.773,0,0,1,5.013-6.276" transform="translate(-73.604 -77.128)" fill="none" stroke="#92989b" stroke-linecap="round" stroke-linejoin="round" stroke-width="0.984"/>
      <path id="Trazado_162" data-name="Trazado 162" d="M141.177,104.236c-1.337-.73-1.945-.122-2.432-.73s1.337-2.188-2.31-3.741c0,0-.243-3.4-5.228-3.535s-3.648,3.414-4.985,4.265-1.712-.486-3.049.365-.729,2.553-1.824,2.806-2.553-1.094-3.891-.243S116.122,105,115.514,105s-1.871-.486-2.553,0-1.581,1.094-1.581,1.094h30.77A1.571,1.571,0,0,0,141.177,104.236Z" transform="translate(-55.639 -72.219)" fill="none" stroke="#92989b" stroke-linecap="round" stroke-linejoin="round" stroke-width="0.984"/>
      <path id="Trazado_163" data-name="Trazado 163" d="M123.742,104.25a6.011,6.011,0,0,1-.542.262" transform="translate(-56.404 -72.738)" fill="none" stroke="#92989b" stroke-linecap="round" stroke-linejoin="round" stroke-width="0.984"/>
      <path id="Trazado_164" data-name="Trazado 164" d="M130.41,98.18a2.067,2.067,0,0,0-1.188,1.487c-.224,1.113-.748,1.871-1.337,1.927s-2.806-.15-3.189.664a3.339,3.339,0,0,0-.215.748" transform="translate(-56.487 -72.345)" fill="none" stroke="#92989b" stroke-linecap="round" stroke-linejoin="round" stroke-width="0.984"/>
      <line id="Línea_12" data-name="Línea 12" x2="2.142" transform="translate(64.252 31.25)" fill="none" stroke="#92989b" stroke-linecap="round" stroke-linejoin="round" stroke-width="0.984"/>
      <path id="Trazado_165" data-name="Trazado 165" d="M134.887,101.835h14.366s1.15-3.47-3.086-5.78-6.163-.393-7.707-2.31,4.237-6.94-7.323-11.953c0,0-.767-10.784-16.563-11.223s-11.541,10.812-15.825,13.5-5.387-1.534-9.633,1.16-2.31,8.09-5.78,8.866-8.053-3.479-12.289-.767-4.237,5.013-6.163,5.013-5.78-1.543-8.1,0-5,3.5-5,3.5H113.6" transform="translate(-51.78 -70.557)" fill="none" stroke="#92989b" stroke-linecap="round" stroke-linejoin="round" stroke-width="0.984"/>
      <path id="Trazado_166" data-name="Trazado 166" d="M90.941,96.09a12.571,12.571,0,0,1-1.721.814" transform="translate(-54.204 -72.21)" fill="none" stroke="#92989b" stroke-linecap="round" stroke-linejoin="round" stroke-width="0.984"/>
      <path id="Trazado_167" data-name="Trazado 167" d="M93.29,92.143a9.942,9.942,0,0,1,.664-2.357c1.169-2.591,8.23-1.871,10.11-2.123s3.526-2.581,4.227-6.107a6.6,6.6,0,0,1,3.741-4.676" transform="translate(-54.467 -70.966)" fill="none" stroke="#92989b" stroke-linecap="round" stroke-linejoin="round" stroke-width="0.984"/>
    </g>
    <g id="freepik--House2--inject-73" transform="translate(69.646 143.945)">
      <path id="Trazado_168" data-name="Trazado 168" d="M90.093,270.241s13.094,1.3,19.781,9.437a25.368,25.368,0,0,1,19.64-9.231,25.514,25.514,0,1,0-39.43-.187Z" transform="translate(-74.512 -157.104)" fill="#2d1674"/>
      <path id="Trazado_169" data-name="Trazado 169" d="M90.093,270.241s13.094,1.3,19.781,9.437a25.368,25.368,0,0,1,19.64-9.231,25.514,25.514,0,1,0-39.43-.187Z" transform="translate(-74.512 -157.104)" fill="#fff" opacity="0.2"/>
      <path id="Trazado_170" data-name="Trazado 170" d="M112.448,306.536l-1.3-65.636-.318,66.31Z" transform="translate(-76.225 -157.898)" fill="#828282"/>
      <path id="Trazado_171" data-name="Trazado 171" d="M111.865,279.839s4.433-7.978,12.411-10.419c0,0-8.417,2-12.626,8.866Z" transform="translate(-76.279 -159.744)" fill="#828282"/>
      <path id="Trazado_172" data-name="Trazado 172" d="M111.53,256.118s4.76-8.417,12.738-10.858c0,0-8.5,2.319-12.71,9.184Z" transform="translate(-76.271 -158.18)" fill="#828282"/>
      <path id="Trazado_173" data-name="Trazado 173" d="M111.669,268.039s4.676-8.258,12.607-10.7c0,0-8.417,2-12.626,8.866Z" transform="translate(-76.279 -158.962)" fill="#828282"/>
      <path id="Trazado_174" data-name="Trazado 174" d="M110.351,261.839s-4.274-7.978-11.971-10.419c0,0,8.127,1.992,12.158,8.866Z" transform="translate(-75.419 -158.579)" fill="#828282"/>
      <path id="Trazado_175" data-name="Trazado 175" d="M110.351,273.679S106.077,265.7,98.38,263.27c0,0,8.127,1.992,12.158,8.857Z" transform="translate(-75.419 -159.346)" fill="#828282"/>
      <path id="Trazado_176" data-name="Trazado 176" d="M433.373,302.052s13.094,1.291,19.771,9.427a25.422,25.422,0,0,1,19.64-9.231,25.5,25.5,0,1,0-39.44-.178Z" transform="translate(-96.736 -159.165)" fill="#2d1674"/>
      <path id="Trazado_177" data-name="Trazado 177" d="M433.373,302.052s13.094,1.291,19.771,9.427a25.422,25.422,0,0,1,19.64-9.231,25.5,25.5,0,1,0-39.44-.178Z" transform="translate(-96.736 -159.165)" fill="#fff" opacity="0.2"/>
      <path id="Trazado_178" data-name="Trazado 178" d="M455.728,338.336l-1.3-65.636-.318,66.31Z" transform="translate(-98.45 -159.956)" fill="#828282"/>
      <path id="Trazado_179" data-name="Trazado 179" d="M455.144,311.639s4.433-7.978,12.411-10.409c0,0-8.417,1.992-12.635,8.857Z" transform="translate(-98.503 -161.804)" fill="#828282"/>
      <path id="Trazado_180" data-name="Trazado 180" d="M454.81,287.919s4.76-8.417,12.738-10.849c0,0-8.5,2.31-12.71,9.175Z" transform="translate(-98.496 -160.239)" fill="#828282"/>
      <path id="Trazado_181" data-name="Trazado 181" d="M455,299.849s4.63-8.268,12.607-10.7c0,0-8.417,1.992-12.635,8.857Z" transform="translate(-98.506 -161.021)" fill="#828282"/>
      <path id="Trazado_182" data-name="Trazado 182" d="M453.631,293.639s-4.274-7.978-11.971-10.409c0,0,8.118,1.992,12.158,8.857Z" transform="translate(-97.644 -160.638)" fill="#828282"/>
      <path id="Trazado_183" data-name="Trazado 183" d="M453.631,305.479s-4.274-7.968-11.971-10.409c0,0,8.118,1.992,12.158,8.866Z" transform="translate(-97.644 -161.405)" fill="#828282"/>
      <path id="Trazado_184" data-name="Trazado 184" d="M104.093,235.977S130.579,238.6,144,255.01c0,0,14.178-19.014,39.646-18.621a51.439,51.439,0,1,0-79.553-.365Z" transform="translate(-75.044 -152.152)" fill="#2d1674"/>
      <path id="Trazado_185" data-name="Trazado 185" d="M104.093,235.977S130.579,238.6,144,255.01c0,0,14.178-19.014,39.646-18.621a51.439,51.439,0,1,0-79.553-.365Z" transform="translate(-75.044 -152.152)" fill="#fff" opacity="0.4"/>
      <path id="Trazado_186" data-name="Trazado 186" d="M149.194,309.193,146.575,176.77l-.645,133.789Z" transform="translate(-78.498 -153.746)" fill="#828282"/>
      <path id="Trazado_187" data-name="Trazado 187" d="M148.029,255.326s8.932-16.086,25.027-21.006c0,0-16.984,4.022-25.476,17.882Z" transform="translate(-78.605 -157.472)" fill="#828282"/>
      <path id="Trazado_188" data-name="Trazado 188" d="M147.34,207.484s9.605-16.984,25.7-21.894c0,0-17.143,4.676-25.635,18.518Z" transform="translate(-78.589 -154.317)" fill="#828282"/>
      <path id="Trazado_189" data-name="Trazado 189" d="M147.617,231.506s9.353-16.657,25.439-21.576c0,0-16.984,4.022-25.476,17.882Z" transform="translate(-78.605 -155.893)" fill="#828282"/>
      <path id="Trazado_190" data-name="Trazado 190" d="M144.968,219.006S136.345,202.919,120.82,198c0,0,16.386,4.022,24.579,17.882Z" transform="translate(-76.872 -155.12)" fill="#828282"/>
      <path id="Trazado_191" data-name="Trazado 191" d="M144.968,242.906s-8.623-16.1-24.148-21.006c0,0,16.386,4.022,24.579,17.873Z" transform="translate(-76.872 -156.668)" fill="#828282"/>
      <rect id="Rectángulo_65" data-name="Rectángulo 65" width="2.076" height="49.812" transform="translate(94.321 85.247)" fill="#fff" stroke="#636363" stroke-miterlimit="10" stroke-width="0.984"/>
      <rect id="Rectángulo_66" data-name="Rectángulo 66" width="2.076" height="49.812" transform="translate(345.475 105.308)" fill="#fff" stroke="#636363" stroke-miterlimit="10" stroke-width="0.984"/>
      <rect id="Rectángulo_67" data-name="Rectángulo 67" width="160.518" height="65.038" transform="translate(182.88 108.077)" fill="#fff" stroke="#636363" stroke-miterlimit="10" stroke-width="0.984"/>
      <rect id="Rectángulo_68" data-name="Rectángulo 68" width="160.518" height="6.229" transform="translate(182.88 108.077)" fill="#636363" stroke="#636363" stroke-miterlimit="10" stroke-width="0.984"/>
      <path id="Trazado_192" data-name="Trazado 192" d="M436.857,258.965H270.11V218.15H411.259Z" transform="translate(-86.538 -156.425)" fill="#636363" stroke="#636363" stroke-miterlimit="10" stroke-width="0.984"/>
      <rect id="Rectángulo_69" data-name="Rectángulo 69" width="168.122" height="7.613" transform="translate(182.188 102.54)" fill="#fff" stroke="#636363" stroke-miterlimit="10" stroke-width="0.984"/>
      <rect id="Rectángulo_70" data-name="Rectángulo 70" width="112.493" height="54.413" transform="translate(98.885 86.659)" fill="#fff" stroke="#636363" stroke-miterlimit="10" stroke-width="0.984"/>
      <rect id="Rectángulo_71" data-name="Rectángulo 71" width="112.493" height="5.509" transform="translate(98.885 86.659)" fill="#636363" stroke="#636363" stroke-miterlimit="10" stroke-width="0.984"/>
      <path id="Trazado_193" data-name="Trazado 193" d="M234.072,185.51,172.85,231.553H295.285Z" transform="translate(-80.241 -154.312)" fill="#fff" stroke="#636363" stroke-miterlimit="10" stroke-width="0.984"/>
      <path id="Trazado_194" data-name="Trazado 194" d="M234.939,192.22l-48.7,36.625h97.388Z" transform="translate(-81.108 -154.746)" fill="#636363" stroke="#636363" stroke-miterlimit="10" stroke-width="0.984"/>
      <rect id="Rectángulo_72" data-name="Rectángulo 72" width="7.323" height="85.08" transform="translate(9.418 163.051)" fill="#fff" stroke="#636363" stroke-miterlimit="10" stroke-width="0.984"/>
      <rect id="Rectángulo_73" data-name="Rectángulo 73" width="339.049" height="84.828" transform="translate(27.207 163.051)" fill="#fff" stroke="#636363" stroke-miterlimit="10" stroke-width="0.984"/>
      <rect id="Rectángulo_74" data-name="Rectángulo 74" width="339.049" height="9.371" transform="translate(27.207 163.051)" fill="#636363" stroke="#636363" stroke-miterlimit="10" stroke-width="0.984"/>
      <path id="Trazado_195" data-name="Trazado 195" d="M303.529,321.952H73.83L93.19,296.84H303.529Z" transform="translate(-73.83 -161.519)" fill="#636363" stroke="#636363" stroke-miterlimit="10" stroke-width="0.984"/>
      <rect id="Rectángulo_75" data-name="Rectángulo 75" width="186.79" height="5.228" transform="translate(0 160.432)" fill="#fff" stroke="#636363" stroke-miterlimit="10" stroke-width="0.984"/>
      <rect id="Rectángulo_76" data-name="Rectángulo 76" width="189.408" height="87.447" transform="translate(176.848 160.432)" fill="#fff" stroke="#636363" stroke-miterlimit="10" stroke-width="0.984"/>
      <rect id="Rectángulo_77" data-name="Rectángulo 77" width="179.672" height="82.377" transform="translate(181.72 165.501)" fill="#636363" stroke="#636363" stroke-miterlimit="10" stroke-width="0.984"/>
      <rect id="Rectángulo_78" data-name="Rectángulo 78" width="149.641" height="70.705" transform="translate(196.731 177.173)" fill="#fff" stroke="#636363" stroke-miterlimit="10" stroke-width="0.984"/>
      <rect id="Rectángulo_79" data-name="Rectángulo 79" width="33.791" height="13.327" transform="translate(200.631 199.358)" fill="none" stroke="#a6a6a6" stroke-linecap="round" stroke-linejoin="round" stroke-width="0.984"/>
      <rect id="Rectángulo_80" data-name="Rectángulo 80" width="33.791" height="13.327" transform="translate(236.704 199.358)" fill="none" stroke="#a6a6a6" stroke-linecap="round" stroke-linejoin="round" stroke-width="0.984"/>
      <rect id="Rectángulo_81" data-name="Rectángulo 81" width="33.791" height="13.327" transform="translate(200.631 215.276)" fill="none" stroke="#a6a6a6" stroke-linecap="round" stroke-linejoin="round" stroke-width="0.984"/>
      <rect id="Rectángulo_82" data-name="Rectángulo 82" width="33.791" height="13.327" transform="translate(236.704 215.276)" fill="none" stroke="#a6a6a6" stroke-linecap="round" stroke-linejoin="round" stroke-width="0.984"/>
      <rect id="Rectángulo_83" data-name="Rectángulo 83" width="33.791" height="13.327" transform="translate(200.631 231.203)" fill="none" stroke="#a6a6a6" stroke-linecap="round" stroke-linejoin="round" stroke-width="0.984"/>
      <rect id="Rectángulo_84" data-name="Rectángulo 84" width="33.791" height="13.327" transform="translate(236.704 231.203)" fill="none" stroke="#a6a6a6" stroke-linecap="round" stroke-linejoin="round" stroke-width="0.984"/>
      <rect id="Rectángulo_85" data-name="Rectángulo 85" width="33.791" height="13.327" transform="translate(272.777 199.358)" fill="none" stroke="#a6a6a6" stroke-linecap="round" stroke-linejoin="round" stroke-width="0.984"/>
      <rect id="Rectángulo_86" data-name="Rectángulo 86" width="33.791" height="13.327" transform="translate(308.85 199.358)" fill="none" stroke="#a6a6a6" stroke-linecap="round" stroke-linejoin="round" stroke-width="0.984"/>
      <rect id="Rectángulo_87" data-name="Rectángulo 87" width="33.791" height="13.327" transform="translate(272.777 215.276)" fill="none" stroke="#a6a6a6" stroke-linecap="round" stroke-linejoin="round" stroke-width="0.984"/>
      <rect id="Rectángulo_88" data-name="Rectángulo 88" width="33.791" height="13.327" transform="translate(308.85 215.276)" fill="none" stroke="#a6a6a6" stroke-linecap="round" stroke-linejoin="round" stroke-width="0.984"/>
      <rect id="Rectángulo_89" data-name="Rectángulo 89" width="33.791" height="13.327" transform="translate(272.777 231.203)" fill="none" stroke="#a6a6a6" stroke-linecap="round" stroke-linejoin="round" stroke-width="0.984"/>
      <rect id="Rectángulo_90" data-name="Rectángulo 90" width="33.791" height="13.327" transform="translate(308.85 231.203)" fill="none" stroke="#a6a6a6" stroke-linecap="round" stroke-linejoin="round" stroke-width="0.984"/>
      <path id="Trazado_196" data-name="Trazado 196" d="M355.022,233.58,255.09,318.9H454.964Z" transform="translate(-85.565 -157.424)" fill="#fff" stroke="#636363" stroke-miterlimit="10" stroke-width="0.984"/>
      <path id="Trazado_197" data-name="Trazado 197" d="M356.438,246.02,276.95,313.892H435.934Z" transform="translate(-86.981 -158.229)" fill="#636363" stroke="#636363" stroke-miterlimit="10" stroke-width="0.984"/>
      <rect id="Rectángulo_91" data-name="Rectángulo 91" width="124.006" height="9.942" transform="translate(92.609 77.241)" fill="#fff" stroke="#636363" stroke-miterlimit="10" stroke-width="0.984"/>
      <rect id="Rectángulo_92" data-name="Rectángulo 92" width="73.249" height="42.377" transform="translate(118.245 89.802)" fill="#636363" stroke="#636363" stroke-miterlimit="10" stroke-width="0.984"/>
      <rect id="Rectángulo_93" data-name="Rectángulo 93" width="52.318" height="42.377" transform="translate(128.71 89.802)" fill="#fff" stroke="#636363" stroke-miterlimit="10" stroke-width="0.984"/>
      <rect id="Rectángulo_94" data-name="Rectángulo 94" width="4.19" height="42.377" transform="translate(152.784 89.802)" fill="#636363" stroke="#636363" stroke-miterlimit="10" stroke-width="0.984"/>
      <rect id="Rectángulo_95" data-name="Rectángulo 95" width="3.666" height="51.795" transform="translate(180.776 109.152) rotate(90)" fill="#636363" stroke="#636363" stroke-miterlimit="10" stroke-width="0.984"/>
      <rect id="Rectángulo_96" data-name="Rectángulo 96" width="73.249" height="52.318" transform="translate(42.9 181.887)" fill="#636363" stroke="#636363" stroke-miterlimit="10" stroke-width="0.984"/>
      <rect id="Rectángulo_97" data-name="Rectángulo 97" width="52.318" height="52.318" transform="translate(53.366 181.887)" fill="#fff" stroke="#636363" stroke-miterlimit="10" stroke-width="0.984"/>
      <rect id="Rectángulo_98" data-name="Rectángulo 98" width="4.19" height="52.318" transform="translate(77.439 181.887)" fill="#636363" stroke="#636363" stroke-miterlimit="10" stroke-width="0.984"/>
      <rect id="Rectángulo_99" data-name="Rectángulo 99" width="4.517" height="51.963" transform="translate(105.591 205.792) rotate(90)" fill="#636363" stroke="#636363" stroke-miterlimit="10" stroke-width="0.984"/>
      <rect id="Rectángulo_100" data-name="Rectángulo 100" width="28.254" height="64.355" transform="translate(139.699 182.935)" fill="#636363" stroke="#636363" stroke-miterlimit="10" stroke-width="0.984"/>
      <rect id="Rectángulo_101" data-name="Rectángulo 101" width="18.836" height="49.868" transform="translate(144.413 186.947)" fill="#fff"/>
      <rect id="Rectángulo_102" data-name="Rectángulo 102" width="4.929" height="2.778" transform="translate(200.248 184.506)" fill="#636363"/>
      <rect id="Rectángulo_103" data-name="Rectángulo 103" width="4.929" height="2.778" transform="translate(207.356 184.506)" fill="#636363"/>
      <rect id="Rectángulo_104" data-name="Rectángulo 104" width="4.929" height="3.479" transform="translate(200.248 188.799)" fill="#636363"/>
      <rect id="Rectángulo_105" data-name="Rectángulo 105" width="4.929" height="3.479" transform="translate(207.356 188.799)" fill="#636363"/>
      <rect id="Rectángulo_106" data-name="Rectángulo 106" width="4.929" height="2.778" transform="translate(218.813 184.506)" fill="#636363"/>
      <rect id="Rectángulo_107" data-name="Rectángulo 107" width="4.929" height="2.778" transform="translate(225.921 184.506)" fill="#636363"/>
      <rect id="Rectángulo_108" data-name="Rectángulo 108" width="4.929" height="3.479" transform="translate(218.813 188.799)" fill="#636363"/>
      <rect id="Rectángulo_109" data-name="Rectángulo 109" width="4.929" height="3.479" transform="translate(225.921 188.799)" fill="#636363"/>
      <rect id="Rectángulo_110" data-name="Rectángulo 110" width="4.929" height="2.778" transform="translate(237.378 184.506)" fill="#636363"/>
      <rect id="Rectángulo_111" data-name="Rectángulo 111" width="4.929" height="2.778" transform="translate(244.476 184.506)" fill="#636363"/>
      <rect id="Rectángulo_112" data-name="Rectángulo 112" width="4.929" height="3.479" transform="translate(237.378 188.799)" fill="#636363"/>
      <rect id="Rectángulo_113" data-name="Rectángulo 113" width="4.929" height="3.479" transform="translate(244.476 188.799)" fill="#636363"/>
      <rect id="Rectángulo_114" data-name="Rectángulo 114" width="4.929" height="2.778" transform="translate(255.933 184.506)" fill="#636363"/>
      <rect id="Rectángulo_115" data-name="Rectángulo 115" width="4.929" height="2.778" transform="translate(263.041 184.506)" fill="#636363"/>
      <rect id="Rectángulo_116" data-name="Rectángulo 116" width="4.929" height="3.479" transform="translate(255.933 188.799)" fill="#636363"/>
      <rect id="Rectángulo_117" data-name="Rectángulo 117" width="4.929" height="3.479" transform="translate(263.041 188.799)" fill="#636363"/>
      <rect id="Rectángulo_118" data-name="Rectángulo 118" width="4.929" height="2.778" transform="translate(274.498 184.506)" fill="#636363"/>
      <rect id="Rectángulo_119" data-name="Rectángulo 119" width="4.929" height="2.778" transform="translate(281.606 184.506)" fill="#636363"/>
      <rect id="Rectángulo_120" data-name="Rectángulo 120" width="4.929" height="3.479" transform="translate(274.498 188.799)" fill="#636363"/>
      <rect id="Rectángulo_121" data-name="Rectángulo 121" width="4.929" height="3.479" transform="translate(281.606 188.799)" fill="#636363"/>
      <rect id="Rectángulo_122" data-name="Rectángulo 122" width="4.929" height="2.778" transform="translate(293.063 184.506)" fill="#636363"/>
      <rect id="Rectángulo_123" data-name="Rectángulo 123" width="4.929" height="2.778" transform="translate(300.171 184.506)" fill="#636363"/>
      <rect id="Rectángulo_124" data-name="Rectángulo 124" width="4.929" height="3.479" transform="translate(293.063 188.799)" fill="#636363"/>
      <rect id="Rectángulo_125" data-name="Rectángulo 125" width="4.929" height="3.479" transform="translate(300.171 188.799)" fill="#636363"/>
      <rect id="Rectángulo_126" data-name="Rectángulo 126" width="4.929" height="2.778" transform="translate(311.628 184.506)" fill="#636363"/>
      <rect id="Rectángulo_127" data-name="Rectángulo 127" width="4.929" height="2.778" transform="translate(318.726 184.506)" fill="#636363"/>
      <rect id="Rectángulo_128" data-name="Rectángulo 128" width="4.929" height="3.479" transform="translate(311.628 188.799)" fill="#636363"/>
      <rect id="Rectángulo_129" data-name="Rectángulo 129" width="4.929" height="3.479" transform="translate(318.726 188.799)" fill="#636363"/>
      <rect id="Rectángulo_130" data-name="Rectángulo 130" width="4.929" height="2.778" transform="translate(330.183 184.506)" fill="#636363"/>
      <rect id="Rectángulo_131" data-name="Rectángulo 131" width="4.929" height="2.778" transform="translate(337.291 184.506)" fill="#636363"/>
      <rect id="Rectángulo_132" data-name="Rectángulo 132" width="4.929" height="3.479" transform="translate(330.183 188.799)" fill="#636363"/>
      <rect id="Rectángulo_133" data-name="Rectángulo 133" width="4.929" height="3.479" transform="translate(337.291 188.799)" fill="#636363"/>
    </g>
    <g id="freepik--house-1--inject-73" transform="translate(126.107 25.39)">
      <rect id="Rectángulo_134" data-name="Rectángulo 134" width="246.721" height="137.071" rx="15.25" fill="#fff" stroke="#263238" stroke-miterlimit="10" stroke-width="1"/>
      <path id="Trazado_198" data-name="Trazado 198" d="M149.893,90.058s8.857.879,13.337,6.369A17.134,17.134,0,0,1,176.492,90.2a17.209,17.209,0,1,0-26.608-.14Z" transform="translate(-134.966 -27.761)" fill="#2d1674"/>
      <path id="Trazado_199" data-name="Trazado 199" d="M149.893,90.058s8.857.879,13.337,6.369A17.134,17.134,0,0,1,176.492,90.2a17.209,17.209,0,1,0-26.608-.14Z" transform="translate(-134.966 -27.761)" fill="#fff" opacity="0.2"/>
      <path id="Trazado_200" data-name="Trazado 200" d="M164.974,114.534,164.1,70.25l-.215,44.743Z" transform="translate(-136.122 -28.294)" fill="#828282"/>
      <path id="Trazado_201" data-name="Trazado 201" d="M164.58,96.514s2.993-5.387,8.371-7.024c0,0-5.677,1.337-8.52,5.976Z" transform="translate(-136.157 -29.54)" fill="#828282"/>
      <path id="Trazado_202" data-name="Trazado 202" d="M164.35,80.493s3.217-5.686,8.6-7.323c0,0-5.733,1.553-8.576,6.191Z" transform="translate(-136.152 -28.483)" fill="#828282"/>
      <path id="Trazado_203" data-name="Trazado 203" d="M164.449,88.561s3.124-5.612,8.5-7.211c0,0-5.677,1.337-8.52,5.976Z" transform="translate(-136.157 -29.013)" fill="#828282"/>
      <path id="Trazado_204" data-name="Trazado 204" d="M163.561,84.374S160.671,79,155.48,77.35c0,0,5.481,1.347,8.221,5.976Z" transform="translate(-135.578 -28.754)" fill="#828282"/>
      <path id="Trazado_205" data-name="Trazado 205" d="M163.561,92.364s-2.89-5.378-8.081-7.024c0,0,5.481,1.347,8.221,5.976Z" transform="translate(-135.578 -29.271)" fill="#828282"/>
      <path id="Trazado_206" data-name="Trazado 206" d="M356.453,71.358s8.857.879,13.346,6.369A17.124,17.124,0,0,1,383.051,71.5a17.209,17.209,0,1,0-26.6-.122Z" transform="translate(-148.339 -26.55)" fill="#2d1674"/>
      <path id="Trazado_207" data-name="Trazado 207" d="M356.453,71.358s8.857.879,13.346,6.369A17.124,17.124,0,0,1,383.051,71.5a17.209,17.209,0,1,0-26.6-.122Z" transform="translate(-148.339 -26.55)" fill="#fff" opacity="0.2"/>
      <path id="Trazado_208" data-name="Trazado 208" d="M371.534,95.844l-.879-44.284L370.44,96.3Z" transform="translate(-149.495 -27.084)" fill="#828282"/>
      <path id="Trazado_209" data-name="Trazado 209" d="M371.143,77.834s2.993-5.378,8.417-7.024c0,0-5.677,1.347-8.52,5.976Z" transform="translate(-149.534 -28.331)" fill="#828282"/>
      <path id="Trazado_210" data-name="Trazado 210" d="M370.91,61.833s3.217-5.686,8.6-7.323c0,0-5.733,1.553-8.567,6.191Z" transform="translate(-149.525 -27.275)" fill="#828282"/>
      <path id="Trazado_211" data-name="Trazado 211" d="M371,69.871s3.124-5.612,8.5-7.211c0,0-5.677,1.347-8.52,5.976Z" transform="translate(-149.53 -27.803)" fill="#828282"/>
      <path id="Trazado_212" data-name="Trazado 212" d="M370.121,65.684s-2.881-5.378-8.081-7.024c0,0,5.481,1.347,8.221,5.976Z" transform="translate(-148.951 -27.544)" fill="#828282"/>
      <path id="Trazado_213" data-name="Trazado 213" d="M370.121,73.674S367.24,68.3,362.04,66.65c0,0,5.481,1.347,8.221,5.986Z" transform="translate(-148.951 -28.061)" fill="#828282"/>
      <path id="Trazado_214" data-name="Trazado 214" d="M160.415,67.71s12.084,1.2,18.209,8.689a23.382,23.382,0,0,1,18.1-8.5,23.484,23.484,0,1,0-36.307-.159Z" transform="translate(-135.556 -25.652)" fill="#2d1674"/>
      <path id="Trazado_215" data-name="Trazado 215" d="M160.415,67.71s12.084,1.2,18.209,8.689a23.382,23.382,0,0,1,18.1-8.5,23.484,23.484,0,1,0-36.307-.159Z" transform="translate(-135.556 -25.652)" fill="#fff" opacity="0.4"/>
      <path id="Trazado_216" data-name="Trazado 216" d="M181,101.127,179.809,40.7l-.3,61.044Z" transform="translate(-137.133 -26.381)" fill="#828282"/>
      <path id="Trazado_217" data-name="Trazado 217" d="M180.466,76.546s4.078-7.342,11.419-9.586c0,0-7.744,1.871-11.625,8.155Z" transform="translate(-137.182 -28.081)" fill="#828282"/>
      <path id="Trazado_218" data-name="Trazado 218" d="M180.15,54.709s4.386-7.744,11.728-9.989c0,0-7.819,2.123-11.7,8.417Z" transform="translate(-137.175 -26.641)" fill="#828282"/>
      <path id="Trazado_219" data-name="Trazado 219" d="M180.279,65.688s4.265-7.6,11.607-9.848c0,0-7.744,1.871-11.625,8.155Z" transform="translate(-137.182 -27.361)" fill="#828282"/>
      <path id="Trazado_220" data-name="Trazado 220" d="M179.067,59.976s-3.937-7.342-11.017-9.586c0,0,7.482,1.871,11.223,8.155Z" transform="translate(-136.392 -27.009)" fill="#828282"/>
      <path id="Trazado_221" data-name="Trazado 221" d="M179.067,70.876s-3.937-7.342-11.017-9.586c0,0,7.482,1.871,11.223,8.155Z" transform="translate(-136.392 -27.714)" fill="#828282"/>
      <line id="Línea_13" data-name="Línea 13" x2="227.772" transform="translate(12.336 116.982)" fill="none" stroke="#263238" stroke-miterlimit="10" stroke-width="0.984"/>
      <rect id="Rectángulo_135" data-name="Rectángulo 135" width="93.105" height="32.659" transform="translate(26.187 84.276)" fill="#2d1674" stroke="#263238" stroke-miterlimit="10" stroke-width="0.984"/>
      <rect id="Rectángulo_136" data-name="Rectángulo 136" width="82.602" height="32.659" transform="translate(31.434 84.276)" fill="#fff" stroke="#263238" stroke-miterlimit="10" stroke-width="0.984"/>
      <line id="Línea_14" data-name="Línea 14" y2="27.281" transform="translate(47.717 89.607)" fill="#fff" stroke="#263238" stroke-miterlimit="10" stroke-width="0.984"/>
      <line id="Línea_15" data-name="Línea 15" y2="27.281" transform="translate(80.301 89.607)" fill="#fff" stroke="#263238" stroke-miterlimit="10" stroke-width="0.984"/>
      <line id="Línea_16" data-name="Línea 16" y2="27.281" transform="translate(92.516 89.607)" fill="#fff" stroke="#263238" stroke-miterlimit="10" stroke-width="0.984"/>
      <line id="Línea_17" data-name="Línea 17" y2="27.281" transform="translate(104.739 89.607)" fill="#fff" stroke="#263238" stroke-miterlimit="10" stroke-width="0.984"/>
      <line id="Línea_18" data-name="Línea 18" x2="82.714" transform="translate(31.425 95.967)" fill="#fff" stroke="#263238" stroke-miterlimit="10" stroke-width="0.984"/>
      <line id="Línea_19" data-name="Línea 19" x2="82.714" transform="translate(31.425 103.178)" fill="#fff" stroke="#263238" stroke-miterlimit="10" stroke-width="0.984"/>
      <line id="Línea_20" data-name="Línea 20" x2="82.714" transform="translate(31.425 110.688)" fill="#fff" stroke="#263238" stroke-miterlimit="10" stroke-width="0.984"/>
      <rect id="Rectángulo_137" data-name="Rectángulo 137" width="5.808" height="32.659" transform="translate(64.018 84.276)" fill="#2d1674" stroke="#263238" stroke-miterlimit="10" stroke-width="0.984"/>
      <path id="Trazado_222" data-name="Trazado 222" d="M152.25,118.969H258.14V94.26h-83.78Z" transform="translate(-135.369 -29.849)" fill="#263238" stroke="#263238" stroke-miterlimit="10" stroke-width="0.984"/>
      <path id="Trazado_223" data-name="Trazado 223" d="M188.33,91.738h72.688V70.33H205.782Z" transform="translate(-137.705 -28.3)" fill="#fff" stroke="#263238" stroke-miterlimit="10" stroke-width="0.984"/>
      <rect id="Rectángulo_138" data-name="Rectángulo 138" width="30.835" height="17.443" transform="translate(51.205 51.327)" fill="#2d1674" stroke="#263238" stroke-miterlimit="10" stroke-width="0.984"/>
      <rect id="Rectángulo_139" data-name="Rectángulo 139" width="9.867" height="7.753" transform="translate(53.534 58.594)" fill="#fff" stroke="#263238" stroke-miterlimit="10" stroke-width="0.984"/>
      <rect id="Rectángulo_140" data-name="Rectángulo 140" width="9.867" height="7.753" transform="translate(66.356 58.594)" fill="#fff" stroke="#263238" stroke-miterlimit="10" stroke-width="0.984"/>
      <path id="Trazado_224" data-name="Trazado 224" d="M180.86,84.488h80.292V63.08H200.145Z" transform="translate(-137.221 -27.83)" fill="#263238" stroke="#263238" stroke-miterlimit="10" stroke-width="0.984"/>
      <rect id="Rectángulo_141" data-name="Rectángulo 141" width="30.835" height="17.443" transform="translate(223.433 68.769) rotate(180)" fill="#2d1674" stroke="#263238" stroke-miterlimit="10" stroke-width="0.984"/>
      <rect id="Rectángulo_142" data-name="Rectángulo 142" width="9.867" height="7.753" transform="translate(221.104 66.347) rotate(180)" fill="#fff" stroke="#263238" stroke-miterlimit="10" stroke-width="0.984"/>
      <rect id="Rectángulo_143" data-name="Rectángulo 143" width="9.867" height="7.753" transform="translate(208.272 66.347) rotate(180)" fill="#fff" stroke="#263238" stroke-miterlimit="10" stroke-width="0.984"/>
      <path id="Trazado_225" data-name="Trazado 225" d="M375.622,84.488H295.33V63.08h61.016Z" transform="translate(-144.632 -27.83)" fill="#263238" stroke="#263238" stroke-miterlimit="10" stroke-width="0.984"/>
      <path id="Trazado_226" data-name="Trazado 226" d="M261.209,74.57,217.57,92.013v14.543h43.05Z" transform="translate(-139.598 -28.574)" fill="#263238" stroke="#263238" stroke-miterlimit="10" stroke-width="0.984"/>
      <path id="Trazado_227" data-name="Trazado 227" d="M281.012,66.66,213.627,94.531l-2.5-4.181,67.385-27.88Z" transform="translate(-139.181 -27.791)" fill="#525252" stroke="#263238" stroke-miterlimit="10" stroke-width="0.984"/>
      <path id="Trazado_228" data-name="Trazado 228" d="M371.528,97.237,277.75,72.92V145.4h93.778Z" transform="translate(-143.494 -28.467)" fill="#2d1674" stroke="#263238" stroke-miterlimit="10" stroke-width="0.984"/>
      <path id="Trazado_229" data-name="Trazado 229" d="M353.4,146.672h23.026V98.506L353.4,92.53Z" transform="translate(-148.392 -29.737)" fill="#263238" stroke="#263238" stroke-miterlimit="10" stroke-width="0.984"/>
      <path id="Trazado_230" data-name="Trazado 230" d="M380.729,100.912,323.95,86.051l1.683-4.461,56.779,14.861Z" transform="translate(-146.485 -29.029)" fill="#525252" stroke="#263238" stroke-miterlimit="10" stroke-width="0.984"/>
      <path id="Trazado_231" data-name="Trazado 231" d="M261.75,143.4h62.008V41.92L261.75,66.7Z" transform="translate(-142.458 -26.46)" fill="#fff" stroke="#263238" stroke-miterlimit="10" stroke-width="0.984"/>
      <path id="Trazado_232" data-name="Trazado 232" d="M267.96,109.287h56.2V41.92l-56.2,22.465Z" transform="translate(-142.86 -26.46)" fill="#263238" stroke="#263238" stroke-miterlimit="10" stroke-width="0.984"/>
      <path id="Trazado_233" data-name="Trazado 233" d="M261.75,110.974h34.623v-33.2L261.75,68.42Z" transform="translate(-142.458 -28.176)" fill="#fff" stroke="#263238" stroke-miterlimit="10" stroke-width="0.984"/>
      <path id="Trazado_234" data-name="Trazado 234" d="M285.56,111.39h12.355v-33.2L285.56,74.85Z" transform="translate(-143.999 -28.592)" fill="#2d1674" stroke="#263238" stroke-miterlimit="10" stroke-width="0.984"/>
      <rect id="Rectángulo_144" data-name="Rectángulo 144" width="12.355" height="32.64" transform="translate(141.561 84.201)" fill="#2d1674" stroke="#263238" stroke-miterlimit="10" stroke-width="0.984"/>
      <rect id="Rectángulo_145" data-name="Rectángulo 145" width="75.241" height="4.676" transform="translate(112.362 80.46)" fill="#525252" stroke="#263238" stroke-miterlimit="10" stroke-width="0.984"/>
      <path id="Trazado_235" data-name="Trazado 235" d="M333.272,40.24,265.877,68.111l-2.5-4.19L330.775,36.05Z" transform="translate(-142.563 -26.08)" fill="#525252" stroke="#263238" stroke-miterlimit="10" stroke-width="0.984"/>
      <path id="Trazado_236" data-name="Trazado 236" d="M301.056,80.074,255.5,67.551l1.683-4.461L302.74,75.613Z" transform="translate(-142.053 -27.831)" fill="#525252" stroke="#263238" stroke-miterlimit="10" stroke-width="0.984"/>
      <rect id="Rectángulo_146" data-name="Rectángulo 146" width="12.916" height="21.371" transform="translate(163.455 33.23)" fill="#fff" stroke="#263238" stroke-miterlimit="10" stroke-width="0.984"/>
      <rect id="Rectángulo_147" data-name="Rectángulo 147" width="12.916" height="21.371" transform="translate(163.455 57.219)" fill="#fff" stroke="#263238" stroke-miterlimit="10" stroke-width="0.984"/>
      <rect id="Rectángulo_148" data-name="Rectángulo 148" width="12.355" height="24.317" transform="translate(125.839 52.402)" fill="#fff" stroke="#263238" stroke-miterlimit="10" stroke-width="0.984"/>
      <rect id="Rectángulo_149" data-name="Rectángulo 149" width="12.355" height="18.022" transform="translate(125.839 87.288)" fill="#fff" stroke="#263238" stroke-miterlimit="10" stroke-width="0.984"/>
      <rect id="Rectángulo_150" data-name="Rectángulo 150" width="12.804" height="32.463" transform="translate(209.47 78.459)" fill="#fff" stroke="#263238" stroke-miterlimit="10" stroke-width="0.984"/>
      <rect id="Rectángulo_151" data-name="Rectángulo 151" width="9.867" height="26.655" transform="translate(155.935 87.671)" fill="#fff" stroke="#263238" stroke-miterlimit="10" stroke-width="0.984"/>
      <rect id="Rectángulo_152" data-name="Rectángulo 152" width="9.867" height="26.655" transform="translate(168.758 87.671)" fill="#263238" stroke="#263238" stroke-miterlimit="10" stroke-width="0.984"/>
      <rect id="Rectángulo_153" data-name="Rectángulo 153" width="34.324" height="3.872" transform="translate(82.621 65.374)" fill="#fff" stroke="#263238" stroke-miterlimit="10" stroke-width="0.984"/>
      <rect id="Rectángulo_154" data-name="Rectángulo 154" width="7.501" height="5.237" transform="translate(169.964 88.625)" fill="#fff" stroke="#263238" stroke-miterlimit="10" stroke-width="0.984"/>
      <rect id="Rectángulo_155" data-name="Rectángulo 155" width="7.501" height="5.237" transform="translate(169.964 94.667)" fill="#fff" stroke="#263238" stroke-miterlimit="10" stroke-width="0.984"/>
      <rect id="Rectángulo_156" data-name="Rectángulo 156" width="7.501" height="5.237" transform="translate(169.964 100.718)" fill="#fff" stroke="#263238" stroke-miterlimit="10" stroke-width="0.984"/>
      <rect id="Rectángulo_157" data-name="Rectángulo 157" width="7.501" height="5.237" transform="translate(169.964 106.76)" fill="#fff" stroke="#263238" stroke-miterlimit="10" stroke-width="0.984"/>
      <ellipse id="Elipse_11" data-name="Elipse 11" cx="12.42" cy="6.902" rx="12.42" ry="6.902" transform="translate(32.856 140.223)" fill="#fff" stroke="#263238" stroke-miterlimit="10" stroke-width="1"/>
      <ellipse id="Elipse_12" data-name="Elipse 12" cx="5.976" cy="3.676" rx="5.976" ry="3.676" transform="translate(30.106 157.712)" fill="#fff" stroke="#263238" stroke-miterlimit="10" stroke-width="1"/>
    </g>
    <g id="freepik--Floor--inject-73" transform="translate(9.2 392.076)">
      <line id="Línea_21" data-name="Línea 21" x2="441.75" transform="translate(7.922)" fill="none" stroke="#263238" stroke-miterlimit="10" stroke-width="0.984"/>
      <path id="Trazado_237" data-name="Trazado 237" d="M9.2,435H197.5l-19.322,30.358" transform="translate(-9.2 -418.596)" fill="none" stroke="#263238" stroke-miterlimit="10" stroke-width="0.984"/>
      <path id="Trazado_238" data-name="Trazado 238" d="M26.543,421.08H207.281l-6.706,9.109H14.16" transform="translate(-9.521 -417.694)" fill="#2d1674"/>
      <line id="Línea_22" data-name="Línea 22" x2="20.127" y2="20.127" transform="translate(428.741 4.349)" fill="none" stroke="#263238" stroke-miterlimit="10" stroke-width="0.984"/>
    </g>
    <g id="freepik--Character--inject-73" transform="translate(19.02 170.489)">
      <ellipse id="Elipse_13" data-name="Elipse 13" cx="73.595" cy="8.735" rx="73.595" ry="8.735" transform="translate(0 266.517)" fill="#263238"/>
      <path id="Trazado_239" data-name="Trazado 239" d="M152.656,229.23s1.571-10.2.374-13.094-5.518-4.349-7.669-5.078-7.4-.711-8.417-1.618,1.6-2.123,3.133-2.291,5.462,0,6.341-.206,2.563-4.265,3.32-7.3,2.694-13.655,4.5-15.329,1.871,1.814,1.609,3.741-.73,7.828-.73,7.828,1.786-1.019,2.637-.552a15.453,15.453,0,0,1,2.132,1.6,17.692,17.692,0,0,1,3.741-.075c.645.234,2.647-.776,3.666,1s-.832,4.994-2.02,7.566-3.161,8.838-3.217,10.363,2.048,13.851,2.048,13.851Z" transform="translate(-27.276 -180.75)" fill="#fff" stroke="#263238" stroke-miterlimit="10" stroke-width="0.984"/>
      <path id="Trazado_240" data-name="Trazado 240" d="M108.059,212.937s6.818-4.171,9.25-4.676a17.359,17.359,0,0,1,7.417.243c1.281.514,3.432,1.085,2.432-.505A9.521,9.521,0,0,0,123,204.463c-1.076-.29-4.1-.935-5.733-2.806s-1.609-5.78-1.122-6.622,5.228-10.391,5.368-12.57-1.814-2.507-2.563-1.029-3.489,7-4.2,7.828-3.507.224-4.162.187-3.292.234-3.292.234a3.03,3.03,0,0,0-3.086.458c-1.609,1.216-2.422,3.741-2.525,5.527s0,11.148,0,11.148l-7.23,10.914,8.492,4.022Z" transform="translate(-24.54 -180.533)" fill="#fff" stroke="#263238" stroke-miterlimit="10" stroke-width="0.984"/>
      <path id="Trazado_241" data-name="Trazado 241" d="M93.666,464.968s-1.328,7.725-.795,8.52,17.845,3.741,22.109,3.741,12.252,1.066,13.094-.533,1.328-2.132.262-2.666-10.119-4.527-11.981-6.126a66.156,66.156,0,0,1-5.331-5.855Z" transform="translate(-24.429 -198.759)" fill="#2d1674" stroke="#263238" stroke-miterlimit="10" stroke-width="0.984"/>
      <path id="Trazado_242" data-name="Trazado 242" d="M128.025,477.313l.206-.4c-2.525-.1-6.313-.253-10.6-.393-6.163-.215-19.64-3.489-24.812-4.8a6.108,6.108,0,0,0,0,2.394c.533.8,17.845,3.741,22.109,3.741S127.23,478.912,128.025,477.313Z" transform="translate(-24.426 -199.386)" fill="#fff" stroke="#263238" stroke-miterlimit="10" stroke-width="0.984"/>
      <path id="Trazado_243" data-name="Trazado 243" d="M38.027,463.006a64.621,64.621,0,0,0,3.741,6.126c.8.795,3.2,2.123,3.2,3.189v2.4H23.11a54.03,54.03,0,0,1,1.6-10.952C26.3,456.88,38.027,463.006,38.027,463.006Z" transform="translate(-19.921 -198.659)" fill="#2d1674" stroke="#263238" stroke-miterlimit="10" stroke-width="0.984"/>
      <path id="Trazado_244" data-name="Trazado 244" d="M44.948,473.1a1.057,1.057,0,0,0-.178-.533H23.316c-.206,1.87-.206,2.937-.206,2.937H44.948Z" transform="translate(-19.921 -199.441)" fill="#fff" stroke="#263238" stroke-miterlimit="10" stroke-width="0.984"/>
      <path id="Trazado_245" data-name="Trazado 245" d="M37.848,325.34s.271,10.391.271,20.51v44.743s-7.192,19.182-8.258,28.235S24.53,456.65,24.53,456.65a27.188,27.188,0,0,0,6.659,2.114c2.665.262,6.4-2.132,6.4-2.132s2.123-6.93,3.46-9.858,19.173-51.439,20.239-55.666,1.094-15.955,1.094-15.955l2.132-29.04h3.2l27.4,46.351s-2.665,16.245-2.665,24.5-3.46,41.544-3.46,41.544a66.785,66.785,0,0,0,10.914.8c3.994-.262,8.258-3.994,8.258-3.994v-4.536c0-1.59-.533-2.656-.533-3.741s10.653-53.534,9.6-58.332S96.984,335.2,96.984,335.2l-2.132-6.126Z" transform="translate(-20.013 -189.908)" fill="#263238" stroke="#263238" stroke-miterlimit="10" stroke-width="0.984"/>
      <path id="Trazado_246" data-name="Trazado 246" d="M83.713,220.231l-4.143,7.707L97.751,239.16s2.619-6.958,3.9-8.773a10.559,10.559,0,0,1,2.9-2.806s-4.265-8.1-9.652-10.494S83.713,220.231,83.713,220.231Z" transform="translate(-23.576 -182.861)" fill="#fff" stroke="#263238" stroke-miterlimit="10" stroke-width="0.984"/>
      <path id="Trazado_247" data-name="Trazado 247" d="M109.9,197.342s1.992,5.181,1.459,6.378-1.618,3.1-1.2,3.741,3.479,1.309,3.339,2.684-2.366,3.741-2.366,3.741-.243,9.68-2.506,11.541-4.583,2.263-6.416.486-6.229-5.873-6.229-5.873-5.05,2.806-9.1,1.683S77.891,215.1,75.254,208.63A16.386,16.386,0,0,1,79.8,190.365c4.985-4.227,17.536-5.088,22.586-3.563S111.907,192.263,109.9,197.342Z" transform="translate(-23.226 -180.894)" fill="#fff" stroke="#263238" stroke-miterlimit="10" stroke-width="0.984"/>
      <path id="Trazado_248" data-name="Trazado 248" d="M110.045,214.384c-3.058-.636-4.471,2.553-4.545,5.387s-1.216,3.273-3.161,1.216-1.8-7.239-1.422-9.7,3.442-3.965,4.5-6.36-3.891-6.266-3.891-6.266c-3.947-2.946-10.877,1.375-15.1,4.976-2.955,2.525-8.932,1.141-12.28.075a15.142,15.142,0,0,0,1.113,5.705c2.637,6.425,7.576,11.962,11.625,13.094s9.1-1.683,9.1-1.683,4.386,4.106,6.229,5.873,4.162,1.375,6.416-.486c1.983-1.627,2.413-9.259,2.488-11.12A1.982,1.982,0,0,0,110.045,214.384Z" transform="translate(-23.225 -181.644)" fill="#6e6e6e" stroke="#263238" stroke-miterlimit="10" stroke-width="0.984"/>
      <path id="Trazado_249" data-name="Trazado 249" d="M99.1,221.628c-.075.683-4.124,1.749-5.92-1.2s-1.347-8.24,1.581-8.371,4.91,5.05,4.91,5.05S99.293,219.57,99.1,221.628Z" transform="translate(-24.388 -182.574)" fill="#fff" stroke="#263238" stroke-miterlimit="10" stroke-width="0.984"/>
      <path id="Trazado_250" data-name="Trazado 250" d="M102.382,186.841c-5.05-1.524-17.6-.664-22.586,3.563a16.6,16.6,0,0,0-5.612,14.225c1.347,3.264,3.965,4.948,9.166,5.041,6.163.112,9.549-6.977,15.151-10.447a15.4,15.4,0,0,1,11.345-1.87C111.9,192.266,107.432,188.375,102.382,186.841Z" transform="translate(-23.222 -180.896)" fill="#263238" stroke="#263238" stroke-miterlimit="10" stroke-width="0.984"/>
      <path id="Trazado_251" data-name="Trazado 251" d="M74.114,206.727a19.547,19.547,0,0,0-6.042-6.276c-3.919-2.46-4.789,0-5,3.741s1.15,6,3.853,5.294a59.271,59.271,0,0,0,7.192-2.759Z" transform="translate(-22.506 -181.759)" fill="#263238" stroke="#263238" stroke-miterlimit="10" stroke-width="0.984"/>
      <path id="Trazado_252" data-name="Trazado 252" d="M74.362,207.23s-5.668,4.162-7.482,7.173" transform="translate(-22.755 -182.262)" fill="none" stroke="#263238" stroke-miterlimit="10" stroke-width="0.984"/>
      <path id="Trazado_253" data-name="Trazado 253" d="M66.47,230s-9.268,1.871-13.758,5.873-5.527,11.9-5.752,15.338-8.679,41.946-9.951,49.924-5.069,18.986-5.069,18.986,15.759,8.67,33.333,10.522,41.151-3.582,41.151-3.582-7.482-24.691-7.136-36.475a68.638,68.638,0,0,1,5.041-22.5s40.628,4.676,46.978,2.759,7.735-8.034,7.239-11.934-.1-24.691-.1-24.691-8.417-2.413-11.223-1.693l-2.881.72-6.182,19.2S118.04,244.581,110,241.971A112.744,112.744,0,0,0,95.3,238.23Z" transform="translate(-20.492 -183.736)" fill="#2d1674" stroke="#263238" stroke-miterlimit="10" stroke-width="0.984"/>
      <path id="Trazado_254" data-name="Trazado 254" d="M108.257,270.586,92.61,268.94l10.222,3.124L94.9,282.829Z" transform="translate(-24.42 -186.257)" fill="#263238" stroke="#263238" stroke-miterlimit="10" stroke-width="0.984"/>
      <path id="Trazado_255" data-name="Trazado 255" d="M103.161,287.76s-7.173,1.01-10.671.645" transform="translate(-24.413 -187.475)" fill="none" stroke="#263238" stroke-miterlimit="10" stroke-width="0.984"/>
      <line id="Línea_23" data-name="Línea 23" x2="1.085" y2="34.567" transform="translate(67.713 104.428)" fill="none" stroke="#263238" stroke-miterlimit="10" stroke-width="0.984"/>
      <line id="Línea_24" data-name="Línea 24" x2="3.217" y2="33.903" transform="translate(73.951 103.904)" fill="none" stroke="#263238" stroke-miterlimit="10" stroke-width="0.984"/>
      <path id="Trazado_256" data-name="Trazado 256" d="M103.024,326.789s-19.575,4.134-35.624,2.74S36.49,321,36.49,321" transform="translate(-20.787 -189.628)" fill="none" stroke="#263238" stroke-miterlimit="10" stroke-width="0.984"/>
      <line id="Línea_25" data-name="Línea 25" x2="9.633" y2="3.376" transform="translate(117.665 68.748)" fill="none" stroke="#263238" stroke-miterlimit="10" stroke-width="0.984"/>
      <path id="Trazado_257" data-name="Trazado 257" d="M101.919,238.661s-4.555-5.443-8.763-6.884-15.581-3.61-19.884-4.4a5.293,5.293,0,0,0-5.892,2.955,50.906,50.906,0,0,0,14.871,5.714,178.828,178.828,0,0,0,19.668,2.609Z" transform="translate(-22.787 -183.559)" fill="#dbdbdb" stroke="#263238" stroke-miterlimit="10" stroke-width="0.984"/>
      <path id="Trazado_258" data-name="Trazado 258" d="M149.576,230.353s-1.693,7.117-1.076,7.809,1.225,1.59,1.712.739,2.806-2.684,7.772-2.422a11.709,11.709,0,0,1,7.884,3.741,1.038,1.038,0,0,0,1.59-1.01c.084-1.74.2-7.847-.187-8.96s-5.555-2.263-10.578-2.31S150.278,229.521,149.576,230.353Z" transform="translate(-28.03 -183.602)" fill="#dbdbdb" stroke="#263238" stroke-miterlimit="10" stroke-width="0.984"/>
    </g>
  </g>
</svg>
