<svg xmlns="http://www.w3.org/2000/svg" width="592.352" height="441.373" viewBox="0 0 592.352 441.373">
  <g id="marker_boy" transform="translate(0 -55)">
    <g id="freepik--background-complete--inject-37" transform="translate(0 55)">
      <rect id="Rectángulo_4787" data-name="Rectángulo 4787" width="592.352" height="0.296" transform="translate(0 387.872)" fill="#e0e0e0"/>
      <rect id="Rectángulo_4788" data-name="Rectángulo 4788" width="12.416" height="0.296" transform="translate(191.744 395.027)" fill="#e0e0e0"/>
      <rect id="Rectángulo_4789" data-name="Rectángulo 4789" width="44.948" height="0.296" transform="translate(507.349 402.799)" fill="#e0e0e0"/>
      <rect id="Rectángulo_4790" data-name="Rectángulo 4790" width="36.323" height="0.296" transform="translate(375.954 395.17)" fill="#e0e0e0"/>
      <rect id="Rectángulo_4791" data-name="Rectángulo 4791" width="63.216" height="0.296" transform="translate(224.039 401.922)" fill="#e0e0e0"/>
      <rect id="Rectángulo_4792" data-name="Rectángulo 4792" width="21.727" height="0.296" transform="translate(143.74 400.051)" fill="#e0e0e0"/>
      <rect id="Rectángulo_4793" data-name="Rectángulo 4793" width="18.079" height="0.296" transform="translate(483.548 402.799)" fill="#e0e0e0"/>
      <rect id="Rectángulo_4794" data-name="Rectángulo 4794" width="59.91" height="0.296" transform="translate(76.923 399.908)" fill="#e0e0e0"/>
      <path id="Trazado_7808" data-name="Trazado 7808" d="M273.717,390.034H44.963a6.765,6.765,0,0,1-6.753-6.765V61.705A6.765,6.765,0,0,1,44.963,55H273.717a6.765,6.765,0,0,1,6.765,6.765v321.5A6.765,6.765,0,0,1,273.717,390.034ZM44.963,55.237a6.468,6.468,0,0,0-6.457,6.468V383.269a6.468,6.468,0,0,0,6.457,6.468H273.717a6.48,6.48,0,0,0,6.468-6.469V61.705a6.48,6.48,0,0,0-6.469-6.468Z" transform="translate(7.058 -55)" fill="#e0e0e0"/>
      <path id="Trazado_7809" data-name="Trazado 7809" d="M490.031,390.034H261.265a6.777,6.777,0,0,1-6.765-6.765V61.705A6.776,6.776,0,0,1,261.265,55H490.031a6.765,6.765,0,0,1,6.741,6.705V383.269A6.765,6.765,0,0,1,490.031,390.034ZM261.265,55.237a6.48,6.48,0,0,0-6.468,6.468V383.269a6.48,6.48,0,0,0,6.468,6.468H490.031a6.48,6.48,0,0,0,6.468-6.469V61.705a6.48,6.48,0,0,0-6.468-6.468Z" transform="translate(47.007 -55)" fill="#e0e0e0"/>
      <rect id="Rectángulo_4795" data-name="Rectángulo 4795" width="141.643" height="313.247" transform="translate(87.798 74.767)" fill="#e6e6e6"/>
      <rect id="Rectángulo_4796" data-name="Rectángulo 4796" width="134.926" height="313.247" transform="translate(94.516 74.767)" fill="#f5f5f5"/>
      <rect id="Rectángulo_4797" data-name="Rectángulo 4797" width="299.031" height="120.709" transform="translate(222.333 81.887) rotate(90)" fill="#f0f0f0"/>
      <rect id="Rectángulo_4798" data-name="Rectángulo 4798" width="299.031" height="1.848" transform="translate(222.333 81.875) rotate(90)" fill="#e6e6e6"/>
      <circle id="Elipse_315" data-name="Elipse 315" cx="6.054" cy="6.054" r="6.054" transform="translate(200.156 212.394)" fill="#e6e6e6"/>
      <circle id="Elipse_316" data-name="Elipse 316" cx="6.054" cy="6.054" r="6.054" transform="translate(202.525 211.138)" fill="#fafafa"/>
      <rect id="Rectángulo_4799" data-name="Rectángulo 4799" width="95.878" height="180.099" transform="translate(431.611 41.394)" fill="#e0e0e0"/>
      <rect id="Rectángulo_4800" data-name="Rectángulo 4800" width="95.878" height="180.099" transform="translate(435.71 41.394)" fill="#f5f5f5"/>
      <rect id="Rectángulo_4801" data-name="Rectángulo 4801" width="164.247" height="81.176" transform="translate(524.231 49.319) rotate(90)" fill="#fafafa"/>
      <rect id="Rectángulo_4802" data-name="Rectángulo 4802" width="164.247" height="3.092" transform="translate(524.243 49.319) rotate(90)" fill="#e0e0e0"/>
      <rect id="Rectángulo_4803" data-name="Rectángulo 4803" width="89.801" height="10.639" transform="translate(438.755 166.001)" fill="#f5f5f5"/>
      <rect id="Rectángulo_4804" data-name="Rectángulo 4804" width="95.878" height="180.099" transform="translate(313.39 41.394)" fill="#e0e0e0"/>
      <rect id="Rectángulo_4805" data-name="Rectángulo 4805" width="95.878" height="180.099" transform="translate(317.477 41.394)" fill="#f5f5f5"/>
      <rect id="Rectángulo_4806" data-name="Rectángulo 4806" width="164.247" height="81.176" transform="translate(406.01 49.307) rotate(90)" fill="#fafafa"/>
      <rect id="Rectángulo_4807" data-name="Rectángulo 4807" width="164.247" height="3.092" transform="translate(406.01 49.319) rotate(90)" fill="#e0e0e0"/>
      <rect id="Rectángulo_4808" data-name="Rectángulo 4808" width="89.801" height="10.639" transform="translate(320.521 166.001)" fill="#f5f5f5"/>
      <path id="Trazado_7810" data-name="Trazado 7810" d="M167.915,109.535l-1.078,1.078h-52.9V89.94Z" transform="translate(21.045 -48.546)" fill="#e0e0e0"/>
      <path id="Trazado_7811" data-name="Trazado 7811" d="M115.99,109.535h51.926L165.877,89.94H113.94Z" transform="translate(21.045 -48.546)" fill="#f5f5f5"/>
      <rect id="Rectángulo_4809" data-name="Rectángulo 4809" width="22.391" height="22.391" transform="translate(265.599 229.643) rotate(180)" fill="#ebebeb"/>
      <rect id="Rectángulo_4810" data-name="Rectángulo 4810" width="0.758" height="22.391" transform="translate(242.461 207.252)" fill="#e0e0e0"/>
      <path id="Trazado_7812" data-name="Trazado 7812" d="M225.152,247.508l-.806.806H207.69V232.96Z" transform="translate(38.361 -22.13)" fill="#e0e0e0"/>
      <path id="Trazado_7813" data-name="Trazado 7813" d="M209.206,247.508h15.946l-1.5-14.548H207.69Z" transform="translate(38.361 -22.13)" fill="#fafafa"/>
      <path id="Trazado_7814" data-name="Trazado 7814" d="M232.29,275.195l11.255-10.165,11.243,10.165v129.18h-22.5Z" transform="translate(42.905 -16.207)" fill="#f0f0f0"/>
      <path id="Trazado_7815" data-name="Trazado 7815" d="M265.2,275.195l11.243-10.165L287.7,275.195v129.18H265.2Z" transform="translate(48.983 -16.207)" fill="#f0f0f0"/>
      <path id="Trazado_7816" data-name="Trazado 7816" d="M298.1,275.195l11.255-10.165L320.6,275.195v129.18H298.1Z" transform="translate(55.06 -16.207)" fill="#f0f0f0"/>
      <path id="Trazado_7817" data-name="Trazado 7817" d="M331.01,275.195l11.243-10.165L353.5,275.195v129.18H331.01Z" transform="translate(61.139 -16.207)" fill="#f0f0f0"/>
      <path id="Trazado_7818" data-name="Trazado 7818" d="M363.91,275.195l11.255-10.165,11.243,10.165v129.18h-22.5Z" transform="translate(67.215 -16.207)" fill="#f0f0f0"/>
      <path id="Trazado_7819" data-name="Trazado 7819" d="M396.82,275.195l11.243-10.165,11.243,10.165v129.18H396.82Z" transform="translate(73.294 -16.207)" fill="#f0f0f0"/>
      <path id="Trazado_7820" data-name="Trazado 7820" d="M429.72,275.195l11.255-10.165,11.243,10.165v129.18h-22.5Z" transform="translate(79.371 -16.207)" fill="#f0f0f0"/>
      <rect id="Rectángulo_4811" data-name="Rectángulo 4811" width="233.896" height="5.734" transform="translate(520.334 283.511) rotate(180)" fill="#f0f0f0"/>
      <rect id="Rectángulo_4812" data-name="Rectángulo 4812" width="233.896" height="5.734" transform="translate(520.334 351.371) rotate(180)" fill="#f0f0f0"/>
    </g>
    <g id="freepik--Shadow--inject-37" transform="translate(66.474 469.551)">
      <ellipse id="Elipse_317" data-name="Elipse 317" cx="229.702" cy="13.411" rx="229.702" ry="13.411" fill="#f5f5f5"/>
    </g>
    <g id="freepik--Character--inject-37" transform="translate(295.022 142.578)">
      <path id="Trazado_7821" data-name="Trazado 7821" d="M352.878,192.45l.628.533.746.592c.5.4,1.031.806,1.552,1.185,1.066.77,2.156,1.528,3.293,2.215a59.993,59.993,0,0,0,7.025,3.815,72.045,72.045,0,0,0,7.476,2.867c1.291.344,2.559.77,3.874,1.031l1.967.426h.178c-.059,0-.118.13,0,0a2.925,2.925,0,0,0,.569-.889,13.4,13.4,0,0,0,.96-3.27,52.406,52.406,0,0,0,.652-8c0-2.76,0-5.568-.166-8.376s-.344-5.663-.581-8.447l4.146-.746a108.016,108.016,0,0,1,2.891,17.368,50.483,50.483,0,0,1,0,9.17,21.325,21.325,0,0,1-1.114,5.059,10.568,10.568,0,0,1-1.552,2.831,7.333,7.333,0,0,1-3.365,2.476,7.512,7.512,0,0,1-3.2.4l-.486-.059h-.284l-2.263-.367c-1.516-.225-3-.628-4.5-.948a60.976,60.976,0,0,1-8.7-2.926,62.642,62.642,0,0,1-8.174-4.206c-1.315-.794-2.583-1.67-3.838-2.583-.628-.462-1.244-.936-1.86-1.434-.308-.249-.6-.509-.912-.782s-.581-.509-.983-.889Z" transform="translate(-230.956 -120.341)" fill="#9f5b53"/>
      <path id="Trazado_7822" data-name="Trazado 7822" d="M342.653,185.619c12-1.635,21.692,8.068,21.692,8.068l-8.956,15.235s-13.814-5.817-15.9-10.97C337.333,192.621,336.492,186.448,342.653,185.619Z" transform="translate(-232.613 -118.486)" fill="#2d1674"/>
      <path id="Trazado_7823" data-name="Trazado 7823" d="M342.653,185.619c12-1.635,21.692,8.068,21.692,8.068l-8.956,15.235s-13.814-5.817-15.9-10.97C337.333,192.621,336.492,186.448,342.653,185.619Z" transform="translate(-232.613 -118.486)" opacity="0.3"/>
      <path id="Trazado_7824" data-name="Trazado 7824" d="M377.7,179.449l-6.575-6.066,9.75-3.8s3.092,5.213.592,10.425Z" transform="translate(-226.475 -121.414)" fill="#9f5b53"/>
      <path id="Trazado_7825" data-name="Trazado 7825" d="M370,165.681l7.76-1.481,3.317,6.374-9.75,3.8Z" transform="translate(-226.682 -122.408)" fill="#9f5b53"/>
      <path id="Trazado_7826" data-name="Trazado 7826" d="M306,412.159l9.667.948,10.07-23.019-9.667-.948Z" transform="translate(-238.503 -80.861)" fill="#9f5b53"/>
      <path id="Trazado_7827" data-name="Trazado 7827" d="M253.43,382.536l7.262,6.824,15.674-17.237L269.1,365.31Z" transform="translate(-248.213 -85.262)" fill="#9f5b53"/>
      <path id="Trazado_7828" data-name="Trazado 7828" d="M264.858,384.448l-5.461-9.833a.794.794,0,0,0-.983-.367l-8.4,3.2a1.6,1.6,0,0,0-.782,2.263c1.967,3.4,3.08,4.94,5.473,9.264,1.481,2.654,4.36,8.755,6.4,12.428s5.781,1.86,5.26.142c-2.369-7.677-1.9-11.954-1.185-15.342A2.63,2.63,0,0,0,264.858,384.448Z" transform="translate(-249.026 -83.621)" fill="#263238"/>
      <path id="Trazado_7829" data-name="Trazado 7829" d="M317.654,406.85H305.807a.983.983,0,0,0-.936.723l-2.583,9.395a1.469,1.469,0,0,0,1.457,1.872h27.343c4.348,0,5.248-4.383,3.459-4.739-8.056-1.777-12.7-4.241-15.176-6.575A2.441,2.441,0,0,0,317.654,406.85Z" transform="translate(-239.199 -77.59)" fill="#263238"/>
      <path id="Trazado_7830" data-name="Trazado 7830" d="M325.031,390.1l-5.177,11.859H309.76l5.6-12.807Z" transform="translate(-237.809 -80.859)" fill="#8a4743"/>
      <path id="Trazado_7831" data-name="Trazado 7831" d="M267.91,365.31l7.274,6.824-8.092,8.873-7.262-6.824Z" transform="translate(-247.031 -85.262)" fill="#8a4743"/>
      <path id="Trazado_7832" data-name="Trazado 7832" d="M358.8,187.444s4.336,1.919-10.236,59.614L308.055,243.5c2.109-16.432,3.009-26.6-1.955-61.107a121.085,121.085,0,0,1,17.4-.77,129.022,129.022,0,0,1,18.387,1.635,173.488,173.488,0,0,1,16.906,4.182Z" transform="translate(-238.485 -119.198)" fill="#2d1674"/>
      <path id="Trazado_7833" data-name="Trazado 7833" d="M358.8,187.444s4.336,1.919-10.236,59.614L308.055,243.5c2.109-16.432,3.009-26.6-1.955-61.107a121.085,121.085,0,0,1,17.4-.77,129.022,129.022,0,0,1,18.387,1.635,173.488,173.488,0,0,1,16.906,4.182Z" transform="translate(-238.485 -119.198)" opacity="0.3"/>
      <path id="Trazado_7834" data-name="Trazado 7834" d="M321.62,181.7s-2.3-.249-5.011-.249c-1.635,2.523,3.329,12.108,12.1,19.311a35.281,35.281,0,0,1,7.381-8.791Z" transform="translate(-236.601 -119.222)" fill="#fafafa"/>
      <path id="Trazado_7835" data-name="Trazado 7835" d="M336.92,183a18.269,18.269,0,0,1,3.471.557c1.635,2.523,4.8,11.444,0,16.918a35.28,35.28,0,0,0-7.381-8.791Z" transform="translate(-233.514 -118.936)" fill="#fafafa"/>
      <path id="Trazado_7836" data-name="Trazado 7836" d="M334.3,195.948c0,.723-.2,1.315-.545,1.339s-.64-.557-.687-1.268.2-1.327.545-1.339S334.267,195.225,334.3,195.948Z" transform="translate(-233.504 -116.778)" fill="#fafafa"/>
      <path id="Trazado_7837" data-name="Trazado 7837" d="M334.192,200.587c0,.711-.308,1.291-.652,1.291s-.592-.6-.581-1.327.308-1.291.652-1.291S334.251,199.864,334.192,200.587Z" transform="translate(-233.523 -115.932)" fill="#fafafa"/>
      <path id="Trazado_7838" data-name="Trazado 7838" d="M324.394,164.31c.652,6.018.865,16.965-3.554,20.555a68.335,68.335,0,0,0,14.406,10.271c7.037-4.857,3.921-8.684,3.921-8.684-6.457-2.144-5.864-7.025-4.324-11.527Z" transform="translate(-235.762 -122.388)" fill="#9f5b53"/>
      <path id="Trazado_7839" data-name="Trazado 7839" d="M327.564,168l6.184,6.279a19.78,19.78,0,0,0-.853,3.211c-2.488-.581-6.089-3.163-6.125-5.829a10.414,10.414,0,0,1,.794-3.661Z" transform="translate(-234.667 -121.706)" fill="#8a4743"/>
      <path id="Trazado_7840" data-name="Trazado 7840" d="M333.82,150.115s6.563,6.445,8.009,9.584c3.981,1.481,2.9-9-.118-15.069C336.4,149.357,333.82,150.115,333.82,150.115Z" transform="translate(-233.365 -126.023)" fill="#263238"/>
      <path id="Trazado_7841" data-name="Trazado 7841" d="M319.445,159.04c2.512,9.62,3.365,13.743,9.264,17.771,8.862,6.054,20.14.865,20.531-9.3.379-9.158-3.791-23.339-14.074-25.329a13.541,13.541,0,0,0-15.721,16.858Z" transform="translate(-236.109 -126.524)" fill="#9f5b53"/>
      <path id="Trazado_7842" data-name="Trazado 7842" d="M343.185,149.154c4.407.652,8.8-3.471,1.67-7.89,2.286-.237,4.739-8.293-3.554-7.855-.4-3.827-8.613-7.239-13.032-1.185-5.106-3.365-12.356.071-10.733,5.3-5.864.367-8.921,8.376-4.075,9.679-5.829,3.554-6.848,9.3-1.185,10.342.782,6.646,13.8,3.673,12.795-2.512,2.369,1.268,9.809-1.457,8.293-4.739C335.768,153.383,343.185,151.974,343.185,149.154Z" transform="translate(-238.038 -128.924)" fill="#263238"/>
      <path id="Trazado_7843" data-name="Trazado 7843" d="M315,153.676s4.834,7.819,5.473,11.219c3.554,2.369,4.988-8.044,3.554-14.655C317.666,153.51,315,153.676,315,153.676Z" transform="translate(-236.841 -124.986)" fill="#263238"/>
      <path id="Trazado_7844" data-name="Trazado 7844" d="M318.775,164.475a7.31,7.31,0,0,0,4.265,3.554c2.44.723,3.708-1.445,3.08-3.767-.58-2.1-2.535-5-5-4.739a3.27,3.27,0,0,0-2.346,4.952Z" transform="translate(-236.233 -123.275)" fill="#9f5b53"/>
      <path id="Trazado_7845" data-name="Trazado 7845" d="M348.323,237.245s13.707,60.621,4.549,103.354c-6.125,28.622-28.22,86.483-28.22,86.483l-17.273-.45s16.728-60.68,20.14-84.54c5.924-40.825-8.909-107.382-8.909-107.382Z" transform="translate(-238.248 -109.385)" fill="#2d1674"/>
      <path id="Trazado_7846" data-name="Trazado 7846" d="M348.323,237.245s13.707,60.621,4.549,103.354c-6.125,28.622-28.22,86.483-28.22,86.483l-17.273-.45s16.728-60.68,20.14-84.54c5.924-40.825-8.909-107.382-8.909-107.382Z" transform="translate(-238.248 -109.385)" fill="#fafafa" opacity="0.6"/>
      <path id="Trazado_7847" data-name="Trazado 7847" d="M329.946,247.18,321.31,260.8a418.041,418.041,0,0,1,4.94,48.8C338.393,287.851,332.648,258.7,329.946,247.18Z" transform="translate(-235.675 -107.081)" fill="#2d1674"/>
      <path id="Trazado_7848" data-name="Trazado 7848" d="M329.946,247.18,321.31,260.8a418.041,418.041,0,0,1,4.94,48.8C338.393,287.851,332.648,258.7,329.946,247.18Z" transform="translate(-235.675 -107.081)" fill="#fafafa" opacity="0.4"/>
      <path id="Trazado_7849" data-name="Trazado 7849" d="M327.348,398.916,306,398.383l1.244-6.563,23.291,1.1Z" transform="translate(-238.503 -80.366)" fill="#2d1674"/>
      <path id="Trazado_7850" data-name="Trazado 7850" d="M327.348,398.916,306,398.383l1.244-6.563,23.291,1.1Z" transform="translate(-238.503 -80.366)" opacity="0.3"/>
      <path id="Trazado_7851" data-name="Trazado 7851" d="M347.977,236.74s-8.032,64.294-25.459,99.385c-14.074,28.35-51.641,68.713-51.641,68.713l-9.6-9.892s25.365-43.834,35.825-62.695c25.649-46.2,4.739-81.413,19.228-98.33Z" transform="translate(-246.763 -109.531)" fill="#2d1674"/>
      <path id="Trazado_7852" data-name="Trazado 7852" d="M347.977,236.74s-8.032,64.294-25.459,99.385c-14.074,28.35-51.641,68.713-51.641,68.713l-9.6-9.892s25.365-43.834,35.825-62.695c25.649-46.2,4.739-81.413,19.228-98.33Z" transform="translate(-246.763 -109.531)" fill="#fafafa" opacity="0.6"/>
      <path id="Trazado_7853" data-name="Trazado 7853" d="M272.132,382.056,259.74,369.984l4.111-5.6,13.506,13.968Z" transform="translate(-247.047 -85.434)" fill="#2d1674"/>
      <path id="Trazado_7854" data-name="Trazado 7854" d="M272.132,382.056,259.74,369.984l4.111-5.6,13.506,13.968Z" transform="translate(-247.047 -85.434)" opacity="0.3"/>
      <path id="Trazado_7855" data-name="Trazado 7855" d="M307.751,231.877l-2.144,3.459c-.166.272.154.592.616.628l42.472,3.673c.367,0,.687-.118.734-.344l.675-3.554c0-.249-.249-.5-.652-.533l-41.014-3.554a.746.746,0,0,0-.687.225Z" transform="translate(-238.584 -109.952)" fill="#263238"/>
      <path id="Trazado_7856" data-name="Trazado 7856" d="M311.958,236.93l-1.1-.095c-.225,0-.379-.142-.355-.284l.924-4.668c0-.13.237-.225.45-.213l1.1.095c.213,0,.367.154.344.284l-.924,4.668C312.372,236.859,312.171,236.954,311.958,236.93Z" transform="translate(-237.672 -109.946)" fill="#2d1674"/>
      <path id="Trazado_7857" data-name="Trazado 7857" d="M311.958,236.93l-1.1-.095c-.225,0-.379-.142-.355-.284l.924-4.668c0-.13.237-.225.45-.213l1.1.095c.213,0,.367.154.344.284l-.924,4.668C312.372,236.859,312.171,236.954,311.958,236.93Z" transform="translate(-237.672 -109.946)" fill="#fafafa" opacity="0.6"/>
      <path id="Trazado_7858" data-name="Trazado 7858" d="M339.566,239.32l-1.1-.095c-.213,0-.367-.142-.344-.284l.924-4.668c0-.13.225-.225.438-.213l1.1.095c.225,0,.379.154.355.284l-.924,4.668A.415.415,0,0,1,339.566,239.32Z" transform="translate(-232.571 -109.505)" fill="#2d1674"/>
      <path id="Trazado_7859" data-name="Trazado 7859" d="M339.566,239.32l-1.1-.095c-.213,0-.367-.142-.344-.284l.924-4.668c0-.13.225-.225.438-.213l1.1.095c.225,0,.379.154.355.284l-.924,4.668A.415.415,0,0,1,339.566,239.32Z" transform="translate(-232.571 -109.505)" fill="#fafafa" opacity="0.6"/>
      <path id="Trazado_7860" data-name="Trazado 7860" d="M325.756,238.131l-1.09-.095c-.225,0-.379-.154-.355-.284l.924-4.668c0-.142.225-.237.45-.213l1.09.095c.225,0,.379.142.355.284l-.924,4.656C326.182,238.048,325.981,238.142,325.756,238.131Z" transform="translate(-235.121 -109.725)" fill="#2d1674"/>
      <path id="Trazado_7861" data-name="Trazado 7861" d="M325.756,238.131l-1.09-.095c-.225,0-.379-.154-.355-.284l.924-4.668c0-.142.225-.237.45-.213l1.09.095c.225,0,.379.142.355.284l-.924,4.656C326.182,238.048,325.981,238.142,325.756,238.131Z" transform="translate(-235.121 -109.725)" fill="#fafafa" opacity="0.6"/>
      <path id="Trazado_7862" data-name="Trazado 7862" d="M332.286,156.475c.154.794.7,1.351,1.185,1.244s.806-.817.652-1.611-.7-1.351-1.185-1.256S332.132,155.681,332.286,156.475Z" transform="translate(-233.655 -124.137)" fill="#263238"/>
      <path id="Trazado_7863" data-name="Trazado 7863" d="M339.847,154.977c.154.794.7,1.351,1.185,1.256s.806-.829.652-1.623-.7-1.351-1.185-1.185A1.26,1.26,0,0,0,339.847,154.977Z" transform="translate(-232.259 -124.404)" fill="#263238"/>
      <path id="Trazado_7864" data-name="Trazado 7864" d="M340.2,153.584l1.8-.924S341.314,154.342,340.2,153.584Z" transform="translate(-232.186 -124.539)" fill="#263238"/>
      <path id="Trazado_7865" data-name="Trazado 7865" d="M338.06,156.28a21.739,21.739,0,0,0,3.827,4.49,3.483,3.483,0,0,1-2.725,1.09Z" transform="translate(-232.581 -123.871)" fill="#892b29"/>
      <path id="Trazado_7866" data-name="Trazado 7866" d="M336.612,164.5a6.563,6.563,0,0,1-4.514-1.718.213.213,0,0,1,0-.284.2.2,0,0,1,.284,0,6.468,6.468,0,0,0,5.627,1.457.2.2,0,0,1,.237.154.19.19,0,0,1-.154.225,7.4,7.4,0,0,1-1.481.166Z" transform="translate(-233.693 -122.733)" fill="#263238"/>
      <path id="Trazado_7867" data-name="Trazado 7867" d="M328.62,152.445a.45.45,0,0,1-.2,0,.4.4,0,0,1-.13-.545,4.6,4.6,0,0,1,3.554-2.31h0a.4.4,0,0,1,.4.379.391.391,0,0,1-.379.4,3.874,3.874,0,0,0-2.926,1.931A.379.379,0,0,1,328.62,152.445Z" transform="translate(-234.397 -125.107)" fill="#263238"/>
      <path id="Trazado_7868" data-name="Trazado 7868" d="M343.433,151.028a.379.379,0,0,1-.19,0,3.838,3.838,0,0,0-3.554-.225.395.395,0,1,1-.367-.7,4.6,4.6,0,0,1,4.241.237.391.391,0,0,1,.154.533.379.379,0,0,1-.284.154Z" transform="translate(-232.387 -125.087)" fill="#263238"/>
      <path id="Trazado_7869" data-name="Trazado 7869" d="M316.033,195.841a99.4,99.4,0,0,1-5.473,9.561c-1.99,3.057-4.1,6.018-6.362,8.9a92.3,92.3,0,0,1-7.369,8.186c-1.339,1.279-2.677,2.559-4.123,3.744l-1.066.912a12.915,12.915,0,0,1-1.588,1.114,8.565,8.565,0,0,1-4.514,1.185,8.08,8.08,0,0,1-4.466-1.576,12.191,12.191,0,0,1-2.63-2.606,25.588,25.588,0,0,1-3-5.343,64.115,64.115,0,0,1-3.329-10.579A141.281,141.281,0,0,1,269,188.081l4.182-.521c.675,3.365,1.4,6.8,2.239,10.165s1.694,6.717,2.725,9.963a69.708,69.708,0,0,0,3.554,9.335,18.883,18.883,0,0,0,2.369,3.732,5.248,5.248,0,0,0,1.185,1.031c.332.19.438.154.45.13a1.541,1.541,0,0,0,.474-.237c.154-.107.344-.261.545-.426l.9-.853c1.185-1.1,2.369-2.31,3.554-3.554,2.275-2.452,4.383-5.082,6.445-7.748s3.945-5.509,5.746-8.388c.912-1.422,1.789-2.879,2.654-4.348s1.682-2.985,2.369-4.36Z" transform="translate(-245.337 -118.093)" fill="#9f5b53"/>
      <path id="Trazado_7870" data-name="Trazado 7870" d="M275.635,190.173,274.58,181.3l-8.791,5.663s2.879,4.739,6.859,6.018Z" transform="translate(-245.93 -119.25)" fill="#9f5b53"/>
      <path id="Trazado_7871" data-name="Trazado 7871" d="M271.356,178.26l-5.746,5.426.213,3.838,8.79-5.663Z" transform="translate(-245.963 -119.811)" fill="#9f5b53"/>
      <path id="Trazado_7872" data-name="Trazado 7872" d="M307.958,182.336c-4.964.889-11.918,15.129-11.918,15.129l12.522,11.314s9.952-10.852,9.418-17.32C317.53,185.961,314.284,181.222,307.958,182.336Z" transform="translate(-240.343 -119.089)" fill="#2d1674"/>
      <path id="Trazado_7873" data-name="Trazado 7873" d="M307.958,182.336c-4.964.889-11.918,15.129-11.918,15.129l12.522,11.314s9.952-10.852,9.418-17.32C317.53,185.961,314.284,181.222,307.958,182.336Z" transform="translate(-240.343 -119.089)" opacity="0.3"/>
      <path id="Trazado_7874" data-name="Trazado 7874" d="M264.429,387.961a1.032,1.032,0,0,1-.379-.071c-1.185-.391-1.967-2.595-2.369-3.874a.213.213,0,0,1,.071-.2.2.2,0,0,1,.213,0c.367.19,3.554,1.884,3.637,3.139a.758.758,0,0,1-.332.7,1.421,1.421,0,0,1-.841.308Zm-2.192-3.554c.545,1.753,1.256,2.926,1.931,3.151a.972.972,0,0,0,.9-.2.379.379,0,0,0,.178-.355c-.059-.806-1.919-2.014-3.009-2.63Z" transform="translate(-246.69 -81.85)" fill="#2d1674"/>
      <path id="Trazado_7875" data-name="Trazado 7875" d="M264.921,385.033a7.108,7.108,0,0,1-3.116-.734.19.19,0,0,1-.095-.166.213.213,0,0,1,.095-.178c.107-.059,2.618-1.434,3.969-.96a1.185,1.185,0,0,1,.746.711.806.806,0,0,1-.178.971A2.369,2.369,0,0,1,264.921,385.033Zm-2.583-.9c1.078.462,3.163.746,3.744.237.095-.083.2-.213.071-.521a.782.782,0,0,0-.509-.474c-.912-.355-2.595.4-3.305.758Z" transform="translate(-246.684 -82.014)" fill="#2d1674"/>
      <path id="Trazado_7876" data-name="Trazado 7876" d="M320.23,408.849a15.919,15.919,0,0,1-3.246-.415.19.19,0,0,1-.154-.166.2.2,0,0,1,.107-.2c.5-.237,4.81-2.215,5.923-1.493a.675.675,0,0,1,.284.616,1.457,1.457,0,0,1-.592,1.114,3.921,3.921,0,0,1-2.322.545Zm-2.571-.675c1.279.237,3.649.545,4.62-.19a1.007,1.007,0,0,0,.426-.817c0-.166,0-.225-.107-.261C322,406.492,319.4,407.38,317.659,408.174Z" transform="translate(-236.503 -77.67)" fill="#2d1674"/>
      <path id="Trazado_7877" data-name="Trazado 7877" d="M317.032,408.812a.249.249,0,0,1-.13,0,.213.213,0,0,1-.071-.2c0-.178,1.054-4.443,3.365-4.158.58.071.746.367.77.592.154,1.09-2.571,3.27-3.862,3.791Zm2.95-4.028c-1.493,0-2.369,2.476-2.654,3.471,1.4-.734,3.341-2.512,3.246-3.2,0,0,0-.213-.426-.261Z" transform="translate(-236.503 -78.035)" fill="#2d1674"/>
      <path id="Trazado_7878" data-name="Trazado 7878" d="M332.65,155.074l1.789-.924S333.752,155.832,332.65,155.074Z" transform="translate(-233.581 -124.264)" fill="#263238"/>
    </g>
    <g id="freepik--Graphics--inject-37" transform="translate(113.209 142.646)">
      <path id="Trazado_7879" data-name="Trazado 7879" d="M128.7,162.172A112.867,112.867,0,0,1,208.77,129H224.8s75.62,19.8,75.62,100.806c0,79.186-52.352,149.273-75.608,172.564H208.794l-80.1-80.1a113.258,113.258,0,0,1,0-160.1Zm80.086,132.687a52.509,52.509,0,1,1,0-.095Z" transform="translate(-95.559 -128.978)" fill="#263238"/>
      <path id="Trazado_7880" data-name="Trazado 7880" d="M278.806,158.814a118.85,118.85,0,0,0-15.164-12.807l.675-.971a119.656,119.656,0,0,1,15.33,12.949Zm-22.249-17.439c-2.784-1.682-5.675-3.27-8.577-4.739l.521-1.066c2.938,1.457,5.852,3.057,8.672,4.739Z" transform="translate(-67.406 -127.765)" fill="#2d1674"/>
      <path id="Trazado_7881" data-name="Trazado 7881" d="M278.806,158.814a118.85,118.85,0,0,0-15.164-12.807l.675-.971a119.656,119.656,0,0,1,15.33,12.949Zm-22.249-17.439c-2.784-1.682-5.675-3.27-8.577-4.739l.521-1.066c2.938,1.457,5.852,3.057,8.672,4.739Z" transform="translate(-67.406 -127.765)" opacity="0.2"/>
      <path id="Trazado_7882" data-name="Trazado 7882" d="M142.215,162.175A113.235,113.235,0,1,1,302.378,322.291l-80.065,80.048-80.1-80.1A113.234,113.234,0,0,1,142.215,162.175ZM222.3,294.862a52.526,52.526,0,1,1,0-.095Z" transform="translate(-93.06 -128.982)" fill="#2d1674"/>
      <path id="Trazado_7883" data-name="Trazado 7883" d="M142.215,162.175A113.235,113.235,0,1,1,302.378,322.291l-80.065,80.048-80.1-80.1A113.234,113.234,0,0,1,142.215,162.175ZM222.3,294.862a52.526,52.526,0,1,1,0-.095Z" transform="translate(-93.06 -128.982)" opacity="0.2"/>
      <path id="Trazado_7884" data-name="Trazado 7884" d="M221.623,395.237a.3.3,0,0,1-.213-.095l-76.745-76.733a108.779,108.779,0,1,1,153.869,0l-76.71,76.7A.273.273,0,0,1,221.623,395.237Zm0-261.926a108.187,108.187,0,0,0-76.484,184.683l76.532,76.52,76.5-76.484.2.2-.2-.2a108.223,108.223,0,0,0-76.544-184.719Zm0,165.858a48.925,48.925,0,1,0-.012-.059Zm0-114.62a72.807,72.807,0,1,0-.012-.059Z" transform="translate(-92.371 -128.29)" fill="#fafafa" opacity="0.4"/>
    </g>
  </g>
</svg>
