<svg xmlns="http://www.w3.org/2000/svg" width="494.782" height="492.547" viewBox="0 0 494.782 492.547">
  <g id="Question-boy" transform="translate(-27.576 -36.516)">
    <g id="freepik--background-simple--inject-31" transform="translate(27.576 46.853)">
      <path id="Trazado_7886" data-name="Trazado 7886" d="M182.655,74.8S98.492,117.68,56.516,183.749,17.861,334.813,68.868,397.9,217.366,452.71,299,492.675s171.691,31.735,210.29-52.939-19.605-116.319-29.6-214.311S381.348-16.056,182.655,74.8Z" transform="translate(-27.576 -45.877)" fill="#2d1674"/>
      <path id="Trazado_7887" data-name="Trazado 7887" d="M182.655,74.8S98.492,117.68,56.516,183.749,17.861,334.813,68.868,397.9,217.366,452.71,299,492.675s171.691,31.735,210.29-52.939-19.605-116.319-29.6-214.311S381.348-16.056,182.655,74.8Z" transform="translate(-27.576 -45.877)" fill="#fff" opacity="0.7"/>
    </g>
    <g id="freepik--Plants--inject-31" transform="translate(121.178 123.292)">
      <path id="Trazado_7888" data-name="Trazado 7888" d="M124.685,379.559c3.332-1.111,9.242-6.542,9.242-6.554s-4.754-2.766-5.076-2.9c-3.743-1.577-11.907-2.421-14.873,1.033a5.4,5.4,0,0,0,1.266,7.886C117.865,380.892,121.8,380.492,124.685,379.559Z" transform="translate(-111.738 -86.554)" fill="#9c9c9c"/>
      <path id="Trazado_7889" data-name="Trazado 7889" d="M180.844,332.611c.078,0-2.444-4.921-2.644-5.221-2.222-3.332-8.6-8.586-12.974-7.342a5.4,5.4,0,0,0-3.332,7.3c1.189,2.977,4.687,4.821,7.62,5.632C172.958,333.933,180.833,332.623,180.844,332.611Z" transform="translate(-106.349 -91.967)" fill="#9c9c9c"/>
      <path id="Trazado_7890" data-name="Trazado 7890" d="M142.219,402.984c2.866-1.877,6.82-8.153,7.131-8.653a94.96,94.96,0,0,0,11.174,6.065c2.221,1.044,4.532,2.033,6.842,2.988-1.111-.289-2.122-.522-2.222-.544-4.032-.533-12.13.811-14.073,4.921a5.387,5.387,0,0,0,3.332,7.309c3.021,1.111,6.665-.344,9.253-2.011s6.054-6.987,6.953-8.4l2.666,1.111c4.276,1.7,8.542,3.332,12.685,5.154,1.455.622,2.866,1.3,4.288,1.955-1-.244-1.833-.444-1.966-.455-4.032-.533-12.118.811-14.073,4.921a5.376,5.376,0,0,0,3.332,7.3c3.032,1.111,6.72-.344,9.253-2.01s5.709-6.465,6.8-8.131c1.422.722,2.855,1.444,4.21,2.222.911.544,1.833,1,2.721,1.6l2.644,1.7c1.633,1.111,3.332,2.31,4.91,3.466,1.111.8,2.133,1.577,3.177,2.355-1.444-.633-4.3-1.833-4.554-1.9-3.9-1.111-12.107-1.033-14.651,2.732a5.376,5.376,0,0,0,2.155,7.72c2.821,1.522,6.665.678,9.453-.589,3.032-1.388,7.775-6.753,8.309-7.431,1.722,1.3,3.388,2.577,4.932,3.81,4.51,3.566,8.264,6.776,11.108,9.286l2.222-2.022c-2.977-2.51-6.953-5.776-11.741-9.4-1.744-1.322-3.632-2.71-5.554-4.11a59.159,59.159,0,0,0,2.71-6.32c3.41.344,9.83-1.422,10.663-1.655.722,2.033,1.4,4.021,2.01,5.9,1.755,5.365,3.1,10,4.088,13.673l2.488-2.222c-1.033-3.432-2.366-7.62-4.021-12.341-.722-2.066-1.533-4.254-2.4-6.5.766-.433,6.942-4.032,8.886-6.742,1.766-2.466,3.332-6.1,2.377-9.175a5.4,5.4,0,0,0-7.164-3.588c-4.188,1.788-5.854,9.819-5.487,13.862,0,.244.555,2.81.911,4.443-.355-.922-.689-1.811-1.111-2.744-.733-1.866-1.522-3.7-2.355-5.676-.444-.944-.878-1.888-1.333-2.844s-.989-1.922-1.488-2.9c-1.189-2.222-2.51-4.443-3.9-6.665,1.633-.644,7.375-3.021,9.508-5.2s4.221-5.554,3.732-8.7a5.376,5.376,0,0,0-6.531-4.632c-4.443,1.111-7.276,8.82-7.52,12.874,0,.244.133,3.177.244,4.787-.844-1.311-1.677-2.621-2.566-3.921-2.577-3.743-5.309-7.453-8.009-11.163-.833-1.111-1.644-2.277-2.455-3.421.578-.222,7.464-2.9,9.852-5.332,2.122-2.222,4.221-5.554,3.743-8.708a5.387,5.387,0,0,0-6.542-4.632c-4.443,1.111-7.275,8.82-7.52,12.874,0,.311.2,4.521.311,5.554-1.8-2.521-3.566-5.043-5.21-7.6a92.893,92.893,0,0,1-6.02-10.719c.267-.1,7.464-2.866,9.908-5.365,2.122-2.222,4.221-5.554,3.743-8.7a5.376,5.376,0,0,0-6.531-4.632c-4.443,1.111-7.276,8.819-7.52,12.874,0,.267.144,3.477.255,5l-.244.067a68.569,68.569,0,0,1-4.021-11.7c-.566-2.222-.989-4.343-1.355-6.42,1.388-.378,7.775-2.166,10.2-4.176s4.8-5.032,4.676-8.242a5.4,5.4,0,0,0-6-5.321c-4.5.633-8.2,7.964-8.886,11.974,0,.211-.178,2.466-.255,4.11-.144-.944-.322-1.911-.444-2.821-.478-3.41-.711-6.553-.9-9.342-.089-1.588-.133-3.032-.167-4.376,1.166-1.111,5.854-5.554,7.076-8.364s1.944-6.665.355-9.464a5.387,5.387,0,0,0-7.775-1.966c-3.71,2.644-3.61,10.852-2.377,14.729.111.333,2.366,5.376,2.433,5.321l.067-.067c0,1.289,0,2.677.089,4.2.122,2.8.278,5.965.689,9.4a95.844,95.844,0,0,0,1.844,11,69.493,69.493,0,0,0,3.8,11.9l.067.133c-.866-1.011-3.388-3.754-3.61-3.943-3.066-2.666-10.563-6.009-14.44-3.654a5.376,5.376,0,0,0-1.277,7.909c1.933,2.566,5.787,3.421,8.831,3.432,3.421,0,10.175-3.055,10.719-3.332a95.288,95.288,0,0,0,5.976,11.23c1.288,2.1,2.655,4.188,4.054,6.254-.778-.844-1.477-1.6-1.588-1.7-3.066-2.655-10.563-6.009-14.44-3.654a5.376,5.376,0,0,0-1.277,7.909c1.922,2.577,5.787,3.421,8.831,3.432s8.886-2.488,10.419-3.166c.544.789,1.111,1.588,1.633,2.377,2.621,3.766,5.254,7.531,7.775,11.285.878,1.333,1.688,2.666,2.5,4-.689-.755-1.277-1.377-1.377-1.466-3.066-2.666-10.563-6.009-14.44-3.654a5.376,5.376,0,0,0-1.266,7.909c1.922,2.566,5.787,3.421,8.819,3.432s8.331-2.221,10.152-3.043c.8,1.388,1.6,2.777,2.3,4.165.467.955.977,1.844,1.377,2.832s.855,1.933,1.266,2.877c.744,1.866,1.511,3.777,2.222,5.609.478,1.266.911,2.488,1.344,3.71-.844-1.333-2.577-3.9-2.744-4.1a20.86,20.86,0,0,0-8.886-5.732,6.064,6.064,0,0,0-.844-.844,5.387,5.387,0,0,0-7.953.955c-2.51,3.8.533,11.419,3.077,14.6.144.189,2,2.033,3.188,3.177l-2.51-1.633c-1.633-1.111-3.332-2.222-5.087-3.432l-2.677-1.644c-.889-.567-1.888-1.055-2.844-1.588-2.222-1.2-4.543-2.31-6.9-3.332,1-1.433,4.443-6.576,5.054-9.575s.467-6.931-1.677-9.319a5.387,5.387,0,0,0-8.009-.256c-3.055,3.332-1.2,11.363.822,14.884.133.222,1.866,2.577,2.855,3.854-1.422-.622-2.844-1.255-4.3-1.844-4.221-1.7-8.542-3.332-12.84-4.9-1.322-.489-2.633-1-3.943-1.5.367-.5,4.632-6.531,5.276-9.886.578-2.977.478-6.931-1.677-9.319a5.387,5.387,0,0,0-8.009-.256c-3.055,3.332-1.2,11.363.833,14.884.144.267,2.655,3.654,3.332,4.443-2.888-1.111-5.754-2.222-8.542-3.454a92.741,92.741,0,0,1-10.93-5.621c.167-.233,4.654-6.509,5.309-9.941.566-2.977.467-6.931-1.677-9.319a5.387,5.387,0,0,0-8.009-.256c-3.055,3.332-1.2,11.363.822,14.884.133.233,2.044,2.821,2.988,4.032l-.178.189a69.179,69.179,0,0,1-9.8-7.542c-1.7-1.522-3.232-3.066-4.687-4.61.955-1.111,5.265-6.076,6.209-9.108s1.222-6.842-.644-9.441a5.4,5.4,0,0,0-7.942-1.111c-3.4,3.021-2.433,11.174-.811,14.9.089.2,1.222,2.155,2.066,3.566-.644-.7-1.322-1.411-1.933-2.1-2.222-2.577-4.21-5.076-5.9-7.309-.955-1.277-1.788-2.444-2.566-3.543.389-1.555,1.855-7.831,1.3-10.885s-2.066-6.665-4.932-8.086a5.376,5.376,0,0,0-7.553,2.644c-1.633,4.243,2.977,11.03,6.131,13.585.278.222,4.943,3.177,4.965,3.1a.709.709,0,0,0,0-.1c.722,1.111,1.511,2.222,2.388,3.466,1.644,2.222,3.532,4.821,5.765,7.453a97.183,97.183,0,0,0,7.609,8.164,70.7,70.7,0,0,0,9.719,7.775l.133.078c-1.277-.367-4.9-1.266-5.187-1.3-4.032-.533-12.118.811-14.073,4.921a5.387,5.387,0,0,0,3.332,7.309C136,406.072,139.686,404.662,142.219,402.984Z" transform="translate(-111.844 -94.528)" fill="#9c9c9c"/>
      <path id="Trazado_7891" data-name="Trazado 7891" d="M326.548,140.375c2.377,3.977,10.941,9.808,10.952,9.808s2.133-6.809,2.222-7.264c.911-5.187-.378-15.762-5.554-18.516a6.987,6.987,0,0,0-9.653,3.865C322.9,132.133,324.526,137,326.548,140.375Z" transform="translate(-88.36 -113.697)" fill="#9c9c9c"/>
      <path id="Trazado_7892" data-name="Trazado 7892" d="M402.262,197.927c0,.1,5.554-4.51,5.854-4.843,3.632-3.832,8.386-13.329,5.554-18.539a6.987,6.987,0,0,0-10.186-2.1c-3.432,2.366-4.754,7.32-4.943,11.252C398.33,188.319,402.262,197.916,402.262,197.927Z" transform="translate(-80.088 -108.447)" fill="#9c9c9c"/>
      <path id="Trazado_7893" data-name="Trazado 7893" d="M315.694,167.884c3.21,3.077,12.3,6.276,13.018,6.52a123.831,123.831,0,0,0-4.443,15.9c-.678,3.132-1.266,6.32-1.811,9.519v-3.032c-.489-5.243-4.521-15.106-10.286-16.384a6.987,6.987,0,0,0-8.3,6.276c-.489,4.143,2.377,8.409,5.221,11.108s10.574,5.654,12.618,6.387c-.2,1.222-.411,2.455-.6,3.677-.922,5.9-1.811,11.785-2.866,17.539-.367,2.022-.811,4.01-1.244,6v-2.621c-.489-5.254-4.521-15.106-10.286-16.395a6.987,6.987,0,0,0-8.286,6.287c-.489,4.132,2.366,8.4,5.21,11.108s9.83,5.354,12.218,6.243c-.5,2.022-1,4.043-1.577,5.976-.433,1.311-.744,2.6-1.244,3.9l-1.4,3.832c-.966,2.4-1.955,4.887-2.966,7.22-.689,1.611-1.377,3.143-2.066,4.687.389-2.01,1.111-5.965,1.111-6.3.311-5.265-2.222-15.617-7.687-17.772a6.987,6.987,0,0,0-9.153,4.954c-1.111,4.01,1.111,8.664,3.466,11.785,2.644,3.443,10.786,7.842,11.807,8.386-1.111,2.544-2.288,5.021-3.4,7.331-3.221,6.742-6.2,12.407-8.553,16.75l3.21,2.288c2.333-4.443,5.309-10.452,8.508-17.561,1.177-2.588,2.388-5.376,3.6-8.253a73.576,73.576,0,0,0,8.775,1.611c.555,4.443,4.632,12.041,5.165,13.018-2.366,1.5-4.676,2.932-6.887,4.243-6.276,3.777-11.8,6.82-16.117,9.119l3.5,2.5c4.054-2.288,8.964-5.176,14.44-8.631,2.41-1.511,4.954-3.177,7.542-4.91.766.844,7.1,7.62,11.108,9.308,3.632,1.522,8.675,2.466,12.285.367a6.976,6.976,0,0,0,2.477-10.1c-3.466-4.787-14.107-4.576-19.127-2.944-.289.1-3.388,1.5-5.321,2.421,1.055-.711,2.088-1.4,3.166-2.144,2.144-1.466,4.243-2.988,6.5-4.61l3.221-2.5c1.111-.822,2.144-1.811,3.232-2.721q3.715-3.232,7.253-6.842c1.288,1.866,5.954,8.453,9.319,10.519s8.209,3.754,12.085,2.222a6.987,6.987,0,0,0,3.988-9.608c-2.7-5.254-13.263-6.665-18.461-5.809-.322.056-3.988,1.111-5.987,1.688,1.411-1.433,2.832-2.866,4.21-4.376,4-4.332,7.909-8.886,11.819-13.329,1.2-1.377,2.421-2.732,3.621-4.088.455.666,5.82,8.608,9.6,10.93,3.332,2.055,8.209,3.754,12.1,2.222a6.987,6.987,0,0,0,3.977-9.608c-2.7-5.254-13.263-6.665-18.461-5.809-.389.056-5.665,1.555-6.987,2,2.666-3,5.343-5.965,8.109-8.786a123.3,123.3,0,0,1,11.83-10.708c.211.311,5.776,8.631,9.641,11.008,3.332,2.055,8.209,3.743,12.1,2.222A6.987,6.987,0,0,0,417.2,221.5c-2.7-5.254-13.263-6.665-18.461-5.8-.344,0-4.354,1.189-6.254,1.766l-.156-.3a90.407,90.407,0,0,1,13.651-8.453c2.621-1.355,5.2-2.5,7.775-3.566.878,1.655,4.976,9.175,8.22,11.7s7.775,4.632,11.774,3.543a6.987,6.987,0,0,0,5.01-9.108c-2.11-5.554-12.441-8.086-17.706-7.775-.289,0-3.188.5-5.287.866,1.111-.455,2.333-.955,3.443-1.377,4.177-1.588,8.086-2.788,11.574-3.821,1.977-.578,3.788-1.111,5.476-1.488,1.711,1.177,8.653,5.832,12.629,6.554s9.008.544,12.074-2.277a6.987,6.987,0,0,0,.244-10.4c-4.443-3.921-14.762-1.433-19.305,1.233-.4.233-6.12,4.554-6.031,4.621l.1.067c-1.633.378-3.388.811-5.3,1.311-3.5.966-7.464,2.088-11.685,3.588a125.578,125.578,0,0,0-13.4,5.554,91.986,91.986,0,0,0-13.962,8.22l-.144.122c1.022-1.388,3.777-5.365,3.954-5.7,2.488-4.654,4.565-15.1.467-19.35a7.009,7.009,0,0,0-10.386.666c-2.688,3.188-2.655,8.32-1.788,12.163.978,4.332,6.787,12.007,7.253,12.618a123.872,123.872,0,0,0-12.485,10.8c-2.3,2.222-4.532,4.576-6.753,6.942.855-1.233,1.6-2.344,1.688-2.51,2.488-4.643,4.565-15.1.467-19.338a6.976,6.976,0,0,0-10.375.666c-2.7,3.177-2.666,8.309-1.8,12.152s5.709,10.552,7.009,12.285l-2.533,2.744c-4.021,4.443-8.009,8.831-12.063,13.04-1.422,1.488-2.888,2.9-4.343,4.321.755-1.111,1.388-2.022,1.466-2.222,2.488-4.643,4.565-15.1.467-19.338a7,7,0,0,0-10.386.655c-2.688,3.188-2.655,8.32-1.788,12.163s5.232,9.9,6.776,11.974c-1.533,1.4-3.066,2.81-4.621,4.11-1.111.855-2.055,1.755-3.188,2.566l-3.277,2.421c-2.133,1.477-4.332,3-6.454,4.388-1.477.966-2.888,1.866-4.321,2.777,1.444-1.466,4.2-4.388,4.443-4.654a27.191,27.191,0,0,0,4.71-12.863,8.386,8.386,0,0,0,.822-1.311,7,7,0,0,0-3.51-9.8c-5.554-2.077-14.3,3.965-17.572,8.1-.2.244-2,3.121-3.11,4.954.489-1.177.977-2.31,1.466-3.532.978-2.4,1.888-4.821,2.866-7.431.433-1.277.878-2.566,1.311-3.865s.789-2.688,1.2-4.043c.878-3.177,1.611-6.42,2.277-9.719,2.1.855,9.619,3.777,13.574,3.643s8.886-1.4,11.319-4.81a6.987,6.987,0,0,0-1.988-10.208c-5.143-2.9-14.729,1.755-18.594,5.332-.244.233-2.732,3.11-4.065,4.721.378-1.977.778-3.954,1.111-5.976.933-5.832,1.7-11.752,2.5-17.661.233-1.811.5-3.61.755-5.409.744.311,9.608,3.977,14.04,3.821,3.932-.133,8.886-1.4,11.308-4.81a6.987,6.987,0,0,0-1.977-10.208c-5.154-2.888-14.74,1.755-18.605,5.343-.289.267-3.865,4.443-4.721,5.554.566-3.965,1.111-7.92,1.911-11.8a124.412,124.412,0,0,1,3.988-15.473c.344.144,9.575,4.021,14.118,3.865,3.932-.144,8.886-1.4,11.308-4.81a7,7,0,0,0-1.977-10.219c-5.154-2.888-14.729,1.755-18.605,5.343-.255.233-2.977,3.4-4.243,4.932l-.289-.167a89.6,89.6,0,0,1,6.665-14.573c1.444-2.577,2.955-4.965,4.443-7.253,1.644.9,9.208,4.91,13.329,5.232,3.932.289,9.008-.422,11.774-3.543a6.987,6.987,0,0,0-.855-10.363c-4.8-3.443-14.829.122-19.072,3.266-.222.167-2.377,2.155-3.921,3.632.7-1.022,1.411-2.088,2.11-3.055,2.6-3.621,5.209-6.787,7.531-9.575,1.344-1.566,2.588-2.966,3.754-4.254,2.077,0,10.441.089,14.151-1.5s7.775-4.521,8.819-8.564a6.987,6.987,0,0,0-5.554-8.808c-5.843-.844-13.107,6.953-15.429,11.685-.2.411-2.588,7.176-2.488,7.176h.133c-1.111,1.222-2.388,2.544-3.7,4.021-2.388,2.732-5.076,5.854-7.775,9.43a124.845,124.845,0,0,0-8.142,11.985,91.365,91.365,0,0,0-7.1,14.562l-.067.189c.1-1.733.189-6.565.156-6.942-.489-5.254-4.521-15.106-10.286-16.384a6.987,6.987,0,0,0-8.286,6.276C310,160.9,312.85,165.163,315.694,167.884Z" transform="translate(-92.045 -114.693)" fill="#9c9c9c"/>
    </g>
    <g id="freepik--question-marks-2--inject-31" transform="translate(65.835 58.22)">
      <path id="Trazado_7894" data-name="Trazado 7894" d="M375.663,345.081V341.36c0-19.161,24.259-19.994,24.259-33.634,0-5.92-4.821-9.786-12-9.786-7.853,0-12.818,4.276-12.818,10.341V309.8c0,1.511-.822,2.222-2.344,2.222l-14.74-.555c-1.377,0-2.344-.689-2.344-1.644V308.3c0-16.662,13.229-28.113,32.668-28.113,19.016,0,31.279,10.752,31.279,26.869,0,22.882-24.67,23.026-24.67,35.545v2.477a2.11,2.11,0,0,1-2.344,2.344H378.006a2.11,2.11,0,0,1-2.344-2.344ZM374.419,367.3c0-6.065,5.376-11.03,11.852-11.03,6.209,0,11.719,4.965,11.719,11.03s-5.554,11.03-11.852,11.03-11.719-4.987-11.719-11.052Z" transform="translate(-29.492 -31.29)" fill="#263238"/>
      <path id="Trazado_7895" data-name="Trazado 7895" d="M113.194,202.135V198.9c0-16.661,21.1-17.361,21.1-29.213,0-5.154-4.188-8.5-10.408-8.5-6.831,0-11.108,3.71-11.108,8.975v1.322c0,1.311-.711,1.911-2.033,1.911l-12.807-.478c-1.2,0-2.033-.6-2.033-1.433v-1.322c0-14.44,11.485-24.437,28.369-24.437,16.517,0,27.18,9.342,27.18,23.326,0,19.872-21.438,19.994-21.438,30.89V202.1a1.833,1.833,0,0,1-2.033,2.033H115.226a1.833,1.833,0,0,1-2.033-2Zm-1.111,19.272c0-5.265,4.665-9.575,10.286-9.575,5.387,0,10.186,4.31,10.186,9.575s-4.8,9.575-10.3,9.575a9.9,9.9,0,0,1-10.141-9.575Z" transform="translate(-58.266 -46.183)" fill="#2d1674"/>
      <path id="Trazado_7896" data-name="Trazado 7896" d="M353.705,84.6V82.968c0-8.409,10.641-8.775,10.641-14.762,0-2.6-2.122-4.3-5.265-4.3-3.443,0-5.62,1.877-5.62,4.543v.666c0,.666-.367.966-1.033.966l-6.465-.244c-.611,0-1.033-.3-1.033-.722v-.666c0-7.32,5.809-12.341,14.34-12.341,8.342,0,13.729,4.721,13.729,11.8,0,10-10.83,10.1-10.83,15.551v1.111a.922.922,0,0,1-1.033,1.022h-6.409a.911.911,0,0,1-1.022-.989Zm-.544,9.741a5.187,5.187,0,1,1,5.176,4.832,5,5,0,0,1-5.176-4.832Z" transform="translate(-30.683 -56.11)" fill="#2d1674"/>
      <path id="Trazado_7897" data-name="Trazado 7897" d="M73.105,287.58v-2.055c0-10.6,13.418-11.052,13.418-18.605,0-3.277-2.666-5.409-6.665-5.409-4.343,0-7.087,2.366-7.087,5.72v.833c0,.844-.455,1.222-1.3,1.222l-8.153-.3c-.766,0-1.3-.389-1.3-.922v-.833c0-9.219,7.32-15.551,18.072-15.551,10.519,0,17.295,5.943,17.295,14.862,0,12.652-13.64,12.729-13.64,19.672v1.366a1.166,1.166,0,0,1-1.3,1.3H74.383a1.166,1.166,0,0,1-1.277-1.3Zm-.689,12.274a6.531,6.531,0,1,1,6.487,6.1,6.309,6.309,0,0,1-6.509-6.1Z" transform="translate(-62.02 -34.447)" fill="none" stroke="#263238" stroke-miterlimit="10" stroke-width="1"/>
      <path id="Trazado_7898" data-name="Trazado 7898" d="M164.752,113.842v-1.411c0-7.287,9.23-7.609,9.23-12.8,0-2.222-1.833-3.721-4.565-3.721-2.988,0-4.876,1.622-4.876,3.932v.578c0,.578-.311.833-.889.833l-5.554-.211c-.522,0-.889-.255-.889-.622v-.578c0-6.342,5.032-10.7,12.418-10.7s11.785,4.088,11.785,10.219c0,8.708-9.386,8.764-9.386,13.529v.944a.8.8,0,0,1-.889.889h-5.554a.8.8,0,0,1-.833-.889Zm-.467,8.442a4.443,4.443,0,1,1,4.443,4.2,4.332,4.332,0,0,1-4.476-4.176Z" transform="translate(-51.476 -52.45)" fill="#263238"/>
      <path id="Trazado_7899" data-name="Trazado 7899" d="M312.752,387.992v-1.411c0-7.287,9.23-7.6,9.23-12.8,0-2.221-1.833-3.721-4.565-3.721-2.988,0-4.876,1.622-4.876,3.932v.578c0,.578-.311.844-.889.844l-5.554-.211c-.522,0-.889-.267-.889-.633V374c0-6.342,5.032-10.7,12.418-10.7s11.907,4.088,11.907,10.23c0,8.7-9.386,8.753-9.386,13.518v.944a.811.811,0,0,1-.889.9h-5.554a.811.811,0,0,1-.955-.9Zm-.467,8.442a4.443,4.443,0,1,1,4.443,4.2,4.332,4.332,0,0,1-4.432-4.2Z" transform="translate(-35.083 -22.084)" fill="none" stroke="#263238" stroke-miterlimit="10" stroke-width="1"/>
    </g>
    <g id="freepik--question-mark-1--inject-31" transform="translate(177.312 203.353)">
      <path id="Trazado_7900" data-name="Trazado 7900" d="M279.577,411.535c-.078-.233-.156-.467-.244-.7s-.156-.478-.244-.711-.156-.467-.244-.7-.156-.478-.244-.711-.156-.467-.244-.7-.155-.478-.244-.711l-.244-.7c-.078-.244-.167-.478-.244-.711l-.244-.7c-.078-.244-.167-.478-.244-.711l-.244-.7c-.078-.244-.167-.478-.244-.711l-.233-.744c-.078-.244-.167-.478-.244-.711l-.256-.7c-.078-.244-.155-.478-.244-.711s-.156-.467-.244-.7-.156-.478-.244-.711-.156-.467-.244-.7c-3.621-11.019-14.818-19.105-27.136-19.105-11.941,0-22.326,6.953-26.658,16.75-.111.222-.211.455-.311.678l-.3.689c-.111.222-.211.444-.311.678s-.211.455-.311.678l-.3.678c-.111.233-.211.455-.311.689s-.211.444-.311.678-.211.444-.311.678l-.3.678c-.111.222-.211.455-.311.678s-.211.455-.311.678l-.3.689c-.111.222-.211.444-.311.678s-.211.455-.311.678l-.3.678c-.111.233-.211.455-.311.689s-.211.444-.311.678l-.3.678c-.111.222-.211.455-.311.678s-.211.455-.311.689a30.223,30.223,0,0,0-2.866,12.974c0,17.883,15.44,32.5,34.534,32.5,18.683,0,34.934-14.618,34.934-32.5a29.347,29.347,0,0,0-1.766-10A6.127,6.127,0,0,0,279.577,411.535Z" transform="translate(-156.871 -165.478)" fill="#263238"/>
      <path id="Trazado_7901" data-name="Trazado 7901" d="M258.661,186.8c-57.282,0-96.281,33.712-96.281,82.874v4.443a4.265,4.265,0,0,0,2.11,3.621,5.454,5.454,0,0,0,.778.622,30195.874,30195.874,0,0,1,1.577,1.244,4.445,4.445,0,0,0,.789.622,4.777,4.777,0,0,0,.778.622,4.919,4.919,0,0,0,.789.633,5.553,5.553,0,0,0,.789.622,5,5,0,0,0,.789.622,4.9,4.9,0,0,0,.778.622,5.163,5.163,0,0,0,.855.666,6.254,6.254,0,0,0,.722.567,5.554,5.554,0,0,0,.789.622,5.457,5.457,0,0,0,.778.622,5.554,5.554,0,0,0,.789.622,5,5,0,0,0,.789.622,4.9,4.9,0,0,0,.778.622,5,5,0,0,0,.789.622,4.9,4.9,0,0,0,.778.622,5.559,5.559,0,0,0,.789.622,4.9,4.9,0,0,0,.778.622,6.542,6.542,0,0,0,4.665,1.622l35.722,1.333c3.677,0,5.676-1.666,5.676-5.343v-3.666c0-14.7,12.018-25.037,31.1-25.037,17.361,0,29.047,9.342,29.047,23.7a25.674,25.674,0,0,1-.468,4.882c-17.927,23.5-64.59,33.862-64.59,79.481V378.13c0,4.443,2.433,6.9,6.909,6.9h43.009c4.443,0,6.909-2.433,6.909-6.9v-7.32c0-36.966,72.722-37.377,72.722-104.812C350.888,218.479,314.722,186.8,258.661,186.8Z" transform="translate(-162.38 -186.767)" fill="#263238"/>
      <path id="Trazado_7902" data-name="Trazado 7902" d="M221.283,378.155V367.181c0-56.471,71.5-58.871,71.5-99.125,0-17.472-14.218-28.88-35.345-28.88-23.16,0-37.766,12.6-37.766,30.468v4.443c0,4.443-2.444,6.509-6.909,6.509l-43.475-1.633c-4.054,0-6.9-2.033-6.9-4.876v-4.443c0-49.162,39-82.874,96.281-82.874,56.06,0,92.194,31.679,92.194,79.22,0,67.435-72.722,67.846-72.722,104.812v7.32c0,4.443-2.444,6.9-6.909,6.9H228.192C223.715,385.053,221.283,382.62,221.283,378.155Zm-3.654,65.457c0-17.872,15.84-32.5,34.934-32.5,18.283,0,34.534,14.629,34.534,32.5s-16.284,32.445-34.934,32.445C233.046,476.058,217.628,461.44,217.628,443.613Z" transform="translate(-162.379 -186.77)" fill="#2d1674" stroke="#2d1674" stroke-miterlimit="10" stroke-width="1"/>
      <ellipse id="Elipse_318" data-name="Elipse 318" cx="60.659" cy="13.562" rx="60.659" ry="13.562" transform="translate(27.347 298.585)" fill="#263238"/>
    </g>
    <g id="freepik--Character--inject-31" transform="translate(203.148 37.063)">
      <path id="Trazado_7903" data-name="Trazado 7903" d="M201.446,190.85l-2.322,5.065s-13.485,1.455-13.485,2.466.144,7.975.878,8.264a2.388,2.388,0,0,0,1.733,0l19.861-5.076L210,192.583Z" transform="translate(-185.64 -20.028)" fill="#fff" stroke="#263238" stroke-linecap="round" stroke-linejoin="round" stroke-width="1"/>
      <path id="Trazado_7904" data-name="Trazado 7904" d="M197.549,199.2a48.264,48.264,0,0,1-7.942,5.287c-3.21,1.444-3.332,3.632-2.31,3.632s10.086-3.8,10.086-3.8,8.231-2.155,9.419-2.81,1.322-4.3,1.322-4.3" transform="translate(-185.52 -19.324)" fill="#fff" stroke="#263238" stroke-linecap="round" stroke-linejoin="round" stroke-width="1"/>
      <path id="Trazado_7905" data-name="Trazado 7905" d="M211.951,103.23l-8.286,63.514L197.9,201.133l12.8,3.021,9.541-40.676,4.521-25.6Z" transform="translate(-184.282 -29.733)" fill="#7d7d7d" stroke="#263238" stroke-linecap="round" stroke-linejoin="round" stroke-width="1"/>
      <path id="Trazado_7906" data-name="Trazado 7906" d="M272.324,62.3l-5.054-.8L256.918,57.58l-.378,12.3,16.051,1.477Z" transform="translate(-177.787 -34.79)" fill="#fff" stroke="#263238" stroke-linecap="round" stroke-linejoin="round" stroke-width="1"/>
      <path id="Trazado_7907" data-name="Trazado 7907" d="M218.859,264.909a155.825,155.825,0,0,0-10.541,13.773c-4.276,6.531-2.766,13.551,2.51,15.318s12.041-3.021,13.807-6.787,1.255-5.765,4.01-9.53,5.021-7.531,4.021-12.552S221.569,261.4,218.859,264.909Z" transform="translate(-183.403 -12.168)" fill="#7d7d7d" stroke="#263238" stroke-linecap="round" stroke-linejoin="round" stroke-width="1"/>
      <path id="Trazado_7908" data-name="Trazado 7908" d="M224.12,286.371c-.355-.755-.766-1.555-1.255-2.41-4.032-7.1-11.108-6.531-15.551-5.21-2.921,5.965-1.255,11.9,3.532,13.5S221.81,289.937,224.12,286.371Z" transform="translate(-183.399 -10.382)" fill="#fff" stroke="#263238" stroke-linecap="round" stroke-linejoin="round" stroke-width="1"/>
      <path id="Trazado_7909" data-name="Trazado 7909" d="M222.85,285.412c-1.5,2.222-3.51,8.286-11.3,5.776a10.73,10.73,0,0,1-5.554-3.5,7.32,7.32,0,0,0,4.854,6.009c5.265,1.755,12.041-3.021,13.807-6.787s1.255-5.765,4.01-9.53,5.021-7.531,4.021-12.552c0,6.02-2.222,7.02-5.021,10.286S224.361,283.147,222.85,285.412Z" transform="translate(-183.385 -11.834)" fill="#fff" stroke="#263238" stroke-linecap="round" stroke-linejoin="round" stroke-width="1"/>
      <path id="Trazado_7910" data-name="Trazado 7910" d="M285.651,264.909a155.819,155.819,0,0,1,10.541,13.774c4.276,6.531,2.766,13.551-2.51,15.317s-12.041-3.021-13.807-6.787-1.255-5.765-4.01-9.53-5.021-7.531-4.021-12.552S282.9,261.4,285.651,264.909Z" transform="translate(-176.118 -12.168)" fill="#7d7d7d" stroke="#263238" stroke-linecap="round" stroke-linejoin="round" stroke-width="1"/>
      <path id="Trazado_7911" data-name="Trazado 7911" d="M279.52,286.371c.344-.755.755-1.555,1.244-2.41,4.032-7.1,11.108-6.531,15.551-5.21,2.921,5.965,1.255,11.9-3.532,13.5S281.819,289.937,279.52,286.371Z" transform="translate(-175.241 -10.382)" fill="#fff" stroke="#263238" stroke-linecap="round" stroke-linejoin="round" stroke-width="1"/>
      <path id="Trazado_7912" data-name="Trazado 7912" d="M281.645,285.412c1.5,2.222,3.51,8.286,11.3,5.776a10.73,10.73,0,0,0,5.554-3.5,7.32,7.32,0,0,1-4.854,6.009c-5.265,1.755-12.041-3.021-13.807-6.787s-1.255-5.765-4.01-9.53-5.021-7.531-4.021-12.552c0,6.02,2.222,7.02,5.021,10.286S280.135,283.147,281.645,285.412Z" transform="translate(-176.123 -11.834)" fill="#fff" stroke="#263238" stroke-linecap="round" stroke-linejoin="round" stroke-width="1"/>
      <path id="Trazado_7913" data-name="Trazado 7913" d="M304.512,188.58c0-4.521-7.775-9.541-7.775-9.541-11.719-11.919-32.868-10.341-40.676-9.275-7.775-1.111-28.947-2.644-40.665,9.275,0,0-7.775,5.021-7.775,9.541s9.8,86.107,9.8,86.107-.255,4.265,6.776,4.765,10-3.51,10-3.51l2.766-69.034s11.3-8.042,13.329-8.286c.733-.1,1.688-.255,2.755-.389v.133a14.773,14.773,0,0,1,6.031,0v-.133c1.111.133,2.011.289,2.755.389,2.01.244,13.329,8.286,13.329,8.286l2.766,69.034s3.01,4.01,10,3.51,6.776-4.765,6.776-4.765S304.512,193.1,304.512,188.58Z" transform="translate(-183.205 -22.446)" fill="#263238" stroke="#263238" stroke-linecap="round" stroke-linejoin="round" stroke-width="1"/>
      <path id="Trazado_7914" data-name="Trazado 7914" d="M268.423,205.408s-1.511-16.573,5.776-22.848" transform="translate(-176.485 -20.946)" fill="none" stroke="#707070" stroke-linecap="round" stroke-linejoin="round" stroke-width="1"/>
      <path id="Trazado_7915" data-name="Trazado 7915" d="M234.536,205.709s.755-13.807-.755-18.827-4.021-7.031-4.021-7.031" transform="translate(-180.753 -21.246)" fill="none" stroke="#707070" stroke-linecap="round" stroke-linejoin="round" stroke-width="1"/>
      <path id="Trazado_7916" data-name="Trazado 7916" d="M242.42,173.52s8.031,9.286,9.541,17.072" transform="translate(-179.351 -21.948)" fill="none" stroke="#707070" stroke-linecap="round" stroke-linejoin="round" stroke-width="1"/>
      <path id="Trazado_7917" data-name="Trazado 7917" d="M258.741,174s-4.521,5.021-5.021,8.786" transform="translate(-178.099 -21.894)" fill="none" stroke="#707070" stroke-linecap="round" stroke-linejoin="round" stroke-width="1"/>
      <path id="Trazado_7918" data-name="Trazado 7918" d="M250.148,86.08s-7.276-1.011-9.786,1.5S229.31,99.343,229.31,99.343l4.521,79.831s10.3,4.021,19.083,4.021,18.828-3.266,21.1-5.021.255-87.362.255-87.362S255.624,85.325,250.148,86.08Z" transform="translate(-180.803 -31.655)" fill="#2d1674" stroke="#263238" stroke-linecap="round" stroke-linejoin="round" stroke-width="1"/>
      <path id="Trazado_7919" data-name="Trazado 7919" d="M260.447,90.687a91.528,91.528,0,0,1,11.541-1.011c5.021,0,10,.255,10,.255L294.536,77.88,269.277,72.1l2.01-11.541s18.572-1.255,27.858.5,23.848,6.276,24.6,6.276,1.755,2.766,1,4.765-24.37,28.125-31.424,34.9a173.192,173.192,0,0,0-13.051,14.307l-3.221,55.983s8.286,4.521,9.8,6.02,3.266,7.531,3.266,7.531-15.318-6.276-19.338-6.776-6.52-.755-7.276-2.222-7.031-68.534-7.031-68.534l.255-21.338S256.681,90.687,260.447,90.687Z" transform="translate(-177.794 -34.508)" fill="#7d7d7d" stroke="#263238" stroke-linecap="round" stroke-linejoin="round" stroke-width="1"/>
      <path id="Trazado_7920" data-name="Trazado 7920" d="M274.962,118.6,261.4,120.355l1.255,5.021,6.787,1.755,6.52-3.01Z" transform="translate(-177.248 -28.031)" fill="none" stroke="#263238" stroke-linecap="round" stroke-linejoin="round" stroke-width="1"/>
      <path id="Trazado_7921" data-name="Trazado 7921" d="M280.91,91.48l-3.01,26.358L285.686,95.5" transform="translate(-175.421 -31.035)" fill="none" stroke="#263238" stroke-linecap="round" stroke-linejoin="round" stroke-width="1"/>
      <path id="Trazado_7922" data-name="Trazado 7922" d="M290.78,76.36s6.276,1.255,15.817-2.51" transform="translate(-173.994 -32.988)" fill="none" stroke="#263238" stroke-linecap="round" stroke-linejoin="round" stroke-width="1"/>
      <path id="Trazado_7923" data-name="Trazado 7923" d="M296.66,77.79a56.727,56.727,0,0,0,12.3-1" transform="translate(-173.343 -32.662)" fill="none" stroke="#263238" stroke-linecap="round" stroke-linejoin="round" stroke-width="1"/>
      <path id="Trazado_7924" data-name="Trazado 7924" d="M240.39,85.83l1.255,18.328a12.074,12.074,0,0,0,9.786,4.765c6.276-.244,7.031-4.765,7.031-4.765V89.1Z" transform="translate(-179.576 -31.661)" fill="#fff" stroke="#263238" stroke-linecap="round" stroke-linejoin="round" stroke-width="1"/>
      <path id="Trazado_7925" data-name="Trazado 7925" d="M256.93,95.434l-.5,15.084,5.276-8.286s5.776,7.276,7.276,7.031-1-3.266-1.5-6.02-4.776-12.563-5.276-15.317-5.276-3.266-5.554-2.01a12.816,12.816,0,0,0,0,3.266Z" transform="translate(-177.799 -31.723)" fill="#7d7d7d" stroke="#263238" stroke-linecap="round" stroke-linejoin="round" stroke-width="1"/>
      <path id="Trazado_7926" data-name="Trazado 7926" d="M244.7,108.8s1,70.289-1.511,71.089-12.552,1.011-18.883,4.021-9.286,4.265-9.286,4.265,3.01-7.276,6.531-10.541a34.667,34.667,0,0,1,7.775-5.276l-6.52-33.634s-12.052-31.89-12.307-33.645,22.848-14.807,27.614-17.072,6.031-.244,6.031-.244Z" transform="translate(-182.887 -31.539)" fill="#7d7d7d" stroke="#263238" stroke-linecap="round" stroke-linejoin="round" stroke-width="1"/>
      <path id="Trazado_7927" data-name="Trazado 7927" d="M236.31,84.79s-6.02,19.083-6.531,21.593,0,2.51,1.766.744,6.276-6.02,6.276-6.02l4.765,8.031-.255-14.807V85.79S242.086,82.28,236.31,84.79Z" transform="translate(-180.772 -31.876)" fill="#7d7d7d" stroke="#263238" stroke-linecap="round" stroke-linejoin="round" stroke-width="1"/>
      <path id="Trazado_7928" data-name="Trazado 7928" d="M225.045,121.77h14.807l-.244,6.02-6.531,2.255-8.286-2.255Z" transform="translate(-181.304 -27.68)" fill="none" stroke="#263238" stroke-linecap="round" stroke-linejoin="round" stroke-width="1"/>
      <path id="Trazado_7929" data-name="Trazado 7929" d="M265.383,63.156s3.51,15.306,4.265,17.772-4.01,12.307-5.554,14.562A7.309,7.309,0,0,1,258.54,99c-1.755,0-11.3-3.255-13.562-4.765s-4.51-3.266-4.51-3.266a6.031,6.031,0,0,1-6.531-1c-3.01-2.766-7.031-6.031-6.031-8.286a5.9,5.9,0,0,1,5.776-3.51c2.766,0,1.766-.255,1.766-.255s-5.021-7.276-5.021-13.052,10.786-10,17.061-10a33.523,33.523,0,0,1,12.552,3.01Z" transform="translate(-180.976 -35.09)" fill="#fff" stroke="#263238" stroke-linecap="round" stroke-linejoin="round" stroke-width="1"/>
      <path id="Trazado_7930" data-name="Trazado 7930" d="M253.921,67.52l4.521,8.542-4.521,3.01-2.01-2.51" transform="translate(-178.3 -33.689)" fill="none" stroke="#263238" stroke-linecap="round" stroke-linejoin="round" stroke-width="1"/>
      <path id="Trazado_7931" data-name="Trazado 7931" d="M261.456,74.53s.244,2.01-2.766,5.276" transform="translate(-177.549 -32.912)" fill="none" stroke="#263238" stroke-linecap="round" stroke-linejoin="round" stroke-width="1"/>
      <path id="Trazado_7932" data-name="Trazado 7932" d="M249.652,70.563c0,1.177-.511,2.133-1.111,2.133s-1.111-.955-1.111-2.133.511-2.133,1.111-2.133S249.652,69.385,249.652,70.563Z" transform="translate(-178.796 -33.588)" fill="#263238"/>
      <ellipse id="Elipse_319" data-name="Elipse 319" cx="1.133" cy="2.133" rx="1.133" ry="2.133" transform="translate(77.62 30.821)" fill="#263238"/>
      <path id="Trazado_7933" data-name="Trazado 7933" d="M238.849,52.066s-15.8,5.776-16.317,13.063S236.594,82.446,237.349,83.7s3.01-1.511,3.01-1.511a5.832,5.832,0,0,1-1.011-4.765c.755-2.51,4.021-5.554,4.021-6.776s-3.766,1-3.766-2.766,9.286-6.02,14.807-5.776,10.3,9.541,14.318,5.021-1.766-5.765-1.766-5.765,7.775-1.011,7.775-5.021-4.021-6.787-5.776-6.787-6.52,3.021-6.52-.244,4.765-4.776.244-10-10.286,0-10.286,2.01-1.511,5.765-2.51,5.765-4.021-4.51-7.531-2a9.308,9.308,0,0,0-3.51,6.976Z" transform="translate(-181.555 -37.063)" fill="#263238" stroke="#263238" stroke-linecap="round" stroke-linejoin="round" stroke-width="1"/>
      <line id="Línea_1142" data-name="Línea 1142" y1="3.021" x2="8.031" transform="translate(63.825 31.321)" fill="none" stroke="#263238" stroke-linecap="round" stroke-linejoin="round" stroke-width="1"/>
      <path id="Trazado_7934" data-name="Trazado 7934" d="M251.466,62.33a3.454,3.454,0,0,1,.355-2.31" transform="translate(-178.356 -34.52)" fill="none" stroke="#263238" stroke-linecap="round" stroke-linejoin="round" stroke-width="1"/>
      <path id="Trazado_7935" data-name="Trazado 7935" d="M251.78,60.37c.566-1.111,1.844-2.544,4.665-3.71" transform="translate(-178.314 -34.892)" fill="none" stroke="#fff" stroke-linecap="round" stroke-linejoin="round" stroke-width="1"/>
    </g>
  </g>
</svg>
